P2
8 8
16
15 14 13 14 15 13 15 13 15 13 11 12 14 13 14 12 15 14 14 12 14 13 15 11 13 14 15 14 14 14 11 0 12 13 0 0 0 0 12 13 15 14 0 0 11 12 13 15 14 12 12 12 12 15 13 12 14 14 11 12 15 15 12 12 