P2
8 8
16
11 14 11 13 15 12 11 11 15 11 12 11 13 13 15 13 11 15 14 13 15 12 15 13 11 13 12 13 15 12 11 0 14 12 0 0 0 0 14 13 15 14 0 0 12 13 13 13 14 14 11 13 13 11 14 11 13 12 14 13 12 13 11 13 