P2
8 8
16
14 13 15 13 13 12 12 13 14 14 12 13 12 11 15 13 13 15 14 13 12 13 12 13 15 11 14 15 15 14 13 0 14 12 0 0 0 0 11 12 13 12 0 0 15 11 12 13 14 15 14 15 13 13 15 13 11 15 14 13 12 13 15 15 