P2
8 8
16
11 11 11 12 12 12 11 14 11 14 15 13 13 13 15 13 11 12 11 12 12 13 11 14 12 14 13 14 12 11 11 0 15 15 15 0 0 0 13 12 12 14 0 0 15 15 15 11 11 11 12 14 12 13 11 13 13 15 11 12 11 11 15 13 