P2
8 8
16
12 14 15 13 14 13 15 14 13 12 14 11 11 15 14 14 13 13 11 11 14 11 13 11 13 12 14 13 14 12 0 11 11 0 0 15 14 13 12 11 15 13 11 15 11 14 14 13 12 14 13 13 11 14 12 11 15 15 15 11 14 11 15 14 