P2
8 8
16
14 13 15 12 12 14 15 11 15 15 13 13 14 12 14 11 13 14 14 11 11 13 12 12 13 11 0 0 0 0 12 0 12 12 15 13 11 12 15 14 14 14 12 15 11 12 13 15 13 13 14 14 12 13 14 14 14 14 11 11 11 11 15 13 