P2
8 8
16
12 11 15 15 12 14 13 13 13 12 11 14 14 12 15 11 15 12 12 14 12 13 12 11 15 11 0 0 0 0 13 0 14 11 11 11 14 14 12 14 11 15 13 11 11 11 14 12 13 15 12 12 15 12 14 13 13 12 11 11 15 13 12 14 