P2
8 8
16
12 12 15 13 11 14 12 11 14 13 13 14 13 11 14 14 13 11 15 15 15 13 15 15 14 13 0 0 0 0 11 0 12 12 15 14 14 11 15 13 14 14 14 11 13 15 11 11 11 14 11 13 12 14 12 12 14 13 12 12 12 12 15 13 