P2
8 8
16
15 12 14 14 11 12 15 15 12 12 14 14 11 15 13 15 11 15 15 11 13 12 15 15 14 14 14 12 14 11 0 14 11 0 0 15 14 15 11 15 12 12 13 14 15 13 13 14 12 15 14 15 11 12 12 14 12 14 12 13 12 14 11 15 