P2
8 8
16
13 11 13 13 14 11 11 13 15 14 13 12 14 11 14 13 13 15 14 15 14 13 13 13 12 13 11 13 13 11 12 0 11 14 12 0 0 0 13 12 14 14 0 0 11 13 11 11 13 11 14 11 11 15 15 12 13 13 11 15 12 15 14 14 