P2
8 8
16
15 11 14 13 12 11 14 15 11 12 15 11 15 12 15 12 14 11 11 15 13 13 14 15 11 11 11 15 11 13 14 0 15 14 0 0 0 0 12 13 13 15 0 0 11 15 15 15 14 14 11 11 15 15 11 14 12 12 15 13 14 11 14 15 