P2
8 8
16
13 14 12 11 12 11 12 15 14 13 13 13 13 15 13 14 11 11 11 11 11 13 11 13 14 15 14 15 12 11 15 0 15 12 11 0 0 0 11 11 15 15 0 0 15 12 13 14 14 15 14 15 15 15 12 15 11 15 11 15 14 14 13 13 