P2
8 8
16
13 14 11 12 15 15 11 14 13 11 14 12 14 12 13 14 14 12 14 12 11 14 15 15 11 14 0 0 0 0 14 0 13 13 12 15 12 12 13 14 13 15 15 15 14 11 11 15 12 15 13 11 12 11 13 15 11 15 15 12 11 13 13 14 