P2
8 8
16
13 12 12 11 14 15 13 15 15 12 12 11 12 15 13 15 11 14 13 12 11 12 15 15 15 11 0 0 0 0 14 0 11 14 15 15 13 12 14 11 12 11 12 11 15 12 15 11 12 11 14 14 15 15 15 15 15 12 11 14 13 12 15 11 