P2
8 8
16
11 13 12 14 15 13 12 15 11 12 14 11 14 12 13 12 11 12 14 11 14 12 12 13 14 12 12 15 11 11 14 0 12 15 0 0 0 0 11 13 13 13 0 0 13 11 12 14 15 13 14 14 15 12 13 11 11 13 14 15 13 11 14 11 