P2
8 8
16
12 14 11 14 11 15 15 11 14 15 11 11 12 13 14 14 13 14 11 11 14 12 14 15 11 13 0 0 0 0 14 0 13 12 15 15 13 14 14 11 11 14 11 11 11 15 12 12 12 11 14 12 12 14 13 14 12 11 13 13 13 12 15 12 