P2
8 8
16
15 15 11 14 14 12 12 13 12 13 13 12 11 12 12 12 11 13 15 14 11 12 14 14 15 15 11 13 12 13 12 0 12 11 0 0 0 0 11 13 12 11 0 0 13 14 14 13 12 13 12 14 15 12 13 12 12 13 15 15 11 14 14 14 