P2
8 8
16
13 14 15 15 14 12 12 11 13 14 11 13 14 14 13 11 13 14 15 15 11 14 14 14 12 12 0 0 0 0 13 0 15 13 13 15 14 15 12 11 11 14 14 14 12 14 11 15 11 15 12 11 12 15 14 11 11 15 14 14 12 11 14 11 