P2
8 8
16
15 13 13 14 15 11 14 11 11 14 13 11 15 15 15 13 13 11 14 14 13 12 13 13 13 11 0 0 0 0 14 0 14 14 12 15 12 12 12 14 12 12 14 11 11 13 12 14 14 15 12 13 14 11 13 13 14 15 11 11 14 12 13 14 