P2
8 8
16
14 14 11 14 15 13 13 12 15 13 15 11 11 13 14 12 14 12 15 13 14 12 11 11 15 14 0 0 0 0 15 0 13 11 11 12 11 15 11 14 13 11 14 14 11 13 14 12 14 15 13 14 15 15 14 15 11 13 14 15 13 11 13 11 