P2
8 8
16
14 11 11 14 14 14 11 15 14 15 14 12 11 11 14 12 11 11 15 15 12 14 12 12 12 11 0 0 0 0 11 0 13 12 13 14 14 14 12 14 14 13 15 15 15 12 14 15 14 15 13 12 14 15 12 13 11 12 12 12 15 13 13 13 