P2
8 8
16
11 12 13 11 11 13 12 11 13 11 15 12 13 14 13 12 14 15 11 11 13 11 11 11 12 12 0 0 0 0 14 0 12 14 15 14 11 15 12 14 14 12 15 15 14 12 14 15 12 12 11 15 14 14 14 14 11 15 14 14 14 15 14 14 