P2
33 33
250
13 8 8 9 2 2 9 12 1 15 1 13 15 3 5 9 6 5 3 7 14 11 7 9 11 14 6 10 4 9 3 11 12 11 3 11 1 15 12 3 13 8 13 5 7 13 13 1 5 3 3 12 3 4 12 1 3 5 14 8 7 2 3 6 1 12 12 14 7 9 3 1 5 13 5 4 7 8 7 6 8 14 1 1 12 3 5 4 7 9 2 3 1 4 9 6 12 8 2 9 3 8 5 10 12 1 8 3 1 5 12 10 8 11 15 12 1 4 6 14 9 11 5 7 8 4 8 3 2 3 15 6 8 9 5 8 10 10 11 1 5 2 12 10 10 12 2 12 15 3 8 4 10 13 11 4 4 15 6 15 6 6 5 6 15 7 2 3 15 9 12 13 2 1 11 4 3 8 11 14 14 13 13 2 13 3 6 7 10 9 1 7 4 13 4 15 7 3 13 3 10 1 8 11 7 11 5 4 2 9 15 14 11 11 15 15 4 13 6 13 13 3 7 11 7 10 3 10 2 1 13 13 6 11 12 6 9 2 6 15 3 10 13 8 9 10 9 2 6 6 7 7 9 3 6 0 2 15 7 11 8 10 5 14 4 12 8 4 5 15 9 5 12 13 1 11 1 13 13 10 13 6 12 10 8 0 0 0 0 13 9 8 10 7 6 9 1 0 0 0 0 0 0 0 0 0 0 0 0 0 0 0 0 0 0 0 0 0 0 0 0 0 1 9 15 2 9 4 10 15 0 0 0 0 0 0 0 0 0 0 0 0 0 0 0 0 0 0 0 0 0 0 0 0 8 15 11 7 7 15 11 4 15 0 0 0 0 0 0 0 0 0 0 0 0 0 0 0 0 0 0 0 0 0 0 0 11 5 7 1 15 4 13 15 13 11 0 0 0 0 0 0 0 0 0 0 0 0 0 0 0 0 0 0 0 0 0 6 8 9 9 12 15 6 10 6 10 5 11 0 0 0 0 0 0 0 0 0 0 0 0 0 0 0 0 0 0 0 0 12 10 11 13 2 9 14 4 15 14 15 4 3 9 0 0 0 0 0 0 0 0 0 0 0 0 0 0 0 0 0 2 11 7 1 6 10 2 10 4 11 10 9 13 4 7 3 13 15 0 0 0 0 0 0 0 0 0 0 0 0 0 12 12 11 15 1 7 8 9 14 9 8 11 2 8 7 7 11 1 2 10 5 5 1 1 0 0 0 0 0 11 4 12 15 3 11 6 13 10 8 1 11 11 7 7 3 4 13 15 4 8 1 5 1 8 10 13 9 12 4 2 3 6 15 11 2 8 10 12 5 11 9 15 12 14 5 13 3 10 11 2 7 10 13 8 1 14 6 13 2 14 11 3 15 10 6 9 10 11 7 1 1 11 13 1 13 3 3 1 9 10 8 2 7 12 8 13 15 11 10 11 7 3 4 9 5 13 8 12 12 12 15 7 5 5 15 4 12 7 3 15 3 14 9 9 6 7 1 8 6 7 3 11 7 13 7 2 11 2 7 3 12 5 12 7 11 5 12 13 3 10 2 14 8 11 6 14 10 14 8 11 15 15 13 12 7 2 2 12 8 6 11 15 2 15 6 11 6 3 2 1 11 7 11 11 10 2 14 4 15 4 3 2 2 7 4 15 10 8 14 2 15 14 8 15 13 3 1 7 7 2 6 1 3 14 9 3 10 14 6 2 10 13 15 9 5 3 1 1 11 10 10 8 6 3 13 11 1 6 11 12 11 14 8 10 3 1 14 7 4 6 11 5 7 11 15 7 6 4 2 1 14 8 11 3 3 7 15 12 7 15 13 4 8 2 12 4 7 8 14 11 8 3 10 11 4 8 2 6 5 4 10 9 5 1 6 11 7 12 10 1 13 8 4 2 9 15 11 14 4 9 1 4 5 10 14 3 8 5 6 7 11 3 6 7 1 8 2 6 8 7 7 12 4 4 8 15 11 14 14 3 9 14 1 3 3 10 9 2 1 10 14 14 14 4 3 11 11 11 11 4 6 6 11 11 1 1 9 1 8 1 12 3 11 15 9 6 10 14 9 12 3 6 4 8 1 5 12 12 11 6 7 8 12 6 8 5 10 1 6 3 5 11 10 14 7 1 15 6 4 13 9 5 11 7 4 2 13 2 4 1 8 9 11 12 15 3 2 2 11 8 12 14 7 5 3 9 7 2 10 15 3 7 5 7 10 15 9 8 2 5 13 9 13 13 5 13 7 10 12 5 10 11 14 5 15 1 6 3 8 13 12 12 5 10 9 7 1 7 5 11 8 11 7 10 3 9 12 9 12 12 5 9 4 11 15 8 12 12 12 15 1 4 3 1 15 6 12 14 10 5 10 7 3 4 1 4 13 15 5 13 6 1 10 3 7 1 4 4 6 4 4 6 2 14 7 15 13 8 11 10 6 7 2 4 8 7 13 10 13 11 14 4 2 10 1 13 7 10 