P2
33 33
250
2 6 1 3 5 6 12 5 2 5 8 12 7 9 5 5 10 1 13 2 14 12 7 4 3 15 9 10 2 15 12 6 2 10 3 12 9 12 15 8 12 4 15 13 15 6 8 6 11 14 1 3 15 6 6 9 8 13 3 10 8 4 14 13 3 9 6 10 2 12 12 5 13 4 12 5 4 11 8 4 7 12 11 15 1 3 15 14 3 1 8 9 8 10 4 1 4 12 7 14 6 3 12 5 6 12 5 10 2 8 12 5 6 5 12 13 13 3 12 6 7 5 6 12 15 14 3 8 15 3 1 5 15 6 15 15 12 12 14 5 15 9 1 15 12 6 11 6 14 15 13 7 15 3 5 1 4 7 6 2 2 1 2 7 14 14 14 12 7 15 9 10 6 3 11 7 13 7 9 13 14 10 15 12 8 13 14 9 12 9 13 6 2 13 7 6 14 12 1 4 10 10 6 5 12 5 13 5 6 7 12 14 10 6 10 4 15 13 10 9 7 6 6 6 15 8 13 2 11 14 4 11 1 3 8 5 1 11 7 8 1 11 11 11 4 6 6 13 15 9 12 2 13 2 9 14 14 7 15 6 8 8 1 5 9 9 15 2 14 3 13 9 4 13 6 14 6 4 10 2 7 7 12 9 13 15 6 9 8 14 4 12 11 4 13 9 5 15 9 7 8 12 15 8 12 11 9 12 11 12 3 4 9 3 11 1 1 5 0 0 0 0 0 14 8 6 4 6 13 2 13 13 2 5 13 5 15 6 13 3 11 5 3 7 4 13 0 0 0 0 0 0 0 0 0 0 0 0 0 0 0 2 12 1 2 10 12 6 1 13 6 11 9 14 11 15 10 0 0 0 0 0 0 0 0 0 0 0 0 0 0 0 0 0 0 0 13 8 9 15 2 3 1 1 5 8 5 13 0 0 0 0 0 0 0 0 0 0 0 0 0 0 0 0 0 0 0 0 0 7 13 3 12 5 13 14 13 11 5 0 0 0 0 0 0 0 0 0 0 0 0 0 0 0 0 0 0 0 0 0 0 0 9 8 14 12 2 14 5 6 3 0 0 0 0 0 0 0 0 0 0 0 0 0 0 0 0 0 0 0 0 0 0 0 0 7 7 12 5 13 4 14 0 0 0 0 0 0 0 0 0 0 1 2 15 2 11 1 9 3 7 4 12 4 2 0 0 0 10 13 8 15 4 11 0 0 0 0 0 0 0 0 7 1 2 13 3 11 3 5 6 10 2 10 3 14 3 8 11 12 8 10 14 12 10 6 0 0 0 0 0 0 2 9 7 1 3 9 14 10 9 9 2 12 6 5 11 5 7 3 9 13 12 4 7 5 5 10 13 0 0 0 0 0 6 2 3 5 2 3 15 2 4 2 9 6 6 15 10 15 9 14 5 3 10 11 15 3 10 13 7 15 0 0 0 14 14 7 1 4 8 5 7 5 4 6 5 3 15 14 13 1 13 15 15 9 6 7 7 9 15 7 14 8 10 0 0 12 5 3 3 12 5 10 3 13 3 9 15 2 11 12 8 5 4 10 11 5 13 9 11 2 5 12 8 3 4 8 7 12 8 13 14 10 11 15 12 10 1 15 4 14 14 13 10 7 8 11 12 4 5 15 9 11 7 3 6 11 2 8 11 12 9 13 2 12 4 1 14 8 12 9 2 2 3 1 1 4 13 15 15 2 10 4 6 15 3 8 10 3 14 9 15 10 3 5 12 1 9 10 9 2 15 1 9 2 15 15 6 4 4 6 11 13 2 9 7 11 10 11 12 11 2 11 4 7 13 12 2 8 7 12 8 5 2 8 1 13 2 11 2 13 10 13 2 6 2 4 13 12 10 11 10 11 9 2 5 4 9 15 5 14 4 6 6 10 8 5 14 14 14 5 10 11 10 15 14 9 9 7 8 12 12 7 6 9 15 10 4 2 1 8 8 14 6 9 4 1 4 11 11 13 10 7 7 1 8 11 4 5 10 13 13 14 8 7 12 2 14 12 2 1 15 1 11 10 3 2 13 7 12 10 5 7 4 7 11 13 7 10 4 11 8 2 1 12 13 3 1 5 15 1 11 9 14 13 5 15 2 5 14 5 13 9 5 6 2 9 6 15 12 14 13 15 13 14 10 4 5 10 4 11 5 13 3 5 9 15 1 6 10 2 10 15 12 10 1 1 4 2 10 4 11 11 4 10 11 11 7 4 15 14 15 2 12 14 6 7 6 12 5 4 14 7 5 6 1 10 7 2 13 3 11 7 15 5 1 13 13 12 11 14 2 12 14 12 8 5 2 4 1 12 9 5 1 10 1 15 7 12 3 6 4 11 3 14 6 3 10 11 9 13 15 8 1 1 9 1 7 8 9 7 6 1 2 8 8 8 10 14 12 7 12 4 9 14 6 10 10 5 5 10 6 1 10 15 15 2 8 15 4 11 1 15 6 15 11 9 8 