P2
33 33
250
15 9 4 7 2 14 11 4 15 8 14 3 14 9 6 14 6 15 14 5 10 7 2 12 12 11 4 14 6 1 9 13 3 13 4 7 14 13 2 13 14 2 4 7 13 10 6 7 7 15 5 2 4 15 2 12 14 14 7 7 8 8 4 7 1 13 1 4 11 5 1 14 9 9 1 1 1 5 11 8 9 9 6 5 11 15 9 11 13 1 4 13 2 5 5 13 13 4 8 4 9 1 4 11 5 10 2 5 6 15 1 8 12 8 7 1 14 4 7 12 3 5 6 14 11 8 12 7 13 11 1 13 4 10 11 13 4 11 1 1 6 0 0 0 0 0 7 4 15 13 11 7 9 14 2 8 12 7 3 14 13 14 6 14 7 6 11 10 15 0 0 0 0 0 0 0 0 0 0 0 0 0 0 0 11 12 3 4 1 10 6 1 4 3 11 8 12 2 3 0 0 0 0 0 0 0 0 0 0 0 0 0 0 0 0 0 0 0 0 0 1 13 4 3 13 4 8 4 11 10 1 0 0 0 0 0 0 0 0 0 0 0 0 0 0 0 0 0 0 0 0 0 0 0 0 3 11 2 7 1 15 13 3 5 0 0 0 0 0 2 15 12 15 3 1 6 2 2 13 3 14 10 0 0 0 0 0 0 0 8 3 13 14 13 8 7 12 0 0 13 14 2 7 5 10 8 9 10 14 13 14 15 11 15 6 4 2 3 0 0 0 0 0 14 7 5 1 2 3 12 7 1 3 13 3 14 1 1 2 4 2 9 3 8 12 11 14 6 6 8 1 14 12 9 0 0 0 3 8 11 2 11 3 14 12 5 13 10 7 5 9 11 10 8 6 3 7 9 14 14 7 13 14 12 11 10 12 5 0 0 10 9 2 10 9 11 7 10 12 5 8 7 13 2 2 9 12 8 4 5 5 15 1 6 1 9 9 12 9 7 2 12 6 12 10 1 8 8 2 10 3 4 9 9 13 11 8 12 13 3 5 5 15 1 5 14 2 15 2 3 14 8 15 14 6 15 2 8 9 7 4 5 1 13 13 12 2 7 8 14 7 9 1 10 6 9 2 2 5 2 9 4 6 8 2 13 6 13 2 1 13 12 8 2 13 14 13 1 9 15 15 2 6 10 3 14 11 15 2 5 1 7 1 10 1 8 4 4 6 3 15 7 13 3 6 15 5 2 8 14 15 5 15 4 4 8 11 12 12 8 5 10 4 12 8 9 15 9 10 4 5 14 11 5 7 6 2 3 12 15 12 8 5 2 12 6 9 1 2 1 2 12 11 6 10 12 12 8 7 9 15 12 9 8 1 1 10 2 13 5 12 3 11 14 2 8 3 1 11 10 7 9 8 11 10 14 13 8 13 12 3 1 1 8 15 10 15 4 1 11 12 9 14 8 12 9 11 6 14 6 2 3 9 2 6 10 9 9 1 11 8 15 2 12 15 12 11 4 1 11 4 2 13 13 12 11 3 7 7 13 7 9 6 7 14 12 6 4 6 14 2 2 12 2 11 3 8 7 2 11 2 11 7 3 9 9 7 9 4 4 4 14 9 4 6 2 2 5 9 1 7 10 13 11 6 10 12 5 6 13 11 8 13 1 10 1 10 11 6 8 4 3 15 6 8 5 7 7 9 5 12 10 14 5 12 1 11 6 11 6 3 4 12 10 11 15 14 9 5 6 7 5 1 4 2 3 10 2 15 12 14 10 7 6 9 3 8 13 4 7 7 8 11 3 11 14 15 9 1 4 9 10 13 14 2 12 4 6 3 3 15 14 2 3 13 4 8 3 14 10 9 7 14 11 10 7 2 1 7 12 10 3 9 7 9 4 13 11 7 6 12 7 12 1 4 12 13 2 4 1 10 2 10 2 11 9 9 8 1 2 15 10 11 4 9 11 12 7 10 4 1 9 12 1 9 9 7 14 7 14 12 1 2 10 12 15 2 14 7 7 3 9 12 7 9 8 5 6 14 10 5 12 13 14 15 7 7 1 12 3 12 9 6 7 5 15 8 5 11 13 1 5 1 7 15 5 14 4 8 4 15 5 7 8 14 10 15 11 4 7 10 14 8 1 13 7 7 15 6 14 8 5 5 9 11 4 3 7 15 11 7 11 12 9 6 15 12 11 9 2 4 10 6 4 10 13 13 1 2 12 7 5 7 15 1 10 1 1 3 15 6 13 3 2 8 5 13 14 4 2 10 13 5 15 15 11 9 5 10 13 3 14 9 10 12 15 3 8 9 11 10 8 1 7 13 2 11 1 11 9 1 4 6 9 2 11 13 7 1 6 13 5 8 3 13 4 5 13 9 14 6 1 13 1 3 9 11 1 8 7 1 7 6 3 8 13 8 2 1 2 4 7 10 9 14 14 5 11 10 15 5 3 10 4 13 9 6 8 4 12 7 14 11 9 10 7 14 2 7 7 5 14 15 12 6 3 14 9 7 