P2
33 33
250
3 4 3 7 2 11 13 13 4 11 5 13 5 5 12 6 9 5 8 5 4 3 9 7 15 4 13 13 3 1 2 8 2 15 9 12 11 15 9 3 7 15 6 2 13 2 12 11 6 13 8 3 14 9 3 1 15 15 8 5 9 11 10 9 15 14 5 14 5 7 5 12 15 13 5 1 10 15 3 13 10 15 11 13 1 9 3 14 11 3 10 2 9 3 6 11 4 2 13 15 10 3 12 2 10 14 6 6 10 1 10 2 7 4 9 11 7 5 12 12 10 12 9 8 12 5 11 8 5 2 13 15 6 1 2 9 11 10 9 10 1 14 13 11 12 5 12 5 11 1 11 6 10 5 15 11 9 14 7 12 15 9 8 12 11 1 1 1 8 8 6 12 12 1 6 5 2 13 11 5 3 3 1 6 10 10 11 12 3 1 10 6 5 4 6 14 9 2 12 13 12 10 9 13 13 1 12 6 2 14 7 3 10 8 2 11 0 0 0 0 0 4 12 10 8 10 3 6 12 13 1 7 5 10 8 8 8 15 7 15 1 6 3 1 15 0 0 0 0 0 0 0 0 0 0 0 0 0 11 11 10 4 6 15 8 7 2 15 1 15 6 2 13 8 7 9 0 0 0 0 0 0 0 0 0 0 0 0 0 0 0 0 0 0 7 7 14 15 3 2 1 13 11 15 4 15 9 0 0 0 0 0 0 0 0 0 0 0 0 0 0 0 0 0 0 0 0 0 0 7 1 10 11 7 4 10 6 12 4 0 0 0 0 0 0 0 0 9 1 14 15 15 7 10 7 6 11 10 5 2 4 0 0 9 11 5 15 10 13 6 0 0 0 0 0 0 0 13 5 8 8 4 12 13 9 4 6 12 8 1 11 5 6 11 7 6 14 8 8 2 13 10 0 0 0 0 0 15 6 5 6 2 10 8 15 4 7 8 8 13 12 11 14 11 13 13 15 11 2 1 15 9 14 8 0 0 0 0 10 11 4 12 7 10 6 6 5 11 7 13 10 6 5 12 11 10 11 14 14 3 2 2 12 10 7 6 0 0 0 4 13 15 9 11 5 5 9 3 14 8 13 9 9 8 8 3 11 7 14 2 1 1 6 9 3 3 2 8 7 0 0 13 9 1 2 9 6 1 9 3 14 15 12 11 6 15 7 15 13 14 7 7 2 8 7 5 12 6 9 15 5 0 8 14 3 15 6 4 12 2 14 12 12 14 5 11 14 8 5 1 7 9 7 10 8 14 9 15 14 5 7 1 7 0 13 4 3 5 10 7 15 8 13 8 14 8 9 14 12 11 1 13 15 8 9 12 1 3 5 3 2 2 2 15 8 0 7 9 14 8 5 11 4 5 13 7 14 14 5 6 6 9 8 9 10 14 7 15 6 5 6 9 4 2 9 9 8 2 9 12 1 5 5 4 10 3 4 5 11 14 12 7 15 3 1 3 9 9 6 12 9 3 9 13 5 8 10 10 8 1 13 7 11 9 12 11 13 8 13 5 4 10 1 9 7 12 10 10 5 2 3 4 7 11 9 6 1 14 2 6 13 11 8 11 3 6 3 13 4 2 13 5 10 12 1 11 14 10 9 15 2 7 2 9 14 3 15 12 6 9 6 12 7 8 15 5 9 6 15 12 4 3 7 14 4 10 6 7 1 7 14 14 1 8 9 1 1 11 14 2 12 15 15 6 8 6 2 3 7 14 5 7 3 6 8 10 8 10 2 15 10 6 10 2 12 1 5 11 2 6 2 11 5 6 4 12 5 13 15 11 9 10 13 3 15 15 7 15 2 6 13 10 2 1 9 6 11 13 2 1 3 3 3 3 4 10 7 14 10 6 3 13 3 15 6 14 15 9 12 2 14 4 12 12 11 4 14 13 2 12 14 5 8 14 3 6 3 7 13 7 14 11 12 9 15 10 10 5 11 9 13 3 4 11 1 12 13 13 3 4 1 10 13 3 13 14 11 15 4 4 14 10 13 1 6 7 11 1 1 10 10 6 14 2 8 6 12 4 2 8 6 9 3 3 2 14 7 4 15 14 1 12 9 11 5 2 6 8 4 2 8 4 5 13 2 9 10 3 7 9 5 13 15 6 10 1 2 15 3 6 10 8 14 1 6 9 8 10 2 3 1 2 10 5 6 14 15 13 7 7 8 10 6 8 9 10 1 15 5 1 11 1 14 3 5 3 2 5 9 14 8 6 4 4 11 5 1 10 10 1 8 9 5 8 14 14 15 6 12 4 9 12 14 11 6 1 7 4 2 12 4 14 8 13 3 9 10 9 14 12 14 4 8 10 11 2 13 3 1 4 7 3 14 13 11 1 12 12 10 4 2 4 10 11 8 9 15 2 9 14 15 5 8 9 11 5 11 6 10 1 12 12 8 5 14 8 8 1 11 9 10 3 14 3 3 6 5 4 6 6 7 13 4 15 3 2 13 11 11 