P2
33 33
250
9 2 10 4 14 13 5 12 9 6 10 11 3 3 11 13 1 14 11 8 10 4 7 2 1 9 8 6 6 7 7 1 8 7 5 2 3 7 7 2 8 14 8 11 3 2 4 6 10 11 7 2 4 5 11 13 13 3 11 14 4 5 11 15 8 6 5 7 5 11 1 3 11 15 6 2 4 4 6 3 14 1 9 10 2 12 7 13 11 6 1 14 3 4 9 15 11 1 14 1 4 8 9 15 15 2 11 11 10 11 12 15 5 8 15 12 4 2 3 4 5 6 11 5 3 5 2 8 12 3 1 12 6 2 12 1 6 9 9 10 9 14 3 4 9 11 3 11 7 7 7 9 5 1 7 9 14 10 5 8 10 15 14 5 7 7 11 11 8 12 5 10 12 14 6 2 8 15 9 10 15 1 10 1 8 11 14 6 14 5 1 2 4 8 2 2 4 11 4 12 15 9 7 4 13 12 13 12 13 11 13 8 1 5 10 3 3 4 9 7 3 12 9 4 2 13 11 4 4 10 4 10 14 1 5 14 15 2 10 2 8 10 9 2 10 3 8 10 9 6 5 14 8 14 10 6 7 7 13 3 14 8 1 5 3 8 6 1 11 11 5 6 2 7 15 13 1 8 9 3 4 6 7 7 9 3 15 9 11 1 8 8 7 6 7 0 0 2 5 2 11 14 12 9 3 10 6 15 5 15 15 4 2 11 9 3 13 2 1 3 1 14 2 11 5 4 0 0 0 0 6 2 15 14 8 7 14 10 5 7 14 13 14 3 14 3 15 5 4 3 2 5 6 13 13 4 0 0 0 0 0 0 0 3 15 5 13 10 1 11 14 11 5 15 12 13 14 4 6 1 11 11 13 8 14 0 0 0 0 0 0 0 0 0 0 2 9 15 2 0 0 5 7 13 4 7 8 15 5 1 13 15 5 3 0 0 0 0 0 0 0 0 0 0 0 0 0 12 1 15 14 9 2 0 0 0 0 0 0 0 0 0 0 0 0 0 0 0 0 0 0 0 0 0 0 0 0 0 0 4 5 1 12 7 13 13 6 0 0 0 0 0 0 0 0 0 0 0 0 0 0 0 0 0 0 0 0 0 0 0 8 11 3 4 4 11 13 15 7 2 5 14 0 0 0 0 0 0 0 0 0 0 0 0 0 0 0 0 0 0 0 4 12 1 5 6 2 3 15 13 1 6 1 5 7 10 12 0 0 0 0 0 0 0 0 0 0 0 0 0 0 11 12 8 5 14 14 4 11 10 2 5 3 8 1 5 11 7 12 3 14 14 1 10 14 0 0 0 0 1 5 15 9 12 1 2 2 4 14 3 2 10 11 4 9 8 9 7 13 14 4 11 6 8 11 10 2 12 15 14 6 9 3 11 8 7 3 3 3 2 10 9 10 11 9 4 11 14 3 15 15 1 7 12 10 11 4 4 10 3 3 6 13 12 13 6 8 10 9 13 7 5 9 14 12 7 3 15 2 15 12 1 3 1 10 13 6 1 5 4 10 15 5 15 3 7 3 5 1 13 3 5 12 5 13 13 2 10 10 4 1 9 2 14 1 8 6 2 12 2 4 2 13 6 12 5 11 15 11 1 4 13 6 11 2 9 3 2 3 9 9 7 3 6 6 12 15 15 14 6 10 12 6 15 4 7 12 5 13 10 12 2 1 10 8 8 6 6 10 12 10 3 1 13 15 9 5 5 12 3 3 13 8 5 7 9 10 2 3 8 12 11 10 2 7 5 5 2 12 4 5 14 9 8 8 15 14 11 13 5 13 11 12 7 1 3 15 13 9 2 13 2 4 14 13 11 10 11 14 13 4 7 1 11 13 3 4 11 5 14 15 8 9 1 1 10 6 4 6 9 2 5 9 9 7 5 2 1 13 10 15 8 10 4 1 3 4 10 4 2 15 1 2 4 13 9 8 1 6 8 7 3 8 14 7 1 3 5 9 1 5 4 3 6 2 15 1 8 13 8 11 4 6 9 10 4 12 6 2 12 9 13 14 2 12 1 12 12 4 7 2 15 14 5 10 10 12 9 11 4 11 3 5 5 9 12 11 10 10 10 11 8 7 1 3 7 15 7 10 8 1 1 11 14 6 13 15 14 2 1 14 1 10 10 6 11 8 10 4 9 12 12 14 5 5 14 5 14 12 1 7 13 2 10 8 14 3 3 15 8 9 15 2 13 1 13 2 8 2 1 1 8 1 9 14 14 11 6 15 15 9 2 12 13 9 12 6 1 15 1 15 13 15 8 13 12 8 7 1 12 13 7 7 4 3 12 13 6 7 5 10 2 15 15 1 1 1 10 3 15 6 1 13 13 3 9 1 1 10 10 9 1 8 12 10 5 11 1 7 15 13 5 8 13 15 2 4 2 5 11 7 8 6 8 14 5 15 5 11 3 14 14 14 12 14 8 8 14 15 12 4 13 10 10 1 1 3 2 2 