P2
33 33
250
8 8 15 1 5 9 5 4 5 6 15 1 10 7 3 11 12 4 9 15 11 15 15 9 11 3 8 1 11 13 15 4 8 7 12 7 8 13 7 6 1 1 13 12 14 8 2 2 7 13 12 10 3 9 12 14 12 4 15 6 6 2 10 9 12 3 6 10 10 4 12 7 15 10 13 9 9 7 9 6 3 3 9 2 12 2 12 12 14 13 8 14 9 9 11 2 7 1 10 2 7 7 11 14 15 12 4 7 1 8 1 12 2 13 5 7 13 6 1 10 1 8 11 6 11 13 9 6 7 10 1 0 0 5 11 11 2 15 11 7 4 8 4 10 5 9 2 8 2 10 11 11 7 12 14 13 3 4 11 3 6 2 0 0 0 0 0 0 0 2 15 6 3 9 1 11 7 9 1 8 2 9 1 15 6 14 4 13 14 7 7 13 0 0 0 0 0 0 0 0 0 0 0 0 0 5 12 6 10 10 11 4 11 15 5 14 6 11 1 1 12 4 0 0 0 0 0 0 0 0 0 0 0 0 0 0 0 0 0 0 0 0 0 0 0 0 0 0 0 0 0 0 0 0 0 0 0 0 0 0 0 0 0 0 0 0 0 0 0 0 0 0 0 0 0 0 0 0 0 0 0 0 0 0 0 0 0 0 0 0 0 0 0 0 0 4 8 13 6 0 0 0 0 0 0 0 0 0 0 0 0 0 0 0 0 0 0 0 0 0 0 0 0 0 0 0 15 8 7 15 8 2 4 2 1 13 0 0 0 0 0 0 0 0 0 0 0 0 0 0 0 0 0 0 0 3 11 2 1 11 13 12 2 8 14 3 15 12 2 10 11 8 8 14 11 5 0 0 0 0 0 5 11 4 1 3 9 5 10 8 3 10 5 4 13 6 4 10 15 5 1 1 7 10 5 11 12 2 6 9 11 10 8 2 1 13 11 14 8 11 5 14 2 8 2 5 15 1 13 13 3 13 15 4 12 10 15 11 10 8 9 9 1 3 7 2 2 8 7 15 8 5 11 12 6 15 13 6 7 12 9 10 11 5 14 1 9 3 10 7 11 1 2 14 11 13 15 6 14 7 2 12 11 4 12 13 2 3 12 8 3 2 6 2 4 10 1 8 13 5 8 13 3 3 1 3 5 13 5 7 10 6 2 15 5 9 5 2 4 12 1 11 13 1 14 10 3 14 15 11 15 2 3 4 13 12 2 3 12 9 6 15 10 9 10 5 4 11 10 3 10 7 12 9 7 6 11 11 15 12 9 15 3 8 9 4 13 15 6 9 4 5 4 12 12 2 7 8 4 5 11 9 3 4 3 2 3 15 4 10 9 13 8 2 5 14 15 8 15 6 7 6 11 14 3 4 15 11 10 6 10 2 9 11 8 12 15 9 12 6 2 3 10 7 6 9 13 11 14 1 6 2 7 11 4 10 8 11 5 3 14 4 7 11 2 9 8 7 7 9 8 4 6 3 13 5 8 7 9 4 5 9 12 5 8 7 13 8 2 15 7 7 1 5 6 1 3 6 8 1 10 7 4 12 14 10 8 15 1 12 5 11 6 13 11 14 11 12 8 2 5 13 5 11 11 8 15 5 1 1 3 8 9 4 13 2 11 2 3 2 7 7 13 2 8 14 10 6 4 12 4 12 6 10 14 5 14 2 15 2 15 2 12 12 8 14 8 11 14 8 9 14 15 14 12 6 13 5 12 1 1 6 8 13 12 2 5 6 13 1 14 6 4 4 11 11 8 2 4 3 8 2 10 9 1 2 11 9 7 13 11 2 5 2 4 6 13 1 7 2 11 12 13 10 2 9 5 15 3 1 13 1 7 3 8 5 7 5 14 9 4 12 12 11 12 11 10 1 6 3 13 3 7 5 12 13 6 5 4 13 14 6 14 1 5 12 12 2 10 13 4 5 8 7 10 14 1 13 15 12 14 14 3 9 2 1 2 10 6 4 10 4 15 3 5 1 9 14 7 2 8 11 2 7 14 6 4 5 6 1 12 5 3 4 11 8 10 4 1 14 9 5 13 14 4 9 2 6 4 10 11 7 14 15 1 8 7 7 6 9 15 3 8 13 5 13 5 6 3 8 14 15 7 1 11 11 1 10 15 11 5 9 14 11 2 13 15 14 8 13 2 10 15 7 4 11 5 14 4 2 14 4 2 7 11 12 12 1 10 2 9 3 14 2 5 6 11 6 5 12 11 4 7 15 8 10 7 13 14 10 12 8 12 1 6 2 2 1 10 3 11 1 4 7 12 5 3 1 2 3 8 8 14 14 2 5 10 5 3 6 14 2 12 9 11 13 4 15 1 1 10 5 11 6 4 14 2 14 9 4 15 1 6 9 5 8 14 12 15 1 11 13 5 6 14 9 12 3 14 7 1 8 8 14 4 12 12 4 15 13 2 4 9 14 5 12 3 15 11 7 10 4 13 11 4 9 11 7 9 