P2
33 33
250
8 14 2 4 8 2 4 7 1 3 4 3 1 2 15 6 13 9 5 6 6 8 8 10 3 2 5 9 4 13 11 10 10 9 13 3 6 6 9 8 15 14 13 13 15 13 1 3 13 2 6 4 5 7 6 6 10 3 13 13 12 7 11 13 1 14 15 10 13 14 15 7 14 15 5 15 8 2 3 2 2 9 3 12 14 11 7 4 3 11 11 15 2 10 11 1 6 11 4 14 11 15 1 3 2 2 15 13 1 12 2 3 15 4 5 14 2 9 13 8 1 13 4 8 10 14 3 10 3 8 10 5 13 3 4 4 8 12 1 15 6 11 13 9 10 15 12 2 6 14 4 9 3 6 10 14 12 4 5 5 8 13 9 15 5 6 10 4 6 11 11 12 3 14 8 5 2 9 5 1 10 7 15 4 6 2 8 2 10 11 1 3 12 4 14 12 9 12 10 0 0 15 11 4 14 1 8 6 3 7 10 4 7 9 5 14 15 2 6 4 14 3 4 7 13 4 12 14 5 1 1 2 0 0 0 0 8 9 11 7 9 1 11 6 3 2 9 1 1 10 15 4 6 7 3 7 3 4 5 12 15 13 0 0 2 12 0 0 0 0 0 6 6 9 6 12 13 13 7 9 15 9 10 9 5 6 6 3 10 13 1 1 5 0 0 0 0 3 2 3 1 0 0 0 0 0 0 0 12 8 1 9 10 13 10 14 8 13 4 5 13 14 3 0 0 0 0 0 0 14 3 11 1 6 13 0 0 0 0 0 0 0 0 0 0 0 0 0 0 0 0 0 0 0 0 0 0 0 0 0 0 15 10 15 7 7 10 8 11 13 0 0 0 0 0 0 0 0 0 0 0 0 0 0 0 0 0 0 0 0 0 0 1 3 12 3 3 3 14 3 12 6 3 7 3 6 0 0 0 0 0 0 0 0 0 0 0 0 0 0 0 0 1 7 13 12 8 13 3 3 7 2 6 3 5 11 14 9 4 1 2 13 4 13 11 0 0 0 0 0 14 15 1 3 4 5 8 1 4 3 2 9 15 12 4 15 11 3 6 1 7 4 12 9 2 9 13 3 1 8 13 11 7 4 6 3 7 5 7 2 10 1 3 10 13 8 13 12 15 14 15 2 8 11 1 10 9 5 10 7 8 13 10 9 15 12 3 7 14 6 13 14 10 2 8 15 14 8 10 12 14 5 6 7 5 8 6 5 9 1 7 5 6 15 3 7 14 6 7 14 11 11 5 9 8 15 2 14 14 8 14 12 4 1 11 15 4 1 9 2 4 9 9 1 15 6 5 7 3 4 11 15 7 5 5 5 10 9 10 1 15 5 13 3 8 10 15 13 3 9 11 13 15 4 12 12 6 1 9 14 13 8 7 1 4 2 15 1 11 4 10 13 11 5 7 11 10 10 9 11 12 6 3 12 3 15 15 10 15 6 12 4 7 1 11 6 13 3 12 11 12 13 10 2 7 9 9 5 10 2 12 13 11 1 5 15 14 10 12 3 8 8 4 3 8 3 7 9 1 7 13 12 15 10 1 3 15 4 2 11 11 9 9 11 12 12 13 14 3 5 10 9 15 14 9 7 5 15 6 12 2 5 3 9 6 15 14 14 11 11 9 7 14 4 14 3 7 9 6 5 4 11 14 4 6 7 1 15 4 1 6 15 13 6 8 10 11 1 9 13 14 2 13 13 4 4 10 6 4 15 15 8 7 12 12 3 13 12 2 2 5 13 1 14 9 7 12 10 3 4 13 12 6 1 5 14 11 10 1 1 2 8 6 15 6 7 10 12 1 13 8 15 7 5 12 13 6 11 9 1 3 5 10 12 3 10 10 15 10 15 8 2 4 2 11 9 5 9 10 6 1 15 7 6 12 8 10 7 2 10 14 13 7 9 6 6 8 11 3 9 9 3 11 15 13 9 3 15 8 15 3 12 10 7 10 3 8 11 6 5 15 3 10 5 12 4 14 9 3 3 1 8 3 14 7 5 14 3 6 14 12 9 3 8 12 11 14 6 9 9 7 6 13 9 13 5 4 10 2 13 13 15 12 10 2 6 10 11 5 2 8 3 14 12 7 12 14 2 7 6 6 3 12 3 11 8 13 11 11 8 12 1 10 7 3 12 10 3 3 3 7 5 4 14 12 13 5 8 1 6 9 7 9 3 6 6 9 9 9 8 10 3 13 11 7 2 6 14 8 4 14 8 1 2 4 9 7 10 11 6 15 3 2 14 15 2 7 1 7 12 6 9 10 14 1 8 3 3 3 14 8 3 9 1 7 14 3 13 9 4 15 4 13 11 7 2 13 3 3 2 8 11 6 15 6 13 2 13 15 3 7 6 12 5 12 3 3 3 10 13 7 15 10 14 8 7 3 7 3 12 4 12 4 7 2 7 6 4 3 10 12 7 4 15 1 9 7 6 1 12 4 10 14 2 2 10 5 1 14 