P2
33 33
250
2 3 10 2 2 8 6 15 2 4 6 5 9 4 4 7 4 5 2 14 10 15 8 15 6 11 2 4 6 12 2 11 1 6 11 14 5 6 1 5 12 6 11 9 9 7 11 13 5 6 15 8 1 7 10 5 1 9 11 1 1 10 3 5 6 2 14 10 12 6 3 15 5 1 13 9 3 1 14 1 10 5 6 2 10 12 5 10 9 7 2 3 15 14 1 10 7 4 10 7 15 6 10 12 12 3 9 15 3 15 2 14 1 1 12 10 2 2 15 14 1 11 12 9 3 7 9 15 11 5 14 4 15 11 5 3 8 11 3 2 5 8 1 9 15 6 5 8 6 15 7 7 8 6 13 5 11 10 3 9 8 11 7 9 3 13 13 2 4 4 6 14 13 5 3 8 6 11 1 10 9 12 11 2 12 1 7 14 2 3 9 5 7 4 14 14 7 8 14 14 4 2 6 4 3 11 1 15 15 9 7 3 15 1 2 10 15 3 12 7 8 1 7 14 15 11 7 8 6 3 5 15 1 6 4 13 9 5 12 11 13 8 9 1 6 14 5 3 9 5 11 11 1 9 4 7 9 12 7 15 8 12 9 10 4 2 4 7 6 6 9 10 6 13 12 6 1 14 0 0 0 0 0 0 11 7 5 1 2 14 4 1 6 12 8 8 10 12 15 7 8 11 11 3 1 7 10 0 0 0 0 0 0 0 0 0 0 0 0 0 0 0 14 8 4 9 4 2 8 9 9 15 4 10 4 4 13 0 0 0 0 0 0 0 0 0 0 0 0 0 0 0 0 0 0 0 0 8 8 15 5 6 14 12 9 5 2 5 0 0 0 0 0 0 0 0 0 0 0 0 0 0 0 0 0 0 0 0 0 0 0 0 1 15 14 10 15 12 6 4 0 0 0 0 0 0 0 0 0 0 0 0 0 0 0 0 0 0 0 0 0 0 0 0 0 0 0 6 10 6 2 0 0 0 0 0 0 0 0 0 13 10 10 6 7 3 5 14 10 8 6 2 0 0 0 0 0 0 0 0 0 7 7 0 0 0 0 0 0 0 9 13 8 7 7 10 12 14 15 14 15 7 12 11 6 11 15 7 0 0 0 0 0 0 0 0 0 0 0 0 0 1 14 12 5 9 9 10 2 11 15 14 13 3 11 15 6 1 7 6 6 10 4 0 0 0 0 0 0 0 0 0 14 10 4 14 10 8 1 9 14 8 4 3 9 10 8 5 12 1 8 1 8 9 3 4 13 13 0 0 0 0 0 0 5 13 8 5 3 13 13 15 14 3 5 15 6 15 9 2 9 14 7 2 2 13 12 14 6 9 7 7 0 0 0 2 1 9 1 13 9 15 4 14 14 14 12 9 12 12 10 11 13 5 7 3 2 14 3 12 1 11 2 7 12 10 3 7 8 2 9 6 14 13 9 2 9 12 2 8 1 4 10 14 8 1 12 15 11 2 12 10 15 9 14 2 4 10 6 4 13 1 6 11 7 5 14 6 7 12 2 2 6 4 3 7 15 7 8 6 12 3 13 5 12 12 7 12 15 11 9 11 5 5 13 2 2 11 14 12 10 5 10 2 2 9 9 13 12 11 10 9 1 3 2 2 8 11 4 12 11 11 9 8 9 3 14 5 1 14 12 6 10 7 13 4 6 12 6 15 7 7 13 1 3 13 4 2 1 10 6 14 3 14 15 7 11 3 10 12 4 3 15 6 4 3 14 8 3 2 3 5 2 11 7 15 10 15 2 9 1 1 13 1 2 8 2 13 7 13 1 10 7 7 11 4 10 12 11 11 12 12 2 1 12 12 13 7 8 3 7 12 3 5 2 13 10 12 8 9 4 4 12 9 1 15 7 10 4 4 2 9 10 10 10 2 4 10 1 4 11 12 15 12 12 13 7 12 2 3 10 1 6 6 10 13 11 13 10 14 1 12 2 12 1 10 10 10 2 8 10 12 4 9 5 13 11 11 8 15 4 9 7 4 9 10 2 9 6 14 10 14 8 10 4 4 9 3 1 3 5 14 15 8 11 11 1 4 5 7 5 14 1 6 4 5 7 1 2 4 15 11 4 7 8 13 11 4 10 1 3 3 9 4 9 11 1 3 8 3 14 1 4 3 7 4 11 5 1 7 6 8 12 11 7 10 3 3 8 10 11 13 15 11 6 4 6 8 10 4 1 4 11 8 5 13 7 7 3 7 3 13 6 8 3 11 12 7 6 4 15 2 4 13 12 2 7 2 11 4 1 14 15 5 6 14 10 9 1 2 14 10 15 3 15 10 11 11 12 11 6 6 11 3 1 3 6 8 8 7 14 8 13 5 2 4 14 5 13 15 13 8 7 4 9 9 14 3 8 4 9 6 14 10 11 8 7 14 13 14 14 6 13 5 10 13 14 7 2 15 7 11 11 14 9 15 8 10 11 8 6 4 15 15 5 1 10 5 11 