P2
33 33
250
8 13 5 8 8 11 13 6 14 12 3 2 4 3 5 1 11 6 11 12 3 13 4 9 4 2 6 9 11 11 4 8 3 11 10 6 6 8 9 5 3 7 14 11 1 7 13 2 15 12 3 10 10 6 13 11 4 5 5 15 12 15 11 11 5 10 2 2 9 6 5 15 12 3 2 9 13 11 12 10 2 8 7 10 13 12 1 1 11 14 3 11 2 6 3 14 10 15 3 3 3 9 9 12 15 15 7 2 10 3 13 13 10 11 1 8 15 6 6 12 8 6 9 12 13 6 3 2 4 6 2 12 4 2 4 9 10 12 2 3 8 13 1 7 5 2 8 3 3 9 6 13 8 9 1 15 12 14 15 12 10 15 14 2 12 13 10 15 14 14 3 15 8 6 13 9 12 8 11 10 15 5 15 11 1 2 10 12 9 4 8 1 9 4 10 5 10 4 8 1 3 5 4 3 7 7 11 11 4 15 14 12 1 14 3 15 4 14 11 3 4 11 12 10 4 11 1 7 9 2 6 11 6 6 8 2 12 15 9 2 4 10 10 8 11 5 2 7 1 13 7 8 15 4 1 11 7 3 9 6 4 5 4 2 10 3 5 10 14 5 12 1 2 7 12 8 15 12 8 4 15 0 0 0 11 15 14 15 10 6 1 9 10 12 7 1 1 12 2 3 8 13 1 1 4 5 7 5 0 0 0 0 0 0 0 0 0 0 0 0 0 0 0 13 2 7 2 1 9 4 15 13 15 9 10 5 2 6 0 0 0 0 0 0 0 0 0 0 0 0 0 0 0 0 0 0 0 0 0 2 12 7 6 3 13 13 12 5 10 0 0 0 0 0 0 0 0 0 0 0 0 0 0 0 0 0 0 0 0 0 0 0 0 0 10 14 5 5 5 1 0 0 0 0 0 0 0 0 0 0 0 0 0 0 0 0 0 0 0 0 0 0 0 0 0 0 0 0 7 7 6 5 0 0 0 0 0 0 0 0 0 0 0 11 2 11 5 10 13 12 11 7 0 0 0 0 0 0 0 0 0 0 11 0 0 0 0 0 0 0 0 0 7 1 15 9 10 11 1 1 2 5 12 5 2 13 13 3 15 0 0 0 0 0 0 2 0 0 0 0 0 0 6 7 9 7 10 11 5 6 8 10 2 8 4 13 13 8 7 9 5 8 5 3 0 0 0 0 9 0 0 0 0 3 11 2 7 15 12 4 3 3 12 4 14 15 6 3 4 10 8 13 3 1 7 14 4 13 2 0 0 8 0 0 9 11 6 10 14 7 6 12 4 15 1 13 3 2 1 11 8 12 9 10 14 9 7 2 10 2 13 13 13 14 5 0 5 10 6 3 11 15 5 3 4 3 14 15 14 12 5 2 7 14 9 13 12 13 15 1 13 5 14 14 12 11 3 3 13 7 15 3 7 2 14 8 15 9 12 12 11 1 14 14 11 8 11 2 7 13 7 12 4 2 4 5 1 3 10 5 12 13 9 1 14 15 3 13 14 2 10 4 7 3 13 5 15 9 3 6 13 3 12 3 13 13 9 2 12 5 4 8 15 8 9 6 9 5 15 4 12 3 14 6 11 10 3 8 9 10 10 4 3 9 12 6 13 8 1 2 13 3 5 14 6 5 14 1 7 9 14 15 4 7 3 9 15 1 4 15 15 12 4 1 11 10 8 13 4 5 10 1 5 4 1 10 1 5 15 12 6 14 4 4 9 8 2 7 14 5 11 9 11 6 14 12 2 2 13 4 12 12 8 14 4 1 10 6 15 1 13 15 8 14 5 7 6 11 15 10 9 12 6 15 12 9 14 8 10 4 8 8 12 1 10 3 9 9 15 2 8 15 12 1 11 3 12 13 15 5 6 3 3 7 10 2 9 8 14 9 8 14 14 7 9 4 14 14 8 9 9 2 4 1 10 6 7 1 10 15 10 6 10 6 12 11 7 14 5 1 5 15 8 6 6 2 6 15 8 15 14 12 15 9 14 1 14 2 8 4 3 5 14 4 13 1 5 2 13 8 10 11 2 15 8 6 5 13 15 10 4 4 14 9 14 1 7 2 15 4 12 3 6 2 13 4 6 12 1 6 4 5 4 15 4 1 2 1 1 4 11 10 10 14 9 11 12 11 14 2 3 5 9 15 3 12 15 8 11 5 15 3 1 11 7 15 2 1 6 11 14 4 5 1 2 6 8 9 8 4 2 9 4 12 8 15 10 3 9 13 7 3 5 10 1 7 2 15 9 4 13 15 11 1 9 5 6 2 10 1 3 11 13 13 10 3 13 15 4 5 11 11 12 15 9 6 3 8 10 6 3 14 12 14 9 11 15 2 15 12 14 13 7 3 11 1 14 11 12 13 4 9 5 9 7 11 14 4 7 9 15 9 14 7 11 11 3 2 14 14 4 5 3 2 7 14 10 2 9 15 9 11 11 10 12 11 10 11 5 