P2
33 33
250
1 3 2 9 8 5 5 2 5 1 12 12 15 3 11 2 3 11 3 4 12 4 2 15 15 14 1 2 15 15 14 13 2 8 3 7 15 5 6 8 13 14 9 10 7 2 15 11 11 11 3 1 1 6 3 4 13 10 10 13 11 13 3 13 1 15 2 3 2 6 3 9 13 15 12 14 5 13 9 11 7 8 1 8 3 9 6 5 11 15 4 12 5 8 8 3 6 12 9 6 2 11 10 6 15 4 9 10 7 2 12 9 4 14 13 14 12 3 10 12 15 8 14 14 3 6 2 4 5 15 8 1 9 3 15 14 6 6 4 3 3 3 5 9 4 6 11 11 10 1 8 12 11 13 13 3 7 15 14 8 6 12 6 3 6 15 10 15 7 10 6 7 1 10 8 9 8 8 6 12 5 5 7 3 8 7 1 2 13 5 2 0 0 2 1 8 13 2 0 1 12 6 5 8 14 11 6 2 1 9 13 13 4 14 3 7 2 1 1 3 9 12 0 0 0 0 9 13 5 12 2 0 0 0 5 15 14 4 1 12 3 12 5 4 8 15 1 9 13 11 5 6 4 0 0 0 0 0 1 15 10 11 11 12 0 0 0 0 0 15 4 9 9 5 10 3 12 3 4 13 10 3 9 5 0 0 0 0 0 0 10 12 7 8 9 7 12 0 0 0 0 0 0 0 0 0 0 0 0 0 0 0 0 0 0 0 0 0 0 0 0 0 6 12 12 6 15 14 5 8 1 0 0 0 0 0 0 0 0 0 0 0 0 0 0 0 0 0 0 0 0 0 0 0 5 8 7 10 3 13 7 12 15 9 14 14 0 0 0 0 0 0 0 0 0 0 0 0 0 0 0 0 0 0 0 7 5 7 1 6 1 7 9 10 1 7 2 12 8 9 7 8 0 0 0 0 0 0 0 0 0 0 0 0 0 2 11 1 2 7 7 6 13 15 15 7 2 12 9 12 15 4 10 14 9 3 15 1 3 13 0 0 0 0 11 2 10 12 11 6 8 13 11 1 8 10 10 4 6 3 1 6 14 15 6 12 10 11 7 1 7 3 1 5 5 12 3 7 10 13 13 7 15 1 4 13 3 4 1 2 4 5 8 3 2 7 6 15 15 15 11 14 2 12 3 12 8 1 10 8 5 12 7 13 11 1 11 4 9 7 11 3 15 1 15 7 5 1 9 6 5 15 7 4 7 15 9 13 11 7 7 2 7 2 2 5 4 12 13 10 2 5 1 9 1 8 2 7 13 2 7 7 5 11 2 15 14 9 3 4 2 2 15 5 4 11 9 9 1 2 9 9 4 10 5 12 14 15 13 2 5 3 14 13 7 10 9 1 7 13 12 13 3 6 9 5 12 10 12 1 14 9 9 6 14 12 8 1 9 13 14 2 5 5 9 4 13 3 7 14 6 10 4 13 10 3 1 9 8 11 10 13 3 4 14 7 15 12 4 9 12 4 7 5 6 3 12 12 12 9 3 14 6 5 9 11 3 15 1 13 7 12 6 11 4 5 2 11 7 15 13 14 4 9 7 2 3 3 15 14 1 8 11 6 13 4 7 11 12 10 10 2 11 12 11 2 2 9 5 6 10 12 9 8 15 15 12 13 3 14 3 15 8 3 6 11 4 14 8 1 2 7 2 14 9 14 7 6 14 14 1 5 5 3 10 5 8 14 10 1 10 8 3 4 11 1 4 4 11 11 9 4 10 9 11 15 13 4 2 3 5 15 13 3 14 2 9 1 4 13 2 7 15 5 3 13 11 8 6 6 5 15 3 4 12 13 6 2 9 4 7 9 14 2 1 1 5 4 9 7 12 14 5 2 15 13 11 12 13 2 11 13 2 9 14 13 6 9 8 11 11 9 3 12 15 14 9 9 14 2 7 11 13 10 4 4 6 5 1 13 7 12 3 1 3 5 10 3 13 12 9 10 9 10 9 7 2 1 15 2 3 14 1 12 2 14 8 8 4 6 8 13 6 4 5 9 9 2 12 9 6 12 8 9 11 4 9 1 6 14 15 3 1 4 1 11 2 2 7 9 13 14 3 8 2 7 5 14 13 11 11 12 10 12 1 11 15 7 13 12 8 11 6 5 7 1 15 15 5 13 1 8 5 13 9 14 14 7 7 13 12 13 9 10 2 10 3 14 14 9 6 3 9 5 7 6 5 10 7 7 1 15 14 9 3 4 9 6 10 9 12 6 6 11 3 8 3 4 8 13 3 15 6 5 12 1 11 7 8 2 11 11 9 3 6 10 12 1 14 11 14 6 14 9 8 1 13 2 5 3 7 3 4 1 14 4 7 8 2 13 15 14 15 5 10 5 13 6 11 8 12 9 2 1 12 14 13 14 8 4 10 9 4 3 11 14 4 1 14 9 14 5 5 15 10 14 4 4 11 6 8 11 5 15 9 13 9 7 5 6 1 2 1 13 9 8 12 8 2 