P2
33 33
250
10 9 10 1 10 3 9 7 7 12 12 7 10 10 6 11 10 1 3 13 3 12 10 5 8 8 13 6 6 6 7 9 7 4 2 11 4 2 6 1 8 12 15 3 2 11 2 13 3 7 6 1 12 10 6 5 10 8 8 10 3 12 2 6 2 6 8 4 6 1 3 10 8 3 5 14 13 11 2 14 15 7 5 9 1 9 11 7 8 1 5 2 11 10 14 9 14 13 8 12 8 14 15 1 6 1 13 2 5 11 5 6 11 3 7 2 7 1 3 11 10 10 14 7 2 9 5 6 4 7 15 13 2 11 14 7 9 6 6 15 14 9 3 11 12 15 2 4 2 6 5 12 8 9 6 5 4 10 1 9 2 3 12 7 15 5 8 2 12 11 13 14 4 7 8 12 15 5 3 10 3 15 9 9 10 14 3 14 2 11 5 6 7 5 4 8 2 1 3 15 7 10 13 4 13 4 15 14 11 9 8 10 6 7 5 4 6 6 3 2 4 12 1 4 14 11 1 1 12 10 9 15 10 9 7 14 6 13 11 11 11 10 14 6 11 15 1 7 6 8 12 13 12 7 10 15 5 5 8 2 1 12 9 7 15 6 11 0 2 9 12 10 14 7 11 2 5 7 6 7 14 7 15 4 7 8 14 12 5 14 6 15 9 2 15 3 8 12 14 12 0 0 9 2 14 4 12 5 14 3 9 15 5 12 2 7 12 9 3 13 12 11 13 2 7 5 1 4 8 2 7 2 5 0 0 0 10 14 15 6 6 3 6 2 7 4 8 7 2 6 10 7 6 14 12 1 12 13 14 2 1 9 4 11 8 14 0 0 0 0 12 11 5 15 11 13 1 2 4 13 13 9 14 4 5 10 10 13 2 11 8 15 13 12 6 4 10 8 9 0 0 0 0 0 0 3 7 13 1 5 8 4 13 6 1 6 12 1 11 11 9 8 1 2 14 11 6 10 8 1 11 9 0 0 0 0 0 0 0 15 7 10 14 10 9 8 3 4 12 4 13 1 13 7 8 9 11 8 2 1 9 6 14 5 15 0 0 0 0 0 0 0 0 0 0 11 15 1 9 9 7 11 10 11 3 9 12 4 4 6 9 1 8 0 0 6 10 2 4 0 0 0 0 0 0 0 0 0 0 0 0 3 5 11 8 13 12 12 9 7 14 14 5 7 0 0 0 0 10 15 10 1 5 3 0 0 0 0 0 0 0 0 0 0 0 0 0 0 0 0 0 0 0 0 0 0 0 0 0 0 0 8 2 15 3 2 14 2 0 0 0 0 0 0 0 0 0 0 0 0 0 0 0 0 0 0 0 0 0 0 0 0 0 0 13 3 15 1 11 14 6 11 13 0 0 0 0 0 0 0 0 0 0 0 0 0 0 0 0 0 0 0 0 0 0 0 0 14 4 3 7 8 15 10 8 10 4 3 0 0 0 0 0 0 0 0 0 0 0 0 0 0 0 0 0 0 0 0 0 0 7 9 1 6 10 1 7 8 1 7 10 13 15 8 0 0 0 0 0 0 0 0 0 0 0 0 0 0 0 0 5 15 10 13 1 14 7 2 1 1 5 6 9 1 4 10 9 5 5 1 11 1 0 0 0 0 0 0 12 11 4 8 10 8 1 11 3 14 3 9 10 5 6 13 15 8 1 3 12 3 9 14 2 14 4 10 1 10 2 12 15 8 4 9 12 3 4 7 5 15 3 5 15 6 1 4 6 15 10 10 15 10 6 5 8 4 3 3 14 10 12 13 7 14 3 1 12 7 7 9 7 7 2 1 14 5 15 3 6 2 5 15 2 1 12 15 7 3 15 12 9 10 11 13 2 7 6 13 12 1 15 10 12 2 2 14 12 4 1 4 4 2 13 7 1 7 14 6 8 10 13 15 13 6 9 10 15 2 1 1 1 4 5 11 8 14 11 12 11 11 13 8 1 4 13 4 13 14 1 1 7 5 9 4 13 11 12 15 8 10 14 1 13 3 7 13 1 15 3 11 8 15 6 3 5 14 8 5 5 3 5 11 11 10 3 7 11 7 7 6 4 13 1 3 13 1 6 5 15 14 3 5 9 1 10 11 8 15 8 1 3 4 6 1 7 7 15 4 4 7 11 4 9 10 4 12 1 9 2 9 8 5 5 9 9 1 15 12 11 10 14 13 12 3 7 7 9 5 6 7 1 14 15 14 7 12 6 10 2 5 14 7 15 11 9 11 4 13 9 5 3 14 1 3 10 14 12 14 15 9 9 4 9 13 9 6 14 12 11 1 15 2 12 2 5 8 2 11 11 9 10 13 3 6 5 4 7 3 12 9 5 13 15 7 8 1 13 3 3 15 13 1 3 6 8 14 15 4 8 12 4 9 10 12 10 4 4 11 9 14 13 5 11 9 12 13 1 12 9 11 4 7 14 10 5 15 4 2 12 14 13 6 4 5 13 9 13 6 10 