P2
33 33
250
13 5 11 7 13 13 12 11 15 2 6 11 3 5 4 12 12 1 11 15 2 6 13 13 8 12 3 1 9 10 1 1 5 9 14 10 6 1 1 8 4 10 7 8 15 3 9 8 4 1 3 14 5 10 9 1 11 3 15 1 3 2 10 6 9 11 10 6 12 10 4 13 11 12 8 3 6 11 2 12 10 4 5 14 12 1 6 14 8 2 15 11 5 14 5 2 13 15 6 12 10 4 5 14 6 13 4 12 15 14 6 1 11 8 6 3 5 1 2 13 3 5 14 10 5 5 11 9 13 15 7 9 3 2 5 7 14 8 10 9 11 7 6 13 15 8 6 10 7 3 14 12 2 4 7 15 4 1 12 13 10 9 1 4 5 4 5 12 1 3 8 2 12 2 6 9 12 3 4 13 5 6 14 13 1 10 8 4 13 9 3 6 5 8 5 15 6 6 12 12 15 7 1 7 4 11 10 12 13 7 11 11 9 1 7 11 11 13 5 7 2 14 13 1 13 14 12 14 10 1 11 7 9 8 12 0 0 15 13 13 3 1 3 8 1 9 3 14 9 8 6 9 7 4 1 11 15 12 4 13 13 12 11 10 13 4 5 11 0 0 0 1 15 4 11 1 12 15 13 1 14 11 4 14 7 13 3 10 3 12 7 6 4 12 6 13 15 15 15 8 8 0 0 0 0 0 5 12 7 7 5 15 14 10 4 2 10 8 9 5 4 13 2 12 14 9 6 15 5 6 7 14 10 6 0 0 0 0 0 0 0 9 4 11 15 6 8 12 7 9 3 11 5 7 15 3 15 11 1 5 5 14 2 4 13 8 2 11 0 0 0 0 0 0 0 0 11 10 15 11 12 5 7 13 5 10 7 4 1 14 11 14 3 8 9 0 10 15 7 15 8 1 0 0 0 0 0 0 0 0 0 0 14 10 3 11 1 3 10 11 12 1 5 1 5 0 0 0 0 13 1 7 10 4 10 2 14 0 0 0 0 0 0 0 0 0 0 0 0 0 0 0 0 0 0 0 0 0 0 0 0 0 5 13 1 5 4 4 3 8 3 0 0 0 0 0 0 0 0 0 0 0 0 0 0 0 0 0 0 0 0 0 0 0 0 14 8 9 4 10 15 8 2 5 1 6 0 0 0 0 0 0 0 0 0 0 0 0 0 0 0 0 0 0 0 0 0 0 12 5 1 4 11 9 4 5 11 11 12 3 8 0 0 0 0 0 0 0 0 0 0 0 0 0 0 0 0 0 0 0 0 5 15 15 9 8 7 1 5 11 5 11 6 3 3 15 0 0 0 0 0 0 0 0 0 0 0 0 0 0 0 2 12 14 14 10 2 13 14 5 2 1 10 15 13 1 7 13 1 10 15 13 8 15 0 0 0 0 0 3 8 2 5 1 5 13 6 5 6 15 11 6 6 5 2 7 10 7 2 12 12 12 6 11 5 7 3 10 11 3 4 13 13 2 2 3 10 5 14 2 14 10 13 9 13 12 7 12 10 8 12 4 10 5 13 13 2 5 2 14 14 4 4 2 9 7 15 13 8 8 4 14 1 11 11 7 1 13 1 12 8 11 14 15 13 11 2 3 6 15 2 5 3 14 12 15 3 10 2 7 2 6 6 8 2 5 2 2 9 6 1 2 14 6 1 14 15 7 1 3 4 13 12 6 2 2 13 15 15 14 10 12 5 2 2 8 15 5 13 9 12 15 7 3 13 9 9 9 12 12 8 6 12 9 3 5 15 5 5 5 8 15 3 12 15 3 15 10 9 1 4 9 9 9 14 6 14 7 9 12 8 11 4 14 3 2 7 10 7 15 2 5 7 4 10 10 5 6 4 9 15 4 7 4 12 12 14 2 3 15 15 6 5 2 10 1 3 6 2 3 4 4 4 12 3 14 7 12 4 6 2 9 10 12 14 2 7 1 3 13 3 15 9 9 14 8 13 2 14 8 10 10 10 11 7 14 11 3 11 10 9 12 7 13 4 15 10 4 12 6 12 2 1 11 10 4 7 4 3 9 5 15 5 9 11 2 1 5 14 14 5 2 3 15 7 12 3 10 5 9 15 14 7 13 12 7 6 14 1 11 1 6 11 12 8 4 14 9 12 12 9 2 8 11 6 9 8 8 14 10 10 10 6 8 4 3 10 15 8 8 4 12 8 12 15 14 9 2 9 14 10 3 5 10 2 2 3 9 14 8 1 6 11 6 4 7 14 9 10 13 4 14 11 15 7 2 2 4 8 6 15 5 2 13 11 9 3 12 9 3 11 13 6 3 6 1 5 7 9 7 4 10 10 8 15 15 12 4 9 15 9 1 10 8 15 2 7 6 8 7 14 2 14 3 15 11 5 9 15 14 15 6 8 5 15 8 2 14 12 9 14 3 3 3 7 2 8 11 15 5 15 2 3 9 7 9 14 2 3 4 9 3 4 3 8 1 9 14 9 