P2
33 33
250
7 10 8 5 2 9 5 14 8 6 2 15 3 4 9 1 2 14 12 4 12 11 6 11 5 9 2 8 8 8 6 9 5 14 1 14 13 6 13 13 5 13 6 13 1 8 13 1 15 15 14 7 2 3 15 8 12 10 14 8 12 6 9 11 7 8 1 13 2 2 6 4 8 4 8 12 12 4 8 12 9 14 10 5 13 4 10 14 13 4 11 5 5 5 15 13 4 13 5 8 10 13 2 13 9 15 12 11 12 9 13 5 1 3 9 1 3 5 2 1 4 12 8 3 4 5 13 3 10 13 5 8 9 9 15 2 3 4 4 6 7 13 7 8 12 14 9 4 7 15 7 14 3 7 5 9 10 9 13 12 3 6 8 10 6 14 10 10 6 8 11 13 12 5 7 3 13 3 11 10 13 5 14 8 4 10 14 5 12 14 4 10 8 12 7 2 8 15 11 2 2 4 14 10 15 14 3 9 12 9 15 4 1 3 11 12 11 8 1 5 13 4 12 3 14 5 12 7 11 8 9 6 10 7 2 13 6 15 2 11 11 5 4 12 5 9 13 5 1 2 11 8 8 12 9 1 9 15 13 4 15 12 2 10 9 15 3 4 10 1 6 14 3 2 14 14 5 8 11 11 4 9 15 10 5 4 9 1 7 15 10 6 14 4 11 11 5 6 7 9 2 13 1 6 3 6 7 12 10 5 14 3 2 14 12 11 10 7 8 0 0 0 0 7 12 11 12 1 10 14 1 9 3 8 15 10 11 6 13 7 10 3 2 2 8 5 6 0 0 0 0 0 0 0 0 0 0 0 0 0 11 4 1 4 8 6 15 10 3 8 12 11 6 9 10 1 11 7 0 0 0 0 0 0 0 0 0 0 0 0 0 0 0 0 0 4 3 9 1 11 8 2 8 6 11 4 6 14 6 0 0 0 0 0 0 0 0 0 0 0 0 0 0 0 0 0 0 0 0 12 3 3 6 7 1 1 13 4 8 1 0 0 0 0 0 0 0 0 0 0 0 0 0 0 0 0 0 0 0 0 0 0 3 12 13 3 7 2 3 7 15 1 0 0 0 0 0 0 0 0 0 0 0 0 0 0 0 0 0 0 0 0 0 0 0 14 6 5 11 3 4 3 9 8 0 0 0 0 0 0 0 0 0 0 1 7 5 12 15 5 5 5 12 9 10 7 8 7 2 3 15 14 5 1 13 5 0 0 0 0 0 0 0 11 7 8 5 13 11 6 11 13 2 11 2 5 11 13 14 13 11 2 8 3 12 1 3 14 0 0 0 0 0 0 3 7 15 7 8 11 11 6 2 9 12 13 3 3 5 5 4 5 11 1 9 12 5 11 3 5 0 0 0 0 3 4 7 5 8 8 2 1 10 8 10 6 3 7 9 9 5 1 13 2 6 15 5 2 10 7 2 12 0 0 0 0 15 8 2 10 2 4 15 4 9 2 11 3 13 6 1 6 7 4 11 12 4 12 8 7 10 4 4 10 0 0 0 10 8 12 13 13 4 11 7 9 15 15 12 15 15 3 4 3 2 13 9 11 8 5 13 5 14 12 10 8 0 0 0 10 6 3 7 15 1 6 6 3 5 2 4 4 6 9 7 5 9 13 9 3 2 13 13 10 9 13 9 8 13 0 0 2 1 7 5 5 10 8 5 5 1 7 2 5 15 5 4 10 11 14 15 12 6 8 11 9 2 10 11 5 2 0 0 12 6 4 6 11 11 9 11 10 9 13 4 15 9 4 2 9 15 5 12 7 8 5 13 10 9 11 6 5 2 1 0 11 7 1 5 13 4 4 14 4 14 3 15 14 14 13 15 3 5 7 6 7 10 9 6 3 1 9 13 11 9 15 15 9 8 14 8 10 7 15 2 10 5 13 3 7 1 4 2 15 13 11 14 14 14 9 5 5 6 14 10 3 12 11 1 13 9 3 10 5 5 10 1 7 3 4 1 1 14 1 15 15 10 9 15 7 3 15 8 8 14 12 1 2 11 14 5 2 11 2 14 6 4 15 11 9 11 13 1 6 15 11 4 13 3 3 6 12 14 3 12 15 7 4 5 12 6 15 9 12 6 14 15 12 11 4 12 12 8 15 3 15 3 4 9 9 8 11 9 3 6 11 10 9 6 12 1 13 2 15 5 14 13 1 6 9 14 14 8 9 13 15 3 15 13 15 14 6 1 13 3 14 4 6 10 7 1 3 5 9 8 6 11 9 13 1 3 1 14 13 2 2 11 10 10 5 6 9 7 7 10 3 8 8 5 15 11 7 2 11 13 13 5 6 14 2 5 5 9 11 10 4 10 15 5 2 11 4 3 9 14 3 7 9 11 6 5 8 6 15 12 10 5 9 7 15 2 6 10 2 5 10 3 3 7 13 6 10 14 11 7 14 10 4 6 12 1 10 13 4 13 8 9 12 9 9 5 5 13 11 7 15 14 8 9 