P2
33 33
250
8 11 9 1 15 4 4 4 10 13 15 4 6 7 15 12 7 6 3 6 5 4 2 15 13 13 15 8 5 6 13 2 6 2 15 7 10 8 2 11 7 2 5 3 7 15 4 5 13 11 1 12 5 12 10 7 1 13 2 3 14 7 9 1 10 13 12 13 10 10 9 4 6 13 10 5 12 9 4 2 2 6 9 7 10 7 9 8 11 6 12 14 4 14 9 3 1 11 6 7 3 9 12 11 6 11 8 9 1 8 10 10 12 9 7 5 14 6 1 7 5 9 3 3 11 3 10 8 2 3 7 2 12 13 6 11 4 3 13 7 3 14 13 4 12 11 2 11 13 6 13 4 15 14 10 4 10 1 12 7 2 3 12 3 6 2 3 4 1 11 12 3 14 8 6 12 6 2 9 4 9 11 14 2 10 10 1 8 7 13 8 15 14 10 11 14 4 2 9 13 1 6 4 12 6 2 15 8 12 15 1 4 15 3 12 3 15 8 9 5 5 15 1 3 1 12 6 1 9 6 3 13 1 11 14 4 3 13 8 10 6 15 6 12 10 5 3 4 10 12 4 6 15 10 3 8 15 1 11 15 2 6 6 11 5 13 4 1 6 15 13 7 7 7 6 11 10 11 7 3 3 13 5 12 4 7 4 7 1 7 15 2 10 4 4 6 15 15 1 0 0 9 1 13 13 10 10 8 6 6 14 10 4 12 15 6 6 3 9 10 10 14 8 12 3 10 6 1 13 1 14 11 0 0 0 0 13 13 14 4 11 1 7 6 15 9 15 8 6 7 14 14 4 11 13 5 4 11 7 4 2 12 1 1 7 3 0 0 0 0 0 13 1 2 8 9 15 5 1 10 8 11 11 7 3 3 3 12 7 15 5 2 8 3 12 15 4 9 13 13 9 0 0 0 0 0 0 0 9 10 5 8 1 15 7 7 15 3 2 13 15 2 7 10 8 8 0 0 0 7 3 3 4 15 6 0 0 0 0 0 0 0 0 0 0 0 0 0 0 0 0 0 0 0 0 0 0 0 0 0 0 0 1 6 8 9 2 6 7 7 0 0 0 0 0 0 0 0 0 0 0 0 0 0 0 0 0 0 0 0 0 0 0 0 0 11 15 12 7 10 14 8 6 5 6 0 0 0 0 0 0 0 0 0 0 0 0 0 0 0 0 0 0 0 0 0 8 11 10 6 6 4 8 8 13 14 14 5 14 6 4 0 0 0 0 0 0 0 0 0 0 0 0 0 0 0 8 13 6 5 1 8 12 3 11 15 8 4 14 8 7 11 4 7 1 15 10 10 0 0 0 0 0 0 14 3 4 9 9 8 14 9 1 3 13 5 2 13 1 14 4 5 10 15 14 10 14 4 1 14 13 6 14 8 1 13 10 4 10 3 15 4 15 8 13 15 14 8 3 3 8 10 10 5 11 7 15 12 9 5 2 12 9 12 10 11 12 8 5 2 14 5 12 2 12 13 10 15 12 15 2 11 9 9 1 13 8 12 9 8 8 5 9 5 1 14 2 5 8 6 10 8 12 15 13 4 6 13 12 7 7 1 13 6 10 7 9 12 1 2 14 7 4 2 13 15 5 6 11 9 14 12 12 3 5 4 10 13 8 10 8 12 6 2 4 3 15 15 12 8 6 12 11 9 4 9 3 5 5 15 13 8 2 9 3 5 13 3 6 4 7 14 7 8 2 3 1 12 2 5 3 1 5 9 7 2 7 13 1 14 1 2 11 7 8 12 13 3 12 13 7 7 14 9 2 7 4 4 11 7 8 3 3 10 8 3 15 12 12 6 7 13 11 5 2 9 1 9 13 12 15 9 5 4 5 15 2 4 13 5 4 6 10 4 13 15 1 6 4 10 1 12 7 7 14 4 7 12 3 10 2 15 10 10 3 15 13 12 3 7 1 8 9 12 2 8 3 1 3 11 12 8 10 2 4 5 2 15 5 8 15 11 4 7 6 8 12 2 8 8 1 1 6 11 8 11 10 8 5 2 3 13 15 13 9 3 14 2 5 2 4 14 1 15 1 13 13 8 12 1 14 7 7 6 12 2 8 14 4 6 5 12 8 10 10 14 4 4 14 13 8 15 5 15 4 13 12 12 6 2 7 4 10 15 13 10 4 11 8 15 3 13 5 3 12 11 4 8 1 9 12 10 15 1 13 8 10 8 13 5 3 2 9 5 10 11 2 8 3 7 13 13 7 6 15 10 12 14 10 13 9 2 8 8 10 10 2 12 5 13 11 4 14 3 12 11 7 6 15 10 3 8 4 14 9 14 11 4 4 4 4 5 7 7 10 9 2 11 8 12 3 6 3 1 13 9 8 6 12 12 4 3 7 1 2 3 4 2 11 11 15 8 15 13 14 4 14 12 10 1 10 4 4 3 12 1 13 7 15 9 15 4 12 3 13 5 9 9 11 1 5 15 4 14 10 9 10 8 7 