P2
33 33
250
8 15 13 9 3 2 12 13 3 3 3 8 15 4 11 10 13 9 4 13 11 11 12 9 7 12 7 14 13 10 5 12 14 4 11 4 1 13 8 9 6 9 10 3 15 15 11 11 9 3 6 9 11 13 10 10 2 11 13 12 4 2 2 8 13 5 5 15 7 14 1 5 10 8 11 5 13 11 3 6 7 8 10 13 13 6 9 6 4 8 5 13 1 6 10 10 14 7 10 8 13 1 13 5 11 10 10 12 12 11 15 1 5 8 10 2 8 4 8 2 7 8 13 10 13 5 2 6 13 3 15 4 12 1 15 12 12 3 9 7 10 4 7 12 13 9 5 14 11 4 1 12 1 4 8 6 5 6 14 1 14 5 13 9 10 1 2 9 15 5 3 6 8 2 0 0 0 0 0 12 4 3 10 2 4 15 4 8 2 9 7 4 1 2 9 15 14 11 13 10 12 14 0 0 0 0 0 0 0 0 0 0 0 0 0 0 10 1 13 11 3 14 15 5 7 10 9 3 7 6 10 9 0 0 0 0 0 0 0 0 0 0 0 0 0 0 0 0 0 0 0 0 13 1 11 13 6 2 15 8 14 3 1 4 0 0 0 0 0 0 0 0 0 0 0 0 0 0 0 0 0 0 0 0 0 0 0 7 13 1 2 14 2 6 4 2 3 0 0 0 0 0 0 0 0 0 0 0 0 0 0 0 0 0 0 0 0 0 0 0 0 7 9 5 11 7 10 5 2 12 0 0 0 0 0 0 0 0 0 0 0 0 0 0 0 0 0 0 0 0 0 0 0 0 0 9 6 3 5 15 12 4 8 0 0 0 3 3 9 1 2 11 14 7 13 8 9 14 13 4 2 8 0 0 0 0 0 0 0 15 4 14 12 5 12 7 12 15 6 1 1 9 6 15 8 12 12 4 7 8 9 9 9 11 7 4 15 14 0 0 0 0 0 1 1 9 14 6 2 5 7 3 14 2 7 2 13 3 8 8 3 2 6 11 15 14 11 10 3 1 10 10 11 0 0 0 4 3 8 3 12 10 1 3 6 15 8 12 1 4 2 4 5 9 11 8 1 4 15 10 8 8 7 14 3 9 8 12 0 0 15 1 15 12 15 9 4 12 2 6 14 8 7 11 3 10 7 9 4 8 11 14 8 9 4 15 14 15 3 15 11 7 0 4 4 3 8 13 12 4 6 6 13 7 7 13 1 10 5 5 12 3 10 5 14 15 6 6 12 10 6 9 11 1 4 4 5 4 1 7 6 10 9 12 6 14 13 8 3 4 6 9 2 11 12 7 7 13 11 2 10 7 5 14 8 7 14 5 15 13 1 4 14 13 15 11 11 14 3 5 15 10 5 13 12 10 13 5 5 3 10 4 8 14 5 6 3 12 5 15 6 15 3 6 4 1 4 5 12 6 13 15 1 2 10 3 8 10 6 12 5 13 13 13 15 10 9 4 12 11 4 4 10 3 2 10 8 6 7 14 10 3 2 5 14 6 5 10 6 9 8 9 4 5 6 11 3 7 2 4 10 7 6 13 6 10 5 12 9 9 3 9 8 3 7 8 9 6 4 14 7 1 4 10 2 10 14 5 6 12 9 12 5 7 13 15 12 15 12 6 12 7 9 7 14 3 4 14 13 9 12 2 15 11 1 15 10 4 3 7 10 3 4 8 3 3 7 11 6 11 5 8 7 5 3 8 14 14 15 8 12 12 2 1 14 8 6 9 6 14 11 9 6 5 10 8 12 2 3 4 4 1 15 2 5 7 7 9 13 14 12 6 12 14 6 11 2 7 2 8 11 8 4 9 12 9 13 7 10 1 1 10 9 7 1 13 2 4 6 3 14 6 1 8 4 7 10 7 14 3 10 2 12 1 2 5 11 1 14 5 9 3 5 10 1 15 3 14 5 4 10 15 6 15 15 10 2 11 2 6 5 10 5 11 4 7 3 11 9 14 8 13 8 7 2 10 13 5 1 6 3 11 15 2 8 5 6 10 10 10 11 7 9 13 2 14 1 15 9 13 12 10 9 15 14 7 3 7 15 5 3 2 9 15 9 8 4 11 7 4 3 13 11 10 6 2 5 8 6 5 6 2 12 12 9 11 11 1 11 14 14 5 11 12 15 3 7 14 2 6 4 7 5 12 12 14 4 10 1 7 5 14 4 3 5 9 8 12 8 3 12 11 15 9 8 13 5 1 8 15 4 9 9 10 9 4 11 11 2 2 4 11 7 9 14 12 12 6 7 9 5 6 14 1 6 3 11 5 13 9 3 14 14 1 6 13 15 15 10 7 4 5 12 2 15 1 11 2 8 8 1 12 8 1 13 13 8 3 10 9 5 15 6 3 10 2 14 7 4 10 3 7 14 3 13 12 13 7 15 1 13 14 11 12 6 2 10 4 10 13 15 14 12 2 10 5 8 4 8 14 14 6 14 3 9 10 14 7 13 