P2
33 33
250
5 14 13 1 12 11 15 8 4 1 12 14 3 5 14 5 9 2 3 12 2 13 8 2 10 9 3 2 12 13 13 12 4 4 1 13 11 6 15 6 11 15 13 9 11 3 14 4 15 3 1 9 3 11 11 3 5 12 13 9 4 13 6 10 4 2 12 9 2 6 9 8 4 3 4 1 1 7 2 8 10 10 9 2 4 12 14 15 7 1 7 14 4 8 8 12 9 6 4 4 8 5 7 4 12 9 13 6 1 10 4 7 7 13 11 11 3 12 8 6 2 9 9 1 1 11 12 14 2 6 11 13 8 8 5 13 1 6 3 4 2 14 12 4 7 9 11 6 1 11 11 5 9 3 14 4 13 12 8 4 2 12 5 3 13 12 5 6 14 10 3 11 2 2 1 5 2 10 8 8 13 2 5 8 6 13 2 13 7 11 5 12 12 14 12 2 6 14 2 0 0 14 10 10 8 12 15 6 15 9 5 5 13 11 15 15 2 4 1 4 13 7 8 13 5 9 14 9 1 5 8 1 0 0 0 0 15 13 2 12 11 11 15 4 14 3 6 10 14 11 13 1 6 13 15 5 7 8 13 3 7 15 0 0 15 0 0 0 0 0 0 6 9 6 9 7 12 2 13 3 1 2 3 1 12 9 15 2 5 4 8 1 5 0 0 0 0 13 10 0 0 0 0 0 0 0 0 0 14 14 7 11 2 15 5 4 8 5 2 5 14 13 0 0 0 0 0 0 0 0 3 8 9 3 0 0 0 0 0 0 0 0 0 0 0 0 0 0 0 0 0 0 0 0 0 0 0 0 0 0 0 0 10 4 12 12 8 8 3 0 0 0 0 0 0 0 0 0 0 0 0 0 0 0 0 0 0 0 0 0 0 0 0 0 9 6 6 7 10 3 1 4 6 10 0 0 0 0 0 0 0 0 0 0 0 0 0 0 0 0 0 0 0 0 12 2 10 10 8 6 11 13 9 10 4 13 11 6 14 0 0 0 0 0 0 0 0 0 0 0 0 0 0 0 0 3 3 13 9 5 9 2 3 13 14 15 1 15 15 5 8 6 7 8 8 6 3 0 0 0 0 0 0 12 3 11 11 13 12 14 1 15 6 12 5 4 7 15 3 13 8 13 5 3 1 4 7 4 15 8 5 8 4 9 8 1 2 1 13 6 12 6 5 8 7 6 12 3 10 11 15 4 3 10 7 11 4 14 15 13 3 10 5 3 1 12 6 3 6 10 12 7 1 15 3 5 7 12 4 8 11 8 3 13 7 6 3 2 6 10 5 2 4 8 1 8 4 13 2 15 1 13 4 6 10 7 1 3 12 12 15 12 10 1 12 1 7 13 14 7 13 3 10 12 13 5 12 1 5 15 2 3 14 10 5 14 1 12 2 15 2 1 12 4 10 10 8 9 12 15 3 8 12 12 3 10 1 13 5 2 12 7 2 6 15 5 9 10 1 5 1 5 9 13 3 2 11 2 6 14 9 1 3 11 4 14 8 11 13 1 6 2 10 4 12 11 11 2 4 9 6 15 14 6 9 13 2 10 1 12 6 4 9 4 13 10 3 14 2 14 1 2 5 15 4 4 9 4 6 8 8 13 9 9 10 10 12 15 3 7 4 15 11 6 15 7 14 13 9 2 4 7 12 8 5 7 9 15 14 5 11 6 10 12 14 13 6 5 4 1 2 4 13 7 14 2 7 2 12 11 14 7 10 3 1 12 11 13 1 12 4 13 7 11 15 6 2 5 13 14 13 14 1 7 11 1 1 2 10 6 15 4 1 5 14 8 11 13 1 8 3 10 14 6 10 1 11 7 14 5 12 14 14 15 9 2 10 14 8 7 7 1 5 1 12 12 11 2 7 6 14 5 5 15 7 12 10 10 2 4 13 11 13 12 2 5 9 12 13 4 4 10 13 14 9 14 13 15 2 5 2 5 1 9 5 3 3 10 10 10 13 8 15 11 13 14 7 8 9 7 12 5 6 4 4 7 9 12 11 11 2 11 9 2 15 2 7 9 12 8 1 11 11 7 4 10 1 6 3 15 3 10 10 2 2 1 8 1 9 14 2 13 15 9 4 13 13 9 2 11 7 2 5 13 10 14 6 7 6 5 14 1 10 6 9 5 11 15 15 6 15 1 2 3 10 12 6 6 1 11 8 8 6 4 7 2 6 4 6 15 10 6 3 7 12 1 7 5 8 6 5 9 2 7 4 14 14 12 1 12 11 13 7 9 2 2 5 11 14 12 12 15 13 4 2 5 6 15 12 2 10 6 14 12 12 8 6 13 1 7 4 1 10 3 12 11 9 3 7 7 10 12 8 12 4 14 2 8 6 5 5 10 7 8 6 5 1 7 2 11 14 7 15 7 14 8 10 3 13 4 8 14 1 12 4 8 4 15 11 5 5 1 5 11 8 15 6 11 4 2 13 7 6 8 7 5 15 1 15 