P2
33 33
250
7 6 4 14 12 14 1 10 4 9 13 12 12 2 11 10 4 15 5 1 2 6 3 8 11 6 10 13 11 8 10 3 7 5 11 9 4 2 6 2 10 1 5 11 1 7 14 12 2 11 13 1 12 15 11 10 1 2 11 13 7 13 11 2 11 7 11 11 7 3 10 12 1 10 14 3 11 10 15 8 9 3 4 4 13 3 4 13 4 7 5 3 13 3 12 15 10 11 9 5 2 9 6 14 7 14 13 3 10 12 11 12 8 1 1 9 9 2 7 11 6 14 13 15 1 12 9 5 15 7 7 10 12 4 14 1 11 15 15 6 4 3 12 1 5 1 13 10 10 6 8 8 1 11 9 10 7 10 13 12 8 12 13 8 5 13 14 15 8 9 13 14 14 11 12 10 15 14 10 13 8 11 9 12 3 4 1 3 8 4 1 13 15 14 14 6 8 3 12 9 5 13 15 11 4 4 7 2 1 6 1 14 13 14 9 15 7 3 10 9 14 13 6 3 11 6 10 6 5 9 3 3 12 10 13 1 9 6 4 2 9 7 8 14 3 9 2 11 10 10 14 8 2 7 6 3 10 11 9 2 14 1 4 3 12 11 10 15 13 8 11 3 15 3 7 12 4 3 13 3 1 4 13 7 10 7 15 14 6 3 10 3 12 8 14 14 11 3 12 8 15 5 2 5 3 10 7 2 14 5 10 3 8 2 4 7 7 4 6 8 4 8 8 5 10 15 7 5 2 15 9 5 9 1 14 8 9 13 10 3 13 7 11 7 3 11 7 8 9 14 10 3 14 10 1 14 13 5 14 5 11 8 10 3 7 13 12 13 7 12 6 7 4 6 12 8 9 14 4 11 2 4 13 13 3 9 3 6 11 15 2 15 5 3 10 11 6 5 7 7 15 5 2 13 8 8 10 10 7 13 3 2 15 4 11 13 2 14 10 9 7 10 7 8 8 4 4 6 7 12 9 6 6 6 11 4 4 2 6 4 2 7 11 11 3 8 2 9 15 7 14 5 11 9 12 13 12 12 3 3 4 6 9 13 2 10 12 4 8 12 15 12 10 15 13 15 11 12 12 8 5 12 7 11 2 12 2 15 10 9 14 8 12 13 8 10 2 3 15 7 11 6 7 14 14 3 13 10 5 2 12 12 8 3 9 3 9 8 13 15 9 5 11 11 3 7 6 11 10 7 13 1 13 1 11 12 10 13 3 4 13 1 14 11 10 11 5 11 3 3 12 1 6 14 14 4 11 1 4 4 7 4 12 3 14 6 2 14 14 5 8 12 14 3 7 5 10 9 2 12 4 6 3 7 4 9 1 9 8 9 4 10 11 10 8 9 8 8 4 13 8 1 4 8 3 10 6 9 4 4 13 10 10 9 10 7 4 14 9 8 1 10 14 3 9 11 8 4 15 5 14 4 12 4 13 8 14 11 10 8 11 1 3 14 8 3 12 15 14 5 12 1 5 3 12 4 1 8 8 9 9 4 9 13 10 0 0 15 3 4 10 5 14 13 15 3 14 5 7 9 7 7 7 8 14 2 8 3 15 4 2 4 8 12 7 10 2 0 0 0 0 10 2 8 9 1 5 12 6 13 1 3 7 1 10 7 6 7 15 3 2 12 1 1 15 2 1 13 6 13 0 0 0 0 0 0 0 6 6 6 14 7 8 10 12 12 4 5 6 8 12 6 9 5 11 13 3 0 0 11 10 6 15 4 0 0 0 0 0 0 0 0 0 7 11 4 9 11 7 12 8 4 5 6 10 3 12 0 0 0 0 0 6 12 2 3 5 8 5 0 0 0 0 0 0 0 0 0 0 0 0 0 0 0 0 0 0 0 0 0 0 0 0 0 0 12 14 13 7 7 5 6 14 15 0 0 0 0 0 0 0 0 0 0 0 0 0 0 0 0 0 0 0 0 0 0 0 0 1 5 15 2 15 1 7 8 1 9 5 3 0 0 0 0 0 0 0 0 0 0 0 0 0 0 0 0 0 0 2 1 10 13 12 12 6 13 10 15 14 10 1 11 10 5 12 13 4 9 9 0 0 0 0 0 0 0 8 4 10 13 12 7 13 13 8 15 12 7 10 14 10 7 7 4 15 3 12 3 4 14 2 6 13 10 1 8 8 15 15 9 14 5 10 11 9 4 9 9 4 8 10 9 11 1 11 13 4 9 12 8 3 7 13 2 5 7 13 7 7 14 1 13 13 3 3 14 14 15 1 14 2 11 14 5 10 8 6 12 10 5 3 14 11 10 8 12 15 11 3 1 11 15 9 2 9 13 9 2 7 5 7 8 12 12 6 12 13 4 12 13 6 7 8 9 13 5 14 9 12 4 6 4 4 8 6 5 13 1 14 14 15 10 5 7 3 5 3 2 4 2 13 1 15 13 7 15 1 11 5 10 3 13 2 14 3 12 4 11 9 5 15 14 6 7 9 6 3 9 1 