P2
33 33
250
11 3 6 3 6 1 2 5 6 3 15 10 6 10 5 15 13 4 2 3 4 9 12 6 9 13 5 3 15 4 7 13 2 2 14 2 7 6 6 12 13 2 14 15 1 2 14 5 15 2 3 12 11 9 12 6 13 15 8 3 1 12 5 1 15 7 15 4 13 2 6 12 3 10 10 15 1 9 9 3 2 7 7 13 11 8 9 8 13 12 7 13 4 1 2 6 5 11 15 2 10 13 14 9 9 7 6 9 15 2 6 13 4 1 5 6 12 13 3 4 12 10 4 9 12 11 8 5 1 3 6 8 4 2 14 7 4 15 7 12 4 7 12 8 9 8 4 2 6 15 12 1 13 13 2 13 9 12 5 9 10 10 8 10 13 6 7 6 11 5 7 9 8 5 1 4 7 10 7 11 2 10 2 12 10 1 4 1 8 8 5 5 4 3 9 4 0 0 6 4 12 3 4 8 14 13 5 14 15 12 6 5 8 4 14 4 3 13 5 7 6 13 6 2 12 2 4 11 0 0 0 9 8 4 1 4 11 1 12 9 6 9 10 8 6 2 14 15 9 10 3 15 4 2 15 14 14 12 1 0 0 0 0 3 15 2 12 8 2 14 1 5 6 5 3 1 12 14 1 5 7 6 6 4 7 3 15 10 15 11 0 0 0 0 0 15 8 13 0 0 0 5 2 13 6 10 14 11 6 14 2 5 2 1 4 4 14 10 14 10 11 0 0 0 0 0 0 7 11 1 7 11 0 0 0 0 0 5 5 3 5 15 6 8 8 4 15 3 15 12 0 0 0 0 0 0 0 0 7 10 10 8 10 15 3 1 8 0 0 0 0 0 0 0 0 0 0 0 0 0 0 0 0 0 0 0 0 0 0 0 13 6 11 15 4 6 9 4 9 8 9 6 0 0 0 0 0 0 0 0 0 0 0 0 0 0 0 0 0 0 0 14 12 1 15 2 13 11 5 14 1 9 15 3 10 7 3 7 0 0 0 0 0 0 0 0 0 0 0 0 0 14 12 1 3 5 4 2 7 12 13 2 9 3 13 1 5 12 10 14 6 8 13 12 15 0 0 0 0 0 5 1 10 15 5 7 14 14 6 1 11 3 5 13 14 15 3 11 5 2 1 2 9 12 1 11 15 9 13 9 4 14 13 6 10 11 12 6 14 10 6 1 7 2 2 6 14 13 5 6 5 8 8 8 5 2 7 7 7 12 15 7 1 3 4 11 14 10 11 1 3 9 1 8 8 2 13 1 15 14 13 12 7 3 1 14 15 14 1 15 5 4 8 8 11 3 6 8 6 14 10 1 13 8 4 8 9 7 9 6 13 13 13 4 10 9 1 14 13 9 7 4 15 12 15 15 10 8 14 9 4 6 5 12 9 13 11 4 3 4 1 15 10 14 6 1 3 10 8 4 7 3 4 13 13 8 7 8 9 15 9 2 8 4 15 1 9 11 6 14 11 2 7 15 9 3 2 9 10 2 1 9 5 9 10 10 15 4 13 15 5 8 11 15 2 11 12 5 2 3 8 9 15 2 15 9 2 15 2 14 2 9 10 13 14 5 11 13 5 9 6 12 13 11 15 6 12 1 6 1 14 1 4 8 14 1 2 11 2 13 10 13 10 9 14 7 3 5 10 3 9 8 8 1 5 8 10 8 6 3 2 9 6 7 8 15 1 8 8 4 9 8 5 9 7 14 2 4 10 3 10 2 14 11 10 12 13 14 4 8 7 1 11 14 2 8 1 7 14 3 13 7 10 3 12 13 4 13 8 14 14 2 3 9 3 7 15 12 10 13 4 3 7 6 11 2 10 8 2 5 14 14 1 7 3 7 6 11 1 14 7 4 3 8 14 1 9 2 11 14 12 7 1 3 7 15 8 1 1 5 11 3 9 1 10 10 9 4 5 12 11 9 5 5 3 11 4 1 10 2 8 2 10 1 7 4 5 7 2 6 6 4 6 7 8 13 11 11 14 13 15 15 1 11 13 8 12 7 13 9 15 8 7 3 15 9 11 3 15 6 2 14 12 5 6 2 13 3 2 8 3 3 12 3 4 11 15 8 1 7 8 15 5 15 13 10 7 11 8 9 1 1 12 7 9 7 9 5 9 13 10 9 8 13 1 9 15 1 6 10 13 2 14 12 4 12 8 15 2 7 2 10 14 8 3 3 12 12 13 9 7 12 4 11 5 12 15 9 3 2 8 12 11 13 10 3 14 12 8 13 13 9 4 5 5 14 10 10 14 14 5 6 6 6 9 1 11 3 10 10 6 9 6 3 9 14 9 2 15 15 11 6 3 10 3 10 2 1 2 3 12 3 6 3 3 6 11 7 2 12 11 2 9 15 10 6 13 14 12 2 10 14 5 13 2 14 4 4 6 2 5 9 7 9 6 12 11 6 11 2 13 10 15 6 12 10 5 7 15 7 1 1 3 6 4 9 3 2 6 