P2
33 33
250
8 13 3 15 9 6 9 13 4 10 7 5 14 14 6 12 10 3 4 9 12 1 5 12 10 10 4 8 6 2 7 9 6 8 9 5 4 4 6 3 7 12 3 9 8 1 1 8 5 3 1 3 3 7 1 7 7 13 4 13 11 8 15 5 1 14 10 2 10 13 7 7 4 9 11 4 10 11 1 10 7 7 9 1 5 3 9 9 7 15 11 6 7 1 8 8 13 4 1 2 3 15 7 12 8 12 8 7 6 7 4 10 1 2 4 10 13 3 4 3 14 13 1 7 2 7 8 13 9 7 14 1 15 14 15 2 15 4 11 5 9 10 9 13 11 11 7 6 5 11 9 7 5 13 9 9 15 8 2 15 6 1 12 3 3 8 8 6 2 14 6 8 14 4 6 1 5 3 8 9 2 2 2 7 7 7 1 2 3 8 13 13 8 8 2 14 2 14 15 9 2 11 9 13 7 14 3 7 10 11 9 7 12 5 14 4 11 15 4 14 6 1 10 15 6 4 15 11 15 5 4 11 9 12 9 10 15 2 2 2 14 7 3 14 11 5 14 11 0 0 0 0 0 11 15 2 11 6 10 13 12 2 11 14 1 15 6 11 4 6 10 10 14 6 11 13 0 0 0 0 0 0 0 0 0 0 0 0 0 0 0 9 13 9 5 9 1 11 12 8 7 3 1 3 8 5 13 0 0 0 0 0 0 0 0 0 0 0 0 0 0 0 0 0 0 0 1 11 5 6 15 1 7 14 12 3 1 13 0 0 0 0 0 0 0 0 0 0 0 0 0 0 0 0 0 0 0 0 0 0 0 9 3 10 9 12 4 1 3 0 0 0 0 0 0 0 0 0 0 0 0 0 0 0 0 0 0 0 0 0 0 0 0 0 0 0 6 3 15 10 12 0 0 0 0 0 0 0 0 9 7 10 2 7 7 3 15 2 10 10 13 11 0 0 0 0 0 0 0 7 7 9 14 0 0 0 0 0 0 10 12 14 14 4 12 2 8 12 1 8 1 3 12 7 7 12 6 2 0 0 0 0 3 5 15 0 0 0 0 0 1 6 8 7 12 12 11 4 5 14 4 12 4 13 5 12 2 11 10 5 2 6 6 0 0 6 4 11 0 0 0 12 13 5 15 6 2 13 7 8 9 5 1 6 9 3 13 2 12 10 6 5 15 10 13 15 12 4 3 5 13 0 0 12 3 7 15 2 11 6 2 4 10 13 1 11 3 1 10 3 2 5 11 12 3 12 4 14 1 13 10 15 13 2 8 14 4 8 14 10 8 11 2 6 8 1 9 12 3 6 10 13 14 11 1 5 4 6 6 5 2 2 13 14 6 3 2 12 6 1 1 7 13 5 6 14 5 13 10 14 3 11 5 1 7 3 4 2 5 9 9 8 6 11 8 13 8 4 13 9 8 9 9 13 14 5 13 15 7 11 1 10 13 12 15 4 3 12 4 1 11 6 15 11 8 7 13 7 3 12 5 9 10 2 6 14 15 1 5 10 15 12 15 10 5 4 15 6 11 6 2 6 5 13 3 4 5 11 9 3 14 5 14 8 9 7 8 5 7 6 8 7 5 13 6 10 9 2 15 8 11 14 2 11 2 9 15 12 8 12 1 1 11 10 4 2 6 9 13 4 11 10 14 2 6 15 6 1 2 1 2 12 15 12 5 7 1 1 6 15 3 6 9 4 4 14 2 6 9 3 4 15 2 6 10 12 5 6 9 12 6 6 14 6 7 1 7 7 8 9 11 9 8 13 12 1 13 2 6 15 5 3 12 3 10 10 3 4 3 13 3 6 13 12 2 14 10 15 14 2 7 3 4 3 7 4 10 6 11 13 5 14 12 11 1 3 8 4 13 15 8 3 10 10 11 1 10 7 6 1 6 15 8 13 12 10 13 11 14 4 6 9 3 13 14 4 11 15 7 7 10 2 5 11 12 11 13 15 8 5 13 7 14 1 10 6 6 7 14 10 14 12 8 3 13 12 9 11 10 15 15 7 11 15 11 14 14 7 5 13 14 11 5 9 1 4 13 12 6 9 8 9 10 11 12 3 9 5 11 15 5 15 11 4 3 14 7 12 3 10 9 15 8 14 1 7 2 6 7 15 12 2 11 13 4 7 8 9 1 1 9 14 5 9 11 15 6 2 13 8 12 10 11 4 7 15 10 7 2 10 14 13 5 3 4 8 7 2 6 8 15 8 6 14 4 13 6 5 4 5 9 8 13 14 11 5 7 11 3 6 8 5 10 1 6 13 9 8 5 12 9 7 8 10 6 12 8 5 6 14 10 3 6 7 8 2 11 6 5 7 9 8 2 7 12 12 5 4 2 4 2 1 11 4 14 12 5 2 15 1 4 15 15 12 1 10 13 10 9 6 8 7 12 7 13 2 8 15 5 3 6 4 5 15 14 9 3 11 6 4 7 8 13 2 4 1 2 7 13 