P2
33 33
250
12 8 6 11 6 10 6 6 2 7 4 5 9 15 13 3 2 2 7 8 5 14 12 15 4 6 3 10 13 3 12 1 11 2 4 13 1 14 1 2 13 3 13 13 2 1 4 4 15 10 5 10 15 4 5 8 12 14 3 8 2 15 13 10 3 2 13 12 4 10 7 10 1 13 4 12 1 15 1 2 10 3 8 9 15 6 8 13 5 8 12 10 4 14 10 10 9 8 13 9 11 6 14 13 13 6 3 13 10 13 5 10 5 10 12 1 14 13 12 8 10 12 6 3 15 10 4 6 6 4 10 8 14 14 15 5 4 8 12 7 15 4 3 9 6 14 5 11 13 14 7 7 5 1 6 3 9 7 5 1 5 5 13 12 4 5 3 2 8 14 6 2 8 6 13 6 8 3 3 15 10 4 12 10 15 5 13 15 11 2 9 10 15 15 6 9 10 7 6 12 5 3 4 5 5 12 13 15 1 4 14 5 12 4 13 12 4 12 12 12 1 3 10 2 8 14 15 8 3 12 7 6 10 9 8 6 14 7 4 10 6 8 6 1 8 10 6 0 0 0 0 0 1 2 8 1 12 2 2 4 8 6 12 6 5 14 1 13 11 15 5 10 15 8 4 0 0 0 0 0 0 0 0 0 0 0 0 0 0 0 9 5 11 8 3 14 10 12 1 15 8 10 1 5 14 0 0 0 0 0 0 0 0 0 0 0 0 0 0 0 0 0 0 0 0 0 6 9 3 4 7 13 14 5 5 14 0 0 0 0 0 0 0 0 0 0 0 0 0 0 0 0 0 0 0 0 0 0 0 0 0 3 14 5 13 3 15 0 0 0 0 0 0 0 0 0 0 0 0 0 0 0 0 0 0 0 0 0 0 0 0 0 0 0 0 0 2 6 0 0 0 0 0 0 0 0 0 13 1 9 14 4 13 5 6 1 10 11 1 1 9 6 0 0 0 0 0 0 0 3 0 0 0 0 0 0 10 12 10 7 9 13 5 5 13 5 3 5 1 13 7 4 12 11 1 6 15 15 0 0 0 0 3 0 0 0 0 9 1 8 3 13 7 11 10 15 1 6 15 4 2 12 12 5 11 2 2 15 1 13 14 12 2 9 0 0 0 0 9 11 15 10 2 1 5 8 6 1 14 2 2 2 9 3 7 2 11 9 2 8 15 10 4 11 5 1 4 7 3 2 5 5 4 8 6 5 2 7 15 2 1 15 15 2 9 9 2 4 1 13 7 13 1 15 12 3 3 7 6 6 10 2 8 14 9 15 7 13 6 2 9 10 4 1 3 2 10 8 8 5 8 2 14 1 11 4 5 14 4 13 14 5 13 5 14 1 6 2 7 1 15 6 12 8 9 11 9 9 12 12 2 5 2 5 1 5 15 4 7 6 1 8 2 3 3 6 15 2 13 7 14 2 5 3 3 11 4 9 8 11 10 15 1 12 10 3 4 2 4 12 14 11 6 7 9 3 7 2 12 5 11 9 12 2 3 15 15 15 11 6 8 7 12 4 5 6 5 15 5 12 3 4 8 15 11 7 9 12 2 8 5 4 13 7 5 9 9 5 2 6 7 8 9 14 8 3 15 4 6 10 11 7 12 14 6 5 6 2 15 2 6 7 15 8 1 15 11 6 5 4 13 8 1 12 12 9 13 6 15 3 14 7 12 3 12 11 4 4 13 11 10 4 12 13 14 2 3 12 12 1 10 12 11 14 13 11 9 15 14 15 7 1 9 6 14 12 6 3 6 4 13 10 7 8 7 12 11 9 11 15 1 1 3 15 4 6 8 5 12 14 5 11 7 8 6 10 14 13 14 6 5 9 13 1 14 7 10 9 11 13 15 3 3 12 12 12 6 1 13 13 14 7 7 10 7 4 7 14 3 3 15 6 11 14 8 8 9 6 13 7 11 3 1 13 11 9 8 5 9 1 11 12 12 7 5 11 3 9 15 2 3 1 1 10 3 3 7 1 4 14 10 12 6 7 10 6 13 15 4 9 14 13 2 6 12 7 5 6 9 5 11 15 1 14 8 2 4 14 12 1 6 2 1 1 6 11 14 15 12 12 4 8 11 12 14 4 6 3 9 11 10 5 2 10 5 13 6 2 4 13 2 10 7 13 1 3 5 6 14 2 3 6 4 9 5 7 12 6 11 12 8 15 11 2 3 5 7 3 14 13 8 10 3 5 1 9 5 15 15 4 12 12 11 13 3 11 2 9 10 3 3 14 13 13 9 6 3 5 1 13 14 12 4 14 12 12 2 7 1 2 8 9 1 1 4 14 1 5 14 3 14 2 1 9 13 15 3 6 8 13 8 12 7 10 1 14 13 8 6 2 6 8 13 1 6 14 9 3 2 14 11 4 14 11 6 4 6 11 10 14 6 1 2 10 1 10 2 10 5 3 1 3 15 2 15 12 12 2 15 15 5 5 11 15 3 7 7 5 1 