P2
33 33
250
13 14 9 11 15 2 12 15 4 15 9 13 9 9 5 10 13 1 5 4 3 10 5 3 8 1 9 4 10 10 5 10 12 3 3 8 4 8 10 11 8 8 10 6 12 5 5 7 10 13 15 5 12 10 1 2 12 8 2 2 10 15 6 5 15 4 7 10 2 8 14 12 11 15 4 3 3 1 6 12 1 4 12 14 3 3 11 10 9 8 2 5 3 2 5 9 3 1 15 13 1 15 15 3 2 13 8 6 10 4 5 1 1 14 15 4 8 2 10 3 12 14 12 14 8 3 12 15 10 13 3 15 10 7 7 13 5 13 10 15 1 9 2 11 2 10 14 3 11 2 9 6 1 1 12 7 12 9 15 1 1 7 1 10 14 15 1 6 12 6 1 6 10 3 12 4 15 11 6 11 15 10 7 3 12 13 9 15 14 1 3 13 3 14 5 7 2 7 9 7 2 11 11 3 3 9 1 2 14 8 8 4 6 11 6 9 5 10 9 3 10 2 11 4 8 12 14 15 8 5 3 3 4 11 5 12 2 13 9 9 3 13 8 3 2 0 0 0 0 1 15 10 8 4 13 10 15 15 13 11 14 8 13 12 4 4 15 7 15 13 4 14 3 0 0 0 0 0 0 0 0 0 0 0 0 0 0 13 12 13 6 11 4 5 2 11 8 4 15 1 7 1 11 13 0 0 0 0 0 0 0 0 0 0 0 0 0 0 0 0 0 0 7 6 15 12 11 6 9 10 4 3 4 10 9 0 0 0 0 0 0 0 0 0 0 0 0 0 0 0 0 0 0 0 0 0 0 14 3 7 1 10 3 15 15 13 5 0 0 0 0 0 0 0 0 0 0 0 0 0 0 0 0 0 0 0 0 0 0 0 0 10 5 15 7 7 6 3 4 0 0 0 0 0 0 0 0 0 0 0 0 0 0 0 0 0 0 0 0 0 0 0 0 0 0 1 3 14 5 4 3 0 0 0 0 0 0 0 0 12 7 7 15 4 11 10 1 10 13 6 12 13 0 0 0 0 0 0 0 6 13 4 15 0 0 0 0 0 0 11 1 11 9 7 6 3 7 5 8 2 3 6 5 3 7 10 14 3 0 0 0 0 0 11 12 0 0 0 0 0 3 6 10 8 3 10 1 12 4 6 6 4 7 6 7 10 5 3 7 5 9 13 5 0 0 0 0 10 0 0 0 14 14 7 15 14 8 8 6 14 14 10 12 2 11 9 3 12 8 9 10 8 13 15 3 3 11 13 0 0 8 0 0 6 10 11 4 3 3 7 11 12 13 15 4 4 8 11 5 4 7 4 12 3 5 14 8 13 12 5 10 1 0 0 0 7 3 2 14 12 8 12 15 6 8 14 1 9 8 5 12 10 3 6 13 7 11 9 5 14 6 8 15 1 1 2 0 7 7 8 9 10 8 10 8 7 10 9 5 13 10 9 10 12 6 14 10 11 8 15 2 8 1 10 12 6 3 11 1 8 15 13 13 10 8 8 12 5 9 13 14 13 9 3 4 14 10 2 2 10 12 13 6 6 10 6 15 13 14 12 7 10 3 9 6 1 3 15 1 9 6 10 6 5 15 7 11 11 6 6 6 9 9 12 3 9 4 8 5 12 14 3 11 1 4 2 10 12 3 6 6 13 13 6 5 4 14 15 9 6 14 14 12 13 14 12 6 2 14 12 5 10 6 4 8 9 4 12 8 1 11 3 6 11 3 4 2 9 7 7 2 7 13 7 11 6 14 3 12 10 5 9 9 9 6 11 2 15 1 13 11 3 5 12 2 4 10 10 7 1 1 15 13 15 8 2 11 8 2 3 7 11 10 15 2 7 14 2 8 9 13 15 5 6 14 6 13 11 15 2 9 6 4 9 2 12 14 13 11 1 3 14 14 13 7 10 10 3 7 8 4 14 3 10 7 15 12 11 4 12 13 14 2 9 4 8 13 2 11 15 8 8 12 7 1 10 10 4 3 13 8 12 7 11 13 7 4 8 9 13 4 12 3 14 2 15 7 10 14 11 7 8 9 10 9 1 4 2 3 10 5 12 14 8 10 5 13 1 8 10 5 12 7 3 7 14 13 8 6 7 12 2 13 3 1 7 1 10 3 6 12 5 1 11 11 11 9 2 6 10 3 12 13 4 1 11 4 3 3 14 4 5 2 5 15 11 5 3 7 14 2 6 14 4 13 6 14 13 5 11 14 7 14 10 8 4 12 15 7 6 5 4 2 8 2 12 9 4 14 5 8 2 3 7 14 4 5 11 4 15 9 13 4 3 3 9 10 14 9 9 3 6 10 15 9 12 14 14 13 2 11 10 15 3 2 14 4 1 2 11 7 4 13 12 15 15 4 4 11 11 4 1 9 9 8 12 12 4 3 6 6 15 8 13 2 9 11 15 9 3 4 2 6 7 10 10 7 6 8 14 12 9 3 8 3 5 2 8 11 