P2
33 33
250
7 2 4 8 8 10 13 1 10 4 7 5 7 9 6 4 14 4 9 4 13 8 14 5 14 10 8 2 7 15 1 7 4 15 10 12 6 2 3 7 6 10 8 8 2 5 5 6 15 5 10 10 13 3 10 15 4 11 12 12 7 3 3 5 10 9 9 14 14 11 3 15 13 1 7 3 4 11 15 5 2 15 15 10 9 9 12 3 5 12 6 4 7 4 9 4 5 11 6 15 4 13 4 14 6 8 5 3 10 5 7 3 2 3 15 10 1 3 3 8 6 3 2 15 5 8 7 7 4 14 10 9 12 15 7 10 4 5 7 5 12 11 9 11 13 12 5 2 12 1 10 1 10 3 4 14 3 13 10 1 8 4 7 8 2 2 15 1 2 12 12 10 6 14 3 12 15 8 7 10 8 14 12 14 8 7 5 8 14 2 8 6 4 2 8 10 11 11 7 3 2 3 12 10 7 10 13 1 2 2 2 11 9 13 15 8 1 6 15 13 10 10 3 12 15 3 3 10 12 6 15 12 12 10 10 5 4 10 6 6 3 6 4 8 13 7 12 13 12 8 15 11 4 15 10 15 10 11 14 2 9 1 14 5 14 1 7 7 13 1 4 6 4 14 9 5 15 14 6 1 6 11 3 5 4 3 1 10 3 2 15 2 8 4 12 14 5 14 8 2 12 12 6 10 12 10 6 13 1 4 3 2 4 5 9 2 10 9 6 11 11 12 10 8 2 11 8 10 6 15 8 5 9 15 5 6 3 2 11 7 13 8 11 9 11 4 3 13 8 2 9 10 9 9 3 3 10 7 10 8 12 15 14 8 13 2 5 13 7 14 0 0 6 9 5 3 4 10 11 15 7 12 10 5 4 5 12 5 4 3 3 12 8 3 12 9 10 3 14 15 8 6 0 0 0 0 0 0 0 14 1 14 8 10 14 7 2 1 13 7 1 2 15 6 13 2 15 4 11 9 11 11 10 1 5 0 0 0 0 0 0 0 0 0 0 0 0 0 0 0 0 0 0 0 0 0 0 0 0 0 0 0 2 14 6 10 8 2 7 0 0 0 0 0 0 0 0 0 0 0 0 0 0 0 0 0 0 0 0 0 0 0 0 0 0 8 14 4 9 2 10 8 14 11 0 0 0 0 0 0 0 0 0 0 0 0 0 0 0 0 0 0 0 0 0 0 0 0 3 4 1 3 14 1 4 15 10 1 1 0 0 0 0 0 0 0 0 0 0 0 0 0 0 0 0 0 0 0 0 0 0 8 15 9 15 15 5 12 3 12 15 1 8 10 0 0 0 0 0 0 0 0 0 0 0 0 0 0 0 0 0 0 0 0 10 2 10 7 12 14 14 8 5 2 14 1 11 13 10 14 2 13 6 0 0 0 0 0 0 0 0 0 8 1 8 12 6 1 10 5 10 8 11 6 10 4 9 11 14 3 13 8 15 6 3 13 4 9 1 9 9 2 8 15 6 8 15 14 1 5 9 6 12 12 9 9 12 14 12 14 8 1 12 13 7 1 3 6 14 13 1 3 9 7 12 14 5 5 7 13 4 8 5 11 4 3 12 13 5 8 7 6 7 13 8 7 5 15 8 11 6 3 3 15 14 13 8 11 8 13 5 12 3 8 1 3 4 8 14 14 8 13 8 2 3 14 2 6 15 3 1 3 12 14 4 7 15 8 3 13 8 3 7 5 8 9 7 14 6 3 14 3 11 8 15 11 3 9 11 10 3 11 5 10 5 13 1 12 6 1 4 10 9 8 5 12 7 1 6 12 4 11 8 10 3 12 2 4 4 7 14 1 10 2 9 7 4 3 6 10 13 7 11 10 2 9 13 11 5 6 2 15 10 14 2 14 13 6 15 2 2 1 2 1 13 8 6 13 9 7 12 5 12 13 11 1 10 1 3 11 10 15 1 6 6 10 3 10 13 14 5 3 2 11 14 15 1 1 6 5 8 9 9 14 7 12 5 5 11 3 11 6 3 9 5 4 14 5 11 2 1 11 8 15 13 5 8 15 14 11 13 2 9 5 13 7 15 9 8 13 3 6 12 4 5 15 15 10 14 9 4 2 10 11 2 4 5 5 8 7 4 10 11 7 9 9 6 6 9 4 2 3 13 4 1 13 14 5 2 1 11 12 8 14 2 9 11 1 10 15 12 2 13 5 4 3 13 13 6 5 8 1 10 13 8 8 10 1 4 3 11 4 15 3 6 8 5 7 7 1 7 7 11 5 14 5 14 9 4 2 10 2 10 3 11 9 15 7 3 9 3 13 14 7 13 9 9 9 7 12 4 11 5 11 3 12 15 13 1 10 13 11 3 9 1 5 15 13 11 13 15 5 8 4 2 12 6 12 6 5 1 14 6 4 2 1 13 1 2 11 1 14 12 15 5 4 5 5 1 12 13 15 1 7 5 2 6 12 10 10 3 4 3 8 9 15 13 6 14 