P2
33 33
250
8 1 5 5 7 4 12 2 7 13 10 7 1 12 10 2 5 3 10 6 1 6 3 6 11 4 11 11 6 10 12 5 11 4 8 8 11 6 1 13 12 9 6 14 2 7 2 6 12 8 3 4 13 10 6 14 12 6 8 6 14 15 10 2 5 4 10 13 9 4 7 15 13 1 7 11 4 9 12 13 14 15 6 11 1 14 15 9 6 12 8 10 7 10 9 7 13 1 7 13 10 8 14 14 3 7 11 3 6 11 5 1 5 13 12 3 3 3 6 11 4 10 4 3 8 15 6 9 6 10 14 7 0 12 7 8 4 10 1 12 2 4 11 14 1 10 8 6 3 9 2 6 6 4 10 10 1 15 7 6 11 15 4 3 0 0 0 0 0 9 4 11 15 12 9 13 14 12 5 9 14 2 8 8 11 11 7 11 13 4 15 5 14 4 0 0 0 0 0 0 0 0 0 0 0 0 9 6 1 9 13 7 1 3 1 8 13 8 4 15 13 15 7 0 0 0 0 0 0 0 0 2 0 0 0 0 0 0 0 0 0 0 0 0 0 0 0 0 0 0 0 0 0 0 0 0 0 0 0 0 0 0 0 3 8 13 11 0 0 0 0 0 0 0 0 0 0 0 0 0 0 0 0 0 0 0 0 0 0 0 0 0 0 0 10 12 5 12 12 2 3 10 0 0 0 0 0 0 0 0 0 0 0 0 0 0 0 0 0 0 0 0 0 0 1 7 11 14 3 5 9 13 5 8 1 5 3 3 0 0 0 0 0 0 0 0 0 0 0 0 0 0 0 0 12 15 7 8 13 12 8 3 8 1 11 10 6 8 2 15 9 5 6 13 8 5 14 0 0 0 0 0 7 7 7 2 6 4 9 12 2 9 8 4 8 14 9 12 9 3 4 1 9 15 2 3 1 13 7 7 13 4 2 8 9 9 6 10 15 14 11 3 13 3 14 4 4 5 15 6 5 4 2 4 11 4 4 2 14 5 3 3 10 2 4 1 12 4 3 4 1 8 4 14 10 15 10 7 11 7 14 4 3 11 5 2 8 8 4 4 5 3 6 9 1 5 10 5 9 7 10 3 2 15 12 1 14 11 15 12 3 7 13 12 8 1 4 1 1 6 7 1 5 9 13 9 8 8 6 15 9 13 13 13 11 5 1 14 9 5 9 13 10 13 4 8 11 2 7 4 12 1 2 4 10 10 13 10 7 14 12 15 1 4 4 9 10 7 8 4 1 11 10 1 13 7 1 12 6 9 10 5 10 2 13 2 1 4 12 4 11 1 13 5 3 9 6 3 6 7 4 8 1 5 4 11 1 7 2 5 13 14 1 6 8 13 4 12 3 9 8 3 5 7 10 13 3 13 8 3 12 8 3 3 6 9 2 3 13 3 7 10 8 6 2 6 15 14 7 15 6 4 14 5 13 7 5 9 12 6 6 1 13 12 5 4 6 3 10 1 9 9 9 5 9 6 14 1 10 13 7 11 13 12 4 5 6 14 10 11 12 2 7 2 15 6 10 8 1 4 2 5 7 14 2 6 5 6 13 8 2 3 4 3 8 7 2 14 12 13 5 11 15 14 10 3 3 14 15 2 1 6 10 11 10 13 9 12 6 8 2 14 10 13 14 15 2 14 12 15 5 3 7 4 12 12 3 10 4 9 11 11 6 2 8 13 6 14 9 2 14 10 11 9 14 7 4 11 15 14 3 4 12 11 7 15 9 6 11 2 2 5 14 3 13 9 2 4 11 6 15 6 13 4 3 13 14 12 8 4 15 14 13 6 4 15 12 9 3 15 9 2 8 14 8 10 10 12 15 14 15 5 6 13 12 6 7 14 9 5 11 15 5 12 10 4 11 7 8 10 7 2 3 3 1 10 6 11 8 8 7 5 3 4 9 7 2 5 11 1 3 15 5 13 11 13 14 2 1 9 3 5 2 11 13 9 14 3 9 10 1 5 11 3 15 11 11 5 11 9 4 3 4 11 3 7 5 1 8 3 14 15 14 1 10 14 7 2 13 8 9 5 12 2 14 11 3 13 2 13 13 4 8 7 6 5 13 7 11 1 4 13 12 4 13 13 10 13 12 15 3 3 10 7 6 2 6 8 11 13 12 13 8 14 10 14 6 1 3 3 3 11 15 6 8 12 3 4 3 14 6 4 14 1 10 9 15 11 6 11 5 10 8 1 13 12 1 4 11 5 5 1 2 10 1 4 12 15 13 10 8 2 5 8 5 8 10 12 9 4 9 7 4 6 9 9 12 1 6 8 11 13 9 5 13 12 11 7 10 4 1 7 8 10 7 12 11 3 2 8 3 2 10 11 13 7 9 12 1 8 5 5 12 13 14 15 14 9 12 3 13 11 13 10 10 4 11 15 11 10 8 15 1 11 13 3 12 5 6 4 9 12 8 15 2 12 3 6 3 5 5 5 8 9 9 15 5 9 9 