P2
33 33
250
4 11 14 13 3 1 2 8 9 10 9 7 13 11 8 1 14 5 3 13 3 10 2 12 5 11 10 8 4 8 6 2 1 15 13 12 4 15 1 15 4 14 14 11 14 10 6 12 15 2 2 4 14 12 3 3 4 7 15 9 9 5 2 2 15 8 11 3 12 15 15 12 4 7 13 3 8 4 2 11 8 8 6 3 11 6 2 4 4 15 4 3 12 1 9 3 5 2 12 13 5 1 7 5 13 5 8 7 15 1 7 7 12 13 8 13 10 3 13 15 15 5 1 15 14 15 6 12 15 3 10 1 6 9 4 12 14 14 3 2 1 14 4 9 10 13 1 2 13 7 7 1 7 3 14 3 15 5 8 2 13 4 1 13 5 12 8 14 7 3 10 4 15 1 9 3 12 14 7 14 4 11 4 8 3 10 4 2 11 12 12 4 12 1 1 4 2 0 15 12 10 8 12 5 9 1 1 9 5 4 12 5 7 1 3 8 5 9 13 11 9 4 15 13 4 3 12 5 5 0 0 13 9 10 9 12 1 5 13 14 13 10 2 15 4 4 5 8 3 7 15 1 15 11 2 5 12 12 13 10 0 0 0 0 6 4 15 9 13 12 1 1 11 12 15 2 15 4 6 14 12 10 13 14 14 2 9 12 5 13 0 0 0 0 0 0 0 0 0 7 9 6 15 8 12 11 14 13 2 8 9 1 14 3 6 14 12 2 7 4 0 0 0 0 0 0 0 0 0 4 15 0 8 13 2 1 14 7 10 7 10 10 8 10 4 8 11 12 9 0 0 0 0 0 0 0 0 0 0 0 0 13 1 4 0 0 5 5 7 14 9 6 13 13 3 3 15 13 0 0 0 0 0 0 0 0 0 0 0 0 0 0 0 11 1 9 9 0 0 0 0 0 0 0 0 0 0 0 0 0 0 0 0 0 0 0 0 0 0 0 0 0 0 0 8 12 13 3 5 7 3 0 0 0 0 0 0 0 0 0 0 0 0 0 0 0 0 0 0 0 0 0 0 0 0 4 6 12 5 2 13 10 3 7 10 0 0 0 0 0 0 0 0 0 0 0 0 0 0 0 0 0 0 0 0 4 9 2 13 14 13 6 5 13 11 12 10 9 2 0 0 0 0 0 0 0 0 0 0 0 0 0 0 0 9 7 2 1 9 8 2 12 4 8 5 4 6 1 15 12 8 4 10 9 7 0 0 0 0 0 0 15 12 3 15 5 2 15 8 10 15 15 6 14 13 5 5 1 5 3 7 12 12 2 13 10 8 8 1 4 8 11 13 2 12 9 2 2 14 12 8 14 14 13 3 10 12 2 5 15 3 14 9 2 15 4 13 11 4 10 5 2 12 15 4 5 10 11 14 1 14 13 3 3 10 2 14 11 6 9 4 1 8 4 15 15 1 12 5 15 15 13 2 11 3 12 13 6 8 9 1 11 8 4 8 11 15 1 14 7 9 11 14 2 14 5 4 12 6 6 3 5 12 7 7 13 13 11 8 4 13 15 6 2 14 4 4 8 9 15 11 6 10 4 8 15 3 2 13 15 5 13 6 8 9 3 8 14 2 5 8 11 7 11 11 2 9 15 5 10 3 8 6 11 3 10 13 6 11 14 2 10 3 7 11 15 5 4 7 1 2 6 7 2 14 3 3 13 1 8 12 2 15 10 10 10 5 10 7 7 1 10 14 3 3 15 12 14 9 8 11 14 4 3 10 5 7 8 3 10 12 11 2 4 4 4 15 3 11 1 10 11 4 15 12 10 3 11 15 6 4 13 5 11 14 7 4 5 9 13 1 8 15 2 12 4 6 2 10 12 11 5 2 13 9 7 8 5 9 12 7 4 2 8 6 2 12 3 9 3 15 15 7 3 6 14 15 11 3 1 12 4 11 7 4 9 9 10 12 13 9 10 5 10 8 12 8 14 11 12 2 10 2 8 11 6 8 12 7 5 8 2 1 13 1 4 12 12 11 10 2 3 5 10 14 6 10 6 15 3 11 4 8 10 2 10 4 7 14 3 13 7 2 1 12 3 1 7 12 7 9 11 7 12 6 4 9 1 12 15 1 14 7 14 3 5 1 11 4 7 2 12 1 7 12 9 1 10 8 15 2 12 3 5 1 4 2 3 1 12 4 7 2 8 10 8 12 14 14 14 15 9 15 2 9 12 10 5 1 8 1 5 5 15 12 8 1 10 4 13 11 7 15 8 4 9 7 10 1 15 4 11 3 14 2 6 15 11 10 3 6 8 7 7 5 10 9 5 8 3 5 14 1 5 8 10 4 7 14 12 3 14 2 1 9 12 13 11 2 9 5 3 5 13 7 14 8 4 10 10 2 10 3 14 3 11 2 9 4 7 14 9 5 5 5 15 8 13 1 11 8 4 3 12 8 13 3 9 8 4 9 10 8 9 13 1 14 14 15 12 14 11 15 10 12 6 12 9 14 