P2
33 33
250
2 12 4 7 5 2 12 1 2 4 1 7 12 11 6 14 3 6 12 13 15 9 4 9 5 14 1 2 13 10 7 6 13 12 6 2 13 1 5 9 8 8 9 10 8 1 9 12 10 9 3 8 9 3 1 5 13 8 8 12 10 11 10 5 9 2 15 11 14 8 3 12 2 3 11 8 8 6 6 8 9 6 9 6 2 13 2 1 5 3 12 9 9 15 2 6 1 8 4 4 4 3 13 14 11 12 2 2 7 1 14 2 7 9 15 7 7 2 9 3 6 8 2 7 1 14 11 4 3 11 3 12 6 8 6 2 2 5 4 11 11 7 9 3 4 15 15 6 15 10 14 4 1 4 13 13 5 7 3 3 4 9 13 12 7 2 15 13 15 9 15 14 11 6 3 2 1 13 1 9 1 7 9 1 7 11 13 6 1 6 12 12 10 14 13 11 14 15 10 8 14 8 6 6 1 9 14 12 8 8 8 10 12 14 3 15 15 2 14 12 1 8 5 3 9 5 10 11 1 9 5 2 4 9 4 14 6 13 1 5 10 6 1 12 12 5 1 4 7 7 7 5 8 8 4 5 9 14 2 11 7 11 13 7 8 11 12 4 9 1 8 12 13 11 12 10 8 4 9 14 11 10 4 9 3 4 10 15 5 11 3 10 6 5 12 13 11 6 9 3 9 13 12 0 12 5 7 13 8 6 1 8 6 3 5 13 12 12 15 1 8 6 1 15 7 4 13 11 11 14 12 3 9 4 2 0 0 0 0 4 3 9 10 11 9 7 5 4 12 1 4 13 14 3 1 11 11 9 2 7 8 8 5 9 1 2 10 13 10 0 0 0 0 14 4 11 8 10 7 12 1 6 5 13 10 4 6 15 10 8 8 9 5 1 11 12 8 5 14 6 1 3 13 0 0 0 0 10 2 14 1 1 12 9 6 12 2 10 4 15 14 10 9 7 2 5 13 3 5 7 12 3 2 12 6 7 0 0 0 0 0 0 2 14 3 5 4 12 6 9 11 10 5 15 9 2 14 6 14 8 3 9 11 12 11 9 9 10 4 12 1 0 0 0 0 0 0 15 4 15 8 2 15 1 4 11 13 9 14 5 12 6 9 11 14 4 6 7 15 4 15 3 14 3 12 0 0 0 0 0 0 0 0 4 3 7 7 6 4 3 6 15 6 1 7 3 13 14 11 12 12 5 8 3 9 12 7 3 11 11 0 0 0 0 0 0 0 0 0 0 0 0 0 0 0 0 0 0 0 0 0 9 15 11 12 15 13 7 8 9 7 10 12 6 2 0 0 0 0 0 0 0 0 0 0 0 0 0 0 0 0 0 0 0 12 11 11 6 8 13 1 15 7 5 1 9 8 4 5 5 3 0 0 0 0 0 0 0 0 0 0 0 0 0 0 0 0 7 8 1 2 10 4 2 1 7 7 10 1 1 14 7 8 11 14 12 8 11 4 0 0 0 0 0 0 0 1 10 14 4 7 4 7 1 4 13 1 11 2 14 10 3 9 13 7 2 15 1 10 5 6 15 11 10 1 9 4 10 9 6 4 9 10 14 6 15 5 12 14 7 11 8 8 7 14 13 5 9 15 1 12 11 14 13 2 3 15 7 12 3 9 2 3 2 1 4 3 5 4 8 4 6 4 5 3 15 7 4 15 5 5 3 2 10 5 13 1 4 13 5 9 3 11 10 12 7 10 1 3 8 11 15 3 9 7 11 2 2 10 2 8 8 13 9 15 5 13 5 13 11 6 8 1 14 1 15 12 1 10 14 9 5 10 5 2 15 8 15 1 5 13 8 1 8 4 7 14 13 1 4 12 1 10 5 8 8 13 14 8 14 7 9 13 14 14 6 10 5 11 15 15 12 1 3 8 6 14 1 12 6 8 6 6 1 15 15 11 5 4 10 12 9 2 13 2 7 12 7 6 3 1 3 1 10 10 8 11 13 9 13 15 11 6 1 15 3 14 2 8 9 2 5 4 13 5 11 3 2 11 10 10 13 10 6 5 3 9 11 12 3 6 6 8 9 9 1 5 4 4 11 3 13 10 5 11 7 14 8 5 6 14 15 12 3 14 1 12 12 1 7 6 2 12 4 1 1 14 5 7 7 2 1 10 12 5 10 14 14 11 2 7 7 7 11 9 12 6 12 10 14 5 14 10 4 13 1 6 10 12 9 14 2 12 4 10 11 9 5 15 3 4 4 3 3 9 3 10 8 3 4 5 9 9 5 11 13 1 8 15 4 7 6 6 7 15 6 11 3 13 3 11 8 13 7 11 7 1 14 4 11 9 7 4 10 12 8 14 1 10 11 8 5 7 2 2 12 12 3 5 12 12 5 7 8 10 1 6 13 1 8 5 14 11 14 8 4 11 12 8 7 7 7 8 4 14 3 6 12 10 3 8 1 4 13 11 6 6 1 5 15 2 13 14 6 7 6 12 3 11 