P2
33 33
250
7 4 4 1 12 11 13 5 6 14 5 13 10 9 10 1 4 12 10 3 12 15 3 6 4 1 6 11 3 1 5 5 1 7 8 1 13 4 10 1 5 10 1 6 2 6 11 3 12 7 9 7 14 3 1 1 7 3 15 5 10 3 15 2 9 10 11 11 8 2 12 6 8 12 14 15 9 10 7 15 9 8 3 7 4 14 3 7 6 6 1 2 6 12 4 9 14 8 10 7 7 8 10 6 7 6 5 13 3 14 11 7 6 12 4 6 1 15 8 12 14 2 8 7 6 8 11 15 13 1 10 11 13 5 7 12 2 12 8 6 1 11 7 7 10 5 13 5 14 11 10 5 6 11 1 3 12 1 15 4 2 3 9 14 14 5 2 5 4 8 11 9 8 15 6 11 14 1 7 8 10 4 4 10 13 14 4 11 2 4 0 13 15 8 10 11 5 13 8 1 7 11 2 10 2 10 12 11 10 8 9 10 2 7 8 8 5 3 14 2 14 0 0 0 0 1 12 4 11 11 7 13 3 1 6 9 1 9 6 13 7 14 11 10 10 11 7 14 1 14 0 0 0 0 0 0 0 0 9 10 1 10 7 13 0 0 0 0 0 0 12 10 4 2 12 7 5 0 0 0 0 0 0 0 0 0 0 0 0 0 7 1 14 13 13 11 2 0 0 0 0 0 0 0 0 0 0 0 0 0 0 0 0 0 0 0 0 0 0 0 0 0 2 14 2 9 3 13 8 7 0 0 0 0 0 0 0 0 0 0 0 0 0 0 0 0 0 0 0 0 0 0 0 5 2 6 3 6 4 12 3 3 7 0 0 0 0 0 0 0 0 0 0 0 0 0 0 0 0 0 0 0 0 15 15 6 5 5 11 7 7 9 13 9 15 14 13 5 4 11 0 0 0 0 0 0 0 0 0 0 0 6 9 1 8 1 2 9 4 12 9 14 2 8 7 6 9 6 3 15 5 4 14 12 9 6 12 9 7 3 2 6 3 8 6 5 4 7 7 11 15 8 1 5 9 12 8 3 8 6 8 12 6 15 11 13 1 10 9 8 5 9 10 5 9 15 4 10 2 4 1 1 12 11 10 10 3 12 11 9 1 12 4 2 11 8 9 9 12 9 7 5 5 3 13 3 15 9 7 5 12 8 13 13 7 8 11 7 2 11 4 2 5 2 7 6 11 13 2 1 1 13 8 13 7 9 11 7 7 8 3 11 9 3 10 15 4 4 7 9 6 12 7 4 7 8 13 3 5 6 1 12 14 3 13 10 6 1 8 9 5 5 14 13 5 8 13 14 15 15 5 6 5 7 15 4 5 5 1 4 9 14 9 13 11 14 8 13 5 8 6 3 10 3 13 8 12 1 14 2 3 4 3 6 8 13 14 3 13 8 12 7 3 12 7 4 12 15 13 4 4 1 1 1 8 14 12 9 15 2 2 9 11 12 14 15 8 10 5 7 6 4 11 10 10 2 3 12 15 5 13 13 5 8 7 5 9 7 12 15 7 1 15 1 2 9 11 3 6 3 8 4 12 11 2 15 2 13 3 15 9 13 7 8 8 13 9 6 10 7 3 9 8 12 9 9 15 1 6 12 13 6 7 15 11 1 3 6 2 3 13 7 12 5 9 15 2 14 10 12 9 3 8 7 4 10 2 5 14 7 9 15 6 10 11 14 3 10 2 11 5 9 9 4 10 8 10 6 12 4 8 14 2 6 11 4 3 2 10 1 14 9 12 6 7 3 7 12 2 8 13 2 14 14 12 5 2 5 3 11 9 13 7 5 14 12 8 1 12 15 11 10 3 12 6 4 13 8 9 12 7 15 1 2 2 1 1 6 14 4 7 10 7 5 14 8 8 8 4 7 15 15 13 15 12 6 15 4 2 1 12 15 7 5 14 4 11 3 11 10 7 3 9 4 1 5 6 10 14 12 11 15 11 6 3 8 12 8 1 2 3 12 8 2 3 1 12 15 9 1 11 15 12 15 8 5 10 13 13 5 11 15 10 11 13 13 1 14 4 9 14 7 6 3 6 6 8 3 11 1 3 8 12 3 5 7 4 4 14 8 12 10 5 13 12 13 15 7 11 13 5 15 8 14 12 13 11 4 10 2 7 12 14 5 5 7 6 4 5 11 2 13 4 5 14 2 12 14 9 9 15 7 1 1 9 6 13 7 8 11 6 10 3 7 3 8 13 8 5 15 1 5 5 1 3 15 9 5 3 14 10 7 1 7 1 1 13 15 3 15 10 15 10 11 3 7 9 1 7 13 1 10 13 1 8 10 6 7 14 11 12 7 10 11 11 2 3 15 7 2 6 7 13 6 2 1 8 12 7 6 9 15 10 3 2 2 9 14 12 11 2 9 8 3 2 8 4 7 13 4 2 11 12 3 10 15 5 3 15 14 8 14 3 15 1 1 15 5 1 15 10 10 9 2 6 14 14 12 4 