P2
33 33
250
11 12 1 6 4 14 3 2 7 5 3 1 5 11 12 1 2 7 7 4 14 10 8 10 4 6 5 4 6 12 10 9 9 10 6 6 5 7 1 3 3 2 13 14 12 12 12 2 14 12 2 4 13 4 15 11 3 1 8 4 3 11 15 2 4 4 3 10 11 2 7 5 6 2 14 13 4 9 1 7 9 13 11 9 15 7 1 2 12 15 5 8 4 10 5 13 2 12 10 6 3 2 10 11 1 11 6 3 7 11 13 2 2 7 9 2 1 8 10 10 3 3 2 14 8 12 9 5 14 7 6 13 4 10 6 13 15 11 6 7 2 5 11 9 10 13 15 13 15 5 12 9 15 14 15 14 2 5 1 14 11 14 4 15 10 6 10 1 5 12 15 11 7 15 10 9 12 14 9 2 8 9 2 6 15 8 7 6 2 6 15 12 3 11 3 1 8 8 13 7 9 8 8 5 6 8 3 15 6 3 4 4 13 15 11 13 10 12 12 9 15 1 6 13 2 4 7 13 10 3 0 6 10 10 3 7 10 14 12 9 9 14 9 6 1 5 1 13 11 3 8 6 7 3 13 14 9 14 9 1 14 3 0 0 10 13 13 1 14 3 9 6 12 14 2 5 10 6 8 5 14 15 14 6 9 5 10 5 5 7 11 15 14 4 0 0 0 9 1 12 5 8 3 13 7 10 9 11 13 4 10 3 7 4 13 11 10 5 3 9 2 9 15 14 10 0 0 0 0 0 14 10 8 1 10 2 12 5 8 15 10 2 4 6 5 15 3 4 12 9 4 12 1 15 2 1 0 0 0 0 0 0 0 5 10 8 11 12 15 3 6 7 6 12 14 11 12 15 5 10 8 6 2 10 12 4 3 0 0 0 0 0 0 0 0 0 12 9 15 8 15 9 8 7 4 5 14 8 1 1 15 13 15 5 8 12 15 15 0 0 0 0 0 0 0 0 0 0 9 2 15 11 10 13 9 2 4 8 1 4 3 7 10 15 8 4 1 6 0 0 0 0 0 0 0 0 0 0 0 0 2 6 15 14 0 6 7 5 5 5 1 1 12 12 4 7 1 9 12 0 0 0 0 0 0 0 0 0 0 0 0 0 7 6 12 15 2 3 0 2 11 15 2 15 14 12 11 5 0 0 0 0 0 0 0 0 0 0 0 0 0 0 0 0 4 1 12 14 5 14 4 0 0 0 0 0 0 0 0 0 0 0 0 0 0 0 0 0 0 0 0 0 0 0 0 13 9 6 1 2 11 6 7 11 3 0 0 0 0 0 0 0 0 0 0 0 0 0 0 0 0 0 0 0 0 0 0 4 2 12 4 1 7 10 11 9 14 4 5 0 0 0 0 0 0 0 0 0 0 0 0 0 0 0 0 0 0 0 8 1 3 8 8 5 15 8 7 13 15 15 7 5 14 0 0 0 0 0 0 0 0 0 0 0 0 0 0 0 0 14 8 6 14 8 3 1 11 6 7 1 7 4 9 10 3 6 9 6 0 0 0 0 0 0 0 0 0 0 0 0 6 10 8 10 2 14 5 10 4 9 2 11 14 15 12 5 1 5 15 4 2 8 1 4 0 0 0 0 3 12 7 8 4 3 13 5 8 14 2 3 3 8 12 15 13 8 2 12 5 14 9 1 2 12 2 12 12 10 3 5 15 14 11 12 8 14 13 3 8 7 8 7 5 9 6 15 7 2 3 2 10 6 9 10 12 8 4 5 14 4 7 2 5 8 5 7 14 9 3 10 9 6 5 11 12 1 5 4 15 13 4 12 3 10 2 11 1 7 11 4 8 11 10 13 5 12 11 1 6 8 8 14 11 4 9 10 11 10 5 11 1 1 3 12 9 13 8 7 3 13 15 11 1 11 11 8 15 7 6 12 9 4 15 11 9 6 10 7 2 15 8 7 15 8 6 7 11 12 3 5 3 1 11 9 8 11 2 2 4 12 7 8 8 8 7 1 2 2 7 15 5 12 9 1 1 9 10 7 13 12 13 7 7 9 1 15 4 15 11 1 10 5 12 9 9 6 14 8 5 6 2 9 14 11 12 4 15 15 7 13 13 5 4 3 6 7 2 5 9 5 1 1 3 15 5 14 3 5 6 15 12 4 14 10 8 15 7 9 1 5 4 9 13 4 3 15 7 5 7 8 7 7 14 14 3 1 15 3 8 15 5 10 6 5 10 5 13 10 9 6 6 4 10 3 15 12 3 2 4 3 2 7 14 4 1 12 2 3 1 14 2 7 4 6 14 11 6 15 14 9 14 1 1 15 2 12 2 14 8 5 2 10 12 6 4 8 7 13 13 2 7 1 6 1 11 6 10 15 9 7 10 8 14 3 3 2 5 2 13 4 6 1 12 8 11 3 14 6 3 4 4 9 8 3 2 2 1 15 10 6 10 5 5 6 3 2 11 8 6 9 4 2 4 6 8 6 10 13 15 