P2
33 33
250
8 8 7 4 8 1 8 14 6 14 13 14 11 3 4 7 11 6 12 13 9 7 5 3 13 4 2 14 9 1 1 11 8 6 12 7 2 12 4 4 11 9 9 9 10 9 9 5 6 13 11 8 9 6 12 8 5 13 15 1 9 1 9 12 14 2 4 2 4 6 4 10 4 13 11 12 4 12 12 5 10 9 13 5 10 4 13 10 12 11 4 4 6 1 6 3 13 15 6 8 7 15 15 4 9 1 5 14 5 2 15 14 7 4 6 6 8 14 11 14 3 9 10 12 5 15 8 4 7 9 2 12 15 14 3 1 11 8 11 1 12 1 10 5 10 2 11 13 11 15 9 6 4 6 6 2 3 14 9 12 3 13 2 3 9 3 3 3 13 9 3 11 3 12 14 3 5 8 2 12 8 13 7 9 7 14 15 3 14 10 3 14 12 1 15 7 15 11 1 13 3 12 7 7 9 11 11 13 7 10 2 14 11 14 9 13 2 2 2 11 14 2 15 9 13 14 3 9 5 12 3 6 2 4 9 5 9 11 6 7 6 3 4 13 15 14 9 14 1 5 5 7 12 15 4 3 6 7 8 7 12 14 11 6 7 6 10 11 6 1 14 4 5 8 10 14 3 11 3 15 4 7 13 13 2 5 9 4 10 9 6 8 14 11 12 12 8 8 14 12 14 14 9 14 13 14 11 7 9 12 9 8 8 14 2 6 14 13 15 9 9 9 4 13 13 1 12 13 8 12 12 4 2 7 1 10 2 10 2 9 9 11 7 14 15 3 8 7 12 0 0 0 0 0 0 0 0 0 2 7 1 13 14 13 6 1 11 12 6 4 11 11 3 5 2 9 0 0 0 0 0 0 0 0 0 0 0 0 0 0 0 0 0 0 0 0 6 6 8 7 15 14 14 4 12 8 2 0 0 0 0 0 0 0 0 0 0 0 0 0 0 0 0 0 0 0 0 0 0 5 5 11 10 7 6 12 7 12 0 0 0 0 0 0 0 0 0 0 0 0 0 0 0 0 0 0 0 0 0 0 0 0 11 12 1 1 1 13 7 0 0 0 0 0 0 0 0 0 0 0 0 0 0 0 0 0 0 0 0 0 0 0 0 0 0 14 2 11 6 7 13 0 0 0 0 0 0 0 0 0 0 0 0 0 0 0 0 0 0 0 0 0 0 0 0 0 0 0 14 3 8 2 2 1 0 0 0 0 0 0 0 6 1 11 7 3 10 12 9 7 3 6 15 6 13 9 9 14 12 10 1 7 4 8 12 14 7 14 0 0 13 5 5 4 3 12 4 9 5 6 3 3 14 2 8 5 4 7 6 15 3 15 13 10 8 4 9 8 11 7 15 1 12 12 8 1 10 1 10 15 15 1 2 9 8 10 4 1 7 12 2 7 14 4 14 3 2 15 12 4 6 9 14 4 7 4 13 5 9 9 8 14 12 2 7 5 10 10 2 6 3 15 15 6 7 13 2 3 7 7 9 5 7 12 10 13 15 13 12 2 2 13 3 8 15 4 14 14 5 5 8 6 12 5 11 8 4 11 5 9 3 5 8 11 1 13 7 13 12 15 15 12 6 3 12 1 12 2 8 8 2 15 14 5 14 2 9 14 5 11 9 4 12 2 1 4 9 15 6 8 11 4 8 8 1 4 14 15 5 1 3 8 4 8 6 8 12 12 4 7 8 9 11 14 4 12 1 8 1 11 7 2 8 3 12 5 4 13 1 10 3 15 1 4 9 12 14 5 7 15 14 10 2 12 1 10 3 4 10 11 4 6 2 14 7 7 11 13 1 11 3 15 13 1 11 5 8 7 2 14 1 15 9 14 7 7 12 3 10 12 9 7 6 15 6 1 8 8 5 5 14 11 5 6 3 2 7 3 7 9 2 14 9 10 15 6 1 5 12 9 15 10 3 6 13 13 14 12 7 8 13 3 2 3 6 14 13 5 1 12 12 14 2 3 11 8 14 10 5 9 4 10 8 9 14 3 13 5 8 13 5 15 9 14 8 15 5 6 10 7 9 14 6 10 3 9 9 13 14 6 1 12 10 14 14 14 6 3 11 14 5 12 11 8 6 7 1 10 2 9 1 1 6 8 2 12 8 13 4 3 14 10 11 3 5 14 7 10 9 15 3 9 9 10 7 14 15 2 7 4 13 4 7 14 2 4 3 10 12 7 6 10 10 1 2 15 2 9 9 6 1 4 11 13 9 10 9 11 8 15 14 7 8 4 9 13 8 12 14 15 7 10 10 6 5 5 13 2 3 11 13 8 7 14 6 11 4 3 1 12 9 11 1 8 11 9 6 5 10 12 3 6 11 7 12 2 9 14 11 6 15 10 4 14 9 11 10 9 14 3 8 7 11 3 5 2 7 14 2 1 12 1 14 13 7 10 11 6 12 6 8 5 3 4 15 3 4 6 9 7 3 3 5 4 6 8 11 14 1 