P2
33 33
250
15 13 8 2 1 8 12 3 3 9 1 1 12 15 15 14 10 6 2 9 15 15 5 8 7 4 15 8 9 9 13 6 5 10 7 3 9 5 8 9 7 6 13 3 5 12 10 8 9 8 9 3 9 1 8 3 11 12 2 5 14 9 5 8 13 7 15 8 6 3 8 3 5 1 3 6 15 12 3 1 4 9 1 15 9 10 7 14 7 15 1 7 6 12 13 8 2 5 11 15 9 14 2 13 8 14 11 15 8 9 11 6 10 4 2 8 11 10 15 2 1 12 2 14 14 8 8 5 15 8 8 5 14 1 1 8 9 5 8 7 14 9 1 6 12 8 8 7 6 3 15 12 15 8 6 15 11 15 9 7 11 5 1 1 12 1 12 4 4 7 5 12 9 14 11 8 7 5 12 4 13 9 7 13 12 3 12 7 11 3 8 1 15 4 6 3 2 1 0 0 5 4 8 14 9 9 15 14 15 7 12 11 9 12 13 11 11 2 8 14 5 11 6 1 11 10 6 8 7 15 12 0 0 0 6 11 14 8 3 7 3 7 15 1 4 6 4 13 8 2 2 5 13 13 4 11 13 2 5 6 10 2 0 0 0 0 0 0 0 4 6 11 13 10 7 5 3 2 4 15 9 11 15 12 7 15 4 4 11 8 14 1 4 0 0 0 0 0 0 0 0 0 0 0 2 10 10 5 1 9 7 2 14 12 12 9 2 8 6 9 15 6 2 15 0 0 0 0 0 0 4 0 0 0 0 0 0 0 0 0 12 3 8 8 4 1 7 15 2 1 11 7 14 2 0 0 0 0 0 0 0 0 0 1 12 5 0 0 0 0 0 0 0 0 0 0 0 0 0 0 0 0 0 0 0 0 0 0 0 0 0 0 0 0 3 9 10 3 6 12 0 0 0 0 0 0 0 0 0 0 0 0 0 0 0 0 0 0 0 0 0 0 0 0 0 0 12 14 9 5 15 12 15 9 6 0 0 0 0 0 0 0 0 0 0 0 0 0 0 0 0 0 0 0 0 0 0 2 12 11 9 1 3 6 15 9 10 14 13 15 7 0 0 0 0 0 0 0 0 0 0 0 0 0 0 0 0 12 14 3 6 8 4 12 8 14 3 14 5 8 9 3 5 10 10 5 12 15 6 0 0 0 0 0 0 14 13 10 1 12 6 13 3 4 2 7 13 3 10 15 10 4 4 8 2 15 8 5 8 15 5 10 7 10 2 11 2 10 3 13 1 13 7 12 4 4 8 2 6 15 10 2 13 15 11 3 4 12 11 14 11 5 6 10 10 9 1 5 14 7 11 5 1 10 5 3 13 6 9 2 8 7 12 1 9 14 13 4 3 5 4 13 5 14 15 1 6 3 1 4 5 13 2 4 3 11 13 14 3 11 1 14 4 11 14 10 14 8 5 9 15 14 14 9 12 7 5 4 7 1 1 7 6 7 3 11 11 2 10 3 13 3 11 13 9 9 7 5 15 2 7 7 9 14 4 7 3 15 4 7 8 9 8 6 12 2 10 7 15 5 1 12 8 12 2 10 8 10 2 10 8 12 7 14 15 15 10 6 13 2 6 5 15 5 4 3 15 1 7 5 2 5 3 15 14 10 12 11 15 13 11 12 13 14 9 4 12 1 15 13 9 15 4 2 5 6 4 6 5 10 15 1 12 11 3 12 10 10 3 11 3 10 10 12 6 13 14 14 7 4 13 8 8 3 6 4 7 11 10 1 10 3 12 9 2 15 8 8 15 9 10 4 10 3 8 1 13 13 15 9 10 3 4 15 13 8 8 8 8 1 4 9 10 3 14 15 13 11 5 10 6 10 7 15 2 2 1 7 3 14 3 11 15 7 5 7 3 1 6 5 11 12 7 10 1 1 1 9 15 11 1 1 11 4 7 12 9 3 5 7 2 9 2 6 11 1 6 10 1 6 8 14 1 6 11 12 4 8 3 3 3 8 10 5 13 3 10 3 14 8 15 10 12 7 2 5 8 15 1 15 7 3 8 14 5 12 8 3 9 8 12 5 8 13 4 4 1 15 13 13 4 8 5 10 9 11 2 11 13 8 8 7 11 5 6 12 1 6 11 8 15 14 12 12 11 5 8 1 4 2 4 4 14 10 14 7 13 2 10 13 7 5 5 5 8 3 3 11 7 12 6 10 3 14 10 9 14 3 1 11 7 1 8 12 3 6 9 14 5 5 11 15 12 6 4 7 14 5 2 1 14 5 10 7 15 8 11 7 13 12 8 8 3 4 14 13 2 10 15 8 10 1 5 2 1 12 5 5 1 13 2 5 4 6 9 7 3 14 3 6 6 9 8 11 8 9 4 4 8 11 11 14 12 11 15 14 7 15 7 15 1 12 9 14 1 5 15 2 10 11 4 3 7 12 14 5 7 1 11 14 10 8 2 1 14 5 13 5 6 2 4 8 12 13 3 6 8 4 10 