P2
33 33
250
6 15 14 3 3 11 10 14 2 10 13 15 6 7 12 4 4 11 10 12 2 5 6 5 15 1 11 1 8 6 11 7 13 3 5 14 9 7 8 6 5 9 4 11 5 3 9 2 11 7 14 4 8 6 15 1 1 5 8 9 1 2 8 1 2 9 8 13 3 13 9 11 14 3 15 2 14 14 9 1 10 2 3 12 4 1 10 10 15 11 13 12 1 15 9 15 7 3 10 8 7 5 14 6 14 12 6 14 4 11 2 11 3 1 3 2 12 5 14 6 13 13 15 5 15 12 11 10 1 15 0 0 11 8 5 1 10 2 11 12 11 7 8 13 1 12 13 14 15 12 3 2 1 15 1 1 12 13 4 13 5 0 0 0 0 7 6 4 4 4 1 1 2 2 11 3 12 10 4 6 1 13 8 2 3 2 4 14 8 15 12 4 0 0 0 0 0 8 6 3 9 9 2 5 4 2 6 15 1 9 5 15 1 9 15 7 5 15 8 5 5 11 0 0 0 0 0 0 0 2 1 15 13 13 7 3 8 7 15 2 2 2 7 6 4 12 4 6 1 15 0 0 0 0 0 0 0 0 0 0 1 8 14 7 0 0 0 0 0 0 0 0 0 0 0 0 0 0 0 0 0 0 0 0 0 0 0 0 0 0 0 0 13 12 3 14 10 0 0 0 0 0 0 0 0 0 0 0 0 0 0 0 0 0 0 0 0 0 0 0 0 0 0 8 11 14 1 7 15 3 0 0 0 0 0 0 0 0 0 0 0 0 0 0 0 0 0 0 0 0 0 0 0 7 11 7 5 9 4 13 4 11 14 2 13 4 5 0 0 0 0 0 0 0 0 0 0 0 0 0 0 0 0 10 3 14 13 3 7 1 6 12 13 15 5 2 11 3 5 6 7 4 15 15 1 1 0 0 0 0 0 1 14 2 4 5 2 10 15 11 10 5 8 12 10 8 3 6 15 7 1 9 5 5 2 1 3 8 11 8 12 11 4 1 4 1 13 1 8 3 10 8 4 15 3 14 14 10 13 4 15 15 14 12 3 11 14 10 8 12 1 8 3 4 1 4 7 12 4 10 10 9 2 2 1 3 15 8 13 15 1 15 2 8 3 11 1 11 1 15 4 3 15 10 4 7 15 5 15 14 11 12 3 13 6 5 15 5 5 10 14 5 9 4 14 13 2 10 1 8 12 7 11 4 14 5 5 14 13 8 15 13 14 4 14 7 14 9 12 2 4 13 3 11 5 15 1 6 8 10 10 4 12 2 9 15 2 8 5 5 8 1 9 1 4 8 7 7 10 2 1 5 10 8 10 10 3 6 12 11 11 14 5 3 4 4 4 8 8 9 1 13 15 10 3 15 10 8 8 8 12 5 3 3 15 12 9 1 10 7 10 2 15 15 1 8 2 2 2 3 9 12 12 10 4 4 6 13 9 3 2 10 13 14 14 4 8 15 7 15 1 13 5 6 7 3 12 9 14 3 14 6 10 9 5 14 11 11 2 7 3 15 4 2 4 3 6 3 6 9 11 14 8 14 9 10 15 15 3 8 6 10 3 3 9 6 9 6 14 9 11 15 4 13 6 2 7 2 5 15 11 12 10 10 8 4 8 14 8 14 2 8 4 5 8 15 8 4 12 3 2 13 3 12 6 9 4 3 2 7 14 9 9 15 13 5 3 7 6 6 8 7 4 2 7 15 7 2 13 6 6 9 10 5 1 11 6 2 4 3 7 6 8 3 15 5 1 8 9 12 7 5 13 5 7 10 8 1 7 9 9 13 3 4 14 6 8 3 3 13 7 4 15 5 1 14 15 5 2 4 11 14 3 13 15 7 2 4 9 2 2 5 4 12 14 7 1 11 5 14 2 10 13 2 8 10 12 8 12 15 3 14 10 15 5 14 11 9 3 4 4 14 10 15 7 10 2 8 13 3 1 12 14 14 13 5 4 8 8 3 10 13 4 9 9 12 12 1 11 14 10 15 10 10 5 2 5 14 11 9 7 14 5 15 9 7 7 3 1 7 12 12 10 13 10 15 8 9 1 11 2 13 10 13 4 13 6 4 10 14 8 10 4 13 6 4 9 9 2 4 13 8 15 10 4 14 5 8 10 11 8 10 14 6 12 3 7 1 3 5 1 1 5 5 3 10 10 8 6 12 2 4 3 5 12 6 15 4 14 14 9 1 7 5 5 6 15 15 14 15 1 13 7 7 7 15 10 12 14 4 10 12 6 6 11 8 11 7 7 13 12 14 13 2 11 13 7 6 6 10 14 7 2 3 3 10 8 7 8 8 11 11 15 15 3 12 7 2 5 1 15 15 10 4 8 1 2 12 14 2 1 12 5 3 9 10 7 3 13 5 9 5 11 10 6 4 3 7 8 9 15 13 13 6 14 7 13 15 11 12 10 1 11 2 2 14 12 1 12 13 8 1 15 8 7 8 10 3 4 