P2
33 33
250
1 12 10 4 9 8 7 8 10 4 1 7 10 1 10 14 2 2 2 10 5 4 11 6 13 13 7 5 8 2 11 1 15 3 14 6 6 11 4 10 6 11 5 14 12 12 12 1 13 8 9 15 8 7 9 7 1 12 3 10 4 8 1 6 3 2 9 12 12 5 11 6 6 7 10 1 6 5 3 7 5 14 12 12 13 4 10 10 6 15 10 9 4 8 14 5 15 5 2 10 4 4 9 12 15 13 5 3 8 9 1 14 12 13 3 1 9 7 7 10 3 8 15 2 5 14 12 9 3 10 8 1 8 11 4 5 5 15 6 8 1 7 14 11 1 15 11 3 4 6 2 6 14 11 13 11 15 14 15 11 5 4 14 2 11 12 7 11 11 1 10 5 13 7 10 5 15 10 4 7 15 4 5 3 1 5 11 3 12 7 6 15 15 12 6 8 3 13 13 11 10 1 8 15 9 3 3 10 14 5 10 11 13 2 12 14 3 5 10 14 8 13 12 14 6 8 9 7 12 1 7 7 8 8 13 14 14 8 15 14 11 15 8 8 2 14 5 2 4 9 10 15 9 9 10 13 6 4 13 3 12 4 7 10 1 7 6 14 7 11 10 13 6 7 14 8 5 6 12 7 10 8 6 9 2 6 5 10 2 2 15 6 6 10 9 9 6 13 9 6 14 7 6 8 8 13 6 4 5 14 4 6 9 9 6 7 10 7 4 7 9 10 5 6 1 2 7 15 13 5 13 5 9 12 5 1 10 7 4 7 3 1 3 11 6 13 13 5 13 4 5 3 3 13 2 3 10 5 3 2 3 9 14 1 11 9 3 7 12 4 13 4 7 7 2 1 8 9 12 8 9 2 4 2 14 11 15 3 7 8 2 7 5 9 2 7 6 15 1 7 11 12 4 3 5 12 15 8 11 5 12 15 1 8 11 5 8 7 3 3 4 10 2 12 8 6 5 11 9 3 4 9 12 12 4 15 3 9 11 3 15 13 13 2 8 11 11 1 15 1 3 8 13 11 1 2 12 13 3 6 11 2 3 6 9 11 15 9 11 2 5 2 12 5 7 5 15 7 11 3 4 12 3 7 5 6 2 5 11 15 2 12 13 11 5 5 7 6 2 15 6 2 1 14 4 14 9 3 10 14 7 3 14 13 15 11 14 8 6 6 7 5 7 10 8 12 0 0 8 13 9 8 9 8 7 1 14 6 7 15 11 8 15 5 2 5 15 12 7 14 6 5 11 9 13 12 0 0 0 0 0 11 1 0 7 6 10 11 11 9 13 8 9 12 3 12 10 15 8 8 4 15 2 11 4 14 0 0 0 0 0 0 0 5 15 2 15 0 0 0 6 1 2 14 15 6 10 6 15 3 9 5 2 7 0 0 0 0 0 0 0 0 0 0 15 13 2 1 4 14 13 0 0 0 0 0 0 0 0 0 0 0 0 0 0 0 0 0 0 0 0 0 0 0 0 7 7 9 6 5 12 14 1 10 11 14 0 0 0 0 0 0 0 0 0 0 0 0 0 0 0 0 0 0 0 0 1 5 1 11 2 6 12 6 1 4 13 15 4 3 15 0 0 0 0 0 0 0 0 0 0 0 0 0 0 0 12 1 3 12 7 3 4 6 9 3 4 11 4 10 10 2 13 3 14 5 2 4 15 0 0 0 0 6 7 14 9 5 3 9 4 12 6 12 9 9 1 14 14 7 10 13 2 8 11 10 13 1 10 14 7 9 11 15 13 9 15 11 5 7 6 10 10 2 10 6 10 13 7 15 13 15 4 2 2 8 6 11 11 6 12 1 3 10 3 14 14 14 10 1 4 7 11 7 12 14 12 2 14 5 9 8 10 8 1 2 4 12 14 1 11 12 3 12 13 4 13 6 1 2 13 9 7 3 1 15 10 10 7 1 15 9 8 12 11 8 2 15 5 2 10 8 10 7 4 3 9 14 15 12 12 7 5 3 13 15 1 13 5 13 5 5 5 5 1 13 2 8 12 14 11 6 11 3 1 12 6 7 13 3 10 13 2 9 8 4 4 14 6 15 7 15 8 5 13 7 2 15 11 5 3 15 5 12 3 5 11 1 8 15 3 13 9 4 9 13 12 10 15 14 13 9 11 7 12 10 10 8 10 13 4 3 4 2 8 14 14 1 2 7 10 5 3 3 7 12 1 1 14 8 7 5 1 5 4 14 10 3 1 15 10 15 10 6 11 11 11 2 14 7 4 3 11 14 10 5 2 3 14 14 13 5 15 12 2 14 2 9 4 2 15 11 13 13 2 14 12 15 11 11 9 12 14 1 10 1 14 15 3 11 4 6 7 7 4 2 13 3 12 14 6 14 12 6 3 11 2 4 14 15 9 2 11 12 10 2 12 3 3 10 3 13 6 9 12 2 7 2 12 5 1 6 5 11 2 5 1 15 14 11 14 14 9 9 3 9 9 5 14 