P2
33 33
250
15 8 6 7 5 1 1 3 9 10 1 9 3 5 10 11 5 3 8 2 10 10 2 12 1 12 5 9 9 3 5 9 6 5 2 8 9 3 11 10 4 14 1 3 14 13 6 14 10 8 2 13 12 4 7 7 15 5 2 5 4 9 10 10 9 6 2 9 6 3 5 8 15 5 10 3 14 3 12 13 3 12 13 8 3 11 14 1 6 4 3 12 14 3 6 11 13 11 10 12 9 14 12 4 8 11 11 2 12 4 5 11 9 13 7 8 10 9 9 6 2 15 5 10 7 15 1 14 10 10 14 12 12 1 11 9 14 12 4 5 2 11 6 4 8 5 15 8 9 14 14 3 13 14 9 15 6 8 5 12 11 12 15 13 5 3 1 9 11 5 12 6 10 9 5 2 3 6 1 10 2 15 6 15 8 6 10 10 5 3 5 12 14 15 5 5 12 3 4 5 12 13 15 9 14 15 14 1 11 5 7 10 15 2 5 14 3 8 2 9 7 8 6 7 1 4 13 13 10 9 13 6 0 1 5 7 2 10 1 1 8 10 3 7 4 15 9 4 6 7 5 6 14 10 3 15 10 9 4 14 3 2 10 9 5 0 0 0 15 3 13 1 1 10 2 4 6 6 14 5 10 1 10 6 11 3 12 12 5 2 1 14 6 8 13 12 3 11 0 0 0 0 9 11 6 1 4 14 10 10 1 9 9 8 13 7 7 1 5 14 8 6 11 15 15 2 3 2 9 15 13 9 0 0 0 0 0 1 6 10 10 7 2 14 15 9 1 6 3 3 10 11 5 3 11 7 8 1 2 13 9 1 0 14 9 5 0 0 0 0 0 0 8 14 1 14 8 1 15 11 12 4 6 9 2 7 10 9 13 8 10 11 2 0 0 0 11 5 5 10 0 0 0 0 0 0 0 0 15 4 2 9 3 1 2 9 4 1 3 9 9 15 0 0 0 0 0 0 0 14 11 13 14 12 0 0 0 0 0 0 0 0 0 0 0 0 0 0 0 0 0 0 0 0 0 0 0 0 0 0 0 0 7 8 3 10 8 1 0 0 0 0 0 0 0 0 0 0 0 0 0 0 0 0 0 0 0 0 0 0 0 0 0 0 3 13 8 7 2 4 5 10 6 0 0 0 0 0 0 0 0 0 0 0 0 0 0 0 0 0 0 0 0 0 0 0 1 8 5 6 15 15 8 10 4 12 12 1 0 0 0 0 0 0 0 0 0 0 0 0 0 0 0 0 0 0 0 13 10 6 1 13 6 13 11 3 15 10 5 5 3 7 14 3 0 0 0 0 0 0 0 0 0 0 0 0 0 3 8 10 7 9 9 15 2 3 9 8 10 4 10 12 15 7 10 13 11 4 15 1 2 0 0 0 0 0 7 6 13 9 3 7 5 3 14 14 1 5 5 7 4 3 2 7 8 7 15 9 3 4 2 9 13 12 9 9 2 12 9 4 8 4 1 1 7 1 5 8 11 13 11 7 13 7 9 14 10 12 12 9 4 4 7 13 9 15 11 5 9 11 11 1 7 3 9 7 14 8 13 14 6 3 12 14 3 10 11 8 2 9 1 15 3 13 13 15 9 14 9 6 1 12 4 12 5 13 11 10 10 3 11 9 13 3 11 14 12 3 1 14 6 2 5 14 8 2 5 14 7 9 6 6 6 15 8 12 12 12 6 1 2 1 9 12 9 11 1 7 1 3 9 10 9 2 7 1 1 8 10 15 9 4 11 15 13 9 7 15 4 5 5 8 6 7 9 8 8 12 1 11 11 5 8 2 3 10 14 13 15 6 12 7 12 12 9 2 14 4 6 12 9 13 8 15 14 10 2 13 4 2 7 11 11 9 15 3 2 9 12 14 1 9 12 5 6 4 5 1 8 4 14 10 1 3 8 7 12 14 15 1 13 3 5 15 1 10 2 7 7 4 6 9 11 5 8 8 8 14 7 6 3 11 13 3 11 14 2 14 14 14 4 2 11 10 7 15 14 12 13 7 12 7 3 8 10 8 4 14 7 9 11 4 1 13 9 15 4 9 8 2 13 2 1 14 13 3 13 1 3 9 15 6 13 2 11 8 15 8 2 15 1 4 9 8 1 13 9 3 11 10 1 1 10 7 5 7 10 6 3 9 2 5 6 9 10 11 7 11 13 10 7 7 2 5 10 12 13 7 13 4 15 5 9 12 10 3 5 7 11 15 4 11 5 12 14 3 15 15 12 5 5 2 1 12 10 9 12 9 11 10 10 7 13 7 15 13 2 9 8 13 9 6 7 13 13 11 15 13 4 6 8 11 12 7 7 11 2 11 2 7 14 5 13 1 9 1 11 10 6 11 14 7 6 9 15 8 1 14 13 6 14 13 6 13 2 9 7 6 9 2 11 15 5 10 14 15 10 4 15 14 5 7 3 8 8 15 14 9 12 11 6 4 3 2 14 5 8 1 5 