P2
33 33
250
11 6 6 9 12 2 1 10 9 4 1 5 10 5 9 8 11 3 11 11 12 4 8 11 9 9 4 2 5 3 10 11 12 14 7 1 9 2 6 13 15 7 5 5 7 9 8 7 1 4 4 7 13 9 7 11 5 4 9 6 13 13 2 6 2 3 3 3 5 13 1 10 6 7 6 5 14 9 5 8 14 7 1 8 15 1 10 9 7 8 10 4 14 14 5 1 5 12 4 13 4 2 12 13 12 11 3 3 7 14 14 0 0 0 0 0 0 3 5 12 7 9 5 10 15 4 4 5 4 6 2 9 5 4 13 10 14 3 0 0 0 0 0 0 0 0 0 0 0 0 0 0 0 0 0 0 10 8 2 12 5 14 5 8 12 5 7 8 0 0 0 0 0 0 0 0 0 0 0 0 0 0 0 0 0 0 0 0 0 0 0 0 3 15 1 11 15 2 4 0 0 0 0 0 0 0 0 0 0 0 0 0 0 0 0 0 0 0 0 0 0 0 0 0 0 0 0 3 7 11 7 0 0 0 0 0 0 0 0 0 0 0 0 0 0 0 0 0 0 0 0 0 0 0 0 0 0 0 0 0 0 0 4 8 0 0 0 0 0 0 0 3 2 7 12 10 8 4 14 3 2 15 4 1 9 14 10 0 0 0 0 0 0 0 0 0 10 0 0 0 11 3 1 3 13 9 4 4 6 5 8 8 13 4 1 11 12 2 7 13 4 15 3 13 0 0 0 0 0 7 0 14 12 2 14 7 9 7 4 4 1 11 2 2 10 8 12 13 10 11 6 8 3 8 7 6 4 11 6 0 0 0 7 10 15 12 13 9 8 10 3 7 4 4 9 3 9 3 13 4 9 15 7 10 12 3 5 4 10 10 4 8 7 10 13 14 6 14 14 15 10 11 9 3 5 4 5 9 11 5 14 14 5 1 7 8 2 4 8 8 5 13 9 14 3 13 6 13 6 4 9 11 5 15 11 12 7 3 1 15 4 12 10 12 10 1 4 14 13 7 5 11 8 5 15 3 7 2 15 10 6 8 9 5 9 1 15 3 15 11 2 6 10 14 15 8 7 13 2 11 10 2 7 14 15 3 12 5 12 1 14 5 5 6 11 14 14 6 12 12 7 5 12 10 9 13 11 2 9 4 5 5 6 2 12 15 3 14 5 8 4 1 6 1 13 4 9 5 1 12 12 10 8 11 5 8 13 10 11 11 14 15 2 12 10 8 14 14 2 14 9 13 15 15 10 12 10 1 11 1 9 5 15 5 3 11 14 1 2 1 6 9 10 6 8 15 15 15 7 2 13 9 12 14 8 4 5 1 6 3 11 12 14 13 12 4 9 5 9 4 14 13 7 1 5 8 2 4 9 1 13 9 15 10 7 12 3 6 10 5 1 14 12 4 6 4 3 14 14 3 7 11 15 6 10 9 7 14 15 3 2 6 7 7 13 12 15 9 4 1 15 6 6 8 13 1 1 3 13 14 15 10 14 10 13 5 3 4 13 3 11 12 13 6 1 11 11 10 4 14 8 12 10 5 14 5 2 1 8 7 14 3 1 5 13 2 6 9 14 6 12 11 6 14 13 2 13 5 6 4 15 8 6 2 9 14 13 15 9 9 8 2 12 7 5 7 2 14 2 5 12 13 11 3 7 8 1 13 11 14 15 9 1 5 6 4 10 5 11 1 4 5 4 15 15 7 6 2 4 15 2 11 11 8 1 5 4 12 2 8 6 15 9 1 8 9 1 6 5 1 6 9 8 15 15 5 10 12 14 1 1 7 9 8 3 3 8 11 4 10 3 1 3 8 5 12 6 14 6 11 2 3 3 3 1 6 11 9 9 6 8 6 10 12 8 14 5 11 8 12 8 14 15 11 11 6 2 10 5 13 13 3 10 3 8 6 1 2 15 7 10 5 3 12 14 14 12 5 9 15 2 4 14 11 11 5 4 1 6 2 3 12 1 11 6 5 15 11 7 14 3 5 13 5 12 13 4 2 13 2 14 8 7 9 9 8 7 10 14 11 10 3 13 2 1 8 6 10 15 7 15 1 14 5 4 3 15 7 15 14 14 7 13 9 13 1 13 8 5 4 13 2 5 12 14 14 13 14 9 4 1 12 2 10 3 4 5 4 2 12 14 4 10 12 8 3 7 3 6 3 6 14 3 1 11 9 11 4 9 5 6 3 1 7 3 6 10 8 1 15 8 5 15 8 14 14 1 6 11 14 3 1 8 6 13 2 1 2 12 2 14 12 4 9 5 1 10 7 15 15 7 9 12 5 6 7 13 14 1 10 12 9 1 2 5 13 12 13 9 2 13 14 3 1 4 14 5 2 12 14 2 10 6 5 11 1 12 1 11 14 4 15 9 13 8 14 1 14 1 9 5 6 11 14 6 13 10 12 1 8 10 4 4 11 10 8 6 14 10 1 2 4 4 14 5 4 7 12 4 