P2
33 33
250
6 2 2 5 2 12 13 6 11 11 3 11 10 8 7 6 12 11 5 3 4 14 15 8 14 15 9 14 6 3 11 1 14 12 15 3 13 12 8 2 11 10 3 3 7 9 5 5 5 4 10 11 5 13 15 12 9 3 2 4 13 6 10 11 6 4 1 1 14 2 6 10 14 14 7 13 14 12 5 4 4 14 10 12 2 4 12 10 2 12 6 8 8 10 8 4 15 5 9 11 12 1 12 11 11 15 6 3 2 5 4 9 7 5 14 8 15 11 7 14 13 13 8 2 3 14 9 15 6 9 8 4 11 12 6 11 9 12 5 4 2 7 11 9 15 10 11 9 7 7 3 2 9 10 9 14 9 11 13 9 4 11 4 15 14 9 11 9 11 11 12 5 6 6 6 7 8 10 14 2 5 6 7 7 9 3 8 3 5 11 14 11 3 13 14 8 15 3 0 9 5 6 15 8 7 9 12 15 6 5 2 4 1 12 10 12 11 9 14 4 3 13 13 15 6 12 5 13 6 8 0 0 0 8 6 11 5 15 7 1 7 8 12 10 12 4 7 8 5 9 5 15 11 8 2 3 2 2 12 4 2 13 7 0 0 0 0 0 0 6 13 3 6 7 14 14 13 6 1 7 6 10 5 15 8 2 13 14 15 8 6 2 2 9 1 0 0 2 0 0 0 0 0 0 10 6 5 10 10 11 8 12 1 5 13 10 13 8 6 6 10 3 7 7 6 14 0 0 0 0 3 2 5 0 0 0 0 0 0 0 15 7 8 5 14 3 3 12 8 3 3 11 15 3 12 8 0 0 0 0 0 0 1 13 13 12 15 10 0 0 0 0 0 0 0 0 0 0 0 0 0 0 0 0 0 0 0 0 0 0 0 0 0 3 8 4 8 12 3 13 11 12 15 0 0 0 0 0 0 0 0 0 0 0 0 0 0 0 0 0 0 0 0 0 9 2 3 13 1 4 2 9 14 11 10 8 13 9 13 9 6 0 0 0 0 0 0 0 0 7 9 12 1 10 10 7 1 5 11 4 14 10 8 7 6 5 4 11 2 4 2 4 14 4 15 13 13 1 12 11 14 9 5 5 11 10 4 6 11 9 2 1 3 13 11 7 5 15 11 9 9 2 6 3 9 1 7 1 10 6 10 7 2 11 8 12 12 12 15 14 6 11 14 14 8 7 10 4 1 14 9 2 11 8 11 12 2 15 9 3 5 11 7 3 5 3 8 8 5 11 1 3 9 13 13 1 2 12 8 8 11 5 15 11 7 7 10 6 5 5 12 7 3 13 8 8 12 2 2 7 6 6 14 13 2 14 14 14 8 2 12 3 2 7 9 1 9 8 3 9 7 2 2 13 9 13 1 7 3 15 15 15 3 8 4 7 5 9 7 2 9 3 14 8 10 1 2 13 1 4 1 9 3 8 6 12 3 11 8 7 13 9 11 5 13 5 7 14 10 11 1 7 8 3 15 6 10 13 15 12 12 5 1 2 6 8 8 14 5 1 14 13 5 2 3 11 4 10 9 10 3 15 7 11 6 10 14 2 8 1 3 10 5 12 11 6 5 3 4 3 7 3 10 9 14 2 12 9 15 3 2 9 8 2 13 10 3 2 5 8 8 9 6 14 8 3 6 13 15 4 13 9 14 12 7 1 7 5 5 8 1 6 7 3 15 11 12 2 10 14 11 1 12 4 1 2 12 3 14 14 10 4 9 7 6 2 12 13 8 10 7 11 12 8 8 12 6 7 4 10 10 15 11 2 9 9 10 3 12 2 3 13 11 4 8 2 5 7 8 2 1 15 9 5 10 15 7 13 12 6 4 2 14 14 11 6 2 15 15 7 2 14 14 11 15 15 11 1 2 14 4 13 3 2 7 10 7 2 6 5 13 5 11 8 1 15 12 6 13 12 10 10 4 11 4 7 6 13 3 1 13 13 10 15 14 14 2 13 7 2 15 15 9 12 6 4 6 12 9 13 5 14 13 4 1 2 13 14 2 11 8 2 12 5 1 5 5 8 14 8 5 11 10 10 15 1 11 7 14 15 7 12 10 15 15 8 10 10 1 2 4 2 9 13 8 11 5 15 12 1 7 13 10 9 4 15 12 7 9 6 5 13 10 9 1 4 6 4 7 14 13 11 14 5 3 1 2 2 8 14 12 2 11 12 15 13 15 9 15 3 4 3 3 2 1 2 11 11 10 11 1 6 8 5 13 8 15 13 4 2 12 4 10 5 11 15 10 11 7 7 4 11 15 5 5 8 14 5 12 8 7 13 7 12 1 7 12 8 3 6 14 8 12 10 5 3 10 9 2 13 6 1 14 11 8 6 2 1 11 12 2 11 6 6 9 6 8 6 1 2 1 9 7 7 12 9 10 14 2 14 6 15 9 4 4 3 9 12 12 11 9 7 2 3 10 13 5 7 6 10 2 1 6 7 10 11 9 1 6 