P2
33 33
250
6 10 15 3 8 11 14 7 10 15 12 15 14 6 9 13 3 5 4 4 13 7 9 4 9 8 14 15 13 12 6 2 9 8 9 6 15 2 15 11 10 7 14 9 12 4 10 12 9 15 14 12 1 8 7 9 13 11 5 4 8 13 3 2 6 15 1 1 4 12 3 14 1 5 6 12 15 13 15 4 10 15 4 13 3 7 14 12 10 6 9 3 13 15 14 2 11 13 2 2 9 7 2 15 5 14 14 4 9 6 14 9 4 2 14 15 6 11 13 1 9 12 3 2 7 1 8 5 14 7 2 11 9 15 4 8 15 8 6 1 3 10 13 3 1 5 2 1 1 11 2 3 7 7 15 5 1 9 7 8 10 5 8 14 15 8 11 14 4 6 1 14 11 10 9 5 9 6 14 3 1 1 12 9 14 14 11 11 15 7 15 11 3 10 12 3 5 5 12 9 5 12 6 1 12 5 4 12 9 2 6 14 11 6 13 10 2 4 1 8 3 10 1 4 12 14 11 15 13 6 1 0 15 11 13 4 7 3 14 8 2 3 12 5 14 12 9 1 13 12 14 11 8 13 5 15 5 8 4 3 14 5 13 5 0 0 0 1 1 7 2 9 14 3 13 4 10 8 8 9 14 10 6 11 2 4 14 10 2 13 5 3 1 3 15 14 0 0 0 0 0 0 12 5 10 2 13 7 12 5 15 4 9 5 7 8 14 13 10 5 8 15 9 1 5 7 11 0 0 0 2 14 0 0 0 0 0 12 4 6 10 14 14 10 13 5 7 9 8 4 4 6 14 14 10 8 8 13 0 0 0 0 0 1 1 15 0 0 0 0 0 0 0 10 15 4 2 11 6 6 4 6 11 2 15 7 7 0 0 0 0 0 0 0 0 1 13 6 7 2 8 0 0 0 0 0 0 0 0 0 0 0 0 0 0 0 0 0 0 0 0 0 0 0 0 0 14 3 4 10 12 10 2 9 15 12 0 0 0 0 0 0 0 0 0 0 0 0 0 0 0 0 0 0 0 0 0 14 13 11 1 7 9 15 4 8 5 8 1 8 1 7 0 0 0 0 0 0 0 0 0 0 0 0 0 0 0 2 13 9 13 3 3 2 1 14 7 15 9 12 4 6 7 7 13 7 8 3 7 9 0 0 0 0 0 8 3 8 10 10 8 5 4 8 3 1 7 8 15 6 15 13 4 10 12 14 15 15 15 6 8 1 2 4 9 8 8 12 6 7 11 11 8 5 7 9 5 1 2 10 3 1 9 2 13 5 13 7 4 1 9 12 7 9 3 14 5 5 8 14 6 8 4 8 10 5 3 7 7 8 13 4 2 6 14 3 11 8 15 2 1 15 2 6 13 9 1 1 6 8 15 7 6 13 12 10 2 4 15 5 15 4 3 13 9 12 7 2 1 1 7 15 5 6 5 1 11 9 4 6 12 11 9 15 6 4 6 8 9 12 5 13 14 2 2 12 6 8 8 1 8 12 7 6 9 7 14 14 12 12 12 15 11 8 3 14 4 13 3 6 8 7 1 8 4 3 9 14 6 6 4 11 1 9 8 6 6 12 3 12 12 1 13 10 14 6 13 3 11 15 14 9 5 8 5 15 12 5 8 9 3 15 4 9 4 11 4 3 11 12 1 3 2 2 9 8 5 10 1 8 15 13 14 5 8 13 14 3 2 11 8 2 12 6 13 10 6 14 6 3 10 8 7 2 15 7 3 11 2 7 5 7 6 8 6 3 13 8 14 2 4 3 13 1 5 13 9 4 13 14 7 14 9 6 3 13 8 6 12 8 3 11 10 11 3 5 7 5 12 15 8 11 13 9 2 9 12 11 3 6 7 5 13 9 9 7 1 11 10 4 4 9 14 8 14 10 6 3 12 12 5 4 15 14 3 10 2 12 9 7 12 1 5 14 14 1 11 15 7 3 11 5 4 5 10 4 15 8 1 7 14 9 12 14 9 12 9 9 12 15 15 12 15 2 8 15 10 8 6 3 12 8 13 10 1 12 15 12 6 6 12 15 11 14 10 13 6 9 12 12 10 7 4 10 5 15 11 13 9 14 12 15 9 8 14 7 5 2 12 11 4 9 5 1 15 9 2 12 9 9 14 7 9 6 14 6 14 3 12 8 2 3 14 13 2 6 7 12 5 1 1 13 1 6 13 13 10 12 14 8 4 12 15 9 14 11 1 11 1 13 3 8 11 14 14 11 7 5 3 10 5 6 5 5 12 7 5 9 10 6 5 11 4 5 7 8 10 13 10 6 13 2 1 5 6 10 11 7 4 9 9 14 8 12 5 4 2 15 9 15 2 9 10 12 4 8 4 12 1 8 1 1 3 13 7 2 3 11 4 6 7 5 8 1 1 7 3 2 1 12 6 8 11 8 14 14 5 3 14 10 4 9 2 4 10 8 4 1 9 6 9 5 8 6 11 10 7 15 14 