P2
33 33
250
2 10 5 11 3 10 7 2 11 8 15 3 3 13 9 3 10 5 15 9 12 9 11 14 12 7 5 7 8 14 15 4 1 5 15 5 3 5 7 2 13 6 1 12 11 12 3 12 1 14 10 13 8 10 9 14 10 13 3 12 4 15 12 5 11 1 13 11 10 2 11 2 1 10 11 10 2 11 2 1 6 7 6 7 15 11 8 2 6 14 11 3 3 12 11 9 1 2 14 12 5 13 12 8 11 2 6 5 5 6 12 3 14 1 11 9 2 12 5 8 8 11 8 7 15 1 8 11 12 9 11 2 9 6 6 11 14 6 3 5 10 14 8 11 1 1 5 11 14 10 9 10 4 11 9 6 3 5 15 8 15 6 5 5 2 11 4 13 6 12 12 15 15 8 7 10 15 6 12 5 11 5 14 5 14 2 13 1 4 9 3 10 15 3 2 9 10 10 12 14 13 13 1 3 7 6 14 7 11 10 15 11 12 11 11 14 10 1 10 6 7 3 13 14 6 11 10 11 11 11 14 12 15 13 12 1 15 6 5 6 15 9 7 7 15 7 12 14 14 12 14 1 8 0 0 0 0 0 7 14 2 11 7 3 6 10 2 7 14 12 6 8 14 8 11 14 4 13 3 13 7 0 0 0 0 0 0 0 0 0 0 0 0 0 0 7 2 10 5 8 2 12 4 7 14 9 11 4 5 15 15 0 0 0 0 0 0 0 0 0 0 0 0 0 0 0 0 0 0 0 6 8 11 12 13 12 9 8 14 2 2 10 0 0 0 0 0 0 0 0 0 0 0 0 0 0 0 0 0 0 0 0 0 8 12 4 14 2 7 11 10 10 9 0 0 0 0 0 0 0 0 0 0 0 0 0 0 0 0 0 0 0 0 0 0 0 4 12 13 2 6 15 7 1 0 0 0 0 0 0 0 0 0 0 0 0 9 7 13 5 9 14 14 3 9 8 9 4 6 10 13 11 6 5 15 11 0 0 0 0 0 0 0 0 0 14 11 14 6 6 4 6 4 1 13 7 15 7 1 9 3 12 10 8 1 4 7 11 0 0 0 0 0 0 0 6 13 11 15 13 2 7 9 13 12 11 5 5 14 4 11 6 7 5 6 15 10 1 13 1 0 0 0 0 0 1 13 15 4 10 12 15 12 12 11 10 4 1 8 14 4 13 2 13 3 15 15 12 11 9 1 6 0 0 0 0 2 1 3 2 1 5 5 11 14 10 8 4 7 9 8 7 4 8 7 13 14 13 6 8 12 9 14 14 0 0 0 0 5 3 11 9 12 6 3 4 4 12 9 10 14 15 10 12 9 6 9 14 14 5 11 11 12 11 15 6 11 0 0 0 2 5 14 9 7 5 3 7 1 9 11 5 10 6 6 2 15 6 6 12 4 5 12 7 11 4 1 7 15 0 0 0 10 15 10 7 6 3 2 2 7 4 7 7 10 13 6 9 8 6 6 15 15 1 15 15 5 7 5 7 12 9 0 0 1 10 1 3 8 9 9 2 13 11 9 15 3 15 15 5 14 15 6 5 9 2 5 2 12 14 12 15 6 9 7 6 15 8 11 12 10 11 15 2 13 6 7 11 11 3 10 3 1 7 4 7 15 1 11 8 3 10 4 14 10 8 5 14 12 6 8 9 3 8 2 14 13 14 3 12 14 14 9 14 12 7 10 10 11 6 14 3 1 4 6 3 15 8 11 3 14 9 6 3 9 3 1 6 2 4 13 11 13 8 7 7 4 7 10 10 4 3 10 2 7 2 3 13 14 5 3 14 1 7 7 2 15 2 2 15 8 13 3 15 6 15 7 6 2 6 7 13 14 6 15 3 10 13 12 4 7 5 7 15 10 2 11 7 1 15 10 3 15 3 9 4 13 7 9 10 4 9 13 13 11 3 7 12 4 6 3 8 12 1 3 2 7 2 5 13 9 10 15 10 13 14 15 2 2 3 6 12 7 9 2 7 11 13 9 11 13 6 2 11 5 13 4 2 6 14 11 10 10 5 5 11 15 5 15 8 10 13 1 12 15 8 10 9 13 9 6 1 2 8 2 15 4 11 9 4 12 13 11 4 15 9 5 2 13 1 4 9 15 8 1 13 5 10 1 8 9 7 4 12 8 6 15 9 8 15 15 8 1 4 13 13 8 9 6 12 6 15 7 9 12 12 2 11 2 11 13 4 1 15 14 4 8 7 3 7 14 3 3 6 4 13 6 6 2 8 9 13 5 4 12 7 1 4 14 4 1 13 5 8 8 9 6 8 3 2 1 5 7 6 14 10 7 11 1 1 1 13 8 8 3 4 1 2 5 12 10 14 13 13 15 7 15 13 12 2 9 3 11 2 5 9 2 3 12 1 6 5 1 4 1 3 11 10 4 5 5 2 12 7 13 11 2 11 5 8 9 15 2 3 1 8 11 13 14 8 10 9 11 6 13 2 11 6 4 