P2
33 33
250
8 1 10 15 8 10 15 7 7 7 13 7 9 15 1 1 13 4 10 8 1 11 11 13 2 13 14 5 12 11 15 8 6 9 6 10 2 10 11 3 4 10 12 8 8 5 9 11 10 6 8 11 6 12 6 1 10 12 13 7 14 10 14 5 2 1 2 15 2 5 11 6 12 6 10 1 13 4 9 4 5 1 11 15 5 5 8 3 8 6 12 8 10 8 1 15 14 10 6 12 8 3 10 15 5 13 9 9 13 5 14 15 6 13 13 6 14 14 2 8 12 6 5 6 3 11 5 1 14 7 4 8 2 4 11 4 12 7 15 5 6 14 6 13 11 12 8 6 11 14 2 6 12 14 7 12 12 12 14 12 9 8 7 3 12 7 10 11 1 3 6 2 1 13 6 5 15 8 13 3 7 15 2 5 13 6 7 1 10 8 4 5 11 6 6 8 5 4 12 2 9 6 6 3 13 11 12 1 8 5 5 2 8 5 8 1 13 13 3 5 8 6 3 11 1 8 7 4 10 14 9 14 15 15 12 5 6 12 12 4 5 8 5 15 12 6 10 15 3 5 15 13 1 9 15 6 12 8 13 13 8 7 5 11 2 3 12 15 5 8 5 6 7 1 11 8 8 1 1 1 13 8 3 2 13 9 5 8 7 12 5 12 5 12 9 7 5 1 6 0 0 0 14 5 4 11 8 9 5 15 3 2 3 10 4 4 2 14 2 14 4 5 6 2 12 5 9 8 4 1 15 0 0 0 0 0 0 11 14 12 5 15 3 9 7 14 3 13 15 1 8 4 11 12 8 2 5 2 1 6 15 8 5 0 0 0 0 0 0 0 0 0 2 2 14 8 8 4 9 3 13 5 3 4 3 14 13 9 10 4 4 5 15 14 9 13 0 0 0 0 6 13 13 0 0 0 0 0 10 1 6 3 1 4 5 5 8 6 1 13 6 8 12 2 13 15 13 5 0 0 0 0 0 7 8 15 0 0 0 11 0 0 0 0 3 3 7 3 14 1 2 14 7 7 2 15 7 5 0 0 0 0 0 0 0 0 3 4 4 0 0 13 2 3 0 0 0 0 0 0 0 0 0 0 0 0 0 0 0 0 0 0 0 0 0 1 0 0 0 0 0 0 0 5 5 5 10 9 0 3 13 9 0 0 0 0 0 0 0 0 0 0 0 0 0 0 0 0 2 14 4 0 0 0 0 0 0 15 4 9 0 0 7 12 9 0 0 0 0 0 0 0 0 0 0 0 0 0 0 1 1 8 1 13 12 9 0 0 0 0 0 10 0 0 0 5 11 8 0 0 0 0 0 0 0 0 0 0 0 0 12 4 7 1 3 7 14 6 4 3 12 15 4 0 0 0 0 0 0 0 0 0 0 0 0 0 0 0 0 0 8 9 14 5 15 10 5 15 9 15 11 12 12 15 15 14 12 14 14 14 8 6 0 0 0 0 0 0 7 3 13 15 13 15 1 10 10 14 15 8 8 5 6 4 9 2 7 6 13 13 11 7 11 10 3 1 8 5 15 8 10 6 4 2 11 15 14 13 9 15 9 9 6 1 2 4 12 1 6 13 10 11 3 13 8 5 15 4 11 5 5 7 14 4 14 3 3 7 1 13 12 9 14 5 11 8 11 11 5 6 12 1 10 3 7 2 8 13 8 14 8 12 10 11 8 2 9 7 5 8 2 8 14 4 1 5 3 3 6 15 14 11 7 2 12 14 9 3 12 1 9 4 2 15 15 15 13 4 12 3 13 12 12 6 12 8 13 2 14 2 8 2 8 9 1 15 5 2 4 13 9 9 6 10 1 6 5 13 5 7 14 3 9 7 9 8 11 2 12 5 8 1 13 11 15 1 11 8 7 4 3 13 13 15 13 6 15 4 6 14 14 8 2 11 6 13 5 12 9 1 1 12 7 5 4 14 2 3 10 12 4 4 2 3 13 1 1 13 13 5 15 7 10 10 3 12 15 3 1 11 14 4 5 13 13 11 6 7 3 8 15 9 9 13 11 8 12 14 15 1 6 10 12 11 10 2 7 1 15 12 13 1 12 2 14 3 1 8 1 3 15 2 1 5 1 6 10 2 3 15 2 6 15 14 13 12 7 6 9 7 10 4 5 15 7 11 15 3 1 2 14 5 10 5 4 10 10 5 15 10 13 15 9 8 7 10 5 5 5 3 15 14 7 4 11 3 8 8 10 10 6 10 4 13 1 13 3 2 2 11 2 4 1 15 15 11 2 10 2 2 13 1 11 1 1 3 4 10 15 1 3 1 1 8 5 11 1 2 15 3 4 7 8 14 10 4 7 9 12 14 3 8 9 8 10 6 3 3 1 3 2 1 13 7 13 6 14 5 8 13 4 9 14 14 1 13 2 5 3 12 15 1 1 5 6 3 3 11 4 9 12 14 3 15 9 6 13 3 9 11 5 2 4 9 11 2 9 13 7 