P2
33 33
250
13 1 6 12 3 10 11 12 4 7 11 4 5 1 14 11 9 3 5 12 3 4 5 7 12 6 15 6 13 2 12 1 7 6 8 3 8 12 10 8 14 2 10 14 10 14 12 10 5 13 7 13 14 10 12 7 2 12 3 2 4 2 11 3 9 8 10 10 10 11 10 12 15 11 2 2 10 4 14 14 11 5 6 12 5 11 8 13 7 12 8 6 1 6 10 11 8 5 4 13 7 3 5 12 2 12 15 13 10 6 10 8 9 8 1 4 15 14 10 15 2 8 12 14 14 9 15 5 9 14 14 14 15 13 2 5 15 5 11 1 5 12 14 6 2 6 13 4 2 11 3 3 3 9 5 9 12 2 3 7 15 7 1 5 11 6 15 3 15 15 6 1 1 1 8 7 3 11 14 9 9 11 10 7 14 13 9 5 11 11 2 12 8 15 2 2 6 7 6 1 9 6 3 6 5 4 2 9 3 1 6 3 12 8 8 15 10 5 9 7 13 5 12 13 2 15 5 5 2 5 7 11 4 3 9 8 1 7 15 5 7 3 8 15 7 4 13 9 11 11 2 9 15 8 10 8 14 11 14 4 15 8 11 6 9 6 1 11 2 9 3 1 3 14 8 2 10 14 7 7 11 13 5 6 11 11 14 1 4 7 2 7 3 13 2 13 2 14 6 3 11 15 6 1 15 4 12 2 2 7 12 4 12 11 12 14 10 0 0 0 0 0 14 4 7 14 12 2 11 4 14 1 15 5 1 15 6 3 12 2 14 14 10 5 14 0 0 0 0 0 0 0 0 0 0 0 0 0 0 0 12 15 9 4 8 7 1 12 4 11 2 7 3 3 5 5 0 0 0 0 0 0 0 0 0 0 0 0 0 0 0 0 0 0 0 0 5 8 10 12 3 11 4 3 2 13 3 0 0 0 0 0 0 0 0 0 0 0 0 0 0 0 0 0 0 0 0 0 0 4 12 6 11 13 12 11 5 14 0 0 0 0 0 0 0 0 0 0 0 0 0 0 0 0 0 0 0 0 0 0 0 0 7 6 12 6 13 10 14 12 0 0 0 0 0 0 0 0 0 0 0 0 0 0 0 0 0 0 0 0 0 0 0 0 0 5 6 3 12 10 7 0 0 0 0 0 0 0 0 0 0 14 7 6 1 6 3 10 10 7 1 13 1 3 0 0 0 0 15 12 13 5 14 0 0 0 0 0 0 0 0 13 5 11 10 12 6 15 10 6 9 2 5 2 11 4 12 10 11 11 0 14 4 10 2 0 0 0 0 0 0 8 2 3 4 8 6 7 4 4 14 4 12 11 13 3 2 14 11 8 2 6 11 6 1 14 2 1 0 0 0 0 0 4 11 11 9 8 2 3 15 11 11 9 9 10 7 1 10 15 14 3 13 5 14 4 14 9 11 14 7 0 0 0 10 11 8 4 14 6 1 2 13 13 1 4 9 10 12 3 12 13 1 10 3 6 6 6 12 6 8 9 9 5 0 0 2 8 15 8 13 6 5 2 4 12 1 8 14 5 10 11 2 8 8 3 15 1 2 3 4 6 8 13 13 4 15 14 13 14 15 9 2 1 9 6 11 9 10 1 6 11 15 3 8 6 6 11 8 15 1 2 2 6 6 2 12 11 5 5 10 13 10 2 12 10 12 12 14 1 1 9 11 14 6 4 9 13 10 2 13 3 1 6 7 11 2 13 13 8 10 1 12 14 15 12 15 3 15 10 9 8 12 4 8 8 15 1 2 9 14 7 9 6 2 4 12 8 7 5 11 1 15 13 8 6 13 15 10 13 14 15 14 12 12 6 11 2 14 6 5 11 9 15 9 12 10 5 13 7 5 9 14 10 10 8 8 7 2 5 12 9 6 13 6 8 11 4 3 10 15 13 12 6 9 9 14 5 10 9 6 5 4 4 6 8 12 14 8 13 2 3 13 12 15 13 15 11 8 15 8 10 4 13 8 4 11 3 13 8 9 8 1 7 3 6 15 5 14 3 2 1 2 11 8 3 13 11 9 10 7 10 9 7 12 7 11 10 7 1 12 12 2 2 8 12 4 4 9 13 3 5 1 14 15 14 11 3 7 12 11 2 15 1 14 1 8 8 1 1 6 10 8 3 10 2 14 9 15 15 7 7 9 8 1 6 8 8 7 12 9 14 13 3 3 12 8 14 4 5 13 13 1 10 4 13 11 7 12 10 5 12 2 7 1 4 14 15 13 11 5 8 15 15 8 13 1 9 12 11 14 14 6 1 9 2 1 4 9 9 14 12 7 6 7 1 1 3 12 9 12 3 8 6 13 2 12 11 4 15 2 6 11 14 15 3 9 13 1 11 9 9 2 10 13 15 1 9 10 15 1 9 14 1 10 5 10 5 6 15 5 5 14 11 8 11 13 1 13 1 2 7 14 7 9 6 5 5 14 5 9 6 8 4 13 10 15 13 2 