P2
33 33
250
10 4 15 3 13 13 3 15 5 2 7 13 1 14 2 14 13 4 7 8 1 10 2 8 5 13 5 15 9 5 4 11 5 8 8 2 9 9 8 11 13 3 4 11 10 6 3 11 8 6 1 12 6 2 10 3 4 10 13 12 7 9 9 1 10 8 7 12 15 12 8 8 13 7 1 5 2 9 3 7 5 15 12 2 9 7 6 4 7 9 6 7 7 15 13 9 2 7 6 10 11 4 4 6 5 8 11 10 14 4 12 14 1 7 1 7 5 2 13 7 7 9 3 6 8 5 1 12 14 3 7 6 11 13 10 9 15 5 5 8 11 14 5 10 12 8 2 6 14 14 5 8 4 11 1 5 4 11 7 4 8 1 8 11 3 3 2 12 11 11 3 11 1 5 6 15 10 8 5 7 1 11 7 8 10 12 14 12 6 14 1 10 2 14 13 6 8 7 7 15 3 12 1 5 1 12 11 13 11 6 4 13 9 5 6 9 12 13 11 11 1 11 2 15 4 14 4 12 8 10 4 5 5 3 6 11 4 4 13 3 7 2 5 3 10 13 14 11 10 5 3 0 0 0 0 0 13 14 5 7 14 15 7 2 7 8 10 6 11 13 4 6 4 14 2 6 3 6 4 0 0 0 0 0 0 0 0 0 0 0 0 0 0 0 10 5 11 1 8 5 1 5 2 12 1 5 13 12 5 0 0 0 0 0 0 0 0 0 0 0 0 0 0 0 0 0 0 0 0 0 12 9 11 3 8 9 4 11 9 14 0 0 0 0 0 0 0 0 0 0 0 0 0 0 0 0 0 0 0 0 0 0 0 1 15 14 14 7 12 10 7 0 0 0 0 0 0 0 0 0 0 0 0 0 0 0 0 0 0 0 0 0 0 0 0 0 7 12 13 2 11 6 0 0 0 0 0 0 0 0 0 0 0 1 15 12 12 4 13 15 15 7 6 5 9 14 1 12 0 1 12 9 15 5 0 0 0 0 0 0 0 0 8 14 1 4 12 3 8 11 14 7 1 3 13 3 8 4 9 9 1 7 6 10 15 0 0 0 0 0 0 0 4 12 15 3 15 2 1 8 11 13 9 1 3 14 12 13 13 9 8 1 7 8 3 9 13 0 0 0 0 0 0 8 14 4 7 2 15 14 14 11 1 15 3 7 7 7 12 4 14 10 2 10 2 15 9 14 4 0 0 0 0 0 6 7 10 4 5 7 7 15 2 7 11 2 3 8 9 5 11 14 8 13 6 13 1 10 13 9 1 1 0 0 0 12 14 11 8 15 12 2 14 14 15 12 3 13 2 9 7 7 11 11 6 1 11 8 2 15 7 15 1 5 13 0 2 14 14 7 11 14 5 1 8 7 9 5 5 15 6 14 3 13 10 5 13 14 9 3 13 4 7 3 15 10 6 11 11 11 15 14 6 3 13 13 4 6 7 13 8 5 4 6 5 6 5 15 1 2 10 9 6 10 11 1 2 2 10 9 15 13 6 3 6 5 7 14 7 10 11 5 10 14 4 6 9 12 10 7 2 3 6 4 3 3 4 1 10 8 1 15 6 15 2 5 2 10 14 13 6 6 14 2 3 4 15 13 13 10 5 7 4 15 10 9 1 5 6 2 13 11 6 10 9 5 8 6 2 9 2 14 15 4 14 7 2 8 5 1 1 3 11 4 9 3 7 5 14 10 7 10 9 4 9 15 9 10 14 7 9 11 14 9 11 6 1 2 13 7 10 10 12 12 2 9 6 11 14 3 11 2 12 12 9 10 6 1 9 1 4 9 6 3 13 10 11 13 9 1 10 8 13 15 13 9 9 12 2 13 14 12 12 2 8 9 2 15 7 2 15 4 10 11 1 12 5 14 13 8 4 15 11 13 1 11 13 8 13 14 5 5 12 3 2 10 7 3 6 11 8 4 3 4 5 3 5 9 15 15 9 6 8 12 13 3 11 6 1 15 13 12 6 6 8 1 15 8 2 7 12 6 10 13 2 7 12 1 13 9 14 3 1 3 11 6 9 8 15 11 8 6 15 5 9 14 9 7 6 4 13 14 14 11 9 3 5 1 13 9 14 8 5 5 6 14 15 14 13 5 10 3 12 1 13 9 5 6 4 2 2 15 13 7 8 9 13 10 10 8 4 14 8 3 13 14 4 2 4 10 11 12 9 6 15 10 8 7 2 7 15 15 11 5 1 8 2 12 1 3 6 12 7 15 5 8 2 1 7 7 8 6 13 2 2 8 14 5 7 5 1 5 2 1 2 6 1 3 1 11 10 8 2 1 7 3 6 15 3 6 15 3 12 4 3 1 13 9 15 6 7 15 13 8 13 13 11 2 3 3 11 5 9 10 9 13 2 7 10 5 11 11 1 15 8 6 10 5 3 5 10 5 14 9 7 2 10 13 5 3 5 13 14 8 12 5 5 13 1 11 3 3 14 5 11 4 10 6 3 