P2
33 33
250
9 5 1 14 12 4 10 12 3 9 1 4 1 13 5 10 4 6 15 4 3 8 4 5 8 8 7 2 12 13 2 7 12 15 9 1 10 11 4 10 6 1 10 4 15 9 14 13 12 9 7 12 2 5 1 10 14 11 14 13 13 5 5 6 15 11 15 8 15 6 15 10 15 14 15 6 9 6 10 8 5 14 3 1 2 7 9 12 4 4 1 15 12 7 13 4 1 15 11 7 14 10 15 14 5 4 1 11 14 4 3 9 9 6 12 3 5 2 4 5 6 15 10 10 5 11 12 6 2 4 11 9 6 1 15 2 14 7 15 13 1 2 5 14 6 3 8 1 13 13 12 11 4 1 11 7 8 14 12 14 1 11 10 10 10 1 1 11 4 15 1 1 1 6 3 1 8 5 7 10 5 9 11 7 3 11 10 5 15 4 1 4 14 11 2 7 4 14 14 11 8 5 14 15 14 11 2 4 9 6 1 3 8 6 2 8 13 1 5 4 6 13 9 4 4 15 3 6 11 3 15 3 7 1 10 5 3 1 15 4 3 8 1 11 11 10 8 13 9 11 15 7 13 15 3 14 2 1 1 11 15 14 15 13 2 1 4 0 0 0 2 12 1 15 6 8 13 4 14 14 11 11 6 13 3 6 13 15 3 11 11 7 4 14 2 3 12 5 3 8 0 0 0 0 7 2 15 12 4 3 12 3 2 5 1 5 4 6 4 13 9 7 13 10 15 12 6 6 1 10 9 12 11 10 0 0 0 0 11 8 10 14 13 13 7 3 3 10 8 12 3 12 8 9 11 9 3 15 2 1 4 15 9 5 4 14 7 4 0 0 0 0 0 15 7 9 10 8 15 12 10 10 10 15 12 14 11 7 4 4 8 3 7 7 1 0 1 11 6 9 4 5 0 0 0 0 0 0 0 5 7 12 6 3 8 10 6 10 12 5 15 7 15 7 0 0 0 0 0 2 5 14 7 2 10 10 0 0 0 0 0 0 0 0 0 0 0 0 0 0 0 0 0 0 0 0 0 0 0 0 0 0 8 5 12 13 9 6 14 3 0 0 0 0 0 0 0 0 0 0 0 0 0 0 0 0 0 0 0 0 0 0 0 0 0 4 11 10 11 3 14 10 9 4 4 0 0 0 0 0 0 0 0 0 0 0 0 0 0 0 0 0 0 0 0 0 0 5 11 2 4 7 1 8 1 5 1 11 6 0 0 0 0 0 0 0 0 0 0 0 0 0 0 0 0 0 0 0 3 2 3 1 7 5 11 11 2 1 8 2 10 4 15 7 3 0 0 0 0 0 0 0 0 0 0 0 0 0 5 8 12 15 5 6 2 6 3 1 2 15 15 14 4 12 5 9 5 13 8 10 9 15 0 0 0 0 0 1 3 14 7 2 7 4 9 3 13 12 10 14 15 12 13 4 13 10 6 5 12 5 3 7 7 8 2 14 12 8 15 2 3 8 4 10 9 4 3 2 3 10 6 6 3 3 8 13 6 6 15 14 14 12 13 5 12 8 5 5 3 11 14 6 12 10 4 10 13 5 9 1 5 5 12 10 14 13 14 7 8 6 7 5 15 3 7 8 8 15 3 10 13 13 1 9 6 13 2 15 5 12 2 9 5 10 11 15 6 6 6 2 10 9 6 2 4 10 12 4 1 13 5 10 4 4 12 10 10 14 15 10 8 12 6 6 4 5 7 2 15 7 9 6 4 1 4 5 3 5 9 15 7 6 15 7 7 14 2 12 11 5 3 13 9 5 5 2 5 9 14 12 12 4 1 14 13 4 8 10 3 8 2 6 15 11 4 4 14 5 3 6 10 11 6 5 2 8 4 12 1 13 1 8 10 14 4 5 10 7 7 4 13 7 2 7 12 2 11 6 10 4 14 5 1 9 10 6 11 1 13 11 10 7 4 9 6 1 14 12 6 11 11 8 11 8 1 12 4 2 14 4 5 15 9 4 7 4 11 8 6 13 4 7 7 1 6 4 6 3 10 6 5 1 14 5 3 12 3 12 6 2 13 10 2 3 9 2 14 9 15 13 8 6 4 12 8 12 13 10 7 11 10 7 9 12 11 5 3 4 13 13 11 6 11 14 12 12 12 6 10 3 10 10 11 12 3 13 4 2 12 13 7 5 11 8 10 7 13 7 8 9 3 12 13 6 7 9 6 9 5 11 4 1 10 6 3 8 10 9 12 15 6 15 2 2 2 15 12 5 15 13 8 1 10 4 9 13 14 6 3 13 15 14 3 7 7 7 15 15 5 1 13 5 2 8 9 14 13 3 9 9 4 13 13 3 5 10 12 11 6 2 15 12 14 11 4 12 9 10 14 3 6 4 1 7 14 10 5 8 8 13 5 6 15 11 14 12 4 12 8 12 9 3 8 5 12 7 5 13 13 3 10 15 15 6 14 6 15 14 7 11 9 6 7 1 3 1 4 14 11 