P2
33 33
250
5 15 9 15 10 10 14 5 13 12 3 13 15 10 8 5 9 7 1 11 5 14 2 12 13 3 6 12 13 9 1 1 1 8 14 3 5 3 14 7 10 4 9 7 10 3 11 5 9 6 3 1 13 8 7 3 1 11 3 11 5 8 5 7 3 12 5 15 2 15 8 10 13 14 7 14 2 9 7 2 5 13 11 6 14 14 8 7 3 5 13 9 4 3 12 10 9 6 14 7 9 15 7 6 8 6 9 14 13 4 4 4 13 10 1 8 7 14 12 15 12 5 3 11 7 4 8 8 12 8 15 13 3 14 9 13 8 9 3 7 13 2 1 12 3 4 13 12 1 10 2 5 11 9 6 3 1 13 8 11 12 12 10 13 10 3 5 14 14 3 10 6 13 2 6 12 1 4 13 7 8 10 11 10 15 4 2 14 9 4 8 2 3 13 13 12 3 7 3 2 7 11 8 1 9 1 6 15 4 14 7 1 13 7 12 11 9 11 1 6 4 6 10 6 12 1 11 8 2 15 3 4 2 5 9 6 1 6 6 3 12 9 1 13 7 14 5 14 8 10 4 7 5 12 5 11 3 3 15 3 3 3 2 10 13 9 6 8 15 9 8 13 6 6 10 9 12 3 13 2 1 15 13 11 10 3 12 7 13 5 9 1 2 12 15 15 5 8 8 15 3 9 7 10 12 4 9 4 5 14 12 15 7 12 13 13 13 7 9 7 3 9 3 7 3 15 9 7 6 6 9 14 7 7 13 5 14 2 8 1 10 9 13 11 14 7 5 1 13 8 6 10 0 0 0 0 0 4 14 4 3 3 5 15 15 3 1 3 12 14 9 4 15 8 2 13 6 9 6 0 0 0 0 0 0 0 0 0 0 0 0 0 0 0 0 0 5 12 1 6 2 9 15 8 1 7 13 4 7 12 0 0 0 0 0 0 0 0 0 0 0 0 0 0 0 0 0 0 0 14 14 15 6 8 4 1 5 8 8 13 0 0 0 0 0 0 0 0 0 0 0 0 0 0 0 0 0 0 0 0 0 0 12 12 12 2 13 7 11 12 9 4 0 0 0 0 0 0 0 0 0 0 0 0 0 0 0 0 0 0 0 0 0 0 0 6 4 15 15 15 8 4 5 0 0 0 0 0 0 0 0 0 0 0 0 0 0 0 0 0 0 0 0 0 0 0 0 0 5 13 15 11 4 6 3 0 0 0 0 0 0 0 0 0 0 0 1 11 1 7 12 7 13 13 12 14 5 9 4 0 0 12 1 7 1 11 4 0 0 0 0 0 0 0 0 0 2 6 3 8 14 7 10 14 2 8 9 10 12 10 15 6 11 4 7 2 12 10 11 0 0 0 0 0 0 0 5 2 4 4 14 15 15 15 3 6 1 12 8 13 12 6 5 10 12 7 14 3 10 6 1 11 0 0 0 0 0 0 12 9 11 8 14 2 10 10 9 5 11 12 1 5 14 2 7 6 1 15 10 7 14 9 15 15 12 0 0 0 0 2 8 9 1 12 12 1 11 6 1 6 10 6 9 14 10 9 8 7 14 4 9 10 10 13 15 12 1 5 0 0 0 8 4 4 10 6 8 10 12 6 9 13 1 12 13 10 3 11 2 7 4 4 7 5 4 6 7 1 5 2 7 0 0 14 12 12 3 4 2 6 9 8 8 10 2 8 2 4 14 15 7 13 3 9 7 9 1 5 7 6 3 4 2 15 0 1 6 3 1 3 1 12 6 2 9 15 4 6 12 6 14 15 7 12 6 8 4 9 6 8 14 13 3 14 1 12 5 11 5 2 14 14 15 14 10 9 15 10 12 4 11 8 10 12 14 4 14 11 10 15 9 7 2 12 2 1 3 3 11 4 3 2 9 11 7 14 2 8 5 1 12 9 13 3 9 9 12 14 15 13 2 15 10 14 14 2 15 8 9 14 14 15 6 3 8 3 12 5 2 6 4 14 2 13 7 10 8 2 6 11 8 11 8 11 14 8 3 13 1 5 12 9 7 1 13 9 1 15 10 1 4 4 10 12 9 6 14 8 15 4 13 8 9 3 15 11 11 3 10 7 4 9 4 3 12 10 14 8 15 7 11 12 1 2 10 9 10 14 2 9 10 10 13 11 6 5 14 9 9 8 7 6 9 5 14 4 4 14 3 14 13 9 7 8 9 10 8 4 5 2 14 4 12 7 4 11 5 15 9 1 13 2 15 2 7 15 14 12 11 15 8 11 6 14 8 10 14 12 3 1 12 5 12 10 7 10 7 9 7 13 12 15 6 11 2 10 4 2 10 10 13 10 7 4 12 11 12 12 5 12 11 13 14 1 4 8 9 14 4 3 9 14 8 9 7 2 15 15 1 8 10 7 4 14 8 13 3 4 8 4 5 14 14 8 8 2 6 7 4 9 11 5 11 5 15 12 3 2 10 11 1 10 9 6 8 10 6 15 10 