P2
33 33
250
6 11 7 9 8 13 15 11 4 10 9 8 3 11 4 10 8 14 14 1 13 13 5 9 5 5 15 3 11 8 15 12 13 12 2 11 13 2 3 1 15 15 4 13 5 5 1 8 8 14 1 11 1 8 12 14 6 12 2 9 12 10 14 9 14 1 6 13 1 15 13 7 5 4 7 5 13 3 1 15 2 12 14 8 8 3 5 10 12 7 10 13 12 15 5 6 5 3 3 3 13 11 11 1 10 14 7 2 4 3 4 9 15 15 1 3 7 2 2 11 11 1 15 11 10 4 13 9 1 9 8 12 10 14 9 13 9 8 5 2 4 1 11 9 2 3 7 11 3 12 4 6 13 15 4 13 8 7 6 11 3 10 12 7 3 9 9 6 5 4 13 2 10 3 12 8 1 2 12 6 5 10 6 9 6 9 12 4 2 1 14 8 15 1 7 9 3 14 11 6 2 7 10 14 9 4 15 3 11 4 8 12 15 10 13 9 4 7 8 14 1 8 8 2 4 15 8 1 14 8 8 14 8 2 9 6 3 8 11 12 10 7 6 5 5 15 0 0 0 0 0 9 9 15 11 3 7 10 11 1 12 8 13 1 11 2 4 6 9 2 9 13 11 11 0 0 0 0 0 0 0 0 0 0 0 0 0 0 0 4 13 7 3 10 4 8 10 3 14 5 15 14 6 4 0 0 0 0 0 0 0 0 0 0 0 0 0 0 0 0 0 0 0 0 0 1 5 8 1 1 5 3 7 15 11 0 0 0 0 0 0 0 0 0 0 0 0 0 0 0 0 0 0 0 0 0 0 0 0 0 4 15 9 11 8 10 0 0 0 0 0 0 0 4 6 6 11 5 10 10 5 1 15 14 4 12 13 0 0 0 0 0 0 0 0 2 14 3 0 0 0 0 0 6 13 15 15 12 13 10 2 15 6 1 12 9 2 13 7 2 12 6 15 14 0 0 0 0 0 0 0 0 0 0 4 1 11 8 14 13 7 9 3 6 7 6 1 12 15 15 9 5 15 10 12 5 10 2 8 0 0 0 0 0 0 14 1 5 11 6 14 2 7 3 12 7 5 4 3 5 6 5 13 13 12 12 5 9 9 5 5 7 6 1 0 0 14 8 8 7 11 8 8 11 8 9 11 5 11 7 10 12 10 8 7 12 5 6 15 3 1 13 11 13 11 2 5 2 2 13 5 15 5 1 12 13 5 7 8 13 9 1 1 14 8 5 14 4 2 15 12 11 6 8 8 4 10 15 10 14 12 8 4 8 8 4 1 9 8 13 7 2 5 8 13 4 10 11 5 11 10 4 1 8 12 13 15 12 5 7 7 14 12 1 4 10 9 1 7 2 11 1 10 2 1 6 5 12 1 6 2 12 13 15 3 5 6 15 13 11 15 9 11 14 11 15 12 13 13 4 5 14 4 12 12 2 10 3 13 3 7 14 10 6 2 3 2 4 5 1 13 3 14 11 8 1 14 4 8 6 7 5 14 13 11 4 15 7 8 3 11 13 14 10 3 11 15 9 15 3 11 10 7 5 11 2 15 6 8 11 13 15 8 13 14 14 14 3 11 11 6 12 9 4 4 11 15 10 11 3 11 6 8 11 5 13 2 9 4 3 10 4 1 2 4 1 5 15 7 3 8 14 6 13 10 9 7 2 6 2 7 4 12 6 1 14 15 13 10 10 4 15 13 13 5 7 12 10 9 14 3 15 13 5 11 5 13 4 1 8 3 3 6 7 2 9 5 1 10 4 3 7 1 1 1 15 3 2 14 3 5 10 5 15 3 1 10 2 12 14 10 15 12 4 6 11 4 10 12 7 5 6 9 9 2 4 11 13 2 12 13 3 3 8 13 7 8 12 9 4 9 4 11 11 12 4 6 14 4 3 14 13 14 14 14 3 1 1 2 1 1 10 3 4 2 7 5 7 6 7 14 14 15 8 6 6 4 15 3 5 9 11 6 7 6 5 9 4 11 2 5 11 4 14 3 6 8 2 8 8 8 3 4 10 5 4 5 9 11 1 10 12 14 7 10 13 10 7 3 5 9 4 6 11 15 13 9 14 13 10 12 12 13 4 8 13 2 12 8 13 15 4 5 5 15 5 9 4 3 6 10 14 7 1 7 13 2 14 11 4 7 12 4 7 15 5 1 8 8 6 10 12 4 6 7 4 13 14 10 14 11 7 7 8 10 10 5 2 2 8 9 4 6 14 11 7 4 15 7 9 10 5 13 3 8 14 11 15 5 11 4 9 12 3 10 3 13 14 9 11 8 13 5 13 10 7 8 14 4 14 6 1 1 10 6 2 13 12 4 1 12 5 6 8 6 9 5 5 1 7 13 2 14 1 13 1 11 7 6 6 1 7 12 12 14 4 8 13 3 1 10 7 7 9 3 3 4 13 6 7 12 7 10 10 15 5 1 13 5 7 1 10 12 6 1 10 11 12 8 