P2
33 33
250
8 7 8 6 4 13 5 4 12 1 6 12 15 2 12 7 7 8 14 10 13 15 1 13 14 6 1 8 11 6 2 12 13 3 3 14 8 2 7 2 4 11 13 3 5 3 1 3 6 10 2 13 12 8 11 8 8 3 9 2 13 1 3 4 5 10 2 15 7 9 1 7 12 9 12 9 12 1 8 1 3 7 13 3 10 13 7 6 7 6 4 5 6 12 8 4 8 4 12 4 8 7 10 11 9 14 11 5 10 12 2 7 5 7 13 14 8 7 4 12 4 10 15 5 5 13 5 9 7 6 9 2 14 14 2 4 5 11 15 15 12 15 1 11 10 1 6 10 9 8 3 3 9 6 11 14 5 2 13 13 7 12 10 12 3 12 7 11 3 11 8 7 13 5 1 12 7 12 14 11 4 14 14 0 0 0 0 0 5 2 15 6 14 5 8 15 7 2 5 5 11 8 14 7 10 1 10 9 6 4 14 3 0 0 0 0 0 0 0 0 0 0 0 0 0 6 7 11 15 5 11 14 8 7 3 5 7 11 7 8 5 13 0 0 0 0 0 0 0 0 0 0 0 0 0 0 0 0 0 0 0 5 9 3 1 14 12 10 7 11 3 10 4 0 0 0 0 0 0 0 0 0 0 0 0 0 0 0 0 0 0 0 0 0 0 0 8 9 5 3 3 10 2 3 0 0 0 0 0 0 0 0 8 2 6 15 15 15 2 10 2 1 9 2 8 6 0 0 0 0 4 2 5 7 4 6 0 0 0 0 0 0 15 4 4 3 3 9 1 7 14 6 3 9 5 14 2 8 1 14 12 3 0 5 11 11 3 0 0 0 0 0 0 8 13 9 13 5 7 8 14 14 3 8 4 6 13 15 11 7 3 15 14 6 12 1 9 3 6 0 0 0 0 0 2 8 14 2 15 15 14 3 9 6 7 8 4 4 2 8 10 13 12 13 7 4 8 10 13 9 10 0 0 0 0 8 9 8 5 9 3 11 14 9 3 6 4 11 7 12 10 15 14 10 2 5 9 8 5 15 5 4 11 0 0 0 12 1 8 10 14 1 1 13 11 7 11 2 1 11 1 12 6 6 8 6 6 3 4 11 4 5 15 4 8 4 0 0 11 14 12 3 10 7 13 2 6 3 13 15 1 3 7 6 3 8 2 7 10 3 2 3 10 4 6 6 7 12 10 10 15 4 15 3 12 1 11 11 8 11 10 9 14 12 13 1 7 14 14 4 10 10 15 3 11 3 13 9 8 4 3 6 13 10 12 2 2 4 14 2 9 1 13 13 11 11 13 8 11 6 7 3 6 4 9 3 15 9 14 14 4 8 8 13 9 4 4 12 13 1 15 8 9 13 3 1 10 6 10 14 6 15 7 7 4 15 6 8 14 7 14 10 6 11 5 5 13 1 11 6 4 3 14 11 3 10 3 10 9 1 13 14 14 6 5 5 1 12 4 4 14 6 6 8 3 7 15 9 13 15 5 11 10 2 14 12 9 1 14 7 1 9 11 11 7 7 6 6 13 4 12 11 8 9 4 6 7 13 3 14 8 9 8 1 7 2 14 4 6 13 6 6 9 10 4 15 6 11 6 5 8 4 15 3 12 13 9 8 8 4 4 7 6 11 1 15 4 8 10 2 8 10 6 14 8 6 7 15 6 8 6 9 2 1 13 13 3 6 5 8 12 15 3 3 7 13 4 7 1 4 5 14 1 2 9 12 5 13 8 15 15 3 5 2 1 6 4 10 15 6 10 2 9 8 8 7 2 12 6 11 15 11 9 12 14 2 2 1 8 3 8 15 6 14 2 2 12 9 3 4 11 11 15 5 2 3 11 15 12 5 4 10 12 8 10 10 5 10 2 1 14 3 11 5 5 9 12 3 4 4 8 12 10 7 14 9 14 2 13 15 7 13 7 1 8 9 2 3 5 12 7 3 7 5 9 4 2 4 5 3 9 1 11 11 15 14 8 12 2 9 10 12 13 7 11 1 5 13 2 13 14 13 11 7 4 11 2 9 3 13 10 7 6 1 6 7 11 11 8 10 3 14 15 6 11 7 8 4 14 10 9 6 10 6 5 3 7 3 15 7 10 3 10 10 8 8 1 14 7 3 8 15 12 14 15 5 14 5 11 11 11 9 6 6 13 13 5 15 11 7 7 11 6 8 8 11 3 15 6 2 6 13 1 11 15 15 2 3 3 4 5 12 14 2 11 2 9 3 10 6 7 9 12 6 10 6 9 10 15 8 2 7 4 15 3 12 8 4 15 5 7 1 5 12 13 1 4 14 9 4 3 9 12 7 7 3 11 4 10 3 14 3 5 6 11 13 7 12 2 5 13 8 12 9 15 2 9 8 14 8 6 10 3 11 12 15 14 10 5 14 1 9 11 1 11 8 2 6 9 2 10 5 1 2 5 14 15 2 5 13 5 7 2 14 3 14 5 4 11 