P2
33 33
250
1 9 11 6 14 11 8 9 12 5 14 14 7 1 1 7 2 6 14 3 13 7 1 1 12 13 7 3 15 4 13 4 8 13 11 7 8 9 13 9 1 3 7 6 12 6 14 4 11 8 14 7 4 9 7 1 2 6 8 7 12 6 3 15 8 10 8 10 13 12 14 1 8 1 12 9 2 5 9 8 4 8 8 14 13 3 10 7 4 1 6 11 12 11 4 15 2 15 8 3 8 14 8 8 4 2 11 14 14 12 11 8 1 2 14 12 10 3 7 1 14 8 9 2 1 14 5 3 10 15 14 9 11 3 6 8 15 6 1 13 8 2 7 3 5 15 2 2 5 11 6 8 10 14 4 1 2 14 2 11 15 10 6 14 10 6 5 11 12 13 12 1 13 1 8 10 10 10 1 13 6 8 11 9 10 12 8 15 9 4 11 1 4 10 4 5 2 6 5 8 3 2 15 4 8 13 10 6 1 10 13 12 13 7 2 12 6 11 14 10 13 3 13 13 5 10 11 10 5 4 6 15 1 1 0 14 10 14 3 12 4 7 3 9 15 9 1 13 10 10 14 10 3 11 15 7 4 8 9 10 3 2 13 12 14 9 10 0 0 4 14 11 7 7 3 1 15 7 2 13 9 14 7 5 6 12 5 3 1 14 15 13 6 13 13 13 2 7 6 5 2 0 0 0 0 6 3 12 7 4 10 11 12 11 7 6 2 6 4 1 13 4 4 11 1 1 10 12 8 9 9 4 10 7 4 0 0 0 0 0 0 0 0 0 0 0 0 0 0 0 0 0 0 0 0 0 0 0 0 0 0 0 0 1 2 1 4 3 13 6 0 0 0 0 0 0 0 0 0 0 0 0 0 0 0 0 0 0 0 0 0 0 0 0 0 0 1 12 12 13 4 4 10 10 8 7 0 0 0 0 0 0 0 0 0 0 0 0 0 0 0 0 0 0 0 0 0 7 5 3 7 13 14 14 5 11 9 13 2 4 11 3 3 2 14 0 0 0 0 0 0 0 0 0 2 6 11 14 8 9 15 12 5 4 14 2 10 6 8 3 7 4 11 9 13 7 3 1 4 6 15 12 1 12 13 5 10 4 8 2 1 11 11 8 9 3 2 14 1 15 13 10 2 9 8 7 14 2 14 4 9 15 7 1 9 8 11 10 1 1 3 13 1 1 8 3 2 13 11 13 6 2 10 14 10 6 2 2 12 15 15 7 6 5 10 10 15 1 15 5 3 9 9 6 13 11 5 4 6 14 2 7 9 7 1 13 8 14 10 11 9 12 15 3 10 13 15 10 2 1 12 4 6 8 11 1 7 15 14 2 4 8 7 12 9 2 2 1 9 10 14 11 7 2 7 6 5 11 14 8 2 6 11 1 2 15 12 3 14 7 11 4 14 13 5 14 1 11 6 10 5 15 14 10 7 6 5 2 14 11 1 12 14 13 3 2 7 9 5 1 15 1 9 1 9 9 8 13 5 13 11 13 11 15 9 6 14 10 6 2 14 10 9 5 6 11 15 12 13 11 15 10 14 6 15 14 7 14 13 12 5 4 12 12 2 7 2 6 7 14 6 12 13 6 13 3 15 2 12 12 2 2 14 13 3 12 6 3 6 6 6 11 11 9 2 1 4 1 3 1 9 6 14 6 12 2 4 13 12 6 7 7 14 10 12 7 13 3 12 4 7 13 15 11 3 13 10 14 7 15 12 8 14 4 4 11 1 11 8 5 7 7 11 10 3 13 11 14 9 11 1 12 13 13 11 10 15 6 9 12 1 3 1 10 12 1 2 15 7 13 4 9 15 11 14 3 4 12 12 1 13 14 9 3 14 1 11 4 4 9 9 11 7 4 5 6 5 15 14 14 13 10 1 4 13 13 7 2 11 13 11 11 11 6 3 4 3 9 12 7 9 9 7 1 12 7 8 3 5 7 12 9 11 8 13 4 8 1 7 6 13 7 12 15 10 1 9 4 6 10 10 7 5 5 11 15 7 9 10 11 3 13 4 9 10 5 15 11 6 1 10 1 3 10 6 10 1 2 6 9 5 4 15 1 15 12 3 11 1 5 15 1 10 12 12 2 1 6 8 8 11 1 12 4 15 4 4 14 14 9 8 14 11 3 8 1 7 5 9 9 12 9 10 12 6 6 3 15 10 7 14 9 5 5 6 4 13 10 15 12 10 10 5 13 4 13 3 2 15 3 15 12 15 14 4 3 2 15 7 10 2 13 1 1 12 5 7 14 4 14 4 8 13 4 1 15 13 13 1 12 4 14 1 13 1 15 7 15 1 2 15 11 14 7 2 15 4 2 2 8 11 14 15 10 4 2 9 13 6 13 7 8 13 1 13 3 14 7 13 9 15 11 3 7 10 8 2 2 13 11 2 7 13 7 2 14 14 6 9 9 9 8 12 5 6 15 3 10 3 4 5 3 14 7 6 4 1 1 4 