P2
33 33
250
12 5 15 13 9 6 12 9 10 5 11 13 3 14 11 2 5 15 6 7 4 13 9 11 9 14 2 2 11 12 14 11 15 5 11 15 8 6 11 5 11 5 9 1 9 3 3 10 2 1 1 13 5 9 2 12 9 6 14 3 9 7 5 9 4 9 13 13 8 2 14 4 4 11 7 13 3 5 4 8 12 15 1 15 7 3 13 12 8 15 11 7 8 5 9 9 3 8 8 12 1 7 5 14 3 12 15 2 9 11 11 15 11 4 3 12 13 3 12 15 1 9 1 5 8 10 2 8 8 15 15 15 5 10 4 12 1 12 5 2 7 6 6 5 10 13 13 7 2 9 14 4 12 3 7 7 9 12 13 5 15 12 2 5 10 6 7 12 15 11 8 6 13 9 3 6 15 4 12 10 14 9 3 4 5 9 14 8 7 4 13 9 6 8 3 10 14 5 10 15 5 12 6 6 11 13 11 6 4 5 6 11 13 2 6 3 2 8 7 3 13 9 4 10 1 1 12 5 5 7 12 6 5 8 4 12 9 11 3 14 9 5 15 15 7 8 8 9 2 0 0 0 0 0 0 2 7 12 1 11 7 1 2 13 9 3 15 3 7 7 15 12 15 4 14 3 9 0 0 0 0 0 0 0 0 0 0 0 0 0 0 0 0 10 9 5 6 12 15 11 2 10 14 4 11 1 5 0 0 0 0 0 0 0 0 0 0 0 0 0 0 0 0 0 0 0 0 0 0 4 3 10 13 10 5 11 5 14 0 0 0 0 0 0 0 0 0 0 0 0 0 0 0 0 0 0 0 0 0 0 0 0 0 2 6 1 9 1 15 0 0 0 0 0 0 0 0 0 0 0 0 0 0 0 0 0 0 0 0 0 0 0 0 0 0 0 10 12 13 11 13 0 0 0 0 0 0 0 0 0 5 15 4 11 15 10 9 14 9 11 14 2 11 11 0 0 0 0 0 2 6 15 0 0 0 0 0 0 0 0 3 13 14 15 3 7 6 8 7 14 6 9 8 12 12 7 12 6 6 4 0 0 2 1 0 0 0 0 0 0 14 10 1 3 5 7 2 1 12 14 8 9 9 5 1 8 6 5 13 13 14 13 8 3 10 12 2 0 0 0 0 0 11 10 5 8 5 10 14 1 7 1 13 9 10 8 3 1 1 10 9 4 3 7 15 14 3 12 9 10 0 0 0 6 11 15 12 13 9 4 8 4 8 14 12 9 6 2 12 1 3 11 10 9 2 12 5 14 11 1 8 9 11 0 9 9 1 2 12 2 11 1 6 11 10 9 6 10 1 2 8 5 11 15 2 10 6 5 4 15 8 7 10 8 12 15 8 7 2 14 3 15 8 3 1 15 14 9 1 13 7 3 15 15 9 6 10 1 1 10 10 1 8 3 2 15 9 5 4 1 14 8 7 9 10 14 9 8 5 14 11 6 4 13 8 3 7 7 3 9 14 1 8 6 15 6 5 1 4 10 14 9 10 1 7 2 6 4 10 9 13 3 4 7 5 2 5 6 11 5 1 3 7 2 9 15 9 1 1 12 3 6 11 2 3 8 6 10 13 2 14 13 5 8 7 11 15 7 11 15 10 9 13 2 15 14 7 3 9 13 11 15 12 9 3 14 6 6 14 6 15 1 12 1 3 5 7 15 11 15 9 10 3 8 8 5 9 9 12 3 15 1 10 7 14 15 4 5 2 5 15 6 6 3 8 6 10 9 15 14 6 15 15 4 13 2 12 6 12 2 15 6 14 15 2 4 4 5 1 15 10 10 10 2 9 6 3 1 8 13 9 9 4 3 1 11 5 5 13 7 5 12 3 5 6 1 4 15 3 11 13 7 2 3 10 2 5 15 14 14 3 14 8 9 8 6 4 14 11 2 13 13 3 6 10 6 12 8 10 13 13 7 6 14 3 1 2 9 1 2 13 9 1 2 7 2 7 9 14 2 11 14 10 14 9 9 15 5 2 14 14 2 11 6 11 6 1 9 1 15 2 11 1 9 13 9 6 3 15 10 13 1 15 7 4 3 15 8 8 10 13 8 4 2 13 8 4 7 8 6 4 9 9 3 12 7 14 1 7 7 10 13 11 6 1 3 6 2 6 7 12 2 3 3 3 14 13 8 8 1 12 5 13 1 11 10 1 11 9 6 1 12 10 1 9 14 12 7 7 14 14 13 12 15 2 13 10 5 2 8 8 15 3 11 14 11 12 5 8 14 9 9 2 6 10 4 3 15 12 15 10 6 14 1 1 9 6 13 4 12 12 10 4 11 2 8 4 8 3 9 4 9 4 1 5 10 3 4 10 1 4 1 4 2 1 12 5 4 2 15 6 15 4 10 2 6 1 9 5 4 13 10 5 7 11 6 2 12 9 6 15 4 9 4 2 2 2 1 5 5 6 10 10 7 1 14 3 6 12 6 7 1 10 7 5 3 4 13 2 