P2
33 33
250
12 4 7 3 14 5 4 12 14 2 8 10 15 11 13 3 1 1 8 7 4 7 15 3 11 12 11 10 6 7 6 11 3 6 4 7 15 2 11 13 11 8 8 12 10 2 1 5 10 7 1 11 7 9 15 13 13 1 13 4 10 11 4 5 4 11 5 7 15 1 13 10 13 5 15 14 2 14 14 2 8 5 14 11 2 6 5 6 12 5 15 4 11 4 14 11 13 14 4 10 1 8 13 6 1 1 15 8 12 4 7 14 8 10 7 2 5 15 10 12 15 10 5 5 3 3 15 6 9 7 9 7 14 5 11 7 10 14 6 1 5 2 3 3 3 12 1 7 13 4 13 2 7 4 3 4 5 3 14 13 15 4 5 4 10 2 7 7 10 14 2 3 6 3 3 10 15 4 13 5 13 1 14 11 8 9 7 9 8 4 1 1 11 5 4 5 15 7 2 2 3 4 3 6 13 7 10 10 2 10 2 9 4 3 3 10 1 3 10 4 1 6 10 12 6 7 10 7 1 1 7 6 12 1 3 8 15 4 10 11 5 8 11 14 14 4 14 9 4 4 10 5 10 11 14 9 6 2 3 6 5 2 11 9 10 8 2 6 6 12 10 11 11 11 8 12 7 4 11 6 9 11 2 5 3 13 7 6 2 11 14 8 4 2 15 7 1 10 4 12 11 11 13 4 2 7 10 8 2 8 10 4 14 12 6 1 8 10 8 4 10 9 1 4 7 10 11 7 14 1 5 14 4 12 8 13 1 6 2 1 12 6 1 9 1 10 10 3 6 5 9 7 2 7 3 4 3 9 9 11 15 1 9 7 8 12 11 9 9 13 13 6 3 1 2 11 4 15 10 8 14 5 2 14 11 12 1 3 7 2 3 15 14 2 7 10 5 7 5 14 3 10 14 11 11 7 9 3 13 14 7 4 5 13 3 10 11 6 15 7 5 8 13 5 1 1 2 13 3 8 1 10 2 10 13 5 3 7 8 4 12 5 2 1 9 4 6 5 12 3 2 14 14 7 4 1 6 10 8 3 9 4 3 15 5 7 14 7 1 5 5 4 3 11 3 10 5 12 10 4 11 6 4 4 2 15 10 5 13 9 10 8 3 5 4 5 5 14 10 5 13 5 7 12 5 5 10 1 12 4 15 12 11 11 2 6 14 5 1 4 11 11 8 3 7 5 8 7 4 5 7 4 9 1 7 12 6 4 15 15 3 9 14 6 4 13 4 13 8 10 12 6 6 15 15 5 10 1 9 1 11 6 15 5 6 15 15 6 9 13 15 2 12 15 12 15 11 14 7 11 10 6 2 1 6 1 0 0 0 0 0 5 15 5 12 12 15 5 2 5 2 7 3 1 14 5 14 13 7 12 14 13 6 4 0 0 0 0 0 0 0 0 0 0 0 0 0 13 3 10 3 5 13 7 8 7 14 3 11 5 15 6 2 7 11 0 0 0 0 0 0 0 0 0 0 0 0 0 0 0 10 7 6 7 13 12 1 9 12 8 10 10 9 10 10 3 0 0 0 0 0 0 0 0 0 0 0 0 0 0 0 0 0 9 9 7 6 14 15 13 6 2 7 4 6 6 2 0 0 0 0 0 0 0 0 10 1 5 1 1 11 15 14 7 11 1 12 13 3 13 2 14 14 13 12 10 2 7 14 0 0 0 0 0 0 8 9 11 4 3 11 13 12 15 1 7 3 2 4 4 10 14 5 12 1 12 3 9 15 12 10 0 0 0 0 0 12 2 4 7 2 15 13 12 14 2 2 8 15 1 13 6 14 2 5 10 4 1 10 3 11 11 5 0 0 0 0 6 13 14 4 15 1 15 7 9 13 15 5 8 6 4 10 13 3 11 1 8 14 14 5 1 7 14 0 0 0 0 5 15 12 9 12 3 7 5 1 12 4 11 15 13 2 14 3 12 5 5 13 5 15 2 10 10 6 6 13 0 0 0 14 9 1 8 11 7 8 1 10 9 14 14 1 13 4 2 12 9 4 3 10 14 6 5 14 14 11 11 15 0 0 0 5 14 2 11 4 13 11 10 15 12 8 15 2 10 12 9 15 2 13 1 11 6 14 11 5 8 13 13 6 0 0 12 3 3 14 9 11 15 8 12 7 1 3 15 4 15 12 8 1 3 1 12 5 7 5 8 10 4 3 5 13 0 0 4 15 8 6 13 3 12 12 14 8 13 5 2 5 8 14 3 7 5 12 5 14 1 2 7 13 2 14 12 8 0 0 0 3 6 4 5 7 14 1 9 6 15 5 4 14 3 11 4 8 14 7 12 15 5 12 6 11 15 12 8 11 4 0 0 6 5 6 11 3 10 14 10 10 10 6 8 3 9 7 12 10 12 14 14 7 6 11 2 7 13 12 12 1 9 0 0 10 15 4 11 15 8 14 9 2 2 9 5 10 12 11 5 5 14 13 12 7 7 9 9 13 3 9 