P2
33 33
250
12 6 14 3 14 2 15 14 3 3 4 6 6 10 4 2 13 15 12 8 15 1 12 5 14 1 15 10 9 14 6 6 14 10 14 11 9 6 1 13 1 12 12 6 2 10 14 2 6 11 3 9 2 9 6 9 1 13 3 13 8 1 2 4 1 6 3 3 10 12 14 4 14 5 7 13 9 15 15 12 8 9 4 15 13 3 1 1 14 8 9 4 12 15 4 8 6 14 1 10 2 5 10 10 1 13 9 11 9 9 9 9 6 10 9 9 8 3 8 1 2 10 9 2 10 2 6 1 10 5 12 8 7 13 3 6 3 4 4 13 5 12 1 6 15 12 9 3 12 7 3 12 8 7 10 6 10 7 11 15 3 14 15 12 1 4 3 10 8 12 8 4 9 9 3 2 8 4 5 5 0 0 0 0 0 8 7 3 8 6 1 13 5 10 14 6 2 12 13 2 15 9 7 1 7 7 4 6 15 0 0 0 0 0 0 0 0 0 0 0 0 0 0 2 11 5 14 14 1 8 2 5 4 8 12 9 7 3 8 0 0 0 0 0 0 0 0 0 0 0 0 0 0 0 0 0 0 0 0 4 10 3 14 4 4 5 2 1 12 8 0 0 0 0 0 0 0 0 0 0 0 0 0 0 0 0 0 0 0 0 0 0 0 0 5 5 3 2 8 12 6 2 0 0 0 0 0 0 11 12 9 11 5 4 10 14 13 5 11 14 7 14 0 0 0 0 0 0 10 3 1 2 12 0 0 0 0 0 14 13 1 4 4 4 7 1 12 2 1 7 7 8 12 14 14 11 6 2 0 0 0 0 0 7 13 0 0 0 0 14 15 1 15 13 9 14 3 14 15 4 1 13 15 9 4 2 6 1 15 3 2 12 12 0 0 0 10 0 0 0 9 2 14 6 6 10 1 2 12 6 7 4 2 7 4 15 6 15 1 11 11 2 15 1 5 5 14 8 0 10 0 0 8 1 11 13 13 13 12 7 1 13 1 5 8 7 5 11 4 6 1 14 3 3 7 5 15 11 10 11 8 13 10 8 6 5 11 5 1 6 3 9 6 11 10 5 11 9 15 5 5 5 15 15 11 8 4 14 9 9 8 5 2 6 10 14 6 13 13 11 2 2 15 12 1 2 8 8 2 13 6 9 14 11 14 4 10 1 2 14 10 8 9 14 13 2 8 11 7 1 5 13 3 11 14 8 10 7 6 6 13 13 2 15 2 1 9 10 1 11 4 6 14 9 11 1 7 3 8 10 1 9 2 4 5 15 5 13 7 11 5 8 8 12 10 4 8 10 15 14 7 8 4 7 10 10 9 15 7 4 8 8 4 13 13 3 9 13 10 12 1 14 3 2 6 11 9 12 7 14 14 2 9 3 10 11 15 12 1 8 8 11 10 11 8 3 5 11 7 11 10 11 2 12 4 2 3 6 14 13 10 1 1 6 2 8 9 11 12 12 2 10 5 14 11 5 4 7 10 11 14 11 5 12 3 13 7 8 15 8 2 3 5 14 12 7 2 5 14 10 5 15 4 6 5 11 7 10 9 9 8 10 3 14 13 13 10 2 3 14 13 2 2 9 12 15 2 8 10 7 13 9 2 3 1 1 8 5 12 11 8 13 5 8 14 11 8 7 13 6 3 6 1 10 6 7 10 4 4 1 6 10 8 6 14 15 6 7 6 1 10 13 15 10 3 12 10 4 9 5 10 3 12 13 6 15 2 7 15 2 5 12 14 4 2 3 2 9 10 2 11 15 3 7 5 10 15 8 7 10 11 14 7 11 14 12 5 7 2 1 1 5 9 14 11 15 3 4 5 3 9 11 13 9 4 12 6 4 4 4 9 5 13 8 12 11 3 12 10 1 9 4 8 8 7 15 13 3 2 8 6 12 7 6 11 6 10 2 3 1 4 1 3 6 3 11 7 13 8 2 5 14 12 7 10 3 8 7 10 2 2 9 6 8 9 9 3 15 1 3 15 15 3 2 9 8 6 13 9 9 3 4 14 6 8 7 4 3 1 14 6 6 6 7 4 2 15 1 2 11 15 15 10 2 9 6 3 5 3 15 6 12 1 4 6 2 6 11 1 13 1 3 12 11 11 5 7 12 10 8 12 4 8 15 8 4 1 12 3 1 14 13 10 8 2 8 3 5 7 11 14 10 3 10 10 3 3 12 13 5 9 8 11 10 15 4 4 10 6 14 6 1 12 9 12 12 3 5 15 7 9 11 8 7 10 1 10 5 14 8 7 5 4 12 3 7 12 3 11 3 1 4 14 15 12 12 12 13 5 2 15 14 6 11 13 10 4 14 9 1 13 6 13 6 13 11 12 7 2 10 11 7 5 7 9 3 1 15 12 15 5 4 15 14 3 8 8 5 13 15 10 2 3 13 9 15 10 11 6 5 11 14 3 14 1 13 8 10 10 2 10 13 9 11 6 1 12 2 5 