P2
33 33
250
2 3 4 11 14 2 5 14 2 9 5 8 5 8 12 4 15 11 9 6 12 13 14 1 5 12 7 4 11 8 3 7 14 7 3 11 10 5 14 7 15 5 14 5 5 1 7 12 10 1 13 2 13 3 1 1 11 14 13 6 10 3 11 4 5 9 8 2 12 15 9 4 15 4 3 10 15 7 2 13 11 5 13 8 5 12 14 1 6 10 3 2 4 11 4 15 15 3 3 2 11 15 11 15 5 9 3 14 8 1 4 2 8 2 3 4 10 3 11 9 5 10 12 12 1 10 11 11 14 12 9 8 15 5 12 6 12 13 15 14 5 10 6 10 8 10 1 3 14 14 12 10 15 10 13 14 9 3 11 11 8 15 15 6 13 10 7 5 1 12 11 14 12 5 13 15 6 9 14 3 3 11 12 3 10 7 7 9 12 11 10 6 13 5 13 6 2 12 4 9 4 13 10 9 7 5 15 7 3 10 7 8 7 5 10 13 2 12 12 13 12 13 12 2 8 11 15 13 11 3 15 11 4 1 2 15 1 12 7 11 8 3 2 14 14 8 1 11 1 2 13 6 8 13 3 6 7 3 6 12 3 10 7 15 2 15 2 13 7 13 5 5 6 4 3 5 1 12 9 2 8 11 5 8 10 8 12 15 12 5 4 12 13 12 6 8 7 1 1 14 5 6 10 15 9 9 8 9 12 4 11 5 11 4 15 11 3 15 15 14 3 7 0 0 0 0 0 6 5 1 7 3 8 11 6 5 14 1 11 8 1 5 1 2 7 12 15 8 6 14 0 0 0 0 0 0 0 0 0 0 0 0 0 10 10 12 6 2 3 7 9 2 8 8 12 12 7 4 5 8 0 0 0 0 0 0 0 0 0 0 0 0 0 0 0 0 11 9 13 8 15 2 5 1 6 3 6 3 4 6 9 0 0 0 0 0 0 0 0 0 0 0 0 0 0 0 0 0 0 9 1 10 6 5 13 12 13 1 7 7 14 4 0 0 0 0 0 0 0 0 0 0 0 0 0 0 0 0 0 0 0 0 5 4 7 6 9 7 10 4 1 15 3 10 0 0 0 0 0 0 0 0 0 0 0 0 0 0 0 0 0 0 0 0 0 13 2 3 13 12 4 3 1 11 5 0 0 0 0 0 0 0 0 0 0 0 0 0 0 0 0 0 0 0 0 0 0 0 11 8 8 12 13 8 15 11 3 0 0 0 0 0 0 0 0 0 0 0 13 3 10 15 11 7 4 3 11 9 9 1 11 12 12 1 13 13 12 4 6 9 0 0 0 0 0 0 0 0 1 2 10 13 9 3 12 11 15 1 13 11 15 13 2 1 15 7 8 6 3 12 6 9 9 0 0 0 0 0 4 9 14 1 10 5 5 15 1 10 7 5 4 1 5 7 3 12 14 15 1 10 13 15 12 10 1 14 0 0 8 9 2 6 2 2 15 4 11 15 7 14 13 13 7 10 11 2 9 3 11 6 9 2 12 1 8 10 14 2 3 13 1 10 4 1 11 7 12 5 11 12 9 9 9 9 5 9 15 2 5 6 15 7 14 11 9 7 14 13 7 12 5 13 4 15 6 10 11 13 10 15 8 4 13 2 7 14 10 15 8 6 6 10 8 15 6 11 9 4 8 14 13 10 15 14 11 11 6 8 8 2 7 4 1 2 5 4 1 12 9 7 11 9 10 5 11 12 13 8 13 15 10 5 14 6 13 4 10 15 14 14 13 7 7 8 1 14 11 4 10 14 9 14 15 4 5 15 12 14 9 15 8 9 10 3 1 2 5 1 5 2 1 7 3 7 2 9 9 9 11 2 6 8 10 4 6 8 12 6 7 9 13 15 14 9 13 1 4 15 5 13 9 1 6 10 2 4 10 10 3 9 9 9 11 5 13 2 2 4 8 13 11 10 1 5 8 7 7 10 4 8 15 11 7 15 12 8 9 3 3 12 11 14 14 13 1 5 15 8 15 1 11 1 12 7 6 7 8 14 3 7 6 9 1 2 9 12 2 15 15 7 8 10 6 5 10 7 4 10 2 13 1 11 2 5 5 7 12 9 9 8 13 6 7 11 3 9 13 1 12 15 8 1 15 10 13 11 2 6 8 9 2 6 14 12 1 15 5 3 5 5 2 9 14 15 8 8 10 7 4 12 1 5 3 12 4 11 4 9 1 14 14 9 2 1 8 2 7 3 15 3 13 13 5 1 2 9 13 4 5 13 14 6 10 12 9 1 1 15 9 12 7 13 6 7 8 13 15 1 3 7 8 13 1 5 5 5 3 12 5 12 10 6 1 5 1 2 9 10 8 3 9 4 9 15 6 4 8 10 5 11 9 10 10 2 11 2 6 5 4 6 10 3 11 8 2 9 2 9 1 7 4 5 10 11 11 7 8 14 12 13 7 13 4 12 10 9 9 6 11 14 14 12 9 7 3 13 1 3 1 