P2
33 33
250
11 11 7 10 12 3 10 14 4 10 1 8 5 8 5 11 13 12 14 3 3 5 4 14 3 5 10 5 3 13 15 3 15 11 1 15 1 7 3 5 14 3 8 13 9 2 8 5 4 15 14 10 14 10 5 9 4 8 14 11 13 14 4 8 8 4 13 4 2 5 12 7 9 8 10 3 13 6 4 10 9 10 15 6 12 13 2 6 14 5 6 10 7 1 6 10 5 15 6 14 9 12 1 8 10 6 9 15 8 13 12 12 6 1 3 1 11 13 10 13 7 7 4 12 5 1 9 9 8 11 11 3 14 2 11 0 14 9 4 14 12 1 8 15 13 10 6 1 3 4 5 11 11 9 2 2 8 3 14 9 9 11 7 15 12 7 1 0 0 0 7 9 5 10 11 1 4 8 14 12 8 9 10 10 2 4 8 5 6 8 13 5 13 4 1 12 7 0 10 0 0 0 0 8 10 15 8 11 7 6 14 4 10 1 10 3 4 5 15 4 13 13 5 10 13 14 11 6 14 7 0 11 0 0 0 0 2 7 12 12 1 2 1 3 6 2 4 11 15 4 3 3 14 12 5 7 11 2 12 3 10 2 14 0 11 0 0 0 0 2 2 10 12 13 15 3 5 5 14 7 15 7 10 14 10 3 2 7 6 5 14 12 7 15 10 8 0 10 0 0 0 0 0 6 10 2 9 3 5 9 12 6 9 15 13 3 10 5 15 1 1 8 4 1 3 15 9 10 0 0 12 1 0 0 0 0 0 1 9 1 11 13 10 8 4 13 2 13 4 5 12 9 7 8 2 4 9 1 6 13 0 0 0 9 5 0 0 0 0 0 0 0 0 0 6 14 13 15 12 8 6 14 13 8 6 13 1 12 9 2 0 0 0 0 0 0 8 9 0 0 0 0 0 0 0 0 0 0 0 0 0 0 0 0 0 0 0 0 0 0 0 0 0 0 0 0 0 0 0 7 9 1 0 0 0 0 0 0 0 0 0 0 0 0 0 0 0 0 0 0 0 0 0 0 0 0 0 0 0 0 0 0 7 13 1 5 0 0 0 0 0 0 0 0 0 0 0 0 0 0 0 0 0 0 0 0 0 0 0 0 0 0 0 0 0 7 14 11 8 4 0 0 0 0 0 0 0 0 0 0 0 0 0 0 0 0 0 0 0 0 0 0 0 0 0 0 0 0 6 2 11 14 14 7 0 0 0 0 0 0 0 0 0 0 0 0 0 0 0 0 0 0 0 0 0 0 0 0 0 0 6 10 2 3 12 15 13 11 0 0 0 0 0 0 0 0 0 0 0 0 0 0 0 0 0 0 0 0 0 0 0 0 4 11 13 9 5 3 13 7 3 12 3 0 0 0 0 0 0 0 0 0 0 0 0 0 0 0 0 0 0 0 0 13 15 11 13 4 3 10 5 11 12 1 7 9 13 2 0 0 0 0 0 0 0 0 0 0 0 0 0 0 0 0 8 13 11 10 9 2 1 8 5 5 3 10 4 10 11 6 7 12 13 10 11 15 0 0 0 0 0 0 4 2 7 2 5 10 15 4 2 7 14 4 7 4 12 12 2 14 3 10 4 13 14 1 14 6 9 14 3 2 8 10 15 10 9 9 2 1 15 2 12 15 7 11 3 8 12 14 5 13 13 4 14 2 15 7 11 6 10 8 11 13 4 8 7 15 11 15 8 13 11 11 13 9 5 8 2 12 8 3 3 14 8 6 10 8 8 4 15 8 4 10 12 5 11 9 15 1 4 3 5 2 11 15 2 9 8 10 1 13 3 8 8 2 11 12 8 10 8 2 5 6 10 4 1 13 5 3 12 4 5 10 14 7 13 5 6 10 5 15 9 12 6 6 10 12 4 3 8 11 5 14 3 13 3 1 9 3 4 15 12 1 13 13 11 4 1 14 2 9 3 11 2 5 8 5 5 1 5 10 15 9 6 14 7 6 14 11 7 7 4 4 8 14 2 8 15 3 14 7 7 12 9 7 1 1 7 15 10 2 8 2 5 9 9 10 5 9 7 1 13 1 9 9 2 4 3 7 13 1 3 8 13 6 9 1 6 3 10 12 4 5 9 10 1 4 7 12 15 4 2 7 6 7 5 7 2 1 12 8 14 11 14 3 12 2 5 9 14 13 5 8 11 2 5 11 7 3 5 2 5 13 10 9 10 11 4 8 2 9 12 8 6 7 3 6 2 8 10 9 15 10 13 11 2 12 4 10 7 4 11 8 12 6 7 7 8 14 10 4 8 6 11 6 6 1 13 12 6 3 10 15 11 5 2 5 11 9 15 11 14 9 6 2 13 12 7 11 8 10 11 1 2 3 1 12 8 15 1 14 6 11 8 4 10 1 15 11 13 15 14 1 5 12 13 3 13 9 15 1 12 3 8 1 2 7 2 8 12 9 11 13 5 14 2 10 10 6 10 14 10 1 11 1 6 14 13 