P2
33 33
250
5 15 2 4 4 6 6 4 2 2 6 8 3 11 13 11 9 7 3 6 10 12 10 12 7 3 8 15 2 14 6 13 9 2 12 15 14 8 1 5 7 7 13 10 9 8 1 6 15 9 3 4 4 5 6 13 9 14 13 2 5 14 14 5 15 2 4 4 8 6 7 12 4 8 14 6 15 11 5 13 11 12 11 15 6 10 10 1 4 6 15 9 15 4 7 4 2 13 9 9 15 5 3 3 4 9 1 1 11 3 4 1 1 6 14 2 4 2 3 1 4 5 1 6 15 15 3 5 9 10 3 4 14 15 5 1 14 9 7 6 14 5 15 8 15 15 6 10 1 15 10 9 5 11 10 14 11 9 6 6 9 5 1 4 2 7 3 10 2 4 2 5 2 10 1 7 0 0 0 0 0 0 0 0 0 0 3 3 2 12 1 6 1 8 13 2 4 3 15 15 15 6 4 13 0 0 0 0 0 0 0 0 0 0 0 0 0 0 0 0 0 0 0 0 14 11 13 1 4 15 2 10 6 2 0 0 0 0 0 0 0 0 0 0 0 0 0 0 0 0 0 0 0 0 0 0 0 0 9 7 10 12 3 5 9 0 0 0 0 0 0 0 0 0 0 0 0 0 0 0 0 0 0 0 0 0 0 0 0 0 0 11 14 6 4 10 11 0 0 0 0 0 0 0 0 0 0 0 0 0 10 15 11 2 8 10 3 7 6 13 0 0 0 5 12 14 10 4 2 3 0 0 0 0 0 0 0 0 9 12 4 3 15 3 14 6 4 6 4 5 2 11 4 13 10 8 13 7 4 15 13 5 13 0 0 0 0 2 1 10 2 4 14 15 3 3 7 3 11 2 12 9 3 15 13 1 2 15 12 4 15 8 7 5 8 4 0 0 9 8 2 3 4 4 11 8 14 14 15 5 11 11 9 15 9 14 7 4 12 1 2 15 4 9 1 10 12 4 7 9 8 2 8 1 3 15 1 10 11 15 5 1 8 3 6 7 1 6 13 6 4 8 9 2 14 3 6 6 9 4 4 5 2 5 1 4 4 14 6 10 14 2 14 4 1 15 5 2 6 1 7 15 4 2 13 7 13 10 15 11 7 11 10 12 2 2 11 6 14 13 8 12 2 6 2 7 5 13 6 3 2 14 14 11 7 10 3 11 5 1 13 15 11 2 14 15 3 11 12 11 6 7 6 10 6 9 15 8 4 12 8 15 1 12 10 9 9 5 7 13 15 5 7 7 14 14 13 9 1 5 4 13 13 15 12 5 10 4 5 11 5 9 15 5 1 6 1 12 8 15 10 13 2 3 4 4 5 10 9 12 11 1 1 1 9 11 15 13 4 8 7 14 3 7 4 12 2 11 4 11 6 12 7 8 13 15 6 5 1 2 8 9 7 15 9 9 4 12 8 3 7 1 10 15 11 6 10 3 2 15 8 5 14 9 12 1 7 8 12 9 2 1 13 13 11 12 11 7 12 5 9 9 4 7 6 9 6 11 2 13 14 6 12 14 11 1 14 12 2 13 12 4 4 4 8 11 4 2 9 10 3 7 10 14 3 13 5 1 13 14 10 10 10 8 1 3 2 9 3 8 4 15 6 11 10 4 14 6 1 7 14 1 1 4 5 6 3 9 3 3 10 7 7 11 5 13 2 2 14 11 6 9 5 12 2 3 15 15 14 15 10 13 5 7 9 15 4 2 8 8 1 2 2 10 5 10 14 1 11 15 1 4 11 13 5 9 5 7 14 10 9 13 12 4 13 12 12 13 2 10 9 5 5 10 4 2 4 9 5 2 4 7 10 8 9 2 11 3 2 5 1 6 15 5 14 1 5 5 12 14 7 6 15 10 2 1 1 9 10 14 13 15 8 4 15 8 9 14 8 7 8 9 13 11 15 14 5 12 4 12 13 4 15 6 9 7 1 9 5 2 1 5 11 15 8 1 2 4 8 15 10 10 10 13 4 5 3 13 2 7 4 7 6 13 3 8 7 6 14 3 6 9 12 3 11 11 9 1 3 9 9 7 7 15 2 6 11 9 6 5 15 3 11 14 14 7 8 9 11 3 8 12 5 8 7 15 14 10 6 2 2 4 9 5 1 3 15 9 10 9 8 9 1 8 9 5 13 14 1 3 11 5 11 3 9 5 7 4 9 8 12 9 10 14 9 15 3 1 3 7 7 11 7 5 10 8 14 1 5 13 14 7 12 11 7 2 7 13 7 13 11 4 10 1 15 11 11 6 3 6 14 14 12 14 6 2 13 10 2 11 13 12 1 14 6 14 6 10 7 7 4 1 4 15 11 12 2 15 14 14 1 7 1 14 3 9 12 15 9 12 5 8 3 10 1 6 13 1 11 11 13 6 7 8 6 6 9 9 4 15 14 15 2 14 11 5 15 15 13 3 15 2 13 8 10 4 12 11 1 13 10 2 7 15 8 4 15 2 5 