P2
33 33
250
6 8 12 4 13 12 15 9 11 11 1 15 8 15 6 5 14 7 9 7 4 13 15 7 5 3 6 13 3 7 13 3 7 15 5 10 8 5 2 10 10 3 6 15 7 10 15 15 12 13 15 4 5 8 6 4 5 3 8 4 10 1 7 10 6 12 8 6 9 4 12 1 1 13 8 11 13 8 13 9 8 10 15 12 4 9 4 11 11 2 13 9 1 6 14 14 8 8 3 9 13 8 10 4 8 4 12 9 1 14 12 4 7 9 13 8 4 9 12 3 11 15 14 2 14 5 15 11 8 12 15 1 8 6 1 6 6 6 6 7 2 3 3 14 13 14 3 8 11 15 11 6 4 15 15 4 7 5 1 14 2 14 2 2 14 11 14 3 3 5 5 6 2 2 7 2 3 4 4 3 11 6 3 4 7 10 10 4 12 13 14 8 12 1 13 2 3 12 1 9 7 10 14 12 3 8 2 12 5 1 9 2 2 13 3 14 2 9 8 9 8 3 8 6 15 12 2 11 4 4 15 6 3 9 10 0 0 11 3 12 5 14 1 1 14 4 12 13 1 12 11 5 11 13 13 8 7 14 8 9 6 14 6 4 1 2 6 8 0 0 0 0 5 12 1 5 9 8 13 11 14 13 7 10 12 1 1 4 7 9 11 5 3 4 6 5 12 13 9 12 12 0 0 0 0 0 0 2 3 10 4 4 13 1 11 14 13 15 7 3 2 12 7 9 6 15 6 6 11 0 8 9 7 13 0 0 0 0 0 0 0 0 0 0 11 12 9 11 15 4 3 4 12 6 10 3 2 14 0 0 0 0 0 15 15 8 14 0 0 0 0 0 0 0 0 0 0 0 0 0 0 0 0 0 0 0 0 0 0 0 0 0 0 0 0 0 6 10 8 2 1 0 0 0 0 0 0 0 0 0 0 0 0 0 0 0 0 0 0 0 0 0 0 0 0 0 0 0 0 11 14 9 12 2 3 7 0 0 0 0 0 0 0 0 0 0 0 0 0 0 0 0 0 0 0 0 0 0 0 0 0 0 3 15 14 9 2 13 13 8 15 0 0 0 0 0 0 0 0 0 0 0 0 0 0 0 0 0 0 0 0 0 0 0 0 15 3 10 8 1 12 15 11 3 12 9 7 0 0 0 0 0 0 0 0 0 0 0 0 0 0 0 0 0 0 8 9 3 11 6 2 1 7 7 8 6 5 13 5 9 13 8 4 4 14 10 0 0 0 0 0 0 9 7 10 15 11 3 12 12 2 3 3 2 1 2 2 12 12 9 4 12 8 5 8 2 6 3 3 9 3 5 1 10 13 6 5 14 7 11 1 10 12 3 1 1 11 6 12 3 15 12 6 8 7 3 6 4 9 12 11 4 2 6 15 8 3 3 9 15 11 11 12 2 8 13 8 11 3 1 4 12 11 11 9 8 8 11 1 7 12 4 11 5 11 8 2 14 10 2 13 14 14 1 7 12 7 2 7 10 12 9 3 6 11 5 5 13 15 15 15 3 13 2 15 11 10 12 15 6 13 8 11 13 2 9 14 15 10 7 6 9 11 13 9 11 1 14 15 10 9 7 9 8 5 13 3 8 14 6 6 2 12 13 14 15 1 6 14 1 4 6 11 13 13 14 1 14 10 4 3 1 10 1 1 15 7 7 7 10 7 4 4 13 14 6 7 9 11 15 13 5 3 11 1 2 2 2 10 11 1 6 15 14 1 2 11 15 4 15 8 5 14 4 6 10 8 7 5 13 2 2 14 6 15 13 1 5 10 12 15 15 12 13 4 5 14 12 4 15 7 5 2 1 3 9 7 4 8 15 13 12 8 3 13 6 7 15 2 8 7 3 12 9 13 9 15 15 9 9 13 9 3 6 8 13 4 5 3 9 10 15 6 12 3 8 10 1 1 5 14 8 13 6 14 2 15 8 15 13 3 13 8 1 4 12 13 8 14 6 11 12 11 13 3 2 2 9 4 10 11 4 11 15 11 6 15 12 5 15 7 4 4 8 6 8 9 12 10 9 12 7 2 3 12 5 4 13 11 13 9 12 11 7 10 7 1 14 9 1 3 8 10 11 14 7 14 11 12 1 4 14 14 5 3 1 8 6 12 6 5 13 9 9 12 13 10 11 4 1 7 6 13 6 1 8 8 14 1 6 8 15 5 11 8 10 6 7 12 4 9 2 13 1 10 3 4 13 11 2 3 12 6 5 12 4 8 5 2 15 11 7 10 4 4 15 3 13 2 3 13 2 14 4 4 2 13 11 13 15 5 10 14 11 1 9 10 1 5 12 4 14 3 5 12 15 12 8 11 10 15 3 1 8 2 11 10 7 10 3 5 2 5 4 9 12 9 10 11 4 11 5 3 9 9 11 11 8 4 5 10 11 14 2 7 5 2 15 12 15 11 4 10 3 1 10 8 1 2 10 15 4 12 3 7 11 10 4 7 