P2
33 33
250
12 11 3 3 12 10 8 4 14 15 6 8 5 6 1 4 11 8 11 8 11 1 7 5 15 1 5 15 13 8 13 3 11 12 3 12 10 9 13 7 5 3 15 3 14 2 1 11 1 13 3 12 9 1 4 10 3 4 7 10 6 1 5 15 13 15 3 14 3 10 9 3 13 3 1 14 13 4 1 14 14 13 11 10 3 11 11 14 13 8 5 5 14 6 7 5 7 4 15 12 5 7 15 3 7 10 14 8 14 8 5 3 5 14 6 7 5 7 14 15 14 1 14 12 12 15 11 10 1 6 14 7 1 10 4 8 7 3 8 9 6 7 11 12 1 10 14 2 8 5 14 9 15 1 2 13 10 11 14 8 3 7 4 10 2 12 4 4 11 8 9 4 6 5 6 5 3 9 14 14 6 4 14 2 9 3 3 5 9 15 1 5 10 11 9 3 7 12 2 4 11 14 1 5 2 10 1 0 0 0 0 0 0 0 5 14 12 9 4 1 4 13 11 11 14 10 13 6 10 5 4 5 7 1 2 0 0 0 0 0 0 0 0 0 0 0 0 0 0 0 0 0 0 14 12 12 14 11 10 13 5 8 7 12 3 7 0 0 0 0 0 0 0 0 0 0 0 0 0 0 0 0 0 0 0 0 0 0 13 11 15 14 12 4 2 9 14 0 0 0 0 0 0 0 0 0 0 0 0 0 0 0 0 0 0 0 0 0 0 0 0 0 7 8 6 4 5 3 13 11 0 0 0 14 15 10 2 15 15 7 8 10 1 13 11 11 9 4 15 12 9 0 0 0 0 0 1 5 2 1 7 14 15 0 5 4 6 11 11 10 4 6 15 15 9 3 11 4 4 11 7 11 2 1 11 14 14 0 0 0 5 7 8 14 9 10 13 13 13 6 7 3 12 4 0 0 0 0 0 0 0 0 0 0 7 12 5 2 4 2 8 0 0 11 13 9 8 9 1 4 13 13 0 0 12 7 2 4 5 1 13 11 12 2 13 14 2 3 11 1 5 8 12 0 0 0 0 10 12 4 6 13 6 12 0 1 6 12 7 4 8 15 12 14 15 13 15 10 2 12 6 5 2 12 10 12 1 7 0 0 5 3 15 10 11 11 0 8 11 15 11 8 3 15 11 1 10 11 1 7 12 8 3 6 13 15 9 6 3 14 14 1 0 3 3 12 4 12 10 12 5 3 13 13 7 13 12 13 2 2 4 9 13 12 15 1 12 9 7 3 7 10 2 15 14 0 0 6 2 1 7 0 14 7 6 12 2 13 10 4 14 15 2 11 11 8 10 15 3 2 12 12 4 13 15 2 12 7 9 1 3 11 10 1 8 15 8 15 14 8 15 4 13 9 6 5 5 5 6 5 3 15 10 4 13 11 13 13 1 15 11 7 6 0 5 11 5 3 11 15 10 10 14 4 4 8 6 14 1 5 13 11 4 14 9 15 13 7 1 6 11 6 2 11 6 7 7 15 4 7 5 8 3 13 11 10 13 12 13 8 3 6 14 4 13 1 6 9 5 10 1 1 2 7 6 12 6 10 7 2 15 2 3 8 8 12 6 10 15 6 13 14 1 1 14 15 11 3 8 9 5 8 3 2 12 14 3 11 1 5 1 10 5 8 3 15 15 1 2 2 13 6 4 4 15 11 3 15 15 6 8 7 6 12 2 5 8 9 7 7 12 4 12 13 11 14 8 11 11 14 3 15 12 7 6 9 5 6 11 8 5 3 4 2 9 14 4 15 11 14 6 1 15 4 12 6 4 3 8 12 12 13 4 2 14 11 2 1 5 9 15 1 7 3 3 2 2 7 1 6 11 8 4 6 10 3 2 2 6 3 13 9 6 1 7 15 14 15 5 15 3 1 11 3 6 7 15 11 10 6 6 9 11 3 9 2 9 5 4 10 4 11 10 14 4 6 4 14 3 5 13 5 5 11 9 10 8 7 4 3 11 5 2 6 3 4 2 13 1 2 5 8 10 7 10 11 12 2 3 11 11 6 3 10 9 5 3 4 4 13 8 2 13 4 13 9 12 8 1 1 4 10 1 13 12 13 3 7 14 6 5 14 1 12 5 4 7 9 2 1 13 2 5 2 2 15 11 14 14 15 3 9 3 1 15 2 12 14 15 6 4 2 6 8 2 11 5 7 11 14 14 13 12 11 12 5 9 1 6 4 2 11 7 13 1 2 5 9 10 14 13 1 8 5 11 6 11 11 15 15 10 5 4 3 13 9 15 3 8 13 1 13 4 9 2 6 8 12 8 12 10 1 14 12 4 5 3 6 11 2 4 6 12 6 12 3 8 11 3 11 5 11 10 14 11 3 15 12 2 8 1 4 14 10 4 15 14 4 10 8 1 2 15 3 8 2 3 2 1 3 2 10 1 8 3 6 11 10 7 6 15 6 1 1 7 12 6 12 10 15 4 12 3 5 3 14 15 1 6 