P2
33 33
250
3 10 10 7 13 4 7 1 15 10 10 14 6 7 14 9 5 2 2 3 8 7 6 13 11 4 4 8 12 3 8 9 1 5 12 7 15 3 5 15 15 10 10 8 2 3 5 11 3 11 4 3 8 12 3 8 8 14 12 10 6 4 14 1 10 6 2 13 9 15 3 12 1 15 8 6 9 9 14 1 11 2 15 9 14 1 12 7 8 15 11 10 5 4 11 8 5 12 14 12 2 6 11 4 6 6 5 10 3 10 12 8 6 6 1 9 8 15 11 11 4 9 10 1 15 2 1 15 6 14 6 13 1 7 1 11 12 8 3 7 10 15 8 14 7 7 14 3 13 2 15 5 3 12 13 10 11 10 7 11 2 1 13 6 15 3 8 1 14 5 13 12 10 10 14 5 10 6 13 3 5 14 6 6 8 2 14 12 13 15 13 8 1 10 12 15 12 6 0 10 10 14 14 1 11 7 4 7 3 3 7 14 1 8 8 5 4 12 9 10 4 1 3 8 3 7 10 2 15 0 5 0 0 0 1 14 15 1 12 9 9 12 7 13 1 8 3 10 5 8 2 13 13 3 12 5 9 3 7 4 0 0 0 4 0 0 0 0 0 0 11 5 6 9 7 14 15 5 7 9 5 9 9 11 14 2 12 10 15 14 0 0 0 0 0 0 7 0 0 0 0 0 0 0 0 0 12 1 5 5 15 11 13 9 1 2 3 14 11 13 0 0 0 0 0 0 0 0 0 8 0 0 0 0 0 0 0 0 0 0 0 0 0 0 0 0 0 0 0 0 0 0 0 0 0 0 0 0 0 0 0 0 14 10 0 0 0 0 0 0 0 0 0 0 0 0 0 0 0 0 0 0 0 0 0 0 0 0 0 0 0 0 0 0 4 4 5 6 11 0 0 0 0 0 0 0 0 0 0 0 0 0 0 0 0 0 0 0 0 0 0 0 0 0 0 7 1 15 14 9 13 3 3 2 0 0 0 0 0 0 0 0 0 0 0 0 0 0 0 0 0 0 0 0 0 0 12 15 4 7 2 2 11 5 7 6 5 8 8 10 0 0 0 0 0 0 0 0 0 0 0 0 0 0 0 0 14 14 14 6 9 4 10 11 5 6 11 6 10 7 1 13 5 8 4 12 10 15 0 0 0 0 0 0 5 1 1 10 6 15 1 4 11 13 8 8 9 11 14 7 7 10 7 2 12 7 6 7 11 2 5 3 3 10 6 7 4 5 6 15 7 8 6 7 15 14 10 14 13 11 7 3 6 7 2 3 13 4 3 14 4 11 2 3 9 4 6 9 10 7 4 9 4 4 10 8 13 3 6 9 9 4 11 8 14 14 15 1 1 9 8 6 1 11 11 1 14 4 1 6 14 2 4 1 13 8 12 9 1 14 1 15 1 10 1 15 7 10 12 12 8 12 10 3 8 13 2 5 8 10 15 13 3 14 14 1 4 13 3 8 9 4 7 5 7 14 13 4 5 2 13 11 4 3 2 12 6 12 4 15 6 12 9 1 1 8 3 8 4 8 1 9 7 11 5 5 11 5 11 12 1 1 4 14 9 9 1 6 5 8 4 12 8 8 2 5 2 11 15 8 7 7 5 2 10 2 8 11 15 10 1 15 4 15 4 4 6 15 15 6 13 14 2 1 15 7 14 5 1 5 11 6 4 8 13 7 12 13 9 2 8 4 13 12 5 12 5 3 10 5 14 8 4 12 6 12 10 9 10 3 10 10 8 4 12 2 12 14 8 2 2 13 2 4 6 5 14 2 11 4 8 12 11 7 9 9 15 15 1 4 1 12 11 14 8 1 1 11 13 7 13 8 7 3 14 4 15 9 1 1 4 15 10 15 7 8 2 5 10 11 14 7 9 11 6 13 13 11 8 4 2 11 11 2 5 5 13 3 12 13 9 4 3 14 2 9 2 5 3 5 13 13 7 15 5 1 15 8 13 1 14 4 11 11 3 8 9 9 7 15 10 2 14 6 14 11 6 15 12 1 9 15 5 8 11 7 15 3 3 3 13 6 8 14 9 15 8 6 4 15 3 14 9 11 15 2 13 12 15 14 8 5 3 9 10 14 9 5 2 10 7 15 3 6 13 13 7 13 5 7 12 10 3 13 14 15 3 4 6 12 12 15 3 15 2 2 7 4 5 7 9 13 8 9 4 7 11 3 7 12 6 12 14 3 5 10 1 15 1 9 1 10 9 15 7 14 1 10 11 7 7 15 6 7 9 12 11 7 11 11 7 14 10 1 2 14 12 10 3 14 6 14 7 3 7 1 1 4 6 7 9 5 9 3 4 6 12 6 15 5 14 3 15 11 3 11 6 2 7 10 9 5 2 14 9 10 4 2 9 13 9 6 13 13 8 15 11 7 1 14 1 9 6 2 10 14 9 10 4 8 8 2 14 5 10 13 5 14 14 7 13 11 11 1 12 7 1 2 3 