P2
33 33
250
14 13 2 4 4 13 8 1 5 6 10 4 13 4 10 6 13 5 8 5 4 3 1 4 1 10 5 11 10 15 3 11 12 2 14 11 1 7 13 12 4 7 10 12 15 12 9 5 7 14 3 7 13 3 9 5 12 11 4 1 13 2 9 2 15 5 3 2 15 3 5 1 14 10 5 14 12 8 11 15 2 7 13 7 1 6 7 14 1 7 12 4 13 3 13 4 7 13 8 14 10 15 2 12 14 4 7 15 14 3 7 14 15 15 15 15 8 2 5 1 15 8 10 3 9 6 2 12 14 8 5 3 1 2 12 13 9 8 15 4 15 13 10 3 9 13 14 13 4 9 15 5 2 4 6 15 3 6 3 2 8 10 13 4 15 11 10 10 6 5 9 12 14 10 13 1 12 3 9 12 0 0 0 0 0 2 5 3 15 1 14 13 8 14 4 4 9 2 11 7 6 15 1 2 4 11 11 9 0 0 0 0 0 0 0 0 0 0 0 0 0 0 0 3 1 15 1 6 3 1 9 7 11 11 2 5 11 9 12 0 0 0 0 0 0 0 0 0 0 0 0 0 0 0 0 0 0 0 1 4 5 10 1 14 8 5 13 5 8 4 0 0 0 0 0 0 0 0 0 0 0 0 0 0 0 0 0 0 0 0 0 0 0 12 13 9 15 14 3 7 5 0 0 0 0 0 0 0 11 15 13 2 8 3 12 15 13 3 12 5 1 0 0 0 0 0 0 0 6 14 5 3 6 0 0 0 0 0 13 13 10 13 7 15 13 6 12 9 8 14 13 12 14 15 14 4 3 0 0 0 0 0 12 11 14 0 0 0 6 6 5 6 4 7 5 12 2 10 10 10 8 2 14 8 15 15 11 15 6 7 7 11 2 0 0 0 6 0 0 0 4 15 13 7 2 2 14 7 5 14 12 15 4 14 6 4 3 10 1 4 14 5 7 5 12 8 6 0 0 9 0 13 1 9 13 2 14 3 3 5 3 7 3 4 1 13 15 7 4 11 1 11 5 12 12 7 14 10 7 8 1 13 0 11 14 10 9 8 14 9 7 11 2 14 4 8 3 13 14 5 11 11 4 11 2 15 2 13 9 4 12 14 11 3 14 0 14 8 11 6 11 8 1 2 5 2 3 11 14 9 4 11 14 4 7 12 3 6 4 13 1 2 7 7 1 4 12 7 5 5 11 7 13 1 14 8 1 6 8 7 8 12 9 7 11 4 14 14 13 15 7 2 4 4 7 4 8 13 8 8 14 2 6 5 3 9 11 2 7 15 11 9 14 7 7 11 8 3 13 14 7 13 12 12 4 2 15 8 15 6 6 13 3 7 12 11 13 8 1 15 5 5 15 14 14 5 7 7 4 6 7 10 9 6 2 3 13 11 4 6 6 15 15 4 10 15 2 3 1 9 9 8 7 3 13 4 5 9 5 5 2 4 10 11 15 2 7 7 13 9 11 9 6 9 12 6 12 12 15 14 6 4 15 9 10 12 3 5 6 6 9 9 11 5 14 13 9 2 4 12 10 9 2 14 13 5 12 1 7 6 11 13 9 6 7 8 4 3 4 14 9 4 13 15 5 12 14 11 15 7 5 10 8 8 15 8 13 7 4 7 5 4 2 8 7 4 2 14 3 4 2 10 13 12 1 5 4 3 10 3 9 8 8 13 14 13 3 15 12 7 2 5 8 14 15 15 14 7 13 13 9 12 3 3 12 4 5 8 9 9 7 10 12 15 13 2 12 4 6 11 1 12 8 6 1 8 1 13 13 10 12 13 11 11 5 14 9 10 8 2 7 14 5 14 6 12 6 3 6 1 4 4 9 9 13 10 14 1 12 3 14 10 3 9 15 4 3 7 4 11 15 4 8 5 2 9 15 5 13 2 1 2 13 11 11 15 15 10 7 14 3 1 12 13 6 1 11 8 8 13 3 4 4 4 13 12 11 8 8 12 9 9 7 1 1 9 3 8 13 8 13 5 1 15 10 15 13 6 3 11 12 2 12 6 9 3 3 4 9 4 13 12 10 4 2 15 7 15 9 9 1 4 12 3 6 6 7 9 6 10 15 10 4 12 14 15 14 4 14 6 5 4 8 4 1 12 7 6 15 3 14 10 6 10 9 9 3 4 15 4 3 1 5 2 9 5 11 8 7 14 15 6 12 2 14 11 9 4 12 3 7 9 13 10 6 7 7 3 7 11 7 3 14 8 1 10 14 13 2 15 9 2 15 14 5 9 12 9 4 1 7 2 2 7 5 14 3 6 2 1 6 15 4 3 13 13 10 3 1 6 10 1 1 1 1 6 8 3 12 4 2 15 3 5 9 3 6 15 14 2 3 2 5 12 8 4 14 13 10 11 9 10 6 11 6 4 8 5 6 12 8 2 15 1 14 13 14 11 2 14 15 10 8 9 5 8 1 10 1 9 8 2 12 11 5 14 8 3 4 