P2
33 33
250
8 4 4 6 15 15 1 6 9 5 9 15 3 12 5 14 5 5 1 8 7 9 3 8 8 13 6 5 1 11 1 14 15 3 4 4 10 13 13 11 2 12 2 9 8 7 9 1 3 2 2 14 11 11 2 11 11 9 6 15 14 9 1 15 4 13 2 14 9 4 10 15 2 10 12 2 13 5 11 7 13 4 6 3 14 5 5 4 6 13 0 0 0 0 13 7 12 3 2 1 15 1 14 3 11 2 14 4 4 14 4 13 11 3 8 9 2 4 10 11 5 1 1 0 0 0 0 2 1 3 14 13 3 8 12 8 9 1 3 5 8 13 1 14 6 9 3 1 14 13 3 3 1 13 13 1 0 0 0 0 12 14 9 8 8 0 0 0 0 0 0 0 0 0 0 0 0 0 0 0 0 0 0 0 0 0 0 0 0 0 0 0 0 12 5 6 12 8 0 0 0 0 0 0 0 0 0 0 0 0 0 0 0 0 0 0 0 0 0 0 0 0 0 0 0 0 1 1 10 3 3 0 0 0 0 0 0 0 0 0 0 0 0 0 0 0 0 0 0 0 0 0 0 0 0 0 0 0 14 3 15 6 5 15 0 0 0 0 0 0 0 0 0 0 0 0 0 0 0 0 0 0 0 0 0 0 0 0 0 0 0 5 8 7 12 7 15 0 0 0 0 0 0 0 0 0 0 0 0 0 0 0 0 0 0 0 0 0 0 0 0 0 0 0 14 13 8 2 11 10 0 0 0 0 0 0 0 0 0 0 0 0 0 0 0 0 0 0 0 0 0 0 0 0 0 0 10 5 10 10 12 11 15 0 0 0 0 0 0 0 0 0 0 0 0 0 0 0 0 0 0 0 0 0 0 0 0 13 9 10 15 14 8 14 5 15 8 11 10 11 4 5 2 13 12 15 10 12 8 12 6 7 9 10 1 1 10 13 15 7 8 10 7 3 8 7 13 15 8 4 14 9 5 10 12 6 7 3 9 10 2 1 6 9 11 7 12 5 13 5 5 14 7 10 7 6 7 2 12 6 2 7 8 10 13 9 13 10 13 1 13 10 15 3 15 7 2 2 3 5 2 15 14 6 1 7 14 7 13 12 4 1 4 1 7 15 15 9 10 5 2 9 12 3 4 11 15 9 1 1 10 8 14 1 6 13 14 9 5 2 3 12 8 4 1 10 5 14 9 13 15 14 7 11 5 13 1 13 14 9 11 8 7 6 9 13 2 1 10 13 4 14 1 3 9 5 14 2 11 13 12 7 2 6 13 1 7 5 3 10 15 8 7 8 2 3 12 5 11 5 8 3 14 9 5 8 9 4 13 5 12 2 14 14 6 12 1 10 12 11 12 13 6 8 4 9 1 4 12 7 11 6 2 8 2 3 2 10 1 4 9 6 9 5 15 9 6 11 11 2 14 13 11 4 12 7 5 2 7 12 9 15 11 5 5 1 10 14 9 4 15 4 3 8 13 9 4 14 13 9 4 3 4 11 5 3 1 4 5 3 9 7 11 13 14 8 7 8 4 6 10 12 1 8 14 11 3 10 2 14 1 11 2 15 14 9 11 13 14 3 3 13 9 14 6 1 4 1 13 3 3 11 5 14 12 14 14 8 7 7 14 6 15 1 1 10 15 1 2 1 15 1 12 14 9 9 5 14 12 8 4 8 5 10 1 9 10 1 8 7 7 2 2 6 12 1 8 15 15 5 10 10 2 15 14 10 5 10 12 4 11 7 13 9 7 4 10 7 1 8 5 13 10 7 15 8 5 6 7 11 13 10 8 4 5 5 7 7 13 1 4 13 11 9 12 8 4 6 5 15 3 4 7 12 11 15 4 1 3 6 1 14 15 13 13 8 13 8 6 13 6 9 2 8 10 5 12 9 8 9 8 13 9 10 4 5 15 2 14 10 7 8 7 1 12 8 4 15 13 6 7 12 12 4 9 12 9 7 15 6 1 9 15 10 15 15 10 15 9 11 7 14 14 7 14 8 7 11 10 3 9 3 6 1 6 11 15 7 1 8 10 9 14 3 7 12 6 15 11 8 11 10 11 15 13 7 7 5 15 10 3 8 2 2 6 13 1 12 6 14 4 10 1 12 1 12 12 12 9 10 1 15 14 11 15 3 14 7 8 13 4 10 12 5 3 6 7 3 7 4 6 2 2 11 9 3 4 9 8 3 3 13 6 11 4 10 2 2 11 10 12 5 7 9 8 7 2 14 5 9 8 15 15 15 1 14 13 9 13 15 15 14 3 14 9 12 15 4 9 3 4 1 15 2 14 1 8 14 6 9 8 7 13 12 13 13 2 3 11 13 1 9 15 7 8 1 15 6 15 15 4 10 14 4 1 1 14 1 7 5 5 11 1 3 13 8 3 14 9 15 9 2 4 11 10 1 6 4 9 1 8 10 8 7 10 12 10 11 13 13 3 6 14 11 15 3 12 8 13 