P2
33 33
250
15 10 12 4 11 7 5 11 2 11 1 14 15 4 8 10 11 10 10 5 7 4 1 12 13 7 8 13 9 7 7 4 15 14 3 1 1 7 3 7 8 12 10 5 5 8 13 3 6 7 8 13 14 5 14 15 14 13 8 4 1 14 9 6 1 14 14 2 8 8 4 15 10 6 10 1 8 1 11 8 10 9 11 11 6 5 14 8 10 3 7 13 7 5 6 5 11 1 8 8 4 2 14 2 13 9 14 3 6 6 12 13 5 4 3 1 13 1 14 4 11 15 6 2 11 1 14 12 3 5 11 10 3 14 12 13 1 1 6 2 6 7 6 4 15 4 9 2 3 5 13 8 7 1 12 7 15 8 6 7 12 2 15 8 9 12 14 15 5 1 8 15 4 12 1 9 6 8 11 6 4 9 8 6 4 4 9 10 2 12 7 15 9 8 4 14 14 5 6 8 12 10 8 6 12 2 14 8 1 4 6 15 10 4 13 10 14 6 6 6 9 2 14 7 12 6 8 8 2 8 13 1 7 8 6 2 12 11 8 8 13 1 7 9 2 4 0 0 0 0 0 2 3 9 10 10 8 9 8 11 3 1 4 4 4 8 3 3 9 10 7 13 7 0 0 0 0 0 0 0 0 0 0 0 0 0 0 0 0 2 3 3 12 15 11 6 9 3 2 15 5 2 12 0 0 0 0 0 0 0 0 0 0 0 0 0 0 0 0 0 0 0 0 0 0 9 2 3 6 14 13 3 11 11 0 0 0 0 0 0 0 0 0 0 0 0 0 0 0 0 0 0 0 0 0 0 0 0 0 0 0 5 8 6 9 0 0 0 0 0 0 0 0 0 0 0 0 0 0 0 0 0 0 0 0 0 0 0 0 0 0 0 0 0 0 0 0 0 0 0 0 0 0 0 0 0 0 0 0 0 0 0 0 0 0 0 0 0 0 0 0 0 0 0 0 0 0 0 0 0 0 0 0 0 0 0 0 0 2 15 5 15 12 14 13 6 11 14 3 4 1 14 3 10 10 0 0 0 0 0 0 0 0 0 0 0 0 5 15 14 5 15 3 3 6 9 5 15 3 11 13 2 12 11 14 7 2 2 4 11 1 14 0 0 0 0 0 5 10 5 4 11 6 7 13 4 1 11 13 9 7 8 14 7 10 8 3 1 7 14 1 7 3 7 4 8 2 12 1 7 6 11 5 13 1 9 13 11 5 10 11 2 1 8 9 3 4 4 13 8 1 13 3 4 4 15 1 10 5 3 8 13 5 12 9 7 15 6 14 11 13 4 7 4 1 8 4 4 2 2 2 6 7 1 15 15 5 13 8 15 1 13 3 9 5 10 10 10 9 5 13 8 13 15 13 1 10 4 10 15 4 1 9 3 14 2 8 1 6 13 11 12 12 7 13 12 12 2 4 2 11 12 3 9 8 14 6 1 14 15 8 6 3 2 1 11 4 14 1 14 8 4 9 3 2 8 4 4 4 5 2 1 8 1 9 14 9 13 14 13 10 6 12 3 14 6 15 9 4 13 13 12 2 13 13 6 10 14 7 11 13 7 8 15 12 2 14 12 9 14 3 3 5 7 8 15 8 13 15 4 11 7 3 2 15 13 12 5 2 11 11 13 14 14 9 3 15 8 2 5 6 10 12 15 12 6 14 14 1 6 12 7 14 10 7 11 15 14 3 13 13 15 13 8 12 5 13 2 5 7 13 14 1 7 1 7 10 11 5 14 8 12 9 10 15 6 11 11 15 11 10 7 10 14 6 6 7 1 9 13 1 10 2 9 9 7 7 6 13 1 10 13 10 8 13 13 4 14 5 3 1 1 11 10 7 10 15 3 7 11 4 6 15 5 7 5 6 6 7 13 4 13 8 13 11 8 3 14 14 13 12 10 4 6 1 9 1 7 15 12 8 7 15 4 6 9 3 9 2 1 12 9 7 9 8 2 6 15 2 9 9 11 12 7 9 7 9 11 4 5 13 8 4 10 6 11 12 4 4 8 5 4 9 15 10 13 9 7 4 2 11 6 5 4 1 8 8 11 11 10 11 13 15 11 5 4 1 12 14 11 2 6 1 9 8 3 13 5 10 4 1 3 12 13 9 3 7 3 12 6 3 6 13 1 11 2 15 10 12 8 10 13 3 2 2 9 9 9 15 11 1 11 6 10 3 13 12 9 5 4 3 4 4 8 9 3 4 7 9 7 5 9 15 6 7 2 6 12 15 15 14 8 4 8 4 1 3 11 5 14 12 3 9 3 6 2 12 10 15 9 8 10 2 6 11 3 13 14 5 8 4 6 11 14 12 7 10 9 6 5 14 15 15 8 14 4 8 14 7 1 13 8 9 6 8 2 4 12 4 6 1 4 4 11 8 7 8 2 1 5 6 1 2 2 8 6 10 5 11 14 4 7 14 2 11 7 3 2 15 8 3 1 4 4 13 14 9 15 11 