P2
33 33
250
13 8 14 3 9 4 4 6 2 10 15 9 3 3 13 15 11 14 2 11 2 5 2 12 15 13 2 6 3 7 5 4 14 5 3 13 12 11 2 8 7 7 4 2 13 13 9 12 11 10 4 1 13 6 14 10 12 12 12 1 12 7 7 3 13 13 10 5 3 14 4 6 7 10 12 14 14 14 15 8 8 13 1 4 3 15 10 12 13 7 13 7 13 6 11 4 10 3 3 14 8 6 6 4 12 2 8 1 10 4 13 4 4 3 11 5 3 15 9 4 4 3 8 11 14 1 13 11 10 3 5 11 10 11 6 5 6 9 12 8 7 12 11 1 3 6 11 15 6 1 10 5 1 11 14 8 6 9 10 9 6 2 9 13 11 4 7 15 11 7 6 4 7 15 10 3 3 15 8 11 12 15 6 2 5 10 12 5 10 7 6 15 14 6 12 4 1 6 14 7 4 10 8 5 9 12 2 15 15 14 13 1 2 10 9 7 1 10 6 6 5 8 15 9 4 3 15 12 11 0 0 3 7 7 12 15 7 11 4 4 3 2 9 7 8 15 15 11 12 1 2 13 8 10 9 4 3 15 13 13 0 0 0 0 1 4 6 1 13 12 14 1 14 6 2 15 3 2 15 6 4 8 9 3 10 7 9 12 11 1 0 0 0 0 0 0 12 11 0 0 0 0 3 12 7 5 1 15 3 4 10 12 8 8 11 5 1 8 15 0 0 0 0 0 0 0 0 7 14 12 2 4 12 0 0 0 0 0 0 0 0 0 0 0 0 0 0 0 0 0 0 0 0 0 0 0 0 0 12 1 2 9 5 15 7 13 3 6 6 0 0 0 0 0 0 0 0 0 0 0 0 0 0 0 0 0 0 0 0 13 2 14 6 9 10 12 10 7 10 10 6 14 7 13 2 0 0 0 0 0 0 0 0 0 0 0 0 0 0 0 4 10 9 10 13 15 11 2 12 7 9 2 1 4 5 13 6 3 3 10 6 2 12 0 0 0 0 0 15 8 2 1 3 9 4 3 8 1 10 11 1 4 14 1 5 9 11 4 14 5 7 2 2 6 12 10 3 5 8 14 10 9 10 1 9 4 5 7 6 5 9 2 8 14 7 3 1 12 3 7 12 1 13 4 10 14 5 11 3 9 8 5 15 3 4 4 7 10 2 3 7 6 11 8 10 1 9 11 1 1 14 14 8 10 9 8 5 14 8 7 7 11 3 13 5 9 3 10 13 2 10 6 11 11 12 3 11 13 9 1 1 2 2 12 1 6 15 3 14 15 2 6 1 8 13 3 10 11 9 8 13 10 5 12 10 2 6 5 15 10 14 4 3 8 3 7 1 14 8 5 9 1 14 3 9 4 6 8 8 8 9 14 8 14 5 5 14 11 2 9 2 7 10 2 14 11 15 9 2 4 11 2 2 5 8 8 13 7 3 11 3 3 4 1 4 10 6 1 14 13 1 11 9 5 6 12 5 2 3 7 9 2 14 5 6 9 9 6 10 15 15 5 8 11 13 4 10 11 14 8 9 12 3 3 4 10 3 5 1 14 5 3 11 2 15 13 8 7 11 12 2 5 1 15 3 2 1 4 7 1 11 15 12 5 6 5 10 9 1 11 6 10 8 15 8 13 3 1 9 6 4 5 13 1 9 2 12 10 3 12 5 10 8 3 6 1 7 3 13 8 1 4 10 11 14 8 14 1 3 11 3 9 13 13 6 7 6 14 4 9 2 9 7 14 3 13 9 9 10 15 5 12 6 9 11 10 3 15 15 14 12 10 10 4 10 8 9 4 1 4 3 7 7 9 13 12 9 11 14 8 2 4 4 7 5 15 3 1 10 5 1 12 6 14 2 15 3 1 2 12 2 14 15 15 15 3 8 13 3 5 2 7 11 8 5 13 12 14 10 12 11 2 12 8 9 14 11 9 10 5 3 5 14 5 1 11 8 2 8 8 1 2 10 3 6 5 11 4 13 4 1 13 2 10 9 13 4 10 9 4 8 7 1 6 4 13 3 1 7 11 9 14 13 12 13 8 5 5 9 4 1 13 11 9 10 3 3 5 15 13 12 14 6 3 5 3 2 7 3 13 9 3 11 15 4 13 7 7 9 14 9 8 11 12 4 3 4 11 14 8 15 6 1 15 9 1 4 1 6 12 15 3 7 12 14 4 11 4 7 5 2 6 15 8 13 5 1 10 8 5 5 4 1 1 15 4 10 8 3 6 3 7 6 2 12 12 9 15 14 4 10 9 14 3 15 6 9 11 15 13 4 7 12 10 13 5 1 9 13 4 2 12 13 3 12 14 14 2 12 7 8 9 9 4 13 11 10 11 7 10 4 7 6 11 7 8 15 11 3 3 14 7 11 9 13 14 5 9 9 12 6 6 9 6 2 13 11 5 8 6 4 5 10 6 1 13 11 7 5 3 9 4 2 8 11 13 1 5 5 