P2
33 33
250
1 13 2 6 4 4 4 10 10 15 1 8 10 14 1 5 6 9 6 4 11 7 3 11 7 8 2 15 10 11 7 7 15 14 11 12 11 3 11 2 5 12 11 7 11 3 2 15 8 15 12 12 8 1 11 7 2 10 3 14 10 9 9 10 7 4 3 2 5 15 3 3 5 3 5 11 9 12 9 15 10 7 6 10 9 10 11 3 5 2 15 12 11 13 9 15 2 11 5 3 15 6 10 8 10 8 9 14 10 12 15 11 5 3 4 2 6 5 13 6 9 3 10 7 3 3 3 5 6 14 5 10 9 14 3 12 14 3 1 5 4 1 5 6 3 10 3 15 5 2 9 6 13 10 3 9 3 1 2 12 8 9 11 1 11 8 1 4 9 2 1 15 3 12 6 10 5 15 14 8 11 13 11 2 9 3 14 12 12 12 13 6 6 13 3 7 5 3 14 2 6 9 7 4 9 5 15 2 15 13 4 3 6 3 4 12 12 8 7 3 12 12 7 15 11 15 14 3 12 13 3 3 14 14 5 5 5 10 4 11 1 11 1 3 15 8 4 11 15 12 11 6 14 6 1 12 2 3 9 12 14 5 7 4 12 11 5 1 2 4 2 8 10 6 11 15 8 1 13 5 13 14 13 5 14 10 10 8 15 4 6 9 8 12 2 8 12 8 6 14 6 12 7 11 3 6 8 11 15 6 11 10 4 9 2 2 7 10 11 5 12 13 4 13 11 7 12 3 2 7 12 15 2 11 8 2 2 9 6 14 14 3 3 10 1 2 11 13 7 7 3 9 12 7 15 4 10 1 10 11 2 1 15 6 8 2 12 2 2 12 9 10 13 10 4 11 6 6 1 2 6 5 5 5 12 11 13 6 8 14 6 2 11 6 10 1 4 2 3 7 2 5 14 13 6 14 14 8 2 6 1 4 4 1 12 15 8 12 4 7 6 4 10 13 9 2 8 8 4 13 5 14 2 12 7 9 6 9 2 13 5 4 12 12 5 14 10 9 8 8 3 10 15 4 6 2 8 15 1 14 0 0 1 12 9 6 7 14 14 15 1 7 15 2 15 1 10 9 13 3 6 6 1 5 12 11 7 2 2 12 3 0 0 0 0 5 5 5 7 2 10 14 3 15 12 5 13 10 5 1 3 14 2 13 15 13 13 15 13 11 1 7 0 0 0 0 0 0 8 14 14 0 0 0 1 14 5 3 10 9 13 6 1 13 14 1 14 11 3 5 13 10 0 0 0 0 0 0 0 0 0 7 15 15 0 0 0 0 0 12 14 15 11 5 11 9 1 11 12 12 4 12 0 0 0 0 0 0 0 0 0 0 12 6 7 8 6 10 0 0 0 0 0 0 0 0 0 0 0 0 0 0 0 0 0 0 0 0 0 0 0 0 0 0 2 8 6 14 14 13 8 1 0 0 0 0 0 0 0 0 0 0 0 0 0 0 0 0 0 0 0 0 0 0 0 0 10 1 7 4 15 8 14 5 9 5 0 0 0 0 0 0 0 0 0 0 0 0 0 0 0 0 0 0 0 0 0 11 7 10 5 4 14 6 11 4 14 9 5 1 9 0 0 0 0 0 0 0 0 0 0 0 0 0 0 0 0 0 4 13 11 7 9 5 3 13 11 5 6 7 14 5 13 6 5 3 0 0 0 0 0 0 0 0 0 0 0 0 0 7 7 14 6 8 15 15 15 8 3 12 8 14 5 2 6 13 15 10 15 1 4 8 13 0 0 0 0 4 9 13 9 9 3 2 15 6 5 14 13 8 9 6 4 2 3 3 4 8 1 1 9 4 2 11 12 6 8 14 13 8 5 11 14 5 10 15 7 13 10 8 6 5 2 10 9 11 14 9 15 1 2 10 2 8 5 4 2 2 7 1 9 12 15 3 14 7 9 9 5 5 12 15 11 12 9 9 9 12 14 8 14 2 2 11 10 12 7 10 8 4 4 6 2 15 14 4 4 2 6 11 15 1 6 3 2 10 9 4 2 12 15 7 11 3 8 15 11 4 9 10 9 10 1 6 15 5 5 5 6 2 15 15 14 3 7 15 5 3 3 10 8 9 6 12 15 6 15 11 10 1 8 8 1 1 4 1 6 8 12 5 8 15 6 13 13 5 4 10 9 13 3 4 2 10 2 3 15 10 13 1 11 8 7 13 9 15 12 9 3 7 12 3 4 9 13 14 11 3 1 2 9 2 13 3 9 5 3 13 6 15 7 6 5 1 1 1 15 1 4 4 2 3 14 8 7 14 7 12 12 1 1 10 12 1 12 12 9 3 8 3 13 13 14 13 9 1 7 10 12 5 5 4 13 12 11 6 14 4 15 15 3 15 2 12 9 11 4 5 3 8 2 13 4 1 14 14 8 1 8 3 2 14 3 1 11 8 2 14 12 7 13 8 3 11 12 1 13 4 9 12 7 6 5 13 3 7 5 14 7 