P2
33 33
250
2 10 6 3 8 7 5 3 3 5 5 12 10 12 8 12 15 11 15 13 14 8 6 2 11 5 8 11 11 1 12 13 10 7 12 10 14 9 4 3 6 4 2 6 12 8 2 10 4 5 11 12 3 2 5 9 4 1 5 15 7 2 4 15 13 15 4 5 2 15 11 9 13 14 6 4 14 3 12 2 8 11 15 2 4 14 4 2 9 10 6 13 4 8 15 9 8 1 5 2 13 13 12 7 5 8 8 5 2 2 10 4 12 2 12 6 14 5 2 4 3 11 5 8 8 2 3 5 11 3 6 11 9 14 4 5 12 8 10 8 7 12 14 6 10 5 9 1 5 5 14 8 14 5 10 2 10 4 12 7 11 13 3 11 14 15 9 8 14 15 8 1 12 13 13 4 2 4 15 15 12 14 8 8 11 11 14 4 15 5 5 0 15 9 3 7 9 6 8 7 9 15 10 3 12 14 6 10 10 5 6 9 13 1 1 4 6 11 13 13 3 15 7 0 0 0 4 13 14 3 2 9 10 2 3 15 6 8 15 1 1 15 4 1 1 9 8 8 5 4 3 6 9 6 13 0 0 0 0 12 12 7 12 14 3 4 8 7 1 2 4 2 5 2 11 8 6 15 14 2 4 1 14 6 7 10 0 0 0 0 0 11 2 1 6 7 3 13 1 1 3 8 6 7 7 2 15 7 2 3 6 13 1 15 15 4 5 0 0 0 0 0 0 6 1 5 5 4 11 15 0 8 9 6 9 9 3 12 11 4 2 13 15 10 11 8 0 0 0 0 0 0 0 0 0 4 3 6 1 3 8 1 11 0 0 0 0 0 0 0 0 0 0 0 0 0 0 0 0 0 0 0 0 0 0 0 0 15 11 5 9 3 1 10 3 9 0 0 0 0 0 0 0 0 0 0 0 0 0 0 0 0 0 0 0 0 0 0 11 15 1 12 5 3 6 4 12 2 14 0 0 0 0 0 0 0 0 0 0 0 0 0 0 0 0 0 0 0 0 14 1 15 14 9 10 2 1 5 15 11 1 15 0 0 0 0 0 0 0 0 0 0 0 0 0 0 0 0 0 12 3 11 4 14 7 6 14 7 12 15 6 9 1 2 3 9 9 10 2 5 0 0 0 0 0 0 4 11 9 2 13 10 8 6 12 13 1 5 3 13 1 7 6 7 8 2 10 13 11 15 4 14 11 10 5 8 2 5 2 4 13 13 8 14 9 1 11 11 15 6 1 2 3 2 14 6 6 1 12 14 2 9 6 11 11 14 10 1 11 11 6 5 3 13 2 11 6 14 10 13 11 4 6 8 10 6 5 12 12 2 15 13 11 2 5 5 11 7 10 8 2 13 15 6 9 2 2 15 4 11 2 4 1 5 7 15 9 14 10 15 9 15 11 14 3 3 10 2 10 10 11 5 13 14 10 8 9 13 12 12 12 7 9 14 6 2 11 9 13 1 6 12 5 8 7 5 8 11 6 1 15 1 7 1 1 10 11 8 1 4 11 12 8 3 3 1 3 7 8 8 5 10 13 9 2 6 9 10 4 11 3 2 11 11 5 15 11 15 7 11 10 5 7 10 6 7 11 4 14 14 2 3 4 2 8 11 11 4 3 3 6 4 4 14 1 3 2 6 6 12 5 14 3 1 4 9 3 7 4 6 10 7 1 7 7 6 1 8 14 9 1 6 6 11 6 1 9 5 4 13 2 3 8 7 2 13 14 11 8 9 3 1 4 3 10 13 8 5 12 14 1 15 6 9 14 6 4 14 11 8 15 2 15 11 4 12 13 14 3 7 10 8 8 1 2 7 5 14 3 11 11 6 8 6 4 7 8 11 7 3 11 5 4 1 3 15 8 12 12 7 13 14 1 8 7 10 2 5 13 15 15 2 4 4 2 1 4 1 5 5 11 9 7 14 13 1 6 1 4 10 9 12 13 3 2 11 7 4 14 12 2 4 5 12 1 10 6 13 5 6 5 6 13 9 9 6 4 13 6 11 14 3 15 3 12 3 9 11 3 1 15 5 15 14 9 10 11 2 3 4 14 5 9 7 14 14 8 4 5 14 15 10 6 5 14 14 12 3 11 14 12 14 11 11 13 8 15 6 2 1 11 6 10 6 8 11 11 3 6 12 13 9 3 12 11 8 9 1 9 14 1 12 9 2 4 8 1 15 14 2 11 5 14 12 8 6 3 5 14 6 15 2 1 8 8 2 10 9 7 2 9 9 3 3 13 11 4 9 10 15 13 4 7 7 7 3 14 9 10 1 6 3 4 7 7 12 4 9 8 13 13 13 10 14 3 2 8 12 15 4 10 6 15 7 8 10 1 6 11 13 15 14 5 7 15 14 13 2 1 9 13 15 12 1 4 13 15 3 4 3 3 9 1 9 12 5 11 15 6 15 11 8 8 4 9 13 1 15 14 8 5 15 9 10 10 10 11 9 1 