P2
33 33
250
6 14 1 14 13 3 4 6 11 4 1 11 14 1 1 11 3 14 14 7 1 5 12 12 12 15 7 1 8 1 4 10 10 1 13 1 8 1 10 8 2 14 5 10 13 5 14 4 8 10 14 10 3 4 11 8 12 6 5 4 9 10 9 12 9 13 5 13 15 9 10 14 15 14 10 11 6 3 9 3 3 13 7 4 5 12 14 10 11 10 7 11 5 14 9 11 13 12 15 9 15 11 12 1 6 15 2 14 14 4 15 3 7 1 15 1 8 3 7 1 3 12 5 2 9 13 6 13 13 6 5 8 10 11 9 10 14 3 10 12 5 3 14 2 4 5 1 14 9 7 11 10 9 15 6 13 9 3 4 3 8 2 1 3 13 8 8 5 3 5 11 13 8 13 9 5 15 8 13 10 8 6 1 1 7 13 3 14 14 7 12 9 13 5 12 3 7 13 13 0 7 6 9 12 1 13 8 9 12 10 13 14 3 15 2 14 10 1 3 5 5 11 3 10 8 12 9 13 4 15 8 15 0 0 0 8 9 12 8 10 11 11 14 10 7 13 1 4 3 14 14 15 1 13 5 6 8 14 5 13 11 7 14 7 14 0 0 0 0 10 6 15 4 14 3 3 2 1 2 14 4 5 5 10 3 13 2 1 3 7 6 12 5 10 5 0 0 1 0 0 0 0 0 0 15 12 12 10 14 15 15 12 8 9 8 1 4 9 14 12 2 10 7 1 10 12 0 0 0 0 3 14 0 0 0 0 0 0 0 0 15 9 8 1 1 12 12 15 7 8 6 5 5 9 12 2 0 0 0 0 0 0 0 1 15 3 0 0 0 0 0 0 0 0 0 0 0 0 11 1 5 7 6 11 0 0 0 0 0 0 0 0 0 0 0 0 2 10 6 4 0 0 0 0 0 0 0 0 0 0 0 0 0 0 0 0 0 0 0 0 0 0 0 0 0 0 0 0 8 7 5 8 10 7 8 0 0 0 0 0 0 0 0 0 0 0 0 0 0 0 0 0 0 0 0 0 0 0 0 11 3 7 7 15 1 3 1 2 5 9 0 0 0 0 0 0 0 0 0 0 0 0 0 0 0 0 0 0 0 0 10 5 4 14 11 5 2 13 7 13 15 11 6 3 8 1 0 0 0 0 0 0 0 0 0 0 0 0 0 0 4 15 8 14 2 2 12 12 10 10 6 4 13 10 3 14 14 3 10 1 5 8 9 5 12 9 12 14 10 14 7 8 5 3 6 5 3 6 12 6 3 13 12 5 12 13 4 3 4 4 1 4 6 6 11 8 10 14 3 7 5 8 13 4 2 11 7 5 9 15 3 12 13 14 13 10 9 13 9 5 11 2 12 7 4 13 12 5 15 13 4 11 8 7 13 10 7 4 9 5 2 5 6 8 3 5 3 13 14 5 12 1 1 8 15 11 11 1 13 6 7 3 11 11 14 8 5 11 13 8 9 1 15 3 7 2 14 5 11 1 6 5 8 7 4 14 8 7 6 7 3 1 7 12 4 12 12 7 9 2 14 15 4 2 6 14 8 15 8 1 15 5 4 10 6 2 1 11 11 1 8 14 10 13 14 12 5 15 14 2 1 15 5 13 3 10 14 12 11 7 15 13 3 5 12 1 5 11 11 7 10 4 2 11 6 3 10 7 10 11 14 10 14 3 9 6 3 8 14 13 4 4 1 13 1 11 15 14 15 1 5 15 2 11 3 11 6 1 9 12 15 11 1 9 10 3 1 6 11 10 8 1 4 8 2 5 15 8 12 7 7 7 15 12 4 13 14 12 11 1 6 10 6 13 10 7 15 5 7 12 3 15 2 13 10 3 1 15 2 1 12 10 9 9 11 12 3 7 11 11 13 7 10 13 13 5 9 7 5 15 15 14 2 2 13 7 4 15 4 14 3 15 2 10 9 14 14 9 5 10 7 4 15 3 11 15 2 3 15 10 5 15 5 12 15 9 4 15 15 5 13 14 9 13 6 13 5 14 2 1 5 13 5 14 7 4 15 6 7 7 5 9 11 5 12 12 13 7 4 5 12 1 11 7 5 11 11 15 7 2 5 9 1 9 12 8 4 1 6 14 13 7 14 3 12 13 5 2 15 1 5 5 7 7 9 7 5 10 10 6 10 6 13 2 2 3 3 4 11 11 6 14 10 12 11 15 6 12 14 7 8 8 14 5 6 15 12 11 3 10 7 3 2 2 10 12 9 3 4 4 11 8 4 5 13 5 1 8 8 15 12 9 3 12 1 11 11 13 1 8 12 15 14 5 6 10 13 7 6 7 12 12 9 1 3 9 10 3 14 1 6 4 11 10 7 12 13 5 8 9 4 13 8 9 1 4 4 5 15 9 7 13 14 3 10 8 8 2 13 7 6 1 11 6 5 3 10 7 1 13 11 5 11 3 12 2 3 1 11 11 8 7 6 6 12 5 13 2 9 