P2
33 33
250
12 1 3 6 4 14 9 3 9 9 13 15 3 5 10 9 8 14 8 4 12 14 2 8 1 14 4 8 11 13 14 8 4 5 3 11 6 7 13 13 4 4 10 1 8 6 12 13 2 11 9 9 11 13 2 1 1 1 8 1 6 7 14 2 13 15 4 15 6 2 8 10 4 11 9 5 15 9 3 9 2 15 6 15 5 2 1 15 2 13 7 9 1 1 2 2 7 15 8 5 2 3 10 11 3 2 10 1 2 2 9 4 14 5 10 3 13 10 13 7 15 3 12 11 2 6 1 5 9 2 4 3 8 2 11 11 2 12 9 10 8 4 6 15 11 14 6 1 10 11 7 7 4 12 5 4 5 13 5 15 12 8 8 13 14 10 9 4 4 6 1 4 8 13 8 2 7 4 2 6 15 2 7 6 3 8 12 8 13 3 12 8 13 3 14 8 5 4 12 6 7 8 9 2 1 3 2 1 13 10 11 7 0 0 0 0 0 0 5 5 13 15 9 13 10 7 6 15 4 9 14 11 8 6 3 14 7 12 15 1 0 0 0 0 0 0 0 0 0 0 0 0 0 0 0 0 14 2 9 11 6 5 2 5 5 2 1 1 10 15 0 0 0 0 0 0 0 0 0 0 0 0 0 0 0 0 0 0 0 0 0 0 5 9 15 14 10 4 9 15 12 13 0 0 0 0 0 0 0 0 0 0 0 0 0 0 0 0 0 0 0 0 0 0 0 0 0 11 6 4 4 14 7 0 0 0 0 0 0 7 10 5 14 5 4 7 10 6 11 10 11 10 6 6 9 0 0 0 0 0 0 3 4 5 15 0 0 0 0 4 8 5 15 14 10 9 6 4 5 3 7 14 2 7 8 10 5 1 12 12 5 0 0 0 0 12 9 0 0 0 13 12 5 11 10 8 11 14 10 5 5 12 8 8 15 2 8 2 15 9 14 13 13 15 12 6 0 0 0 8 0 0 7 9 12 5 5 7 8 11 15 9 14 12 11 14 9 9 7 8 6 7 5 11 4 11 9 3 11 3 0 0 0 0 11 7 1 8 3 3 3 9 3 13 15 7 9 9 6 7 8 12 12 9 8 8 13 10 3 12 9 6 11 12 0 0 0 4 5 11 12 9 8 8 14 14 8 8 1 14 1 4 7 10 11 11 1 3 8 7 13 9 12 11 6 7 12 0 0 10 6 7 8 13 4 10 13 2 6 4 4 3 2 11 10 1 12 2 10 4 5 4 12 3 9 11 6 10 14 13 1 0 6 12 10 8 13 1 5 1 5 9 15 7 7 10 6 8 8 3 2 6 4 11 9 11 15 3 5 15 13 15 6 8 8 7 6 4 5 10 9 12 1 9 3 4 7 13 15 6 8 8 15 8 12 13 4 14 10 8 15 1 15 4 4 10 3 8 12 12 8 8 10 9 10 6 13 10 6 2 6 4 13 12 13 10 11 15 15 12 2 10 6 8 13 15 15 15 10 14 11 4 3 5 15 1 9 7 13 6 3 11 3 9 3 12 12 9 10 5 1 1 9 13 3 15 14 9 6 3 13 8 11 10 9 5 3 1 12 4 15 1 1 9 12 15 4 3 4 2 6 2 8 2 8 12 6 13 1 1 11 9 4 14 5 14 13 10 12 5 9 15 8 1 11 2 8 11 5 2 14 3 14 8 11 11 13 6 8 6 11 1 15 11 5 2 9 9 4 3 6 12 15 7 7 8 12 5 2 3 12 10 10 8 6 15 11 12 5 6 5 15 4 14 9 7 15 14 10 11 6 10 14 4 7 11 4 6 5 2 1 14 5 8 11 3 2 6 15 9 8 12 8 10 15 12 6 14 8 15 12 15 6 10 2 14 11 7 4 4 8 6 14 3 6 6 2 4 2 6 3 7 10 15 3 6 3 10 11 1 10 2 12 7 7 6 15 9 3 4 12 3 2 13 6 6 13 12 6 14 14 7 9 10 12 9 11 13 3 2 13 10 4 14 1 5 7 10 13 3 9 3 10 14 12 1 1 12 11 15 2 10 9 11 13 3 13 13 4 11 9 12 12 2 10 8 2 13 2 15 13 13 5 9 2 11 11 4 12 10 12 9 10 7 9 3 2 7 6 15 12 5 7 2 6 13 11 3 9 15 9 4 14 7 1 9 2 3 8 7 2 8 7 10 13 1 14 12 12 7 4 15 7 3 7 1 7 3 7 4 10 12 14 15 3 9 10 9 8 12 8 14 14 5 11 6 7 3 6 2 14 4 10 7 7 2 6 7 13 3 1 14 3 8 10 14 5 1 10 2 11 8 14 7 10 1 5 8 11 5 11 5 8 11 1 7 11 9 13 6 13 2 13 6 14 4 2 2 5 9 4 9 10 11 8 5 5 12 7 6 15 12 3 4 1 3 4 8 15 14 13 14 2 6 8 7 10 11 8 5 11 7 12 14 7 2 2 7 11 