P2
33 33
250
7 13 7 15 10 1 6 8 7 1 11 1 14 14 15 13 2 5 6 2 2 8 6 9 15 9 12 12 13 11 15 5 14 5 3 2 9 8 9 9 12 2 9 7 6 7 15 8 4 6 1 15 8 4 11 2 8 4 8 8 7 5 2 10 9 14 7 10 1 8 10 10 7 11 4 14 8 1 10 15 12 6 9 1 10 5 11 13 1 2 4 9 14 9 11 13 9 11 15 15 11 13 4 10 1 4 11 7 9 4 9 9 9 4 2 14 13 10 15 13 7 4 11 14 3 15 2 13 8 12 11 8 6 4 12 4 12 6 2 9 10 6 7 6 8 7 7 12 5 12 1 11 3 13 15 12 15 14 7 4 15 1 1 15 13 2 11 10 8 7 11 14 9 2 15 13 3 4 7 15 14 13 2 6 11 2 13 5 15 5 7 9 14 1 6 5 13 10 9 6 14 12 1 9 3 5 10 14 13 9 14 11 10 2 1 7 11 2 7 2 2 4 11 7 10 10 2 10 13 3 3 7 9 1 8 5 14 14 9 2 3 11 1 6 9 2 12 14 1 6 3 8 3 10 12 14 5 5 11 9 12 13 14 10 3 9 7 12 1 5 5 12 10 5 5 14 5 12 12 10 12 7 15 9 8 3 11 13 13 8 2 13 2 13 7 14 5 9 13 10 13 13 6 12 8 11 8 1 9 14 13 1 15 14 6 13 3 14 7 11 8 4 15 13 13 7 14 5 7 14 15 12 13 13 7 10 7 5 12 12 2 5 14 2 8 4 9 10 0 0 0 0 0 0 9 4 10 15 10 9 2 2 2 14 14 12 14 2 10 5 10 12 15 6 4 5 0 0 0 0 0 0 0 0 0 0 0 0 0 0 0 0 0 5 13 7 13 3 7 8 15 4 11 13 6 6 0 0 0 0 0 0 0 0 0 0 0 0 1 6 10 0 0 0 7 0 0 0 0 12 4 2 1 10 13 3 1 0 0 0 0 0 0 0 0 0 0 0 0 0 0 2 7 5 0 0 1 11 10 0 0 0 12 8 8 7 13 4 0 0 0 0 0 0 0 0 0 0 0 0 0 0 0 0 2 13 1 0 12 8 8 10 14 0 0 5 10 14 11 0 0 0 0 0 0 0 0 0 0 0 0 0 0 0 0 0 0 0 0 0 0 0 7 14 11 0 0 7 4 6 4 0 0 0 0 0 0 0 2 6 15 10 13 9 7 11 15 10 8 13 2 0 0 0 0 0 12 0 0 0 12 5 0 0 0 0 0 12 3 1 15 3 9 10 5 6 12 3 13 6 4 5 6 6 5 4 2 2 0 0 0 0 0 6 0 0 0 0 10 13 7 5 3 14 3 8 7 8 9 2 12 8 8 12 10 5 12 3 9 9 7 11 8 0 0 0 0 0 0 1 8 2 10 7 7 12 9 13 2 8 14 12 12 6 4 7 9 9 13 13 4 8 9 10 15 1 4 13 10 0 0 8 1 3 10 8 11 5 11 3 8 1 11 6 3 8 9 15 5 13 15 9 3 14 13 15 11 4 6 3 14 1 12 11 14 10 2 9 3 13 6 1 11 10 3 10 3 6 6 6 3 3 14 6 9 14 7 3 10 14 13 1 9 5 12 3 15 10 6 1 4 7 11 1 6 8 1 14 13 15 14 3 12 2 4 4 15 3 10 5 8 14 1 13 13 4 13 9 3 15 7 2 14 10 10 14 6 1 13 4 3 1 15 7 7 15 8 1 15 15 9 14 1 2 2 11 15 15 4 9 15 1 1 2 14 13 2 8 10 15 11 1 10 13 14 5 13 1 15 13 5 4 5 6 10 10 9 9 1 10 8 11 8 12 13 11 8 2 3 5 8 2 3 9 8 3 2 8 13 11 15 6 14 14 3 4 1 5 13 7 15 6 4 15 4 9 2 3 8 2 7 1 12 6 12 5 2 10 3 12 1 6 15 13 1 9 15 13 3 9 13 7 13 2 10 10 6 12 1 13 10 2 5 10 11 12 6 8 1 11 15 9 13 4 7 8 9 11 11 6 9 12 5 4 5 9 13 7 15 6 4 1 15 7 7 15 4 9 2 13 2 5 8 10 1 3 8 15 4 1 4 4 4 7 2 3 5 9 3 3 8 1 4 10 4 15 7 9 13 1 12 2 12 9 9 12 4 5 15 2 11 10 14 8 2 1 5 8 5 15 11 5 8 1 3 7 14 14 4 12 13 7 10 6 13 1 9 6 11 10 14 3 15 4 7 9 2 7 8 7 4 15 6 12 8 4 13 13 15 8 15 2 5 11 4 15 10 6 12 14 13 11 1 4 13 5 14 10 11 12 12 7 9 7 5 3 8 8 6 11 12 9 1 3 10 5 14 15 11 5 7 15 12 14 10 6 15 5 14 14 13 14 9 5 6 8 7 1 9 4 7 2 10 12 6 6 8 2 4 