P2
33 33
250
9 4 12 8 8 10 6 13 4 10 3 6 9 3 11 2 1 1 6 2 9 10 7 8 14 1 4 7 7 4 6 15 14 6 13 6 3 7 4 5 1 5 9 11 12 12 5 5 10 7 6 1 4 7 2 4 6 15 15 11 10 11 7 9 4 7 9 10 1 2 10 12 5 9 11 11 4 13 13 3 8 10 12 6 5 14 5 3 14 15 13 5 7 4 14 4 8 7 6 4 15 4 2 5 9 10 7 10 5 5 13 2 9 1 7 4 8 9 7 1 15 7 8 15 7 5 14 10 9 6 2 5 12 1 7 11 1 11 14 3 9 12 12 12 1 10 6 7 2 8 10 3 12 5 7 2 4 1 6 6 13 11 10 12 9 12 5 8 13 2 2 12 9 7 12 13 9 5 9 9 14 11 2 3 1 13 6 14 8 11 7 2 11 11 11 3 4 11 15 9 9 4 7 15 12 4 14 11 7 14 4 14 9 15 15 10 8 14 13 9 7 4 5 7 12 6 5 9 9 7 9 14 6 5 5 14 15 13 6 1 6 8 1 12 8 15 13 2 4 12 10 15 3 7 10 8 3 13 3 15 15 9 2 1 5 10 9 6 7 10 10 4 7 2 14 15 10 2 8 11 9 15 15 15 10 14 10 15 2 15 4 5 1 9 2 9 3 9 12 9 8 3 14 11 7 6 2 4 11 15 11 9 3 3 15 5 14 8 6 8 13 8 4 11 15 1 4 2 7 12 3 14 11 10 2 3 10 1 7 13 14 4 7 15 11 7 11 10 9 11 2 7 12 3 9 14 1 1 4 8 11 11 5 4 14 11 14 10 7 2 7 8 10 3 7 9 4 7 1 15 12 3 6 5 4 5 6 3 3 8 8 8 2 10 4 1 3 12 14 15 9 3 14 4 3 1 2 6 7 5 6 1 15 10 3 14 2 4 14 7 2 1 13 1 12 9 12 1 10 1 2 2 8 10 2 5 10 3 12 10 15 6 4 10 13 8 14 6 12 10 3 12 8 4 14 3 12 6 4 9 1 8 14 8 14 9 7 3 5 13 9 12 12 6 6 12 15 11 4 8 4 15 4 12 13 9 6 7 10 10 2 15 4 15 15 13 3 10 9 8 4 7 6 12 4 15 7 8 9 4 1 3 3 4 12 6 13 10 11 6 1 12 4 8 12 5 9 5 14 1 15 5 10 5 7 3 5 9 8 3 10 9 7 8 5 12 5 3 9 7 1 12 4 1 14 9 7 5 10 9 11 11 7 11 9 2 2 3 10 7 12 10 11 8 1 10 15 2 2 9 4 2 12 8 8 14 8 13 9 14 13 4 7 2 6 4 5 5 4 15 10 6 13 4 9 6 8 12 7 6 8 7 10 5 4 9 5 13 11 13 3 11 12 6 9 3 7 1 9 8 0 5 2 12 4 5 8 11 13 14 13 10 9 10 3 2 5 7 1 13 5 14 6 13 13 10 11 12 8 4 10 3 11 0 0 6 9 12 10 6 15 6 9 10 11 14 13 2 15 5 6 14 5 10 11 6 14 5 13 7 14 4 3 13 8 0 0 0 10 2 2 6 5 14 11 2 1 3 13 9 12 14 15 4 8 1 10 6 11 5 3 8 12 5 11 0 10 7 0 0 0 0 1 7 13 13 2 10 15 14 5 12 4 14 7 2 9 4 14 2 7 6 8 7 15 3 1 0 0 8 11 15 0 0 0 8 11 7 2 13 4 9 14 15 5 15 7 9 8 11 9 14 3 13 4 8 5 14 0 0 0 0 10 4 2 0 0 0 0 0 4 6 10 8 2 7 13 7 2 4 1 3 3 1 14 1 5 9 6 0 0 0 0 0 12 14 3 6 10 0 0 0 0 0 2 14 5 14 5 9 10 1 10 15 7 2 14 3 5 2 0 0 0 0 0 0 9 8 15 2 7 2 3 0 0 0 0 0 0 7 2 5 8 2 11 4 10 7 9 8 0 0 0 0 0 0 0 0 11 4 11 5 2 7 5 8 15 0 0 0 0 0 0 0 0 0 0 0 0 0 0 0 0 0 0 0 0 0 0 4 13 7 4 12 7 13 12 14 6 7 14 0 0 0 0 0 0 0 0 0 0 0 0 0 0 0 0 0 0 0 14 12 5 9 2 6 4 9 4 3 13 5 6 10 8 12 2 0 0 0 0 0 0 0 0 0 0 0 0 0 0 1 14 3 7 11 14 2 2 10 14 11 8 1 15 4 9 7 6 10 3 13 11 7 0 0 0 0 0 10 1 10 12 8 1 10 8 9 8 15 4 3 8 4 9 1 6 11 13 6 12 10 12 3 12 8 2 14 8 5 5 7 8 4 3 9 5 8 10 12 8 9 9 9 15 5 5 1 11 5 10 9 6 6 11 9 14 10 8 2 7 5 13 4 10 10 6 1 15 14 11 1 9 9 12 4 10 3 12 