P2
33 33
250
5 2 10 3 10 13 5 4 3 8 14 13 14 7 2 8 15 2 6 2 8 4 8 8 4 8 11 3 6 5 7 3 2 12 5 11 2 13 14 8 11 2 15 2 5 10 1 11 2 11 2 5 6 4 11 4 14 6 6 5 2 10 9 7 7 4 12 15 10 3 12 10 10 4 5 10 6 7 3 9 12 2 4 9 10 9 6 14 13 3 6 12 15 8 2 6 3 13 14 10 15 8 9 14 12 5 4 6 6 5 14 4 8 5 7 11 7 13 2 12 2 7 14 7 14 6 11 10 5 15 10 1 14 12 6 3 6 3 15 11 15 14 12 8 1 9 10 12 8 3 1 3 3 4 1 13 3 10 13 15 4 8 1 4 7 12 7 2 4 3 4 4 1 5 6 2 12 5 5 11 12 9 7 2 13 13 5 7 12 14 2 1 11 15 13 6 1 12 12 1 8 8 14 8 11 1 11 3 3 15 8 10 14 13 13 1 8 14 13 11 1 7 1 7 5 9 10 1 6 1 4 13 7 8 5 9 6 14 1 7 3 10 5 1 5 2 4 10 3 13 3 9 11 7 9 14 3 9 5 12 11 12 2 7 7 7 5 11 1 7 13 5 2 15 4 4 10 9 2 3 3 4 8 12 10 12 15 1 1 5 10 12 1 12 11 2 7 9 2 11 14 9 8 5 6 6 14 0 0 1 7 3 4 13 8 6 4 15 7 9 13 7 10 13 5 4 1 8 11 2 1 12 14 7 7 6 7 7 13 13 0 0 0 0 4 3 1 7 2 10 14 7 4 7 9 3 11 12 9 7 12 4 13 5 12 1 13 1 5 2 7 8 2 0 0 0 0 0 12 11 9 5 9 2 5 2 8 13 8 14 6 5 6 10 13 12 2 14 5 3 5 1 14 11 8 5 0 0 0 0 0 0 0 0 10 1 3 11 12 3 11 8 1 13 15 2 6 8 8 14 11 6 15 13 10 11 9 3 6 10 11 0 0 0 0 0 0 0 0 0 7 14 3 10 9 7 6 12 5 9 14 1 3 1 9 7 13 1 11 14 5 12 4 5 13 0 0 0 0 0 0 0 0 0 0 0 0 0 0 0 0 0 0 0 0 15 7 10 3 5 3 13 14 6 6 4 11 3 3 9 0 0 0 0 0 0 0 0 0 0 0 0 0 0 0 0 0 0 11 4 2 14 12 14 10 12 12 10 10 3 14 5 14 7 4 0 0 0 0 0 0 0 0 0 0 0 0 0 0 0 0 9 15 13 15 1 12 14 7 11 3 14 9 8 1 5 13 10 8 11 13 0 0 0 0 0 0 0 0 0 0 0 0 0 14 13 12 8 15 4 13 12 10 5 8 6 3 8 7 14 1 3 3 4 4 11 4 1 9 0 0 0 0 0 0 5 13 3 6 8 15 6 4 6 2 7 10 1 14 14 6 7 11 12 15 13 10 7 4 15 7 4 5 15 2 15 2 15 14 13 4 4 2 2 8 15 9 7 13 2 13 14 7 6 8 6 14 3 10 7 10 13 11 12 8 6 1 14 9 9 8 15 7 14 2 10 7 12 3 11 2 8 4 10 9 6 9 10 1 11 13 2 14 1 13 8 10 12 8 6 12 2 11 10 8 8 2 6 4 15 7 10 15 2 3 4 1 13 7 3 15 4 10 7 11 12 7 2 15 3 1 2 9 10 10 6 4 12 12 7 12 7 5 6 9 7 13 3 11 3 1 1 3 14 6 9 11 5 7 9 2 3 8 4 13 2 10 2 9 10 6 15 9 11 4 1 11 12 3 15 5 14 3 10 1 3 13 3 6 6 9 13 13 11 5 5 2 6 3 13 3 5 14 15 10 10 1 7 9 13 9 6 3 4 13 12 7 9 13 8 9 8 8 14 12 3 4 13 3 11 4 3 2 5 15 12 9 5 6 1 13 10 8 8 10 4 7 14 14 13 9 2 3 6 10 6 5 2 12 9 7 14 3 11 13 13 2 3 13 14 11 15 9 8 14 11 4 1 6 6 3 7 3 12 5 2 12 9 5 10 13 5 11 7 14 13 2 3 14 13 8 7 8 6 6 5 2 13 3 12 12 5 3 6 15 6 11 2 2 1 11 12 11 6 9 13 4 5 10 8 11 11 11 12 12 2 11 10 2 5 8 10 6 4 4 4 15 14 13 4 2 14 12 2 9 7 5 1 8 2 9 9 5 14 1 5 2 7 13 10 1 4 9 4 14 14 6 1 3 4 4 1 13 14 10 5 1 5 5 5 11 9 14 8 4 5 12 2 14 12 9 4 10 9 15 15 8 12 6 15 12 14 14 7 8 9 11 6 7 10 4 12 15 1 12 3 2 10 8 10 2 14 1 8 12 10 6 4 9 6 6 4 2 11 15 9 10 3 5 6 13 2 7 10 6 15 2 2 14 5 1 11 8 2 6 15 2 12 12 