P2
33 33
250
1 5 5 11 13 9 2 2 11 4 7 1 15 11 12 8 3 15 2 11 11 8 7 1 3 6 13 12 13 5 8 8 13 13 5 13 6 3 3 9 7 14 3 1 15 15 4 10 6 2 12 4 1 8 1 2 2 3 11 13 13 4 8 15 11 3 3 2 11 13 12 11 14 14 5 6 2 6 10 5 7 9 7 7 14 14 13 14 10 14 2 15 1 9 7 11 3 11 15 2 13 13 13 1 4 10 15 3 9 6 2 4 10 5 5 4 12 8 6 4 5 1 8 11 5 6 8 9 10 12 6 15 4 10 2 9 4 3 1 14 7 9 6 6 1 14 6 14 5 3 15 14 9 10 5 2 2 10 2 9 6 10 3 1 15 15 2 11 1 4 9 6 1 5 6 3 15 9 5 10 3 1 8 4 5 9 2 15 7 11 15 1 1 13 2 8 11 2 13 11 11 6 12 9 6 14 9 1 1 15 4 5 10 15 14 4 6 2 13 5 2 5 6 12 9 14 11 7 11 14 3 7 5 4 15 9 15 9 5 2 2 2 1 5 9 15 15 11 15 7 7 14 13 10 9 3 9 2 9 7 4 12 14 7 3 13 12 3 5 12 10 10 11 1 15 11 11 4 11 4 6 10 2 2 0 0 0 0 0 0 14 15 2 14 15 4 4 4 2 4 11 14 1 11 12 14 13 2 4 8 15 6 12 0 0 0 0 0 0 0 0 0 0 0 0 0 0 0 11 11 4 9 3 13 8 4 8 2 2 11 3 11 4 0 0 0 0 0 0 0 0 0 0 0 0 0 0 0 0 0 0 0 0 7 9 15 14 7 9 5 6 3 15 15 0 0 0 0 0 0 0 0 0 0 0 0 0 0 0 0 0 0 0 0 0 0 8 14 7 10 1 10 10 12 3 9 0 0 0 0 0 0 0 0 0 0 0 0 0 0 0 0 0 0 0 0 0 0 0 9 9 11 10 2 5 8 4 0 0 0 0 0 0 0 0 0 3 1 9 2 13 5 2 10 9 5 3 1 0 0 0 0 8 1 8 11 13 13 11 0 0 0 0 0 0 0 5 4 12 5 8 10 15 14 14 9 4 10 6 1 12 3 13 13 0 2 7 3 15 4 8 0 0 0 0 0 0 7 4 2 10 10 9 5 4 9 11 5 9 13 6 6 6 2 5 3 4 7 10 3 15 2 5 9 0 0 0 0 5 14 11 4 3 6 3 2 9 12 11 14 2 7 2 14 10 7 6 5 10 15 1 8 2 12 15 9 13 0 0 0 10 10 10 11 11 7 3 1 15 12 7 12 6 14 14 12 4 8 11 2 8 11 8 15 3 5 11 1 8 14 0 8 13 7 3 11 10 2 8 9 12 15 1 5 6 2 1 15 11 6 9 2 15 7 9 9 11 4 2 3 6 6 4 13 8 11 13 7 5 8 12 6 7 11 11 4 7 3 9 5 2 13 10 10 15 13 6 5 12 1 5 4 8 11 14 7 14 8 15 10 13 7 2 2 7 3 6 6 10 2 7 8 4 8 5 9 8 10 10 11 12 15 4 12 9 15 5 12 11 15 11 12 5 5 13 13 9 2 4 14 10 13 3 6 1 14 11 9 15 14 14 1 8 3 14 1 11 2 6 7 7 4 4 11 3 2 7 11 14 15 14 4 15 2 2 7 14 8 8 8 11 14 8 15 1 7 9 14 11 6 15 4 4 15 3 9 2 11 2 5 10 10 1 2 8 12 13 5 14 8 4 7 1 1 8 14 1 10 6 5 8 9 13 5 15 4 6 6 3 6 5 4 10 4 1 8 6 15 12 13 3 7 15 15 8 15 10 8 8 3 1 1 11 6 4 1 1 10 10 3 7 9 10 9 14 2 4 8 14 15 12 15 4 6 9 9 9 13 15 11 13 1 1 2 6 13 7 11 10 2 3 3 10 12 9 15 11 5 13 2 11 10 13 7 14 5 7 12 3 15 12 1 14 12 7 6 4 15 5 14 9 9 8 1 4 5 2 11 14 12 13 10 9 5 8 8 2 9 7 5 9 13 11 14 11 2 3 1 6 6 9 1 8 11 3 13 7 11 12 10 15 7 13 12 4 7 15 14 4 9 4 15 7 15 1 3 4 13 7 8 13 8 14 9 10 2 2 5 15 6 5 3 4 6 13 4 12 15 2 2 10 3 7 9 3 9 8 9 4 8 12 5 11 9 15 9 5 10 3 14 8 3 5 10 11 14 3 10 12 9 7 8 8 6 4 2 13 11 11 6 11 14 14 2 8 4 13 14 11 7 7 3 9 13 1 9 15 10 11 4 15 11 2 12 4 8 10 11 9 11 6 14 7 10 14 6 1 2 1 4 2 5 3 10 12 14 7 4 2 1 9 6 6 2 8 5 9 3 15 6 11 9 8 12 9 12 1 12 1 11 12 9 3 8 2 4 14 1 8 