P2
33 33
250
7 14 7 13 4 3 3 4 11 5 7 11 2 10 4 1 1 9 5 8 5 3 7 14 7 5 14 5 3 3 8 5 1 6 4 9 13 12 12 14 3 4 7 15 8 5 12 10 6 6 13 4 7 9 11 4 10 8 5 2 15 7 9 15 5 4 11 2 9 10 7 12 2 2 5 9 10 14 14 4 13 7 10 11 13 1 7 7 6 1 14 15 11 15 4 1 6 7 15 4 2 14 15 15 1 8 7 11 10 9 1 12 10 13 15 15 9 1 11 7 6 3 14 2 7 8 9 14 14 8 1 15 2 12 11 4 7 11 11 12 12 2 6 8 10 9 8 0 0 0 0 0 3 11 9 7 7 4 15 4 14 9 14 15 7 5 2 3 13 7 7 15 6 6 7 0 0 0 0 0 0 0 0 0 0 0 0 0 0 11 10 14 6 8 14 9 3 9 5 3 7 15 9 8 6 5 0 0 0 0 0 0 0 0 0 0 0 0 0 0 0 0 0 0 0 4 2 10 15 4 4 4 14 4 5 7 12 0 0 0 0 0 0 0 0 0 0 0 0 0 0 0 0 0 0 0 0 0 0 0 4 6 3 4 10 9 7 6 15 0 0 0 0 0 0 0 0 0 0 0 0 0 0 0 0 0 0 0 0 0 0 0 0 0 11 13 12 3 7 15 0 0 0 0 0 0 0 0 0 0 0 0 0 0 0 0 0 0 0 0 0 0 0 0 0 0 0 0 0 15 5 1 0 0 0 0 0 0 0 0 0 12 7 7 7 9 8 15 6 14 1 15 4 11 0 0 0 0 0 0 0 0 0 5 0 0 0 0 0 0 0 10 14 13 5 15 12 9 10 5 3 5 8 4 9 8 8 7 15 10 0 0 0 0 0 0 3 0 0 0 0 0 13 1 3 9 1 12 13 5 13 14 6 4 11 5 2 10 7 10 8 5 10 6 13 0 0 0 0 15 0 0 0 8 4 6 11 6 15 2 5 8 14 13 14 5 10 4 8 3 7 10 6 15 5 2 11 12 13 3 0 0 11 0 13 5 2 12 7 6 8 1 13 11 3 11 9 7 7 10 11 15 2 12 13 2 8 3 5 2 9 14 1 12 0 8 4 9 7 3 11 7 7 14 3 4 12 11 14 10 7 11 11 3 9 14 15 15 4 6 2 1 12 8 14 10 2 13 3 12 11 12 6 12 5 4 15 10 2 13 7 12 5 6 14 10 1 4 13 6 5 6 5 9 7 13 4 15 9 13 13 8 3 7 5 1 5 6 3 2 2 6 4 6 10 3 15 10 7 3 11 14 4 8 13 12 14 11 2 5 8 12 1 8 14 7 9 14 9 14 14 2 15 3 1 2 12 8 9 8 11 15 15 10 10 8 12 13 9 15 4 1 10 1 5 5 7 1 11 12 15 9 8 11 1 9 4 9 8 6 3 10 4 8 1 12 7 5 5 2 13 9 12 9 12 15 15 14 5 2 6 8 12 15 8 3 6 6 3 12 13 6 15 4 14 2 7 7 12 11 12 2 5 4 8 14 9 9 2 12 3 12 5 4 1 7 4 3 8 6 8 1 6 2 3 7 10 9 2 6 7 8 12 6 13 1 5 10 2 6 10 15 9 14 15 9 7 3 15 11 7 3 8 12 7 1 3 10 3 12 15 12 1 7 8 15 14 11 6 4 9 5 1 15 14 2 13 3 4 6 10 8 3 1 13 11 12 5 14 9 13 11 1 8 13 4 1 12 9 5 9 1 7 5 6 8 12 12 14 3 14 3 11 2 3 8 8 9 10 6 2 2 14 8 13 11 9 14 13 4 13 11 3 15 13 4 5 13 4 9 15 1 8 6 12 6 3 1 5 15 14 7 15 6 13 14 9 14 13 15 9 9 11 11 15 4 14 9 15 9 9 4 15 9 9 14 6 14 10 10 3 4 5 12 15 6 7 11 13 11 6 7 1 14 2 6 6 5 7 15 5 10 6 11 15 12 8 3 14 10 14 3 15 5 10 6 14 8 1 7 5 12 7 3 12 15 11 10 11 5 8 1 2 7 9 1 15 7 2 12 3 8 4 7 14 4 13 4 12 3 14 7 2 12 15 6 7 7 3 6 11 13 6 11 12 6 9 8 11 12 1 11 13 9 8 5 12 11 2 1 2 15 5 3 9 11 3 5 6 14 7 11 2 5 5 1 2 2 12 6 6 9 9 13 11 8 13 12 6 1 4 6 5 13 3 5 1 15 4 11 2 9 5 1 2 3 5 4 13 5 2 9 6 9 10 1 4 12 9 14 2 9 8 13 10 9 9 12 6 3 10 14 15 12 3 10 7 2 1 13 15 13 1 12 10 2 4 8 7 3 3 4 6 10 9 1 2 15 9 6 15 13 1 13 5 4 4 4 3 6 13 8 12 6 13 10 15 3 5 10 9 13 7 10 8 1 13 12 11 