P2
33 33
250
11 14 6 6 10 1 1 7 8 1 2 12 12 15 10 6 7 4 1 13 4 8 9 10 9 10 2 9 12 3 7 13 5 14 4 2 2 3 2 12 13 5 8 11 5 13 4 10 1 2 1 13 8 4 15 13 8 10 5 3 10 10 9 2 6 1 6 6 15 7 1 7 2 12 5 9 13 7 14 10 9 5 15 1 11 7 15 8 6 15 6 7 12 15 12 10 12 1 10 1 7 5 4 3 15 15 7 13 6 2 5 4 12 7 8 14 4 6 14 9 7 2 11 7 6 11 2 7 8 9 12 11 8 9 2 8 6 12 12 14 14 10 13 14 8 14 12 6 13 1 9 1 7 13 13 6 5 7 9 15 15 4 11 1 14 13 3 11 12 5 1 5 4 4 1 14 1 10 10 13 8 13 12 9 1 13 9 12 3 2 4 2 6 7 13 8 10 13 3 15 4 15 3 2 6 6 7 13 6 2 6 1 5 12 13 11 3 14 13 10 2 2 4 2 1 15 3 12 13 8 14 7 6 3 9 10 5 1 5 11 12 13 13 11 15 6 14 11 14 1 8 1 2 5 9 12 2 9 12 11 5 12 4 2 6 10 4 11 4 14 13 10 8 2 12 11 11 5 15 8 5 14 10 0 0 0 0 8 11 3 5 2 9 9 12 1 14 7 14 2 6 3 4 10 8 5 7 9 15 6 2 6 0 0 0 0 0 0 0 0 0 0 0 0 6 5 10 12 3 12 6 8 10 8 3 13 6 9 11 9 1 2 13 0 0 0 0 0 0 0 0 0 0 0 0 0 0 0 0 4 6 4 13 14 4 5 4 9 3 10 5 10 11 7 0 0 0 0 0 0 0 0 0 0 0 0 0 0 0 0 0 0 0 0 3 15 10 13 15 8 5 14 6 14 1 9 0 0 0 0 0 0 0 0 0 0 0 0 0 0 0 0 0 0 0 0 0 0 1 3 14 4 8 5 12 3 2 10 0 0 0 0 0 0 0 0 0 0 0 0 0 0 0 0 0 0 0 0 0 0 0 0 8 6 11 5 4 6 15 13 0 0 0 0 0 0 0 0 0 0 0 0 0 0 0 0 0 0 0 0 0 0 0 0 0 15 15 13 3 2 1 1 0 0 0 0 0 0 0 0 0 0 0 0 0 0 0 0 0 0 0 0 0 0 0 0 0 0 1 11 6 11 11 11 0 0 0 0 0 0 0 0 0 0 0 0 0 0 0 0 0 0 0 0 0 0 0 0 0 0 0 11 12 8 3 6 6 0 0 0 0 0 0 0 0 0 0 0 0 0 0 0 0 0 0 0 0 0 0 0 0 0 0 0 1 2 8 3 4 12 11 10 3 8 7 12 15 8 6 9 9 9 15 14 5 3 2 2 1 2 11 15 3 11 5 7 4 9 13 3 11 11 1 8 12 5 9 8 7 14 14 10 5 12 4 4 5 14 1 5 2 8 4 14 4 6 3 4 7 1 7 6 15 15 9 12 15 8 13 13 2 3 5 8 4 13 15 5 5 7 3 9 11 4 15 7 14 7 11 10 5 5 14 8 14 13 13 11 15 11 5 13 13 9 4 2 12 5 11 10 11 10 8 13 2 9 15 12 15 4 13 2 8 15 8 9 10 9 3 8 8 8 14 13 15 12 10 14 8 4 11 5 12 15 5 11 12 8 3 6 7 12 1 9 14 9 1 6 5 4 12 9 13 1 15 10 9 11 7 9 3 4 3 10 6 6 15 9 12 2 13 5 5 4 6 5 5 2 15 11 14 11 14 6 8 1 4 13 6 4 11 7 6 8 15 3 13 2 3 13 9 10 3 2 13 3 5 6 14 7 15 15 9 10 15 1 1 11 13 10 15 4 7 6 12 15 6 1 5 9 11 12 10 5 13 3 7 10 9 15 1 2 9 1 8 15 12 4 7 3 2 14 3 14 6 3 2 5 6 2 4 8 2 4 6 11 7 3 12 11 11 1 10 3 4 13 4 11 3 11 4 3 5 10 4 13 7 13 14 8 4 13 10 5 6 1 1 7 1 3 2 12 8 15 12 11 7 6 7 13 1 14 3 15 8 1 6 14 2 13 9 7 7 8 11 10 7 10 15 4 10 4 9 9 5 10 12 9 8 10 8 14 2 2 15 14 8 11 6 4 11 1 5 11 6 7 9 12 3 8 6 5 12 11 9 12 6 13 9 3 8 15 11 7 2 15 13 10 2 3 13 2 6 7 6 14 13 6 1 9 12 11 10 14 11 10 11 9 1 8 10 9 2 12 7 6 9 5 10 5 9 1 6 4 4 9 1 2 13 2 11 3 11 9 4 13 4 12 13 11 8 10 2 7 1 14 9 9 11 1 13 8 11 11 14 4 15 1 7 2 13 8 1 2 10 15 14 3 7 11 4 4 8 1 6 4 2 1 4 8 5 5 7 8 6 14 9 13 6 