P2
33 33
250
3 11 13 13 9 2 4 15 12 9 13 10 15 11 15 11 4 4 10 14 4 13 15 9 4 10 11 12 8 1 13 6 13 15 5 4 10 11 10 9 5 3 9 11 2 8 6 5 4 6 13 8 2 9 3 12 11 6 4 13 14 15 10 9 12 15 7 2 1 1 9 2 12 5 5 14 12 5 2 10 1 10 12 7 13 3 11 4 7 11 11 2 13 7 6 4 15 7 9 4 6 12 2 8 2 15 7 4 5 3 8 7 15 4 11 7 3 8 7 7 8 3 9 5 5 7 1 5 6 5 2 10 4 15 10 12 14 2 7 3 2 6 9 15 15 14 2 10 15 1 12 1 15 8 1 14 14 10 14 6 7 4 1 2 14 5 7 12 5 11 15 12 9 4 12 9 5 5 13 3 8 10 3 12 2 4 5 11 8 1 2 12 14 7 14 13 14 15 1 11 3 2 3 11 7 4 10 7 12 2 6 14 1 8 14 4 11 11 3 3 9 5 4 13 11 11 9 4 7 13 15 3 13 3 2 10 14 11 9 9 1 10 3 8 7 15 6 15 3 12 14 4 6 2 7 7 4 10 15 13 8 12 15 10 10 5 6 14 15 1 8 14 15 13 13 10 2 5 2 3 13 2 6 5 11 12 3 4 8 1 10 6 5 7 12 12 14 5 14 3 10 4 7 15 3 11 11 11 10 2 5 1 5 14 9 12 13 6 12 1 9 1 8 6 8 13 3 12 8 6 2 15 3 5 11 4 3 5 6 10 6 4 3 6 8 3 2 10 2 10 5 13 5 12 15 1 5 8 13 7 10 13 1 8 11 5 7 7 10 14 14 10 1 15 9 4 10 11 14 3 9 2 6 1 11 6 13 1 14 7 9 5 1 3 1 1 8 11 9 1 5 3 6 0 0 10 2 6 9 7 1 3 6 10 7 5 14 1 2 7 12 9 8 10 4 5 11 3 1 3 13 12 12 13 12 13 0 0 0 0 10 5 11 15 8 2 9 3 5 6 10 6 9 2 10 2 7 11 12 5 3 8 6 6 2 12 9 6 5 0 0 0 0 0 0 15 7 8 3 4 9 6 15 14 6 7 15 1 15 11 5 6 10 15 10 2 1 1 3 5 13 3 0 0 0 0 0 0 0 0 0 0 11 13 11 1 9 13 3 6 6 2 9 13 8 9 9 13 3 1 8 9 9 9 6 8 0 0 0 0 0 0 0 0 0 0 0 0 0 0 0 0 0 0 0 0 0 0 0 0 0 8 14 9 6 4 15 4 10 0 0 0 0 0 0 0 0 0 0 0 0 0 0 0 0 0 0 0 0 0 0 0 0 0 2 12 11 6 11 3 2 12 0 0 0 0 0 0 0 0 0 0 0 0 0 0 0 0 0 0 0 0 0 0 0 0 0 4 4 1 6 14 6 13 6 0 0 0 0 0 0 0 0 0 0 0 0 0 0 0 0 0 0 0 0 0 0 0 0 0 10 10 13 3 8 1 5 2 0 0 0 0 0 0 0 0 0 0 0 0 0 0 0 0 0 0 0 0 0 0 0 0 0 11 8 8 6 11 4 9 11 0 4 3 0 0 0 0 0 0 0 0 0 0 0 0 0 0 0 0 0 0 0 0 0 0 5 11 12 8 1 15 2 12 0 15 3 13 13 0 0 0 0 0 0 0 0 0 0 0 0 0 0 0 0 0 0 0 0 11 14 15 4 1 4 6 2 5 4 12 2 10 3 10 0 0 0 0 0 0 0 0 0 0 0 0 0 0 0 0 0 0 9 8 1 13 13 13 12 2 2 11 10 10 13 2 3 15 15 0 0 0 0 0 0 0 0 0 0 0 0 0 0 2 8 2 15 9 7 11 15 4 8 11 6 4 7 12 13 15 6 9 14 4 11 14 0 0 0 0 0 0 14 8 3 12 15 12 9 5 6 7 1 1 13 14 1 13 1 14 7 11 2 2 11 15 8 15 13 12 1 15 4 8 8 15 1 12 5 10 6 14 8 13 15 6 14 6 2 2 3 13 1 8 8 3 1 13 6 5 11 15 1 15 14 15 3 7 10 4 13 5 1 8 7 3 5 7 14 7 8 10 4 11 8 15 9 5 6 7 9 12 5 15 2 8 4 7 2 1 3 10 1 9 14 5 1 15 2 14 13 15 15 9 15 11 13 15 5 4 8 5 13 11 9 3 11 13 15 4 11 4 5 3 1 14 15 12 12 10 6 8 15 11 9 11 3 4 8 3 15 10 6 12 11 10 14 14 14 4 6 7 6 15 12 9 4 12 1 3 4 14 14 7 6 2 1 15 2 2 9 15 12 11 2 9 10 11 14 7 15 5 5 14 4 3 11 9 9 3 9 9 8 15 11 5 6 9 15 11 13 5 7 7 7 4 4 11 5 12 6 2 11 4 7 6 11 9 7 6 2 13 7 1 8 11 4 3 6 