P2
33 33
250
14 10 8 6 8 15 2 1 8 15 2 7 7 12 10 3 13 4 4 2 1 12 15 13 5 15 7 10 8 10 3 6 6 2 15 6 13 11 9 2 12 4 6 5 14 8 6 8 10 8 3 5 8 1 8 11 3 3 6 9 4 9 14 6 7 14 15 8 7 10 10 1 4 9 1 11 2 12 11 7 11 13 10 4 3 13 9 15 3 12 13 13 6 8 3 10 1 12 11 5 14 5 15 12 4 12 12 12 8 11 3 10 4 14 15 11 3 11 2 9 13 14 5 13 2 12 3 15 1 13 15 3 12 13 14 5 1 7 10 2 2 15 3 11 7 6 11 7 9 8 14 10 11 8 2 15 2 3 5 9 9 7 10 11 8 15 2 9 13 7 9 8 7 14 5 2 1 7 5 10 10 4 11 15 2 14 9 14 13 4 12 14 1 11 15 11 15 5 13 15 11 12 2 9 9 12 3 13 15 12 15 1 13 4 10 10 15 9 10 8 7 9 11 1 6 7 10 9 2 6 9 13 7 4 14 6 9 9 7 13 12 7 11 3 4 12 12 8 12 7 13 1 6 7 11 10 1 2 6 3 14 4 15 9 9 5 15 9 11 4 11 6 15 6 1 4 8 12 4 4 13 12 5 10 0 0 0 0 0 0 6 1 8 4 9 10 8 5 13 5 15 12 11 6 1 7 4 9 2 1 14 12 9 0 0 0 0 0 0 0 0 0 0 0 0 0 0 0 7 9 4 8 10 3 1 13 2 13 6 8 13 6 2 0 0 0 0 0 0 0 0 0 0 0 0 0 0 0 0 0 0 0 0 15 8 9 12 10 5 15 14 11 6 12 0 0 0 0 0 0 0 0 0 0 0 0 0 0 0 0 0 0 0 0 0 0 3 12 7 8 1 3 15 12 3 1 0 0 0 0 0 0 0 0 0 0 0 0 0 0 0 0 0 0 0 0 0 0 0 3 1 7 15 10 6 14 9 0 0 0 0 0 0 0 0 0 6 6 7 12 12 4 5 6 6 13 2 15 0 0 0 0 13 8 3 9 6 9 3 0 0 0 0 0 0 0 10 11 3 6 5 13 6 8 4 15 1 11 6 2 10 14 12 2 0 4 8 3 6 11 1 0 0 0 0 0 0 2 1 1 6 1 8 15 4 3 14 3 4 3 9 11 11 13 1 12 11 1 11 13 5 9 12 4 0 0 0 0 11 2 3 14 4 8 8 2 1 12 12 13 13 14 14 5 5 15 9 9 2 15 9 5 14 15 10 1 8 0 0 0 6 6 5 2 9 4 9 3 4 14 5 10 13 7 4 4 10 15 5 13 1 13 7 10 5 11 7 10 10 7 0 8 7 12 4 7 11 13 6 14 9 13 15 14 10 11 15 13 6 2 14 3 3 13 7 5 10 1 10 9 7 8 10 15 5 10 5 13 5 6 13 11 9 4 5 3 14 4 2 4 13 13 2 4 9 1 7 7 14 10 8 7 8 4 4 2 1 3 10 15 11 3 7 12 7 1 4 8 5 15 10 10 2 1 7 13 11 9 2 13 9 2 10 1 5 11 12 12 15 7 3 13 10 6 14 7 2 8 2 15 10 15 15 5 2 2 11 15 7 8 3 15 9 2 3 15 1 11 6 4 13 5 8 9 10 6 7 3 11 4 12 14 9 7 2 6 7 3 7 6 4 5 3 10 14 10 13 12 14 7 3 7 3 12 12 2 12 1 2 7 6 5 10 12 3 2 7 3 1 12 4 10 1 6 7 2 14 12 1 2 4 4 10 8 10 14 10 1 11 5 2 6 7 4 8 6 2 13 8 12 3 5 7 9 5 10 2 4 8 7 10 10 6 9 15 11 11 5 1 13 9 7 6 13 13 15 3 7 2 15 13 8 15 9 14 15 8 5 10 10 9 3 10 3 12 10 8 1 9 2 14 7 15 3 15 10 13 4 3 2 8 2 15 10 6 15 5 10 13 8 5 8 4 1 4 11 2 9 9 2 4 3 5 11 4 3 6 7 4 13 3 7 14 9 7 14 4 4 14 12 6 11 3 15 4 10 14 15 15 15 14 15 13 7 7 5 6 5 9 1 10 2 12 15 15 9 3 12 10 15 2 1 12 11 11 3 4 10 15 7 7 7 15 4 14 3 13 5 4 5 14 5 10 8 13 15 12 8 9 12 3 7 1 15 8 6 8 3 13 9 7 9 10 14 1 2 7 7 7 5 6 15 8 11 1 9 3 8 3 13 8 8 11 15 2 9 12 12 4 5 10 5 2 7 8 8 13 9 9 14 13 13 6 1 14 4 2 14 7 15 10 6 11 10 2 9 9 1 14 14 13 15 8 12 9 6 10 9 2 14 9 7 4 13 1 4 8 12 15 13 12 8 4 11 14 3 10 12 6 7 10 1 3 4 5 11 3 5 3 10 6 13 8 13 1 6 11 3 6 