P2
33 33
250
4 15 6 13 11 7 7 13 4 7 7 10 14 13 5 9 3 5 1 12 12 6 15 8 3 10 7 2 5 5 5 11 15 1 7 2 9 12 11 9 1 11 6 5 13 15 8 6 4 1 11 6 14 15 8 3 13 2 12 4 11 10 4 2 14 13 15 7 9 15 5 11 12 12 11 9 5 1 2 5 1 12 8 6 4 11 7 11 13 3 1 15 14 4 2 3 5 8 10 11 2 2 7 5 3 13 15 13 2 7 12 4 11 1 7 11 7 7 4 14 9 4 2 3 3 14 2 15 7 15 12 9 10 8 6 8 13 10 6 12 5 7 15 2 12 11 14 2 6 8 2 5 13 10 15 15 2 2 12 1 3 10 1 10 10 2 9 9 10 13 5 4 4 3 5 1 13 15 14 5 6 11 14 12 2 9 7 6 15 6 15 14 7 15 6 11 9 4 6 14 15 1 8 2 13 12 3 7 4 5 9 10 10 11 9 13 9 4 13 10 13 13 10 10 12 9 6 5 14 11 14 0 0 11 2 5 9 12 7 7 11 11 6 1 1 8 14 8 9 6 6 12 9 15 3 7 13 3 7 13 3 11 14 1 12 0 0 0 0 8 9 14 3 7 8 2 11 10 10 1 1 14 12 4 15 5 12 9 3 4 5 14 15 8 8 15 9 11 1 0 0 0 0 0 8 8 6 1 12 6 13 7 11 10 3 14 11 11 12 12 15 11 6 1 5 10 13 13 0 0 14 7 8 4 0 0 0 0 0 0 0 5 14 13 10 11 8 12 12 11 7 3 15 11 3 15 15 0 0 0 0 0 0 12 4 6 6 3 10 0 0 0 0 0 0 0 0 0 0 0 0 0 0 0 0 0 0 0 0 0 0 0 0 0 0 13 9 7 14 15 1 3 14 1 0 0 0 0 0 0 0 0 0 0 0 0 0 0 0 0 0 0 0 0 0 0 4 1 2 1 3 10 12 1 15 13 7 15 9 4 0 0 0 0 0 0 0 0 0 0 0 0 0 0 0 0 4 6 14 3 13 9 10 5 2 15 12 7 9 5 3 5 3 12 15 9 6 15 0 0 0 0 0 0 10 1 1 2 5 1 10 2 15 7 9 12 12 4 2 10 9 15 11 2 14 4 1 9 15 12 11 4 10 14 14 15 2 13 2 4 7 7 15 6 12 2 5 8 10 9 12 9 1 4 13 5 13 11 7 3 2 12 3 10 4 11 15 15 12 12 14 9 5 14 14 7 14 11 15 1 13 5 10 3 10 8 7 13 7 10 1 3 14 9 14 8 9 13 6 11 2 4 8 3 1 15 10 13 12 9 3 11 4 2 1 10 15 13 6 12 5 7 10 8 4 7 5 8 14 9 6 10 1 2 15 12 3 2 15 5 12 2 1 15 7 12 10 10 1 15 2 8 12 8 14 14 1 8 12 9 13 6 5 7 10 8 11 15 10 7 5 15 9 3 10 7 8 1 3 12 3 5 5 1 10 11 4 10 8 12 13 6 7 13 8 5 12 6 11 12 11 10 10 7 3 3 12 12 2 11 12 3 15 4 14 11 10 7 12 15 3 7 2 4 7 3 1 11 4 3 7 2 14 14 13 7 1 2 2 4 1 12 8 15 1 11 5 14 2 2 8 10 1 11 13 15 3 5 11 3 11 1 2 13 8 12 3 11 11 6 3 2 6 12 10 10 11 3 11 12 15 15 9 9 13 14 3 6 13 2 3 2 15 6 4 5 9 13 3 12 10 13 13 4 2 6 4 14 3 8 7 7 3 1 5 10 3 13 3 9 14 2 5 5 1 5 15 13 10 3 2 1 4 12 6 14 8 11 4 4 14 15 2 3 9 15 4 13 1 15 3 12 3 2 6 11 15 9 11 14 13 15 7 13 6 8 14 14 5 2 4 11 10 12 3 7 8 4 8 9 15 5 2 15 4 11 3 11 9 6 3 3 8 15 10 13 15 13 15 2 6 3 14 1 4 3 11 13 13 3 15 11 5 3 6 6 10 5 15 6 10 6 4 2 4 9 7 3 15 9 5 1 2 6 9 12 6 15 5 12 12 6 3 9 11 11 15 7 10 14 7 8 15 11 2 1 2 10 3 13 4 13 9 15 7 8 8 14 6 10 4 3 15 11 4 2 8 10 5 11 4 15 7 14 4 12 3 13 9 10 12 4 11 8 6 8 12 15 15 8 7 5 7 9 8 8 1 2 8 1 15 5 2 1 11 13 10 10 11 9 7 13 8 6 3 4 6 4 7 14 2 11 3 15 1 2 3 6 5 14 3 5 11 15 2 7 11 3 11 9 14 1 14 14 4 7 15 6 12 7 14 3 6 13 1 11 8 6 12 14 15 11 9 5 14 1 15 5 1 11 11 2 9 2 14 2 8 6 12 1 13 8 4 13 10 9 13 5 7 9 11 3 7 9 2 5 3 6 11 