P2
33 33
250
11 10 15 6 4 11 10 3 1 3 3 11 8 8 4 10 8 14 1 5 15 9 8 13 13 14 11 5 14 12 14 3 15 11 11 13 11 11 11 5 13 13 13 12 2 14 5 8 4 11 7 7 7 7 7 12 10 14 11 15 4 3 10 2 4 1 4 1 2 10 9 14 14 9 15 6 3 9 4 3 7 2 3 7 3 9 7 4 5 5 14 7 9 3 7 7 4 4 8 10 7 15 15 15 12 14 14 2 5 5 6 10 8 3 7 15 3 12 7 6 3 13 10 15 14 10 7 4 14 12 13 11 11 1 10 9 1 14 15 11 11 9 1 4 12 8 1 12 7 10 13 4 11 6 9 10 9 11 1 1 14 7 7 9 5 3 7 9 1 13 11 9 12 13 6 8 3 6 1 15 5 13 5 2 9 7 6 4 4 14 4 11 6 3 10 2 12 8 11 5 13 15 2 5 2 1 7 11 7 7 3 8 8 7 1 1 4 2 6 8 9 5 4 15 10 2 14 4 11 4 12 4 10 2 7 11 7 1 6 5 9 3 11 6 6 9 2 7 8 15 8 9 8 4 1 15 11 7 11 12 13 5 14 13 9 3 11 2 12 5 4 2 13 15 13 8 11 3 6 2 15 4 10 2 11 3 3 15 3 3 4 14 3 4 6 5 11 5 14 6 0 0 6 5 14 13 11 2 1 10 10 2 12 15 3 7 7 12 5 5 1 5 5 3 14 3 8 1 3 6 4 13 3 0 0 0 15 2 15 9 4 9 13 3 5 2 3 4 11 1 12 7 11 15 15 9 11 15 9 5 10 6 1 13 2 12 1 0 0 0 14 11 1 9 9 9 1 7 13 14 7 11 8 7 8 4 6 7 1 13 12 15 13 6 8 14 4 4 2 1 1 0 0 0 0 3 14 9 3 1 8 12 10 2 4 5 3 7 15 3 9 3 13 10 12 6 14 6 0 11 2 12 2 3 11 0 0 0 0 0 0 0 2 9 2 6 13 5 5 4 12 14 8 13 14 3 9 0 0 0 0 0 4 2 9 10 13 10 5 0 0 0 0 0 0 0 0 0 0 0 0 0 0 0 0 0 0 0 0 0 0 0 0 0 0 4 5 12 15 7 9 1 10 0 0 0 0 0 0 0 0 0 0 0 0 0 0 0 0 0 0 0 0 0 0 0 0 0 3 12 6 7 13 14 4 14 13 0 0 0 0 0 0 0 0 0 0 0 0 0 0 0 0 0 0 0 0 0 0 3 8 14 1 3 12 6 8 5 15 14 14 9 0 0 0 0 0 0 0 0 0 0 0 0 0 0 0 0 0 0 0 10 3 4 5 15 8 10 2 5 2 13 10 8 13 2 5 10 0 0 0 0 0 0 0 0 0 0 0 0 0 5 5 7 1 5 9 2 6 13 9 1 13 7 3 10 7 2 5 5 1 14 10 10 8 0 0 0 0 0 2 3 10 5 4 2 5 1 4 6 13 10 9 6 13 9 1 11 7 15 6 14 8 3 6 3 2 14 2 15 4 11 4 15 2 4 11 11 8 11 12 4 13 11 11 11 7 12 8 4 5 10 7 1 12 6 9 12 9 13 8 12 12 9 13 12 8 9 11 15 5 11 5 1 3 4 8 11 13 12 14 5 12 5 9 9 5 8 10 6 2 13 5 5 2 13 8 3 1 14 9 10 10 15 1 13 6 4 13 11 14 14 4 3 5 3 6 6 10 7 1 8 12 14 13 6 7 4 5 5 10 15 12 12 14 13 12 1 3 2 11 9 12 5 11 14 13 4 8 15 13 15 13 11 5 5 12 7 1 6 1 7 1 14 2 11 6 8 6 12 4 9 3 1 1 15 12 7 9 9 14 8 12 2 11 2 6 10 5 11 8 4 14 11 5 14 9 10 14 3 6 15 4 6 3 1 13 15 11 8 6 3 5 11 15 6 11 14 14 2 13 4 13 9 15 5 11 7 12 10 15 13 10 5 9 12 13 11 1 15 11 2 8 5 7 10 6 9 6 2 6 14 6 15 15 12 13 2 13 10 7 7 12 5 8 1 11 6 14 15 8 2 2 13 6 11 12 14 1 10 15 1 15 5 13 5 14 8 12 7 12 10 4 3 6 8 4 9 5 4 6 9 10 8 6 13 7 12 14 4 11 11 2 2 12 13 4 13 7 3 8 1 5 11 9 12 12 2 13 12 2 2 11 8 7 13 5 14 12 11 15 9 11 13 15 11 4 9 11 9 4 7 12 14 1 10 11 8 1 7 12 15 8 7 13 10 5 15 5 8 8 3 14 12 1 9 11 13 2 11 14 8 15 8 3 15 8 15 14 1 15 7 10 8 7 15 7 10 7 9 4 3 10 2 2 8 7 7 15 4 14 13 7 2 12 14 7 9 11 9 5 6 8 9 2 7 1 2 13 4 13 8 2 7 2 4 14 7 1 