P2
33 33
250
3 8 2 12 5 4 1 11 7 14 7 1 5 4 3 5 13 3 1 12 8 8 2 6 8 1 3 11 15 1 15 8 11 2 3 10 8 7 2 14 3 11 12 12 2 11 10 4 9 6 2 7 11 8 8 5 2 3 8 4 11 10 1 15 13 15 4 11 9 9 12 6 5 12 10 14 15 4 5 1 12 8 1 5 14 15 12 14 14 4 10 11 11 3 5 6 13 11 6 15 14 5 10 6 1 3 4 9 4 10 7 11 9 11 15 7 1 14 6 12 7 1 4 11 3 11 7 9 10 1 6 9 7 14 1 4 2 6 13 1 10 3 13 2 9 9 5 4 1 2 15 2 8 2 13 13 2 8 11 15 7 11 10 14 10 10 5 10 3 10 1 15 5 3 8 9 12 3 9 11 1 1 9 4 8 12 4 2 2 13 5 2 12 7 11 5 5 11 6 7 2 2 5 1 4 9 3 4 4 3 15 3 7 14 6 2 12 0 0 0 0 4 1 6 5 4 8 1 2 10 11 9 3 1 15 2 14 9 13 10 11 13 7 10 7 0 0 0 0 0 0 0 0 0 0 0 0 0 0 8 1 1 2 10 14 8 11 14 9 6 12 5 9 2 2 5 0 0 0 0 0 0 0 0 0 0 0 0 0 0 0 0 0 0 7 2 4 4 15 15 11 15 7 7 14 12 13 0 0 0 0 0 0 0 0 0 0 0 0 0 0 0 0 0 0 0 0 0 0 6 6 12 13 5 2 5 10 8 9 0 0 0 0 0 0 0 0 0 0 0 0 0 0 0 0 0 0 0 0 0 0 0 0 11 11 10 11 14 8 2 0 0 0 0 0 0 0 0 0 0 0 0 6 6 4 9 10 15 7 14 7 11 2 12 0 0 11 8 12 5 10 13 0 0 0 0 0 0 0 0 0 15 11 4 10 2 1 11 9 13 1 3 14 11 9 9 1 7 11 6 8 8 14 1 0 0 0 0 0 0 0 11 10 4 6 11 14 3 9 7 4 11 12 3 8 7 10 8 9 3 3 3 7 8 12 11 0 0 0 0 0 15 2 4 2 3 13 6 8 14 3 13 5 15 9 8 10 3 11 14 12 2 14 5 9 12 1 3 8 0 0 0 12 9 2 3 2 2 5 4 10 5 8 3 8 15 9 13 12 3 10 15 6 15 14 15 3 11 11 11 12 0 0 0 1 15 12 7 9 8 5 1 7 12 4 9 8 2 8 1 10 6 4 12 1 6 2 5 15 13 12 8 3 0 0 13 8 9 8 12 6 12 6 9 9 2 7 10 2 6 11 5 13 15 4 14 7 10 6 4 13 7 8 7 12 9 0 3 7 3 11 12 4 9 9 13 10 10 15 7 12 5 14 3 14 11 7 15 5 2 5 6 7 8 15 2 11 5 0 3 7 10 9 7 13 13 5 12 12 4 11 10 15 8 3 11 9 1 3 8 14 10 6 15 4 8 5 4 1 2 1 12 7 2 12 5 3 3 13 1 9 6 12 8 1 8 1 13 11 10 12 9 10 13 15 13 8 10 5 7 5 5 11 10 5 7 7 11 3 6 5 1 8 5 3 13 12 6 9 10 1 9 6 3 2 8 2 10 14 14 9 8 12 8 9 2 15 10 11 1 10 6 6 15 14 10 10 11 2 9 1 14 12 5 14 11 13 9 2 3 15 1 7 4 12 13 6 10 4 6 14 10 9 12 9 12 2 8 2 11 7 4 2 13 5 3 10 15 14 6 12 6 14 15 14 8 5 11 12 2 15 7 7 10 2 10 7 12 5 7 7 9 9 7 12 9 7 9 15 4 4 8 5 4 14 8 9 9 10 9 7 8 9 13 5 3 10 10 1 3 8 5 14 1 7 2 11 10 5 6 13 3 3 1 12 4 13 4 13 4 15 1 15 4 1 15 7 1 1 12 11 8 8 8 12 5 5 4 2 15 13 9 2 1 5 8 8 9 7 15 11 12 6 1 8 3 13 15 15 5 7 5 2 2 11 9 3 10 3 13 13 14 9 4 7 4 9 11 4 13 14 6 11 8 7 1 12 5 7 4 15 4 7 14 8 6 13 14 15 13 6 14 9 8 12 13 3 3 4 6 13 10 4 2 4 12 9 1 7 1 13 14 6 9 3 7 1 9 12 10 7 1 10 6 7 9 2 13 3 11 15 14 8 7 12 10 8 13 2 9 13 5 3 15 13 10 1 8 7 8 4 6 15 3 15 8 8 9 9 14 1 10 8 5 8 14 4 4 10 6 9 12 8 15 15 3 6 7 5 2 9 12 4 15 12 10 4 1 6 4 14 3 3 2 8 14 12 2 12 6 8 9 5 4 5 14 11 4 3 8 5 13 12 3 13 6 2 7 11 9 4 6 15 9 1 15 8 3 10 10 6 13 10 9 2 12 13 1 12 1 9 10 11 4 6 11 3 15 10 