P2
33 33
250
9 14 11 7 4 1 9 6 1 8 2 6 13 5 5 3 15 9 11 4 8 4 15 5 6 5 8 3 2 12 6 13 2 7 7 12 9 3 4 9 11 6 3 1 5 14 8 12 9 12 10 13 3 3 10 8 13 1 10 5 10 3 7 15 8 7 10 6 5 3 7 8 14 12 13 15 8 7 13 13 8 2 5 13 12 13 5 11 13 5 8 10 10 2 2 1 15 7 5 10 12 8 13 4 5 6 9 3 15 4 4 8 9 6 5 8 15 11 9 12 9 2 8 13 6 14 8 12 1 4 4 10 6 7 2 5 9 11 11 15 13 6 1 10 8 9 8 10 8 15 11 9 8 13 5 6 3 2 4 13 15 7 13 4 15 4 7 7 11 4 7 13 2 7 1 7 11 14 13 8 0 0 0 0 0 0 14 7 9 12 7 10 1 4 5 13 10 9 9 1 14 2 8 5 5 9 15 11 0 0 0 0 0 0 0 0 0 0 0 0 0 0 0 0 4 1 10 3 15 5 1 6 7 8 8 6 10 6 4 0 0 0 0 0 0 0 0 0 0 0 0 0 0 0 0 0 0 0 0 15 8 10 10 8 3 15 12 12 12 0 0 0 0 0 0 0 0 0 0 0 0 0 0 0 0 0 0 0 0 0 0 0 0 0 7 2 11 6 9 12 10 0 0 0 0 0 0 0 0 0 0 0 0 0 0 0 0 0 0 0 0 0 0 0 0 0 0 0 0 6 15 1 0 0 0 0 0 0 0 0 0 7 15 4 6 8 5 14 15 11 9 4 2 9 10 0 0 0 0 0 0 0 0 1 0 0 0 0 0 0 2 14 10 12 5 9 8 3 14 14 4 1 1 10 8 5 5 5 6 3 3 12 0 0 0 0 1 0 0 0 0 12 6 14 13 3 5 1 4 8 3 9 9 13 9 8 1 6 6 3 13 6 6 3 2 2 14 0 0 5 0 0 12 15 6 10 8 4 7 11 13 13 10 12 12 6 1 2 12 1 11 1 3 8 15 14 2 9 7 13 1 11 3 10 7 11 11 9 4 15 1 5 1 1 7 1 3 2 15 8 5 2 4 7 4 1 4 12 7 3 15 10 10 1 7 12 8 14 5 10 11 14 9 1 6 11 2 4 1 14 5 6 10 2 3 15 10 12 10 13 9 12 6 12 8 8 5 4 4 10 7 4 2 1 10 5 9 10 15 8 13 14 13 13 4 3 7 10 13 2 12 13 5 9 5 3 1 5 3 7 7 12 14 12 5 12 2 11 11 11 3 3 8 2 11 4 9 6 12 8 9 5 6 14 2 2 9 5 6 10 3 5 4 1 1 10 4 6 2 6 9 10 5 15 6 7 1 12 5 2 11 10 12 10 2 15 15 14 13 10 15 6 1 6 3 3 7 2 9 2 15 15 9 6 1 10 4 14 4 11 15 8 1 15 11 10 15 11 14 10 7 11 2 7 2 1 4 5 4 9 14 15 14 6 3 2 3 2 12 2 10 4 2 2 12 6 14 6 1 15 12 13 1 14 11 3 6 12 2 6 9 10 7 1 14 4 15 15 12 5 9 6 15 9 9 9 14 2 13 8 12 14 6 8 4 3 14 12 9 9 4 6 6 8 15 7 9 13 2 13 12 10 2 13 10 7 10 6 9 4 8 11 4 11 3 9 10 12 4 8 8 5 3 13 8 1 13 14 1 14 6 1 10 3 6 2 14 4 9 2 3 9 13 5 8 15 12 6 3 13 8 9 3 10 6 8 6 14 6 15 6 1 7 12 9 13 9 10 10 6 3 10 15 11 13 9 13 7 12 15 1 5 6 12 11 14 15 10 13 13 1 3 9 11 11 13 6 13 7 15 4 2 8 13 11 14 12 1 2 11 10 11 3 6 11 11 10 9 7 11 3 11 11 10 4 4 8 1 8 6 2 6 2 6 7 12 6 8 6 6 4 6 6 8 13 7 14 5 14 13 11 13 4 10 2 6 2 13 4 6 7 13 15 13 13 5 12 6 9 6 6 14 1 3 15 11 3 6 4 5 3 9 13 7 3 12 8 9 14 5 8 13 15 8 11 10 7 4 1 11 12 5 10 4 1 3 6 1 5 3 1 8 4 1 15 11 7 9 10 10 10 3 6 14 7 6 7 4 12 14 3 5 7 2 9 9 1 4 11 10 3 12 7 11 10 6 1 3 15 4 9 9 15 5 8 14 10 15 13 2 1 3 10 5 7 13 10 3 9 14 11 5 2 3 6 4 5 1 8 5 6 10 13 7 3 6 5 2 10 14 15 13 1 7 7 1 14 9 11 4 5 13 8 6 3 14 5 1 3 15 11 5 7 2 6 13 12 10 7 3 3 14 9 9 8 13 11 2 7 15 8 9 9 7 4 1 6 7 5 9 6 1 13 9 3 9 9 14 5 4 7 14 11 7 9 8 6 13 11 