P2
33 33
250
10 14 8 14 11 14 3 6 12 12 8 7 7 2 4 6 8 8 7 3 13 4 15 14 15 2 15 12 5 7 15 10 2 11 14 8 15 12 10 10 8 10 4 9 6 4 4 5 9 12 10 15 11 11 2 12 11 4 4 2 14 2 11 6 5 2 1 6 4 11 8 4 13 12 10 7 13 14 1 11 10 4 5 7 9 10 2 5 6 10 9 15 6 7 5 9 6 8 14 12 8 7 5 9 6 9 1 5 6 14 9 2 2 1 13 6 7 7 12 14 12 10 9 6 5 12 3 6 12 4 7 6 5 15 2 1 13 13 11 2 12 7 7 4 15 3 4 2 12 14 7 1 1 14 14 12 8 6 3 11 14 3 10 4 15 13 14 8 10 9 9 3 13 5 5 12 10 9 1 9 11 5 12 11 11 2 6 5 5 5 7 8 7 14 10 15 7 12 8 11 9 1 15 13 1 1 5 1 8 12 5 1 13 3 10 12 2 2 1 1 12 11 2 15 11 11 12 12 5 6 11 7 6 11 9 10 9 15 13 1 14 4 9 8 11 12 12 5 1 11 5 3 9 3 4 4 13 14 13 12 10 9 12 3 15 13 2 11 4 14 12 13 5 8 5 3 10 5 9 14 13 3 13 5 10 9 5 11 13 8 5 12 11 1 13 9 8 6 11 7 12 3 13 7 2 2 10 13 7 12 3 9 0 0 0 0 0 0 0 11 8 4 2 9 11 8 10 10 15 13 11 9 3 7 3 11 7 2 10 9 0 0 0 0 0 0 0 0 0 0 0 0 0 0 0 0 0 14 4 3 9 4 11 8 2 6 15 9 13 1 0 0 0 0 0 0 0 0 0 0 0 0 0 0 0 0 0 0 0 0 0 0 0 12 12 8 15 2 5 3 14 0 0 0 0 0 0 0 0 0 0 0 0 0 0 0 0 0 0 0 0 0 0 0 0 0 0 0 9 6 8 8 0 0 0 0 0 0 0 0 0 0 0 0 0 0 0 0 0 0 0 0 0 0 0 0 0 0 0 0 0 0 1 15 0 0 0 0 0 0 0 0 0 3 5 4 11 9 4 10 5 14 12 3 15 7 8 1 0 0 0 0 0 0 0 10 0 0 0 0 0 0 0 8 13 8 10 9 2 3 10 5 15 9 13 14 2 6 10 15 13 5 14 5 0 0 0 0 0 0 0 0 0 0 11 4 4 10 11 14 5 12 4 3 15 10 11 13 9 12 13 3 4 3 3 11 14 5 15 0 0 7 0 0 0 2 2 2 4 3 3 14 6 2 12 7 6 14 5 3 13 2 4 13 6 2 9 4 1 5 11 5 11 9 10 4 5 5 6 13 9 15 5 4 3 3 14 4 13 9 1 13 13 2 8 12 5 12 4 10 8 12 15 15 2 7 3 9 10 13 5 2 6 3 11 7 13 15 9 11 14 9 1 7 10 2 2 15 4 14 13 3 5 12 1 10 12 12 3 5 13 8 1 9 8 6 15 4 3 8 12 9 7 9 7 14 5 13 11 11 7 10 6 3 9 4 13 14 3 13 2 15 5 8 9 3 6 12 4 3 5 8 5 10 7 12 14 10 6 4 12 15 9 7 11 9 10 8 6 12 7 13 1 1 12 4 9 15 11 7 5 13 6 13 3 6 13 5 10 13 2 14 10 14 7 1 4 15 13 15 4 10 7 7 1 1 14 11 3 8 2 3 14 15 1 9 6 13 4 3 11 5 2 3 4 12 2 15 3 2 7 6 4 10 10 1 7 10 8 3 6 15 14 15 8 3 14 1 2 11 5 13 14 12 12 15 6 9 6 2 8 13 9 1 6 2 13 12 3 13 4 10 13 14 11 10 2 8 10 5 11 12 1 13 2 8 11 14 15 4 15 4 8 8 3 12 3 1 7 9 10 15 12 11 6 12 6 15 12 13 8 7 9 11 9 1 8 3 13 11 8 1 7 6 1 2 14 13 2 3 8 5 12 7 10 2 8 11 3 1 5 2 5 15 8 15 13 4 6 1 9 8 13 7 12 3 9 6 6 2 14 2 2 11 3 9 5 13 6 12 12 4 15 7 15 4 8 12 10 14 8 5 5 1 11 12 10 8 15 15 12 13 9 1 12 3 8 2 5 6 7 12 6 14 2 1 10 8 7 4 4 6 11 2 12 10 2 10 2 12 10 12 1 11 4 1 9 9 9 11 12 14 12 4 7 15 11 14 7 12 11 4 6 1 11 10 5 1 14 9 11 13 14 15 14 1 3 9 15 9 6 14 6 14 3 7 6 15 4 8 9 11 7 7 15 11 7 4 5 14 10 12 12 4 3 9 12 2 11 9 14 15 5 3 14 3 8 6 11 6 2 11 4 11 12 13 15 3 5 9 3 12 1 10 14 13 11 8 13 7 2 11 6 7 6 10 4 3 8 6 5 4 13 5 15 2 3 1 1 