P2
33 33
250
11 8 13 3 14 6 13 1 3 4 5 11 2 13 6 5 6 1 8 9 6 14 12 3 7 6 1 5 12 8 13 12 12 1 3 2 8 12 6 6 8 13 1 7 13 14 7 6 5 6 11 12 11 9 12 10 4 4 14 8 12 9 15 8 13 7 14 8 2 9 6 1 8 15 7 1 11 1 14 3 14 12 15 14 10 8 10 4 11 12 3 3 9 4 12 12 12 10 3 13 5 11 11 12 10 9 5 15 12 11 13 6 9 12 10 15 1 7 9 11 13 14 9 5 9 9 9 7 11 2 7 7 13 8 5 3 6 15 11 6 4 10 7 13 3 10 6 5 9 13 6 8 15 1 11 4 8 7 5 15 12 12 14 0 8 0 0 13 6 5 8 10 2 10 6 6 2 8 8 11 15 14 7 12 2 12 4 6 6 15 4 11 4 5 7 0 0 0 0 0 0 14 14 8 8 3 14 4 7 6 7 9 3 14 15 3 11 3 4 5 11 15 4 11 7 1 11 0 0 0 0 0 0 0 0 11 4 11 8 3 2 6 1 11 2 15 4 2 3 13 4 14 5 5 8 3 9 6 13 0 0 0 0 0 0 0 0 0 0 13 10 11 4 12 14 8 15 10 12 12 10 3 6 2 7 6 2 8 10 4 7 0 0 0 0 0 10 13 0 0 0 0 0 0 8 4 12 6 3 1 1 9 14 2 2 14 6 10 11 14 5 9 0 0 0 0 0 0 1 10 10 2 0 0 0 0 0 0 0 5 5 6 10 8 14 10 5 2 14 9 2 12 0 0 0 0 0 0 0 0 3 6 11 14 2 2 0 0 0 0 0 0 0 0 0 0 0 0 0 0 0 0 0 0 0 0 0 0 0 0 0 0 12 14 6 15 10 12 12 12 0 0 0 0 0 0 0 0 0 0 0 0 0 0 0 0 0 0 0 0 0 0 0 0 3 9 2 10 2 4 4 9 8 1 10 0 0 0 0 0 0 0 0 0 0 0 0 0 0 0 0 0 0 0 0 14 13 14 9 11 5 9 5 12 6 7 12 3 7 3 12 0 0 0 0 0 0 0 0 0 0 0 0 0 0 0 5 15 10 9 15 14 9 15 11 13 6 8 12 13 7 11 4 9 10 8 7 1 0 0 0 0 0 0 6 11 11 7 12 14 9 7 4 12 5 4 4 14 2 14 12 7 1 15 9 15 10 8 3 8 14 3 6 6 12 8 3 2 14 1 1 14 9 5 6 2 8 10 1 7 12 2 10 15 3 7 2 11 10 7 6 4 5 10 11 11 8 10 12 1 11 5 4 14 7 13 11 15 4 7 13 7 10 2 12 9 9 14 2 4 12 15 4 15 2 4 4 13 14 13 12 8 14 5 10 1 2 10 7 13 4 13 6 7 10 2 11 4 11 12 1 9 3 10 8 15 15 11 14 9 5 12 3 14 9 4 13 2 1 10 5 10 9 9 6 11 11 8 15 12 7 6 5 13 9 2 5 7 15 7 4 13 11 6 15 9 1 4 5 13 4 15 7 10 13 6 4 2 4 10 8 13 1 15 11 5 6 12 6 8 1 7 6 4 7 4 4 7 6 7 14 9 8 15 13 4 9 7 7 15 14 7 13 10 1 3 4 5 12 11 4 13 8 10 12 12 10 9 8 11 12 4 10 8 12 7 5 3 7 4 14 14 4 10 6 13 14 10 4 1 7 14 5 8 8 5 5 7 3 15 6 7 14 7 3 8 9 7 3 3 6 6 2 15 8 1 15 2 13 3 4 7 2 3 10 14 8 10 2 5 11 11 8 7 10 1 8 6 12 8 11 14 9 13 3 2 11 10 2 13 14 5 12 1 14 14 14 2 9 8 2 2 6 11 3 9 10 15 7 13 6 11 11 13 3 13 1 15 6 2 2 13 8 2 3 9 9 11 13 3 6 5 15 4 8 8 13 14 5 14 14 1 5 4 9 1 11 1 10 15 5 1 15 1 12 5 2 6 13 14 15 12 15 10 5 15 3 5 2 5 12 5 4 10 7 7 15 5 15 1 10 5 3 7 13 9 15 1 2 4 7 5 7 15 14 11 13 13 4 7 14 6 14 3 13 8 4 15 3 13 15 8 12 1 15 2 3 13 11 14 12 15 7 13 3 15 5 1 2 9 12 3 6 2 7 12 4 10 11 10 11 3 4 6 10 15 5 3 14 6 4 8 12 12 2 15 3 13 5 7 5 10 1 15 15 8 3 7 6 2 3 8 8 2 2 1 12 13 3 15 2 6 9 10 15 13 3 7 2 7 1 5 4 14 9 1 6 4 1 12 12 7 11 7 11 4 7 8 11 6 5 3 14 14 6 14 12 9 11 5 1 5 6 11 8 4 2 7 10 4 15 9 15 15 3 11 15 2 4 11 11 3 14 10 8 12 4 14 13 4 15 3 9 8 2 6 8 15 14 