P2
33 33
250
8 9 1 14 4 3 14 5 9 9 2 14 2 14 13 7 6 13 6 15 15 9 8 9 15 6 7 13 3 8 6 11 10 14 9 1 13 12 6 15 7 13 5 2 9 14 1 4 15 15 5 9 10 1 9 10 13 3 15 4 7 7 11 6 1 4 8 7 9 13 11 12 9 6 13 5 4 12 4 12 1 13 8 10 4 4 12 7 5 5 4 2 15 13 2 11 11 1 12 15 11 3 9 1 13 11 1 13 15 3 4 7 11 3 1 15 2 5 5 11 13 15 9 7 11 5 2 1 8 7 7 12 5 2 14 13 1 5 4 12 12 2 8 1 12 7 8 1 6 2 9 3 1 3 9 13 14 14 12 6 12 7 2 14 1 9 5 10 3 11 8 5 4 13 14 11 10 9 12 7 9 1 14 13 14 8 6 6 5 3 10 3 6 5 14 15 7 1 10 10 6 4 10 11 5 15 6 12 7 13 4 5 1 12 1 11 1 3 6 8 13 13 2 8 8 12 6 12 10 10 7 15 7 15 13 5 4 9 3 15 15 3 2 13 1 3 1 1 5 15 8 4 12 10 4 4 9 14 5 10 9 6 10 7 8 6 1 15 1 1 10 4 12 12 5 10 2 10 4 7 7 1 7 1 15 14 10 8 1 5 3 1 8 7 15 11 15 13 8 5 6 1 5 5 4 4 6 8 9 9 14 15 11 0 0 0 0 0 0 0 0 0 9 11 15 2 6 4 2 11 10 9 11 14 5 13 14 7 3 12 0 0 0 0 0 0 0 0 0 0 0 0 0 0 0 0 0 0 0 0 0 7 13 15 12 11 15 13 8 13 0 0 0 0 0 0 0 0 0 0 0 0 0 0 0 0 0 0 0 0 0 0 0 0 0 0 15 11 12 3 4 0 0 0 0 0 0 0 0 0 0 0 0 0 0 0 0 0 0 0 0 0 0 0 0 0 0 0 0 11 11 15 4 0 0 0 0 14 4 1 8 13 7 3 6 2 1 12 3 11 11 1 12 5 2 5 3 9 11 9 13 14 6 1 6 0 0 2 10 8 4 15 3 5 3 8 12 14 11 7 9 12 8 13 11 7 2 3 3 15 2 1 2 14 6 14 11 12 0 3 3 3 6 13 7 6 9 11 8 15 12 12 8 10 15 12 10 4 5 4 1 5 10 3 13 15 2 4 10 13 9 2 8 13 15 5 9 5 10 5 8 6 1 3 7 5 2 1 15 5 12 5 4 10 1 4 13 14 15 12 2 7 9 10 7 12 7 15 6 12 5 4 6 10 9 4 14 1 9 5 1 14 14 9 11 4 1 14 11 12 10 3 14 2 13 15 2 5 7 6 10 9 4 4 12 2 7 9 8 15 3 7 13 7 3 6 15 5 13 14 12 4 12 10 3 15 9 12 9 3 14 4 1 5 14 15 14 15 14 8 11 5 12 3 4 7 4 7 12 2 6 7 14 7 10 4 8 2 1 4 5 1 6 5 2 10 3 7 3 7 12 13 4 15 9 4 12 6 11 7 3 9 4 3 1 6 11 5 9 14 13 7 14 6 10 1 14 15 12 7 9 6 4 1 1 8 14 2 15 1 6 7 10 1 13 9 10 12 14 8 11 3 14 11 6 9 12 8 5 4 13 2 1 5 3 10 7 7 2 5 9 9 14 12 12 5 8 7 6 10 13 4 3 11 2 1 11 5 4 8 3 4 11 4 13 5 7 9 14 2 6 9 3 11 12 8 8 11 12 7 6 4 15 11 11 2 14 6 7 9 3 12 8 3 6 8 1 7 2 9 15 1 6 15 4 6 2 10 6 8 15 11 15 5 12 2 10 11 1 6 10 4 12 1 3 5 10 14 11 13 15 2 8 7 10 4 7 6 4 2 3 11 4 10 10 8 9 11 13 2 12 6 5 3 11 5 13 14 12 9 11 8 1 15 4 13 9 3 14 6 4 4 14 1 11 7 6 4 3 9 8 12 9 13 3 4 14 14 12 5 6 12 15 12 15 5 5 11 5 15 13 1 13 4 7 2 12 3 10 10 2 11 5 6 6 15 14 4 11 9 3 13 14 10 6 6 4 1 2 4 9 4 3 7 9 3 3 14 7 3 11 10 15 2 13 15 9 5 9 6 11 5 3 11 9 9 4 14 2 1 10 1 14 15 10 11 12 1 6 4 11 8 15 11 2 12 10 5 3 8 11 1 8 15 2 15 8 4 6 7 9 11 3 3 1 12 2 3 9 12 4 12 6 15 14 4 11 1 12 2 11 9 8 6 3 15 11 2 14 13 12 15 8 9 8 6 3 6 3 15 6 5 8 13 3 14 3 5 2 4 12 8 2 4 3 7 3 14 4 2 10 3 2 6 4 2 1 14 7 1 1 2 7 7 14 2 1 2 15 14 2 11 14 12 2 4 3 7 15 7 3 7 8 1 11 8 12 14 7 