P2
33 33
250
12 8 12 13 12 1 13 15 14 5 4 5 5 14 3 9 8 9 13 11 7 12 4 8 13 15 14 4 8 1 14 4 14 3 15 6 10 2 1 4 1 15 13 13 1 9 12 7 8 5 6 13 8 10 3 7 9 2 1 14 10 14 4 10 6 11 9 5 5 12 7 1 13 1 6 2 15 15 9 2 12 10 15 3 9 13 6 6 10 4 4 3 7 5 1 2 10 14 13 10 15 14 10 9 14 7 7 7 15 4 13 1 7 4 7 10 10 15 3 13 11 10 5 11 14 15 5 2 2 13 6 14 5 6 11 12 12 4 6 12 7 13 14 2 3 6 15 12 9 9 10 3 5 8 1 9 11 4 6 8 11 13 3 13 8 2 10 9 11 9 5 10 12 13 10 6 12 8 7 13 5 2 1 7 12 1 14 9 13 13 10 6 2 8 4 8 13 8 5 3 12 15 12 6 4 12 6 14 15 9 2 12 5 8 10 10 14 4 15 1 4 2 7 3 7 5 9 9 14 3 5 6 0 8 11 11 9 10 10 13 1 14 4 7 3 4 14 4 14 10 10 7 6 3 7 6 11 13 6 6 9 5 0 9 0 0 13 6 7 1 14 14 10 14 2 8 7 4 13 2 12 14 2 14 11 8 11 7 6 3 11 5 8 15 5 0 0 5 0 0 0 7 4 12 2 9 14 15 15 7 14 8 14 10 5 3 12 13 10 5 12 4 15 9 1 2 0 0 0 3 15 0 0 0 0 0 0 0 0 0 0 0 0 0 0 0 0 0 0 0 0 0 0 0 0 0 0 0 0 0 0 0 4 11 0 0 0 0 0 0 0 0 0 0 0 0 0 0 0 0 0 0 0 0 0 0 0 0 0 0 0 0 0 0 0 14 4 9 0 0 0 0 0 0 0 0 0 0 0 0 0 0 0 0 0 0 0 0 0 0 0 0 0 0 0 0 0 7 1 2 2 5 0 0 0 0 0 0 0 0 0 0 0 0 0 0 0 0 0 0 0 0 0 0 0 0 0 0 0 10 2 1 7 5 14 6 0 0 0 0 0 0 0 0 0 0 0 0 0 0 0 0 0 0 0 0 0 0 0 0 0 5 13 9 9 11 7 13 15 2 8 0 0 0 0 0 0 0 0 0 0 0 0 0 0 0 0 0 0 0 0 0 14 8 6 1 13 15 11 12 4 5 1 1 5 5 7 10 9 0 0 0 0 0 0 0 0 0 0 0 10 11 15 12 15 13 1 5 8 13 7 12 2 8 4 6 13 11 7 12 5 6 13 14 1 7 2 8 5 11 2 15 2 8 9 14 2 7 7 10 14 8 6 10 13 13 15 8 6 8 9 3 1 15 5 11 1 10 3 6 6 9 4 14 9 2 13 6 7 1 15 11 11 11 5 1 9 3 12 8 8 11 5 4 5 3 7 13 6 13 9 15 3 9 1 14 4 6 12 8 11 10 13 11 2 11 6 11 10 12 15 9 15 15 7 9 13 13 13 6 8 4 5 11 12 8 7 3 15 10 14 15 2 8 2 4 6 4 3 9 13 14 9 13 1 4 12 10 12 9 4 5 13 4 10 4 6 2 12 6 6 8 2 4 10 9 1 2 12 15 4 9 7 14 15 5 15 8 6 2 11 1 4 3 2 4 4 5 7 13 12 7 3 7 2 10 15 6 8 9 10 10 15 13 8 13 11 14 12 7 3 4 5 4 13 9 12 12 12 14 7 2 3 9 9 8 10 1 8 3 5 2 5 9 12 15 2 14 11 9 1 10 4 5 3 13 6 6 5 13 2 2 7 2 12 1 13 9 8 12 9 11 3 10 8 13 4 13 4 1 10 3 5 6 11 5 11 12 7 15 1 3 14 15 12 5 2 14 9 2 3 15 1 3 6 14 6 13 9 11 8 9 11 5 1 9 6 12 12 7 12 1 8 4 13 11 9 7 1 8 1 4 4 11 13 2 1 7 14 5 15 7 10 13 15 12 4 11 12 10 1 3 6 9 12 4 7 7 3 6 13 10 14 2 15 8 4 5 11 9 11 2 10 6 6 5 2 7 15 10 11 5 13 15 2 4 13 14 11 10 7 1 14 2 7 6 10 7 13 3 3 14 12 11 10 11 8 5 14 8 1 6 9 5 2 11 12 6 6 1 8 7 11 4 13 7 1 15 2 13 12 11 11 3 11 14 6 14 8 12 10 5 11 2 1 14 5 12 13 2 11 12 2 10 10 1 11 4 10 10 15 4 15 4 11 10 5 6 7 2 8 1 7 10 11 12 6 11 11 7 9 6 13 13 6 9 6 3 9 8 4 8 7 1 9 14 9 15 12 7 1 1 1 8 4 11 11 14 11 8 5 7 2 11 9 6 7 14 10 1 14 2 8 3 12 7 15 8 2 7 8 8 1 2 9 9 1 11 10 9 2 11 11 4 2 9 11 6 8 