P2
33 33
250
4 9 4 12 7 10 4 4 14 8 8 11 15 11 6 8 12 11 14 12 1 11 2 6 8 7 6 6 9 10 2 12 8 2 10 1 1 5 8 14 9 4 6 13 9 7 11 7 2 15 14 1 5 3 5 1 5 12 12 1 2 1 2 6 5 11 10 10 1 5 8 4 14 2 11 14 1 15 13 1 15 15 14 14 1 1 7 9 1 15 14 15 13 2 3 8 14 9 9 3 13 15 5 13 4 14 7 15 10 8 12 12 11 5 11 3 5 13 2 1 13 9 6 15 13 8 11 5 3 6 14 1 9 12 3 15 7 7 10 2 11 8 3 12 7 5 10 6 14 5 7 13 11 11 1 4 8 15 9 2 13 13 9 1 10 13 11 6 7 10 3 12 14 12 10 6 6 5 2 4 5 13 12 10 9 13 15 8 10 13 9 3 3 7 1 11 7 10 8 4 9 7 1 1 14 7 10 5 7 14 9 12 1 5 1 14 2 2 2 13 11 13 1 10 14 14 5 1 4 12 8 6 13 5 14 13 4 11 15 1 11 8 4 7 13 4 1 12 4 5 7 3 3 11 4 15 14 7 2 12 12 14 10 13 5 3 11 5 11 7 1 9 4 6 12 9 14 4 13 4 2 1 15 7 15 15 15 11 7 6 8 9 6 14 13 2 1 3 11 6 15 15 5 10 8 15 8 7 13 6 10 9 12 3 1 7 6 9 14 5 10 14 11 12 7 1 11 7 3 12 5 11 15 3 1 13 5 14 4 3 5 3 6 8 5 9 2 2 13 2 9 12 9 12 1 4 3 8 4 12 4 3 4 10 9 13 3 1 8 2 7 7 2 14 13 3 14 9 10 11 3 10 2 6 2 12 10 10 7 11 12 14 14 6 5 0 7 15 10 7 2 6 6 11 13 8 10 2 2 11 3 2 10 3 1 3 1 8 9 3 15 2 7 7 5 15 4 0 0 8 10 1 2 13 13 1 15 13 15 14 10 4 13 4 2 5 4 10 11 14 6 14 15 2 9 7 15 0 0 0 0 0 6 9 6 8 3 9 7 14 11 11 10 10 9 3 11 7 4 6 14 3 14 11 2 15 3 7 0 0 0 0 0 0 0 13 10 6 0 0 0 0 0 15 10 8 12 10 13 5 9 12 15 8 8 10 5 0 0 0 0 0 0 0 0 0 0 12 8 5 4 0 0 0 0 0 0 0 0 0 0 0 0 0 0 0 0 0 0 0 0 0 0 0 0 0 0 0 0 4 15 14 15 1 10 0 0 0 0 0 0 0 0 0 0 0 0 0 0 0 0 0 0 0 0 0 0 0 0 0 0 2 8 10 7 1 8 6 1 2 0 0 0 0 0 0 0 0 0 0 0 0 0 0 0 0 0 0 0 0 0 0 7 12 12 7 2 13 10 4 1 10 11 15 0 0 0 0 0 0 0 0 0 0 0 0 0 0 0 0 0 0 0 11 2 7 3 11 12 10 1 14 5 13 1 12 4 14 2 9 0 0 0 0 0 0 0 0 0 0 0 0 0 12 8 11 7 9 10 12 14 2 3 7 11 8 2 3 7 10 7 6 3 3 7 2 15 0 0 0 0 2 5 4 9 11 12 3 5 1 6 12 5 10 15 13 6 5 8 4 6 6 12 15 7 5 8 7 10 8 7 4 4 12 10 8 13 5 15 8 6 14 3 11 14 9 11 14 8 4 6 5 15 7 10 2 13 1 6 10 2 7 7 10 9 13 14 10 5 8 12 9 8 5 4 9 2 10 11 12 3 7 13 2 15 13 4 15 3 13 14 6 4 2 7 11 12 4 4 2 8 9 12 4 15 3 6 10 3 6 10 8 3 7 15 2 4 1 6 8 12 10 10 3 10 1 1 13 15 3 14 13 7 1 5 14 6 5 7 7 15 10 2 12 4 6 14 13 10 15 13 4 13 5 4 13 1 1 7 3 14 7 14 13 12 2 5 1 6 6 15 12 11 7 8 14 1 6 12 4 11 10 1 4 4 5 5 13 11 10 12 13 9 10 7 5 8 9 2 15 9 13 14 2 1 2 13 12 10 14 3 15 13 5 6 6 8 6 7 14 12 4 5 3 8 4 10 11 13 4 13 1 14 14 2 8 9 1 5 12 13 15 8 3 4 11 12 15 11 14 4 12 13 14 1 6 6 11 4 15 5 5 10 13 9 15 14 6 14 15 1 13 14 5 5 7 3 15 8 7 7 4 8 11 9 9 7 8 15 15 6 8 6 6 10 11 7 6 15 1 9 15 13 4 15 13 13 14 6 2 10 10 2 12 9 8 5 14 9 4 4 3 9 12 7 13 15 5 14 13 1 8 7 9 13 4 4 4 7 2 9 9 14 8 4 6 3 6 1 4 13 7 14 4 13 9 1 12 3 11 13 9 2 11 3 1 1 10 9 5 11 7 13 12 2 2 5 10 1 