P2
33 33
250
13 15 9 8 11 5 13 5 3 7 6 12 12 10 4 14 12 14 4 5 5 15 14 10 4 15 12 6 15 1 5 13 12 1 13 9 13 5 11 5 15 3 7 11 14 5 14 10 8 7 7 11 8 2 4 1 8 1 13 10 14 14 2 5 6 8 11 5 11 10 11 10 11 4 15 5 7 9 15 4 10 12 2 13 2 13 15 9 6 2 2 5 10 9 14 9 9 1 2 15 5 1 11 8 15 13 5 10 4 9 3 3 6 7 8 8 15 14 3 11 2 8 2 6 15 15 10 3 7 15 4 8 1 6 12 15 8 6 7 6 5 6 2 10 10 3 12 10 6 15 15 14 14 2 12 10 3 14 12 4 4 8 2 7 6 14 3 12 14 11 14 15 4 10 11 15 1 2 15 6 2 3 1 1 12 0 0 0 0 14 13 9 7 11 12 10 4 2 1 10 5 9 10 6 3 7 6 8 14 8 13 11 7 0 0 0 0 0 0 0 0 0 0 0 0 0 0 15 11 3 15 14 10 6 1 1 12 9 5 7 6 5 7 5 0 0 0 0 0 0 0 0 0 0 0 0 0 0 0 0 0 0 7 2 10 11 6 12 10 3 1 2 12 11 13 0 0 0 0 0 0 0 0 0 0 0 0 0 0 0 0 0 0 0 0 0 0 6 4 3 5 2 13 2 15 15 0 0 0 0 0 0 0 0 0 0 0 0 0 0 0 0 0 0 0 0 0 0 0 0 13 13 7 6 15 8 4 8 0 0 0 0 0 0 0 0 13 2 6 1 6 2 14 12 4 5 12 11 0 0 0 0 0 4 1 2 11 5 9 9 3 0 0 0 0 0 8 4 9 3 1 9 12 10 10 5 8 14 4 9 13 9 6 6 0 0 11 9 15 8 11 12 7 7 0 0 0 9 15 4 1 10 8 5 10 15 12 8 13 5 10 6 14 3 2 3 12 1 2 3 3 2 6 11 1 10 11 0 0 4 11 1 10 4 15 9 6 14 9 3 11 8 4 1 13 7 13 15 14 2 15 15 13 3 11 11 12 11 2 2 2 13 7 3 13 3 2 10 6 11 13 5 13 5 9 4 15 12 8 15 10 14 14 10 14 15 2 4 13 5 10 11 15 15 9 14 13 14 11 11 10 3 13 5 13 1 11 14 10 3 11 8 6 9 1 10 8 7 11 11 14 5 10 1 10 14 4 12 12 1 4 2 4 9 13 9 4 6 6 13 14 15 4 3 11 12 8 11 7 8 14 10 1 12 11 4 14 6 9 14 7 12 8 9 11 3 5 7 13 13 2 15 3 14 8 14 10 9 14 9 2 8 8 1 1 11 8 1 9 9 10 9 4 9 7 13 15 3 3 2 10 3 15 10 11 15 15 4 2 12 8 9 13 5 7 2 1 15 8 12 2 8 12 4 12 11 8 9 12 4 2 9 9 8 3 2 6 4 8 5 6 7 10 5 12 1 7 8 7 10 3 11 7 12 6 4 1 10 3 1 11 4 1 14 12 8 2 9 3 9 6 12 7 8 8 8 11 5 1 3 7 4 6 5 14 6 10 1 3 13 1 7 5 4 14 11 11 15 14 3 5 14 15 6 1 8 10 5 11 14 5 13 2 3 12 15 4 4 8 12 15 5 3 1 11 15 4 7 9 10 3 9 10 14 13 3 10 14 1 14 10 14 5 3 4 2 7 12 1 7 3 8 7 15 9 12 15 7 4 2 7 7 15 10 14 3 14 4 10 3 1 14 9 14 8 7 9 4 7 12 12 14 1 9 3 6 15 5 1 9 12 12 5 4 13 1 10 9 3 3 13 13 5 1 1 4 10 12 12 15 9 1 3 9 3 2 13 14 6 7 2 13 7 11 5 1 8 11 12 15 15 7 15 5 4 1 7 2 9 14 11 7 7 9 5 14 4 2 12 2 7 11 13 6 10 8 15 11 6 14 15 15 3 11 5 12 8 5 3 6 2 8 9 3 9 10 7 9 13 12 7 9 2 12 10 2 10 13 1 2 14 8 15 10 12 10 3 11 6 10 6 9 1 11 4 2 6 13 5 8 10 9 6 6 7 5 7 8 4 11 10 2 6 7 6 5 3 12 11 14 5 7 15 2 10 14 13 15 15 9 5 8 13 14 10 1 4 9 7 13 1 15 2 12 13 1 11 8 2 15 6 5 10 2 4 8 15 14 8 8 12 9 8 1 12 12 11 10 1 10 4 9 11 4 9 13 5 6 6 10 2 15 12 11 3 3 4 9 8 9 9 1 5 8 3 4 14 10 9 1 3 10 15 12 9 13 7 7 3 10 4 11 7 13 15 10 9 13 5 10 13 12 13 13 2 1 6 13 14 8 10 14 8 14 2 7 2 2 10 15 6 5 13 10 13 7 2 3 5 7 6 6 7 10 8 7 8 14 15 15 11 14 12 1 6 14 9 12 11 