P2
33 33
250
15 15 7 15 11 15 1 14 7 2 9 15 11 9 12 8 1 15 11 1 5 9 1 6 12 2 12 9 6 11 12 8 11 15 9 4 7 1 7 3 14 9 5 10 2 9 5 10 5 8 9 12 4 2 7 6 4 4 4 9 4 7 13 11 13 8 5 5 6 15 2 15 9 11 6 9 14 7 5 1 14 8 14 2 3 13 4 3 1 2 8 14 8 15 8 14 4 4 13 12 13 9 7 8 8 15 1 3 11 4 15 6 11 11 1 9 4 5 10 7 11 4 5 1 3 12 13 2 4 15 2 4 2 15 9 13 9 14 5 15 15 9 7 11 7 12 14 7 2 4 9 6 15 13 7 2 2 11 4 10 14 9 7 9 11 10 1 6 12 5 7 11 3 5 14 2 7 15 14 9 3 3 10 10 2 8 4 1 10 15 13 8 6 9 1 6 5 5 10 1 11 4 13 11 8 1 12 5 10 5 15 10 4 7 9 1 14 7 15 9 8 3 3 12 13 3 3 13 14 11 15 13 10 12 10 8 13 13 1 5 4 6 3 12 12 1 9 5 4 5 11 15 4 12 9 9 1 4 11 5 6 1 8 5 11 9 8 14 15 8 15 4 2 12 11 8 7 2 7 14 5 12 15 12 6 9 3 14 3 8 11 6 3 9 3 3 14 5 14 8 11 12 8 15 14 14 8 15 6 11 14 6 15 7 11 6 13 15 1 5 7 12 10 2 12 15 7 3 7 4 4 3 13 6 13 13 14 11 7 0 0 14 13 2 2 12 2 7 1 10 10 9 10 10 1 6 3 13 15 4 5 1 1 1 1 6 2 12 14 7 10 8 0 0 0 0 0 1 10 1 13 15 4 2 5 8 12 15 11 15 13 9 5 15 2 2 3 6 14 8 11 5 11 11 13 0 0 0 0 0 0 0 0 1 2 3 5 6 9 9 15 1 10 3 14 8 6 1 12 8 8 2 13 1 9 4 8 6 0 0 0 0 0 0 0 0 0 0 0 13 3 11 1 6 6 4 11 5 4 8 11 6 3 13 8 7 4 13 1 12 11 5 0 0 0 0 0 0 0 0 0 0 0 0 0 0 0 0 0 0 0 0 0 0 0 1 1 1 15 12 5 5 5 9 10 10 6 0 0 0 0 0 0 0 0 0 0 0 0 0 0 0 0 0 0 0 0 0 7 3 4 9 14 2 4 7 11 11 7 11 1 0 0 0 0 0 0 0 0 0 0 0 0 0 0 0 0 0 0 0 0 5 6 1 5 2 15 3 13 6 1 3 2 12 1 4 0 0 0 0 0 0 0 0 0 0 0 0 0 0 0 0 0 0 11 4 6 6 10 3 15 4 8 10 4 12 14 3 14 11 11 0 0 0 0 0 0 0 0 0 0 0 0 0 0 0 0 3 15 14 12 8 6 15 3 4 1 9 12 5 15 11 10 9 8 11 6 0 0 0 0 0 0 0 0 0 0 0 0 0 14 5 9 10 9 15 10 3 15 8 12 3 2 5 8 9 13 4 1 6 3 13 6 2 6 0 0 0 0 0 11 3 3 4 11 11 15 1 9 7 5 9 11 12 8 4 8 12 4 12 8 2 1 9 13 12 14 15 9 10 1 13 1 11 12 7 1 15 6 6 1 6 15 15 2 12 7 3 3 12 2 8 12 7 2 8 6 2 13 13 12 8 10 15 8 14 15 6 1 5 7 2 14 7 1 5 4 11 3 15 2 12 6 15 9 4 8 10 11 7 13 12 15 3 3 7 7 6 11 1 9 8 9 13 6 4 3 6 13 13 12 11 4 7 13 6 14 3 10 6 5 13 8 11 12 3 1 2 13 4 15 9 13 4 15 2 9 1 3 11 11 4 4 2 14 6 9 3 4 1 1 5 14 10 10 13 9 5 1 8 9 9 12 14 15 12 4 10 15 7 13 5 8 13 14 8 6 14 9 3 5 5 3 12 8 10 13 8 7 15 5 9 5 5 1 11 13 13 1 2 4 2 6 4 14 10 11 8 11 15 15 13 3 15 15 13 4 6 3 2 8 10 2 9 5 11 3 4 11 11 1 6 8 1 7 4 4 5 11 5 14 8 4 13 1 8 15 2 5 9 13 15 5 9 7 6 10 6 2 10 7 2 3 5 15 7 7 10 2 4 11 2 12 6 8 13 9 7 9 7 13 13 7 14 12 14 14 15 14 5 12 8 15 4 4 7 15 13 10 11 10 15 8 11 12 14 8 2 3 5 15 10 6 14 5 4 10 7 3 12 7 7 8 13 12 7 12 1 9 7 4 8 11 3 5 7 12 15 10 2 11 14 10 15 11 9 5 9 10 8 3 12 9 8 1 11 14 9 3 15 10 7 11 15 10 10 13 11 1 10 1 6 13 8 11 3 15 13 5 2 5 3 13 14 7 15 6 6 8 11 3 13 3 4 13 8 13 4 11 