P2
33 33
250
9 2 3 2 2 12 3 13 1 6 8 13 9 1 2 14 2 15 9 8 5 15 1 5 3 5 13 15 9 9 11 1 2 15 15 9 1 2 13 3 12 12 12 13 1 8 11 15 11 13 6 3 13 1 4 10 12 9 12 5 10 8 13 1 5 3 15 6 1 11 8 14 7 4 8 2 15 4 14 4 11 15 9 11 3 6 8 3 4 8 9 5 14 2 9 3 1 12 9 10 15 7 9 4 1 12 12 14 8 9 3 2 4 6 12 5 4 9 5 10 10 10 10 7 13 7 13 3 4 8 5 9 1 10 7 13 13 9 12 2 10 6 1 1 15 6 10 3 12 2 7 15 6 13 1 1 2 1 3 15 8 3 4 4 2 4 14 6 9 9 14 8 0 0 0 0 0 0 9 14 10 4 7 5 9 5 15 1 8 10 9 9 2 11 6 14 6 13 6 0 0 0 0 0 0 0 0 0 0 0 0 0 0 0 0 0 12 8 12 2 9 1 6 8 12 11 12 4 3 4 1 0 0 0 0 0 0 0 0 0 0 0 0 0 0 0 0 0 0 0 0 0 12 2 8 11 7 11 14 5 1 14 14 15 0 0 0 0 0 0 0 0 0 0 0 0 0 0 0 0 0 0 0 0 0 0 0 14 15 3 13 3 8 9 15 4 4 0 0 0 0 0 0 0 0 0 0 0 0 0 0 0 0 0 0 0 0 0 0 0 0 10 11 10 4 14 9 4 9 13 0 6 3 4 11 2 12 6 8 13 2 8 12 1 11 4 2 0 0 0 0 0 0 0 0 0 12 6 12 1 6 14 9 13 12 14 8 9 11 14 2 13 2 15 13 13 14 5 6 3 12 9 11 0 0 0 0 0 0 0 6 1 11 2 11 7 10 11 9 8 13 1 14 15 9 7 14 7 12 2 1 1 11 8 8 4 11 14 0 0 0 0 0 8 13 13 5 7 1 3 8 12 2 7 11 2 9 13 11 14 10 4 2 4 11 11 14 11 8 1 11 5 5 0 0 0 0 2 13 5 14 3 4 12 6 2 7 10 2 3 13 12 10 14 15 9 6 10 13 13 11 13 8 12 9 10 3 0 0 0 4 3 5 7 5 2 4 2 15 8 8 15 10 13 6 7 3 7 12 8 8 12 4 6 9 14 12 10 9 6 12 2 5 4 1 4 8 15 5 3 8 13 1 1 7 3 5 4 5 14 4 6 14 2 10 6 7 13 7 1 8 3 13 3 2 2 8 14 11 12 13 4 5 15 6 10 4 4 11 14 9 15 7 4 3 2 3 10 13 5 4 3 12 13 1 5 8 12 1 7 12 13 4 12 7 1 6 2 12 5 12 1 3 3 9 15 9 8 14 2 13 12 13 10 7 12 10 8 2 3 2 11 13 13 2 13 10 4 1 10 1 9 14 5 2 14 15 14 1 12 15 6 4 10 8 6 4 6 5 15 12 3 13 7 14 7 6 4 9 1 4 7 10 11 11 7 2 15 10 11 6 1 8 4 14 2 11 2 2 9 15 4 6 8 14 1 5 8 5 10 9 12 1 6 1 5 12 9 14 4 11 12 4 6 3 12 8 10 12 9 4 9 10 7 8 11 13 8 3 14 3 13 2 12 3 3 5 10 5 8 5 4 14 9 6 12 9 15 5 14 15 13 5 7 14 2 13 12 9 6 9 6 6 7 13 9 5 7 10 11 7 14 12 6 15 1 6 11 14 13 14 1 12 6 1 4 14 5 14 5 4 11 12 1 3 7 9 1 5 12 15 4 12 14 7 4 7 7 7 6 7 11 8 12 9 14 8 5 12 11 1 8 3 10 4 9 1 11 13 4 14 13 3 12 12 8 7 14 2 14 6 14 14 2 13 2 15 3 3 12 10 12 6 3 10 5 6 15 3 10 15 13 4 1 10 3 1 12 9 7 6 4 9 10 14 5 7 6 5 14 7 4 6 10 1 14 9 11 6 15 6 11 5 10 7 12 1 12 3 1 12 11 13 7 8 3 12 1 13 12 12 4 10 8 6 15 15 11 15 15 1 14 1 11 1 13 12 3 8 8 12 3 14 1 3 5 13 1 6 7 13 3 7 10 10 9 8 6 6 6 9 8 2 10 7 11 7 14 1 15 9 11 13 1 2 1 9 6 14 11 3 10 9 9 15 1 1 7 15 10 11 7 15 12 6 10 3 3 10 8 4 4 9 11 8 6 10 10 2 5 4 7 14 5 5 9 3 3 11 6 10 6 8 6 1 5 3 9 3 5 4 7 9 15 2 2 10 2 6 15 15 11 6 10 5 14 5 8 8 12 7 11 10 10 3 5 13 3 3 14 8 8 8 13 7 14 9 5 2 8 3 14 3 13 11 5 1 12 8 5 3 4 2 6 9 14 6 2 2 2 12 11 6 8 7 13 7 6 11 13 6 13 12 1 12 6 14 3 6 