P2
33 33
250
11 4 1 15 2 10 8 2 2 15 13 3 4 6 4 1 11 5 2 1 8 2 10 2 2 12 1 15 10 5 6 8 8 10 15 9 2 1 10 4 6 7 6 5 2 10 12 13 11 11 6 9 6 14 12 5 14 6 3 5 2 6 15 7 7 3 12 5 9 4 1 7 2 14 4 2 14 11 12 3 1 12 13 5 15 9 2 3 10 7 6 7 13 15 10 3 6 12 3 15 7 8 15 14 5 1 9 2 2 2 6 8 14 1 14 7 12 3 14 13 4 14 15 10 12 13 10 2 15 5 15 6 13 7 13 10 8 13 1 9 6 10 4 3 6 15 5 10 5 1 9 14 8 3 3 5 6 9 10 9 6 2 9 8 15 7 0 0 8 15 9 1 9 6 1 10 1 7 9 2 8 14 12 1 8 5 14 13 5 5 1 13 15 14 2 14 12 2 4 0 0 0 13 3 1 12 2 15 8 15 9 9 2 15 10 15 7 14 2 12 4 5 4 12 3 10 14 8 10 8 4 5 0 0 0 0 0 12 13 12 5 10 14 4 14 6 11 1 5 4 6 12 6 1 5 1 5 13 8 12 6 9 14 10 12 4 0 0 0 0 0 3 11 2 7 6 9 5 2 10 13 6 11 14 8 10 5 8 5 14 3 11 8 2 11 9 0 4 1 11 4 0 0 0 0 0 0 3 2 3 6 9 7 5 8 5 2 6 10 7 6 10 7 2 10 12 13 0 0 0 6 6 7 14 1 0 0 0 0 0 0 0 0 13 9 9 5 13 13 8 12 10 2 14 2 10 0 0 0 0 0 0 0 15 7 5 1 15 13 10 0 0 0 0 0 0 0 0 0 0 0 0 0 0 0 0 0 0 0 0 0 0 0 0 0 1 10 15 7 13 1 5 3 10 10 0 0 0 0 0 0 0 0 0 0 0 0 0 0 0 0 0 0 0 0 0 15 1 1 5 9 15 1 8 2 15 6 4 11 4 3 0 0 0 0 0 0 0 0 0 0 0 0 0 0 0 0 1 2 14 9 10 8 13 15 15 12 14 1 5 9 11 7 14 14 7 9 10 9 0 0 0 0 0 0 12 4 12 15 4 4 15 15 15 13 15 11 6 10 11 8 7 3 6 14 8 9 6 10 5 13 15 9 2 11 4 13 8 3 6 9 6 8 2 3 10 7 9 13 9 4 11 15 4 1 4 5 4 3 7 7 2 3 5 6 12 5 5 12 3 14 2 4 8 2 1 2 2 12 5 8 12 6 10 7 1 3 7 1 11 13 13 10 2 10 14 5 5 11 13 9 8 7 8 6 15 11 8 1 10 2 3 7 9 14 5 15 3 12 1 3 13 12 3 11 2 15 9 12 7 7 10 10 11 15 9 6 10 15 8 10 15 11 15 13 9 4 6 4 12 2 3 3 6 11 14 8 15 6 9 12 5 15 8 5 7 12 1 9 10 4 2 5 13 10 13 11 4 1 5 12 4 11 11 6 15 6 12 5 5 7 13 5 14 12 8 3 8 14 4 14 8 3 13 12 12 10 8 5 5 3 2 13 7 6 11 6 14 7 5 2 15 7 9 12 14 2 15 10 3 4 13 10 9 10 15 7 12 7 12 2 15 11 2 7 10 15 4 15 7 5 3 12 1 3 14 5 7 10 7 10 2 4 4 9 12 15 10 14 10 6 10 14 15 9 13 12 8 6 15 5 10 12 7 1 8 6 2 7 14 12 12 14 5 2 2 3 5 11 8 15 12 4 13 7 13 15 6 15 3 5 13 7 15 14 3 2 15 14 11 9 14 8 6 2 4 7 2 1 10 12 9 4 5 11 10 12 15 12 2 10 4 15 14 13 6 1 10 2 4 1 3 5 15 13 13 5 9 8 8 3 3 15 6 5 4 7 15 14 8 7 2 4 2 12 5 14 15 12 10 12 5 10 1 12 5 1 13 11 15 4 7 13 6 15 8 7 13 5 3 6 4 1 7 5 11 2 11 11 4 3 6 14 11 13 14 11 6 3 4 14 13 1 10 8 12 9 2 1 12 3 13 4 7 4 15 12 10 10 9 1 6 5 7 4 8 2 11 9 6 5 8 10 14 1 3 5 6 8 4 14 14 3 4 5 3 10 15 10 8 1 14 8 5 3 7 9 5 7 11 14 9 2 15 9 4 10 4 9 10 14 2 12 14 5 10 15 1 6 7 15 8 1 1 6 14 13 9 15 6 11 6 14 11 6 10 15 1 2 6 4 12 12 10 4 6 8 6 6 6 13 2 11 14 10 15 13 12 15 13 11 3 8 8 7 12 2 15 7 6 15 11 5 4 7 6 4 1 10 9 1 3 11 14 15 6 12 6 2 1 3 9 3 13 13 10 2 5 6 2 8 3 1 15 9 2 1 8 13 7 1 6 6 11 14 10 6 11 2 12 8 12 10 13 9 7 1 8 14 