P2
33 33
250
3 4 10 1 13 5 13 6 6 11 3 13 14 4 2 7 3 7 11 15 3 12 3 3 8 8 9 3 5 2 9 4 1 6 3 15 13 7 6 15 2 11 6 6 3 8 6 8 9 15 5 2 1 13 12 4 9 9 7 7 2 14 12 8 9 7 14 1 8 15 10 12 9 14 10 15 14 14 13 7 2 11 14 2 12 11 11 14 10 15 5 12 1 11 10 2 8 12 5 2 7 5 5 8 7 7 6 2 6 11 1 5 12 6 3 10 10 4 3 2 4 14 10 3 3 5 8 12 12 3 8 11 5 4 4 8 2 6 13 4 7 9 5 4 15 14 1 14 12 14 11 14 10 4 11 13 1 1 8 9 3 6 6 10 3 11 1 7 7 5 2 5 2 4 3 11 14 14 15 10 12 8 3 1 15 14 12 12 7 15 3 5 7 10 13 1 4 6 2 5 2 11 13 5 1 6 4 1 8 9 4 12 6 13 7 4 5 3 7 3 7 9 2 5 8 9 5 8 3 4 3 7 1 4 2 13 7 13 14 5 14 1 15 7 8 10 11 10 1 2 13 7 4 13 8 8 8 3 10 11 12 15 11 7 14 12 1 9 7 5 8 1 7 13 10 10 6 6 12 10 12 4 8 4 10 14 4 1 5 9 12 12 10 9 9 12 11 15 5 8 2 8 10 7 10 1 9 13 13 13 9 6 2 8 1 13 2 12 9 8 4 1 15 8 2 0 0 0 0 0 15 4 7 8 8 13 15 14 4 2 14 5 11 10 8 3 11 14 4 9 3 5 0 0 0 0 0 0 0 0 0 0 0 9 2 7 7 10 11 11 4 9 8 4 5 3 10 3 10 2 4 8 0 0 0 0 0 0 0 0 0 0 0 0 0 0 2 12 6 5 8 10 3 7 4 10 11 11 7 5 4 15 1 0 0 0 0 0 0 0 0 0 0 0 0 0 0 0 0 4 13 15 15 8 11 12 1 11 6 14 4 7 14 12 0 0 0 0 0 0 0 0 0 0 0 0 0 0 0 0 0 0 5 6 3 11 1 6 12 10 15 4 9 4 9 9 0 0 0 0 0 0 0 0 0 0 0 0 0 0 0 0 0 0 0 6 5 3 3 7 14 9 2 1 8 5 6 0 0 0 0 0 0 0 0 0 0 0 6 6 11 4 2 14 10 15 8 4 5 7 9 13 8 10 12 9 14 3 7 0 0 0 0 0 0 0 0 0 5 13 6 5 15 2 15 11 5 9 2 1 15 15 9 6 12 8 4 1 1 14 14 0 0 0 0 0 0 0 0 15 15 3 13 12 4 7 5 12 9 15 10 7 10 13 10 3 4 9 5 1 6 14 14 0 0 0 0 0 0 0 4 14 4 7 13 7 6 13 13 9 2 10 8 8 15 3 12 5 2 12 11 10 13 2 14 0 0 0 0 0 0 0 3 5 13 5 6 10 5 7 3 13 10 13 8 11 3 3 15 2 10 5 9 3 6 4 10 0 0 0 0 0 0 12 5 12 13 8 7 7 3 8 6 14 15 5 2 3 3 6 4 12 7 7 10 1 15 1 14 0 0 0 0 0 0 1 13 8 7 11 8 8 14 8 11 6 15 9 1 15 1 9 11 2 1 2 3 11 5 4 2 0 0 0 0 0 0 4 12 5 3 8 7 2 5 7 15 1 11 5 14 3 5 2 5 9 10 2 2 7 4 10 14 9 0 0 0 0 0 9 12 4 3 5 11 7 4 2 3 2 2 1 7 6 14 8 7 13 11 3 10 6 4 6 12 6 13 0 0 0 0 6 10 7 13 14 2 10 14 12 3 12 6 14 8 14 1 12 7 11 6 7 9 2 1 2 14 10 15 15 0 0 0 15 11 6 7 2 10 1 11 4 14 1 13 4 13 2 4 14 7 13 4 4 7 3 10 12 13 10 11 7 8 0 0 8 11 12 8 9 14 15 12 10 4 6 15 9 15 7 9 1 15 13 15 10 2 10 14 2 3 7 3 5 11 14 0 8 5 9 11 8 12 1 6 8 9 13 13 12 9 3 12 15 9 5 9 9 7 9 3 1 6 5 2 14 12 7 1 8 6 12 12 11 13 6 3 12 5 13 7 13 14 12 3 8 9 6 12 10 4 3 3 13 11 6 12 9 11 13 7 8 11 11 13 14 9 6 3 13 2 12 13 9 5 8 15 4 10 14 5 12 1 8 1 1 10 7 10 13 10 8 1 2 3 4 3 11 5 12 4 15 11 1 15 9 11 5 11 7 15 10 7 7 7 14 14 11 13 13 6 1 2 10 6 12 14 12 5 8 8 6 2 12 9 1 15 8 11 8 10 8 6 12 13 8 1 5 5 12 10 10 14 8 15 4 6 9 9 5 12 10 11 12 12 6 6 12 6 14 12 13 4 5 12 2 10 6 8 5 13 10 11 4 8 6 5 14 11 