P2
33 33
250
4 10 7 10 3 6 12 8 13 4 14 5 12 13 7 4 11 10 4 12 15 5 10 10 14 3 3 4 11 8 2 2 2 6 12 4 8 7 6 4 4 14 12 7 3 10 1 12 12 3 1 15 10 11 1 1 6 2 1 12 15 12 12 4 11 2 6 4 3 12 3 9 15 10 10 12 8 14 11 2 8 7 2 12 8 14 3 12 10 12 2 8 4 7 9 11 3 13 13 7 15 15 6 8 9 10 8 7 12 7 3 9 4 10 15 11 13 2 1 11 10 12 5 5 10 14 5 1 7 3 8 15 7 13 15 9 8 15 7 3 8 1 9 10 8 1 7 2 3 9 8 3 12 3 14 3 7 9 2 4 15 11 12 6 13 10 4 6 10 3 3 2 10 10 6 5 10 10 4 4 2 2 4 12 15 7 13 10 8 6 13 5 6 10 9 12 0 0 14 10 10 3 4 5 1 13 8 14 6 11 3 8 10 4 12 6 9 14 2 13 3 9 1 5 2 3 8 1 0 0 0 13 10 14 11 4 3 10 6 2 9 4 6 2 8 7 10 12 12 11 9 4 9 5 1 10 8 11 2 0 0 0 0 0 9 8 11 5 14 12 10 13 2 8 3 5 8 12 7 10 12 3 15 14 13 2 1 13 7 13 12 0 0 0 0 0 0 4 4 9 12 9 8 12 13 4 7 15 2 6 13 14 5 1 1 13 11 2 12 8 7 7 0 0 0 0 0 0 0 0 10 2 1 4 14 8 3 8 2 12 6 9 12 10 13 15 8 13 6 11 4 9 0 0 0 0 0 0 0 0 0 3 8 0 0 0 6 4 8 1 15 2 9 14 6 13 3 9 11 13 7 0 0 0 0 0 0 0 0 0 0 0 0 1 8 5 0 0 0 0 0 0 0 0 0 0 0 0 0 0 0 0 0 0 0 0 0 0 0 0 0 0 0 0 0 8 10 13 5 0 0 0 0 0 0 0 0 0 0 0 0 0 0 0 0 0 0 0 0 0 0 0 0 0 0 0 4 7 4 2 14 1 0 0 0 0 0 0 0 0 0 0 0 0 0 0 0 0 0 0 0 0 0 0 0 0 0 1 6 8 9 10 7 5 9 8 0 0 0 0 0 0 0 0 0 0 0 0 0 0 0 0 0 0 0 0 0 0 14 1 10 12 3 4 1 9 5 15 5 8 7 5 8 0 0 0 0 0 0 0 0 0 0 0 0 0 0 0 0 10 12 14 13 9 14 12 12 11 2 15 3 2 6 4 15 4 7 4 9 2 3 5 0 0 0 0 0 15 13 2 12 12 6 10 7 12 14 2 8 9 13 8 15 8 8 7 12 4 5 7 4 5 5 10 1 8 10 1 6 11 4 12 15 12 9 15 11 7 10 3 2 5 5 4 14 1 12 13 13 12 14 8 7 7 10 5 13 13 4 7 15 12 5 6 10 8 4 7 8 2 11 2 9 3 5 5 9 10 10 7 13 13 12 15 14 12 5 11 7 14 5 10 12 1 1 12 6 1 5 3 2 7 10 7 13 11 5 2 2 9 3 14 2 9 15 15 5 1 13 15 3 3 5 12 2 14 15 10 13 4 1 10 3 14 7 2 8 14 14 2 1 7 2 3 6 2 2 5 11 6 5 6 11 8 12 1 12 4 10 13 7 8 1 14 6 11 13 14 14 10 1 8 8 1 5 7 10 1 1 2 6 7 2 3 15 3 4 1 3 1 2 10 2 1 12 7 10 1 7 9 1 2 11 6 12 3 14 12 6 12 4 9 1 9 15 1 13 14 15 7 13 13 8 4 1 5 14 14 3 5 10 4 7 4 2 1 6 6 7 13 9 3 1 14 8 1 14 11 1 1 5 12 3 9 10 8 14 8 13 3 2 3 1 12 14 10 12 6 6 7 4 6 14 7 9 15 13 15 11 8 4 12 7 11 10 2 14 1 13 9 14 7 5 9 10 10 9 10 6 2 8 9 4 11 7 11 8 15 7 1 1 3 1 11 15 4 6 11 7 2 2 7 15 9 5 8 12 4 5 13 4 15 8 8 5 13 7 9 4 9 13 4 15 10 2 14 4 13 6 7 9 15 5 4 12 8 14 11 6 2 4 9 10 9 1 6 15 4 7 14 3 1 8 11 14 6 6 4 3 14 4 8 3 1 11 14 10 1 12 3 7 6 5 15 12 2 11 1 10 1 5 8 2 2 14 2 4 9 5 4 7 12 7 6 9 14 11 13 10 4 12 3 14 15 2 9 5 7 4 11 11 14 14 7 3 5 7 2 3 14 8 14 8 9 9 12 2 7 2 9 15 1 9 9 8 14 12 12 14 6 9 10 8 13 4 13 12 3 10 7 14 3 2 15 7 7 2 3 5 14 15 1 5 1 3 12 10 12 1 11 3 7 14 10 5 12 11 8 3 7 9 6 14 5 7 15 3 3 11 