P2
33 33
250
14 12 7 15 15 15 4 7 14 12 11 8 13 4 14 11 11 10 8 6 2 3 10 12 5 4 5 10 5 2 15 8 5 10 10 13 9 9 14 12 12 6 12 11 10 11 15 7 2 12 4 6 8 8 4 3 1 11 4 10 9 13 5 4 4 7 3 14 7 9 2 14 8 5 3 12 4 3 12 4 2 2 8 9 7 12 14 9 3 12 13 6 10 7 2 8 11 2 13 14 12 9 4 1 3 11 4 1 13 4 2 14 1 12 11 3 3 10 14 15 14 5 5 2 14 9 14 7 14 14 10 0 7 2 10 8 15 5 9 4 3 15 10 15 6 6 3 5 4 7 11 2 2 8 2 3 10 6 14 13 7 11 7 11 0 12 14 1 12 14 5 10 12 9 6 13 6 3 6 14 8 14 6 9 6 13 9 11 12 15 15 11 4 2 2 10 0 0 9 14 6 7 11 6 5 12 6 4 15 7 14 13 15 12 14 14 13 9 4 7 9 15 6 4 6 14 8 13 15 0 7 12 1 15 9 6 12 8 5 10 4 5 8 11 8 10 3 13 6 14 11 3 8 10 3 11 10 7 4 5 12 0 0 14 13 15 8 11 4 12 10 7 9 4 14 14 15 15 15 2 15 7 4 13 4 3 6 8 8 2 7 6 2 0 0 0 11 8 12 15 11 11 4 3 6 11 5 13 12 8 2 9 9 9 13 11 4 7 4 15 2 10 11 13 3 0 0 0 13 2 3 8 9 8 10 2 13 4 11 4 3 12 14 10 7 14 14 11 2 9 3 2 11 7 10 3 0 0 0 0 15 4 2 4 9 7 11 10 13 7 7 10 4 1 7 4 5 8 4 6 7 8 15 5 10 12 7 5 0 0 0 0 0 4 7 5 0 8 8 6 9 6 1 3 12 12 7 3 3 1 3 14 9 6 3 1 4 10 2 0 0 0 0 0 0 9 8 1 5 0 0 1 3 11 12 11 1 4 15 9 4 3 12 6 1 1 12 12 14 0 0 0 0 0 0 0 0 6 4 15 3 11 0 0 0 0 3 15 6 9 10 4 6 8 5 9 14 2 0 0 0 0 0 0 0 0 0 0 0 4 12 9 10 8 12 0 0 0 0 0 0 0 0 0 0 0 0 0 0 0 0 0 0 0 0 0 0 0 0 0 0 9 7 4 13 7 10 7 2 0 0 0 0 0 0 0 0 0 0 0 0 0 0 0 0 0 0 0 0 0 0 0 0 3 3 15 8 13 15 5 9 5 5 0 0 0 0 0 0 0 0 0 0 0 0 0 0 0 0 0 0 0 0 0 2 6 1 8 7 14 1 15 10 13 6 3 3 0 0 0 0 0 0 0 0 0 0 0 0 0 0 0 0 0 0 8 13 4 9 3 1 14 4 7 7 6 4 11 11 7 1 11 0 0 0 0 0 0 0 0 0 0 0 0 0 0 12 15 3 10 3 9 8 3 5 8 12 9 3 5 4 11 3 15 2 5 6 13 11 0 0 0 0 0 10 1 2 15 3 9 8 6 14 8 11 9 4 6 11 5 4 3 3 13 1 12 3 2 5 13 5 10 5 2 14 3 13 13 1 15 4 8 2 13 7 11 15 6 3 8 2 1 6 3 2 5 3 14 12 4 13 8 2 13 6 2 8 9 7 4 4 2 1 8 14 10 5 14 6 8 10 7 13 4 4 14 14 10 12 8 2 6 10 11 2 7 7 14 9 11 10 7 1 15 9 12 11 8 2 12 14 1 12 8 1 8 2 9 2 8 3 13 5 10 1 7 10 14 1 7 1 2 1 1 6 10 13 3 5 7 7 13 4 11 10 6 4 1 12 8 3 1 2 9 3 12 8 15 6 5 8 14 10 1 15 15 1 4 9 12 10 3 9 2 7 15 14 13 1 1 13 7 1 15 2 6 6 13 3 6 5 11 11 10 12 2 13 10 3 7 15 12 14 6 3 11 8 14 10 4 15 11 9 7 6 11 11 12 2 1 4 14 10 8 11 5 3 3 2 7 7 1 5 14 12 8 12 9 15 10 14 4 14 15 1 13 2 10 8 4 14 12 6 6 15 3 11 6 11 11 11 4 4 12 3 13 14 1 7 2 4 10 11 12 2 12 8 15 6 5 1 13 1 8 13 11 8 10 5 13 15 3 6 12 10 13 14 12 11 8 6 1 3 3 14 15 6 6 10 11 4 7 11 1 15 4 9 6 12 2 4 3 5 4 14 7 12 11 1 3 6 3 3 11 9 15 13 15 11 7 12 7 14 10 14 8 15 11 1 3 12 9 9 5 12 1 10 5 11 11 1 7 6 2 12 13 5 2 6 13 6 6 12 13 8 5 3 5 6 6 6 7 3 1 7 3 5 4 10 13 4 3 14 9 11 7 15 14 7 14 14 9 12 11 3 8 13 3 14 1 10 9 4 9 5 8 4 14 7 