P2
33 33
250
4 3 7 5 8 1 3 11 4 8 8 5 7 4 2 8 3 5 1 4 4 1 4 5 9 7 9 12 2 5 3 13 4 14 5 9 14 7 11 13 14 11 6 7 4 11 3 13 13 11 3 3 3 12 9 13 3 7 11 2 1 12 13 12 6 5 15 9 14 6 1 3 11 10 5 12 13 12 10 13 10 15 5 6 15 10 14 9 3 13 13 12 4 15 7 1 11 4 3 6 8 4 3 9 10 15 7 7 14 9 7 13 2 3 1 10 1 15 15 14 13 3 3 7 14 12 13 12 13 13 11 7 9 12 2 12 14 4 13 14 7 7 12 14 13 9 9 10 7 5 15 5 9 3 9 6 3 9 13 6 14 8 1 3 12 11 8 3 12 8 7 12 3 11 3 14 4 4 11 11 8 6 4 12 10 8 3 1 12 11 10 2 4 9 6 13 7 6 9 9 4 10 15 1 0 0 2 13 14 15 2 15 14 1 10 6 9 8 10 5 3 14 10 2 12 13 8 3 13 7 12 1 3 7 13 4 15 0 0 0 15 14 5 15 9 7 7 15 5 2 4 8 1 5 5 2 3 2 13 1 2 1 13 9 1 5 7 6 13 15 0 0 0 0 0 2 11 15 3 4 9 10 14 15 4 1 5 10 6 13 3 13 2 10 14 10 9 1 12 15 1 12 4 0 0 0 0 0 0 0 5 14 2 6 14 14 12 9 15 5 6 10 5 13 1 2 8 1 8 8 9 8 4 7 1 5 14 0 0 0 0 0 0 0 0 0 15 4 3 10 8 8 9 11 1 3 15 5 13 11 0 0 0 4 9 3 13 6 11 3 8 9 0 0 0 0 0 0 0 0 0 0 0 0 0 0 0 0 0 0 0 0 0 0 0 0 6 14 13 12 10 4 14 4 11 7 0 0 0 0 0 0 0 0 0 0 0 0 0 0 0 0 0 0 0 0 0 0 0 3 3 4 11 3 11 4 5 14 5 6 14 0 0 0 0 0 0 0 0 0 0 0 0 0 0 0 0 0 0 0 0 0 9 2 5 7 1 8 6 1 9 5 12 9 11 12 10 0 0 0 0 0 0 0 0 0 0 0 0 0 0 0 0 14 3 12 2 15 3 6 13 11 13 7 6 5 10 15 7 8 12 5 2 13 15 0 0 0 0 0 0 13 1 10 14 1 3 6 6 6 9 7 3 12 11 7 3 8 9 3 10 7 7 5 2 10 2 14 8 15 7 4 4 7 12 14 8 6 15 5 13 11 12 10 4 4 12 5 7 13 2 3 3 2 2 11 8 8 3 3 2 11 14 10 4 3 7 14 4 15 12 10 5 5 11 14 14 14 3 9 13 8 4 6 10 7 8 2 15 9 8 4 6 7 12 10 9 2 12 13 15 15 2 1 8 14 10 7 5 10 6 15 1 7 6 13 7 14 10 12 4 7 11 6 11 4 2 1 1 7 11 7 5 2 6 15 10 4 3 5 11 13 11 1 8 1 14 15 15 10 9 14 5 11 14 7 6 9 6 8 15 11 13 6 12 9 8 3 2 13 5 6 11 6 6 5 9 1 7 13 6 15 9 1 15 8 9 8 10 3 1 9 7 14 12 1 13 9 7 2 5 15 2 11 7 8 3 12 8 6 12 9 6 7 7 13 4 2 9 14 9 15 9 2 11 3 10 1 8 12 10 9 14 3 11 14 6 7 8 5 12 4 11 8 12 5 9 12 9 1 7 13 15 8 11 4 8 6 15 11 6 9 14 14 11 6 3 5 12 11 8 2 11 2 6 3 13 3 6 3 1 3 5 14 3 8 1 8 15 7 1 8 13 1 11 13 10 2 9 10 12 15 3 9 2 3 8 14 7 2 4 1 6 7 5 11 8 12 13 14 14 8 7 10 7 9 14 9 9 15 1 11 12 10 13 7 15 5 1 2 9 7 12 15 4 15 12 11 6 12 12 1 11 6 12 7 11 2 8 11 7 8 3 7 12 2 2 4 9 3 13 11 11 6 3 6 2 15 7 1 5 14 4 8 14 15 6 13 3 2 15 9 3 15 9 5 10 12 2 11 14 5 9 2 4 10 9 15 3 15 15 6 1 1 5 13 15 15 13 11 10 8 6 14 1 5 11 14 7 1 11 9 2 14 4 6 11 13 1 2 3 12 14 12 7 11 11 3 11 3 2 11 9 11 10 15 13 11 13 11 8 2 4 8 6 12 14 4 15 12 2 10 10 15 2 4 5 7 10 15 8 2 11 11 5 12 4 14 13 4 12 3 6 1 14 10 14 12 7 4 14 1 15 13 2 12 14 13 9 12 7 7 10 9 5 3 6 15 6 11 9 4 1 9 2 11 9 15 4 9 3 10 1 15 14 9 5 15 14 1 8 2 13 6 7 15 12 3 8 7 5 2 1 7 3 13 6 5 4 12 11 14 8 11 10 8 13 12 13 