P2
33 33
250
12 12 14 5 3 1 10 6 6 13 9 7 11 4 7 2 12 1 14 4 6 4 12 2 2 15 5 9 4 6 15 3 3 1 7 1 4 7 8 6 4 10 1 15 1 6 9 3 1 15 10 1 9 13 4 9 7 1 4 9 10 5 4 7 4 6 3 3 7 2 3 15 10 4 9 6 7 12 15 9 6 5 10 13 5 10 12 8 11 2 3 10 6 8 14 2 15 10 14 1 3 1 12 7 14 5 1 13 8 5 14 14 11 12 2 10 10 4 2 3 4 9 5 11 7 7 10 6 12 13 8 9 9 15 8 13 2 5 2 3 1 5 2 2 3 2 1 1 5 12 3 10 12 15 8 12 7 8 15 10 7 9 15 12 3 10 10 8 9 4 13 1 13 6 14 8 15 2 1 2 5 7 10 9 4 7 2 5 9 10 3 7 12 15 6 11 12 9 13 7 6 3 9 2 2 2 5 8 2 14 15 3 15 2 14 2 1 1 13 1 2 7 13 2 13 9 8 14 12 3 7 8 3 12 8 5 12 9 13 3 4 1 1 9 8 13 10 6 9 3 15 9 6 6 8 9 11 3 9 4 7 1 9 1 1 9 7 6 12 9 13 7 15 14 4 7 1 7 15 11 7 3 13 8 7 3 14 10 12 7 12 8 9 10 11 8 1 8 6 4 12 11 15 5 10 13 15 1 3 6 9 1 3 15 5 4 11 0 0 0 0 0 0 3 13 12 12 2 5 2 4 14 2 7 13 11 3 14 15 7 10 1 9 2 14 0 0 0 0 0 0 0 0 0 0 0 0 0 0 0 7 11 8 6 7 2 1 10 6 14 2 4 2 8 13 0 0 0 0 0 0 0 0 0 0 0 0 0 0 0 0 0 0 0 0 0 2 8 15 13 3 12 8 10 1 6 0 0 0 0 0 0 0 0 0 0 0 0 0 0 0 0 0 0 0 0 0 0 0 2 11 1 12 8 10 13 15 0 0 0 0 0 0 0 0 0 0 0 0 0 0 0 0 0 0 0 0 0 0 0 0 0 9 15 5 3 12 10 14 0 0 0 0 0 0 0 0 0 0 0 0 0 0 0 0 0 0 0 0 0 0 0 0 0 0 4 13 4 14 7 9 0 0 0 0 0 0 0 0 0 0 0 0 0 0 0 0 0 0 0 0 0 0 0 0 0 0 0 10 6 8 13 5 0 0 0 0 0 0 0 0 0 0 3 6 12 14 13 1 1 10 1 7 2 4 14 3 10 0 0 0 4 8 3 6 0 0 0 0 0 0 0 0 4 7 14 11 1 3 7 6 1 9 12 5 12 1 4 11 1 9 15 6 4 6 3 14 4 0 0 0 0 0 15 1 15 7 15 5 3 7 12 14 8 6 13 8 8 10 12 8 12 3 12 4 4 1 1 6 10 12 0 0 0 2 13 4 9 1 14 14 6 14 15 1 14 8 2 7 1 13 3 4 14 9 9 3 9 4 15 2 7 1 7 0 0 6 12 14 5 5 1 14 13 5 2 7 1 9 4 9 11 2 10 14 12 10 4 1 5 2 8 4 4 8 4 4 13 1 13 15 7 12 11 8 2 11 15 2 5 9 6 10 13 2 9 9 12 8 4 8 1 8 11 2 4 4 11 13 4 6 1 2 8 14 13 13 12 10 15 9 1 15 13 7 6 15 4 6 14 10 2 2 12 4 3 15 11 9 15 8 13 14 3 5 2 2 13 1 6 1 7 5 15 4 15 2 7 1 11 6 2 10 11 9 6 10 9 8 4 13 5 9 3 6 2 5 4 2 7 6 14 13 1 4 8 9 11 14 14 10 11 14 8 5 9 9 9 6 5 13 3 11 2 11 5 3 12 2 11 7 1 15 15 13 10 14 10 8 15 12 3 1 8 14 8 11 3 6 2 9 1 8 7 11 15 10 1 3 7 6 9 3 7 11 12 4 1 10 6 7 12 8 11 12 9 10 10 10 3 6 8 1 10 6 8 13 15 4 12 6 7 8 5 14 5 9 4 1 9 14 1 11 8 12 13 14 10 4 7 7 13 14 7 1 9 6 6 11 4 14 13 6 1 11 9 15 4 14 8 10 7 3 4 13 11 10 4 12 9 9 4 4 2 1 10 15 1 14 11 7 5 14 11 2 6 8 11 8 7 3 14 5 12 1 11 5 14 5 11 6 13 15 6 1 7 10 7 12 11 12 14 1 8 2 13 2 3 2 2 4 10 9 1 1 8 1 7 4 2 10 9 11 12 14 5 4 3 1 4 9 7 9 2 9 3 15 5 9 1 10 6 10 12 1 15 6 6 2 13 13 7 8 13 15 10 10 13 4 1 1 15 2 10 1 5 6 8 7 10 10 11 12 7 5 3 15 12 4 4 6 5 5 10 2 3 13 5 9 4 3 2 7 5 15 13 5 8 12 2 7 1 12 12 14 3 12 1 2 