P2
33 33
250
12 3 8 12 6 10 14 10 5 8 13 15 13 13 5 15 5 14 9 6 13 10 11 4 6 11 5 3 14 13 4 6 13 12 11 7 14 12 2 12 10 7 7 3 8 13 7 12 3 13 3 10 1 3 10 8 6 6 15 15 4 7 13 4 15 1 13 2 12 8 9 6 9 15 15 7 6 13 14 4 2 8 2 1 3 7 14 3 11 15 15 4 3 9 2 6 6 6 11 10 14 1 2 2 10 6 12 10 6 1 9 7 3 11 5 11 2 13 14 13 13 7 3 6 8 1 15 11 14 11 4 6 7 15 15 14 5 9 6 3 4 3 7 2 7 6 7 5 7 6 12 15 7 1 6 7 9 3 11 5 9 3 14 3 1 2 4 15 6 13 2 10 4 6 2 2 14 1 7 3 11 14 1 12 6 13 15 13 10 2 12 9 15 14 9 11 13 2 13 3 7 6 8 15 15 14 10 6 13 14 11 10 1 4 5 12 15 2 14 6 13 11 2 2 6 3 15 1 9 6 15 12 3 7 2 6 3 12 10 14 10 9 11 13 14 1 10 13 11 10 13 7 15 10 11 4 10 2 3 1 15 14 15 5 7 5 13 12 6 9 7 10 2 11 2 6 1 13 14 2 3 3 5 11 15 11 9 3 14 8 8 14 6 7 15 1 5 9 11 14 8 2 15 15 13 14 2 3 11 14 10 14 10 12 2 12 8 1 2 13 9 15 11 1 4 2 14 12 3 5 2 6 10 5 6 5 9 4 15 7 9 1 15 3 7 1 11 7 5 10 6 8 15 5 2 5 14 10 2 4 4 14 9 13 11 6 6 5 5 1 5 5 14 15 9 9 14 13 1 1 13 3 11 7 4 5 11 1 8 14 3 3 2 10 13 14 6 7 6 9 5 13 12 15 11 11 9 9 6 5 7 13 5 8 12 15 7 0 0 0 0 0 6 14 8 4 14 12 6 5 1 14 6 12 13 14 1 14 12 8 8 10 14 15 0 0 0 0 0 0 0 0 0 0 0 0 0 0 0 0 0 15 7 10 13 9 4 8 4 13 5 1 5 1 4 0 0 0 0 0 0 0 0 0 0 0 0 0 0 0 0 0 0 0 0 7 6 10 11 6 6 10 13 5 13 0 0 0 0 0 0 0 0 0 0 0 0 0 0 0 0 0 0 0 0 0 0 0 13 8 15 9 5 2 5 6 6 0 0 0 0 0 0 0 0 0 0 0 0 0 0 0 0 0 0 0 0 0 0 0 0 6 2 4 13 5 12 2 0 0 0 0 0 0 0 0 0 0 0 0 0 0 0 0 0 0 0 0 0 0 0 0 0 0 14 7 9 3 6 15 0 0 0 0 0 0 0 0 0 0 0 14 3 4 13 1 1 4 2 11 12 12 3 10 0 0 0 15 5 15 9 15 0 0 0 0 0 0 0 0 0 15 15 1 12 6 11 12 7 7 14 9 4 2 12 11 13 2 15 11 12 2 1 13 0 0 0 0 0 0 0 0 11 10 4 3 9 3 8 1 14 2 11 1 7 4 5 1 11 12 1 1 8 7 5 12 9 0 0 0 0 0 0 4 9 3 1 11 3 14 15 10 4 9 6 7 12 12 1 14 6 8 12 13 15 14 8 11 13 10 0 0 0 0 0 11 10 6 10 2 2 5 15 3 10 10 10 14 14 10 12 2 6 3 2 9 7 6 11 14 11 13 1 0 0 0 0 12 15 7 6 9 6 6 1 3 11 9 11 9 10 5 9 6 9 4 3 14 9 2 3 5 13 15 7 11 0 0 0 13 13 11 1 15 15 11 7 9 15 8 15 15 13 12 7 11 13 5 10 12 14 5 8 6 11 6 3 6 8 0 0 10 2 14 13 9 15 14 9 1 5 1 2 11 10 2 7 12 3 1 4 6 12 8 6 8 3 5 2 2 1 10 0 4 12 13 14 2 3 14 14 2 9 15 1 2 15 5 7 11 7 9 8 3 14 6 4 15 15 9 3 2 11 2 10 14 5 4 2 10 3 14 1 4 8 7 12 5 3 10 11 14 13 12 5 10 6 11 13 7 1 7 15 3 8 3 1 6 7 2 1 8 1 2 6 3 1 10 13 5 10 11 9 1 11 8 6 13 5 5 15 2 1 11 6 2 6 7 11 2 15 8 11 1 6 12 10 4 8 3 2 12 3 3 10 3 3 13 11 1 2 12 9 15 2 12 12 9 2 5 3 4 5 1 1 9 1 2 10 14 11 1 12 2 2 10 9 1 9 12 9 7 8 8 12 15 13 2 6 5 3 5 8 8 10 15 13 5 14 13 11 3 15 8 12 8 8 5 5 4 12 4 3 11 15 12 10 11 14 9 14 15 13 13 10 2 13 13 14 14 5 13 7 11 12 4 1 15 3 14 12 13 4 1 8 2 10 5 6 10 5 11 4 9 2 10 5 4 2 