P2
33 33
250
12 11 12 15 1 3 5 10 15 10 5 7 5 3 2 9 6 12 10 7 4 8 15 13 8 14 6 2 5 15 12 5 4 5 10 11 7 15 9 5 3 9 11 3 15 10 7 8 14 15 14 14 1 3 13 11 10 10 12 5 14 15 10 2 7 2 13 3 6 4 11 6 11 11 9 2 6 5 9 15 15 14 1 1 7 9 6 6 11 10 13 7 6 12 9 1 11 9 14 15 9 8 8 1 6 13 11 6 9 15 11 10 14 12 7 14 7 3 15 10 7 6 5 10 14 15 12 13 12 15 9 5 9 6 11 9 15 4 14 9 8 3 7 10 5 8 8 5 15 4 2 13 2 5 12 1 1 14 15 15 8 7 5 9 14 1 4 6 1 2 6 15 9 7 10 12 11 8 7 6 10 5 7 13 15 2 7 4 8 14 13 13 2 13 13 7 7 3 5 7 15 13 2 10 2 11 4 1 8 6 4 2 15 9 11 4 11 5 11 10 4 15 10 8 3 6 11 12 1 6 9 9 13 13 4 5 13 8 8 14 4 8 6 3 15 15 6 13 15 3 1 3 6 3 12 12 5 2 6 4 13 6 2 11 12 12 13 3 14 5 14 3 12 1 15 8 3 1 8 1 8 2 13 3 4 3 4 2 3 7 3 11 5 1 5 0 0 0 14 1 3 9 5 6 5 9 3 11 7 9 5 1 11 13 1 7 9 2 14 4 8 15 15 3 15 10 1 0 0 0 0 0 9 3 10 7 8 14 7 4 7 15 8 11 10 12 2 14 12 10 10 8 8 3 12 15 12 1 6 0 0 0 3 0 0 0 0 10 11 8 8 6 2 8 5 1 10 14 5 2 14 8 11 7 8 3 13 8 10 14 0 0 0 0 0 2 5 0 0 0 0 0 15 10 13 1 15 15 10 5 14 15 7 5 3 1 4 12 7 15 15 0 0 0 0 0 0 15 13 1 14 0 0 0 0 0 0 0 1 1 7 4 9 12 11 7 10 5 15 7 15 0 0 0 0 0 0 0 0 4 7 7 10 4 5 0 0 0 0 0 0 0 0 0 0 0 0 0 0 0 0 0 0 0 0 0 0 0 0 0 0 11 15 14 12 5 2 14 9 0 0 0 0 0 0 0 0 0 0 0 0 0 0 0 0 0 0 0 0 0 0 0 0 13 1 1 8 2 2 7 5 2 3 0 0 0 0 0 0 0 0 0 0 0 0 0 0 0 0 0 0 0 0 0 0 13 4 10 3 15 7 6 1 6 4 5 10 13 0 0 0 0 0 0 0 0 0 0 0 0 0 0 0 0 0 0 11 7 5 4 4 15 5 4 10 11 14 13 3 10 1 2 7 0 0 0 0 0 0 0 0 0 0 0 0 0 0 1 2 7 3 14 9 6 10 7 7 13 5 10 14 12 9 12 14 2 13 13 8 11 3 0 0 0 0 6 15 6 9 1 13 5 9 6 7 12 15 8 14 4 3 6 15 8 7 12 5 5 10 15 4 14 9 5 10 11 11 11 1 8 4 1 11 12 7 13 14 3 15 8 9 4 8 12 8 12 6 2 11 8 3 14 3 8 12 12 4 4 13 9 1 5 14 12 11 7 2 15 13 15 9 5 7 1 15 15 5 14 1 12 11 6 2 5 2 12 10 3 3 10 3 8 1 5 12 3 9 3 1 6 5 14 5 10 1 6 13 1 7 15 3 10 11 8 13 7 13 15 10 11 4 7 2 3 3 15 3 6 1 11 12 15 2 6 3 15 7 13 4 1 12 11 13 1 9 4 2 9 1 9 6 2 5 6 7 1 9 7 5 4 4 3 10 6 2 1 4 5 5 13 3 4 6 3 5 10 2 15 13 3 13 8 12 1 3 9 3 2 14 8 7 10 5 3 5 8 3 11 4 2 7 10 14 9 15 2 5 15 14 6 12 1 2 12 11 6 13 14 5 12 10 10 5 2 13 10 1 2 10 11 4 9 12 12 14 1 2 7 8 11 10 14 12 10 6 13 7 13 13 2 14 9 9 13 10 10 3 4 8 14 10 6 9 8 9 13 14 2 12 5 8 4 13 13 13 15 6 13 11 4 9 13 7 2 10 9 13 7 4 11 14 6 1 3 7 5 4 10 13 6 7 9 9 11 4 12 5 11 3 7 2 2 4 2 10 5 2 12 6 8 4 1 10 6 5 13 5 14 8 7 7 8 6 12 4 5 12 11 6 4 8 2 5 11 5 13 14 1 7 1 12 12 3 6 13 12 9 10 15 6 13 15 12 10 6 9 3 8 11 7 3 6 12 1 8 13 9 9 11 8 7 15 1 15 7 4 7 15 2 7 12 13 5 11 9 11 9 11 10 13 15 11 12 14 7 4 12 11 15 2 10 8 9 14 11 5 6 15 1 7 4 8 12 8 10 8 3 1 7 14 15 8 12 5 6 11 2 9 13 