P2
33 33
250
13 15 5 5 1 12 8 14 13 12 14 13 12 4 1 12 3 5 6 15 14 9 15 14 8 8 10 15 10 15 11 5 8 15 9 13 14 3 12 7 14 14 2 8 1 2 2 5 3 3 11 5 1 5 15 12 5 14 7 11 8 9 1 2 8 6 5 10 6 6 2 2 14 8 6 14 8 6 2 14 12 15 10 5 7 6 8 13 8 7 15 11 4 14 1 2 15 7 13 11 3 8 14 7 8 11 9 10 8 5 2 15 12 10 15 4 8 13 9 3 1 1 9 8 14 11 1 8 10 3 15 3 15 6 7 9 7 1 3 9 15 13 14 15 7 12 13 5 2 9 6 3 12 15 12 3 4 10 13 4 9 3 5 5 5 15 7 12 6 5 14 3 3 4 5 14 3 13 8 14 13 4 10 1 13 10 14 14 7 13 6 4 12 8 11 8 3 5 13 1 8 8 13 7 7 11 15 2 4 7 12 14 11 15 1 1 0 0 0 0 0 6 9 2 10 2 4 1 4 10 6 7 15 2 12 7 13 13 10 12 13 1 8 13 0 0 0 0 0 0 0 0 0 0 0 0 0 0 3 12 8 13 11 15 11 15 10 11 9 7 9 12 8 8 12 0 0 0 0 0 0 0 0 0 0 0 0 0 0 0 0 0 0 9 9 13 11 14 3 14 11 3 9 10 3 13 0 0 0 0 0 0 0 0 0 0 0 0 0 0 0 0 0 0 0 0 0 12 11 5 10 12 14 6 8 12 8 0 0 0 0 0 0 0 0 0 0 0 0 0 0 0 0 0 0 0 0 0 0 0 0 2 10 6 4 3 3 15 10 0 0 0 0 0 0 0 0 0 0 0 0 0 0 0 0 0 0 0 0 0 0 0 0 0 0 1 8 12 7 9 10 0 0 0 0 0 0 0 0 0 0 0 6 15 6 7 12 3 14 5 9 15 10 5 0 0 0 0 1 10 11 9 2 0 0 0 0 0 0 0 0 13 2 7 8 5 2 15 4 9 14 3 9 13 4 8 8 13 7 0 0 0 11 5 14 0 0 0 0 0 0 14 6 13 15 13 15 14 10 6 4 10 15 15 14 13 9 12 15 9 10 9 8 0 0 7 13 0 0 0 0 0 1 12 14 11 7 7 10 7 15 9 10 13 4 10 7 13 1 6 2 6 5 15 1 12 7 0 4 14 0 0 0 0 13 9 11 12 9 13 8 1 11 12 3 11 15 3 11 3 7 6 12 15 15 8 14 3 13 7 0 5 0 0 0 2 3 2 15 10 2 11 1 7 7 8 15 14 9 15 14 6 8 12 5 1 14 8 12 3 5 5 14 8 0 0 0 1 13 4 10 2 11 3 13 4 10 8 1 12 7 4 8 14 6 3 10 13 13 5 8 8 2 15 8 5 3 0 0 14 1 12 4 9 10 6 14 11 14 4 15 6 15 2 4 13 15 8 12 8 11 4 10 10 14 2 3 14 3 10 0 14 8 1 5 8 13 12 10 1 1 11 2 2 7 12 11 1 8 4 13 8 14 2 11 8 13 10 1 14 15 10 15 0 11 15 11 13 5 13 5 11 3 10 2 7 10 13 10 1 7 15 8 5 15 10 2 13 12 10 15 6 1 14 5 3 2 8 13 7 12 10 11 8 9 5 12 15 4 11 13 6 5 15 2 15 4 14 15 15 4 5 13 15 2 10 15 6 8 14 4 7 14 4 2 15 5 10 7 2 7 3 11 8 13 9 10 5 4 1 2 6 15 13 6 15 1 9 5 15 7 10 10 11 8 3 3 9 6 3 1 9 1 3 4 10 2 8 11 15 5 13 2 15 2 7 5 6 4 11 10 10 4 6 1 5 14 6 7 13 13 11 13 2 4 10 4 15 4 3 10 11 3 3 11 9 10 6 1 12 5 14 12 15 9 9 1 1 5 9 6 10 10 6 13 11 12 4 5 8 8 14 2 3 8 5 8 9 3 11 10 5 8 12 2 12 7 15 10 12 14 5 2 3 2 13 10 14 12 2 2 9 5 7 14 6 7 12 6 14 13 11 5 8 7 4 14 5 11 15 6 2 7 8 4 15 15 3 12 12 2 14 8 2 5 7 3 5 15 15 5 11 15 13 2 7 9 11 4 11 13 8 4 7 1 4 10 9 7 4 14 13 9 10 13 15 6 12 4 14 1 10 9 11 10 1 8 15 12 10 8 8 11 9 10 5 6 13 9 6 8 1 3 6 5 5 12 5 1 4 9 2 15 5 2 7 2 12 6 10 6 1 2 14 3 3 2 7 12 7 13 5 4 8 11 9 3 6 3 10 10 15 14 8 11 9 5 2 13 5 3 6 3 6 8 4 12 9 10 1 15 1 6 11 1 13 8 4 6 9 8 5 4 11 13 14 5 9 10 2 5 7 10 11 9 6 5 8 9 14 13 11 13 14 1 10 8 5 12 