P2
33 33
250
1 14 13 15 9 8 6 7 10 11 4 8 7 12 2 15 4 14 5 10 4 11 10 6 10 15 15 3 6 15 1 14 14 14 3 13 9 3 12 1 5 2 8 13 15 4 5 13 13 10 3 2 3 15 2 14 14 3 13 13 1 7 4 2 15 6 14 3 4 5 2 9 13 12 9 9 3 2 2 1 13 4 3 7 5 15 2 4 8 10 9 10 11 6 2 3 13 1 2 7 15 10 14 8 13 15 3 13 15 7 4 5 4 1 2 10 4 10 7 2 9 8 2 15 10 14 12 2 7 3 11 5 0 15 7 8 8 3 8 10 15 5 5 14 14 15 12 8 1 4 10 10 13 4 8 12 10 7 6 7 7 13 10 10 0 0 0 4 1 3 13 7 6 10 9 8 6 14 1 12 3 10 10 15 15 6 11 5 15 1 11 13 2 10 8 9 0 0 0 0 0 6 13 2 1 5 13 3 13 1 4 14 10 7 9 5 10 6 9 2 14 2 1 15 15 9 4 0 0 0 0 0 0 0 0 0 0 0 0 0 0 0 0 0 0 0 0 0 0 0 0 0 0 0 0 0 0 0 0 0 0 0 0 0 2 0 0 0 0 0 0 0 0 0 0 0 0 0 0 0 0 0 0 0 0 0 0 0 0 0 0 0 0 0 0 0 11 4 13 0 0 0 0 0 0 0 0 0 0 0 0 0 0 0 0 0 0 0 0 0 0 0 0 0 0 0 0 0 9 1 9 2 11 0 0 0 0 0 0 0 0 0 0 0 0 0 0 0 0 0 0 0 0 0 0 0 0 0 0 0 13 8 11 2 10 13 5 8 0 0 0 0 0 0 0 0 0 0 0 0 0 0 0 0 0 0 0 0 0 0 0 6 15 13 6 7 4 12 5 3 14 8 0 0 0 0 0 0 0 0 0 0 0 0 0 0 0 0 0 0 0 0 7 5 10 9 10 10 8 10 4 5 15 8 8 13 2 13 0 0 0 0 0 0 0 0 0 0 0 0 0 0 0 14 15 13 12 15 8 14 2 14 5 12 6 12 9 15 14 11 8 3 11 2 3 7 0 0 0 0 0 9 1 10 12 2 5 12 5 9 14 11 5 8 8 10 13 3 3 1 5 2 10 6 11 14 2 6 9 3 12 9 2 3 5 1 9 12 2 5 7 8 7 8 15 3 7 7 7 14 12 13 12 12 12 6 8 15 1 1 1 13 6 1 6 5 2 3 14 4 1 8 11 9 4 9 1 11 11 11 14 5 5 2 15 12 14 13 15 12 7 5 11 11 7 7 11 4 9 8 11 2 3 12 6 11 1 8 7 8 5 15 2 15 5 15 5 6 6 5 15 6 10 3 11 15 14 15 3 10 6 11 15 7 6 1 3 1 14 15 3 10 6 14 5 3 3 13 15 1 5 3 1 11 10 9 9 2 3 5 8 3 10 5 13 9 15 15 5 2 11 14 4 3 5 2 15 9 8 5 6 5 14 14 5 8 9 3 11 9 11 1 5 15 7 2 2 14 10 1 3 9 4 6 14 3 1 2 2 9 2 15 5 13 15 10 7 12 11 1 4 5 15 1 15 4 9 5 8 10 1 15 9 12 14 1 15 6 6 4 12 3 15 8 11 7 10 13 15 1 12 8 14 10 2 8 15 15 3 3 5 6 10 9 15 10 8 2 11 3 7 3 8 6 10 4 7 6 10 3 15 13 2 12 2 12 14 14 3 2 14 7 12 6 2 1 4 12 11 9 15 13 2 1 6 9 12 7 9 6 7 11 10 4 15 4 10 3 1 13 13 12 11 14 5 6 15 10 13 11 6 12 9 8 3 15 14 4 1 3 5 7 2 4 5 8 5 11 8 5 10 5 10 13 12 1 15 4 15 8 5 4 4 15 5 14 14 4 11 1 14 15 4 14 9 13 5 14 7 13 11 15 9 14 4 1 2 1 4 5 11 8 15 8 10 2 7 1 11 2 4 9 7 6 6 2 2 13 4 3 7 1 15 5 6 15 8 9 4 5 7 8 6 15 7 10 15 2 12 13 15 6 14 14 3 2 9 6 10 10 9 4 2 13 15 13 1 3 14 4 8 5 11 8 6 9 14 14 12 9 12 6 3 2 11 8 7 10 2 6 9 4 15 4 3 2 3 15 7 6 8 2 5 8 14 15 8 13 9 8 7 12 5 4 12 5 15 2 9 9 7 5 14 8 4 14 12 15 12 12 1 14 9 9 6 8 3 6 2 14 8 8 2 15 5 15 12 6 5 7 3 12 1 2 7 1 12 13 6 6 11 10 8 2 10 9 3 11 9 7 13 13 2 15 2 4 3 8 2 1 6 13 15 7 10 10 5 5 7 5 2 8 4 8 13 1 3 7 2 15 4 6 6 12 6 4 7 1 11 12 6 8 3 15 10 9 15 6 8 8 9 8 9 9 5 3 2 13 14 