P2
33 33
250
10 5 4 7 1 12 11 9 6 7 1 1 3 4 4 4 8 4 2 8 14 8 8 7 12 14 12 13 6 1 10 15 10 13 1 8 12 9 14 7 15 4 3 15 1 9 10 2 3 15 12 8 9 3 11 7 2 11 11 15 9 9 13 10 12 13 1 6 3 12 8 2 2 4 11 8 4 9 3 12 1 3 4 12 8 15 14 7 11 6 7 1 8 7 6 14 3 6 15 7 13 3 6 12 6 10 6 6 7 6 15 2 6 4 3 7 2 1 1 7 5 14 6 4 2 12 6 10 5 3 12 11 9 13 11 9 1 14 8 11 2 13 10 8 9 4 1 8 14 7 12 3 5 7 7 5 10 6 4 14 9 4 13 3 15 15 8 6 6 2 3 5 3 6 6 8 5 9 10 12 12 13 11 12 3 13 7 5 1 0 0 0 0 0 12 13 15 8 1 14 15 8 2 4 3 14 9 13 10 10 10 14 2 11 14 15 0 0 0 0 0 0 0 0 0 0 0 0 0 0 6 11 11 4 13 8 15 3 11 4 8 7 13 12 11 0 0 0 0 0 0 0 0 0 0 0 0 0 0 0 0 0 0 0 8 5 3 1 11 7 14 4 15 2 15 0 0 0 0 0 0 0 0 0 0 0 0 0 0 0 0 0 0 0 0 0 0 11 10 13 13 1 9 6 3 0 0 0 0 0 0 0 0 0 0 0 0 0 0 0 0 0 0 0 0 0 0 0 0 0 6 10 11 7 10 4 0 0 0 0 0 0 0 0 0 0 0 0 0 0 0 7 15 4 3 6 15 11 1 4 11 9 10 15 8 11 11 1 0 0 0 0 0 0 0 0 0 0 0 0 2 8 13 2 2 5 4 4 12 2 5 2 12 15 1 2 10 3 9 2 0 0 0 0 0 0 0 0 0 1 13 13 12 9 2 11 1 8 12 9 8 9 11 15 12 1 1 14 1 6 9 13 0 0 0 0 0 0 0 2 2 2 6 14 5 8 13 15 8 5 1 2 6 3 9 4 3 4 4 14 8 9 3 11 0 0 0 0 0 9 5 8 3 2 4 8 5 10 7 15 13 15 14 8 7 4 2 10 4 9 8 12 3 2 11 6 4 0 0 0 11 12 9 4 2 6 3 6 7 15 6 3 1 3 3 12 2 6 1 13 15 7 2 2 15 5 11 12 2 0 0 0 10 5 6 4 2 15 2 2 5 4 12 3 3 1 4 6 12 15 11 8 11 5 5 12 9 11 10 12 10 15 0 0 7 13 5 3 10 4 8 11 1 7 9 6 12 6 1 10 10 8 6 9 14 11 4 13 13 4 7 5 7 5 9 0 10 11 6 8 9 15 3 5 9 9 8 15 8 4 6 2 15 12 4 10 7 5 12 4 12 10 7 7 9 12 9 15 0 5 6 15 12 5 9 5 9 11 9 7 14 10 14 8 8 9 7 4 9 15 10 7 15 1 9 15 5 5 3 15 0 0 13 12 11 9 10 9 8 5 7 5 5 4 10 3 14 15 14 13 1 4 5 4 6 5 1 8 1 3 6 7 15 7 15 9 6 5 10 13 5 14 14 11 2 2 15 10 7 3 9 3 11 6 11 15 15 11 3 1 6 14 5 14 3 8 6 11 8 15 1 9 10 7 10 4 5 11 11 7 11 9 12 12 6 15 9 9 2 6 8 7 11 12 3 11 14 8 1 3 11 7 14 10 13 13 12 2 9 14 1 3 8 4 15 12 8 15 13 9 5 15 6 3 4 12 12 6 10 11 8 7 5 1 8 10 3 10 1 3 4 9 8 9 3 9 10 14 10 2 4 3 5 7 11 12 5 11 8 7 7 3 14 6 12 10 8 7 14 9 1 14 9 4 6 14 2 12 2 13 7 12 8 2 10 5 14 4 7 10 9 8 2 6 5 10 9 10 9 4 15 6 3 8 14 5 14 7 13 15 11 11 9 11 6 6 15 9 4 9 13 8 12 10 12 3 9 14 15 10 8 2 13 9 15 11 14 2 10 6 6 2 7 11 2 12 4 5 7 7 14 7 5 2 1 9 15 15 1 5 2 10 8 7 8 11 9 11 10 10 15 8 6 10 13 12 12 10 12 12 15 4 7 7 3 11 10 1 7 8 9 4 11 3 15 4 12 9 8 9 9 2 11 1 7 10 15 10 15 6 3 14 7 8 4 4 12 4 5 13 6 12 14 5 10 2 14 14 6 10 14 6 12 9 11 11 13 4 8 7 8 10 9 9 11 13 15 5 5 14 6 3 11 6 5 9 13 9 12 13 7 14 7 2 11 13 5 9 10 15 15 7 2 11 7 11 13 11 4 3 14 3 10 6 15 4 15 11 9 13 12 15 6 14 12 9 2 13 8 11 14 4 5 10 5 6 15 5 4 10 8 15 7 2 1 8 8 6 15 2 4 15 2 7 1 10 13 7 12 