P2
33 33
250
13 8 8 2 7 7 9 6 5 8 13 14 10 3 13 15 6 7 4 10 10 10 13 8 1 8 9 10 10 12 1 10 8 13 14 13 3 15 8 5 3 13 12 13 2 9 14 2 11 4 6 10 11 2 5 2 4 1 1 15 11 3 11 5 14 9 7 14 5 14 14 15 2 5 13 3 4 2 1 3 12 14 14 2 10 5 9 1 7 4 10 12 1 3 11 8 14 1 6 15 10 11 4 8 5 14 14 10 2 10 10 5 3 15 3 4 6 12 12 5 6 7 14 10 2 13 6 14 15 10 9 10 14 2 2 13 6 13 3 5 9 15 14 10 14 9 1 4 6 1 1 4 10 9 2 14 8 5 4 5 3 14 10 13 1 3 8 4 13 4 9 2 4 11 13 1 15 7 1 14 2 13 12 12 1 9 7 10 11 9 4 11 3 10 8 9 15 3 5 8 15 11 6 11 1 4 10 13 12 13 8 12 1 15 11 2 1 8 1 7 5 7 4 3 4 9 7 8 9 15 6 0 6 10 3 7 5 9 14 14 4 6 5 2 11 1 15 4 10 7 12 10 12 14 3 6 9 3 15 8 12 6 4 0 0 0 0 0 0 15 5 5 13 2 3 5 14 2 12 12 6 8 13 7 10 8 10 13 5 11 0 0 0 0 0 0 0 0 0 0 0 0 0 0 0 0 0 0 0 0 0 0 0 0 0 0 0 0 0 0 0 0 0 0 0 0 0 0 0 0 0 0 0 0 0 0 0 0 0 0 0 0 0 0 0 0 0 0 0 0 0 0 0 0 0 0 0 0 0 0 0 0 0 9 13 5 0 0 0 0 0 0 0 0 0 0 0 0 0 0 0 0 0 0 0 0 0 0 0 0 0 0 0 13 3 4 10 2 6 9 1 9 8 0 0 0 0 0 0 0 0 0 0 0 0 0 0 0 0 0 0 0 14 10 12 13 1 14 5 12 4 9 12 11 13 1 12 10 15 9 5 1 0 0 0 0 0 0 11 14 15 1 13 9 9 4 6 1 3 8 9 8 12 14 3 5 7 8 12 12 10 10 11 7 4 5 14 2 7 7 8 7 10 3 10 7 12 11 4 10 1 11 3 15 14 2 7 6 14 9 2 1 15 2 13 2 15 1 15 11 7 14 8 13 10 13 8 12 14 12 6 9 3 12 5 1 8 15 1 8 11 13 13 4 2 11 10 10 12 9 5 6 2 12 8 15 12 11 12 13 2 2 10 8 15 7 15 2 14 5 9 8 10 5 12 13 13 14 8 12 5 12 9 15 8 12 4 9 1 7 14 9 14 15 8 10 10 3 6 8 2 13 1 15 11 12 14 1 11 10 7 3 1 4 9 13 10 13 12 11 2 13 4 14 15 10 13 12 7 12 5 12 4 12 14 12 11 12 11 11 3 4 2 13 7 8 5 8 8 5 2 9 7 9 13 12 2 8 12 3 2 9 13 12 4 14 9 12 11 3 12 5 9 10 8 3 13 11 5 3 6 4 8 1 13 13 15 12 3 7 4 4 15 6 1 1 12 12 8 3 15 9 2 13 13 8 5 7 12 5 9 7 1 12 10 6 11 6 1 3 15 14 12 2 12 1 7 13 10 11 15 8 1 10 4 7 9 8 8 8 12 7 9 15 1 13 8 15 2 4 5 14 1 4 3 5 7 15 1 15 6 6 12 8 13 9 3 14 13 8 1 11 4 9 6 13 14 5 11 11 13 11 10 11 12 6 4 13 14 8 3 10 1 2 12 3 8 15 15 7 8 6 1 3 5 14 15 13 14 11 14 11 1 5 13 2 13 9 12 9 9 3 2 3 2 14 7 12 2 12 13 4 15 5 4 1 10 15 5 14 14 5 9 12 13 13 6 7 10 11 1 9 15 12 11 9 1 6 2 10 7 1 14 14 7 1 8 10 12 11 15 7 8 14 5 11 12 9 9 5 10 14 4 15 2 9 3 12 14 1 11 14 6 4 2 6 10 7 9 9 11 6 1 5 5 8 2 7 14 4 10 1 7 2 5 14 4 12 6 10 4 4 2 3 15 6 14 8 4 13 14 3 10 9 2 6 14 14 1 14 6 5 9 2 3 4 15 14 4 7 9 1 3 15 13 10 5 12 7 5 3 3 12 6 13 12 7 14 4 12 15 11 6 5 2 4 11 13 11 4 14 3 4 1 3 14 5 5 11 5 7 15 13 11 14 8 6 8 7 3 4 6 4 11 2 8 4 7 3 13 15 2 9 13 12 1 9 15 13 14 2 15 11 3 13 6 9 11 1 4 1 4 11 6 5 1 5 9 1 3 1 7 12 12 12 7 9 4 6 4 12 6 13 8 4 2 15 4 7 15 2 11 9 6 10 13 14 1 15 10 11 2 1 10 5 4 8 1 8 13 3 10 12 1 13 4 13 15 5 14 9 9 2 6 7 13 2 13 9 