P2
33 33
250
2 5 3 13 6 15 12 8 12 8 11 13 2 1 15 9 5 7 7 10 11 10 8 12 14 8 3 8 14 3 10 4 9 1 8 2 7 9 15 4 1 3 14 12 10 10 3 1 10 5 3 15 15 2 15 4 5 10 6 10 4 5 10 12 8 2 10 7 8 13 14 11 1 15 10 12 7 4 2 8 11 5 15 1 6 8 3 11 6 15 8 3 3 2 3 7 6 5 11 10 9 14 5 8 3 11 15 13 6 6 9 15 4 7 8 9 7 4 15 14 3 15 4 10 12 11 11 13 10 14 9 4 13 3 3 7 12 12 1 15 15 13 9 8 13 14 14 4 12 9 9 1 12 15 14 11 14 1 8 14 14 8 15 2 6 11 11 2 7 15 5 1 12 1 14 8 9 8 14 8 2 13 12 9 9 2 9 1 12 3 1 7 4 3 1 4 12 2 13 12 2 1 9 4 15 8 5 9 12 13 6 6 3 2 6 9 2 11 1 12 9 11 1 2 12 2 3 4 4 5 2 1 5 2 14 0 0 0 0 0 0 0 0 0 0 0 0 0 0 0 0 12 8 4 15 7 13 6 4 13 12 7 15 9 1 2 0 0 0 0 0 0 0 0 0 0 0 0 0 0 0 0 0 0 0 0 12 4 10 10 11 9 5 9 10 9 6 2 0 0 0 0 0 0 0 0 0 0 0 0 0 0 0 0 0 0 0 0 0 0 12 14 8 8 1 1 9 8 4 2 0 0 0 0 0 0 0 0 0 0 0 0 0 0 0 0 0 0 0 0 0 0 0 0 13 7 15 14 6 11 14 14 11 0 0 0 0 15 4 5 3 7 7 1 5 7 14 13 5 15 15 9 11 0 0 0 0 3 7 10 1 12 10 1 7 9 0 0 0 10 7 4 7 11 1 12 13 3 4 11 2 11 15 5 12 12 10 0 0 0 0 11 15 10 4 7 13 8 15 0 0 0 14 8 11 6 1 7 2 11 14 5 5 5 14 8 12 3 1 4 0 0 0 0 11 5 14 14 15 8 11 13 0 0 0 4 6 2 6 11 2 13 1 4 15 11 2 7 9 6 3 14 5 0 0 0 0 15 5 10 14 14 3 8 1 8 12 13 4 13 12 4 5 15 9 8 3 1 1 6 8 3 6 1 7 8 9 10 10 10 15 2 8 5 8 1 1 9 8 12 15 14 7 2 7 6 2 6 7 3 13 6 1 2 8 12 2 11 9 8 2 10 13 7 10 9 9 9 3 3 3 4 8 8 10 2 7 15 10 15 6 2 10 6 6 13 7 1 15 9 2 9 7 12 11 2 2 14 1 3 4 8 3 15 7 10 4 9 10 13 13 5 15 9 6 14 11 12 5 10 4 6 14 2 1 15 10 14 4 3 4 14 10 15 12 12 6 5 9 10 8 9 2 4 3 14 9 9 4 14 1 14 5 14 5 2 10 2 15 6 9 5 15 11 8 10 15 14 7 11 1 12 8 12 11 10 14 1 7 9 7 14 10 6 2 12 14 2 8 12 12 9 3 14 11 10 15 10 4 3 14 7 13 15 3 8 13 6 15 5 11 1 9 2 4 8 4 13 10 13 9 12 14 10 4 5 9 13 12 1 13 15 9 15 9 8 8 8 15 13 15 14 7 15 1 4 12 8 6 10 8 13 7 9 7 4 13 13 11 10 3 2 9 15 4 10 9 15 3 10 9 15 8 15 3 15 10 11 10 1 10 1 14 15 6 4 14 9 4 9 15 13 3 4 12 11 12 9 6 3 6 12 3 3 15 11 4 2 3 10 1 14 9 6 6 12 13 1 7 7 2 2 12 8 15 8 12 15 7 10 1 2 1 7 15 12 5 5 12 8 10 10 12 11 3 8 6 8 13 6 6 10 3 6 10 7 1 7 4 8 9 14 11 11 9 7 8 15 15 5 8 13 3 9 7 13 11 4 14 14 11 6 7 3 12 1 6 11 3 9 14 1 14 13 11 8 11 12 6 10 8 14 5 15 9 6 12 3 9 7 7 2 6 7 8 1 3 13 8 11 8 3 3 13 8 8 8 14 13 11 12 3 15 11 2 1 11 13 13 12 1 2 13 11 1 6 15 10 7 8 8 8 11 5 13 8 4 12 1 8 14 14 10 14 4 2 11 2 13 9 14 11 10 3 11 5 11 4 8 12 15 7 1 15 4 15 7 2 7 1 5 7 8 13 8 5 10 5 3 14 4 9 7 1 6 4 14 4 3 9 13 4 8 12 10 4 1 15 8 11 9 4 14 7 14 4 15 4 2 10 4 2 11 5 14 3 11 14 7 5 7 7 11 7 6 6 7 12 8 14 15 11 9 13 10 3 14 10 3 2 8 5 9 12 2 5 1 11 7 12 10 4 10 3 10 6 15 8 7 2 12 4 7 9 5 2 15 4 8 3 11 5 15 8 7 10 7 11 13 