P2
33 33
250
3 2 5 8 4 8 5 1 14 15 4 4 2 2 13 6 1 6 3 1 3 10 10 2 8 11 3 13 1 1 8 3 2 7 14 3 9 15 7 14 12 14 3 11 13 7 10 14 13 13 4 12 12 13 14 1 13 11 2 9 3 14 8 2 9 5 4 8 5 3 11 4 12 13 3 7 2 6 1 2 11 6 2 1 12 8 2 9 14 6 2 3 4 6 7 11 12 14 7 13 8 11 15 4 13 11 8 5 11 12 15 5 8 8 2 3 15 12 9 14 15 13 8 1 8 10 11 2 7 6 13 9 14 3 5 4 12 5 7 3 7 7 10 2 10 5 13 3 2 4 7 9 10 6 2 13 13 2 9 3 5 11 4 12 3 6 5 9 10 3 8 11 15 4 12 4 13 11 10 5 2 4 4 7 3 6 8 3 11 1 3 1 8 4 12 1 1 14 11 1 14 7 11 1 9 14 15 7 2 5 8 5 12 9 7 8 2 11 5 4 4 1 4 4 3 6 8 3 13 13 11 3 11 13 13 7 11 12 6 10 1 14 1 4 5 7 6 10 11 12 5 13 15 10 13 11 1 2 1 14 9 8 12 5 14 2 4 4 7 5 11 11 8 13 6 15 13 15 3 3 15 3 13 1 6 7 10 5 12 4 2 1 4 9 2 14 11 13 9 4 3 14 10 8 1 10 7 15 7 1 8 8 1 7 13 9 11 13 7 10 14 11 7 14 1 11 6 15 6 8 7 10 6 11 9 9 12 3 8 10 2 9 9 12 13 10 10 13 4 15 11 5 10 15 13 15 5 2 10 15 9 15 12 12 12 7 1 8 15 15 8 14 2 11 5 14 8 6 3 1 5 6 5 2 1 4 13 15 8 12 2 3 5 12 5 8 13 4 4 10 4 11 14 7 10 11 9 10 8 8 8 13 12 7 7 7 15 3 10 9 10 14 3 12 5 8 13 2 3 4 15 1 6 1 10 10 6 11 12 1 2 10 7 14 7 14 2 5 12 8 12 9 10 7 14 1 15 10 15 10 9 9 6 15 15 7 1 10 5 3 6 10 3 3 11 12 1 2 14 14 1 14 10 4 2 1 10 10 15 8 10 8 6 7 12 3 1 5 13 15 15 11 2 2 14 13 14 12 4 10 10 15 4 8 1 8 2 1 13 3 9 1 9 15 8 5 4 14 13 5 11 10 12 8 3 1 2 5 12 1 9 4 9 5 9 13 6 3 10 7 5 14 4 13 5 12 8 11 5 11 11 2 5 14 11 10 7 15 4 9 3 5 13 4 7 13 6 2 7 12 4 14 1 11 10 13 6 10 15 3 12 10 11 8 2 4 13 13 6 3 9 1 10 12 4 9 2 4 1 14 14 2 2 2 11 3 6 5 9 9 3 5 13 8 13 12 2 7 1 7 6 3 2 9 8 10 5 9 3 14 1 13 2 15 12 8 15 7 13 10 1 6 12 7 14 5 13 3 6 2 13 1 5 5 9 3 14 11 15 9 14 5 7 7 15 2 14 12 11 12 5 8 12 6 4 7 8 1 5 2 14 9 5 7 7 5 12 13 4 13 12 13 15 2 7 0 0 0 0 2 6 15 5 2 1 6 7 1 9 4 10 2 5 2 9 7 1 4 2 3 3 15 6 3 1 1 12 5 2 0 0 0 15 13 2 12 3 2 10 10 9 9 13 13 1 13 4 10 4 5 5 14 14 14 6 5 6 2 10 12 6 5 0 0 0 6 13 2 5 12 7 15 3 14 15 15 11 5 12 6 6 6 2 9 10 9 5 15 2 8 6 11 2 9 3 0 0 0 0 10 13 14 8 13 7 6 2 14 10 5 4 5 15 13 13 9 12 8 10 1 12 3 5 13 10 10 1 12 0 0 0 0 0 9 6 1 2 7 14 8 4 2 6 11 7 9 15 7 4 14 12 12 13 10 12 3 3 6 4 15 10 15 0 0 0 0 0 11 7 11 7 10 4 1 10 5 14 13 11 1 11 8 3 8 2 1 11 15 13 1 11 2 1 8 8 0 0 0 0 0 0 2 9 5 11 15 9 4 13 6 13 6 11 9 8 15 9 7 12 2 4 12 5 5 9 10 13 12 11 0 0 0 0 0 0 0 14 4 1 7 12 4 14 1 12 6 15 13 14 4 2 1 7 1 2 15 8 1 8 9 8 4 15 0 0 0 0 0 0 0 0 6 7 11 2 7 1 8 4 1 11 4 6 15 15 6 13 14 12 4 9 4 6 8 15 1 11 0 0 0 0 0 0 0 0 0 0 0 0 0 0 0 0 3 13 2 5 9 14 2 15 11 10 13 4 5 10 13 9 8 10 0 0 0 0 0 0 0 0 0 0 0 0 0 0 0 7 14 15 4 8 15 13 12 14 7 9 12 13 6 4 9 14 2 1 0 0 0 0 0 0 0 0 0 0 0 0 0 0 