P2
33 33
250
12 11 4 6 8 15 9 8 5 7 1 7 6 9 13 11 8 12 13 5 11 10 13 11 2 14 7 1 1 10 5 5 1 11 8 3 11 5 11 9 14 11 7 9 14 8 10 9 14 1 1 4 12 6 3 1 2 2 15 11 1 7 4 5 13 4 11 8 7 12 10 11 7 12 12 14 7 7 15 4 3 1 13 1 5 2 12 9 2 12 1 4 11 2 7 7 12 14 5 12 3 4 12 7 9 11 3 5 10 9 12 6 10 4 11 4 8 2 5 3 4 13 11 14 15 15 8 13 10 5 5 11 2 2 4 3 9 9 5 15 12 1 15 1 1 3 15 6 4 4 9 12 7 3 5 10 7 7 13 7 5 13 10 7 6 6 13 7 10 9 9 10 1 4 5 13 12 1 10 13 12 9 8 14 15 11 1 1 7 9 15 15 10 14 14 1 9 11 15 1 9 3 14 2 13 15 5 15 6 7 6 14 2 14 9 12 1 7 3 5 8 8 14 10 5 11 2 14 3 13 14 7 2 13 4 10 5 8 1 5 2 13 12 2 4 1 14 9 11 12 15 11 14 12 10 15 14 6 12 1 1 3 11 9 2 13 3 2 1 1 8 8 6 11 14 3 3 12 7 2 14 8 9 11 11 3 8 11 8 7 15 6 9 6 5 14 10 11 7 7 7 6 1 1 4 6 1 1 3 12 4 10 7 7 1 2 10 14 3 2 4 13 15 8 11 5 7 9 5 7 1 1 14 6 1 11 2 8 13 2 6 14 4 11 12 10 12 3 12 7 13 12 4 8 2 4 10 6 3 9 7 7 2 11 2 8 8 13 10 4 13 12 2 12 7 11 12 14 3 11 5 2 3 5 9 12 14 2 0 0 0 0 0 0 12 12 11 2 4 13 9 11 12 7 10 1 10 6 12 6 10 8 12 6 9 13 0 0 0 0 0 0 0 0 0 0 0 0 0 11 11 5 15 10 5 3 15 11 12 9 6 11 1 15 15 12 0 0 0 0 0 0 0 0 0 0 0 0 0 0 0 0 3 6 11 12 4 13 13 5 13 9 12 5 9 11 3 0 0 0 0 0 0 0 0 0 0 0 0 0 0 0 0 0 0 6 9 5 4 12 12 15 12 11 7 7 13 15 0 0 0 0 0 0 0 0 0 0 0 0 0 0 0 0 0 0 0 0 5 2 2 4 4 3 10 9 11 12 5 11 0 0 0 0 0 0 0 0 0 12 5 5 2 10 1 1 1 8 6 3 8 3 15 7 1 13 10 9 5 5 4 0 0 0 0 0 0 0 0 3 7 6 4 8 15 9 7 3 5 11 2 14 2 4 6 13 10 2 2 14 13 2 5 10 0 0 0 0 0 1 4 10 6 8 10 3 5 5 11 2 3 10 1 13 11 8 12 7 5 8 9 8 15 14 7 10 12 0 0 0 0 8 13 13 2 3 1 12 12 15 2 10 11 14 4 10 8 6 5 13 11 11 6 3 12 9 9 2 6 12 0 0 10 13 15 10 15 10 8 12 10 15 10 1 6 2 9 4 3 4 15 1 1 4 3 13 14 1 6 7 6 4 10 13 6 11 3 11 6 3 4 2 6 7 8 14 9 8 8 14 15 10 1 8 11 6 9 7 4 11 3 12 15 11 15 6 9 5 2 3 11 11 15 11 12 11 2 14 3 13 8 9 1 9 6 9 14 14 6 9 14 14 11 2 11 14 8 11 15 3 3 4 12 7 12 4 5 9 15 9 8 7 15 12 2 11 8 4 1 12 3 12 8 2 14 8 12 13 11 7 13 12 1 2 9 4 15 12 8 10 11 5 11 14 13 15 15 11 9 2 7 1 10 13 5 12 1 6 3 9 13 9 6 6 11 2 3 14 9 3 4 1 12 9 10 12 5 8 15 1 3 7 2 9 11 5 7 9 8 12 5 3 4 3 14 1 8 11 13 13 1 8 11 8 12 1 14 12 13 1 11 12 8 10 3 9 1 10 14 8 7 14 5 2 11 9 6 7 15 4 9 15 11 11 9 7 4 14 5 6 5 2 15 11 5 15 14 12 4 12 7 8 7 15 3 14 12 6 2 3 4 8 15 11 4 12 10 7 7 14 6 15 9 4 14 4 1 11 2 7 15 10 6 10 11 7 5 3 14 14 3 13 3 12 12 8 1 4 9 3 14 14 15 1 11 12 13 2 4 15 7 13 2 1 7 1 12 14 10 6 4 6 3 6 9 12 12 10 8 10 1 13 1 2 6 13 8 6 1 2 4 4 2 6 11 11 2 10 5 9 3 6 11 9 7 11 10 7 14 13 4 15 4 7 7 8 3 14 1 3 14 9 15 9 12 15 5 9 5 3 1 5 6 14 1 4 6 13 5 9 2 11 6 5 15 7 7 4 10 4 7 14 10 13 2 8 3 7 5 5 7 14 14 4 12 13 7 8 6 