P2
33 33
250
8 8 4 7 5 13 11 1 1 13 14 5 7 10 14 8 2 14 8 13 9 6 12 3 8 1 14 7 5 9 7 8 5 9 2 2 12 8 11 12 6 9 12 11 14 9 15 8 12 8 1 1 8 3 8 5 3 1 13 6 5 2 1 13 4 5 6 4 8 6 10 8 10 14 11 14 4 5 11 8 3 9 5 3 6 13 8 12 5 3 6 1 8 7 12 15 7 11 10 13 10 15 6 4 13 13 13 7 9 15 13 15 11 8 4 15 14 6 7 6 12 11 14 8 5 14 10 12 13 13 5 12 15 13 6 10 11 15 6 3 7 13 9 13 2 6 12 11 12 6 0 0 0 0 5 1 6 13 12 4 9 6 8 1 2 8 3 4 13 4 7 5 8 4 12 4 9 9 13 0 0 0 0 0 0 0 0 0 0 0 0 9 2 3 14 10 7 14 5 1 4 13 14 13 2 10 11 9 1 0 0 0 0 0 0 0 0 0 0 0 0 0 0 0 0 0 0 2 8 9 10 13 3 13 2 9 2 14 13 13 0 0 0 0 0 0 0 0 0 0 0 0 0 0 0 0 0 0 0 0 0 0 6 14 12 2 1 2 3 12 12 1 0 0 0 0 0 0 0 0 0 0 0 0 0 0 0 0 0 0 0 0 0 0 0 0 0 9 12 13 13 11 15 9 0 0 0 0 0 0 0 0 0 0 0 0 0 0 0 0 0 0 0 0 0 0 0 0 0 0 6 3 7 10 3 0 0 0 0 0 0 0 0 0 0 8 8 7 7 5 6 1 13 3 11 8 15 8 4 0 0 0 0 8 3 11 4 0 0 0 0 0 0 0 12 1 15 7 4 8 8 13 8 10 14 5 1 2 4 1 4 3 11 14 8 0 2 5 1 0 0 0 0 0 0 13 10 8 7 14 14 1 3 11 9 2 5 4 13 12 5 11 2 7 7 2 10 6 3 11 13 0 0 0 0 0 14 12 5 5 7 12 1 4 6 15 6 9 10 10 15 11 4 10 9 4 14 10 14 3 14 2 11 0 0 0 0 13 4 2 11 15 9 2 9 15 3 14 4 3 5 3 14 11 10 7 5 12 1 4 15 13 2 15 15 7 0 0 0 13 12 1 14 15 13 7 7 12 7 1 7 10 3 14 9 13 5 3 6 9 11 5 14 11 12 12 11 8 11 0 15 1 7 15 5 3 8 4 5 4 7 11 2 1 2 4 11 9 6 11 14 14 11 6 9 11 12 14 14 8 6 12 13 11 2 11 11 2 15 5 13 14 8 15 15 5 12 5 6 5 8 10 6 5 13 2 15 14 13 15 13 8 14 3 4 3 6 13 2 13 5 13 13 9 1 10 5 6 1 11 4 2 4 14 1 4 15 3 11 6 13 8 11 2 4 6 4 8 1 5 8 12 6 6 2 15 12 2 5 12 3 10 12 7 15 14 15 10 6 2 14 14 15 9 13 8 12 4 15 9 13 10 8 15 5 2 14 12 7 15 7 15 4 11 10 11 14 3 1 11 11 15 11 6 6 10 4 15 2 7 9 11 8 5 12 14 15 3 1 12 13 6 2 3 8 8 3 15 3 13 15 15 1 10 13 12 1 7 2 2 11 11 1 5 9 2 8 14 1 9 6 9 11 11 12 6 15 7 12 13 3 14 1 8 8 7 1 15 6 5 11 5 6 15 15 6 12 10 14 2 6 7 7 9 2 11 2 9 7 1 15 6 13 10 10 5 3 3 5 9 3 14 15 5 12 15 2 8 3 9 13 5 14 11 9 7 6 3 12 3 2 8 15 7 10 14 5 4 1 1 14 4 5 15 14 13 9 11 7 15 7 11 6 12 3 5 13 11 4 14 9 5 14 15 6 6 2 7 6 8 14 8 3 6 7 11 15 14 11 7 15 10 15 14 4 14 13 7 9 8 15 1 8 5 8 15 13 3 5 14 4 7 3 12 2 8 13 12 3 12 3 3 14 12 9 2 1 7 14 14 14 11 15 11 8 3 6 8 5 7 3 5 12 7 11 8 4 14 11 3 6 10 11 11 12 8 12 1 3 6 12 3 2 12 15 1 6 9 8 5 14 3 7 5 5 13 7 3 11 3 10 14 8 13 8 9 6 1 12 2 3 5 5 13 15 9 3 6 9 2 5 14 8 13 7 15 5 4 10 13 14 1 12 2 7 4 1 12 2 13 8 8 6 3 10 7 3 14 9 4 11 15 13 13 5 11 8 2 13 11 4 4 9 10 15 2 15 5 2 12 2 7 13 1 1 7 9 10 12 4 2 2 7 6 1 6 1 9 14 1 14 2 15 9 3 7 1 3 15 5 3 6 7 5 6 4 11 6 15 9 6 5 3 13 4 11 6 1 7 14 6 14 10 8 5 2 1 8 14 3 5 11 2 6 14 6 9 8 11 6 7 8 8 7 11 4 10 9 7 