P2
33 33
250
4 13 7 9 10 1 4 1 10 12 11 12 1 10 15 14 6 3 8 15 7 7 13 2 2 6 5 15 7 11 11 2 6 7 8 12 2 6 1 10 8 15 13 11 6 12 15 13 3 2 5 10 11 4 4 14 1 3 11 14 7 5 4 2 1 6 4 9 15 1 10 4 4 8 3 2 11 1 4 1 1 2 2 11 15 12 2 1 14 10 2 4 15 11 12 6 12 1 7 8 15 13 1 5 8 5 10 13 12 14 9 7 8 6 11 9 12 7 6 5 9 7 9 12 8 11 12 3 6 9 13 12 2 15 7 2 6 5 5 2 11 6 2 4 8 4 15 12 6 12 8 3 10 7 3 8 10 13 14 4 11 4 11 3 7 14 6 13 2 6 6 7 6 7 15 12 15 14 3 10 3 2 13 13 5 13 5 7 7 1 8 7 5 10 10 8 10 11 10 13 13 12 9 4 10 11 11 13 5 14 4 3 15 14 8 4 3 5 7 7 12 9 5 7 6 10 12 13 2 5 5 12 10 1 9 14 6 11 7 1 4 7 11 9 3 5 13 14 5 3 12 7 4 2 4 5 15 6 13 3 11 10 2 1 4 13 2 13 6 5 4 15 8 7 3 1 15 6 7 6 14 5 2 7 15 2 11 5 9 9 10 8 2 6 12 7 11 13 7 7 13 9 12 3 1 13 12 10 2 8 3 3 3 15 10 2 8 9 7 4 4 13 8 9 12 2 4 14 13 8 13 4 1 14 8 7 1 10 2 6 12 2 7 15 1 3 11 4 7 15 1 4 15 11 5 4 6 15 10 5 15 0 0 10 6 3 13 2 3 13 5 3 7 10 13 9 13 9 7 11 8 2 1 8 11 8 6 14 12 11 4 5 0 0 0 0 6 8 7 8 14 10 15 12 9 12 8 1 4 13 9 14 15 9 2 1 5 9 8 3 11 2 7 0 0 0 0 0 0 1 1 0 9 3 10 14 1 10 10 3 10 5 3 3 2 1 10 2 7 14 6 11 11 0 0 0 0 0 0 0 0 4 14 14 0 0 0 15 7 4 7 11 14 9 10 1 3 15 5 9 6 8 0 0 0 0 0 0 0 0 0 0 0 2 4 1 7 10 0 0 0 0 0 0 0 0 0 0 0 0 0 0 0 0 0 0 0 0 0 0 0 0 0 0 0 1 14 8 10 11 4 12 0 0 0 0 0 0 0 0 0 0 0 0 0 0 0 0 0 0 0 0 0 0 0 0 8 9 9 14 2 8 11 2 5 3 0 0 0 0 0 0 0 0 0 0 0 0 0 0 0 0 0 0 0 0 0 4 3 13 9 5 10 10 8 15 12 12 5 8 14 0 0 0 0 0 0 0 0 0 0 0 0 0 0 0 0 0 0 8 12 8 4 15 12 6 9 5 7 5 4 12 5 6 3 2 0 0 0 0 0 0 0 0 0 0 0 0 0 15 13 5 10 15 3 10 5 5 2 12 2 11 13 14 12 14 10 5 15 15 12 2 14 0 0 0 0 14 3 6 13 2 5 8 2 1 15 10 2 15 5 9 6 4 1 4 5 10 12 6 12 5 1 11 12 15 4 10 10 8 3 15 3 5 2 1 11 9 12 3 15 7 11 14 4 7 8 10 5 14 9 7 7 8 3 1 15 12 5 12 10 3 2 3 14 9 15 11 4 12 1 9 2 6 2 1 15 6 5 1 8 1 9 9 7 8 8 9 3 7 1 9 10 11 13 6 5 3 9 2 2 8 3 5 7 7 12 1 8 15 11 8 15 5 10 6 12 8 1 12 15 12 6 15 14 12 5 5 4 4 2 13 8 4 8 9 13 11 4 4 5 7 6 8 4 3 2 3 11 1 12 12 11 11 15 11 1 14 1 9 8 3 9 5 7 2 10 6 7 11 10 9 15 5 9 6 8 13 6 9 9 2 14 1 7 9 2 15 3 3 4 4 6 12 10 6 14 13 10 4 8 5 10 9 6 4 1 13 1 13 1 10 10 7 14 12 15 4 7 1 13 11 6 4 9 11 5 3 7 9 11 12 12 2 14 10 14 6 5 4 11 5 3 1 10 14 12 12 7 4 14 5 8 14 7 5 4 15 15 12 6 8 14 11 1 15 15 8 13 4 15 3 1 5 10 8 3 10 5 5 3 8 2 10 6 15 7 13 6 5 6 8 7 2 10 15 8 15 11 1 4 8 1 14 15 4 1 7 3 9 11 15 14 6 1 15 12 10 8 1 2 11 9 6 11 15 5 4 11 3 6 13 4 11 15 11 12 12 6 8 9 15 3 12 14 13 15 1 3 14 3 12 13 3 5 7 4 2 4 9 7 1 10 6 9 1 6 2 9 15 12 5 10 7 4 7 7 9 14 11 13 13 4 1 15 2 1 9 5 3 7 1 3 5 12 14 7 1 2 3 2 3 10 13 14 14 14 7 14 