P2
33 33
250
15 10 13 10 3 1 5 4 8 11 13 6 14 1 14 5 12 8 11 5 1 7 8 1 8 3 9 11 10 10 3 7 4 15 3 7 3 9 14 6 6 4 3 2 10 12 3 15 12 9 1 6 14 14 3 7 12 7 8 6 8 13 13 6 15 10 12 5 9 1 5 14 6 10 13 1 11 15 2 2 13 3 13 11 3 12 11 12 5 5 6 13 12 2 13 11 12 2 9 6 1 11 12 1 5 2 6 9 13 15 5 5 12 6 6 6 3 12 2 14 4 5 13 13 9 8 10 4 4 6 9 14 14 7 14 5 4 15 2 12 1 5 12 9 4 13 7 1 5 7 1 15 6 13 6 4 7 10 4 7 15 13 9 8 9 12 2 6 13 6 8 13 12 10 15 8 3 5 14 9 6 6 13 13 7 8 10 11 15 3 13 13 1 3 13 13 4 15 8 14 3 7 6 9 8 12 14 6 5 14 3 11 14 4 12 14 13 11 1 11 9 14 10 14 2 4 2 7 5 4 12 10 6 4 4 0 0 3 9 8 13 5 5 6 3 7 9 8 6 12 13 11 8 8 2 8 1 3 7 1 6 7 6 11 7 5 8 4 0 0 0 0 3 13 13 11 13 8 7 12 4 7 3 10 10 15 12 7 5 12 8 10 14 1 4 6 14 15 13 2 5 0 0 0 0 0 0 0 2 14 7 13 4 2 14 10 6 11 6 8 7 12 15 10 2 7 2 8 0 0 2 11 5 10 14 0 0 0 0 0 0 0 0 0 0 0 12 10 15 10 10 1 3 15 6 12 15 0 0 0 0 0 0 13 8 10 14 2 13 10 0 0 0 0 0 0 0 0 0 0 0 0 0 0 0 0 0 0 0 0 0 0 0 0 0 0 9 6 9 5 9 7 11 10 14 0 0 0 0 0 0 0 0 0 0 0 0 0 0 0 0 0 0 0 0 0 0 0 0 1 6 6 10 12 10 12 10 4 9 3 0 0 0 0 0 0 0 0 0 0 0 0 0 0 0 0 0 0 0 0 6 3 8 11 14 2 9 4 14 2 9 10 3 11 11 10 0 0 0 0 0 0 0 0 0 0 0 0 0 0 11 13 8 10 3 11 9 12 7 6 15 4 7 3 10 5 11 13 6 5 9 5 13 6 15 7 10 8 13 1 2 9 14 9 1 7 12 12 3 5 15 12 10 10 4 11 15 3 13 9 14 12 8 2 10 1 15 4 7 11 13 4 7 7 13 14 7 13 9 15 3 4 13 7 14 8 6 12 8 6 1 2 5 1 3 11 7 11 10 1 8 9 1 7 15 15 12 14 15 6 5 9 11 7 7 7 15 1 5 7 5 10 5 15 6 9 14 1 2 5 1 14 14 7 2 7 4 10 15 4 1 13 8 13 12 5 13 6 9 7 3 10 4 11 5 10 2 2 6 10 7 9 2 7 8 10 3 9 7 9 13 9 6 9 13 8 9 15 1 14 2 3 12 10 9 4 7 8 1 9 5 1 8 5 8 6 14 3 15 10 8 13 7 14 13 13 10 13 14 14 2 1 3 4 9 2 6 3 9 1 2 5 15 7 8 15 2 12 15 13 14 3 9 10 6 7 14 4 8 12 6 12 3 12 11 4 1 15 6 12 9 8 8 7 8 15 1 3 7 8 11 3 9 8 12 10 4 14 14 15 1 4 14 15 10 2 2 15 12 12 3 5 6 15 6 13 3 8 2 4 14 15 10 1 1 3 12 7 7 7 10 3 5 10 13 1 10 2 13 4 13 6 14 9 15 15 7 11 7 3 7 8 3 5 13 8 7 9 5 15 2 12 5 15 9 11 9 9 4 7 2 7 8 13 11 12 2 6 10 10 1 14 14 9 14 15 8 14 4 9 12 14 8 15 9 13 15 10 2 2 13 5 3 1 6 4 4 8 4 11 7 8 6 12 9 9 14 5 12 12 9 4 6 9 5 3 10 12 11 15 4 12 6 7 7 10 1 4 12 7 2 8 7 7 2 7 14 14 4 15 2 14 12 10 8 1 3 2 15 9 10 14 5 9 6 1 8 15 4 2 10 1 5 12 12 5 12 1 14 6 9 10 10 9 14 11 15 1 6 12 13 2 1 7 4 11 14 4 12 4 15 4 13 11 12 1 8 15 14 15 13 5 3 10 10 7 10 13 13 2 2 5 12 15 15 4 4 2 14 9 5 3 8 5 5 2 12 1 13 15 2 7 13 7 7 11 4 4 5 10 10 13 10 8 7 4 8 2 9 9 6 1 4 4 11 7 10 15 7 10 2 15 4 5 13 12 9 1 8 10 8 5 12 1 9 13 6 6 9 14 3 11 6 15 11 9 4 11 2 4 14 13 13 3 9 8 3 1 6 9 7 2 1 7 9 12 11 8 5 4 3 15 6 9 14 7 5 10 11 4 2 4 10 2 5 11 11 4 15 