P2
33 33
250
9 15 12 8 4 3 15 4 8 7 5 15 14 2 5 13 9 10 5 9 9 6 12 10 3 5 7 2 6 13 12 1 10 11 1 12 12 12 11 8 14 13 14 15 5 5 2 1 14 15 10 12 13 1 5 4 5 9 1 10 9 3 13 15 14 5 15 14 9 3 8 9 12 11 1 14 11 7 4 3 9 4 11 10 2 14 2 5 12 7 3 13 3 10 10 10 7 7 6 2 4 11 10 9 4 3 9 10 2 15 3 8 6 15 10 10 13 8 5 14 11 8 11 2 1 12 2 2 10 13 2 4 11 2 15 11 2 13 14 10 6 14 12 3 13 4 14 15 1 4 1 7 2 10 7 15 13 8 7 6 1 15 14 15 10 12 5 9 13 9 13 5 14 11 4 2 8 2 14 7 11 6 7 8 9 10 2 2 8 11 13 13 11 9 6 9 7 9 12 5 4 5 1 12 6 1 5 1 6 5 11 15 7 13 10 5 6 4 6 6 11 11 11 1 3 13 8 4 12 2 15 12 8 14 3 6 15 7 14 12 7 15 7 10 5 13 1 7 6 8 13 5 5 9 7 11 15 3 12 1 11 2 2 5 8 3 8 5 6 11 1 13 7 1 3 11 2 4 6 4 6 14 14 8 6 15 14 5 10 15 12 1 5 10 14 8 6 8 7 5 13 15 4 2 4 2 10 13 1 8 4 13 10 13 11 2 8 11 11 10 12 10 11 7 5 0 0 0 0 0 4 6 12 14 14 14 9 5 14 12 7 12 5 15 7 12 15 4 6 11 10 12 0 0 0 0 0 0 0 0 0 0 0 1 5 6 8 13 10 2 12 2 2 13 8 2 3 7 8 13 2 7 0 0 0 0 0 0 0 0 0 0 0 0 0 0 9 15 2 11 12 13 5 14 8 14 6 3 15 6 9 2 10 0 0 0 0 0 0 0 0 0 0 0 0 0 0 0 0 10 7 5 11 7 3 9 2 8 10 15 5 4 11 4 0 0 0 0 0 0 0 0 0 0 0 0 0 0 0 0 0 0 14 1 15 9 7 11 2 13 4 11 10 7 4 2 0 0 0 0 0 0 0 0 0 0 0 0 0 0 0 0 0 0 0 7 3 3 1 7 11 2 11 5 15 13 1 0 0 0 0 0 0 0 0 0 0 0 7 9 15 1 3 7 10 9 9 2 1 8 8 6 8 14 8 6 4 7 12 0 0 0 0 0 0 0 0 0 13 15 2 15 12 2 12 10 14 10 1 11 3 11 12 3 3 7 7 5 9 6 6 0 0 0 0 0 0 0 0 7 4 1 13 6 8 12 8 6 11 15 1 9 9 7 11 9 2 13 13 9 10 5 7 0 0 0 0 0 0 0 3 15 9 5 9 12 1 2 15 7 8 12 14 11 13 7 1 11 11 9 3 5 14 3 3 0 0 0 0 0 0 0 3 4 8 14 6 13 6 6 2 5 14 1 15 5 15 3 5 13 13 14 13 3 3 13 13 0 0 0 0 0 0 11 13 1 1 6 5 11 13 6 10 14 6 3 6 6 5 12 7 4 8 5 15 1 9 3 9 0 0 0 0 0 0 2 11 4 9 2 7 11 2 12 8 5 1 14 15 12 5 8 13 13 11 2 3 3 1 10 9 0 0 0 0 0 0 10 10 7 12 1 1 11 15 12 2 9 14 12 10 2 7 11 11 2 14 12 14 4 13 14 7 3 0 0 0 0 0 13 6 4 14 1 9 11 2 15 6 2 5 4 15 12 12 9 6 13 3 9 14 12 4 10 11 5 11 0 0 0 0 13 11 12 3 3 9 12 7 1 6 7 1 4 7 12 3 4 5 3 13 4 3 9 1 3 14 4 11 2 0 0 0 10 2 5 11 9 5 12 12 1 8 13 4 5 14 9 6 5 15 1 6 1 15 12 1 7 14 8 13 4 9 0 0 2 13 11 3 14 8 9 12 2 5 6 4 10 4 10 12 11 1 7 7 5 13 1 4 1 8 5 14 7 9 8 0 8 4 2 2 8 2 4 1 2 8 9 1 3 9 13 13 13 10 13 1 10 2 8 4 3 13 2 9 4 4 12 15 4 6 1 2 10 3 12 9 4 14 14 4 9 2 7 15 14 4 14 4 2 5 7 5 11 12 6 10 11 10 15 7 12 6 3 8 12 4 11 5 7 13 6 3 7 12 9 1 8 4 13 8 13 12 14 2 15 5 12 10 5 1 10 15 14 3 2 7 5 11 2 13 5 13 2 2 14 15 11 9 10 8 12 10 7 8 4 8 9 6 11 2 1 9 10 12 14 3 11 3 4 10 12 8 4 1 8 4 12 1 2 7 12 10 10 15 8 12 10 11 13 7 3 14 11 3 11 13 6 1 2 7 11 15 10 12 6 7 9 9 8 14 10 12 15 2 11 12 9 9 1 14 1 15 1 13 15 6 7 7 