P2
33 33
250
5 5 12 7 10 8 2 4 4 1 9 3 7 8 3 9 9 3 15 5 9 11 8 9 14 13 6 3 9 3 3 12 5 3 13 5 11 15 4 12 12 1 9 7 9 5 12 11 13 2 2 9 1 11 11 1 3 2 13 2 7 8 6 4 6 1 12 2 13 4 2 5 10 4 15 5 6 8 3 15 9 9 10 10 14 2 10 13 9 7 9 12 1 4 8 7 8 7 2 14 10 4 6 8 4 7 1 11 8 14 3 10 13 11 5 7 6 6 10 13 7 7 5 9 6 5 10 14 6 1 7 4 2 2 5 12 6 7 11 13 3 10 4 6 11 10 9 1 14 14 1 6 15 15 11 5 14 7 4 1 6 7 12 12 8 2 6 12 4 2 9 14 5 10 7 13 14 14 15 4 11 4 13 0 0 0 0 0 8 3 14 15 8 3 8 10 2 15 3 12 15 2 1 4 10 6 12 10 7 15 13 0 0 0 0 0 0 0 0 0 0 0 0 0 0 0 0 10 7 2 4 1 13 12 13 3 12 11 9 10 12 0 0 0 0 0 0 0 0 0 0 0 0 0 0 0 0 0 0 0 0 0 0 0 4 7 8 7 15 15 4 0 0 0 0 0 0 0 0 0 0 0 0 0 0 0 0 0 0 0 0 0 0 0 0 0 0 3 14 4 8 8 0 0 0 0 0 0 0 0 0 0 0 0 0 0 0 0 0 0 0 0 0 0 0 0 0 0 0 0 6 11 4 15 0 0 0 0 0 0 0 0 0 0 15 10 5 15 14 11 5 2 4 11 10 2 6 7 1 14 8 13 4 15 14 0 0 0 0 0 0 0 4 3 5 5 6 2 6 8 5 8 13 12 10 5 7 11 10 8 1 15 9 15 7 1 10 0 0 0 0 0 9 4 4 1 15 3 2 6 7 7 8 12 1 4 4 2 3 10 5 12 4 10 2 1 3 12 9 0 0 0 0 13 7 8 1 7 8 5 10 13 13 13 9 2 1 3 4 15 3 2 5 14 9 5 13 11 8 10 8 5 0 0 2 1 15 11 7 6 4 8 8 6 15 2 1 1 14 12 15 6 14 6 4 15 3 13 11 1 3 4 15 2 13 7 8 2 12 9 2 1 13 5 3 3 3 12 9 2 4 4 4 12 11 14 4 3 7 6 4 8 3 14 9 11 4 1 1 8 11 11 15 10 14 15 3 4 4 3 14 12 2 3 10 7 4 14 3 8 14 14 11 3 14 8 2 8 4 10 14 10 2 15 15 8 8 3 4 12 5 11 4 8 11 2 2 4 7 14 5 15 6 11 11 7 9 1 1 14 11 7 3 11 12 7 10 15 14 11 1 3 1 1 3 10 4 1 15 5 4 11 4 1 2 14 12 7 12 8 9 4 12 11 6 6 6 2 6 2 12 6 1 14 13 4 8 4 4 4 8 2 5 10 15 4 6 8 8 12 14 10 13 4 11 7 8 7 1 13 3 6 10 6 4 14 10 5 13 13 13 8 7 5 5 11 3 2 6 12 2 6 13 14 12 1 6 12 9 15 14 2 13 2 14 3 8 7 12 7 9 13 15 3 14 2 3 10 8 5 10 5 9 2 15 9 15 15 7 4 11 9 15 10 11 5 2 6 13 9 12 3 5 14 6 2 6 12 15 12 13 4 6 10 12 1 13 2 11 13 12 5 9 3 11 7 15 6 7 12 6 8 4 7 9 2 2 5 4 7 12 7 10 9 5 7 3 11 11 11 7 1 7 12 14 6 5 11 2 10 9 14 3 1 15 9 13 11 1 15 5 10 3 7 13 6 4 5 10 5 10 2 12 9 3 7 11 11 11 12 2 10 10 10 5 10 10 4 11 2 14 12 10 10 12 11 3 1 1 4 10 8 13 4 2 15 9 10 13 14 6 7 7 13 12 1 11 5 7 2 6 4 11 3 1 6 14 9 8 4 1 10 6 8 7 4 9 5 6 5 12 6 10 1 3 12 6 14 13 7 8 7 13 6 1 8 1 14 12 2 6 1 8 8 6 1 11 7 5 5 12 6 6 10 8 5 13 15 11 2 6 7 12 8 1 13 11 1 15 8 2 6 13 4 12 12 15 14 6 2 10 4 12 14 3 14 13 9 5 14 9 10 11 7 4 7 15 6 9 7 9 9 7 7 15 9 10 3 13 4 1 1 8 11 3 2 7 13 6 6 2 8 8 5 3 4 8 4 12 8 9 11 10 5 11 7 12 12 12 10 14 10 5 12 5 15 12 8 4 7 10 13 3 12 15 3 13 10 9 11 9 5 6 15 11 4 4 5 9 7 1 2 14 7 4 14 2 13 1 10 1 9 1 10 5 15 4 7 5 3 3 3 11 10 13 15 1 3 14 5 6 7 11 14 9 7 10 3 12 15 3 5 10 9 6 14 5 6 5 4 11 1 3 7 9 9 4 11 10 