P2
33 33
250
8 13 4 8 3 7 2 4 4 2 15 5 1 6 13 15 2 3 3 11 6 6 1 14 2 11 15 3 15 8 1 2 13 2 4 5 15 6 8 6 12 5 6 13 1 13 14 14 3 3 10 4 9 4 13 15 4 12 1 3 2 7 8 11 12 9 7 8 5 10 3 3 12 15 5 10 11 7 14 15 9 9 11 10 3 15 7 5 2 12 5 9 10 1 15 7 10 2 15 8 11 2 3 7 9 15 8 8 5 11 2 5 5 13 14 4 8 11 2 7 6 15 1 9 10 11 1 5 4 8 10 14 5 2 10 4 6 4 14 10 14 15 1 11 5 3 4 1 9 2 1 8 12 14 9 7 2 3 11 5 8 10 3 3 6 12 7 4 7 4 14 5 3 12 1 14 10 14 9 13 10 13 4 15 4 6 9 14 8 9 10 11 9 4 15 11 12 12 6 3 12 8 3 14 13 3 9 14 2 7 10 14 7 2 2 3 10 5 6 14 4 4 5 4 8 9 1 10 15 11 8 2 1 9 13 7 8 7 15 15 11 10 10 4 4 2 6 5 14 11 8 12 2 4 1 12 10 1 8 6 1 14 15 6 10 12 14 3 10 5 15 2 11 6 3 10 6 4 2 3 6 5 1 13 3 9 3 9 2 8 12 12 7 1 12 10 6 4 6 6 5 3 5 6 9 7 7 7 14 4 3 15 2 12 1 8 8 7 4 11 13 8 12 12 12 12 12 14 1 6 5 3 12 8 3 11 9 13 6 10 15 9 10 8 5 13 12 1 1 7 2 9 8 1 3 12 11 12 6 2 6 1 2 12 11 12 8 3 12 6 2 6 5 6 13 12 14 2 5 8 3 10 7 6 3 15 4 7 2 1 1 3 7 1 11 8 12 7 8 8 2 6 10 15 7 9 1 2 9 12 7 1 4 12 5 9 10 7 12 4 7 14 15 10 9 3 6 10 11 1 1 9 14 13 14 13 5 8 8 4 8 3 6 9 13 9 7 2 4 4 12 13 13 2 5 12 14 7 5 3 6 15 11 14 5 13 8 8 7 4 12 11 9 14 7 15 13 9 7 12 15 8 5 11 10 9 2 11 5 6 10 7 13 11 15 4 1 3 5 12 15 4 6 6 8 9 14 11 6 14 4 5 4 5 5 3 14 5 6 3 15 8 5 5 2 7 7 7 4 8 1 5 3 13 8 1 15 10 6 6 7 7 6 10 8 8 3 5 10 10 4 9 12 1 11 13 7 8 8 2 2 10 9 6 11 6 11 3 7 1 8 4 8 4 1 3 5 2 1 1 11 15 13 9 5 15 4 2 13 11 14 15 15 12 12 4 6 14 2 8 13 10 13 2 8 12 15 14 11 1 11 1 9 3 1 2 14 15 11 15 9 15 5 14 7 14 5 9 4 2 9 7 10 11 1 3 6 12 3 14 6 6 11 7 15 14 7 1 7 11 15 13 11 3 4 2 7 13 11 7 5 14 11 13 10 9 12 8 12 11 5 4 10 8 2 7 11 5 4 5 7 15 15 3 13 5 4 12 10 13 4 6 13 13 12 9 13 2 1 3 13 11 8 10 6 5 3 4 1 9 12 5 12 3 14 11 10 14 7 2 3 15 8 12 14 14 7 11 2 6 12 9 1 7 6 7 1 15 1 12 13 14 5 15 2 8 8 2 12 8 14 7 7 4 4 1 10 11 1 6 12 12 15 11 7 12 7 3 1 14 9 6 5 10 9 7 2 4 1 12 10 1 4 6 4 13 7 14 8 1 15 2 10 13 10 5 9 15 2 3 14 6 2 12 9 15 13 2 13 1 9 15 6 10 1 4 2 4 2 15 0 0 0 0 0 9 10 7 3 9 4 4 15 12 6 10 8 5 14 12 14 9 7 15 15 3 11 6 0 0 0 0 0 0 0 0 0 0 11 7 13 8 6 13 2 5 14 2 11 7 5 12 9 13 14 7 6 13 10 0 0 0 0 0 0 0 0 0 0 0 0 2 8 1 15 6 1 12 7 10 15 1 8 2 13 3 5 7 9 8 0 0 0 0 0 0 0 0 0 0 0 0 0 0 7 1 10 5 12 3 5 7 13 10 15 10 11 6 6 14 10 14 0 0 0 0 0 0 0 0 0 0 0 0 0 0 0 12 3 3 9 4 2 5 4 13 15 15 12 11 2 2 6 13 0 0 0 0 0 0 0 0 0 0 0 0 0 0 0 0 4 11 4 12 2 4 1 5 14 3 4 12 1 14 13 8 0 0 0 0 0 0 0 0 13 11 3 5 7 4 8 13 10 14 4 3 4 7 6 4 1 7 1 14 6 4 15 5 0 0 0 0 0 0 0 11 2 3 14 1 5 7 1 6 15 12 3 15 14 15 5 5 8 15 2 2 7 5 15 5 0 0 0 0 0 0 8 13 6 10 13 6 12 11 14 8 1 15 9 