P2
33 33
250
2 15 6 12 13 8 13 5 5 10 3 1 14 4 8 14 8 10 4 13 2 3 13 11 10 15 13 10 5 13 9 11 1 15 13 6 14 7 4 5 12 4 11 10 12 6 2 3 10 13 2 6 15 7 11 7 12 6 3 11 5 9 11 5 1 10 7 11 11 11 4 15 3 3 1 2 9 10 13 9 9 4 9 13 12 13 15 13 14 15 8 5 14 5 4 6 14 3 3 10 15 13 5 3 5 10 4 15 12 2 10 8 8 5 10 11 5 5 3 8 14 5 4 6 11 6 15 10 10 14 7 12 13 4 4 3 10 9 15 1 8 14 8 12 1 11 2 15 13 1 12 11 14 15 4 8 2 5 10 2 1 4 3 14 12 6 15 8 9 8 6 4 4 12 12 14 2 5 14 11 14 8 4 2 3 5 10 14 2 10 14 1 5 15 10 10 2 8 8 7 13 13 4 6 9 9 15 14 9 15 14 10 7 5 2 4 8 4 8 7 2 5 8 10 15 8 13 12 10 7 10 12 1 10 7 10 6 13 3 2 11 14 9 12 8 11 10 14 11 7 8 10 13 2 14 12 14 11 9 6 10 6 4 11 15 2 8 5 11 13 6 9 12 15 10 1 2 15 8 11 15 5 14 8 14 14 9 1 7 6 1 3 13 9 12 15 5 2 4 4 9 2 14 3 5 3 6 15 13 8 7 11 8 9 4 11 8 9 10 9 13 15 12 5 8 7 12 15 6 6 7 15 6 7 2 4 2 5 2 10 13 10 10 7 9 6 14 11 9 9 5 4 5 8 8 6 8 6 10 13 3 3 6 6 8 2 8 2 12 13 8 5 13 7 6 7 5 3 8 9 3 12 2 12 3 13 13 3 8 8 15 3 1 2 9 3 3 2 3 9 10 6 5 9 1 13 11 2 7 6 1 8 15 9 1 10 10 8 10 11 11 9 2 15 1 0 0 0 13 0 15 1 11 7 11 5 7 15 5 4 15 12 13 15 3 1 2 10 10 11 2 15 5 2 9 1 0 0 0 0 0 11 0 0 0 0 1 2 5 14 14 1 7 1 15 8 4 14 3 7 4 14 14 2 9 4 0 0 0 0 0 0 0 0 5 0 0 0 0 0 0 0 10 3 12 10 3 15 3 8 12 14 1 1 4 6 0 0 0 0 0 0 0 0 0 0 6 14 0 0 0 0 0 0 0 0 0 0 0 0 0 0 0 0 0 0 0 0 0 0 0 0 0 0 0 0 0 11 2 1 7 12 5 0 0 0 0 0 0 0 0 0 0 0 0 0 0 0 0 0 0 0 0 0 0 0 0 0 5 2 1 12 12 11 13 15 8 5 11 0 0 0 0 0 0 0 0 0 0 0 0 0 0 0 0 0 0 12 2 4 11 4 9 10 9 2 15 3 13 12 8 3 15 13 1 10 9 6 0 0 0 0 0 0 0 1 5 7 13 14 15 2 6 14 1 8 12 8 7 6 15 3 4 11 6 14 1 8 4 10 6 4 9 7 1 4 3 11 6 15 11 7 11 11 3 4 14 9 1 11 12 4 1 6 3 2 11 3 1 9 8 3 6 8 11 3 15 2 10 1 15 6 8 15 8 10 5 8 12 15 13 9 7 6 2 11 12 2 4 9 10 3 3 1 12 2 6 2 9 13 15 10 3 11 12 6 1 12 8 6 3 12 11 6 9 8 9 8 13 11 6 10 1 7 15 11 14 13 6 7 2 7 10 1 6 2 3 2 9 15 9 5 1 15 2 14 3 11 10 11 6 9 7 13 3 8 1 12 10 12 6 2 13 6 7 13 2 8 12 6 7 3 5 12 6 11 4 13 8 12 5 6 14 2 5 9 12 15 14 15 5 15 1 8 9 10 12 7 1 8 14 14 8 12 15 1 10 15 5 9 6 2 5 4 3 1 7 10 13 5 8 10 14 13 9 1 13 12 7 14 6 9 12 9 12 11 9 2 11 3 4 14 11 6 13 4 11 12 8 7 14 3 11 10 7 14 15 4 4 4 3 13 10 7 12 10 13 7 12 7 7 3 2 8 1 13 9 6 10 14 4 2 4 14 8 5 2 4 12 4 10 8 10 9 8 2 11 4 6 7 1 6 14 14 1 3 9 11 6 7 3 3 15 8 1 13 2 8 6 12 15 12 11 8 13 6 14 4 11 14 3 1 14 3 8 11 11 8 12 11 5 15 7 9 5 10 10 4 10 14 6 1 3 3 8 2 15 11 12 3 9 5 14 8 2 11 8 2 9 9 8 13 9 11 14 9 10 14 10 14 6 15 4 10 10 8 1 10 2 2 14 8 11 8 11 2 6 11 9 8 8 5 9 12 11 8 13 5 6 10 7 13 11 8 1 14 2 9 7 11 4 12 3 14 1 11 10 3 14 10 1 15 14 8 6 10 11 7 4 6 12 5 8 7 2 12 6 6 7 