P2
33 33
250
12 10 7 9 12 15 2 6 7 14 13 13 12 3 1 6 8 6 1 10 6 6 7 1 7 9 10 12 11 4 1 13 1 2 7 9 4 15 6 10 2 15 8 13 4 14 9 11 7 4 13 13 2 9 3 8 13 12 15 8 12 3 2 10 11 8 11 7 13 6 9 2 8 10 4 9 8 14 7 2 4 4 7 8 9 14 11 15 11 7 2 3 1 2 3 14 7 1 5 11 7 5 1 5 12 13 15 6 12 3 12 12 11 5 1 9 11 10 5 11 15 12 9 6 7 7 2 13 9 2 10 9 12 9 11 6 12 11 4 12 13 15 2 2 5 8 4 13 12 7 11 6 15 13 2 1 8 7 9 15 1 2 1 9 12 9 10 9 10 7 9 2 12 8 11 9 2 9 5 5 3 15 3 6 1 1 3 9 3 1 12 11 0 13 15 2 9 12 12 2 11 13 2 13 9 2 9 5 12 4 2 10 8 2 1 15 1 11 9 10 15 12 6 6 0 0 9 11 10 13 6 7 11 4 8 14 7 4 12 12 12 13 6 15 13 10 6 5 12 13 12 1 13 7 8 0 0 0 8 6 12 5 12 9 4 1 4 11 11 7 1 10 7 7 9 2 5 14 14 9 11 1 9 2 13 4 0 0 0 0 6 3 9 9 10 12 7 0 0 12 9 13 10 1 2 3 14 1 11 11 9 2 10 8 1 0 0 0 0 0 0 0 2 14 14 10 10 2 3 3 0 0 0 0 0 0 0 0 0 0 0 0 0 0 0 0 0 0 0 0 0 0 0 0 8 12 5 2 7 5 8 1 7 0 0 0 0 0 0 0 0 0 0 0 0 0 0 0 0 0 0 0 0 0 0 0 5 8 9 4 13 11 11 15 7 7 0 0 0 0 0 0 0 0 0 0 0 0 0 0 0 0 0 0 0 0 0 0 2 5 4 13 12 4 15 5 5 14 15 0 0 0 0 0 0 0 0 0 0 0 0 0 0 0 0 0 0 0 0 2 11 3 2 11 2 11 6 13 2 10 7 7 9 13 6 0 0 0 0 0 0 0 0 0 0 0 0 0 0 9 2 14 2 12 4 8 7 2 15 8 5 1 3 9 12 5 4 3 3 3 11 13 0 0 0 0 0 1 4 9 2 8 12 13 15 12 6 7 10 13 9 5 10 11 11 6 3 4 5 6 11 3 12 11 12 7 3 5 15 12 10 12 6 9 9 1 3 5 11 4 8 3 11 1 3 6 13 2 2 7 12 15 6 1 15 3 6 10 4 13 6 14 10 10 15 8 11 4 7 1 7 5 10 15 3 10 12 1 9 1 2 1 7 5 11 12 1 1 15 1 9 10 15 1 9 7 10 3 13 13 10 6 14 2 7 14 6 12 1 13 8 15 13 14 8 4 3 2 15 2 2 7 15 14 1 15 7 8 6 12 15 12 6 9 9 6 15 12 3 11 9 12 10 6 6 13 10 12 9 2 12 4 9 14 12 7 15 15 13 12 14 2 5 4 15 2 2 5 12 4 1 15 2 11 15 10 2 11 1 7 5 3 13 5 14 3 8 1 5 2 2 13 2 3 2 10 12 13 9 11 12 14 10 2 1 13 9 15 10 14 9 12 12 1 2 13 2 10 13 8 3 5 5 5 12 11 11 10 4 8 5 10 5 1 9 1 11 12 13 4 1 2 5 8 7 7 2 14 10 8 8 2 15 1 1 14 14 11 10 1 13 2 5 1 2 1 9 5 6 3 11 13 13 6 4 11 2 7 3 15 10 6 15 4 13 14 11 1 10 11 2 13 9 13 3 10 7 14 10 14 6 8 10 2 6 7 1 7 8 4 8 3 15 1 12 12 15 4 8 6 7 1 10 5 13 15 6 6 3 14 1 6 14 12 12 2 5 5 7 6 1 6 11 4 1 11 3 2 11 12 10 12 3 3 8 10 3 8 10 12 15 11 10 6 1 15 4 15 5 1 4 12 2 5 1 12 7 1 3 9 6 3 3 4 15 5 15 6 4 9 4 8 13 1 5 7 4 11 7 3 4 11 5 14 12 15 2 2 5 15 3 9 3 15 15 14 12 2 8 7 8 11 3 7 3 14 15 15 11 6 15 4 14 15 13 3 12 10 9 9 3 7 14 10 7 5 14 13 1 2 7 4 5 13 12 1 6 5 1 10 10 3 12 3 15 3 8 3 1 9 8 15 5 1 2 11 3 4 11 11 6 9 11 13 14 3 4 6 6 9 15 1 1 4 2 1 14 7 15 1 15 3 6 11 5 11 8 15 8 14 9 4 14 14 7 1 6 10 5 15 5 6 15 10 8 10 4 10 9 12 14 1 15 5 5 10 11 13 7 9 12 14 6 2 6 10 1 4 1 3 5 4 8 12 6 15 10 4 5 4 11 1 2 14 13 4 15 2 5 3 5 13 7 9 6 14 11 5 5 