P2
33 33
250
12 8 15 5 4 11 14 9 7 4 9 2 1 4 15 15 8 3 13 15 9 7 8 11 4 6 4 7 3 10 5 9 13 13 10 12 11 4 10 3 10 14 5 12 9 8 3 11 1 9 12 9 10 4 1 13 8 8 9 13 7 8 14 7 6 2 2 3 4 15 1 15 3 9 3 14 3 9 8 8 15 7 15 13 6 4 7 14 2 13 14 10 5 12 9 6 11 4 10 7 15 4 10 6 3 8 4 13 14 4 7 11 5 13 12 14 2 4 6 14 7 12 7 9 2 2 3 9 8 12 5 13 4 10 5 10 8 12 15 6 7 8 10 14 4 7 0 0 0 0 0 13 9 13 5 13 6 4 13 6 10 12 3 10 2 5 3 5 9 9 10 7 11 15 0 0 0 0 0 0 0 0 0 0 0 0 0 0 0 3 2 7 7 11 3 8 8 7 10 11 6 12 2 9 10 0 0 0 0 0 0 0 0 0 0 0 0 0 0 0 0 0 0 0 7 4 7 15 8 11 5 15 5 13 4 8 0 0 0 0 0 0 0 0 0 0 0 0 0 0 0 0 0 0 0 0 0 0 0 11 6 11 13 13 14 11 13 0 0 0 0 0 0 0 0 0 0 0 0 0 0 0 0 0 0 0 0 0 0 0 0 0 0 0 2 8 5 6 8 0 0 0 0 0 0 0 0 0 0 0 0 0 0 0 0 0 0 0 0 0 0 0 0 0 0 0 0 0 5 14 13 0 0 0 0 0 0 0 0 0 0 0 0 0 0 0 0 0 0 0 0 0 0 0 0 0 0 0 0 0 0 0 4 0 0 0 0 0 0 0 0 0 0 0 0 0 0 0 0 0 0 0 0 0 0 0 0 0 0 0 0 0 0 0 0 0 0 0 0 0 7 7 9 3 12 5 3 10 3 10 3 12 13 14 12 15 2 4 2 5 10 12 12 9 13 15 0 0 0 0 0 6 3 4 11 12 1 12 13 13 3 7 3 9 1 3 5 10 2 10 12 6 2 2 7 9 6 15 7 4 0 0 0 4 8 13 3 1 13 12 14 2 1 14 15 1 3 14 2 1 4 11 5 7 5 1 2 11 6 7 4 3 5 12 0 7 14 12 2 3 15 5 10 14 9 14 9 12 4 6 9 6 7 14 3 15 10 9 5 15 15 8 5 11 10 10 9 3 1 13 15 4 12 4 10 13 12 9 1 14 15 3 7 15 9 10 6 6 15 10 1 15 8 7 2 13 13 8 15 10 11 2 12 6 13 1 5 15 4 8 1 12 8 9 9 5 6 6 2 5 7 5 12 6 14 10 8 10 1 6 9 4 10 5 3 11 10 3 10 11 12 2 14 13 14 6 15 3 9 15 3 1 14 6 10 9 13 15 15 5 4 12 3 10 10 3 7 6 14 5 1 3 15 12 1 3 11 9 3 9 8 2 4 7 3 12 13 6 9 14 15 10 7 8 6 6 6 2 9 6 13 10 12 14 9 10 1 5 5 2 6 4 1 9 14 10 7 6 15 9 6 8 8 4 3 8 14 6 9 11 3 14 3 12 3 1 3 2 1 15 9 4 7 7 5 2 14 13 7 1 8 4 11 9 11 9 11 10 5 11 3 10 10 2 14 10 3 2 3 5 1 9 13 8 4 12 8 5 9 4 8 11 10 1 6 12 5 8 5 14 4 13 7 14 15 11 14 1 6 3 10 9 13 15 10 12 8 1 4 4 13 15 9 3 11 1 11 9 6 11 10 9 11 8 12 6 13 6 1 2 8 3 15 13 11 1 7 6 11 5 9 4 15 12 15 9 5 15 6 12 7 6 15 10 13 9 14 4 14 4 7 15 4 6 8 2 4 4 6 6 11 15 11 6 10 7 7 6 7 4 1 2 15 2 5 5 15 3 3 7 4 9 6 12 12 2 12 4 5 12 13 3 8 8 3 13 4 11 12 12 7 15 4 4 3 12 8 2 3 11 10 13 14 14 2 8 11 11 12 6 10 3 8 3 8 14 2 6 12 3 13 4 3 9 10 13 13 14 14 5 14 2 4 11 14 5 7 6 4 2 2 15 9 12 11 8 5 9 7 10 1 13 10 2 6 5 3 9 1 8 10 10 9 5 8 15 7 3 15 15 2 11 8 10 11 1 12 3 10 5 2 15 1 13 11 14 7 3 8 6 13 4 9 11 3 12 6 15 11 12 13 5 13 1 1 5 6 5 5 14 4 4 2 14 3 9 15 11 5 14 6 5 1 12 11 11 8 12 15 5 8 5 6 5 10 1 8 1 15 1 12 3 3 13 10 14 4 15 5 3 7 6 9 14 4 11 10 2 5 6 1 2 5 9 9 4 8 3 10 11 12 13 15 1 6 14 10 12 12 10 7 9 8 10 6 14 13 7 5 13 4 1 14 12 2 4 14 2 12 9 14 4 8 7 12 15 15 7 5 