P2
33 33
250
6 6 2 2 15 13 6 10 2 5 9 10 4 1 7 7 15 13 7 9 10 4 3 1 8 8 11 10 8 14 5 14 9 1 4 11 6 12 12 10 11 1 3 7 11 5 2 13 9 1 7 7 3 4 1 2 2 5 11 2 14 10 13 12 8 12 10 8 9 13 5 7 4 3 6 11 12 11 14 2 8 11 13 14 13 7 3 14 1 7 1 1 5 7 11 11 4 1 13 14 11 4 6 12 10 14 15 14 2 12 13 3 4 8 5 3 6 2 14 4 2 6 12 3 10 12 10 6 1 12 7 5 9 6 13 12 7 13 14 9 13 15 4 8 3 13 9 12 9 1 9 5 3 6 15 13 1 10 9 12 14 9 8 2 4 7 5 6 6 5 5 11 3 15 9 1 4 2 1 10 13 12 12 2 13 14 13 6 2 11 14 13 15 3 15 1 12 2 15 10 11 15 5 9 14 5 7 11 9 5 7 9 11 6 9 13 6 14 7 15 12 5 9 7 7 15 11 2 1 13 13 6 13 12 8 11 2 7 14 2 5 11 12 6 10 2 15 9 15 7 13 6 13 7 8 12 7 9 15 9 7 15 13 5 12 2 13 14 9 3 14 9 8 12 10 14 12 13 11 13 15 5 12 9 10 11 7 7 2 2 7 5 10 6 15 5 7 14 7 7 8 12 5 7 2 10 8 7 7 5 2 9 13 15 14 3 6 15 14 6 9 6 7 8 9 3 2 2 6 5 10 10 15 1 1 0 14 6 8 6 7 14 9 14 8 5 14 13 13 4 10 4 4 14 5 8 5 5 11 11 9 15 7 5 1 7 4 3 0 0 4 7 11 1 14 5 14 5 8 10 1 10 4 5 6 4 6 3 9 5 12 5 10 15 15 10 2 15 15 1 7 0 0 0 13 14 1 4 10 13 7 2 11 11 12 13 11 2 14 1 11 1 10 14 7 7 7 9 15 2 1 11 3 1 0 0 0 0 15 11 13 15 13 7 12 9 6 5 8 9 5 1 8 5 14 8 5 9 15 9 1 1 4 4 13 13 5 0 0 0 0 0 0 1 15 7 3 3 4 5 14 10 9 1 8 12 12 5 1 13 15 2 5 6 13 15 13 13 9 2 0 0 0 0 0 0 0 15 15 4 3 4 15 7 13 1 4 3 1 10 11 14 9 15 6 13 5 6 11 2 10 15 4 0 0 0 0 0 0 0 0 0 0 2 15 7 12 10 5 11 12 5 5 7 13 14 4 11 15 11 1 7 4 5 4 2 15 4 0 0 0 0 0 0 0 0 0 0 0 15 14 4 6 2 15 7 9 8 10 13 5 6 0 0 9 15 10 2 8 6 6 1 0 0 0 0 0 0 0 0 0 0 0 0 0 0 0 0 0 0 0 0 0 0 0 0 0 14 5 10 14 11 10 14 6 7 5 0 0 0 0 0 0 0 0 0 0 0 0 0 0 0 0 0 0 0 0 0 0 0 6 15 5 9 6 6 8 12 7 5 6 0 0 0 0 0 0 0 0 0 0 0 0 0 0 0 0 0 0 0 0 0 0 6 1 9 7 11 13 8 15 4 10 6 3 11 14 0 0 0 0 0 0 0 0 0 0 0 0 0 0 0 0 0 0 0 10 10 9 5 15 1 13 13 13 15 8 7 13 15 9 13 0 0 0 0 0 0 0 0 0 0 0 0 0 0 0 0 0 6 15 5 15 11 6 2 4 10 10 15 11 8 5 13 7 1 15 13 15 9 5 0 0 0 0 0 10 7 7 9 4 12 4 11 15 7 15 3 11 15 15 15 11 10 2 1 10 7 5 4 7 5 3 11 13 15 10 12 5 12 1 1 12 7 6 1 13 4 2 12 8 11 14 14 6 14 12 9 15 1 9 14 4 10 2 9 13 7 3 12 8 14 12 11 9 7 2 8 9 5 11 15 9 7 13 15 7 7 4 3 13 15 1 5 14 9 7 1 9 6 5 1 7 1 4 4 2 10 10 7 9 12 7 4 1 10 7 13 15 7 2 1 9 9 7 15 10 4 13 10 6 14 11 13 12 4 11 2 13 12 9 8 1 3 7 3 14 10 1 5 12 14 13 14 9 13 5 5 5 11 1 11 15 7 11 14 11 15 7 12 4 10 8 1 10 1 5 4 6 5 10 3 13 5 1 7 7 6 5 7 2 6 15 8 2 13 12 12 4 4 4 7 8 7 4 15 2 5 4 7 8 11 2 5 9 11 6 15 7 4 5 5 3 15 2 10 4 10 12 12 9 7 13 1 8 8 6 9 1 14 15 7 4 11 3 15 9 9 10 3 7 1 11 13 2 14 8 8 2 2 13 1 3 15 6 11 14 1 9 9 3 1 5 8 4 8 14 10 8 2 13 2 8 4 14 7 1 8 4 15 1 4 1 7 1 4 7 4 4 12 7 2 4 14 9 9 5 7 7 