P2
33 33
250
11 4 12 5 10 9 10 1 13 12 8 9 1 11 9 15 1 6 1 6 15 10 8 11 5 6 14 11 15 12 4 12 10 13 4 3 13 12 12 11 8 14 10 5 9 11 15 1 5 9 14 6 9 12 12 13 14 7 11 15 7 7 4 4 4 2 12 15 8 11 4 5 8 4 13 4 10 13 7 4 13 4 5 6 3 15 10 5 14 1 5 8 2 12 15 1 13 3 3 15 9 4 12 9 15 13 12 13 7 7 10 3 12 3 1 10 11 9 1 14 7 5 4 4 12 9 14 12 5 6 2 3 10 6 11 7 8 7 1 7 15 6 13 14 1 3 2 9 2 15 13 1 14 15 15 12 6 5 11 15 1 9 7 13 2 6 9 4 11 1 12 13 11 7 4 9 11 12 6 3 9 15 13 13 1 7 9 10 4 7 7 14 3 10 6 5 3 2 15 4 5 5 14 7 15 10 6 6 15 5 13 12 14 1 9 1 8 10 0 0 0 0 0 11 13 3 14 12 6 7 13 15 3 4 8 4 7 11 2 4 9 15 15 4 14 11 8 0 0 0 0 0 0 0 0 0 0 0 0 0 0 8 9 10 15 6 4 11 5 4 11 3 7 14 13 1 8 0 0 0 0 0 0 0 0 0 0 0 0 0 0 0 0 0 0 0 9 14 7 4 2 4 13 12 8 7 12 6 0 0 0 0 0 0 0 0 0 0 0 0 0 0 0 0 0 0 0 0 0 0 6 3 13 13 13 12 8 12 8 15 0 0 0 0 0 0 0 0 0 12 8 7 14 12 6 5 11 9 3 12 2 2 0 6 5 7 9 6 8 4 3 0 0 0 0 0 0 0 0 11 4 4 4 11 7 10 10 13 7 15 15 7 14 4 1 14 13 5 10 9 9 4 15 0 0 0 0 0 0 12 11 1 7 3 5 13 10 6 11 4 10 1 3 14 12 4 9 6 4 13 10 7 7 14 15 0 0 0 0 0 11 5 3 12 14 8 1 13 8 3 4 15 2 10 9 15 11 4 15 2 5 8 9 8 8 13 15 0 0 0 0 5 1 14 2 5 15 5 6 9 2 12 15 13 3 3 7 12 15 2 14 9 13 15 6 5 14 14 13 0 0 0 15 6 4 14 5 6 3 13 4 10 5 5 15 1 11 9 7 4 10 10 5 7 6 10 7 1 10 1 3 0 0 0 3 4 7 15 9 2 12 4 5 13 14 9 4 12 12 1 8 7 2 13 10 4 11 9 1 4 13 3 15 0 0 0 14 3 8 13 2 3 11 15 9 12 4 7 10 2 14 7 5 6 6 14 5 11 3 10 9 1 1 8 7 0 0 0 6 15 12 10 12 5 14 14 13 14 5 10 5 10 9 15 15 6 3 8 13 15 11 2 13 1 5 10 12 3 0 0 4 7 4 12 10 12 9 4 7 4 12 1 3 12 7 1 10 3 3 15 13 9 11 1 4 4 3 4 4 14 0 0 1 14 12 6 2 8 8 6 12 6 1 3 4 10 1 14 9 4 9 7 1 2 13 8 15 15 11 7 13 9 11 8 7 3 15 3 4 12 6 2 9 7 7 14 13 6 4 14 2 3 6 4 2 7 6 12 9 6 13 1 15 14 5 10 1 14 9 6 9 5 2 10 1 14 9 10 7 2 1 14 4 8 1 1 10 4 11 15 15 7 14 9 7 1 6 11 3 15 13 7 6 15 14 2 8 6 15 6 4 12 9 12 11 2 12 8 14 7 6 10 12 6 5 11 10 6 1 8 11 6 11 9 4 7 7 11 6 5 8 9 11 12 6 7 15 12 9 2 10 12 14 6 3 14 2 10 11 10 3 2 6 15 13 4 6 6 11 3 14 9 5 3 6 4 10 12 2 8 7 14 10 13 1 4 12 13 15 13 11 4 7 6 15 11 11 13 6 3 13 6 2 3 9 3 2 7 14 2 5 14 6 12 14 11 10 14 11 11 2 1 4 7 1 2 10 15 9 5 1 15 6 12 2 10 15 11 8 2 3 5 1 12 11 5 11 7 7 2 7 5 8 12 15 5 5 2 2 13 3 11 12 12 14 14 3 1 9 8 14 13 14 12 1 12 11 3 5 14 12 2 4 9 9 1 3 14 2 14 10 15 4 7 2 11 1 7 14 12 9 9 1 13 7 15 14 6 11 7 2 15 4 11 9 11 5 4 15 1 5 11 10 6 14 12 13 15 13 10 6 11 8 3 9 7 12 9 10 9 8 13 11 14 4 6 11 6 1 14 4 10 12 14 6 14 6 12 4 5 14 4 11 4 11 3 5 8 6 12 5 14 14 5 11 5 9 12 5 6 2 7 2 7 15 10 3 6 2 11 3 2 1 7 13 9 7 5 1 15 11 7 7 4 9 3 10 1 4 5 1 1 2 4 10 12 3 15 7 6 14 8 9 5 15 14 9 5 6 