P2
33 33
250
2 3 7 4 11 10 1 10 13 15 12 14 11 13 7 14 9 15 2 13 6 14 12 13 10 7 11 15 10 4 13 9 10 6 5 2 12 5 6 13 14 2 15 14 9 2 5 5 6 13 5 8 11 2 2 14 7 7 9 5 13 10 4 3 3 12 11 13 15 4 9 1 2 14 7 4 7 9 11 1 15 12 3 13 7 3 8 14 15 2 5 6 15 1 5 10 12 13 3 7 3 15 5 12 8 12 11 9 2 8 8 11 15 2 3 5 13 8 10 1 2 10 4 2 9 7 4 4 4 2 14 9 2 5 6 15 3 14 15 12 4 8 4 2 13 3 12 15 7 5 12 1 13 4 12 9 14 15 10 6 13 1 9 9 9 3 9 2 10 5 9 13 5 15 10 5 13 9 8 3 7 2 3 12 11 6 6 12 8 5 1 7 2 10 9 6 4 6 3 14 10 7 13 6 2 13 5 7 7 7 4 6 3 10 6 2 1 12 9 1 6 2 14 9 7 14 7 8 10 11 6 12 4 5 5 9 13 14 15 12 2 15 2 6 12 8 8 11 12 15 11 2 15 8 1 11 6 13 11 15 3 11 9 15 12 5 5 1 6 15 12 13 10 2 4 14 14 11 9 1 2 3 12 7 2 11 3 6 8 15 5 1 11 4 1 11 4 12 15 13 15 5 12 8 3 11 4 7 12 9 2 11 8 15 1 3 1 13 3 9 10 12 8 2 10 4 14 1 3 12 15 9 13 6 15 10 9 7 1 3 5 5 3 14 5 5 1 12 15 12 3 13 10 5 2 7 9 6 4 13 7 14 12 11 10 3 10 9 7 10 4 1 11 2 15 2 14 8 4 3 6 8 4 10 15 9 5 15 8 7 8 10 2 12 2 5 10 4 10 5 6 2 3 7 8 6 9 9 3 6 8 9 2 13 11 15 1 3 11 7 8 10 10 8 6 1 14 15 8 8 4 9 8 8 1 7 9 13 6 4 4 2 13 12 1 3 3 1 12 4 13 5 5 14 8 6 7 5 7 6 2 6 3 13 4 6 1 2 5 11 7 14 2 11 3 3 14 5 8 10 12 14 1 14 15 8 9 3 15 2 1 1 5 5 6 3 14 2 9 7 15 6 13 14 12 6 15 7 1 7 2 14 15 4 14 14 8 7 3 5 8 7 14 2 15 3 14 7 10 7 7 14 6 12 11 9 14 2 8 15 2 8 12 7 6 13 6 13 6 4 11 12 1 11 8 8 11 6 5 1 6 6 13 9 10 5 3 6 10 15 2 12 4 13 1 8 13 2 15 10 6 13 2 5 14 5 11 13 8 5 12 9 1 14 15 1 15 8 9 11 5 3 15 6 9 14 15 6 7 10 7 6 1 9 3 2 6 14 7 4 12 7 14 12 14 12 6 4 11 15 11 5 10 7 10 13 11 7 6 9 7 5 2 1 13 10 1 6 10 4 3 1 14 2 6 6 1 7 13 8 6 10 6 2 6 4 12 3 10 7 7 1 2 6 2 13 6 4 3 10 5 6 12 4 3 14 1 6 6 2 7 9 1 8 15 8 14 3 13 6 7 4 9 1 2 15 11 9 10 12 1 15 11 3 12 10 13 13 7 14 3 11 9 10 13 9 2 2 6 13 11 5 10 7 11 6 13 5 6 15 11 13 15 0 0 0 0 0 0 0 0 0 0 0 0 9 3 10 6 6 7 4 3 5 7 3 7 5 7 4 8 1 2 0 0 0 0 0 0 0 0 0 0 0 0 0 0 0 0 0 3 9 5 5 14 4 14 1 5 14 12 14 3 6 0 0 0 0 0 0 0 0 0 0 0 0 0 0 0 0 0 0 0 0 0 9 2 7 3 6 4 15 15 13 1 0 0 0 0 0 0 0 0 0 0 0 0 0 0 0 0 0 0 0 0 0 0 0 15 1 14 11 3 10 15 13 5 0 0 0 0 0 0 0 0 5 15 4 5 5 10 14 2 4 14 3 0 0 0 0 0 6 6 15 14 8 3 15 4 0 0 0 0 0 0 15 11 2 8 11 4 14 13 2 6 13 10 14 11 11 14 5 0 0 6 8 7 13 4 14 6 0 0 0 0 0 4 12 6 6 4 9 6 3 10 6 5 9 4 6 15 4 7 15 5 10 9 15 3 6 8 4 4 0 0 0 0 0 8 4 14 9 4 1 9 12 1 4 13 2 14 1 4 6 1 2 11 4 14 12 2 1 5 13 6 0 0 0 0 5 4 6 9 10 10 9 13 4 14 3 6 10 2 14 1 12 3 13 13 13 9 12 13 1 1 3 3 12 0 0 0 3 15 4 12 6 2 11 3 4 9 7 5 7 8 14 4 2 14 14 2 12 4 11 10 12 3 15 11 2 14 7 0 1 13 14 9 4 13 13 13 13 8 15 3 12 3 3 7 2 3 7 4 11 15 5 5 15 14 