P2
33 33
250
1 11 1 11 14 5 1 7 1 7 4 11 9 8 7 10 14 3 3 10 3 8 14 4 2 13 11 1 15 9 15 11 9 1 13 14 5 10 15 13 9 8 11 3 6 6 9 4 9 12 15 1 2 14 3 1 7 4 9 7 9 7 15 14 6 3 13 4 5 15 13 8 7 15 4 7 4 10 14 12 13 7 14 5 11 14 6 14 4 4 4 2 6 6 15 12 3 1 1 3 7 8 6 5 5 4 9 11 3 8 7 12 1 7 8 2 7 9 10 12 5 3 8 3 14 2 5 5 2 3 1 10 2 8 4 7 5 11 8 13 12 1 5 2 12 15 8 8 10 12 6 6 5 11 3 7 10 5 12 12 14 6 6 10 8 11 14 11 3 12 12 6 10 7 3 6 5 5 4 10 2 8 2 13 9 9 4 8 4 7 11 2 10 3 11 2 10 7 2 7 2 12 12 10 2 6 12 6 1 7 9 14 1 12 13 3 13 1 9 8 5 10 7 13 14 3 11 8 5 13 9 6 2 7 13 5 1 8 2 12 6 4 9 2 10 0 0 0 0 0 3 8 2 1 12 2 11 14 14 1 5 11 7 14 7 13 6 9 11 8 7 11 7 11 0 0 0 0 0 0 0 0 0 0 0 0 0 0 5 1 3 15 7 14 5 15 11 11 3 9 7 15 11 11 2 0 0 0 0 0 0 0 0 0 0 0 0 0 0 0 0 0 0 6 7 9 15 12 5 7 3 4 2 9 9 12 0 0 0 0 0 0 0 0 0 0 0 0 0 0 0 0 0 0 0 0 0 0 1 3 1 9 10 2 13 2 3 14 0 0 0 0 0 0 0 0 0 0 0 0 0 0 0 0 0 0 0 0 0 0 0 0 6 13 8 4 3 9 11 6 0 0 0 0 0 2 10 5 15 10 3 6 15 7 3 14 10 6 7 7 4 0 0 0 0 0 0 12 8 12 7 0 0 0 0 12 8 15 8 1 6 10 14 11 11 15 7 4 4 9 11 11 12 8 8 7 4 0 0 0 0 11 4 0 0 0 2 10 6 6 6 8 4 5 13 15 14 14 14 3 12 1 11 15 7 4 15 4 11 9 12 1 0 0 0 3 0 0 1 15 4 15 11 10 11 5 7 14 8 12 13 7 14 3 5 6 10 10 7 9 2 4 14 7 2 5 9 0 0 4 3 13 8 3 8 5 9 2 7 5 12 14 9 4 15 7 4 8 7 9 15 10 12 9 5 12 6 3 10 7 3 10 8 8 1 8 4 13 13 10 9 6 12 6 4 5 8 15 12 3 15 1 15 1 11 9 8 2 11 5 4 11 7 1 15 1 6 11 5 4 5 1 9 10 6 7 14 15 11 15 7 15 4 2 14 13 3 4 15 11 3 3 8 3 11 12 3 3 13 2 6 13 10 2 14 9 11 2 5 7 5 6 2 11 2 11 4 1 1 14 11 3 3 1 4 10 11 7 11 12 3 14 1 11 9 5 3 9 2 7 5 12 3 9 14 9 4 14 3 15 3 12 7 15 14 1 3 13 13 1 1 6 10 3 9 5 1 8 4 2 1 1 3 6 11 14 1 6 14 7 3 6 3 1 7 12 5 14 12 1 12 4 7 4 15 4 2 2 5 13 14 7 9 7 14 9 6 7 11 13 11 8 4 3 14 5 15 14 2 4 8 5 9 8 2 4 7 11 14 6 9 10 6 5 10 5 11 14 11 4 11 11 12 12 7 13 12 8 11 2 1 15 14 2 2 4 3 3 6 2 9 1 15 9 12 15 4 1 10 13 1 15 14 12 1 11 14 7 3 5 13 11 6 10 12 3 9 11 1 12 3 5 8 4 8 7 12 6 3 1 15 9 10 2 2 8 5 6 5 13 10 11 8 5 3 13 8 12 4 8 1 2 6 4 12 3 9 9 7 10 2 11 14 3 15 11 6 11 3 9 9 14 9 14 7 2 11 7 14 11 2 5 1 15 6 9 3 14 13 2 12 10 11 12 4 13 15 10 12 14 11 7 11 12 14 12 1 7 6 4 5 14 14 7 15 7 14 8 1 9 12 8 5 5 3 6 5 15 6 10 10 4 3 8 9 2 3 9 5 3 15 12 6 12 15 12 11 2 13 13 5 3 5 9 10 15 10 12 1 4 1 2 14 9 2 4 15 10 1 3 13 2 2 6 3 8 10 11 3 2 13 9 2 10 13 1 14 7 13 7 10 8 9 15 11 8 11 9 14 4 12 2 2 1 9 1 13 8 8 3 2 3 12 9 14 5 13 1 11 11 1 4 5 9 1 3 3 8 7 9 10 12 2 4 12 3 9 11 10 2 7 15 12 2 5 10 8 5 9 1 15 13 8 6 7 3 9 2 2 9 12 5 2 11 14 13 10 8 13 5 12 2 9 2 11 9 11 12 1 6 15 12 9 7 15 6 6 12 13 