P2
33 33
250
2 1 4 13 10 7 11 10 3 6 8 7 10 14 4 8 8 9 4 12 11 12 9 4 14 2 12 6 8 6 7 8 12 8 14 9 13 13 12 13 4 14 6 6 10 12 9 1 5 6 15 12 1 5 8 8 8 7 14 12 14 15 6 11 10 5 9 5 11 2 13 8 15 7 9 6 9 6 1 10 12 8 14 4 10 4 11 15 13 4 2 7 6 7 15 11 8 10 14 1 7 10 5 15 13 10 9 8 10 5 9 9 13 10 1 8 1 15 3 8 11 1 13 14 4 14 2 13 6 1 1 13 5 5 4 9 8 8 2 6 9 3 12 8 14 15 6 5 2 6 4 3 7 6 3 9 8 15 13 4 3 11 13 1 1 3 7 0 0 0 0 0 12 3 2 11 11 6 3 4 11 13 4 11 15 4 12 7 3 15 14 11 13 4 13 5 4 0 8 9 6 0 0 0 0 0 6 9 6 9 15 11 3 12 2 3 9 15 7 13 9 9 7 4 2 6 8 6 11 12 0 14 13 6 0 0 0 0 0 8 2 10 6 7 10 9 8 9 9 5 6 3 5 6 11 1 12 2 3 14 11 10 0 0 13 1 5 0 0 0 0 0 0 0 7 5 2 10 12 11 5 3 8 5 12 13 3 8 14 4 11 1 2 0 0 0 0 5 13 3 2 0 0 0 0 0 0 0 0 13 12 13 9 7 2 2 4 5 5 11 9 3 3 4 0 0 0 0 0 0 7 11 6 2 0 0 0 0 0 0 0 0 0 0 0 0 0 0 0 0 0 0 0 0 0 0 0 0 0 0 0 0 0 9 11 10 14 4 0 0 0 0 0 0 0 0 0 0 0 0 0 0 0 0 0 0 0 0 0 0 0 0 0 0 0 0 9 1 4 12 8 10 0 0 0 0 0 0 0 0 0 0 0 0 0 0 0 0 0 0 0 0 0 0 0 0 0 0 0 5 5 14 10 13 4 0 0 0 0 0 0 0 0 0 0 0 0 0 0 0 0 0 0 0 0 0 0 0 0 0 0 0 2 8 5 1 1 7 2 0 0 0 0 0 0 0 0 0 0 0 0 0 0 0 0 0 0 0 0 0 0 0 0 0 8 14 7 11 12 13 4 1 10 0 0 0 0 0 0 0 0 0 0 0 0 0 0 0 0 0 0 0 0 0 0 0 4 10 2 12 2 5 2 12 12 5 9 0 0 0 0 0 0 0 0 0 0 0 0 0 0 0 0 0 0 0 0 0 7 9 13 8 14 14 5 3 8 6 14 7 11 6 0 0 0 0 0 0 0 0 0 0 0 0 0 0 0 0 0 2 3 12 14 8 14 7 10 4 13 11 12 2 15 2 13 10 9 0 0 0 0 0 0 0 0 0 0 0 0 0 15 13 3 11 9 9 10 8 5 6 1 7 5 6 6 3 12 3 8 8 10 9 7 13 0 0 0 0 0 7 4 15 3 15 14 6 9 11 9 15 1 5 11 4 5 2 9 10 1 2 9 7 13 10 6 7 6 3 10 1 15 12 12 12 9 8 10 14 8 8 4 2 10 14 9 8 14 6 6 1 5 9 12 5 14 10 11 4 15 2 9 9 11 1 11 13 4 10 4 2 3 6 6 13 5 7 12 10 3 13 12 3 13 3 2 15 3 13 13 1 14 7 15 1 7 5 11 7 4 14 6 2 5 10 5 15 12 10 11 8 13 1 6 11 6 4 15 12 9 3 9 4 8 1 15 14 12 4 11 1 11 15 4 14 12 12 15 13 12 12 10 7 14 14 2 13 10 7 15 1 14 2 4 4 8 12 8 14 8 3 10 14 1 12 7 11 13 7 10 5 10 9 14 6 12 4 10 11 12 12 10 13 11 12 13 2 5 12 11 14 8 4 6 2 11 14 6 7 6 9 8 12 9 5 4 9 2 9 11 11 1 12 10 8 11 15 2 8 3 7 3 9 12 6 15 10 12 8 14 8 15 4 4 13 13 12 2 12 10 4 5 15 11 10 10 15 5 15 6 14 1 8 9 6 2 15 10 1 10 9 5 10 15 13 11 8 9 8 12 15 10 12 4 3 14 8 5 6 15 12 2 13 8 12 3 5 14 6 7 12 5 2 5 13 11 14 2 4 4 9 13 5 15 8 3 10 2 6 13 5 14 10 7 3 7 6 12 13 8 9 6 3 7 4 2 1 7 2 9 11 15 1 15 9 5 13 5 4 9 14 14 3 13 14 8 14 2 13 6 15 2 12 10 7 11 7 15 2 7 14 11 12 11 12 15 5 14 12 12 1 6 10 14 11 10 15 5 9 13 9 13 5 1 11 8 4 6 4 1 15 3 10 6 3 11 13 11 12 7 11 10 10 7 11 10 14 12 9 1 12 11 1 5 15 5 14 7 8 2 13 12 3 14 9 8 11 2 9 1 2 6 10 3 14 15 11 5 15 15 