P2
33 33
250
15 4 4 10 9 2 7 3 6 6 5 15 5 3 11 9 3 6 7 11 2 9 8 5 4 6 8 8 8 9 14 3 9 8 2 10 14 3 7 8 14 9 5 8 6 10 15 1 8 4 4 14 12 3 15 3 6 2 13 10 2 3 10 14 5 10 14 13 11 8 1 11 3 9 9 2 10 14 13 10 3 3 4 13 1 5 9 6 8 13 8 9 15 11 4 13 10 8 14 13 9 15 9 4 14 12 7 15 7 8 10 3 15 11 15 10 4 3 10 9 10 1 10 5 15 11 10 8 12 2 8 1 3 3 11 6 10 7 5 2 1 14 11 2 14 9 5 1 14 7 4 2 12 13 8 15 7 2 1 1 9 12 4 4 5 13 5 9 5 6 12 15 2 5 13 13 1 9 14 2 4 6 6 14 15 7 9 10 1 9 11 8 6 2 9 4 11 5 8 2 11 11 4 7 6 8 4 7 13 2 14 7 4 12 6 12 12 7 5 3 1 9 12 2 2 15 8 13 2 6 9 11 11 7 10 14 15 9 1 9 2 3 9 12 5 5 7 11 3 2 11 15 5 1 14 6 8 7 1 8 8 15 13 7 15 7 11 2 5 10 0 6 15 14 13 15 8 8 10 7 11 11 9 14 7 2 4 8 5 8 8 9 3 7 9 4 14 8 15 2 10 10 0 0 0 0 0 0 1 11 3 14 13 13 7 13 10 2 11 13 2 11 7 2 6 14 10 1 0 0 8 6 5 13 5 5 0 0 0 0 0 0 0 0 3 2 11 8 1 7 13 5 14 3 12 2 11 0 0 0 0 0 0 1 14 7 14 13 6 7 0 0 0 0 0 0 0 0 0 0 0 0 0 0 0 0 0 0 0 0 0 0 0 0 0 0 5 5 12 7 2 4 2 9 12 0 0 0 0 0 0 0 0 0 0 0 0 0 0 0 0 0 0 0 0 0 0 0 11 4 4 10 15 2 2 6 13 11 14 4 12 0 0 0 0 0 0 0 0 0 0 0 0 0 0 0 0 0 12 12 10 10 4 15 4 11 4 10 3 14 7 5 11 8 1 7 12 9 1 0 0 0 0 0 0 12 15 4 8 12 5 2 12 15 4 10 3 7 12 6 6 13 5 5 9 2 13 11 9 14 14 1 12 7 9 7 10 9 9 1 6 5 4 11 15 14 9 12 6 4 7 3 6 8 12 9 8 9 3 13 13 7 1 13 14 10 3 15 7 12 11 11 13 12 10 6 5 15 8 6 1 11 5 5 15 13 15 4 12 10 15 3 1 10 12 15 14 4 8 4 14 7 9 12 13 10 9 15 3 12 1 11 1 14 4 15 14 13 5 9 13 9 4 6 11 12 9 6 15 10 1 7 8 7 1 11 9 15 7 13 14 5 3 4 5 8 9 9 7 10 1 13 7 14 5 10 2 6 7 11 3 9 14 15 9 6 12 11 2 12 4 1 3 15 2 13 5 1 8 5 10 14 4 15 11 13 2 7 5 3 4 7 13 2 13 6 6 12 12 3 10 2 12 10 10 2 1 3 9 2 1 13 4 15 9 2 11 12 4 14 5 5 10 15 5 5 10 2 7 11 10 3 3 11 9 10 2 10 4 6 8 14 2 15 11 8 8 13 2 2 3 2 6 3 5 4 8 1 10 14 1 9 6 12 14 6 11 10 15 3 4 8 8 13 13 11 1 7 10 13 10 4 15 12 4 8 5 7 11 11 14 13 6 6 8 2 10 3 8 11 6 14 15 7 12 8 15 4 14 12 13 13 10 1 14 9 5 9 8 1 1 3 14 9 4 12 12 13 1 9 11 15 5 12 14 15 1 6 10 8 5 6 11 10 3 13 9 1 2 12 13 11 3 5 7 15 7 9 8 5 15 2 7 13 9 4 6 1 8 2 2 4 8 14 1 7 13 14 15 2 6 10 13 1 1 1 6 3 9 14 1 15 14 7 6 15 6 6 8 10 2 7 13 10 13 5 6 15 2 5 3 4 4 3 3 11 10 8 12 14 6 11 7 13 12 2 10 9 2 14 3 3 6 14 13 6 11 9 11 7 8 15 5 11 4 2 14 5 6 7 1 3 2 13 11 3 5 10 12 7 15 13 8 4 10 13 12 14 10 3 15 9 2 10 13 4 8 1 1 12 4 2 4 10 8 10 8 10 11 5 3 12 11 13 8 14 6 5 4 4 15 14 15 9 2 14 15 5 12 13 8 2 8 3 11 2 15 15 14 10 12 6 4 13 9 14 4 1 12 11 15 6 6 9 10 13 15 1 9 9 3 9 15 5 6 2 4 4 11 2 7 15 15 8 10 4 6 14 3 15 1 8 7 4 15 10 4 3 7 8 2 5 6 3 4 2 15 13 2 4 5 1 5 10 13 9 11 3 7 9 3 8 13 11 15 8 4 4 10 8 1 13 15 5 1 7 12 12 15 