P2
33 33
250
6 6 5 9 2 1 2 10 14 15 5 14 10 15 8 12 1 3 3 5 9 13 6 13 11 14 7 6 14 4 4 8 1 14 15 6 6 15 8 13 11 7 5 1 6 5 8 8 15 6 2 8 14 1 9 8 2 5 14 11 6 9 15 7 7 11 3 15 15 12 3 1 7 7 14 4 14 15 8 14 15 14 7 11 2 5 5 9 8 4 8 12 7 12 15 1 11 11 7 3 9 8 6 4 10 7 6 2 9 4 13 5 13 9 10 8 2 9 8 9 14 9 2 6 8 15 5 8 7 2 5 8 2 9 15 7 13 1 14 4 14 11 2 9 12 4 14 12 12 15 3 4 15 11 13 14 2 8 14 13 8 8 9 11 4 6 12 9 2 3 5 1 4 1 3 14 9 13 2 13 10 8 13 11 14 12 13 3 13 5 3 3 2 14 14 2 8 1 14 4 13 7 1 9 7 13 3 4 14 12 12 9 11 11 14 1 13 12 8 5 9 14 12 1 2 6 1 6 3 9 13 1 13 1 10 15 14 4 1 12 11 7 8 10 3 7 6 9 3 12 6 12 6 5 10 9 7 11 14 4 13 4 10 4 15 14 3 15 2 9 2 15 9 14 15 9 6 5 7 11 14 3 9 15 8 15 5 15 1 4 5 3 5 8 3 11 15 13 4 7 11 7 3 8 10 12 14 1 8 1 2 9 15 3 14 0 0 0 0 0 9 6 8 2 15 7 13 7 10 2 14 10 1 10 9 6 8 4 2 6 15 3 14 1 0 0 0 0 0 0 0 0 0 0 0 0 0 5 8 11 11 8 5 10 2 13 5 2 15 4 10 1 10 11 0 0 0 0 0 0 0 0 0 0 0 0 0 0 0 0 0 0 0 4 6 15 13 7 9 10 3 4 8 3 6 1 0 0 0 0 0 0 0 0 0 0 0 0 0 0 0 0 0 0 0 0 0 14 8 15 14 1 15 7 7 1 1 0 0 0 0 0 0 0 0 0 0 0 0 0 0 0 0 0 0 0 0 0 0 0 0 0 3 11 12 3 9 5 9 0 0 0 0 0 0 0 0 0 0 0 0 0 0 0 0 0 0 0 0 0 0 0 0 0 0 13 15 8 8 11 4 0 0 0 0 0 0 0 14 14 5 12 10 12 15 6 4 2 3 11 8 1 2 0 0 0 0 0 8 5 11 9 13 0 0 0 0 0 13 2 15 3 10 1 7 2 11 4 2 1 11 13 15 3 13 11 14 14 8 0 0 6 11 13 2 0 0 0 0 12 2 7 7 3 2 4 13 3 1 7 1 10 8 1 11 4 4 7 5 5 15 2 9 4 13 2 4 0 0 0 0 6 3 11 10 5 15 5 5 11 11 10 7 9 14 9 8 12 15 6 14 1 9 14 13 1 10 9 1 9 0 0 0 15 4 14 14 9 5 8 9 5 1 15 11 14 5 12 13 9 12 13 3 4 7 15 14 11 8 15 13 12 12 5 9 6 2 5 1 4 5 6 1 8 12 6 10 4 6 15 1 7 13 10 6 10 15 10 2 1 5 11 13 7 15 11 11 10 10 3 7 5 10 12 13 8 13 8 8 7 10 12 2 11 13 6 4 12 7 13 13 2 8 2 6 7 8 11 10 12 15 7 1 7 14 1 13 11 6 4 9 1 8 8 10 1 11 12 4 6 10 8 3 3 3 12 1 12 4 3 10 3 1 12 12 15 11 2 15 7 4 9 9 5 6 8 2 11 10 2 15 10 12 2 14 13 5 8 8 13 7 13 13 13 3 10 2 13 8 7 13 11 9 15 2 6 2 12 9 5 12 11 12 7 3 10 3 3 6 8 7 7 13 9 2 2 6 13 3 5 3 1 11 5 11 12 9 2 15 15 10 1 3 5 3 1 13 14 7 13 3 12 7 9 12 3 9 12 4 12 2 13 12 1 4 11 2 6 2 12 15 12 4 11 4 9 7 10 8 1 6 7 8 2 2 6 15 5 8 13 15 5 5 15 3 13 1 1 4 12 5 6 14 15 8 2 14 15 13 2 6 9 7 3 13 1 13 8 5 7 6 2 11 4 8 3 11 14 11 1 10 10 15 14 8 2 10 8 8 11 2 4 5 9 1 5 12 15 14 15 14 3 15 13 10 9 14 13 11 4 8 3 3 8 15 10 3 2 6 2 8 11 15 5 14 7 8 7 12 11 11 12 5 4 13 6 15 15 11 10 11 6 2 12 14 12 13 6 9 3 3 8 4 15 12 10 9 2 11 14 5 6 5 2 8 12 9 13 12 12 8 3 12 4 11 13 14 11 4 11 7 2 3 11 3 4 12 9 10 3 10 12 6 15 4 14 6 4 3 7 7 2 7 3 14 6 2 5 11 14 14 3 15 6 11 10 5 13 2 2 3 7 1 11 12 2 11 12 9 12 15 4 7 6 11 15 11 10 1 