P2
33 33
250
14 6 11 5 14 1 9 3 5 6 10 3 15 11 13 6 2 13 9 13 11 7 3 7 13 1 8 14 9 15 14 8 10 7 12 2 14 9 9 4 2 15 5 3 5 15 13 13 7 13 1 13 4 14 5 12 14 14 14 12 13 8 7 5 6 1 0 0 0 0 0 0 0 0 0 0 0 0 0 0 0 0 0 0 0 0 0 0 0 0 8 9 13 5 6 3 9 3 8 0 0 0 0 0 0 0 0 0 0 0 0 0 0 0 0 0 0 0 0 0 0 0 0 0 0 15 2 8 15 8 13 7 0 0 0 0 0 0 0 0 0 0 0 0 0 0 0 0 0 0 0 0 0 0 0 0 0 0 0 13 4 9 14 13 7 0 0 0 0 0 0 0 0 0 0 0 0 0 0 0 0 0 0 0 0 0 0 0 0 0 0 0 3 5 7 13 9 4 0 0 0 0 0 0 0 0 0 0 0 0 0 0 0 0 0 0 0 0 0 0 0 0 0 0 0 9 3 3 6 6 9 0 0 0 0 0 0 0 0 0 0 0 0 0 0 0 0 0 0 0 0 0 0 0 0 0 0 0 0 10 3 5 3 9 0 0 0 0 0 0 0 0 0 0 0 0 0 0 0 0 0 0 0 0 0 0 0 0 0 0 0 0 15 12 14 3 12 1 1 1 1 8 11 12 2 12 4 14 4 8 14 4 12 10 6 4 11 12 10 2 3 0 0 0 0 6 6 6 7 8 1 10 2 14 7 5 11 11 6 5 7 15 11 10 11 6 6 6 8 15 14 13 8 5 0 0 0 0 5 11 2 1 5 4 8 4 4 5 6 5 6 14 13 14 6 9 13 3 10 9 12 12 9 11 4 13 15 0 0 0 0 4 6 2 7 11 13 14 5 9 13 1 7 8 11 6 10 8 9 1 9 12 2 12 3 11 13 15 8 7 8 6 6 10 2 9 11 11 3 13 8 1 7 1 7 14 9 11 6 5 11 13 2 4 1 11 7 2 2 9 11 10 1 10 4 6 14 8 4 5 1 12 10 2 12 7 5 1 14 5 1 6 12 14 1 1 8 4 5 13 14 12 11 10 12 3 2 13 14 7 4 15 5 6 14 10 12 4 15 8 14 14 15 4 13 8 5 9 9 15 5 3 7 11 5 11 8 6 2 10 15 11 14 8 6 8 5 5 13 4 7 12 11 1 10 3 7 6 14 10 10 13 3 8 13 11 14 15 1 12 1 1 3 1 11 3 12 15 11 8 8 11 13 8 14 8 5 15 3 4 1 6 10 9 11 14 11 4 10 13 15 7 15 14 6 12 12 7 7 1 4 12 10 15 12 14 2 12 5 9 15 10 10 14 9 3 11 1 10 8 10 6 1 7 14 5 2 12 2 4 4 5 9 2 1 7 6 6 15 11 10 7 8 13 7 13 11 8 9 11 14 15 5 2 12 1 14 3 6 8 7 11 12 5 11 10 15 4 15 10 9 14 10 9 9 9 2 15 12 13 4 5 11 5 9 3 9 14 15 7 12 12 6 8 2 10 5 13 12 6 13 1 11 14 4 5 9 4 3 6 2 11 4 2 1 3 6 7 11 5 9 13 6 9 13 7 9 6 2 2 10 7 10 11 12 6 1 1 2 1 1 7 3 3 15 3 6 2 15 14 9 4 14 12 15 11 12 6 1 4 4 13 6 14 11 8 9 6 8 6 2 11 6 1 2 6 15 7 7 7 4 5 2 12 10 7 10 14 10 15 9 5 5 5 4 4 12 10 11 7 1 13 11 14 12 3 13 3 5 4 8 1 6 8 5 3 4 13 4 11 1 14 1 5 12 6 2 3 10 8 6 4 4 2 1 13 11 11 6 13 11 6 7 5 8 15 2 5 7 8 9 2 5 4 2 2 2 11 7 2 10 13 7 4 5 2 5 7 14 5 13 12 15 1 7 10 11 6 5 8 2 12 15 9 3 11 6 10 15 15 12 15 5 11 1 11 2 10 13 7 4 9 1 12 2 6 3 3 15 14 13 1 14 10 10 15 10 14 10 12 8 7 4 9 8 4 15 14 5 8 8 8 10 7 5 1 7 6 1 2 11 12 9 4 7 10 3 15 11 11 2 9 8 6 12 15 11 7 15 8 15 11 12 12 15 10 12 13 15 6 3 9 9 6 12 5 4 8 9 6 4 7 3 9 5 10 6 2 7 15 4 15 5 8 4 15 2 8 6 13 15 4 7 4 15 4 9 9 5 11 2 1 1 10 11 5 11 13 13 10 9 7 13 11 1 13 2 10 10 9 9 7 4 13 10 9 11 9 11 14 4 15 9 7 8 7 12 12 12 12 15 10 10 10 7 13 6 7 3 13 14 15 11 14 7 15 11 10 2 12 3 13 9 6 4 12 12 10 1 9 7 14 12 4 2 8 2 11 9 6 11 4 4 3 12 12 15 13 13 