P2
33 33
250
8 5 4 7 11 5 12 1 12 13 15 8 11 12 2 13 11 14 1 14 13 13 4 8 14 10 15 2 2 3 5 4 6 8 10 10 5 2 2 3 3 6 14 9 2 6 14 9 3 3 2 13 2 11 13 14 4 15 15 7 6 11 2 11 2 10 5 1 6 14 3 9 12 4 12 4 2 11 15 11 5 3 3 6 1 14 10 13 7 8 9 7 10 1 7 5 11 9 10 14 15 14 15 7 1 2 9 10 10 12 3 3 15 4 7 15 2 4 4 15 2 9 4 15 3 1 1 7 6 6 14 8 6 10 13 4 8 7 3 9 3 6 1 13 15 10 5 12 9 1 12 1 9 11 12 11 12 4 11 1 1 7 7 12 15 13 6 5 2 15 5 7 8 13 4 7 11 11 13 1 7 14 11 9 7 10 15 4 7 3 11 11 5 10 2 6 1 5 5 15 10 8 9 10 4 14 8 7 7 10 5 12 3 8 15 9 6 11 10 10 10 8 15 15 3 5 5 9 9 6 11 13 11 12 4 5 6 15 6 2 9 4 15 3 11 8 10 3 14 8 4 10 13 1 1 11 15 3 1 4 5 7 10 7 8 15 4 4 2 10 12 4 1 8 5 10 12 6 1 4 2 6 10 12 1 11 13 1 10 11 15 14 3 4 2 5 15 3 4 13 9 12 14 6 7 11 14 2 14 8 1 3 15 11 11 10 11 6 14 7 11 8 14 11 6 2 7 4 1 7 7 6 13 3 1 8 12 11 10 14 10 9 13 4 12 3 4 11 5 3 12 7 14 1 1 9 2 13 9 6 15 5 10 13 10 11 7 7 11 3 8 10 3 12 9 3 8 6 8 12 11 2 6 12 11 15 2 5 9 7 7 5 9 14 15 13 2 10 1 1 4 6 4 4 2 11 13 3 7 4 6 1 4 9 3 1 9 9 2 14 6 3 14 8 3 12 10 4 13 11 14 13 3 9 5 2 11 9 6 11 11 15 6 5 6 0 0 0 0 0 6 4 11 11 3 4 7 8 8 8 12 12 5 12 11 8 8 12 9 9 7 3 5 6 0 0 0 0 0 0 0 0 0 0 0 0 0 0 11 11 4 9 3 11 13 9 14 14 5 13 6 2 9 5 0 0 0 0 0 0 0 0 0 0 0 0 0 0 0 0 0 0 0 12 11 7 1 4 10 12 2 15 3 13 3 0 0 0 0 0 0 0 0 0 0 0 0 0 0 0 0 0 0 0 0 0 0 0 3 8 1 1 14 14 10 11 15 0 0 0 0 0 0 0 0 0 0 0 0 0 0 0 0 0 0 0 0 0 0 0 0 0 11 9 12 5 5 15 6 0 0 0 0 0 0 0 0 14 7 1 9 10 9 4 15 10 3 12 3 9 14 0 0 0 0 0 7 12 14 12 0 0 0 0 0 0 0 0 7 14 14 12 11 5 3 14 7 1 9 4 8 4 15 15 12 10 2 0 0 14 1 8 0 0 0 0 0 0 0 12 8 3 8 13 12 2 8 2 2 3 11 12 5 9 14 6 6 1 13 4 15 7 4 15 10 0 0 0 0 0 8 11 6 11 14 4 5 9 6 4 10 2 15 14 7 4 10 7 3 2 13 11 8 7 10 7 5 0 0 0 0 12 4 14 2 12 1 6 6 14 12 11 9 11 12 4 6 11 10 15 14 5 6 3 10 2 8 12 1 0 0 0 0 2 13 15 14 5 15 2 8 3 13 7 12 13 2 4 5 14 2 8 5 3 13 7 11 1 7 12 13 9 0 0 0 14 5 5 9 4 15 8 12 13 5 13 8 15 6 15 3 12 14 6 7 8 6 14 3 4 1 11 5 2 4 0 5 5 3 4 5 14 10 14 15 11 3 2 5 8 12 13 4 14 8 15 7 12 8 4 5 2 15 3 6 4 3 3 1 9 10 2 14 3 10 3 1 8 3 15 8 11 11 7 14 12 2 8 7 2 3 5 1 1 7 10 9 15 13 9 8 11 13 1 13 9 2 1 2 9 15 4 6 4 4 8 3 9 5 12 1 13 15 14 4 1 3 14 2 9 3 2 1 12 11 12 8 12 11 7 13 13 13 11 10 6 11 7 7 6 4 2 11 13 7 8 15 6 3 15 7 2 9 9 13 5 5 8 2 13 13 15 12 3 12 14 10 8 15 5 9 4 12 9 9 10 13 2 3 4 8 9 8 4 1 11 13 1 3 3 4 9 1 10 3 13 2 2 9 2 3 6 4 13 15 13 2 15 14 10 2 12 10 8 12 2 3 13 5 13 3 4 12 12 5 9 1 4 11 1 11 7 1 13 12 5 6 1 12 4 14 8 2 9 8 5 4 3 8 12 3 8 14 15 4 2 2 12 4 11 7 6 10 6 13 6 1 1 3 15 8 12 11 7 15 1 12 8 8 14 6 5 11 8 11 10 12 7 4 