P2
33 33
250
3 13 15 6 10 13 3 14 14 1 10 4 14 7 15 10 10 15 3 13 15 14 13 12 4 4 11 6 6 13 7 6 11 12 3 7 8 9 6 1 1 12 10 7 2 12 3 13 6 2 12 13 12 10 11 3 9 2 1 13 10 10 6 11 4 10 10 12 4 8 9 10 11 9 9 8 4 9 6 4 5 1 14 4 8 6 12 12 3 8 4 12 13 15 1 5 4 3 5 6 3 9 12 5 14 6 14 2 5 4 1 5 4 3 2 2 5 13 7 8 12 6 4 14 5 6 11 5 2 14 12 13 4 1 7 2 8 1 15 2 10 13 4 11 1 4 14 11 7 5 1 13 14 14 1 1 12 10 5 15 3 5 10 11 3 9 12 0 0 14 15 14 9 8 10 6 6 7 12 4 4 5 1 9 13 6 9 2 12 1 1 3 10 12 8 4 8 6 5 1 0 0 0 10 14 11 4 9 3 5 4 10 7 13 12 12 9 5 10 13 12 5 5 6 8 6 4 3 6 9 6 13 6 11 0 0 14 4 4 11 7 11 5 1 14 11 3 14 9 1 8 9 3 6 3 1 9 4 5 13 11 6 10 7 9 12 11 0 0 0 11 5 11 7 11 7 14 1 9 2 9 6 3 12 1 13 3 9 11 3 2 1 10 15 13 12 0 5 8 11 4 0 0 0 0 15 7 5 6 12 10 10 11 8 6 1 10 11 5 5 13 10 11 6 8 13 15 0 0 0 4 15 6 5 5 0 0 0 0 11 6 10 14 6 9 1 2 4 7 3 15 13 6 15 1 13 5 14 13 0 0 0 0 6 9 9 10 4 13 0 0 0 0 0 0 7 15 4 3 15 5 9 3 13 10 9 3 10 10 0 0 0 0 0 0 9 15 15 2 10 12 6 8 6 0 0 0 0 0 0 0 0 0 0 0 0 0 0 0 0 0 0 0 0 0 0 6 2 10 6 11 6 3 10 8 14 12 11 0 0 0 0 0 0 0 0 0 0 0 0 0 0 0 0 0 0 0 0 6 12 5 13 10 2 9 4 9 15 9 10 10 15 2 13 0 0 0 0 0 0 0 0 0 0 0 0 0 0 3 9 10 7 15 12 8 11 12 6 3 1 2 10 5 14 7 1 4 9 14 11 13 4 0 0 0 0 7 5 14 2 11 12 4 10 9 3 4 8 13 12 8 1 14 3 6 4 5 2 13 15 7 1 12 4 6 13 4 2 12 7 12 5 8 15 9 9 11 9 2 11 11 2 14 2 3 7 13 12 15 3 10 4 13 15 5 8 7 15 15 14 1 5 15 6 2 8 6 2 9 6 12 3 8 4 15 9 9 2 7 8 3 14 2 14 15 13 10 12 7 3 8 12 15 2 5 3 9 11 1 6 9 12 14 11 9 15 4 5 11 3 13 15 9 3 1 2 6 11 3 4 13 12 5 4 1 15 9 10 10 13 3 4 13 10 2 2 1 12 6 12 15 12 15 1 13 5 6 7 3 2 7 6 6 7 13 15 11 2 4 4 10 4 9 9 5 1 5 4 8 6 1 15 1 1 12 15 13 5 9 14 14 15 8 2 7 4 4 11 14 12 15 6 5 13 5 13 10 10 10 1 13 10 5 1 13 6 12 12 6 7 4 12 1 12 12 7 7 5 1 5 14 14 7 5 4 7 6 3 12 3 13 7 13 2 12 13 6 10 2 1 11 4 15 2 12 7 7 4 4 11 13 11 6 8 10 9 2 15 14 5 6 2 3 2 7 11 7 11 2 6 5 4 12 9 3 11 13 8 14 3 2 15 12 3 1 13 10 1 13 10 10 5 1 9 8 5 14 1 11 12 6 4 13 9 10 5 5 12 1 14 4 11 8 12 10 3 9 2 14 5 10 15 6 2 2 3 2 5 14 10 1 2 8 15 1 8 13 1 8 10 3 1 14 8 2 2 2 13 14 11 14 8 15 9 11 15 14 12 12 5 4 1 4 10 7 2 15 3 8 8 1 8 14 9 14 8 12 6 6 15 10 4 2 5 9 1 14 4 12 13 2 6 13 15 4 14 4 4 5 2 6 10 12 13 15 2 3 5 8 1 6 10 14 6 9 5 1 5 7 9 3 13 11 1 14 5 4 7 2 8 6 8 5 13 13 11 14 10 15 3 9 8 8 6 14 8 14 2 12 12 11 3 8 7 10 3 8 4 2 9 4 3 11 11 2 7 15 10 8 3 4 9 10 7 15 3 3 3 5 9 11 3 13 4 2 5 1 14 7 3 2 3 2 5 12 10 4 5 5 1 11 1 15 4 15 6 1 5 5 1 5 9 5 1 8 10 6 7 12 10 13 11 11 13 5 4 1 2 3 15 13 5 11 13 6 10 4 6 11 9 9 4 12 4 15 8 2 15 3 14 3 12 5 11 14 3 5 6 10 13 6 6 4 4 8 11 11 6 9 