P2
33 33
250
7 6 14 15 10 15 6 13 1 7 3 5 8 12 5 9 12 13 13 12 2 4 2 5 13 12 7 5 9 4 10 2 6 12 11 8 8 11 7 12 10 7 4 5 4 15 9 9 4 2 14 7 9 8 9 9 14 12 1 8 6 13 12 12 5 7 10 13 15 4 7 11 4 11 15 14 8 10 1 4 4 10 11 11 6 2 10 7 11 11 3 9 5 11 14 5 8 2 2 2 13 2 3 2 5 11 13 4 11 14 4 1 8 2 7 14 4 11 9 5 14 6 9 14 13 6 4 12 13 14 2 10 14 2 15 2 2 8 8 14 11 6 9 3 2 2 14 8 1 4 8 5 13 14 13 1 15 6 5 9 11 10 4 8 1 3 6 5 1 12 1 7 2 8 12 5 8 10 1 14 15 13 7 6 11 8 4 11 1 3 6 1 12 11 7 4 13 0 15 7 4 7 15 9 12 2 7 13 10 4 1 5 8 15 3 1 10 4 8 8 2 12 12 13 15 15 2 15 4 0 13 10 10 7 9 15 11 10 13 2 15 9 4 9 9 7 12 9 12 15 9 9 12 6 4 4 2 13 14 5 8 0 0 2 9 13 5 12 13 2 8 7 13 13 11 5 9 4 10 9 10 11 1 8 7 8 5 6 7 9 3 1 11 0 0 5 13 11 15 10 2 5 6 6 14 12 15 13 14 3 9 8 11 6 5 10 2 4 1 14 13 14 15 2 3 0 0 4 6 9 5 12 11 13 7 13 5 12 8 4 6 3 10 5 12 6 5 11 9 11 12 5 7 1 5 6 0 0 0 10 15 14 14 2 10 1 3 11 11 10 7 9 8 12 12 13 3 8 4 10 14 15 11 10 8 14 7 0 0 0 0 11 12 14 7 11 0 7 8 9 6 12 13 3 8 5 8 10 2 9 7 4 4 14 14 2 10 0 0 0 0 0 0 6 5 5 13 1 7 0 0 0 13 7 11 15 14 1 3 5 15 1 3 1 2 1 0 0 0 0 0 0 0 0 0 10 6 6 10 3 5 13 12 0 0 0 0 0 0 0 0 0 0 0 0 0 0 0 0 0 0 0 0 0 0 0 2 11 4 12 5 1 6 2 14 13 7 0 0 0 0 0 0 0 0 0 0 0 0 0 0 0 0 0 0 0 0 5 2 15 11 5 8 10 10 15 8 13 15 10 9 15 0 0 0 0 0 0 0 0 0 0 0 0 0 0 0 6 10 4 5 11 4 7 2 6 15 4 12 14 8 1 9 8 3 2 1 5 2 0 0 0 0 0 10 14 13 4 2 7 9 15 8 2 11 4 6 2 12 12 6 4 5 12 1 11 12 15 8 9 12 9 7 7 5 10 8 14 8 4 11 2 4 4 9 6 5 13 10 11 6 3 2 14 5 3 10 1 3 13 2 1 13 7 13 3 9 4 4 12 15 15 15 9 10 12 2 11 14 5 4 3 14 5 3 10 8 9 1 14 6 6 6 4 4 8 2 3 13 12 8 5 4 14 1 1 6 14 8 8 10 4 3 15 14 14 15 14 10 15 7 4 6 13 4 4 3 4 6 5 2 15 8 12 12 13 1 10 1 7 5 9 6 3 8 13 1 11 8 12 7 8 5 7 9 6 8 11 4 14 8 12 4 8 15 1 6 1 8 14 9 4 6 10 1 14 3 11 6 2 9 2 8 15 5 6 7 11 6 2 9 15 5 3 13 13 6 3 2 12 11 12 13 11 13 9 14 4 3 11 1 8 4 12 1 11 5 2 12 3 13 12 6 4 13 6 7 3 1 5 13 8 12 7 1 4 8 13 3 15 13 4 1 12 12 15 5 4 1 7 10 7 1 2 13 12 15 10 15 6 6 7 13 12 9 11 10 13 2 3 2 4 8 14 5 1 7 7 1 11 2 5 7 11 13 4 7 11 2 4 2 9 14 10 11 4 13 3 14 6 13 3 2 9 1 8 10 14 4 5 5 15 9 11 12 2 1 10 6 11 15 13 2 6 6 15 12 15 3 4 10 2 10 2 7 14 13 13 8 2 8 2 14 3 5 3 10 13 11 13 5 1 12 3 13 8 2 3 13 3 4 9 7 14 15 14 2 5 1 3 4 2 14 6 5 15 13 4 2 2 7 12 4 1 5 1 14 6 4 5 9 9 14 6 11 5 13 15 8 9 3 4 15 15 2 5 14 14 4 11 4 14 12 9 2 13 5 11 11 1 14 2 3 12 10 8 9 2 2 11 14 13 14 15 15 12 13 10 14 7 12 7 4 11 1 1 12 12 14 11 8 9 10 12 12 6 2 8 7 4 2 13 11 9 2 13 1 6 8 2 3 9 14 1 9 10 5 12 9 3 14 13 13 4 6 7 9 6 15 4 6 9 8 5 14 1 1 3 2 14 4 9 11 8 15 8 14 15 8 10 6 12 6 12 2 15 15 4 8 