P2
33 33
250
9 15 4 1 3 8 4 15 7 6 8 15 2 5 1 13 14 14 7 12 7 2 1 7 13 13 3 8 10 10 8 13 10 1 9 6 2 8 1 10 7 15 6 11 15 2 2 6 9 3 12 12 15 13 9 12 9 7 10 14 7 1 2 10 6 6 4 3 15 15 1 13 11 12 15 14 9 8 9 12 9 13 3 4 2 7 11 13 8 9 9 1 1 6 12 2 3 4 10 3 11 7 1 5 11 5 3 12 4 2 15 7 15 9 10 3 7 7 2 4 4 12 12 14 12 2 11 11 15 13 12 7 1 8 10 4 7 8 10 3 14 14 2 9 6 14 14 10 7 8 9 3 8 11 12 10 10 9 13 5 9 5 13 9 14 11 15 2 3 15 11 1 15 5 8 11 5 13 5 11 15 7 1 4 13 6 15 6 11 11 5 14 5 8 7 11 1 8 10 10 7 12 11 2 4 5 2 14 2 4 14 14 8 9 14 10 2 9 7 14 5 10 15 3 13 8 6 5 1 6 6 3 15 11 10 8 8 2 2 1 2 6 13 10 9 8 2 15 13 9 8 5 12 12 13 1 10 5 13 10 1 1 1 12 15 3 8 6 0 0 12 10 2 1 6 2 12 13 14 6 4 8 1 7 2 13 2 9 15 4 13 14 5 10 7 3 9 2 4 10 12 0 0 0 7 4 7 4 4 1 1 5 12 14 14 8 12 2 7 12 14 12 4 11 15 8 13 6 1 8 5 5 13 9 0 0 0 0 0 1 5 5 11 4 10 4 15 10 4 15 3 11 3 11 5 14 7 12 8 4 9 3 4 14 5 12 6 0 0 0 0 0 0 0 0 12 4 9 11 15 2 10 10 3 3 5 4 1 5 14 15 9 5 13 3 13 2 2 1 10 10 0 0 0 0 0 0 0 0 0 0 11 10 3 13 3 8 2 13 11 12 12 4 8 14 4 0 0 0 3 5 10 6 15 12 0 0 0 0 0 0 0 0 0 0 0 0 0 0 0 0 0 0 0 0 0 0 0 0 0 0 0 4 5 15 6 11 12 11 0 0 0 0 0 0 0 0 0 0 0 0 0 0 0 0 0 0 0 0 0 0 0 0 0 0 2 5 14 2 15 6 7 12 0 0 0 0 0 0 0 0 0 0 0 0 0 0 0 0 0 0 0 0 0 0 0 0 0 5 12 7 1 15 15 2 2 4 7 0 0 0 0 0 0 0 0 0 0 0 0 0 0 0 0 0 0 0 0 0 0 0 9 14 12 5 13 9 11 4 11 13 7 11 0 0 0 0 0 0 0 0 0 0 0 0 0 0 0 0 0 0 0 0 0 8 15 5 15 12 7 11 11 3 7 15 12 5 2 13 0 0 0 0 0 0 0 0 0 0 0 0 0 0 0 9 14 11 8 1 14 4 4 2 8 4 8 10 5 10 3 10 13 6 13 10 14 9 0 0 0 0 0 13 6 3 5 1 6 12 3 8 1 12 15 4 7 14 8 9 6 5 8 9 6 12 7 13 2 8 11 2 9 11 1 15 1 1 6 3 9 11 10 12 5 5 11 11 5 1 6 2 4 1 13 7 2 6 8 14 14 6 15 8 13 11 13 12 1 7 14 11 15 12 11 9 9 12 11 6 4 10 4 14 1 15 3 4 9 13 10 15 4 6 5 6 3 1 12 4 6 12 7 7 9 11 3 4 3 15 8 3 15 10 9 7 8 3 13 14 11 3 9 11 5 7 1 1 11 2 13 13 12 10 2 1 6 5 1 3 11 6 8 7 1 6 2 7 12 13 14 6 11 13 12 11 13 9 12 11 13 13 2 3 3 6 3 4 9 1 11 12 4 6 15 2 3 1 3 11 14 6 2 4 6 12 5 5 14 12 7 6 3 14 12 5 14 12 4 3 15 15 10 11 8 2 11 8 4 15 12 12 10 2 12 1 10 6 14 3 11 2 10 13 1 8 14 9 14 5 11 15 5 15 8 14 15 5 11 9 5 14 12 10 11 8 1 5 14 13 3 5 13 9 1 1 11 5 6 8 9 4 4 13 10 10 9 10 2 5 8 4 5 13 1 5 8 12 3 1 5 13 3 15 13 14 10 5 7 5 4 7 9 1 1 8 9 9 14 12 10 2 7 6 3 8 2 14 2 15 8 4 8 6 15 14 4 15 4 6 3 7 13 6 13 6 1 3 9 10 2 4 12 11 2 6 2 8 12 10 1 7 2 6 13 10 8 11 3 3 6 1 10 7 1 6 12 5 6 11 7 15 11 9 14 13 11 1 8 10 13 11 1 6 12 5 3 11 15 14 14 6 10 4 9 12 2 2 6 3 14 3 5 15 5 8 5 13 13 12 12 14 13 7 12 10 3 4 1 13 13 4 1 5 3 2 4 4 13 9 3 13 12 12 11 12 2 9 7 7 4 6 11 4 6 13 2 4 9 5 