P2
33 33
250
1 1 10 7 9 13 8 10 14 3 3 4 12 2 3 12 14 10 6 11 12 7 9 1 6 12 2 3 9 5 3 14 7 15 8 2 1 10 8 11 7 9 10 6 11 13 1 10 12 9 15 10 11 12 6 6 3 2 13 3 3 4 15 15 4 2 8 6 2 6 6 15 13 4 2 7 6 5 15 14 3 15 1 12 4 7 2 5 5 6 5 0 3 2 1 9 11 2 10 9 8 7 8 8 10 12 10 9 2 7 15 3 2 9 13 14 5 13 8 14 3 8 5 0 0 0 14 3 10 11 15 1 6 1 15 3 13 12 6 2 8 12 13 1 11 8 7 12 14 2 9 4 2 2 0 0 0 0 0 9 6 5 2 7 13 4 3 8 11 10 13 9 5 11 14 2 11 14 2 14 2 9 6 2 13 0 0 0 0 0 0 9 12 4 12 14 10 3 8 11 6 2 6 14 11 9 7 13 15 7 13 11 5 2 10 0 0 0 0 0 0 0 0 13 2 12 14 14 11 5 2 10 10 8 15 12 10 1 13 10 9 14 7 7 9 12 0 0 0 0 0 0 0 0 0 1 8 7 15 14 10 5 8 14 6 9 2 6 10 7 7 10 2 3 4 0 0 0 0 0 0 0 0 0 0 0 9 7 12 12 12 15 9 15 6 10 5 12 15 10 9 12 6 0 0 0 0 0 0 0 0 0 0 0 0 0 0 5 12 3 13 6 7 12 12 14 2 2 10 14 0 0 0 0 0 0 0 0 0 0 0 0 0 0 0 0 0 0 11 7 10 11 8 12 6 1 2 13 4 15 5 12 15 0 0 0 0 0 0 0 0 0 0 0 0 0 0 0 0 15 11 7 3 8 6 11 15 10 15 1 10 12 4 13 3 15 0 0 0 0 0 0 0 0 0 0 0 0 0 10 8 8 5 5 1 12 13 11 4 9 9 14 2 13 6 10 9 13 1 0 0 0 0 0 0 0 0 11 4 15 2 6 3 11 9 9 10 11 8 5 2 5 4 8 6 9 2 11 2 2 2 8 8 8 14 5 8 3 7 2 13 2 14 12 4 10 8 12 6 6 5 9 7 7 4 11 1 4 2 11 14 15 7 5 12 1 6 8 15 10 3 3 13 1 13 5 15 5 12 3 11 7 2 3 12 7 14 4 15 10 13 9 4 4 8 14 1 1 3 3 9 3 2 14 9 7 7 4 12 5 6 5 13 15 9 10 11 13 1 2 2 11 11 3 13 11 9 9 7 14 6 5 15 13 2 11 2 14 1 12 1 14 3 5 8 11 15 10 15 9 10 5 15 10 14 2 13 1 13 9 1 12 4 4 13 7 4 3 8 15 3 2 13 15 13 1 7 12 8 13 10 6 4 15 4 8 4 10 6 12 2 3 2 14 15 12 14 6 10 14 3 12 6 5 4 7 10 12 10 14 14 12 2 15 12 7 7 12 13 15 13 2 8 6 4 12 3 1 12 11 8 8 9 3 8 6 10 2 9 1 12 12 10 14 6 10 11 6 11 4 5 11 6 1 15 5 14 4 8 4 15 14 6 10 5 15 14 14 10 3 2 10 3 11 10 4 5 8 1 13 11 12 5 3 8 8 12 5 11 9 4 10 5 8 5 5 12 10 6 5 1 7 10 13 7 10 14 8 9 14 10 15 12 15 1 1 2 8 2 12 1 15 6 10 6 3 13 1 3 14 5 13 7 6 5 15 10 14 10 7 9 15 6 10 10 2 14 2 10 13 7 13 2 14 14 10 9 12 10 8 5 10 3 5 8 5 13 2 6 11 6 3 7 8 15 7 7 4 6 1 15 10 4 7 13 9 11 13 12 6 13 6 6 9 15 4 8 13 12 3 15 2 2 1 12 2 3 15 4 8 1 12 6 5 15 8 11 15 12 6 9 3 11 11 4 1 8 1 6 14 4 11 10 9 4 9 15 2 8 10 10 11 15 6 12 10 13 10 1 8 11 9 13 12 8 11 8 7 5 14 1 12 14 10 9 4 13 1 10 1 13 15 15 11 8 5 5 4 15 9 8 12 9 6 4 6 13 6 5 4 11 7 7 8 2 1 11 14 4 8 4 10 15 8 1 3 5 10 6 6 3 7 6 12 9 6 6 11 2 11 15 6 4 13 14 12 11 13 10 12 9 4 5 15 1 1 7 12 10 4 12 11 2 5 6 10 11 1 8 13 3 8 9 2 2 8 1 13 12 10 8 7 14 5 9 7 8 10 9 15 13 15 9 5 9 7 4 10 11 4 13 4 6 11 8 9 2 13 6 5 4 15 4 6 4 10 5 8 10 11 5 7 8 1 10 15 13 1 9 2 12 1 13 4 7 5 4 11 3 15 7 12 3 6 6 5 6 10 9 2 2 14 9 12 9 6 13 2 14 12 15 15 15 1 10 10 5 6 7 11 15 5 1 7 3 11 10 1 5 