P2
33 33
250
9 5 8 12 4 9 15 13 11 8 2 15 10 12 10 5 1 11 4 11 1 14 9 13 12 7 10 13 2 5 9 10 9 4 5 1 3 5 14 10 3 12 14 5 9 12 2 2 14 6 14 15 15 4 8 4 10 5 2 15 6 13 9 12 14 1 5 9 8 4 13 12 9 4 13 9 11 8 10 10 4 12 14 13 8 13 7 8 6 13 4 4 4 9 12 3 5 3 15 9 9 5 12 15 8 9 2 4 11 1 13 7 14 11 12 7 2 11 1 5 3 5 10 4 12 13 12 13 1 6 2 2 15 9 11 4 3 13 9 3 4 13 8 1 14 5 1 2 2 8 5 4 5 8 6 14 7 1 10 14 15 7 3 1 1 10 14 3 2 14 2 14 9 13 2 9 12 4 14 15 3 1 10 9 10 13 13 3 13 8 14 9 7 5 3 7 9 12 8 1 10 4 14 2 5 2 9 13 15 4 11 0 0 0 0 0 0 1 7 8 2 8 10 8 12 2 5 8 6 15 9 7 6 15 2 11 5 15 3 0 0 0 0 0 0 0 0 0 0 0 0 0 0 0 0 0 8 11 15 10 7 2 8 3 2 2 3 2 5 0 0 0 0 0 0 0 0 0 0 0 0 0 0 0 0 0 0 0 0 0 0 8 13 9 9 10 11 6 1 7 0 0 0 0 0 0 0 0 0 0 0 0 0 0 0 0 0 0 0 0 0 0 0 0 0 0 7 8 14 1 5 7 0 0 0 0 0 0 15 3 7 8 15 12 1 7 12 3 13 3 1 2 2 9 6 0 0 0 0 0 15 10 1 4 0 0 0 2 9 10 3 15 13 11 8 6 7 5 13 11 2 13 14 5 5 1 10 11 2 8 13 0 0 0 4 11 0 0 0 13 12 7 14 13 8 10 4 12 4 14 8 12 1 14 1 9 3 7 13 15 14 15 15 8 10 0 0 0 14 0 0 11 5 15 6 14 5 3 6 7 7 3 11 11 9 1 4 11 7 1 10 4 8 7 4 3 3 6 1 0 0 0 0 14 8 5 14 6 2 13 5 4 12 6 6 12 13 7 12 3 4 15 2 9 3 11 1 14 10 12 14 9 7 0 0 6 11 13 14 11 6 1 10 4 10 2 11 5 7 1 3 12 9 7 4 6 12 13 9 7 3 9 1 3 6 5 10 0 2 14 4 8 12 2 9 6 8 4 13 3 7 15 8 3 3 10 15 4 13 5 10 1 15 5 10 15 6 7 5 5 0 11 13 12 3 10 12 5 9 1 11 13 5 8 9 9 9 1 7 11 11 6 13 8 9 3 13 13 5 3 1 14 6 12 1 3 6 14 12 9 1 12 8 13 6 6 6 9 2 7 8 12 12 5 1 10 11 11 2 2 10 6 10 14 13 13 7 14 13 7 5 4 12 8 14 9 15 14 4 2 15 2 11 9 2 7 10 5 5 8 10 11 9 4 2 12 6 1 9 1 4 8 3 14 11 5 6 3 10 1 3 7 2 13 1 9 7 7 8 1 12 4 9 2 11 6 10 15 10 15 12 2 14 12 10 6 6 14 5 9 7 9 3 15 2 12 2 13 8 10 7 7 3 12 13 5 9 1 6 9 6 11 9 3 15 15 11 9 6 6 1 4 10 11 5 1 14 13 4 9 5 6 2 8 6 10 7 9 14 14 13 6 8 4 10 12 10 15 1 4 14 9 6 3 4 11 8 1 9 13 2 13 1 1 8 12 1 4 14 4 13 13 15 14 6 13 4 5 5 3 7 1 14 12 15 4 13 9 14 2 1 14 8 14 9 8 11 2 9 10 8 12 7 4 1 2 11 14 12 11 8 10 8 10 5 6 12 12 10 10 12 6 7 15 14 3 4 7 3 7 4 12 11 9 12 7 13 7 1 14 10 8 15 9 3 6 15 2 3 7 7 7 14 15 2 5 9 3 6 12 3 10 4 7 12 13 7 13 4 13 3 3 9 3 8 6 3 12 4 15 5 6 5 11 13 11 8 2 14 13 6 10 3 5 2 2 5 7 7 15 6 2 1 8 2 2 15 14 13 8 13 12 9 1 3 9 2 7 3 6 4 15 3 6 8 11 6 6 15 1 1 9 8 3 13 2 4 5 5 11 2 8 8 11 2 11 13 3 9 2 3 14 10 2 5 6 6 5 4 5 6 5 13 14 11 6 5 5 7 15 1 4 6 1 3 4 15 13 7 3 4 13 1 9 10 6 4 12 1 8 11 3 10 7 7 15 7 12 2 11 12 1 13 9 15 9 4 7 10 15 12 1 2 13 3 13 4 2 14 7 14 4 8 13 10 6 8 6 8 6 11 12 8 13 3 14 6 6 7 12 2 14 14 10 9 12 12 4 1 1 4 4 5 14 5 4 2 8 13 10 15 1 15 12 7 13 6 13 3 1 14 3 14 7 15 6 6 11 15 