P2
33 33
250
1 3 4 10 1 15 10 15 7 7 2 10 3 10 3 10 8 14 4 9 1 15 7 12 12 7 12 2 2 8 7 13 5 3 15 13 12 5 3 7 15 7 10 1 9 5 8 9 6 9 6 15 9 6 13 13 9 11 11 11 6 15 2 9 1 14 12 10 13 3 11 6 2 15 9 15 14 4 13 12 3 14 1 8 13 12 6 3 2 9 10 4 9 1 12 13 10 15 11 1 9 9 9 7 12 1 8 5 13 3 5 10 7 4 8 6 3 1 14 14 12 1 6 5 11 8 6 4 11 12 14 12 13 7 10 14 14 3 1 7 14 1 4 3 7 12 9 15 8 7 13 8 11 4 10 15 15 12 8 7 15 5 12 3 9 8 9 11 5 11 3 2 6 8 13 3 9 11 8 15 13 14 5 15 9 1 5 13 5 9 3 3 12 4 9 13 6 13 3 14 2 3 6 14 12 14 15 6 15 2 4 2 1 2 0 0 0 0 0 0 2 5 13 15 5 5 6 1 2 15 2 3 3 1 5 3 10 13 14 11 3 13 0 0 0 0 0 0 0 0 0 0 0 0 0 0 0 12 6 5 12 4 14 4 9 10 15 4 3 15 6 4 8 0 0 0 0 0 0 0 0 0 0 0 0 0 0 0 0 0 0 0 0 8 5 9 15 6 7 1 12 11 4 2 0 0 0 0 0 0 0 0 0 0 0 0 0 0 0 0 0 0 0 0 0 0 0 0 4 5 11 9 6 8 4 15 0 0 0 0 0 0 0 0 0 0 0 0 0 0 0 0 0 0 0 0 0 0 0 0 0 0 9 13 2 11 5 13 0 0 0 0 0 0 0 0 0 0 0 0 0 0 0 0 0 0 0 0 0 0 0 0 0 0 0 0 8 8 7 10 0 0 0 0 0 0 0 11 14 5 13 15 8 10 11 5 11 11 15 3 13 5 9 0 0 0 0 0 0 5 2 7 0 0 0 0 0 13 15 4 1 2 4 14 14 5 8 4 10 12 10 10 10 14 9 12 12 6 7 0 0 0 3 7 8 0 0 0 0 7 7 3 5 5 6 1 8 2 6 8 13 15 9 9 13 5 13 14 4 8 11 9 12 0 0 4 9 0 0 0 0 10 9 12 9 13 15 4 3 7 6 15 1 15 15 6 8 1 7 6 15 7 4 10 11 14 12 0 11 10 0 0 0 15 4 4 1 1 12 12 3 12 5 5 13 7 7 7 3 6 6 7 15 12 5 12 8 13 7 8 4 7 7 6 1 2 14 4 6 9 9 8 14 1 7 13 8 2 11 8 1 13 6 13 7 11 13 12 6 2 8 5 15 5 10 14 2 9 9 8 12 2 13 1 10 15 7 11 5 9 6 14 9 14 3 9 15 1 6 13 11 5 9 14 6 13 10 10 1 9 7 12 7 5 14 14 2 8 6 12 10 7 6 1 8 10 8 13 7 4 7 1 8 15 3 12 1 5 15 3 10 1 7 3 15 12 14 6 6 15 10 7 9 11 15 13 7 4 11 10 7 6 6 7 3 7 11 4 15 6 13 15 6 14 14 6 9 12 5 5 11 13 12 1 7 8 4 3 5 5 4 7 12 9 7 10 11 5 4 3 4 1 4 15 13 3 1 4 4 7 14 5 3 1 5 10 7 12 3 11 2 9 11 7 11 5 9 9 6 1 5 13 5 13 14 3 7 14 4 7 9 3 1 1 14 12 2 4 14 10 15 10 3 13 8 12 6 2 4 14 2 13 13 1 12 1 8 3 4 3 3 2 2 13 10 10 15 13 6 2 4 2 12 4 13 13 1 8 9 1 5 14 11 15 7 12 4 3 15 10 4 4 6 9 1 7 2 12 13 15 3 8 15 3 10 7 6 9 13 10 7 15 1 11 8 14 14 4 3 1 2 14 2 3 10 4 2 11 1 8 2 11 11 7 11 14 4 8 12 13 3 2 12 12 15 1 3 5 6 10 8 4 10 6 2 8 10 8 7 11 11 1 14 13 7 9 10 13 2 5 6 11 2 3 11 8 7 4 5 10 1 12 13 4 12 1 14 14 1 13 14 3 12 5 4 10 12 13 2 5 8 3 2 8 9 4 9 4 2 13 7 9 15 8 5 8 4 3 6 2 12 11 2 12 6 13 5 8 6 5 13 13 8 1 1 4 2 4 12 7 4 12 1 2 12 6 1 3 2 4 15 2 10 9 12 6 15 10 5 5 3 6 13 10 9 15 6 1 15 7 14 12 12 5 10 12 11 13 15 10 14 2 8 7 12 3 14 14 6 2 14 10 12 4 10 12 12 14 8 9 10 9 10 1 8 2 11 5 10 9 12 11 5 10 1 6 14 2 1 7 11 7 15 7 1 1 15 4 13 10 14 15 10 10 15 3 5 11 11 11 4 8 14 4 12 6 13 13 9 12 11 6 2 3 13 8 3 3 15 