P2
33 33
250
5 9 6 15 8 15 15 2 13 4 5 4 8 5 11 15 8 5 14 5 13 3 14 2 15 13 1 7 5 2 15 4 13 5 14 7 5 6 12 15 15 5 11 15 1 9 4 3 11 7 13 13 11 6 2 8 4 12 12 9 8 3 1 3 12 6 5 15 2 4 7 8 12 5 11 1 15 14 5 3 8 11 13 4 1 9 4 3 10 3 1 3 14 2 4 10 3 14 2 11 9 2 1 9 14 15 15 14 11 15 11 9 3 4 10 4 7 8 14 1 1 5 7 11 9 15 3 9 15 2 8 12 1 5 15 1 1 7 10 13 13 12 9 14 12 10 13 6 7 7 11 1 15 11 14 5 1 12 13 10 14 14 7 15 12 15 7 3 8 9 1 11 14 13 9 11 6 14 2 10 10 8 6 6 10 15 15 10 15 8 11 8 8 9 1 10 13 4 6 15 10 9 8 7 3 12 9 15 6 13 15 6 6 13 8 2 11 1 11 10 8 10 13 6 15 11 6 10 15 3 4 12 6 1 2 13 8 13 9 14 12 8 3 5 4 11 15 3 13 5 4 12 12 1 7 6 8 5 10 4 2 10 1 1 8 14 10 12 6 14 1 12 11 13 9 11 15 8 13 9 6 13 12 15 6 8 13 13 15 1 9 8 6 15 10 13 15 11 14 2 11 15 5 5 4 12 1 12 10 2 10 5 8 7 3 4 1 13 6 7 13 11 8 14 7 15 3 6 15 7 7 13 10 9 2 11 12 2 2 9 15 4 13 13 12 9 12 2 9 8 12 8 3 14 2 3 6 4 6 13 14 1 14 10 3 11 5 14 15 13 10 14 14 12 4 13 2 11 15 8 14 3 12 14 15 13 1 11 6 7 3 13 10 15 9 1 11 3 4 4 4 8 5 4 2 10 1 5 8 6 14 3 5 3 10 12 2 15 9 9 11 5 5 5 9 2 15 14 2 3 10 13 14 5 4 1 2 3 12 3 13 3 9 3 13 15 3 1 2 12 2 13 12 7 13 14 6 12 13 14 4 3 10 3 14 12 10 1 8 4 8 15 11 4 5 4 5 9 7 7 13 3 12 13 4 8 12 1 7 7 12 14 2 1 7 1 5 11 14 5 5 9 11 2 12 2 8 14 3 13 13 3 7 2 15 7 15 5 7 14 3 15 4 7 4 12 12 1 9 1 13 13 13 6 15 11 15 3 10 11 6 2 7 9 14 5 12 8 7 8 14 7 5 2 10 9 5 14 8 13 15 10 11 11 6 7 3 15 12 8 1 7 2 3 10 15 15 8 1 10 3 12 4 13 11 4 13 15 5 12 7 11 13 13 7 14 4 12 12 1 15 12 9 7 2 11 9 6 11 3 14 14 3 12 8 6 12 4 6 12 15 7 2 7 5 6 9 9 10 13 10 12 4 8 1 6 12 9 9 1 15 11 13 14 4 2 14 6 2 11 7 6 6 13 15 8 7 14 6 12 15 11 3 3 2 14 15 1 15 2 14 8 14 10 4 12 8 13 8 7 12 10 11 8 11 9 7 13 11 12 13 9 12 5 13 6 1 7 2 0 6 11 7 10 10 9 11 14 6 11 6 3 8 12 3 12 6 12 12 1 14 6 11 15 13 12 4 11 11 8 7 0 0 0 12 7 2 2 15 2 14 7 13 2 7 2 4 9 3 14 9 8 7 15 6 11 3 2 3 4 9 9 10 10 0 0 0 0 4 1 15 2 1 5 1 8 11 5 9 7 12 4 14 4 12 4 2 1 14 3 12 10 1 4 4 10 5 0 0 0 0 0 0 4 9 4 10 15 11 14 1 12 8 12 9 2 8 11 10 2 15 8 14 12 2 6 15 2 6 9 11 0 0 0 0 0 0 10 6 2 3 14 6 15 5 6 13 4 10 14 8 12 10 3 4 14 11 7 4 11 7 12 10 13 14 0 0 0 0 0 0 0 7 12 5 11 5 7 8 7 5 1 15 11 4 14 1 9 7 0 0 8 3 9 14 1 11 1 7 14 0 0 0 0 0 0 0 0 5 11 4 3 2 2 7 15 15 4 9 8 0 0 0 0 7 4 1 6 3 4 7 8 11 5 0 0 0 0 0 0 0 0 0 0 0 0 0 0 0 0 0 0 0 0 0 0 0 1 1 11 10 10 7 6 14 9 6 13 13 0 0 0 0 0 0 0 0 0 0 0 0 0 0 0 0 0 0 0 0 0 12 4 2 13 3 4 3 9 11 6 13 1 3 8 0 0 0 0 0 0 0 0 0 0 0 0 0 0 0 0 0 14 8 1 12 13 4 12 14 7 12 15 4 13 7 9 1 7 15 0 0 0 0 0 0 0 0 0 0 0 0 0 2 14 4 13 10 14 3 7 1 1 12 3 6 15 8 7 4 13 1 13 14 15 14 9 4 5 4 3 6 3 3 13 4 12 7 13 13 