P2
33 33
250
12 15 5 14 1 2 5 15 4 13 6 9 7 7 6 10 15 9 5 11 15 4 4 1 3 2 8 11 2 4 3 3 5 6 10 7 12 12 5 10 6 13 4 12 4 13 5 1 12 9 1 8 14 6 11 1 11 9 2 2 8 5 6 9 7 13 9 13 12 4 15 6 15 8 14 6 9 11 10 9 11 8 11 11 9 3 3 9 13 9 15 4 9 2 7 10 10 1 6 9 11 8 12 9 10 10 6 13 15 3 8 7 8 7 14 7 12 6 14 14 3 6 7 4 13 6 9 15 14 12 9 15 5 13 2 3 8 3 10 5 12 6 5 3 1 8 4 2 9 6 6 2 14 3 3 7 10 15 12 1 2 6 11 2 13 8 14 5 4 11 9 13 10 11 6 3 2 12 2 3 3 2 8 12 6 10 15 12 9 1 5 10 15 10 1 9 5 3 12 5 4 10 15 5 11 9 15 7 13 5 1 10 8 4 14 12 13 2 7 3 15 12 11 7 7 11 6 14 5 4 12 13 6 15 14 14 2 8 15 9 8 11 6 12 14 12 14 5 11 9 2 10 9 4 6 5 13 14 14 15 7 2 13 7 10 13 3 5 14 5 4 5 15 15 4 10 9 3 9 7 14 10 14 11 11 5 12 13 15 2 12 8 8 6 7 14 13 2 6 4 10 3 12 14 13 2 4 13 10 12 8 5 3 7 5 6 10 13 5 2 1 3 7 13 9 3 4 11 8 12 8 9 7 3 0 0 8 4 5 15 14 13 8 12 14 6 5 14 8 11 11 9 8 11 7 3 1 9 2 2 14 0 0 8 10 15 6 8 0 0 0 9 7 9 3 3 11 12 9 10 15 9 13 14 8 5 6 7 13 4 2 14 0 0 0 3 3 3 13 9 1 9 0 0 0 0 0 13 9 11 11 8 6 3 9 6 9 7 7 14 10 13 0 0 0 0 0 7 3 7 12 3 10 11 7 11 0 0 0 0 0 0 0 0 0 0 0 0 0 0 0 0 0 0 0 0 0 0 0 7 9 7 5 14 6 5 10 1 7 10 0 0 0 0 0 0 0 0 0 0 0 0 0 0 0 0 0 0 0 0 0 11 10 12 3 10 6 9 8 12 10 5 12 3 0 0 0 0 0 0 0 0 0 0 0 0 0 0 0 0 0 0 0 5 9 15 7 2 8 5 9 6 2 13 2 14 1 9 5 0 0 0 0 0 0 0 0 0 0 0 0 0 0 0 15 15 5 8 7 3 7 13 13 5 1 3 12 13 6 2 14 1 6 6 0 0 0 0 0 0 0 0 0 0 0 11 5 10 10 4 15 8 3 1 14 7 11 14 4 3 8 3 10 9 15 3 13 4 3 2 13 0 0 0 0 14 14 8 2 4 1 2 12 9 2 9 12 13 2 6 8 12 10 4 15 5 12 5 14 3 4 9 13 13 6 15 9 9 7 8 6 13 4 6 8 12 13 14 2 6 4 4 14 1 3 10 12 13 8 6 13 5 6 10 15 10 5 2 6 10 13 13 11 6 4 2 3 5 5 12 9 5 12 10 5 13 2 7 1 1 1 2 1 14 7 5 12 9 10 13 10 12 6 3 8 7 11 8 13 7 10 12 12 1 12 12 8 12 10 5 6 13 4 15 13 10 7 9 3 7 2 9 3 3 8 4 14 8 3 3 10 1 9 11 2 11 3 2 6 15 9 4 10 7 8 2 2 3 15 9 8 4 12 5 13 5 7 8 8 7 4 2 4 11 3 4 9 15 14 11 2 15 6 2 2 1 3 10 11 6 1 8 10 10 15 5 14 14 10 11 8 8 13 4 11 15 3 2 2 7 3 4 4 10 11 14 11 13 4 1 13 1 9 12 12 7 13 2 9 11 9 12 4 14 2 8 11 8 3 7 5 1 10 4 11 13 8 3 9 6 7 12 15 1 8 11 4 15 3 15 13 2 5 5 8 13 14 12 2 4 6 13 15 12 4 6 8 3 5 14 10 10 9 9 12 12 4 1 12 4 10 4 11 10 12 12 13 3 5 8 2 4 8 7 10 11 6 5 6 11 8 8 4 14 9 15 2 9 5 2 5 8 7 12 4 8 4 9 1 12 12 9 13 14 8 10 9 7 8 3 2 2 4 14 10 8 11 10 10 2 12 14 1 5 13 10 7 4 5 15 5 1 15 1 3 9 13 11 6 7 7 8 3 3 13 13 2 11 12 5 5 13 14 6 3 9 9 10 10 8 9 3 7 13 11 3 3 2 11 9 1 13 2 10 1 11 13 5 9 7 10 2 11 11 1 13 14 10 9 4 11 6 5 9 2 10 7 2 3 15 3 15 5 6 13 12 11 13 7 5 4 1 3 9 5 6 6 1 5 9 11 4 11 7 7 4 8 5 4 10 2 12 6 3 15 12 6 15 8 5 10 11 3 15 12 4 4 4 11 