P2
33 33
250
1 13 14 12 10 7 9 1 5 11 12 10 7 14 4 2 3 5 12 1 11 3 1 14 12 5 12 12 7 1 11 6 15 5 8 6 7 5 9 12 12 3 14 8 7 15 9 2 7 3 14 2 4 11 8 12 8 14 5 7 4 2 10 10 15 13 7 1 9 6 14 14 8 7 3 7 6 8 9 1 14 3 4 4 10 2 8 14 11 1 7 13 1 1 9 2 1 13 2 10 2 12 10 14 12 2 9 4 11 10 4 7 12 1 13 15 5 8 15 9 7 13 3 9 15 7 9 10 8 14 15 1 11 10 14 13 5 9 4 5 15 9 5 13 4 11 8 3 2 6 8 4 13 8 3 15 9 4 15 1 10 13 11 8 10 4 12 1 4 7 15 13 8 14 2 1 9 11 13 15 12 12 8 12 14 3 5 8 11 3 8 8 11 6 1 9 10 9 1 2 11 1 10 8 2 5 10 3 8 6 2 6 2 10 5 5 2 11 12 3 11 3 14 14 3 3 14 3 2 13 5 7 12 12 2 8 3 13 12 3 15 15 10 7 7 9 3 3 4 0 0 0 0 0 0 0 9 2 9 10 8 12 6 8 6 1 11 13 8 11 7 14 1 7 0 0 0 0 0 0 0 0 0 0 0 0 0 0 0 0 0 0 0 0 0 0 2 9 5 4 11 3 4 0 0 0 0 0 0 0 0 0 0 0 0 0 0 0 0 0 0 0 0 0 0 0 0 0 0 0 6 4 1 0 0 0 0 0 0 0 0 0 0 0 0 0 0 0 0 0 0 0 0 0 0 0 0 0 0 0 0 0 0 0 0 0 0 0 0 0 0 0 0 0 0 0 0 0 0 0 0 0 0 0 0 0 0 0 0 0 0 0 0 0 0 0 0 0 0 0 0 0 0 0 0 0 0 0 0 0 0 0 0 0 0 0 0 0 0 0 0 0 0 0 0 0 0 0 0 0 0 0 0 0 0 0 0 0 0 0 0 0 0 0 0 0 0 0 0 0 0 0 0 0 0 0 0 0 0 0 0 0 0 0 0 0 0 0 0 0 0 0 0 5 6 9 4 1 3 8 10 6 12 14 9 14 14 1 12 13 15 10 2 5 0 0 0 0 0 0 8 3 13 12 9 13 5 5 11 12 3 6 4 11 11 5 11 15 3 15 7 7 14 11 15 10 11 8 0 8 12 13 5 3 9 15 2 4 11 13 9 11 2 9 5 7 7 11 14 6 8 14 6 10 2 2 9 13 11 13 3 8 13 8 15 15 14 12 5 7 4 11 5 9 7 15 5 6 12 4 9 11 4 15 9 8 9 3 1 7 14 10 12 9 3 13 15 12 8 3 15 11 13 7 9 10 5 12 1 6 5 6 2 11 13 6 1 1 5 1 15 1 15 15 2 5 9 13 13 11 8 3 11 4 14 6 5 7 2 13 2 3 4 14 14 8 12 13 11 11 2 6 6 4 6 4 8 15 4 8 13 6 13 12 1 14 15 9 6 13 9 4 15 6 5 10 1 7 13 13 11 2 7 13 11 7 12 2 15 9 5 5 12 12 15 4 15 12 8 2 10 10 10 11 2 2 1 13 5 4 5 9 7 15 9 15 10 15 8 6 15 13 15 4 2 3 4 5 15 4 15 6 2 6 12 4 4 4 10 3 9 3 1 13 7 10 5 6 12 12 8 15 12 5 4 6 15 2 7 11 7 7 14 1 1 4 14 13 3 1 15 6 10 4 5 13 7 5 14 12 15 4 6 12 6 15 11 7 9 12 10 10 6 1 4 1 12 11 4 13 13 3 8 3 9 14 9 10 8 1 15 2 3 5 11 9 2 5 2 4 2 6 3 14 3 7 9 14 5 4 4 14 9 15 1 12 15 12 7 15 1 3 3 12 9 3 15 2 3 5 11 11 14 2 10 12 8 11 12 6 6 15 14 9 10 11 2 1 15 3 1 3 10 10 5 5 6 15 6 11 14 11 15 11 9 10 2 7 12 4 10 3 9 1 12 12 4 15 10 7 5 2 1 1 15 4 6 15 11 8 2 7 4 6 4 15 15 13 2 3 1 2 8 1 8 13 2 11 10 1 8 3 13 11 14 15 15 5 2 6 14 11 10 10 6 5 9 14 4 5 9 10 14 10 12 10 3 10 15 12 6 8 13 11 9 14 10 9 1 14 2 12 15 4 5 2 3 14 5 2 14 2 4 12 2 15 13 15 11 15 13 11 14 3 8 12 4 7 5 10 8 3 9 2 13 7 2 1 7 13 12 15 4 7 9 6 7 4 2 6 1 9 1 2 8 1 9 5 9 7 6 9 15 7 3 2 15 15 12 6 3 14 3 13 11 4 1 8 8 13 6 2 3 7 6 6 4 2 8 9 8 9 3 8 5 12 12 13 1 11 14 4 7 15 6 5 7 8 9 10 12 13 8 9 1 7 4 9 11 