P2
33 33
250
15 6 15 2 4 1 13 2 10 5 8 3 11 14 1 9 12 12 4 15 7 9 5 4 7 13 6 11 11 10 11 11 6 12 4 13 1 1 2 7 3 6 15 3 10 11 11 2 12 3 4 9 9 4 1 11 11 8 13 11 3 8 15 2 15 6 14 3 14 10 15 8 6 1 3 2 15 3 6 12 13 4 12 7 1 10 13 15 12 7 4 9 6 12 10 4 3 13 1 10 11 13 10 4 10 8 11 9 14 9 15 2 15 12 11 4 11 11 2 7 9 15 7 6 11 15 1 12 15 7 1 2 2 1 8 1 8 15 4 5 15 13 7 2 11 6 11 12 15 13 7 1 4 12 10 3 1 13 14 10 1 15 9 1 7 15 15 10 2 10 5 9 3 1 13 4 1 10 14 15 4 10 7 11 13 13 11 4 4 1 7 2 13 8 6 13 10 12 3 8 6 3 2 10 6 3 2 4 14 1 2 3 5 6 15 7 1 13 6 11 15 1 6 7 9 14 7 2 13 10 5 9 6 1 4 11 7 14 11 3 6 10 13 4 14 3 8 1 7 7 9 4 6 2 2 4 4 2 8 9 14 12 11 2 12 11 8 3 1 10 10 8 13 11 6 3 8 2 8 4 7 2 6 2 0 0 0 0 0 0 13 13 14 9 6 6 15 8 6 13 6 1 4 12 5 10 2 6 3 2 1 9 4 0 0 0 0 0 0 0 0 0 0 0 0 0 0 0 9 5 6 15 7 7 1 4 2 6 11 12 14 7 6 0 0 0 0 0 0 0 0 0 0 0 0 0 0 0 0 0 0 0 0 2 2 1 10 11 6 12 15 6 1 14 0 0 0 0 0 0 0 0 0 0 0 0 0 0 0 0 0 0 0 0 0 0 3 8 12 8 11 1 3 14 10 6 0 0 0 0 0 0 0 0 0 0 0 0 0 0 0 0 0 0 0 0 0 0 0 15 3 5 2 12 4 7 8 0 0 0 0 0 0 0 0 0 15 3 7 4 7 12 4 3 8 14 9 4 0 0 0 0 14 13 8 11 1 8 4 0 0 0 0 0 0 0 10 15 13 11 15 5 15 9 13 5 14 2 5 4 2 1 1 3 0 7 15 12 12 11 15 0 0 0 0 0 0 9 13 9 15 13 14 4 13 10 2 10 8 11 2 8 10 8 9 3 10 5 15 9 4 6 4 15 0 0 0 0 6 2 15 6 8 10 7 8 11 2 2 5 6 9 15 13 1 10 1 3 4 10 15 7 4 5 10 4 14 0 0 0 3 3 8 3 8 12 8 14 9 2 12 1 13 12 13 2 2 12 2 7 9 5 9 15 9 13 15 8 1 10 0 4 3 4 3 15 6 1 6 15 13 6 11 9 13 6 1 10 5 11 10 7 6 4 5 10 4 5 12 13 14 4 13 3 11 15 2 14 10 9 5 12 3 2 3 13 14 7 9 15 1 13 2 13 4 7 8 11 4 9 1 10 9 5 8 10 11 5 13 5 11 13 3 1 8 7 15 13 1 9 15 6 7 10 4 10 8 7 3 5 9 6 3 15 10 9 14 9 6 6 2 12 15 14 9 9 15 8 9 3 7 3 14 4 3 6 12 11 4 12 2 13 6 12 11 11 6 8 8 4 5 4 7 4 11 1 1 10 5 7 1 14 13 6 8 8 3 15 7 1 3 6 10 14 5 7 14 6 6 7 4 8 3 14 4 15 10 2 2 9 1 8 3 15 9 9 10 1 1 13 13 4 14 10 9 11 6 13 12 7 2 12 12 7 7 2 2 8 13 2 14 3 5 11 14 12 2 6 13 14 5 15 11 13 5 13 3 7 6 13 10 8 1 11 11 13 9 4 11 9 9 14 7 12 3 3 11 12 9 11 7 14 10 6 9 4 1 14 7 4 15 8 1 5 13 15 9 11 6 14 2 12 13 5 5 13 13 10 9 3 3 3 11 9 1 3 10 9 14 12 10 1 6 9 1 14 12 2 3 7 4 5 8 12 8 7 2 11 9 8 7 9 8 14 2 10 6 12 15 6 15 1 6 15 3 14 5 12 4 3 6 14 1 4 9 11 14 7 10 7 10 2 1 13 14 15 13 9 5 2 10 9 2 15 2 5 8 6 15 3 9 13 2 1 8 1 15 5 12 5 3 14 9 14 15 11 12 5 4 12 12 10 9 12 15 6 15 7 7 2 15 11 11 11 8 13 9 13 15 3 9 7 1 11 10 15 5 5 5 2 7 6 10 10 7 3 12 11 9 7 8 8 1 8 3 4 2 12 8 9 6 8 5 4 11 15 6 5 12 8 4 8 1 10 6 8 9 6 9 7 14 8 15 9 15 7 13 2 6 14 4 11 14 1 4 13 14 9 15 14 1 9 10 12 10 11 8 6 8 2 9 3 9 10 11 11 10 9 3 9 11 3 11 10 8 7 2 9 11 