P2
33 33
250
2 13 12 6 14 15 1 2 3 6 4 9 11 5 4 8 1 6 11 14 9 10 9 9 4 5 15 6 6 9 7 3 15 10 15 6 12 14 6 12 11 14 6 7 8 13 7 8 11 12 3 3 8 15 6 13 6 5 9 4 9 2 14 1 5 3 14 5 14 2 9 9 10 12 11 1 10 12 2 11 4 3 10 15 15 7 14 4 8 5 14 2 10 7 2 3 6 5 11 3 1 11 2 7 4 11 10 10 3 6 3 13 2 4 13 5 9 15 14 13 14 13 15 11 1 1 5 2 7 3 15 11 2 15 11 1 12 6 6 7 6 12 9 15 9 1 7 6 6 8 13 4 12 2 1 1 1 2 9 11 10 7 15 13 11 13 10 7 2 8 14 10 7 14 9 3 4 1 9 11 7 9 4 12 12 3 4 8 9 2 3 11 11 5 11 3 4 5 15 3 2 9 11 13 11 11 8 11 6 2 9 13 4 11 4 13 8 15 1 4 9 9 15 14 3 11 10 9 2 1 3 9 14 9 15 13 15 11 12 13 3 7 6 1 13 11 3 2 3 10 3 9 2 6 7 8 8 10 12 13 13 5 14 11 12 5 3 2 3 3 8 10 10 3 4 15 8 3 6 12 3 15 3 8 4 14 13 15 12 14 7 13 9 9 9 0 10 3 9 6 10 5 1 14 5 13 10 4 13 15 7 1 14 6 1 12 2 10 6 9 13 3 6 8 10 12 1 0 0 9 6 7 6 14 12 11 6 2 10 6 7 5 4 5 11 5 14 5 7 15 4 15 11 14 15 14 14 9 10 0 0 10 3 4 10 4 15 8 13 10 2 12 12 3 14 6 7 1 2 13 10 14 3 15 1 9 11 4 12 13 0 0 0 0 2 14 5 2 12 6 15 13 9 11 2 11 3 7 4 4 14 10 3 12 1 9 8 1 6 7 1 4 0 0 0 0 8 2 2 7 4 6 5 9 1 13 8 3 2 6 10 13 1 9 5 4 5 13 10 11 14 7 14 9 0 0 0 0 8 14 4 12 8 8 9 4 6 11 4 6 15 1 13 6 13 5 2 4 10 6 8 15 4 2 1 0 0 0 0 0 10 4 7 5 9 12 2 13 9 11 9 12 5 12 15 3 13 3 7 14 1 15 13 8 12 5 0 0 0 0 0 0 0 7 4 5 15 5 12 6 7 1 8 1 4 10 9 6 10 2 4 4 14 7 1 4 14 0 0 0 0 0 0 0 0 9 10 1 3 12 15 0 0 0 3 15 14 3 3 7 1 3 13 5 7 3 12 15 0 0 0 0 0 0 0 0 8 11 12 1 12 10 12 6 0 0 0 0 0 0 0 0 0 0 0 0 0 0 0 0 0 0 0 0 0 0 0 0 11 11 3 2 5 12 12 14 3 0 0 0 0 0 0 0 0 0 0 0 0 0 0 0 0 0 0 0 0 0 0 0 4 12 12 1 12 10 15 8 6 13 9 4 0 0 0 0 0 0 0 0 0 0 0 0 0 0 0 0 0 0 0 11 10 7 3 15 7 5 15 10 15 10 2 3 10 13 12 0 0 0 0 0 0 0 0 0 0 0 0 0 0 0 2 1 10 6 15 5 8 12 9 13 11 8 11 10 15 2 2 6 1 7 11 4 11 0 0 0 0 0 2 15 3 13 3 5 11 4 10 5 9 9 12 13 11 5 2 7 13 4 13 3 5 9 7 5 8 12 8 3 3 14 3 14 10 8 1 14 6 6 1 12 10 7 12 1 2 8 6 5 13 11 2 15 10 5 12 11 9 13 3 5 2 1 10 3 1 4 5 8 15 5 5 8 7 7 13 8 3 15 4 7 2 10 12 1 13 2 15 4 5 15 6 14 1 10 10 11 14 13 6 8 7 13 10 3 5 12 9 11 7 10 13 9 4 2 12 13 5 14 2 4 4 12 15 3 3 15 14 5 13 7 5 3 2 8 12 3 15 5 10 4 11 15 6 14 13 9 7 6 8 13 8 11 2 3 2 5 15 8 15 5 1 12 3 7 3 4 3 3 4 11 11 11 7 1 12 4 3 5 14 10 12 2 7 13 8 1 7 15 14 3 11 11 11 7 11 10 6 10 6 5 3 4 12 7 13 12 15 10 10 8 10 2 15 13 15 11 3 10 9 3 5 7 6 12 12 5 15 3 3 14 14 3 13 7 15 6 3 5 13 1 2 8 11 11 3 14 15 9 5 13 11 12 13 10 6 10 4 4 15 11 7 4 1 14 10 7 3 8 12 2 10 2 7 8 6 9 10 12 3 10 12 12 12 15 15 12 14 3 1 7 3 14 1 1 9 3 1 4 1 4 8 9 2 2 15 3 11 11 5 5 12 6 14 8 12 11 7 2 6 11 1 12 1 15 10 5 8 14 3 11 14 14 10 3 15 9 8 15 9 5 13 13 9 8 4 5 5 