P2
33 33
250
15 13 1 15 14 3 13 13 1 7 10 15 4 4 14 15 4 2 7 4 3 13 9 10 11 7 4 7 2 3 5 9 10 3 12 7 6 12 2 15 4 2 8 10 11 12 13 13 6 6 14 7 11 6 5 10 9 2 11 2 10 7 9 15 9 13 2 13 2 12 2 2 5 14 14 2 14 9 10 14 7 6 3 3 11 1 13 12 5 6 13 14 7 15 9 5 7 6 15 6 5 14 8 12 10 14 14 4 9 2 2 3 3 12 1 4 8 15 10 1 6 8 10 9 12 15 6 4 15 4 2 1 13 5 4 8 13 8 7 13 7 12 3 14 11 15 8 6 13 11 2 7 1 11 8 12 12 1 2 2 5 5 13 2 3 3 15 11 15 3 2 9 8 11 7 7 8 14 7 5 6 4 5 7 3 4 2 10 1 13 9 12 8 2 14 10 5 5 9 9 14 6 2 5 4 9 2 7 12 12 1 7 9 12 1 11 15 9 11 10 6 2 7 12 7 12 7 12 6 1 12 0 0 0 6 5 4 5 5 1 7 11 15 5 3 2 6 15 6 4 9 1 3 10 1 7 7 11 2 15 3 1 6 2 2 0 0 0 0 5 1 1 11 4 11 7 10 7 11 14 15 13 7 10 11 13 11 2 11 2 9 1 2 10 3 10 0 12 0 0 0 0 0 0 12 4 3 10 14 15 8 5 11 3 3 9 2 14 12 13 3 5 3 11 14 11 1 0 0 0 12 1 0 0 0 0 0 0 0 0 0 5 3 6 2 15 5 15 13 11 12 8 6 1 8 1 0 0 0 0 0 0 0 11 7 7 4 0 0 0 0 0 0 0 0 0 0 0 0 0 0 0 0 0 0 0 0 0 0 0 0 0 0 0 0 0 8 3 14 2 10 2 0 0 0 0 0 0 0 0 0 0 0 0 0 0 0 0 0 0 0 0 0 0 0 0 0 9 9 6 13 15 7 8 9 5 10 0 0 0 0 0 0 0 0 0 0 0 0 0 0 0 0 0 0 0 0 0 7 7 5 15 12 9 8 1 11 9 10 4 4 12 6 0 0 0 0 0 0 0 0 0 0 0 0 0 0 0 3 12 12 3 14 15 8 1 4 8 12 1 11 11 6 11 11 1 4 3 15 3 13 0 0 0 0 0 7 1 10 15 2 7 12 15 9 6 10 6 5 14 8 15 15 15 2 2 10 7 11 4 13 6 13 15 15 3 12 8 12 11 5 13 1 14 13 5 12 15 12 13 14 2 2 3 3 7 1 4 2 5 6 13 8 5 11 6 10 6 2 12 3 8 12 3 14 3 12 5 9 9 3 6 5 3 6 15 4 12 14 14 8 13 11 12 4 13 5 13 9 7 2 8 8 7 14 7 9 5 10 15 3 1 5 8 13 2 8 5 14 11 12 8 5 9 8 10 7 4 8 8 12 15 3 3 13 4 13 6 5 4 4 9 1 11 10 4 11 12 9 2 5 14 14 3 3 8 15 3 15 8 12 9 12 13 13 5 6 1 5 12 5 4 4 12 7 15 13 12 3 10 6 7 2 13 10 7 11 6 10 9 6 12 5 15 8 11 10 3 8 8 15 6 10 1 5 13 14 11 9 1 11 9 15 5 5 11 1 4 5 2 10 15 10 10 11 6 4 2 12 14 5 3 10 1 15 14 7 8 14 14 13 14 14 13 14 13 12 2 13 5 7 10 10 13 5 2 11 14 5 10 5 6 11 9 4 8 3 12 1 10 2 3 1 1 4 9 7 11 11 14 11 10 4 2 13 15 11 7 13 5 7 15 2 4 4 3 13 11 9 11 5 3 6 9 1 15 9 6 15 3 15 9 12 14 7 8 9 3 14 15 9 14 1 15 2 10 6 4 9 7 10 9 4 12 15 4 1 11 10 1 9 9 5 2 15 12 4 1 3 12 11 12 3 11 7 7 10 2 4 10 6 1 4 12 10 1 3 12 11 14 7 11 8 12 15 2 9 9 10 1 13 11 4 14 3 12 12 14 12 12 6 7 15 4 4 2 10 14 10 11 5 15 7 13 12 15 5 15 11 14 5 9 15 10 11 5 5 15 10 1 4 15 15 1 11 1 10 9 11 4 11 6 14 14 6 14 13 1 6 1 13 14 4 15 14 8 10 2 1 5 4 8 3 7 3 11 12 9 15 14 6 2 11 6 2 9 13 1 13 9 5 14 1 1 3 6 3 13 12 14 4 3 7 13 4 7 14 14 14 3 6 7 5 12 6 6 11 6 7 5 9 9 2 14 11 1 3 11 8 15 2 12 13 6 6 1 6 1 13 11 4 2 8 13 14 1 5 14 9 7 14 5 3 8 15 5 10 13 12 9 3 7 9 14 1 14 7 7 8 8 8 5 12 3 11 8 5 9 7 4 4 7 11 8 5 13 14 1 15 12 3 8 9 12 12 5 10 6 7 