P2
33 33
250
1 9 4 8 15 9 6 13 6 15 13 8 13 15 10 13 14 7 6 5 7 9 14 2 13 7 12 7 10 1 1 13 2 3 13 12 2 13 14 3 10 5 13 7 4 12 15 8 14 4 6 7 13 13 5 11 13 7 14 3 6 1 10 9 15 7 4 8 7 3 11 3 1 4 14 8 6 2 9 1 7 5 6 12 4 7 4 15 8 11 12 10 7 2 5 6 12 12 11 12 7 5 10 15 15 15 11 14 15 8 9 8 6 11 13 10 9 3 13 11 5 1 13 11 1 5 12 10 5 11 8 10 9 10 13 4 8 15 13 7 12 15 7 3 7 14 12 1 2 8 2 15 9 8 3 12 14 11 6 2 15 11 3 6 8 13 6 15 5 12 5 10 11 5 10 15 3 9 14 15 11 6 9 10 13 4 3 15 4 8 14 13 5 8 10 8 14 4 15 14 7 7 3 8 8 7 14 8 3 7 2 3 3 7 11 1 11 3 4 2 13 11 2 12 12 8 14 12 8 9 2 12 8 4 11 4 4 10 8 3 14 2 6 7 12 5 5 6 9 11 3 10 6 15 14 10 5 11 5 12 6 8 1 14 3 12 7 3 1 12 5 5 9 15 12 15 7 3 9 10 9 8 1 4 13 8 4 14 3 5 13 5 12 13 13 3 1 4 6 1 1 10 2 2 14 6 12 13 9 4 15 15 11 2 11 6 12 13 3 8 3 9 5 15 9 9 4 12 10 14 3 4 7 6 12 7 6 9 6 12 12 4 14 8 9 9 4 8 3 11 9 11 11 8 3 11 2 7 6 6 15 3 4 13 15 2 11 1 13 9 10 12 2 1 3 4 15 2 11 14 12 6 13 11 13 2 3 7 10 8 6 8 2 14 8 8 1 8 3 13 7 8 6 15 3 10 4 2 14 11 15 2 12 14 12 1 13 5 6 4 6 8 15 12 8 6 13 2 1 3 2 8 5 3 5 15 13 1 3 7 2 7 1 11 2 12 5 15 9 1 8 3 5 9 0 0 0 0 0 0 12 5 7 13 6 2 7 3 4 8 12 14 7 13 15 10 3 10 13 10 2 15 5 0 0 0 0 0 0 0 0 0 0 0 0 5 14 2 11 15 4 7 12 6 14 7 6 13 8 9 14 4 3 0 0 0 0 0 0 0 0 0 0 0 0 0 0 0 2 1 8 1 2 2 15 14 1 10 14 11 13 15 13 10 0 0 0 0 0 0 0 0 0 0 0 0 0 0 0 0 0 11 9 14 6 2 7 1 14 0 5 7 2 11 14 0 0 0 0 0 0 0 0 0 0 0 0 0 0 0 0 0 0 0 9 2 7 4 10 3 12 2 0 14 15 9 9 0 0 0 0 0 0 0 0 0 0 0 0 0 0 0 0 0 0 0 0 14 15 11 5 6 14 5 5 0 0 1 0 0 0 0 0 0 0 0 0 0 0 0 0 0 0 0 0 0 0 0 0 0 10 9 15 11 7 13 15 10 0 0 0 0 0 0 0 0 0 0 0 0 0 0 0 0 0 0 0 0 0 0 0 0 0 3 14 12 7 14 4 12 14 0 0 0 0 0 0 0 0 0 0 0 0 0 0 0 0 0 0 0 0 0 0 0 0 0 15 9 1 2 2 8 10 12 0 0 0 0 0 0 0 0 0 0 0 0 0 0 0 0 0 0 0 0 0 0 0 0 0 4 4 11 4 14 6 3 7 0 0 0 0 0 0 0 0 0 0 11 15 3 4 5 7 7 3 1 4 5 15 13 13 15 5 15 13 10 2 12 12 13 0 0 0 0 0 0 6 12 6 15 5 12 14 11 15 1 8 2 11 11 9 11 8 8 11 4 14 11 11 8 15 11 0 0 0 0 0 7 7 10 4 5 7 11 13 10 13 9 3 5 5 14 7 12 1 1 2 4 13 2 5 2 12 4 14 0 0 2 11 12 4 2 11 9 8 12 15 7 15 3 12 8 7 13 4 10 6 15 14 12 11 1 7 10 9 3 1 15 4 10 4 5 8 13 5 3 11 1 10 13 10 11 14 9 14 1 13 1 8 9 12 2 7 8 14 10 5 4 5 10 6 9 13 15 1 1 5 11 11 9 5 8 10 10 12 9 4 10 8 15 9 11 6 9 4 1 9 1 10 2 9 12 13 1 1 3 10 8 15 11 12 1 15 14 10 9 3 3 3 1 14 8 10 2 14 5 4 1 4 4 14 9 11 6 5 5 15 10 8 4 15 5 15 13 14 11 5 10 10 4 14 4 14 14 1 11 15 13 15 3 1 1 14 3 3 5 4 13 1 6 8 10 15 3 5 15 3 6 13 1 4 8 10 5 6 12 3 3 3 9 4 5 7 15 14 4 1 12 1 12 5 9 5 14 6 11 2 8 1 6 2 5 7 4 4 15 13 8 7 14 2 14 11 4 3 6 6 9 13 