P2
33 33
250
11 1 5 10 10 3 11 4 6 7 2 14 6 5 6 8 6 8 11 8 5 6 15 3 14 5 13 12 4 6 9 7 10 12 4 11 10 3 8 13 14 7 11 1 2 11 11 13 6 12 11 9 15 9 3 13 8 1 7 9 9 12 8 4 3 14 4 8 9 6 8 13 2 11 13 6 1 13 10 8 12 4 13 15 15 9 5 14 9 12 4 3 8 15 9 7 11 2 14 10 9 14 4 14 14 4 14 4 4 13 8 10 5 5 12 11 9 7 13 15 9 3 3 7 2 4 7 14 3 4 1 4 9 8 2 8 12 8 9 5 13 12 2 12 15 5 5 2 11 3 7 1 14 7 11 14 9 1 7 7 8 1 7 6 6 4 9 10 12 5 13 12 3 6 12 1 2 15 9 3 14 5 13 4 10 12 4 6 3 11 13 1 2 12 5 12 9 4 10 13 3 13 3 1 4 3 15 13 12 12 3 9 3 15 1 14 4 10 12 7 6 8 3 10 12 2 5 12 15 3 13 10 12 7 8 7 11 3 8 9 7 12 4 7 14 11 6 14 4 13 6 11 4 8 12 1 13 7 7 3 5 4 5 11 10 11 13 15 11 6 2 14 14 12 12 12 15 3 0 0 0 0 0 0 15 13 2 9 11 9 12 15 14 13 11 9 12 9 1 6 6 2 4 10 7 7 9 0 0 0 0 0 0 0 0 0 0 0 0 0 0 0 13 15 14 12 11 12 9 13 15 6 6 7 1 7 15 0 0 0 0 0 0 0 0 0 0 0 0 0 0 0 0 0 0 0 0 3 13 14 5 14 12 4 6 9 7 3 0 0 0 0 0 0 0 0 0 0 0 0 0 0 0 0 0 0 0 0 0 0 0 0 1 2 2 11 6 7 8 8 0 0 0 0 0 0 0 0 0 0 0 0 0 0 0 0 0 0 0 0 0 0 0 0 0 0 0 4 10 6 14 0 0 0 0 0 0 0 0 0 11 13 3 14 2 11 12 1 11 7 1 6 0 0 0 0 0 0 0 0 0 8 15 0 0 0 0 0 0 0 12 14 5 13 5 1 9 4 14 3 8 11 11 15 13 13 10 4 0 0 0 0 0 0 0 0 0 0 0 0 0 11 1 9 1 13 5 15 12 13 5 8 6 9 15 7 4 4 3 7 7 2 10 0 0 0 0 0 0 0 0 0 11 7 12 5 14 14 5 4 5 9 15 15 12 14 2 12 14 6 6 5 11 6 13 4 9 3 0 0 0 0 0 0 10 13 7 1 4 4 7 7 7 12 3 8 4 8 3 10 12 2 14 2 5 12 11 13 13 10 10 9 0 0 0 6 10 1 13 14 7 4 15 8 14 4 13 1 11 10 3 4 4 8 5 14 8 1 8 1 8 3 15 3 7 3 4 4 8 2 7 3 4 5 8 14 4 11 6 12 15 2 15 10 6 11 3 10 6 8 12 3 14 11 10 1 9 1 2 15 8 9 2 8 9 11 15 6 2 9 4 2 3 1 13 12 2 15 6 3 4 5 13 4 1 4 1 2 12 3 9 12 15 5 2 2 1 14 8 3 15 1 9 10 12 1 3 15 5 9 7 1 12 11 7 9 10 9 7 12 6 12 13 13 8 3 5 9 11 12 10 1 4 6 14 6 13 15 2 7 13 15 15 3 15 15 4 11 11 14 15 5 9 10 1 13 1 8 3 10 13 8 5 10 5 13 1 4 7 11 7 8 13 9 6 3 12 5 4 7 8 8 10 8 15 3 3 14 1 4 1 3 12 14 12 7 13 13 8 4 9 12 10 10 8 6 3 3 6 12 12 3 14 13 15 4 2 1 10 6 7 8 5 3 1 14 9 4 15 9 1 14 15 9 14 11 2 10 9 8 15 8 1 15 8 13 2 13 12 9 5 2 15 12 7 7 9 10 12 5 7 14 13 10 2 14 2 2 5 4 7 4 8 14 13 9 11 4 10 5 9 12 9 7 15 10 5 13 12 7 13 15 13 13 5 14 15 10 3 2 4 11 6 11 5 5 4 11 7 5 13 12 10 7 7 7 8 15 15 9 14 3 3 1 11 4 1 7 10 2 15 2 13 12 7 13 4 8 4 4 11 6 7 4 10 4 14 6 10 10 6 9 12 11 14 14 2 13 15 14 2 1 8 2 3 7 4 7 1 8 11 4 3 4 4 5 4 6 13 10 1 15 15 5 11 7 6 9 3 9 14 2 15 3 10 5 9 12 11 11 14 12 2 15 5 13 6 2 11 7 3 12 10 15 7 8 4 4 15 5 13 8 3 3 3 9 8 14 6 7 5 8 10 2 1 6 5 2 10 9 8 10 11 13 13 4 7 13 14 3 6 1 14 7 7 9 8 13 8 9 7 6 14 11 3 7 3 15 15 13 12 15 14 15 4 11 5 4 3 3 7 10 9 13 15 2 6 12 1 