P2
33 33
250
12 7 15 11 10 4 6 7 5 14 10 2 13 13 13 11 8 11 15 7 3 10 10 12 13 4 12 3 11 2 2 8 6 14 6 7 15 11 4 15 7 1 9 14 5 14 15 6 14 4 8 12 2 8 13 2 8 12 4 10 14 6 11 3 6 14 12 5 7 6 4 1 5 9 3 10 7 2 2 12 8 14 7 14 2 4 13 11 11 6 1 1 11 4 11 15 13 8 11 4 3 7 12 9 6 7 8 10 1 7 7 6 13 15 4 7 7 3 12 12 7 7 13 10 12 12 15 6 15 2 5 13 14 6 3 6 5 11 5 13 15 3 15 9 14 9 13 8 9 13 12 12 13 10 4 9 13 13 1 14 14 14 1 6 8 2 10 3 15 15 9 13 5 4 1 4 15 2 11 1 7 11 6 5 7 6 11 10 12 1 2 5 6 11 11 8 14 10 12 4 6 2 7 6 6 2 6 6 12 11 4 1 7 4 9 5 15 5 3 9 1 7 7 6 10 13 1 4 10 4 2 13 10 14 12 14 9 1 2 5 6 5 4 7 10 6 7 8 13 5 11 6 15 11 14 6 14 11 4 9 12 6 8 11 12 14 2 6 9 2 2 3 9 5 10 11 11 9 4 8 4 5 5 8 2 11 9 13 3 8 14 1 1 15 12 2 12 13 7 5 11 13 14 1 10 13 10 10 5 4 7 7 13 3 11 7 9 5 1 15 14 10 9 8 13 3 2 2 7 2 4 7 6 6 11 6 1 6 8 13 11 3 7 11 12 1 3 15 2 14 1 7 9 7 8 9 9 3 3 13 13 8 3 12 15 1 4 7 1 13 5 13 4 15 15 14 6 5 5 14 11 10 1 14 7 13 6 3 6 1 12 3 7 12 10 6 14 8 15 1 12 4 9 11 6 1 9 11 14 13 9 5 2 15 12 7 4 8 11 14 7 2 3 10 14 2 12 12 1 14 7 8 9 3 8 12 9 9 7 14 1 6 1 2 5 3 6 12 11 14 5 9 11 7 9 15 8 4 7 9 5 2 12 8 13 4 3 5 9 4 7 6 11 2 10 15 1 11 1 6 6 1 1 2 12 15 12 7 10 2 7 4 7 11 14 14 14 9 5 12 13 1 6 4 13 9 14 12 11 5 6 3 12 2 8 5 14 1 8 14 3 10 14 1 10 2 10 5 14 6 8 1 8 7 12 5 4 13 14 3 2 5 8 6 13 7 6 3 2 13 7 7 9 7 6 3 8 4 5 11 9 13 10 3 2 15 10 2 6 2 8 1 8 8 13 7 7 8 14 12 8 2 3 3 6 13 7 4 6 5 8 6 2 15 13 1 7 3 3 13 8 11 14 8 9 10 8 12 12 13 14 10 7 3 11 2 14 8 11 3 12 11 2 10 5 13 15 10 13 9 5 12 1 4 13 11 6 12 13 6 7 8 3 11 13 3 5 1 13 15 5 15 4 8 7 11 15 12 14 11 1 5 9 14 4 5 2 12 10 1 13 9 8 9 11 6 11 5 8 9 7 12 14 3 1 3 5 14 3 4 9 1 2 7 5 6 8 8 3 14 7 6 15 2 3 6 3 7 6 6 12 14 13 2 6 11 1 0 0 0 0 0 3 3 2 7 11 9 11 7 15 8 8 2 9 2 4 14 14 2 9 7 1 6 13 6 0 0 0 0 0 0 0 0 0 0 0 0 0 2 3 14 13 14 12 2 15 3 8 1 8 6 1 9 10 13 0 0 0 0 0 0 0 0 0 0 0 0 0 0 0 0 3 2 15 15 11 10 15 9 7 11 12 14 3 10 12 0 0 0 0 0 0 0 0 0 0 0 0 0 0 0 0 0 0 3 3 6 12 3 12 12 6 4 11 11 5 5 13 0 0 0 0 0 0 0 0 0 0 6 7 13 4 7 0 0 0 0 9 7 13 10 7 15 8 6 5 1 7 5 0 0 0 0 0 0 0 0 11 7 14 10 10 14 3 11 7 14 8 6 0 1 15 15 4 7 6 7 5 3 14 8 0 0 0 0 0 0 12 4 11 15 7 5 13 5 5 7 14 7 11 14 8 1 8 7 3 6 3 6 13 3 5 7 0 0 0 0 0 0 15 6 14 6 10 2 15 11 3 1 8 11 12 12 13 13 10 9 14 15 11 6 4 13 3 6 0 0 0 0 0 5 12 14 1 3 8 2 9 13 2 9 15 14 10 5 13 7 8 2 10 15 5 10 8 3 8 10 0 0 0 0 0 13 9 15 5 7 9 2 3 12 14 5 5 7 9 3 15 1 15 2 10 6 4 13 13 10 10 9 0 0 0 0 11 11 15 14 7 10 13 11 3 8 12 14 5 9 7 14 13 6 8 13 1 6 15 10 10 5 12 8 0 0 0 0 10 8 11 10 5 11 7 3 10 13 7 1 7 6 15 11 12 8 3 14 14 11 1 