P2
33 33
250
5 9 3 15 6 12 15 9 4 4 14 15 4 14 1 12 8 12 3 7 10 2 4 15 15 10 12 9 13 8 13 4 3 9 1 5 7 10 4 8 13 10 1 14 9 13 7 3 3 3 15 4 1 3 14 5 7 8 11 3 3 14 2 10 12 13 6 13 5 10 15 12 9 7 10 10 3 8 15 4 13 2 2 10 4 5 2 5 14 1 3 13 13 13 10 5 8 4 4 3 4 10 9 15 15 9 7 7 13 6 9 1 13 13 5 2 4 1 2 2 15 10 13 5 8 8 15 10 11 12 13 5 2 11 1 11 11 13 12 6 13 12 5 9 7 11 4 2 3 4 1 12 8 9 7 8 3 4 4 9 4 13 6 6 4 14 9 2 2 11 14 13 9 6 12 4 2 4 1 14 8 10 14 11 6 1 4 4 13 13 11 6 12 8 14 3 11 7 11 14 7 13 5 12 14 6 10 10 4 5 9 12 13 6 15 12 2 8 12 12 3 10 15 4 10 8 6 6 6 11 11 12 6 15 12 14 11 4 2 13 13 4 9 13 0 0 0 0 0 0 7 2 8 10 10 7 6 2 8 14 2 12 15 7 2 13 7 10 10 11 10 0 0 0 0 0 0 0 0 0 0 0 0 0 0 0 0 0 0 14 2 1 6 9 11 10 15 8 3 10 8 3 0 0 0 0 0 0 0 0 0 0 0 0 0 0 0 0 0 0 0 0 0 0 2 3 6 10 6 2 7 1 1 0 0 0 0 0 0 0 0 0 0 0 0 0 0 0 0 0 0 0 0 0 0 0 0 0 0 6 6 9 8 6 0 0 0 0 0 0 0 0 0 0 0 0 0 0 0 0 0 0 0 0 0 0 0 0 0 0 0 0 0 0 3 7 0 0 0 0 0 0 0 0 0 0 0 0 0 0 0 0 0 0 0 0 0 0 0 0 0 0 0 0 0 0 0 0 5 0 0 0 0 0 0 0 0 0 8 9 13 15 6 2 4 6 13 3 10 14 12 6 0 0 0 0 0 0 0 0 0 8 0 0 0 0 0 10 12 14 1 12 3 8 11 2 11 10 11 4 4 13 15 15 14 9 5 9 15 0 0 0 0 0 5 0 0 0 12 8 7 11 1 4 15 7 1 5 12 6 15 1 9 7 11 10 6 3 6 9 7 9 7 12 0 0 0 12 9 15 7 3 6 3 6 6 7 9 10 3 15 8 6 12 6 15 1 11 13 8 15 3 2 4 2 12 3 7 5 6 2 14 15 12 9 10 2 7 9 4 9 4 1 14 9 12 9 15 9 14 8 7 13 15 12 2 7 13 8 13 15 10 11 11 11 1 14 11 15 7 13 2 13 1 13 11 8 9 4 5 3 2 15 7 12 13 2 5 14 7 9 10 10 9 3 6 11 4 12 4 7 9 13 15 2 3 13 9 11 15 5 6 12 2 1 8 3 12 7 7 4 3 15 13 7 12 10 2 14 12 11 8 6 1 14 8 2 9 3 10 10 8 6 1 8 6 9 14 12 13 15 8 13 14 2 11 3 11 12 7 11 15 13 6 11 2 14 4 7 13 14 4 9 13 11 4 4 10 8 6 9 5 14 6 4 10 14 14 7 7 6 2 8 4 10 1 3 8 2 1 13 1 6 3 8 7 7 12 7 14 3 11 1 9 6 2 15 1 9 8 1 10 13 13 1 4 6 8 8 5 13 10 13 14 13 7 10 6 13 13 2 6 11 15 8 2 4 3 4 13 3 8 4 5 14 14 6 8 7 13 1 1 11 11 9 2 6 10 11 10 10 9 2 7 11 11 8 1 7 8 1 7 9 2 13 13 11 9 14 2 4 2 6 11 4 5 10 10 3 14 9 12 12 1 7 4 15 9 6 5 6 3 6 12 12 5 7 15 11 5 5 12 14 4 11 1 15 6 2 6 6 10 7 5 3 15 1 14 6 13 1 1 9 9 5 13 8 11 14 3 7 14 9 12 10 14 10 1 11 9 11 14 1 12 15 12 3 14 4 1 11 6 7 4 8 5 7 6 11 10 4 3 13 13 5 10 5 9 2 7 14 11 8 2 12 7 8 13 2 7 15 1 15 15 15 4 15 13 12 11 1 13 1 6 7 15 7 2 8 8 10 1 1 8 5 2 15 8 12 6 8 10 9 7 4 6 13 11 12 7 14 4 4 7 14 2 2 2 2 11 9 15 13 4 4 1 10 9 10 9 1 9 14 10 5 13 5 3 14 11 14 13 2 12 2 4 3 14 5 10 3 11 15 4 15 3 7 6 8 13 15 11 2 13 4 7 11 6 1 6 2 13 9 4 14 9 10 13 6 1 10 3 10 10 6 4 5 12 2 2 2 1 9 7 6 2 9 3 3 10 13 14 6 3 4 15 3 14 8 13 4 14 7 14 1 15 9 8 12 14 11 12 4 1 1 5 15 2 15 