P2
33 33
250
15 11 15 9 15 6 11 10 14 4 8 1 5 4 9 4 8 15 6 14 12 1 6 15 15 4 10 7 4 9 3 3 2 10 10 5 5 3 7 6 12 12 9 7 10 3 14 14 1 9 12 11 13 4 7 2 6 2 12 4 3 11 11 11 12 12 11 1 1 7 3 4 9 8 15 4 3 13 3 8 7 3 2 9 13 6 14 2 9 11 15 1 6 1 1 15 6 6 4 4 10 6 4 15 1 14 9 4 9 5 7 11 11 13 10 2 5 2 12 9 15 1 9 15 10 5 9 6 9 6 3 5 0 0 1 9 8 12 14 3 10 14 3 6 9 4 1 14 2 4 12 13 13 13 15 15 13 2 8 1 13 9 11 13 11 0 0 12 13 1 12 9 4 10 2 12 6 3 9 15 4 15 4 6 9 12 3 6 10 11 15 12 4 13 8 14 7 2 5 0 9 5 11 10 1 10 4 10 11 5 12 2 4 15 1 13 12 5 6 3 13 6 6 1 4 2 14 8 1 10 6 13 0 0 6 9 12 3 8 5 10 8 5 7 11 12 13 14 13 9 2 9 9 15 9 10 11 4 1 4 14 6 2 9 12 0 0 0 4 9 11 9 10 3 13 15 5 13 9 10 12 4 6 6 11 13 1 15 8 6 1 11 7 15 2 7 0 12 0 0 0 0 0 0 2 10 3 1 7 1 8 6 2 11 6 11 6 1 8 9 12 1 7 9 7 13 4 0 0 0 10 5 0 0 0 0 0 0 0 0 0 0 0 0 0 0 0 0 0 0 0 0 0 0 0 0 0 0 0 0 0 0 0 13 12 0 0 0 0 0 0 0 0 0 0 0 0 0 0 0 0 0 0 0 0 0 0 0 0 0 0 0 0 0 0 0 15 12 15 0 0 0 0 0 0 0 0 0 0 0 0 0 0 0 0 0 0 0 0 0 0 0 0 0 0 0 0 0 0 6 12 15 5 9 0 0 0 0 0 0 0 0 0 0 0 0 0 0 0 0 0 0 0 0 0 0 0 0 0 0 3 3 2 10 5 14 7 9 12 0 0 0 0 0 0 0 0 0 0 0 0 0 0 0 0 0 0 0 0 0 0 6 11 11 1 6 11 7 3 15 12 14 13 11 4 15 10 14 10 2 1 7 0 0 10 9 11 11 11 14 9 9 3 11 7 11 15 10 13 6 11 10 1 6 9 13 10 10 7 8 10 12 6 14 6 8 13 7 1 15 12 3 7 4 2 13 7 14 14 15 8 7 6 5 10 1 7 1 10 3 11 15 3 9 7 15 6 2 9 7 2 10 1 2 3 9 10 2 9 1 3 3 15 4 6 14 7 5 14 12 8 9 7 14 4 1 7 8 12 8 10 10 15 7 15 12 11 6 12 5 4 13 6 3 6 7 8 10 6 12 2 10 8 14 9 12 12 15 8 6 4 3 12 12 3 9 12 13 13 13 6 7 7 7 5 5 14 15 14 1 14 13 3 13 8 9 11 5 11 10 1 9 8 5 7 10 12 3 13 9 15 10 5 11 7 1 14 1 11 6 3 7 4 2 10 5 9 8 6 5 4 9 14 5 5 14 14 6 12 13 5 10 8 2 2 1 5 14 5 8 5 12 10 2 13 8 9 4 8 5 11 10 10 5 7 12 12 2 5 6 3 14 11 11 7 13 11 9 11 9 13 1 7 12 3 6 10 4 6 1 13 14 1 1 14 1 6 4 7 13 15 12 10 8 2 5 9 4 12 12 8 10 11 4 6 11 2 2 3 1 9 8 11 14 14 1 6 3 14 14 15 12 6 10 13 1 15 3 9 1 11 1 5 4 15 2 6 13 11 10 3 4 14 15 11 11 12 11 2 1 3 13 1 4 13 12 11 12 14 8 14 9 14 3 8 9 14 1 2 10 9 8 3 13 1 13 7 7 2 4 13 7 2 13 4 9 10 14 14 2 12 11 1 7 14 9 3 11 7 3 14 11 7 1 10 3 1 1 5 6 13 6 9 13 15 5 15 14 2 4 2 3 4 5 7 4 2 6 6 12 2 4 3 13 7 2 14 10 1 12 15 12 4 2 1 12 12 15 12 7 9 6 8 6 5 6 5 8 11 5 3 1 4 5 12 10 11 8 1 5 5 15 5 11 9 15 6 8 8 13 2 3 1 6 2 5 3 4 7 8 10 5 6 15 9 3 6 15 13 15 12 3 7 15 10 8 13 2 6 14 13 5 8 9 12 13 2 12 5 8 6 6 7 1 7 2 11 10 14 5 7 7 1 15 6 11 3 7 7 3 12 2 11 15 8 3 15 14 12 3 4 1 4 10 9 7 3 3 13 2 4 2 5 9 6 4 14 6 2 11 10 9 9 10 9 7 15 14 8 6 13 2 9 5 9 2 3 7 15 12 12 1 8 7 8 3 9 12 2 13 14 1 13 3 6 6 4 8 15 