P2
33 33
250
15 8 11 1 13 3 11 2 5 6 8 15 13 13 2 11 2 2 8 6 13 15 7 8 1 5 14 1 3 7 5 7 10 15 13 5 10 13 7 10 5 1 11 15 1 5 8 4 3 14 1 6 13 14 13 12 6 9 13 15 8 15 4 12 11 3 9 2 15 9 1 7 15 10 8 13 11 7 10 6 15 4 4 13 14 1 6 8 11 3 15 6 11 2 10 13 10 7 4 12 5 6 10 9 8 14 12 9 13 9 2 8 5 2 10 7 4 15 3 12 15 6 13 3 8 13 15 6 3 5 7 6 14 13 14 1 5 7 4 7 2 4 2 3 9 8 14 9 13 14 10 12 14 12 15 5 8 5 4 8 8 2 5 12 11 6 10 9 6 15 1 11 11 5 7 15 14 15 3 8 9 13 4 2 5 2 2 4 7 6 15 5 3 7 13 4 8 12 13 5 6 12 15 15 10 4 11 8 6 11 13 9 14 11 4 15 1 6 2 1 3 14 4 6 15 8 5 2 14 13 10 12 11 14 12 8 10 11 3 6 1 9 9 12 6 1 3 3 13 1 13 6 14 11 15 3 6 2 10 7 14 9 3 4 8 1 14 5 14 7 3 13 14 2 11 11 5 13 9 5 15 8 14 4 11 7 15 4 6 8 7 14 10 2 12 11 2 12 9 1 3 13 6 2 11 5 3 9 8 10 10 3 15 14 1 14 1 2 6 5 11 14 15 5 5 6 3 6 7 3 13 3 3 6 4 4 2 3 14 14 10 12 4 10 14 4 10 12 5 10 4 9 11 7 10 10 10 9 4 10 12 5 6 8 2 11 15 11 4 5 8 11 5 1 11 10 9 15 10 12 13 2 10 3 9 15 14 5 12 8 6 12 15 5 12 3 13 14 4 1 12 7 5 14 1 13 2 6 13 15 1 6 5 10 6 6 11 9 12 6 8 15 15 4 7 6 8 10 13 13 12 5 15 12 6 14 9 10 6 5 2 11 4 4 7 6 15 14 9 1 7 9 6 8 3 2 13 9 15 2 13 8 1 1 12 10 3 0 1 9 4 3 9 13 3 7 11 3 5 3 1 12 14 13 8 3 9 12 8 15 15 5 15 8 12 15 3 2 10 8 0 0 3 1 7 4 15 10 1 7 9 2 7 5 2 14 5 5 7 10 2 8 13 2 7 4 0 0 1 11 4 9 14 0 0 0 0 7 12 5 9 15 8 4 11 13 2 2 13 7 2 5 10 13 8 7 12 0 0 0 0 4 7 6 9 11 0 0 0 0 0 0 0 3 14 15 1 8 11 5 14 9 4 15 8 2 15 0 0 0 0 0 0 0 14 13 8 6 5 0 0 0 0 0 0 0 0 0 0 0 0 0 0 0 0 0 0 0 0 0 0 0 0 0 0 0 0 6 7 11 8 11 0 0 0 0 0 0 0 0 0 0 0 0 0 0 0 0 0 0 0 0 0 0 0 0 0 0 0 0 3 7 14 13 14 3 0 0 0 0 0 0 0 0 0 0 0 0 0 0 0 0 0 0 0 0 0 0 0 0 0 0 2 13 5 13 13 6 4 3 1 0 0 0 0 0 0 0 0 0 0 0 0 0 0 0 0 0 0 0 0 0 0 11 10 2 2 10 12 3 6 15 7 11 13 5 4 0 0 0 0 0 0 0 0 0 0 0 0 0 0 0 0 2 2 14 14 7 11 11 10 14 2 6 5 15 14 9 3 10 10 10 14 14 11 0 0 0 0 0 14 14 15 3 3 9 7 7 10 9 2 12 8 6 10 8 9 8 9 8 13 15 11 12 4 15 14 15 7 9 13 6 13 11 4 4 5 4 10 11 8 6 9 5 8 13 5 7 9 8 12 8 13 4 10 1 3 1 10 13 3 14 13 13 6 11 5 6 1 2 5 12 15 10 11 15 3 8 15 14 11 10 14 15 15 5 10 14 7 15 2 10 7 14 8 11 13 11 12 3 10 6 11 7 3 2 8 14 4 6 8 5 13 14 15 1 8 11 3 1 3 11 5 1 3 10 3 1 15 10 1 15 3 4 12 9 10 9 6 5 11 15 6 15 4 11 1 5 10 5 2 14 14 13 8 1 10 11 9 6 11 1 3 5 1 12 6 8 5 8 1 1 14 2 2 8 6 4 12 12 15 7 9 12 11 14 2 14 1 8 9 7 9 2 3 11 8 9 4 14 7 13 8 3 10 11 8 7 6 12 13 10 6 2 5 7 5 11 4 4 12 6 1 7 7 13 13 11 7 2 8 2 7 3 12 13 15 5 1 3 4 13 12 5 5 8 5 9 9 4 5 8 11 3 14 6 8 3 1 14 7 2 11 6 1 7 5 3 10 9 4 9 9 13 14 3 3 14 11 1 2 9 7 7 5 5 10 6 1 9 9 10 1 2 9 1 10 5 4 11 9 2 11 7 11 15 10 4 6 