P2
33 33
250
15 7 12 12 8 13 10 14 2 4 3 7 3 11 14 3 2 1 14 9 15 12 14 7 15 6 12 12 14 5 13 10 7 1 6 15 7 14 2 13 6 9 5 12 6 3 14 14 15 10 8 10 6 2 2 5 9 1 5 2 8 15 8 14 12 3 3 2 13 8 15 4 6 13 1 8 9 11 10 5 5 9 5 5 14 15 1 1 4 9 7 1 3 1 3 15 4 5 7 10 12 9 9 6 14 12 8 13 9 3 8 3 9 5 4 12 4 4 8 9 7 9 15 5 13 7 4 15 2 14 10 5 13 5 12 7 2 11 10 9 11 1 5 4 10 9 6 2 1 12 8 1 7 6 10 3 6 7 2 9 10 1 9 5 15 3 13 8 4 14 14 1 6 1 4 2 1 5 7 4 13 7 15 4 6 8 4 4 7 8 7 3 15 8 13 10 13 9 5 1 8 13 15 8 7 2 14 10 1 6 5 14 13 0 0 0 0 0 5 5 7 13 7 13 7 11 15 1 2 11 8 15 1 12 9 8 1 7 2 9 1 12 0 0 0 0 0 0 0 0 0 0 0 0 0 13 12 1 14 9 13 6 15 2 5 7 5 14 8 8 5 5 0 0 0 0 0 0 0 0 0 0 0 0 0 0 0 0 0 0 0 11 1 10 13 11 14 6 1 14 6 10 11 10 0 0 0 0 0 0 0 0 0 0 0 0 0 0 0 0 0 0 0 0 0 5 8 6 7 6 6 12 1 8 2 0 0 0 0 0 0 0 0 0 0 0 0 0 0 0 0 0 0 0 0 0 0 0 0 0 5 13 4 10 13 3 4 0 0 0 0 8 13 2 4 6 1 10 11 13 10 14 13 14 7 3 11 5 5 0 0 0 0 0 3 6 14 4 1 0 0 0 13 5 8 5 12 5 14 6 1 9 10 10 14 3 11 3 11 13 12 6 9 2 8 0 0 0 15 2 9 0 0 15 13 11 14 2 4 5 15 8 7 10 11 11 11 12 15 7 1 3 9 14 1 2 15 1 1 1 0 0 1 12 0 1 10 4 1 15 2 9 5 8 8 12 2 2 3 2 3 3 15 2 9 15 1 11 3 2 2 14 11 1 0 15 0 15 3 1 6 6 11 3 7 6 7 13 14 7 9 10 9 8 6 1 2 13 12 5 15 9 7 6 3 6 8 7 3 4 7 5 12 11 2 14 10 4 14 10 8 5 4 3 1 8 1 14 10 6 10 5 14 2 7 10 15 12 2 14 12 12 12 11 2 15 3 11 5 10 11 14 13 13 12 8 2 5 3 3 10 2 13 10 8 12 15 12 15 10 14 8 15 6 6 1 9 7 5 2 15 11 4 11 11 1 13 1 5 5 1 9 7 7 15 3 7 15 9 3 14 1 2 14 12 6 11 1 7 10 12 1 15 9 7 5 4 2 15 4 12 12 11 15 1 6 1 11 12 4 11 6 9 2 6 8 1 10 4 6 5 11 13 7 7 6 8 1 5 15 5 13 11 2 11 9 9 6 4 3 10 4 12 6 15 9 2 9 13 4 15 9 4 8 13 3 7 7 14 10 15 8 10 11 3 15 13 12 10 2 15 12 9 9 6 7 2 1 12 12 1 2 8 6 10 12 14 6 6 2 2 10 9 9 7 8 6 3 11 12 6 8 3 13 1 1 10 11 4 15 5 14 11 11 12 11 8 14 3 6 14 5 6 11 11 11 13 10 2 12 12 7 15 4 10 4 12 3 4 8 15 14 5 6 5 2 5 15 13 1 14 8 8 13 11 4 1 7 14 9 15 2 2 1 3 4 6 1 12 6 10 5 14 12 1 14 4 15 15 15 15 4 7 15 8 7 12 13 8 8 3 7 6 10 1 1 5 5 1 15 1 13 11 1 11 6 11 6 8 5 14 2 5 8 7 5 5 14 12 6 4 11 7 12 5 12 8 8 15 10 10 8 11 11 10 15 11 10 6 3 6 11 15 10 9 2 9 12 7 15 10 5 15 11 1 10 3 4 5 5 3 2 9 8 15 1 14 13 7 10 4 9 6 3 8 12 13 14 4 11 7 2 13 4 1 10 9 12 8 3 5 8 2 6 6 3 3 6 8 7 8 4 4 4 7 4 2 15 13 5 7 3 14 11 13 4 10 5 10 6 11 15 10 6 6 1 8 10 2 1 12 14 14 9 7 4 3 11 7 14 4 15 7 11 1 11 1 15 6 2 6 2 5 2 13 6 11 13 13 4 7 9 14 2 14 10 2 4 2 10 8 15 8 6 14 1 15 4 6 9 2 7 9 8 12 5 4 7 4 3 11 7 14 13 8 8 5 4 15 2 5 5 7 8 6 2 12 2 15 14 3 10 8 12 11 9 10 15 7 7 2 6 8 9 4 2 11 3 7 11 4 11 12 9 2 2 3 10 12 14 15 13 10 14 8 6 15 10 10 