P2
33 33
250
6 11 6 2 11 12 7 11 7 11 5 1 15 13 12 13 15 2 8 8 13 4 14 1 12 3 4 3 8 10 15 15 5 8 3 15 7 5 13 13 13 12 15 11 6 15 10 11 10 14 5 13 7 3 2 7 5 12 8 2 14 2 4 11 7 6 12 15 9 8 14 6 10 3 12 10 14 9 10 9 12 7 3 8 8 6 5 14 6 6 9 13 11 7 7 14 8 15 12 8 2 11 6 9 4 4 13 14 4 4 13 1 14 15 15 6 4 14 7 15 9 10 9 15 2 12 6 14 13 14 3 8 1 11 13 6 11 8 8 6 5 7 10 11 6 7 6 1 13 2 7 1 15 10 11 15 6 13 3 12 12 8 10 1 6 12 11 14 14 15 9 12 4 8 1 4 6 5 4 5 8 5 14 1 15 10 3 15 15 6 1 1 13 1 6 7 10 3 14 4 13 4 12 6 13 5 15 3 3 3 7 11 11 5 1 4 8 10 1 3 3 5 11 10 15 6 1 6 11 2 6 1 5 10 12 12 6 13 5 6 11 13 4 3 12 1 11 2 3 3 13 0 0 0 0 0 6 4 5 11 9 12 4 2 12 2 9 6 5 3 13 9 15 14 6 1 3 10 14 0 0 0 0 0 0 0 0 0 0 0 0 0 0 0 15 3 6 11 7 15 2 10 8 7 8 4 12 5 15 5 0 0 0 0 0 0 0 0 0 0 0 0 0 0 0 0 0 0 0 0 9 11 5 14 11 12 10 14 5 15 11 0 0 0 0 0 0 0 0 0 0 0 0 0 0 0 0 0 0 0 0 0 0 8 10 2 10 4 11 6 2 10 0 0 0 0 0 0 0 0 9 2 5 4 13 9 4 13 8 9 6 8 15 6 2 2 3 11 14 11 6 14 6 0 0 0 0 0 0 14 2 15 4 12 5 10 5 13 1 10 12 9 10 12 12 7 8 8 12 12 3 11 7 15 9 0 0 0 0 5 2 7 2 14 10 2 14 14 4 1 8 11 10 9 7 11 6 1 7 3 13 1 10 12 14 12 12 0 0 0 9 8 9 7 12 1 6 9 12 4 10 6 15 10 8 4 3 3 8 5 9 2 2 10 13 5 15 4 0 0 0 13 6 2 10 8 7 3 5 1 15 6 10 13 2 4 5 11 3 7 14 12 5 14 10 15 10 7 3 13 0 0 3 5 4 6 1 15 9 2 10 4 4 15 7 14 5 10 12 5 5 10 6 2 15 7 1 11 2 3 15 8 0 0 2 2 14 2 5 12 13 14 10 9 1 8 12 3 8 6 14 6 15 14 4 7 3 15 4 12 8 10 1 11 8 14 6 2 6 10 9 11 13 9 11 4 5 6 9 1 1 6 13 11 9 9 4 6 7 8 12 15 5 12 7 8 7 5 2 10 5 12 10 4 4 9 13 11 6 5 6 15 15 15 14 8 2 6 6 11 10 8 9 14 9 15 8 9 14 11 4 12 10 2 13 1 2 9 2 8 14 3 5 8 8 3 3 13 13 6 9 4 7 15 7 12 15 10 14 11 2 4 5 14 8 3 7 3 3 10 7 11 13 2 7 8 9 4 1 6 13 15 14 4 4 10 3 6 9 7 9 9 12 14 5 1 15 4 10 12 1 5 7 5 3 10 9 9 15 8 6 9 3 8 11 13 2 13 11 6 1 14 4 1 6 1 2 4 9 8 14 14 6 1 14 4 3 8 13 3 6 9 7 4 5 3 10 7 14 13 8 4 14 12 3 15 3 13 5 12 8 2 3 14 9 12 10 3 14 6 4 11 4 15 11 15 14 9 3 13 10 8 10 3 11 2 10 10 13 4 4 7 11 13 10 9 3 15 3 10 2 13 6 12 15 5 11 7 4 2 8 12 14 8 14 11 5 10 15 5 4 15 2 13 5 2 14 4 9 13 15 7 11 12 10 4 13 13 7 15 8 3 4 5 15 11 7 11 9 9 4 8 13 8 15 1 2 9 15 10 8 10 5 13 13 15 12 1 13 3 9 6 3 6 9 14 14 2 3 11 3 1 1 7 11 2 13 7 15 12 13 10 12 11 5 5 6 2 11 12 6 9 3 9 4 13 3 6 5 14 10 12 12 1 12 6 7 9 6 14 9 1 5 15 4 8 7 9 9 1 11 13 1 11 15 5 4 10 11 15 5 11 11 5 4 11 6 9 12 2 11 1 14 15 10 6 5 12 6 11 13 3 3 8 8 14 13 6 14 11 4 5 5 3 13 1 11 10 5 13 3 7 3 1 2 1 9 2 12 3 10 15 15 15 10 13 4 4 1 10 4 1 5 1 12 4 12 8 12 1 6 13 4 15 15 10 2 14 14 7 7 14 11 10 3 3 15 14 7 13 9 7 10 7 3 2 4 10 2 14 1 3 11 5 10 3 6 6 6 1 9 2 1 15 15 5 12 7 4 