P2
33 33
250
14 7 3 9 12 14 7 3 9 2 10 5 13 4 10 3 14 9 8 15 14 5 12 8 1 10 10 6 3 10 3 8 11 6 2 4 10 2 4 10 4 9 13 6 1 13 10 10 8 8 6 10 13 3 7 11 11 10 12 15 9 10 10 2 5 11 2 1 7 7 10 15 1 1 11 3 4 6 10 8 7 14 1 2 14 5 15 3 3 10 3 6 13 13 9 9 6 8 9 7 6 10 7 13 6 11 11 1 8 6 8 4 13 11 10 13 9 9 5 9 3 12 7 5 2 4 14 1 4 15 6 3 7 7 11 10 11 10 12 3 6 10 14 15 3 2 8 6 13 12 15 1 14 9 6 13 5 9 13 15 2 10 10 3 4 5 2 3 10 14 2 1 12 14 9 4 8 15 7 7 4 15 6 14 7 11 8 15 2 15 9 11 2 6 9 9 6 5 10 12 14 3 6 7 1 9 15 14 11 12 15 10 4 2 8 12 12 15 15 12 6 12 11 2 9 5 6 1 1 14 9 7 12 7 1 10 10 1 3 10 14 15 15 6 5 13 3 5 12 0 0 0 0 0 0 2 7 7 8 6 2 14 4 1 9 2 6 7 8 8 5 7 1 7 11 12 13 0 0 0 0 0 0 0 0 0 0 0 0 0 0 0 0 3 8 9 6 12 2 2 5 12 8 3 12 7 12 0 0 0 0 0 0 0 0 0 0 0 0 0 0 0 0 0 0 0 0 0 0 14 1 10 15 11 13 12 8 0 0 0 0 0 0 0 0 0 0 0 0 0 0 0 0 0 0 0 0 0 0 0 0 0 0 1 10 13 10 11 0 0 0 0 0 0 0 0 0 0 0 0 0 0 0 0 0 0 0 0 0 0 0 0 0 0 0 0 12 9 2 0 0 0 0 0 0 0 0 0 0 0 7 12 15 12 7 9 10 13 7 3 7 12 5 3 0 0 0 0 0 11 4 0 0 0 0 0 0 0 0 0 8 12 15 9 3 14 15 15 1 11 9 7 14 4 15 7 12 11 13 2 0 0 13 6 0 0 0 0 0 0 2 12 6 10 7 11 11 14 4 3 7 1 5 3 10 3 8 13 7 11 1 5 5 10 12 2 4 0 0 0 0 8 4 13 15 1 15 3 2 9 7 7 3 4 1 9 4 9 3 15 15 14 9 1 1 11 13 11 15 11 0 0 10 10 3 14 9 7 6 15 4 2 2 14 7 2 9 3 14 14 5 8 8 13 11 5 7 12 5 8 6 12 1 10 15 9 8 10 10 3 1 15 11 4 9 10 2 8 2 2 14 4 5 15 7 3 5 14 10 14 4 3 7 10 5 3 14 8 13 6 6 12 4 1 4 5 10 12 14 5 12 9 7 2 7 12 4 7 4 5 12 13 10 3 15 8 7 2 5 12 13 9 12 14 1 9 13 5 1 9 12 11 4 4 11 7 1 14 10 15 9 13 5 2 9 7 10 4 8 2 7 10 5 14 6 14 13 11 6 1 15 8 8 5 13 15 12 1 13 7 15 7 10 4 10 4 1 9 5 4 15 1 12 13 4 6 6 4 12 1 3 13 14 7 1 8 7 6 12 10 9 3 2 4 3 13 9 6 14 7 1 11 14 3 7 5 13 10 2 2 12 9 1 11 12 13 8 8 9 14 6 1 10 15 10 12 4 14 1 4 6 7 4 1 6 7 14 15 7 15 12 2 8 7 4 2 11 10 2 8 6 15 8 10 4 3 12 9 15 13 10 11 14 3 7 6 11 14 9 14 14 7 2 10 15 4 9 5 4 4 3 13 8 14 5 10 3 13 4 6 4 5 7 4 11 9 9 12 2 1 5 11 1 9 4 8 5 2 15 1 7 11 14 5 11 8 10 10 7 9 5 3 14 3 12 9 4 7 11 7 14 13 4 13 11 3 8 8 13 3 1 12 8 3 6 9 3 7 7 8 7 13 9 11 7 3 15 10 10 13 13 9 7 8 10 2 11 10 3 10 15 1 2 4 7 5 4 10 10 15 6 5 7 7 6 5 10 11 14 3 3 5 14 11 13 11 2 1 5 3 6 9 14 1 11 8 5 6 13 4 11 15 7 14 8 14 4 10 14 3 13 1 13 3 9 3 12 14 5 1 7 14 6 11 4 8 9 14 5 3 13 3 4 2 9 11 13 3 13 10 4 4 5 1 4 6 13 8 3 9 3 1 3 12 8 15 9 9 14 4 8 4 6 14 1 10 13 8 4 4 12 6 10 8 9 1 7 3 1 9 15 14 9 9 2 3 15 9 12 8 15 8 10 2 5 13 14 4 1 1 3 6 5 10 11 4 8 2 3 7 3 3 9 7 13 11 5 2 11 1 4 3 13 12 2 15 2 11 4 8 3 11 2 12 15 2 9 3 3 4 13 6 11 6 14 15 4 13 6 1 14 11 10 4 11 4 3 4 13 