P2
33 33
250
1 4 8 14 10 2 12 3 3 13 11 3 6 13 4 10 14 15 6 12 8 3 5 3 10 5 9 4 14 8 13 13 15 3 8 11 11 8 6 7 15 2 8 2 10 5 5 6 11 10 10 12 15 2 2 1 7 8 8 6 12 4 3 14 10 2 14 1 8 10 9 1 15 14 7 13 8 6 11 11 5 7 1 5 6 15 13 8 5 9 13 7 12 13 6 13 14 13 12 3 8 14 1 15 6 1 1 6 15 14 4 2 8 4 14 1 9 14 14 4 6 6 2 7 5 5 1 5 11 15 15 7 2 6 14 14 15 9 9 8 6 11 15 7 2 7 12 1 3 2 6 1 8 5 12 14 15 5 13 11 3 14 2 10 6 12 13 11 5 12 15 6 3 12 13 8 3 10 2 11 5 3 3 9 11 6 6 12 2 3 12 12 7 11 5 5 4 14 5 12 8 1 10 6 9 4 8 8 8 12 8 3 5 7 10 14 2 10 7 1 12 15 12 13 8 4 6 11 8 2 10 6 10 13 5 2 14 11 15 11 14 7 2 7 10 10 11 12 12 12 4 8 6 14 13 10 14 6 1 7 1 3 14 5 11 7 10 2 1 13 7 8 1 4 6 1 15 5 3 4 8 8 0 0 0 0 0 0 11 5 2 4 13 11 14 15 13 7 8 3 14 4 4 13 3 1 10 7 6 0 0 0 0 0 0 0 0 0 0 0 0 0 0 0 0 0 0 8 5 10 6 12 9 14 6 5 2 10 7 0 0 0 0 0 0 0 0 0 0 0 0 0 0 0 0 0 0 0 0 0 0 0 0 10 4 4 9 13 14 15 0 0 0 0 0 0 0 0 0 0 0 0 0 0 0 0 0 0 0 0 0 0 0 0 0 0 10 6 5 10 2 0 0 0 0 0 0 0 0 0 0 0 0 0 0 0 0 0 0 0 0 0 0 0 0 0 0 0 0 9 2 12 7 0 0 0 0 0 0 0 0 0 0 0 0 0 0 0 0 0 0 0 0 0 0 0 0 0 0 0 0 0 7 2 15 7 0 0 0 0 0 0 0 0 0 0 14 12 3 8 3 1 4 4 8 12 8 5 9 2 0 0 0 0 0 12 12 15 12 0 0 0 0 0 0 4 6 6 14 2 6 6 13 13 6 11 2 5 10 3 7 6 13 11 8 1 8 0 2 5 11 3 0 0 0 0 3 10 11 11 2 10 2 12 3 14 15 10 6 4 9 12 9 15 3 11 2 9 8 5 5 11 15 11 9 0 0 12 15 1 13 9 5 11 7 6 2 9 15 3 11 11 9 2 9 9 15 3 8 14 14 1 13 11 4 5 1 7 1 5 10 3 8 12 9 6 9 10 2 8 7 6 1 3 15 3 5 5 10 7 13 3 10 4 7 1 14 4 12 4 7 6 12 6 1 2 2 12 10 7 4 11 1 8 6 14 1 10 15 10 10 8 2 11 14 14 7 4 3 8 7 3 8 4 10 8 6 15 8 10 9 1 2 10 10 13 4 6 2 4 7 4 2 5 4 9 12 13 15 1 4 5 9 5 15 9 14 9 13 4 4 6 7 12 3 7 8 3 7 8 5 13 11 9 3 11 14 6 8 13 9 9 5 14 6 4 15 2 1 9 1 11 10 1 3 5 7 15 15 8 12 6 11 1 13 5 7 1 9 7 15 14 10 5 2 5 2 6 9 14 2 12 9 9 8 14 6 5 1 7 6 15 3 4 15 8 14 3 14 14 8 7 3 7 6 3 2 2 12 3 5 9 10 9 10 5 14 4 13 2 12 8 1 3 11 3 1 2 8 10 5 2 9 14 4 1 3 12 3 15 2 13 15 12 4 3 13 11 10 9 8 11 12 10 15 13 11 7 13 6 15 8 7 8 8 5 1 7 1 3 13 2 7 4 6 4 14 4 8 12 9 6 9 6 7 3 4 15 3 5 3 12 8 11 5 2 8 3 10 5 14 11 7 12 14 13 5 1 14 4 10 15 7 6 2 12 4 10 1 13 7 3 14 7 2 7 6 14 11 15 13 10 7 5 13 4 1 15 15 13 8 11 15 12 11 1 5 11 5 2 4 7 11 13 7 8 6 1 12 3 13 1 15 1 1 11 15 12 10 2 6 4 8 3 13 6 13 6 7 12 5 13 1 15 10 4 10 7 4 14 15 1 9 11 13 5 8 2 1 3 7 5 14 12 11 5 13 6 2 7 14 11 1 8 9 8 13 1 10 4 6 4 15 9 13 4 7 11 13 15 11 9 4 5 2 14 13 4 11 13 5 5 10 1 13 2 8 3 14 5 7 12 11 6 6 4 10 15 6 13 5 10 3 1 10 13 12 14 2 9 14 5 15 7 3 1 5 10 11 5 1 2 1 15 2 12 14 8 2 9 5 13 4 3 4 3 5 7 8 12 11 1 7 5 14 10 5 1 4 