P2
33 33
250
1 8 9 7 2 2 11 14 15 9 11 15 13 8 15 13 7 13 10 2 4 5 4 10 7 11 8 15 15 9 9 3 1 12 7 14 3 6 4 4 12 14 10 11 14 4 13 1 2 8 7 12 4 4 7 3 8 12 2 1 13 8 1 10 15 3 13 8 15 6 6 13 13 5 2 4 5 15 9 3 12 7 9 6 11 1 15 6 5 4 3 10 12 10 3 2 8 14 2 8 1 1 2 15 1 8 14 1 11 6 6 14 5 10 10 11 15 11 2 10 8 7 13 15 8 7 10 3 1 14 9 9 5 6 2 11 9 11 2 8 11 9 14 11 9 11 4 7 4 2 1 5 13 5 14 8 8 5 13 2 8 8 4 11 5 4 10 14 4 9 9 14 7 6 4 15 13 10 13 1 15 3 4 13 2 3 5 9 12 12 1 1 6 2 13 12 6 5 4 13 9 2 5 5 2 2 6 5 3 3 7 3 11 13 13 7 8 13 6 1 12 1 13 7 10 2 10 4 3 15 8 5 1 3 5 15 4 11 2 9 15 7 13 5 9 7 6 8 3 8 8 12 8 1 11 2 11 7 12 10 11 15 15 7 9 9 5 11 1 14 2 4 9 3 5 2 15 12 8 13 8 15 15 2 3 10 11 13 5 3 12 15 15 12 4 0 0 7 14 14 10 3 10 13 15 4 8 15 12 15 9 2 7 1 12 7 1 13 4 4 7 15 2 4 11 14 0 0 0 0 9 0 0 0 13 11 8 12 10 7 11 5 8 11 3 3 10 10 5 12 2 8 1 2 8 3 0 0 0 0 0 0 0 2 0 0 0 0 0 0 12 6 12 7 7 3 11 13 10 7 14 8 4 11 10 0 0 0 0 0 0 0 0 0 0 0 4 0 0 0 0 0 0 0 0 0 0 0 0 0 0 0 0 0 0 0 0 0 0 0 0 0 0 0 0 0 0 6 11 9 10 5 0 0 0 0 0 0 0 0 0 0 0 0 0 0 0 0 0 0 0 0 0 0 0 0 0 0 11 4 11 8 12 13 8 14 6 10 0 0 0 0 0 0 0 0 0 0 0 0 0 0 0 0 0 0 0 0 0 10 9 13 12 6 10 13 2 6 8 6 15 5 6 8 0 0 0 0 0 0 0 0 0 0 0 0 0 0 0 1 7 7 6 7 10 14 11 6 8 8 1 8 12 10 4 7 4 8 6 3 3 11 0 0 0 0 0 2 3 1 11 4 4 4 11 9 3 4 11 1 14 14 12 11 2 7 10 12 14 8 5 15 5 15 3 11 3 5 7 11 3 15 1 1 8 9 12 15 8 5 3 12 5 13 10 11 5 9 10 3 9 9 2 12 5 12 13 7 5 14 5 12 6 11 4 11 11 6 11 2 2 12 5 11 4 2 14 4 10 10 3 4 14 14 14 11 4 3 11 14 14 4 11 5 1 3 3 12 4 13 4 15 3 10 3 15 15 3 6 14 12 14 2 8 5 4 4 7 2 10 5 1 8 5 4 8 9 5 8 6 3 15 8 13 7 6 7 9 6 13 13 5 11 14 11 15 8 4 14 8 7 12 3 10 2 1 2 5 8 14 12 14 4 1 10 7 11 14 4 12 8 15 11 11 8 6 1 6 10 13 13 1 14 5 11 7 6 5 9 7 11 9 12 14 5 8 10 4 1 2 3 1 11 15 1 1 10 4 11 3 5 7 14 11 1 7 14 4 13 10 7 13 4 2 3 9 4 15 9 7 11 15 4 9 15 9 10 2 6 4 14 12 8 15 13 8 11 12 12 8 7 1 8 4 13 11 5 13 13 2 10 5 10 14 2 4 15 8 6 14 9 6 5 2 10 11 7 6 7 12 3 5 5 3 2 15 3 8 6 5 15 7 9 11 8 13 12 3 14 10 3 11 8 9 2 5 5 2 8 4 7 8 3 12 5 14 13 13 9 15 6 3 3 3 3 15 6 10 6 7 2 3 5 15 14 12 3 7 6 12 14 3 6 13 6 1 2 10 3 10 5 8 3 11 11 11 10 10 14 2 8 8 12 6 14 13 5 1 13 4 11 6 11 7 8 2 3 13 5 12 6 4 10 15 2 8 5 10 9 5 5 4 9 7 7 12 14 10 4 4 13 10 10 11 8 1 7 5 4 10 14 9 15 2 15 8 1 15 2 8 4 6 5 2 2 6 14 8 14 2 5 5 10 8 5 14 7 9 2 6 13 3 11 2 4 2 8 14 1 12 8 5 10 1 9 11 5 1 13 15 1 13 2 2 15 9 7 1 8 13 10 8 1 13 3 1 1 10 1 1 5 5 1 11 10 4 4 1 12 14 8 15 1 9 1 15 13 8 7 9 11 12 1 5 6 3 2 9 11 6 6 7 10 5 8 15 8 7 2 15 1 6 14 10 2 7 7 6 2 4 1 4 7 7 7 13 1 14 3 