P2
33 33
250
7 12 5 6 6 10 2 6 3 2 15 12 12 7 13 12 14 12 2 10 8 8 6 4 10 10 2 8 13 12 5 3 8 8 10 2 9 9 7 3 7 14 9 7 11 12 2 4 6 1 11 14 12 12 12 2 6 13 13 7 2 8 4 4 9 15 14 9 12 12 9 7 8 4 4 15 10 5 10 11 5 3 6 12 15 4 5 1 7 14 10 2 14 9 1 2 6 14 2 15 4 3 7 6 12 8 4 5 2 12 15 3 14 5 6 10 11 8 1 3 15 14 7 2 8 7 1 6 7 10 7 11 5 7 15 13 12 3 10 8 2 5 5 4 6 14 15 12 5 4 1 10 5 10 4 9 3 12 5 1 12 11 3 12 8 6 1 11 9 11 1 15 11 13 7 5 1 6 12 3 4 14 5 9 14 11 14 2 7 5 8 2 10 15 6 15 10 2 13 11 13 1 14 2 13 13 9 4 3 6 14 4 8 12 8 12 10 6 7 5 4 12 13 3 6 4 5 9 9 2 2 6 12 9 14 13 6 3 3 7 12 14 14 11 6 3 3 11 1 13 10 10 3 11 2 6 13 3 9 14 9 5 5 2 12 4 4 11 15 2 10 8 8 15 2 2 2 5 5 9 8 2 4 14 6 3 15 2 12 8 14 7 15 14 4 13 4 10 9 10 7 13 5 13 14 9 15 15 2 5 2 8 1 7 3 13 10 3 1 12 6 6 5 8 10 3 6 15 7 5 5 6 14 2 15 5 5 1 4 13 3 11 6 3 15 12 11 7 7 2 1 5 6 8 8 15 15 1 9 3 5 2 5 10 13 14 9 3 8 13 13 9 9 4 15 4 11 2 4 10 1 1 13 3 12 15 5 1 3 15 6 10 10 11 11 12 11 7 7 2 13 13 14 4 4 9 11 2 9 4 7 9 12 10 4 3 9 15 13 6 12 6 14 11 5 13 10 0 0 15 14 11 11 14 10 6 7 9 8 12 7 15 10 13 6 3 8 10 15 7 4 6 6 9 9 2 13 3 10 0 0 0 12 9 6 7 13 1 2 9 9 15 11 15 14 11 13 4 5 4 15 7 8 12 3 3 6 8 2 5 0 0 0 0 0 11 0 0 11 9 14 9 12 6 2 15 13 8 3 7 3 12 10 10 10 15 9 5 5 3 13 0 0 0 0 0 0 15 9 6 0 0 2 6 14 10 1 4 15 12 5 8 15 7 12 4 6 9 9 13 2 0 0 0 0 0 0 0 0 10 14 11 13 7 5 0 0 0 11 13 13 5 15 10 7 13 3 8 8 9 0 0 0 0 0 0 0 0 0 0 8 9 11 3 13 13 8 12 4 0 0 0 0 0 0 0 0 0 0 0 0 0 0 0 0 0 0 0 0 0 0 0 7 7 8 3 11 10 4 10 14 4 15 13 0 0 0 0 0 0 0 0 0 0 0 0 0 0 0 0 0 0 0 10 14 14 4 9 7 15 9 12 14 13 15 14 15 15 4 0 0 0 0 0 0 0 0 0 0 0 0 0 0 14 11 15 3 1 5 14 3 6 8 6 12 15 1 9 12 11 13 14 6 1 5 10 15 0 0 0 0 4 6 15 5 5 5 5 12 15 13 14 9 8 1 8 4 12 13 2 7 8 13 2 11 15 2 15 8 7 4 5 1 7 1 12 11 14 12 13 12 2 9 13 15 14 3 7 11 6 9 4 10 5 3 4 9 14 4 14 2 6 15 13 8 6 10 11 14 9 6 13 3 10 11 2 15 6 12 7 3 15 9 10 10 5 14 4 7 7 11 8 13 2 15 3 10 7 5 3 14 7 3 9 14 5 12 15 11 15 10 9 12 13 8 4 12 3 3 6 7 14 14 8 9 2 4 6 12 4 3 14 5 9 3 5 11 11 14 5 5 10 1 11 1 1 12 10 5 6 11 2 14 11 8 14 10 9 10 11 2 11 12 10 11 4 2 3 12 2 4 13 12 9 7 8 15 8 8 11 1 14 2 12 15 5 14 2 11 2 6 15 9 8 8 4 13 7 10 9 13 7 8 8 14 9 3 4 7 12 4 15 3 8 6 12 14 5 9 12 8 7 3 2 15 7 2 5 15 14 2 12 5 13 5 7 7 15 3 6 15 10 11 9 8 4 14 3 14 9 6 6 10 3 5 13 7 5 7 12 5 3 7 3 5 11 9 4 12 7 10 13 2 10 1 3 6 1 11 13 14 10 8 9 12 14 15 9 15 1 4 14 15 11 14 1 5 5 9 2 1 4 1 7 2 3 4 7 15 13 6 11 6 9 5 6 14 8 12 14 2 14 7 2 4 5 7 3 15 9 9 12 4 7 6 13 1 13 7 1 14 6 1 1 7 2 15 5 5 1 5 11 12 11 8 7 8 13 2 7 14 8 7 15 2 3 11 5 2 9 10 11 2 11 14 14 12 8 7 