P2
33 33
250
4 10 9 14 6 10 13 14 11 11 4 9 8 7 4 4 10 1 5 6 2 7 5 3 7 7 8 15 3 4 3 4 13 9 10 13 13 6 8 10 14 7 3 7 10 2 1 8 11 10 6 9 15 1 15 1 10 12 10 7 12 3 3 4 6 1 11 4 1 4 1 11 6 9 1 6 1 5 7 3 5 5 2 6 10 5 13 13 11 8 3 9 6 13 7 7 1 1 3 7 8 5 5 9 11 13 3 10 13 11 4 1 6 8 8 5 10 12 13 5 3 7 11 1 13 11 11 2 9 12 14 7 15 2 9 7 2 15 8 15 10 13 12 9 2 1 8 3 13 12 4 10 6 9 15 9 13 10 11 13 9 11 1 10 3 13 10 6 1 9 3 10 2 4 6 2 15 15 4 8 11 15 2 11 3 5 14 10 11 1 12 3 10 3 14 1 1 10 12 12 15 15 11 6 14 2 10 7 6 1 7 14 5 5 12 14 6 6 14 6 2 1 11 2 12 12 13 8 11 8 10 6 6 9 6 6 8 4 8 1 10 6 7 10 14 7 15 13 12 12 9 10 15 15 15 15 5 6 15 6 6 3 14 12 5 1 12 1 5 4 10 5 10 8 4 10 15 10 10 11 1 3 7 10 15 9 15 11 2 14 7 14 3 7 2 4 1 10 2 5 14 13 3 10 11 15 15 1 2 9 9 3 3 1 3 10 13 4 10 8 9 14 5 13 6 8 13 15 5 2 13 6 15 14 9 10 14 9 7 2 9 8 11 8 15 10 12 7 7 15 0 0 0 0 0 4 10 1 5 11 11 11 10 15 1 13 15 15 7 11 4 4 5 1 1 12 7 4 13 0 0 0 0 0 0 0 0 0 0 0 0 0 12 9 13 9 13 5 14 13 2 9 4 2 3 1 3 7 12 10 0 0 0 0 0 0 0 0 0 0 0 0 0 0 0 0 0 15 8 5 2 7 14 3 6 14 13 15 15 12 4 0 0 0 0 0 0 0 0 0 0 0 0 0 0 0 0 0 0 0 0 0 5 13 12 1 6 3 3 12 2 5 1 0 0 0 0 0 0 0 0 0 0 0 0 0 0 0 0 0 0 0 0 0 0 9 14 10 9 1 7 11 10 2 4 0 0 0 0 0 0 0 0 0 0 0 0 0 0 0 0 0 0 0 0 0 0 0 6 12 11 4 14 6 7 4 14 0 0 0 0 0 0 0 0 0 0 0 0 0 0 0 0 0 0 0 0 0 0 0 0 8 5 15 4 12 11 12 9 0 0 0 0 0 0 0 0 0 0 0 0 0 0 0 0 0 0 0 0 0 0 0 0 0 5 10 6 3 1 10 10 0 0 0 0 0 0 0 0 0 0 0 0 0 0 0 0 0 0 0 0 0 0 0 0 0 0 11 4 13 9 5 1 0 0 0 0 0 0 0 0 0 0 0 0 0 0 0 0 0 0 0 0 0 0 0 0 0 0 0 12 2 4 6 7 0 0 0 0 0 0 0 0 0 0 0 0 2 12 10 3 9 2 5 9 15 9 15 0 0 0 0 0 7 8 12 13 8 0 0 0 0 0 0 0 0 0 8 13 7 9 2 3 4 8 8 14 15 6 8 10 15 5 9 0 0 12 15 8 14 0 0 0 0 0 0 0 0 2 5 5 8 1 13 13 13 11 15 10 10 15 1 10 7 11 14 15 12 12 5 7 4 10 0 0 0 0 0 0 0 9 14 1 3 4 1 13 8 1 9 3 1 14 7 8 13 5 5 14 2 1 13 2 6 4 15 0 0 0 0 0 7 1 14 2 9 14 9 12 3 3 3 12 12 4 1 9 7 11 15 6 10 1 1 2 14 4 9 3 0 0 0 0 11 8 1 8 14 6 14 8 4 10 4 1 3 9 13 6 2 11 1 3 8 2 9 6 3 11 1 11 13 0 0 0 15 8 7 6 10 11 6 6 8 4 4 1 15 2 6 4 9 4 15 7 11 9 5 14 11 12 3 7 5 9 0 0 8 14 5 14 6 6 4 10 3 4 10 3 7 11 3 10 2 10 15 3 15 2 14 8 9 11 7 13 7 6 8 0 13 6 7 8 8 1 13 1 8 8 8 8 15 11 12 15 3 8 13 4 4 2 15 6 13 4 8 6 9 1 9 9 13 13 3 9 3 7 7 15 13 15 3 2 5 1 13 1 7 10 2 9 8 4 12 9 5 15 5 5 6 15 2 12 11 3 5 15 2 15 2 3 12 13 8 15 10 1 14 14 8 8 13 15 2 7 15 2 6 13 9 13 12 9 1 3 14 1 14 5 12 15 1 7 5 5 11 1 10 10 5 7 15 4 4 5 15 15 2 13 4 13 12 5 14 14 15 1 6 8 10 11 15 11 11 4 11 13 2 6 7 9 12 5 9 4 4 14 6 3 7 7 15 12 2 8 8 13 14 8 