P2
33 33
250
14 3 11 14 13 2 5 15 2 7 9 3 14 9 3 4 2 14 5 12 14 9 12 1 7 15 13 4 7 4 13 8 5 10 6 1 7 6 12 7 15 8 7 3 7 8 4 15 7 7 2 6 2 13 12 13 2 13 8 10 12 3 14 14 11 9 13 5 9 3 2 2 10 13 5 8 15 7 10 3 12 6 2 5 10 8 1 1 2 14 14 13 7 8 1 3 5 15 6 9 6 7 15 1 9 10 9 8 4 13 5 3 15 3 9 15 8 2 4 13 10 1 11 10 8 4 1 1 6 1 5 13 7 12 8 13 10 10 6 7 6 6 1 5 10 1 13 3 8 3 9 9 8 4 14 10 10 12 15 6 8 4 10 12 12 13 15 14 4 9 11 1 10 2 8 4 6 2 8 1 3 6 1 4 4 2 1 12 5 13 10 5 6 12 5 3 12 13 15 9 9 11 13 9 5 9 7 9 12 13 12 1 14 13 1 10 15 14 13 6 5 1 13 13 3 13 13 15 11 5 8 2 9 2 0 0 6 6 9 1 1 3 15 8 3 3 4 14 6 4 1 12 3 2 10 10 14 9 13 10 9 15 9 4 10 14 5 0 0 0 0 8 8 12 4 3 9 10 4 10 11 7 11 13 9 2 5 9 7 3 5 14 6 8 4 6 0 13 13 15 0 0 0 0 0 0 12 12 13 8 15 15 3 8 9 10 12 1 7 10 11 1 7 8 7 8 9 0 0 0 4 2 14 11 0 0 0 0 0 0 0 0 0 9 11 5 9 4 12 6 8 2 7 6 12 4 0 0 0 0 0 0 0 1 8 3 5 3 13 0 0 0 0 0 0 0 0 0 0 0 0 0 0 0 0 0 0 0 0 0 0 0 0 0 0 0 12 14 8 3 14 10 14 0 0 0 0 0 0 0 0 0 0 0 0 0 0 0 0 0 0 0 0 0 0 0 0 8 3 2 3 15 15 15 8 8 1 12 0 0 0 0 0 0 0 0 0 0 0 0 0 0 0 0 0 0 0 0 2 2 9 5 11 8 5 3 3 10 9 8 5 3 2 3 0 0 0 0 0 0 0 0 0 0 0 0 0 0 0 4 11 15 13 9 15 5 6 7 15 10 10 3 15 8 3 10 14 8 5 14 4 1 0 0 0 0 0 5 14 3 3 13 6 15 4 9 10 5 7 10 5 2 9 13 10 5 5 5 10 7 13 12 3 12 6 9 15 10 3 6 10 5 15 10 15 13 3 7 9 2 15 7 7 11 14 2 13 14 14 2 7 4 12 13 6 2 10 5 8 1 1 13 14 13 2 2 13 5 9 6 15 13 7 7 10 3 7 1 5 3 12 10 14 1 7 1 1 13 5 4 1 11 3 6 2 12 15 10 12 11 5 2 5 9 15 10 8 11 13 1 14 10 7 2 13 8 11 12 2 5 6 14 3 5 14 3 9 2 6 8 4 5 6 11 13 8 4 11 12 8 10 15 6 13 4 11 4 9 15 3 4 14 5 2 5 15 14 15 10 3 1 1 14 1 7 1 8 8 10 10 15 13 3 11 13 8 5 15 14 10 8 9 15 6 14 6 9 4 14 10 6 15 11 1 3 10 13 11 2 10 10 10 13 15 7 13 6 2 6 1 13 9 11 14 11 11 13 9 13 2 3 2 10 8 14 6 3 10 7 5 2 10 12 12 12 6 6 12 13 12 10 2 3 7 6 10 3 11 7 6 9 15 10 4 10 14 6 2 2 6 11 2 3 3 9 14 1 4 8 14 1 8 15 12 10 4 6 6 14 15 7 9 12 9 12 1 13 13 1 6 9 9 2 13 13 7 8 15 13 11 5 14 15 14 7 2 11 4 3 7 8 12 5 6 7 2 3 3 13 6 6 10 9 11 15 3 2 9 5 9 1 7 12 15 1 12 3 5 14 11 10 4 5 7 13 1 4 15 1 8 12 10 4 11 3 8 7 2 1 9 3 1 15 3 13 14 5 7 2 14 4 6 4 10 9 12 3 6 9 4 11 2 12 15 15 8 13 4 8 8 11 9 12 8 1 5 4 13 14 5 10 2 15 7 4 6 8 11 7 9 15 3 7 14 15 10 7 10 5 8 6 6 6 15 10 15 9 15 4 4 10 7 10 15 13 2 1 1 6 14 6 6 10 9 13 2 10 9 7 2 9 5 3 7 14 11 5 6 4 3 1 15 4 3 11 13 15 15 8 3 6 6 13 8 10 13 10 2 7 11 12 14 3 3 15 5 3 10 2 15 10 7 10 1 15 13 10 6 9 9 2 3 4 10 12 10 14 10 8 2 8 1 6 4 6 3 14 14 11 14 2 3 15 13 6 12 8 10 10 13 13 13 6 7 14 8 14 1 2 13 15 14 8 12 8 5 14 10 13 7 9 5 4 12 13 14 8 2 14 9 8 10 11 2 12 1 9 7 4 