P2
33 33
250
7 7 13 13 7 12 9 12 11 12 15 9 13 1 1 12 3 10 8 12 15 8 7 7 2 14 14 10 6 6 15 11 2 4 4 13 1 13 3 9 13 1 14 3 11 8 13 6 15 12 5 12 1 14 3 15 11 15 12 11 14 10 12 11 15 12 11 8 8 2 10 6 4 6 4 1 13 14 2 15 15 4 15 13 2 3 11 2 5 4 1 10 8 3 4 1 12 11 7 5 1 13 3 6 6 14 10 2 12 9 13 15 4 14 4 3 11 7 7 12 6 12 3 9 2 3 11 10 11 6 11 15 8 5 14 2 15 13 12 12 5 1 11 5 2 1 7 9 4 7 11 5 2 2 9 12 11 2 7 5 8 13 1 12 8 9 6 10 7 1 10 12 9 1 6 5 2 14 3 5 6 5 15 4 13 11 4 13 14 12 9 4 4 2 3 4 2 4 8 12 15 2 7 10 14 9 10 4 5 6 9 0 0 0 0 0 0 1 14 11 14 3 7 6 1 2 1 14 5 5 2 2 10 3 4 8 2 13 9 7 0 0 0 0 0 0 0 0 0 0 0 0 0 0 0 13 4 1 9 8 8 7 13 3 14 9 2 10 9 12 0 0 0 0 0 0 0 0 0 0 0 0 0 0 0 0 0 0 0 0 6 15 8 10 8 10 1 15 7 1 9 0 0 0 0 0 0 0 0 0 0 0 0 0 0 0 0 0 0 0 0 0 0 0 0 8 11 2 9 5 9 14 10 0 0 0 0 0 0 0 0 0 0 0 0 0 0 0 0 0 0 0 0 0 0 0 0 0 0 6 12 5 6 14 1 0 0 0 0 0 0 0 15 1 11 4 15 11 6 5 8 7 15 7 4 0 0 0 0 0 0 0 0 8 15 2 12 0 0 0 0 0 0 11 14 15 2 2 6 11 3 13 8 2 7 2 2 8 2 13 5 0 0 0 0 0 0 2 5 0 0 0 0 0 11 4 14 14 4 6 13 2 4 6 12 2 15 13 9 1 14 7 5 4 7 10 0 0 0 0 0 1 0 0 0 0 11 14 13 10 9 11 11 9 14 1 14 8 6 5 7 14 5 14 13 7 8 2 12 9 0 0 0 0 0 0 0 0 11 12 10 11 4 10 2 2 13 11 1 11 5 12 5 15 14 5 2 14 5 7 2 4 12 3 0 0 0 0 0 0 13 2 12 6 14 11 3 15 9 2 5 5 1 2 6 5 10 11 5 13 5 10 12 5 3 4 7 4 0 0 0 10 11 4 11 5 14 1 8 10 5 12 12 6 7 7 3 15 7 12 10 11 15 5 1 11 3 2 13 1 10 12 0 15 10 3 7 5 8 10 3 1 3 1 5 14 14 3 15 8 9 5 3 13 3 2 7 11 1 7 4 4 14 7 13 6 7 14 15 10 4 9 7 8 12 10 13 13 14 7 5 7 8 15 4 6 1 2 15 4 10 13 14 14 8 3 4 3 1 14 2 3 5 11 14 4 3 15 7 13 6 10 12 10 8 4 14 4 2 4 11 1 13 4 12 4 14 6 1 12 10 7 11 7 14 6 9 2 12 13 7 11 11 2 5 4 2 10 2 12 7 10 8 6 11 8 5 6 15 6 7 10 8 10 9 1 4 12 13 15 2 6 12 3 9 5 14 13 4 14 15 1 13 4 6 13 13 15 3 14 6 11 12 4 7 5 4 6 8 15 14 13 11 4 9 4 7 2 5 6 7 8 8 13 3 5 12 7 3 2 8 11 2 12 4 8 3 7 3 12 4 6 7 11 8 1 8 14 11 2 13 7 11 8 6 3 2 12 2 5 2 1 11 12 9 15 9 5 9 3 4 2 10 14 15 13 3 12 3 1 7 8 10 14 9 13 4 5 6 4 15 13 12 2 3 4 11 1 9 11 6 15 6 12 2 8 8 2 10 14 14 7 4 1 4 3 7 4 8 15 4 1 12 1 7 15 15 10 4 9 10 4 13 15 8 5 13 7 11 1 6 6 6 7 11 6 8 4 4 5 5 8 2 4 8 14 11 2 13 6 5 1 2 2 8 1 11 2 7 15 3 2 9 3 6 10 1 6 12 12 1 8 8 1 8 4 4 10 5 5 14 15 12 11 15 1 13 13 8 12 3 9 6 13 2 6 9 12 7 2 1 4 15 6 8 7 5 10 3 10 3 12 13 12 9 13 3 9 5 10 4 12 8 7 9 6 9 2 13 3 9 8 2 11 12 12 15 2 1 10 5 4 4 10 4 12 7 1 4 11 15 15 4 7 10 11 3 2 5 11 10 13 11 3 12 14 11 10 8 13 6 10 12 1 1 14 8 7 9 9 8 6 2 1 1 3 11 12 10 4 2 3 4 15 5 10 3 14 15 2 8 9 3 4 2 9 2 13 15 10 8 8 6 4 1 9 1 6 13 1 4 13 11 10 2 13 10 5 9 