P2
33 33
250
14 7 15 2 2 5 5 14 10 8 2 2 13 1 1 2 1 8 2 5 2 4 6 6 14 12 15 2 12 1 11 1 14 9 14 12 11 10 7 12 6 10 14 7 15 6 11 5 11 6 6 11 4 13 2 14 6 3 14 12 11 1 9 13 13 12 9 13 11 8 15 9 2 4 13 11 11 1 7 4 1 15 5 5 3 4 12 11 3 3 11 5 9 14 5 12 13 4 5 11 4 15 8 10 8 1 14 2 7 15 7 8 6 9 8 15 13 12 1 7 15 12 13 2 7 9 3 7 8 1 13 3 12 7 13 3 15 11 3 1 13 8 14 1 7 1 11 3 5 4 9 9 15 1 5 15 10 9 1 8 12 10 3 10 14 13 13 11 12 4 5 11 1 9 6 6 13 8 11 12 6 10 2 4 13 11 4 13 7 7 3 13 15 2 6 4 1 1 8 2 6 14 5 15 12 13 8 9 4 10 4 10 12 8 15 3 14 14 3 7 6 7 4 1 8 9 14 14 11 14 9 2 14 14 1 3 8 10 9 10 14 11 2 5 14 11 10 2 5 6 15 15 12 13 11 15 1 12 2 0 4 8 4 7 1 14 2 8 11 1 1 3 7 8 15 2 6 7 6 5 9 5 1 9 12 2 9 8 6 12 10 0 0 2 11 4 3 15 5 4 2 13 6 8 3 15 12 5 6 14 14 8 8 14 9 12 13 12 8 13 9 4 9 8 0 9 3 15 12 13 8 11 15 11 10 8 13 13 8 8 9 15 12 7 1 14 11 1 4 2 9 10 8 10 2 3 0 0 3 3 14 14 8 0 9 10 5 13 10 1 7 2 5 11 15 14 11 8 5 4 2 4 14 1 13 3 1 0 0 0 11 5 15 9 3 14 0 0 0 2 2 12 15 7 12 12 7 9 4 4 8 4 1 5 4 3 8 0 0 0 0 0 0 1 15 15 1 6 9 0 0 0 0 0 0 0 0 0 0 0 0 0 0 0 0 0 0 0 0 0 0 0 0 0 0 14 4 4 13 10 7 5 14 4 0 0 0 0 0 0 0 0 0 0 0 0 0 0 0 0 0 0 0 0 0 0 1 4 12 11 15 10 1 13 6 6 9 6 15 0 0 0 0 0 0 0 0 0 0 0 0 0 0 0 0 0 9 15 9 4 11 7 13 5 13 14 7 13 4 13 2 13 7 8 10 12 14 0 0 0 0 0 0 11 3 6 6 7 2 3 13 5 6 5 1 12 1 10 15 14 12 3 13 9 3 2 13 4 2 1 14 3 14 13 14 15 4 14 6 2 11 7 2 11 12 5 9 12 12 3 10 11 4 15 6 1 11 9 2 14 12 15 6 0 0 0 0 0 0 0 9 1 9 9 9 3 13 3 11 8 8 9 11 13 10 9 2 3 2 4 7 6 5 11 14 15 2 15 3 7 4 7 13 15 15 1 9 1 9 13 5 8 6 13 9 4 13 8 14 8 2 3 14 8 1 15 8 13 4 1 6 9 2 10 8 3 10 2 15 12 15 9 10 2 2 10 4 5 13 15 15 2 1 4 6 7 5 2 14 9 12 4 7 4 2 2 6 8 15 11 2 10 7 13 3 13 15 11 1 14 6 5 5 15 11 10 12 2 6 5 11 10 9 9 15 12 8 13 6 9 11 1 6 15 10 13 2 10 1 8 8 4 15 2 8 11 3 14 13 2 10 14 1 12 9 12 5 6 4 8 15 1 3 12 14 6 7 4 2 14 12 2 9 14 11 13 1 4 14 11 15 9 6 11 5 15 4 11 11 14 10 9 10 13 12 7 12 15 7 1 14 2 15 12 7 10 6 10 12 9 1 1 6 4 9 7 9 14 5 12 3 2 5 5 8 7 13 5 7 4 11 15 15 9 15 8 9 10 7 12 14 9 12 4 12 8 10 15 7 10 13 8 9 5 13 13 11 11 9 5 15 4 12 5 10 8 8 7 8 4 12 9 2 12 1 2 2 9 6 13 7 5 11 10 3 4 1 2 13 12 3 1 5 6 13 8 4 8 12 7 6 4 3 7 13 13 11 15 8 5 13 3 8 5 5 12 12 8 9 6 10 15 8 10 11 5 10 11 13 2 10 6 2 5 8 10 3 6 1 7 10 13 15 15 11 5 13 7 8 1 3 2 12 13 13 5 2 10 4 14 9 6 7 3 4 13 13 12 14 9 14 8 11 1 8 14 9 3 14 10 13 6 1 1 14 11 12 4 2 14 4 3 8 5 3 15 4 15 10 14 7 8 4 8 7 15 7 2 7 9 7 4 5 13 14 1 14 11 3 12 11 2 12 10 7 12 12 12 15 15 4 10 11 11 8 12 12 4 6 9 15 10 4 2 5 14 2 1 5 13 9 1 9 5 15 12 10 7 7 9 15 13 15 9 6 2 11 4 4 4 6 3 2 7 9 2 1 7 6 