P2
33 33
250
14 5 5 13 14 11 11 10 10 6 6 1 1 9 7 11 11 4 8 3 15 4 3 4 11 15 8 13 8 2 4 3 14 11 5 6 13 8 13 7 6 2 4 8 1 13 12 8 1 4 8 13 12 1 2 8 11 4 9 6 10 9 13 4 4 8 13 9 3 14 12 15 3 8 9 3 2 10 8 3 14 5 8 9 9 2 7 7 2 11 7 1 11 8 11 4 2 12 1 14 11 6 5 14 10 4 7 6 13 15 12 1 8 1 9 5 4 4 13 5 12 4 15 12 9 12 12 7 3 13 2 4 8 12 2 4 3 1 15 7 8 11 6 11 0 0 0 0 0 0 0 11 15 1 13 13 4 13 15 3 3 11 13 5 8 2 5 6 5 11 6 10 0 0 0 0 0 0 0 0 0 0 0 0 0 0 0 0 0 5 5 3 8 12 5 5 13 7 12 9 10 6 0 0 0 0 0 0 0 0 0 0 0 0 0 0 0 0 0 0 0 0 0 0 0 5 3 9 1 8 10 10 0 0 0 0 0 0 0 0 0 0 0 0 0 0 0 0 0 0 0 0 0 0 0 0 0 0 0 0 0 15 5 2 0 0 0 0 0 0 0 0 0 0 0 0 0 0 0 0 0 0 0 0 0 0 0 0 0 0 0 0 0 0 0 13 5 0 0 0 0 0 0 0 0 13 6 2 8 11 5 6 4 10 1 2 15 8 5 7 0 0 0 0 0 0 0 0 0 0 0 0 0 0 0 2 14 14 9 5 14 4 10 3 5 5 12 9 7 4 3 11 4 2 4 15 0 0 0 0 0 0 0 0 0 12 12 6 6 5 13 2 9 14 5 11 3 11 11 14 12 13 2 11 4 1 10 3 12 2 12 4 0 0 0 0 7 13 1 5 8 6 7 11 10 1 2 10 7 7 15 12 2 8 11 15 2 12 1 6 1 10 8 7 5 11 15 0 0 1 12 6 1 1 2 7 12 10 2 14 11 3 6 13 11 1 8 3 10 4 7 15 5 13 9 9 8 11 11 9 1 6 4 9 8 4 14 12 3 2 1 8 13 1 6 3 8 10 8 9 12 3 13 6 14 15 14 4 13 13 1 15 15 1 11 4 2 6 10 11 14 9 10 15 4 11 15 1 14 15 14 10 14 15 7 12 3 2 5 2 11 13 11 14 15 14 9 14 10 9 1 7 13 10 6 6 6 3 6 9 6 10 3 8 7 6 6 3 2 7 13 6 8 1 2 7 8 3 7 7 9 7 1 3 1 6 2 8 14 6 1 12 13 2 4 9 5 15 11 2 5 4 4 9 13 8 9 10 12 13 5 15 5 1 4 13 5 2 9 6 9 5 7 6 6 12 1 2 4 14 6 6 12 8 1 1 10 13 6 1 3 1 1 2 9 11 13 3 12 1 10 8 3 14 6 14 10 15 1 15 10 15 10 14 6 10 1 6 7 3 12 6 1 4 15 2 12 14 12 3 10 12 3 3 9 10 7 4 5 7 10 6 13 8 12 5 10 14 3 6 11 3 6 7 7 1 5 7 14 13 11 11 2 10 15 13 13 14 7 2 12 14 4 13 13 7 2 15 11 10 6 14 8 5 2 3 8 4 11 2 3 15 10 14 7 14 3 2 6 11 9 1 7 2 12 13 2 4 2 7 4 2 15 5 3 4 5 9 7 8 4 10 8 1 14 8 13 13 8 14 14 10 13 15 7 14 12 8 15 9 1 2 11 4 7 1 1 6 9 14 12 15 11 15 11 3 4 5 1 12 7 6 2 7 11 12 4 9 10 1 10 6 4 8 8 10 8 11 5 9 14 6 3 10 7 12 15 13 15 6 4 14 10 10 15 6 15 5 15 3 5 6 8 10 4 6 2 15 2 5 6 7 2 13 4 9 4 2 14 12 8 12 7 10 10 11 1 7 8 10 5 13 6 1 8 11 1 15 3 10 4 3 6 15 1 15 1 13 2 1 8 12 12 1 8 2 15 4 15 13 11 14 15 7 2 14 1 15 8 1 3 7 9 15 13 5 13 10 5 8 12 10 3 5 15 7 9 15 3 12 14 9 15 9 2 12 7 8 3 11 14 5 5 7 5 11 15 13 13 14 11 1 8 5 7 13 1 9 2 5 13 2 14 1 6 10 15 7 14 14 4 4 6 8 6 14 2 1 13 14 11 12 12 3 10 2 6 6 2 10 15 7 15 15 14 9 14 10 11 4 9 7 5 7 11 8 11 8 6 5 13 10 12 11 4 5 11 13 7 12 5 3 2 1 8 7 13 13 9 6 13 15 3 1 9 3 3 9 8 2 15 2 2 6 13 5 8 2 4 5 15 13 3 9 14 8 8 9 3 7 8 3 15 1 15 14 14 14 15 10 10 10 3 13 4 8 11 3 8 6 5 4 13 2 1 4 10 2 5 8 12 9 7 15 7 13 13 4 4 