P2
33 33
250
14 4 6 5 6 6 4 1 15 10 6 5 5 15 12 6 14 13 5 1 4 15 14 1 10 5 8 3 14 10 9 5 13 13 14 15 10 5 14 9 8 5 12 8 15 4 1 8 8 3 12 9 15 14 6 3 13 5 1 7 10 5 1 4 9 11 15 10 6 5 1 9 6 4 8 8 7 15 5 1 8 10 8 5 1 2 9 4 10 15 12 15 4 6 2 4 7 9 7 1 14 5 2 4 7 10 11 5 3 10 3 15 3 4 12 8 9 9 6 9 8 5 14 10 8 7 4 7 6 3 8 6 6 13 7 2 13 11 3 15 9 7 3 8 5 11 3 12 5 12 10 13 15 10 3 2 13 15 11 12 6 7 3 7 2 3 7 8 9 2 7 4 14 7 9 1 3 8 12 8 10 2 15 10 7 2 11 11 14 6 12 7 7 5 9 7 5 0 5 5 1 8 11 3 10 11 10 10 14 9 6 12 5 6 7 13 3 5 7 12 14 11 6 15 8 4 2 1 6 12 0 0 9 3 5 5 10 10 12 11 3 13 3 10 13 2 4 2 7 6 10 7 1 15 13 1 7 8 2 2 6 12 0 0 0 0 12 14 15 2 6 13 13 1 1 7 14 2 2 15 4 13 10 15 4 13 12 13 5 7 4 1 1 5 0 0 0 0 0 0 9 9 13 10 15 14 6 2 4 7 15 11 3 15 14 3 12 14 13 8 8 5 2 3 14 2 0 0 0 10 3 0 0 0 0 5 15 10 1 13 12 8 15 15 4 6 12 11 7 5 10 15 5 10 12 11 6 9 0 0 0 11 8 7 7 0 0 0 0 0 0 10 6 12 7 3 2 7 9 13 15 11 1 14 5 10 12 0 0 0 0 0 0 10 6 11 4 10 13 0 0 0 0 0 0 0 0 0 0 0 0 0 0 0 0 0 0 0 0 0 0 0 0 0 0 15 2 3 1 8 8 6 8 2 0 0 0 0 0 0 0 0 0 0 0 0 0 0 0 0 0 0 0 0 0 0 11 15 13 2 8 14 6 6 11 7 2 3 5 10 0 0 0 0 0 0 0 0 0 0 0 0 0 0 0 0 0 11 13 3 10 11 5 2 4 12 5 4 10 6 9 8 11 1 5 3 3 8 0 0 0 0 0 0 6 3 15 4 1 2 5 1 7 4 13 14 3 12 9 4 7 4 6 14 12 12 11 14 4 10 1 6 9 8 8 12 1 11 15 1 14 10 15 2 6 14 9 15 8 12 6 14 3 15 7 9 7 13 11 7 11 7 11 4 15 12 1 1 14 12 15 2 15 4 5 15 6 13 8 5 2 1 2 13 4 11 5 11 13 4 12 9 2 4 3 9 12 8 8 15 9 4 3 3 15 11 13 9 10 12 7 4 3 6 6 15 6 11 15 15 14 4 5 9 4 11 2 4 12 15 7 3 12 9 11 14 8 13 2 9 4 4 5 1 13 11 13 6 2 1 10 11 2 11 4 9 4 10 15 11 15 10 13 4 4 14 13 6 4 12 14 4 14 3 10 5 3 14 12 13 1 6 5 1 4 3 10 15 2 12 7 8 10 11 5 7 14 10 1 12 8 9 14 2 12 15 5 9 8 15 5 1 7 9 7 15 14 3 11 12 9 10 9 13 2 13 10 3 10 9 6 12 3 12 10 2 4 6 11 5 1 10 4 6 5 7 13 14 12 5 1 12 14 11 7 2 2 6 10 3 2 15 6 8 15 2 2 4 9 15 10 8 8 10 8 11 3 8 13 9 8 10 4 11 9 7 4 1 15 10 11 5 12 2 14 6 3 7 6 7 5 11 4 14 3 11 11 10 14 5 14 10 2 14 7 11 5 3 6 5 11 6 15 4 12 13 5 10 8 15 11 5 15 11 4 5 10 5 10 5 1 15 14 6 12 3 13 7 11 10 13 13 12 9 14 4 14 15 6 1 3 12 14 10 15 4 12 8 11 9 13 15 3 4 11 12 9 3 15 12 2 6 7 8 10 14 12 3 9 5 4 3 2 10 1 11 11 3 7 15 1 15 1 10 10 13 8 2 7 11 15 2 5 6 13 4 6 14 4 3 7 7 4 9 4 12 5 8 11 14 4 5 7 10 8 2 3 8 10 11 14 2 11 11 12 11 5 5 12 5 8 3 1 3 1 12 14 12 3 12 10 8 14 14 11 12 14 10 15 11 5 7 11 5 4 2 5 8 14 11 6 9 13 14 12 4 14 2 9 2 9 13 6 13 2 2 6 12 7 15 2 4 9 3 13 6 6 7 9 1 7 2 9 10 4 7 10 7 6 14 4 1 14 12 3 12 9 6 2 11 13 2 2 6 10 8 1 8 14 5 15 4 10 12 7 2 6 14 13 6 8 4 12 1 4 5 3 10 15 5 3 7 7 15 5 15 7 2 13 15 4 12 2 10 13 5 12 6 15 