P2
33 33
250
12 6 6 1 5 11 4 10 14 13 4 1 2 2 14 1 14 8 9 12 4 3 7 3 2 11 4 12 5 1 9 8 10 9 4 3 3 9 2 1 5 5 7 15 8 8 9 6 15 9 13 12 6 2 3 10 12 7 8 11 3 2 9 10 14 9 2 4 13 4 12 14 5 4 10 11 7 5 12 11 14 1 13 13 13 13 2 14 15 7 15 2 8 12 12 10 12 15 7 12 1 8 13 10 3 14 15 12 15 4 9 15 14 12 10 8 3 10 6 7 10 9 1 5 13 7 14 6 10 3 14 4 3 15 8 4 4 15 3 13 3 12 9 1 11 9 2 11 14 2 7 15 6 13 14 2 7 3 12 4 11 14 1 7 3 5 8 14 15 9 1 11 11 10 11 15 9 12 12 15 6 9 7 14 5 5 14 15 6 7 10 8 12 5 10 2 8 13 8 7 5 1 5 13 5 3 12 8 14 11 10 9 9 3 3 15 11 6 7 10 13 5 3 3 3 5 6 7 12 2 10 15 0 10 1 8 12 7 15 8 9 7 5 1 4 2 3 7 6 5 11 6 15 1 8 7 4 5 3 12 4 1 14 6 1 0 0 9 12 15 15 6 5 9 14 7 15 12 9 11 14 6 5 15 10 9 2 13 2 6 6 5 7 4 4 10 6 2 9 0 0 9 3 4 12 1 14 7 9 6 3 1 4 6 3 2 4 10 1 3 14 8 11 6 9 11 13 5 15 9 1 11 6 0 0 0 9 14 10 7 3 14 13 13 8 11 11 13 5 3 14 4 5 6 10 3 7 12 12 5 8 0 0 6 4 7 13 0 0 0 0 0 15 1 14 10 7 13 11 7 6 9 1 6 12 8 13 15 15 9 11 0 0 0 0 0 6 3 15 10 3 0 0 0 0 0 0 0 0 0 0 0 0 0 0 0 0 0 0 0 0 0 0 0 0 0 0 0 11 3 1 9 6 4 8 0 0 0 0 0 0 0 0 0 0 0 0 0 0 0 0 0 0 0 0 0 0 0 0 0 12 8 6 8 14 9 15 11 8 0 0 0 0 0 0 0 0 0 0 0 0 0 0 0 0 0 0 0 0 0 0 6 2 4 14 11 7 14 6 12 13 4 15 9 0 0 0 0 0 0 0 0 0 0 0 0 0 0 0 0 0 0 0 15 3 10 3 2 1 1 14 5 12 13 7 10 3 7 7 7 0 0 0 0 0 0 0 0 0 0 0 0 0 14 11 11 12 11 7 12 10 14 15 6 10 10 15 14 8 12 5 7 12 11 12 7 6 0 0 0 0 0 1 13 9 12 8 2 11 10 8 3 13 14 10 5 1 6 4 5 15 10 1 1 13 11 5 14 4 9 5 13 10 1 8 1 12 12 15 2 1 4 6 6 1 7 5 12 14 12 5 14 11 11 3 2 5 5 6 1 12 6 7 7 9 15 12 1 6 3 14 6 9 5 3 4 4 7 13 4 9 11 3 2 1 13 5 2 9 7 11 2 13 8 10 4 13 11 6 9 5 15 9 1 15 6 14 1 15 4 6 12 13 3 13 14 4 11 2 4 11 9 4 5 2 6 10 10 10 4 6 7 13 10 2 12 2 15 7 15 10 12 11 5 12 7 11 3 13 3 10 10 2 12 13 3 11 2 10 10 13 12 5 4 3 10 13 11 10 1 8 10 6 4 3 12 8 6 6 10 2 2 6 12 8 8 15 6 6 9 9 1 4 7 11 9 4 10 3 11 8 7 8 3 4 7 2 4 4 15 5 3 10 9 12 4 1 4 1 12 1 6 4 2 13 14 10 10 6 8 1 1 13 4 4 1 14 11 6 12 1 12 7 7 5 7 13 6 3 1 8 11 13 14 12 1 4 15 12 7 2 7 7 6 4 3 15 13 10 5 2 2 4 7 8 15 5 12 13 10 2 14 9 5 2 14 13 12 14 3 4 6 5 6 14 5 12 15 9 14 13 9 8 10 13 15 14 6 11 2 8 9 13 14 4 1 5 7 10 3 5 3 5 1 3 2 7 2 15 1 7 8 4 11 5 7 1 12 9 15 8 11 14 11 7 14 5 10 13 13 11 4 9 7 15 5 4 9 6 6 13 11 15 1 10 13 5 6 3 4 15 11 4 8 9 15 5 10 12 1 1 9 12 13 12 10 10 14 7 5 9 13 7 2 11 11 4 3 9 9 6 7 14 5 5 8 7 1 15 12 11 11 13 12 1 1 2 15 4 1 14 10 7 11 3 6 6 12 7 7 7 5 1 8 1 1 14 13 8 5 7 14 15 14 8 9 12 13 10 8 4 6 1 8 10 7 14 3 13 12 11 3 8 3 6 9 10 7 13 3 11 8 12 13 14 4 1 15 3 12 10 10 10 4 11 7 13 2 9 10 13 1 10 11 10 1 14 4 12 3 4 12 13 10 1 11 6 7 10 