P2
33 33
250
2 14 8 5 2 4 6 8 4 6 12 2 1 10 10 8 2 6 11 10 10 15 7 7 15 2 7 10 9 5 1 9 13 9 1 7 2 3 6 5 8 6 3 6 7 15 9 4 14 12 10 4 9 10 13 12 15 10 5 15 10 5 2 12 10 13 4 15 7 15 13 15 14 4 9 8 13 14 2 5 9 2 3 10 3 11 7 10 5 9 8 1 15 2 10 15 2 13 14 14 13 12 6 11 13 9 14 4 4 1 12 5 12 2 15 9 13 5 12 3 5 13 13 15 2 2 14 8 10 8 4 7 3 13 11 14 5 1 12 9 12 7 5 7 4 6 3 6 2 1 7 10 8 4 8 4 6 11 8 2 7 2 11 13 15 7 13 7 1 11 6 3 10 15 15 5 10 14 13 12 12 2 0 0 0 0 13 2 14 12 8 13 8 1 3 5 12 15 9 2 8 4 15 6 4 14 9 15 10 5 9 0 0 0 0 0 0 0 0 0 0 0 0 6 6 4 11 9 15 11 6 11 12 13 7 3 6 2 4 9 9 0 0 0 0 0 0 0 0 0 0 0 0 0 0 0 0 0 0 13 2 9 6 3 2 11 5 5 9 10 6 6 9 0 0 0 0 0 0 0 0 0 0 0 0 0 0 0 0 0 0 0 0 7 12 3 4 5 12 8 14 3 7 2 0 0 0 0 0 0 0 0 0 0 0 0 0 0 0 0 0 0 0 0 0 0 0 0 1 14 10 12 13 4 2 14 0 0 0 0 0 2 2 12 6 5 1 15 11 11 1 12 4 8 9 7 7 0 0 0 0 0 10 2 4 12 13 13 0 0 0 13 7 10 12 4 8 6 4 1 2 4 9 8 11 15 10 2 11 4 5 15 15 0 0 0 13 6 3 4 0 0 4 7 6 4 4 6 1 10 4 9 13 9 14 8 6 1 5 10 11 13 3 8 15 11 6 7 0 1 13 7 3 0 12 9 12 8 3 10 10 2 15 1 15 13 6 8 11 3 12 4 12 11 8 4 6 5 12 4 11 15 15 12 6 0 1 6 4 12 1 15 6 2 5 7 9 1 7 4 1 6 14 7 7 4 5 6 12 4 5 14 2 5 15 8 4 10 6 1 6 10 5 11 14 15 4 12 13 4 2 14 7 13 15 14 4 9 9 13 6 4 14 6 2 11 9 14 12 9 0 14 4 11 12 11 14 3 8 12 8 4 14 4 1 14 7 6 2 4 9 12 11 8 5 12 13 2 4 6 4 3 3 10 8 3 4 2 5 4 6 4 13 8 14 3 10 1 8 2 5 15 11 13 3 6 12 1 6 2 2 15 6 12 3 9 12 7 10 5 6 14 9 11 15 6 4 13 1 14 15 6 3 9 8 1 3 5 11 6 14 10 5 3 14 6 9 8 13 14 12 5 10 15 8 3 6 11 8 5 6 12 1 7 7 10 11 9 4 5 9 2 8 12 12 8 2 14 2 5 5 15 9 11 4 3 6 3 11 1 7 10 11 9 5 8 12 9 11 2 3 3 4 4 5 1 4 13 2 6 6 14 4 14 11 14 14 9 11 1 15 9 10 14 5 8 13 4 8 5 7 7 5 7 6 11 8 7 7 12 13 2 5 7 7 11 10 6 4 14 15 6 12 8 4 5 12 12 8 13 15 12 11 3 6 5 9 9 8 1 12 13 6 4 8 2 8 8 6 8 5 15 12 14 4 4 13 12 14 13 6 11 4 8 2 11 12 2 4 3 15 14 12 7 13 7 8 9 2 4 12 11 5 11 6 15 14 13 9 13 7 3 8 1 7 7 9 10 14 4 14 11 7 11 14 12 10 5 14 7 11 15 3 4 15 13 7 4 7 6 7 13 5 15 7 5 8 13 3 6 11 1 2 9 8 8 3 9 1 7 1 4 1 2 6 2 3 14 1 15 8 11 6 1 3 7 11 5 10 14 14 4 10 4 15 3 6 12 10 12 1 7 4 7 7 10 15 13 14 15 7 4 13 1 8 6 5 14 12 10 10 7 4 4 12 12 2 7 11 5 7 11 5 4 15 10 12 1 6 4 11 10 3 14 6 8 14 12 12 13 12 7 3 10 11 6 10 10 10 13 8 4 13 15 14 9 1 5 12 6 8 11 10 9 11 7 1 14 15 11 10 9 6 14 3 5 1 4 3 6 10 4 9 2 1 1 12 13 13 2 4 1 3 2 8 15 2 11 10 5 8 7 8 3 7 5 4 13 13 12 9 10 14 4 3 10 6 11 15 11 2 9 10 7 12 7 5 12 4 11 2 11 11 12 10 13 4 6 13 4 14 14 12 7 13 3 14 12 15 8 8 11 1 1 14 2 14 11 2 5 6 4 2 14 11 11 6 14 11 14 8 14 13 9 8 9 5 15 4 14 2 9 8 14 4 13 2 9 12 14 6 12 9 5 14 3 5 14 13 