P2
33 33
250
5 5 9 11 4 7 6 4 14 9 6 7 6 10 3 6 4 5 7 3 3 1 8 1 12 10 7 9 2 6 5 15 9 3 10 15 14 14 4 6 7 2 4 15 1 12 7 10 14 5 11 2 4 9 8 6 9 10 14 7 12 1 6 2 15 11 12 9 13 14 15 2 1 11 2 12 9 9 9 1 3 2 15 15 13 5 11 15 11 12 9 2 13 14 1 7 5 14 3 5 1 2 10 14 3 7 4 3 4 1 3 8 11 11 6 4 12 6 13 12 11 6 15 7 3 7 3 2 9 7 11 2 15 10 10 3 12 6 8 11 14 1 7 6 7 10 11 10 7 13 5 1 6 10 3 9 10 9 14 13 3 2 2 15 5 1 3 1 3 12 14 8 4 12 11 5 14 14 10 7 4 5 14 10 5 1 6 2 11 15 9 11 3 7 8 7 11 8 1 2 14 8 6 6 3 13 1 3 15 4 15 2 3 5 8 5 5 15 12 2 7 9 12 2 5 14 12 5 5 9 12 2 8 1 8 5 2 8 2 1 5 15 6 14 1 15 7 9 0 0 0 0 0 9 11 11 6 13 12 7 10 1 12 10 6 7 3 6 14 15 13 1 15 6 3 7 5 0 0 0 0 0 0 0 0 0 0 0 0 0 1 6 2 12 13 3 4 14 13 13 10 14 11 7 7 4 3 0 0 0 0 0 0 0 0 0 0 0 0 0 0 0 0 0 0 0 4 5 14 15 8 4 11 14 6 10 6 12 0 0 0 0 0 0 0 0 0 0 0 0 0 0 0 0 0 0 0 0 0 0 0 15 2 9 14 10 11 5 5 0 0 0 0 0 0 0 0 0 0 0 0 0 0 0 0 0 0 0 0 0 0 0 0 0 0 0 10 2 13 15 15 0 0 0 0 0 0 0 0 0 0 0 0 0 0 0 0 0 0 0 0 0 0 0 0 0 0 0 0 11 1 11 12 0 0 0 0 0 0 0 0 12 4 6 8 10 5 6 14 2 10 2 10 12 14 0 0 0 0 0 0 0 8 9 14 0 0 0 0 0 0 5 10 11 4 3 2 5 4 8 12 4 6 14 1 15 12 7 8 9 9 7 0 0 0 7 1 0 0 0 0 0 12 9 11 10 4 11 9 8 1 9 12 3 8 14 14 7 5 5 9 6 3 13 4 7 14 0 4 0 0 0 0 14 9 8 14 15 9 11 1 7 9 5 12 4 10 13 6 2 4 12 3 6 1 13 6 10 1 11 2 11 0 0 0 1 2 14 1 8 3 5 5 1 4 9 3 4 11 6 3 7 6 11 6 13 4 3 14 3 2 9 12 13 14 0 2 4 6 6 10 8 3 7 12 10 2 15 4 3 3 9 5 14 13 10 11 5 14 7 1 14 4 3 13 6 13 7 4 7 1 4 11 2 15 15 2 6 7 7 6 6 12 10 3 4 11 15 2 11 13 3 1 13 13 1 15 13 12 8 3 6 6 11 4 4 4 9 8 11 11 7 2 7 3 5 14 1 1 2 2 14 3 10 8 5 9 11 9 6 4 4 10 12 1 14 7 14 6 4 6 6 3 12 9 14 14 12 2 15 1 1 1 8 2 2 4 5 8 4 14 13 7 15 1 9 15 4 11 1 5 9 3 12 14 1 9 7 1 7 10 9 14 10 2 9 3 9 1 9 1 14 9 7 3 7 8 9 11 12 1 13 14 13 4 10 7 7 8 12 5 6 13 15 9 3 3 10 11 3 5 1 14 3 3 14 8 10 14 12 1 10 11 4 14 10 11 15 3 15 13 12 14 6 2 9 9 12 13 12 1 2 10 4 2 11 10 8 15 15 14 3 11 6 4 9 2 1 2 13 13 1 9 4 12 7 12 10 7 3 10 4 9 2 7 3 2 15 13 1 13 10 10 2 14 7 6 5 14 14 3 5 10 11 5 2 15 5 13 6 13 7 4 1 2 13 4 1 10 14 1 1 9 8 13 7 4 4 2 13 11 3 9 8 4 6 7 13 10 9 4 2 8 4 13 5 5 13 5 6 1 2 1 10 14 5 1 14 6 8 15 15 6 3 10 13 1 6 10 1 7 1 3 8 7 5 6 12 3 7 3 3 14 7 2 5 10 6 1 9 14 6 6 12 1 6 12 11 4 10 5 2 15 10 7 14 1 15 14 10 9 2 13 3 4 5 6 8 1 7 1 8 8 2 2 6 10 11 11 3 8 3 14 5 8 3 1 7 8 14 9 7 7 1 12 3 4 9 7 11 2 4 6 5 4 2 13 6 11 14 9 15 10 3 10 5 11 10 7 13 11 14 6 14 5 3 10 10 15 12 1 4 14 3 8 3 1 4 9 13 6 7 14 10 8 3 5 12 6 3 2 11 4 5 8 13 13 5 5 3 1 15 2 2 1 15 10 3 6 5 11 3 13 1 11 8 5 15 15 