P2
33 33
250
5 6 3 13 1 9 4 1 1 14 15 14 2 11 9 5 1 13 3 6 3 12 11 4 7 9 8 14 13 5 2 9 4 4 5 4 9 2 3 10 6 4 10 14 6 4 15 8 6 5 9 3 13 4 13 9 6 2 6 14 2 4 12 1 4 10 2 15 1 13 3 5 13 3 15 9 8 7 2 4 7 9 15 13 11 13 5 4 7 3 2 15 2 8 13 1 7 13 9 3 3 4 8 10 1 1 9 2 2 5 15 13 15 10 12 9 8 5 4 1 5 7 4 11 12 3 8 6 14 13 5 4 9 8 12 5 8 11 10 4 13 8 8 7 10 1 3 5 12 6 8 11 11 10 1 14 11 3 8 12 4 5 13 14 13 10 12 10 15 14 13 9 6 3 15 7 11 2 9 10 11 6 14 10 1 15 10 15 13 8 12 13 2 14 11 5 9 11 8 14 9 13 10 8 4 13 8 13 13 9 2 10 9 15 7 0 0 0 0 0 11 15 11 2 6 9 11 10 2 14 4 3 11 15 8 3 9 6 14 3 1 9 4 4 0 0 0 0 0 0 0 0 0 0 0 0 0 11 12 2 11 3 4 3 8 8 3 1 7 9 6 1 7 7 10 0 0 0 0 0 0 0 0 0 0 0 0 0 0 0 0 0 1 3 10 3 13 1 3 7 7 10 12 12 10 12 0 0 0 0 0 0 0 0 0 0 0 0 0 0 0 0 0 0 0 0 0 2 14 3 6 10 10 1 5 3 8 6 0 0 0 0 0 0 0 0 0 0 0 0 0 0 0 0 0 0 0 0 0 0 0 12 1 3 11 1 1 12 10 9 0 0 0 0 0 0 0 0 0 0 0 0 0 0 0 0 0 0 0 0 0 0 0 0 0 3 7 3 4 4 11 2 0 0 0 0 0 0 0 0 0 0 0 0 0 0 0 0 0 0 0 0 0 0 0 0 0 0 0 1 6 5 10 15 11 0 0 0 0 0 0 0 0 0 0 0 0 0 0 0 0 0 0 0 0 0 0 0 0 0 0 0 14 8 6 7 6 0 0 0 0 0 0 0 0 0 0 0 0 0 0 0 0 0 0 0 0 0 0 0 0 0 0 0 0 4 11 8 14 0 0 0 0 0 0 0 0 0 0 0 0 0 0 0 0 0 0 0 0 0 0 0 0 0 0 0 0 0 11 11 4 1 0 0 0 0 0 0 0 0 9 4 9 2 7 9 14 12 9 3 10 12 12 7 15 0 0 0 0 0 0 4 4 2 12 0 0 0 0 0 0 5 15 14 9 15 4 4 9 13 11 15 8 10 9 10 5 2 5 13 0 0 0 0 4 3 7 0 0 0 0 0 9 7 1 8 15 12 13 8 1 13 11 7 13 6 10 6 10 3 14 1 5 10 13 0 0 10 13 8 0 0 0 0 7 10 3 8 5 10 4 7 13 8 8 12 9 5 8 11 11 8 6 9 13 5 12 12 11 0 14 12 1 0 0 0 0 13 1 14 5 12 14 5 6 3 9 14 10 12 2 5 2 2 3 4 7 12 11 14 14 10 0 4 5 13 1 9 10 2 11 10 15 1 7 5 11 5 4 12 13 11 6 12 8 6 15 5 5 6 3 6 7 7 12 4 3 2 10 10 4 15 8 3 6 8 2 2 7 7 13 14 1 8 4 14 2 7 10 7 2 3 8 11 5 12 13 10 14 10 2 8 14 15 7 7 8 10 1 15 15 1 14 12 1 14 12 15 2 2 10 11 8 14 6 6 15 2 13 9 15 4 2 9 4 13 3 11 13 13 4 2 10 12 10 4 12 1 15 1 3 4 10 14 12 3 5 8 10 8 1 12 15 5 9 8 3 3 5 9 14 7 12 1 4 6 14 10 14 4 9 1 14 14 12 11 12 10 1 5 1 6 3 4 1 4 15 10 8 12 7 15 12 15 15 14 14 2 8 2 14 6 6 15 5 14 1 4 8 15 4 14 3 4 14 1 11 5 12 3 12 10 12 8 3 3 11 10 8 15 8 11 6 12 2 6 13 14 2 4 7 7 12 10 15 13 14 9 1 5 13 10 11 5 15 8 11 9 11 8 10 6 11 5 4 11 2 11 15 7 6 13 6 6 1 13 7 9 8 7 4 7 13 2 2 4 2 1 10 7 13 14 4 11 13 6 2 6 4 13 4 5 5 12 12 6 9 2 3 3 12 10 4 10 8 3 15 9 15 2 2 7 14 8 5 6 1 5 8 2 13 5 6 12 14 13 13 12 13 4 6 15 6 7 11 12 2 7 1 5 12 15 14 11 3 7 5 11 14 1 15 4 10 12 5 10 4 3 9 1 13 7 11 7 2 14 9 12 7 15 5 12 14 10 14 7 5 10 3 1 15 10 1 12 14 14 9 11 9 6 14 15 2 11 14 12 14 13 11 14 10 7 7 13 7 15 6 6 5 