P2
33 33
250
2 11 11 8 4 6 6 14 13 13 2 4 1 1 5 5 5 7 7 10 2 11 8 13 6 8 14 10 3 10 14 10 13 4 2 8 4 4 6 7 14 12 8 9 12 6 12 5 11 9 12 8 11 6 1 5 15 7 5 8 13 15 9 6 7 9 3 6 10 1 14 6 4 5 12 13 10 11 4 11 15 13 6 7 7 9 9 5 13 14 15 14 6 5 9 10 10 6 6 7 13 5 6 9 10 5 2 1 15 3 11 10 7 7 9 2 6 13 8 2 6 9 8 9 6 1 2 7 3 12 10 5 1 1 3 7 14 7 12 10 15 3 8 5 9 8 2 3 12 11 3 5 12 14 12 6 9 3 9 11 1 5 7 1 2 7 7 14 6 3 4 8 6 6 10 11 7 12 1 2 8 6 7 12 15 14 1 15 1 13 8 9 4 2 14 5 12 14 4 5 7 2 5 11 1 10 11 6 6 8 5 1 10 14 7 12 9 9 2 11 4 5 13 3 2 5 2 7 3 3 3 6 7 4 5 10 7 6 12 11 14 9 1 11 10 12 2 7 15 9 3 7 6 4 13 6 12 6 13 3 11 9 1 3 8 5 8 4 3 3 1 11 9 9 15 10 11 11 4 15 15 7 4 5 12 7 11 11 2 15 10 3 2 6 15 5 11 8 0 0 0 11 5 11 2 8 7 1 5 3 7 11 5 11 11 14 2 13 13 2 6 12 3 5 12 11 6 14 9 7 0 0 0 0 0 0 3 15 2 1 3 5 5 11 4 13 11 5 14 10 2 12 12 13 6 2 6 7 1 6 9 0 0 13 0 0 0 0 0 0 0 7 1 11 3 1 15 9 12 4 3 8 2 1 11 2 2 15 13 10 13 10 0 0 0 0 10 7 0 0 0 0 0 0 0 0 0 2 15 12 13 1 11 15 8 8 8 4 13 12 10 6 0 0 0 0 0 0 0 1 3 11 0 0 0 0 0 0 0 0 0 0 0 0 0 0 0 0 0 0 0 0 0 0 0 0 0 0 0 0 0 0 9 13 10 10 14 0 0 0 0 0 0 0 0 0 0 0 0 0 0 0 0 0 0 0 0 0 0 0 0 0 0 0 6 5 10 2 11 12 1 6 0 0 0 0 0 0 0 0 0 0 0 0 0 0 0 0 0 0 0 0 0 0 0 2 4 12 14 1 5 1 6 4 11 4 10 9 0 0 0 0 0 0 0 0 0 0 0 0 0 0 0 0 0 6 2 10 5 5 4 14 10 11 2 3 3 1 1 7 10 3 6 10 7 12 0 0 0 0 0 0 0 12 8 14 11 8 10 13 1 13 7 7 1 13 15 14 2 12 14 10 9 15 14 14 3 9 11 1 8 1 7 5 1 7 11 7 4 15 8 1 7 9 10 11 3 7 15 7 5 7 12 14 12 9 13 12 8 1 9 2 14 11 11 1 6 4 12 3 8 12 13 1 15 15 12 6 7 7 11 6 3 4 12 8 1 15 10 5 8 1 2 10 10 7 9 7 14 2 2 8 7 14 10 8 12 11 15 4 1 7 9 3 1 9 8 4 12 1 7 9 9 11 8 5 8 1 8 7 10 9 12 6 11 14 15 8 13 5 4 13 11 6 5 1 5 6 5 6 1 13 11 4 11 10 15 13 11 8 9 2 3 8 1 14 8 15 3 3 14 15 12 14 5 12 15 4 8 14 4 8 13 14 3 6 14 15 13 10 6 3 4 7 7 1 10 9 14 5 10 5 3 8 11 10 5 12 4 15 15 7 15 11 8 14 6 9 5 12 10 8 7 13 4 15 10 12 14 6 15 8 5 9 11 12 1 3 6 13 13 6 7 6 9 2 3 8 10 15 1 15 10 3 5 13 7 6 5 5 11 9 15 10 13 7 6 4 11 14 3 15 11 1 11 6 1 11 11 10 7 12 1 11 6 3 1 8 5 2 9 8 14 10 1 2 4 10 15 6 7 8 4 5 13 15 10 1 15 7 4 8 5 10 11 9 8 6 3 9 12 15 2 15 8 13 15 14 8 5 7 10 7 1 3 10 11 14 9 10 2 9 7 4 2 8 11 6 14 13 2 5 3 9 3 11 1 5 10 8 13 7 9 7 11 11 3 4 3 7 10 14 8 10 13 2 4 9 10 6 8 9 2 7 10 15 14 5 13 9 15 4 5 6 9 13 1 8 4 8 4 5 12 2 11 10 1 6 8 12 1 15 1 4 15 3 2 11 6 15 4 2 11 8 12 8 15 1 14 4 5 8 4 6 4 8 11 10 11 7 6 5 13 11 10 5 6 5 9 7 14 6 8 15 1 13 10 15 6 11 15 5 7 8 5 14 14 3 9 9 12 3 6 14 3 2 8 12 8 6 13 11 13 5 10 11 6 14 13 12 2 6 12 5 6 12 7 3 11 3 8 2 5 3 15 12 11 14 5 