P2
33 33
250
8 6 2 3 3 5 4 8 10 8 1 6 7 11 8 2 5 8 14 11 9 6 15 2 9 13 4 14 8 7 6 15 2 14 7 13 8 4 10 10 6 7 2 2 13 3 7 2 13 9 5 6 3 8 9 7 8 5 13 12 9 11 12 12 2 11 10 3 8 10 2 3 7 12 5 14 13 8 15 7 11 7 8 15 2 13 1 5 4 12 3 3 4 7 5 4 10 11 12 2 14 4 8 3 9 12 2 3 14 11 4 5 15 11 11 12 7 15 3 4 13 10 10 1 9 12 8 13 1 13 11 12 13 6 14 8 2 12 8 10 14 14 7 4 15 7 7 6 14 8 4 11 8 4 7 4 10 12 9 10 10 5 5 3 13 11 1 1 9 5 5 5 11 5 5 4 11 7 12 1 11 14 15 10 5 15 2 2 6 11 15 14 3 3 7 11 5 6 1 4 14 15 4 11 6 4 7 13 9 14 1 5 4 10 10 11 9 4 15 14 12 15 15 2 1 5 1 8 11 3 10 9 1 6 0 0 4 3 11 15 11 9 9 1 11 1 15 14 4 8 9 9 10 4 11 11 5 4 3 1 13 15 7 0 8 8 4 0 0 0 8 14 1 6 15 6 10 4 1 5 11 7 12 4 14 13 9 15 13 3 9 13 12 8 0 0 0 14 13 9 0 0 0 0 0 4 5 11 15 1 9 13 6 4 13 11 13 6 8 13 2 11 7 15 0 0 0 0 0 0 9 2 2 0 0 0 0 0 0 0 0 15 3 9 15 2 6 13 9 7 12 7 5 13 0 0 0 0 0 0 0 0 0 7 4 11 0 0 0 0 0 0 0 0 0 0 0 0 0 0 0 0 0 0 0 0 0 0 0 0 0 0 0 0 0 0 10 5 11 0 0 0 0 0 0 0 0 0 0 0 0 0 0 0 0 0 0 0 0 0 0 0 0 0 0 0 0 8 12 4 1 3 10 14 0 0 0 0 0 0 0 0 0 0 0 0 0 0 0 0 0 0 0 0 0 0 0 0 5 7 10 15 14 11 14 15 6 13 7 12 0 0 0 0 0 0 0 0 0 0 0 0 0 0 0 0 0 11 10 14 2 13 6 4 12 5 4 13 11 11 1 12 14 1 4 15 6 10 0 0 0 0 0 0 14 5 13 15 2 15 12 13 7 13 8 8 8 14 3 14 1 8 1 4 13 15 3 4 3 9 9 4 11 14 1 11 13 4 2 14 4 3 13 13 2 5 10 5 13 10 15 5 15 2 14 15 1 5 3 6 1 4 10 7 14 14 11 7 12 3 1 11 9 12 11 10 14 10 1 12 8 2 5 8 10 7 2 12 14 4 8 11 11 1 12 13 8 8 5 12 14 1 14 5 2 5 8 10 5 5 2 10 11 3 8 2 2 14 4 4 8 10 1 10 10 11 3 12 15 12 9 9 9 2 6 12 14 11 7 1 4 11 13 9 13 8 10 10 10 7 10 12 10 13 13 1 4 2 4 2 5 7 5 5 10 15 15 1 14 3 7 12 9 11 15 9 13 15 11 15 12 14 4 1 2 14 6 2 1 3 2 12 11 2 8 3 5 2 7 3 4 3 11 5 10 4 12 13 7 10 9 5 3 6 8 10 1 10 14 2 1 6 6 14 12 6 9 1 1 1 13 4 14 12 12 1 5 1 6 7 7 9 2 15 14 13 2 8 4 7 8 14 2 5 1 15 11 5 4 1 10 10 6 15 5 9 13 12 13 13 9 6 8 11 5 2 7 13 10 3 13 9 8 2 8 1 12 15 2 2 2 2 8 11 12 6 2 6 13 14 9 6 8 2 3 6 9 2 12 8 7 2 12 7 10 8 4 13 13 7 15 14 8 6 14 7 9 3 1 1 9 13 7 7 1 15 4 7 6 11 1 9 14 5 5 8 11 8 11 5 3 5 6 6 5 14 5 9 5 3 6 12 7 14 4 14 13 1 12 4 8 3 4 6 6 5 12 15 12 8 6 6 4 12 15 5 5 4 11 14 12 7 14 8 7 7 14 11 7 12 8 4 2 15 15 9 4 11 3 15 10 5 4 3 8 4 1 2 5 7 8 3 5 12 14 12 14 9 2 6 9 15 4 10 6 1 15 14 12 4 11 2 9 15 6 7 6 11 11 4 3 1 11 7 12 1 11 10 5 6 4 11 1 2 10 4 10 6 7 8 10 5 6 8 3 9 11 13 3 4 3 1 3 12 4 12 6 9 8 8 6 14 13 14 9 6 7 12 5 5 13 15 5 6 9 14 5 4 12 6 3 10 10 8 15 14 6 10 11 4 4 7 15 12 5 11 6 4 10 4 1 15 1 8 15 3 9 9 6 12 14 2 2 3 9 7 10 1 13 10 13 1 5 1 10 13 5 13 5 9 6 11 1 8 2 14 11 1 8 1 13 12 10 10 7 10 8 6 12 