P2
33 33
250
15 12 14 10 7 12 9 11 12 1 6 15 6 13 15 8 11 4 7 12 10 1 9 1 11 1 15 11 1 5 5 7 8 7 10 6 8 9 6 4 2 14 15 10 1 4 8 6 11 1 10 15 7 6 5 15 4 4 13 13 9 4 13 3 15 4 3 2 3 14 15 8 15 3 15 8 4 2 14 13 9 7 15 5 9 12 9 7 13 14 8 8 3 8 8 15 15 6 11 8 4 9 6 15 6 15 13 8 10 2 12 13 5 11 2 6 8 2 9 5 7 13 10 11 14 3 12 2 15 1 5 9 12 9 1 12 4 12 6 4 11 8 2 9 9 14 6 5 4 2 7 11 5 4 9 12 6 6 9 6 8 3 4 13 6 0 7 7 5 5 14 7 12 2 13 14 2 15 9 8 13 12 11 7 14 1 4 13 11 15 8 5 11 11 2 6 6 1 0 7 6 1 3 6 2 9 5 3 6 8 3 10 3 5 15 2 7 4 12 3 5 5 10 11 8 3 7 15 7 3 1 13 0 7 13 4 7 3 13 14 1 2 8 15 5 1 14 1 12 10 12 11 7 13 5 1 4 5 14 9 1 15 2 10 1 0 0 0 15 7 15 6 1 13 4 11 5 9 5 7 4 8 9 6 7 4 14 1 6 7 13 12 11 6 7 0 0 14 7 0 0 0 10 2 3 14 12 4 10 13 5 3 14 7 7 14 8 15 11 10 6 14 6 7 3 5 9 0 0 0 2 15 14 0 0 0 0 0 10 5 6 3 7 3 15 8 9 2 4 1 6 12 14 6 3 13 1 0 0 0 0 0 5 15 2 2 10 0 0 0 0 0 0 0 6 7 2 1 9 11 1 9 5 2 11 11 10 0 0 0 0 0 0 0 9 1 4 10 9 7 12 4 0 0 0 0 0 0 0 0 0 0 0 0 0 0 0 0 0 0 0 0 0 0 0 8 3 14 15 3 2 12 8 8 12 3 10 0 0 0 0 0 0 0 0 0 0 0 0 0 0 0 0 0 0 0 4 10 12 9 12 3 13 3 1 3 1 6 2 6 12 5 0 0 0 0 0 0 0 0 0 0 0 0 0 0 0 13 15 3 15 14 2 11 15 5 15 4 3 7 1 8 2 10 9 4 12 4 5 4 0 0 0 0 0 15 8 8 13 3 11 11 10 12 6 6 6 10 12 1 11 3 2 2 7 8 3 11 14 12 5 8 13 15 9 10 7 12 2 11 5 4 13 14 11 12 6 1 5 1 6 4 10 7 3 5 10 5 4 1 15 7 5 4 2 1 13 13 10 2 4 7 4 15 2 9 6 10 3 1 7 9 9 5 2 2 3 9 11 2 11 15 9 15 2 1 3 5 1 7 15 1 11 5 12 12 5 4 6 11 11 5 15 12 10 13 1 2 13 6 7 5 8 13 13 5 15 8 4 12 8 10 7 2 4 10 1 7 4 4 7 11 11 11 2 14 11 3 14 14 1 7 5 9 13 1 15 1 9 5 2 4 9 3 15 2 9 4 12 4 5 6 12 10 9 1 9 3 10 14 6 3 8 6 4 1 5 11 5 10 3 1 14 5 6 8 9 4 8 14 2 14 14 6 11 12 5 13 1 7 5 5 2 2 14 15 4 13 1 11 3 8 1 12 6 15 14 11 1 3 12 4 6 12 9 7 6 14 1 3 5 1 5 3 9 9 10 11 6 2 5 12 11 9 1 15 9 13 9 11 3 9 12 3 12 9 6 13 7 1 6 6 11 4 7 12 15 2 2 11 11 9 14 8 1 10 11 8 3 3 14 15 4 11 8 12 7 13 3 14 3 12 4 11 8 11 13 5 15 5 12 7 2 4 15 8 15 13 8 15 4 12 14 8 1 15 11 4 8 13 2 13 5 5 15 5 5 15 2 6 3 2 13 8 3 13 7 11 6 12 13 7 8 1 7 1 5 15 4 12 5 4 7 1 7 4 4 8 7 13 1 9 10 6 1 11 5 1 13 9 13 7 2 13 9 1 4 6 14 2 13 11 7 7 14 5 7 2 2 7 5 14 3 14 2 9 15 10 12 5 11 2 15 1 6 8 2 12 8 7 11 6 10 12 9 14 12 2 8 1 14 4 10 5 2 2 10 15 9 14 12 12 7 7 12 9 11 15 9 5 3 5 11 7 1 6 12 8 8 10 4 6 12 10 4 1 1 13 2 5 12 1 1 2 5 10 12 15 13 12 14 6 2 10 9 10 9 12 14 5 9 14 15 15 11 9 5 12 8 9 1 7 6 7 14 7 6 9 5 12 6 15 10 11 1 2 10 10 2 4 11 1 11 2 7 3 5 15 11 13 10 3 2 13 8 4 4 15 8 15 3 9 5 12 9 15 4 6 9 14 15 15 3 6 8 12 2 6 6 4 10 5 12 14 8 10 3 15 15 4 9 1 6 10 9 11 14 13 9 