P2
33 33
250
2 6 15 15 9 6 6 13 7 9 1 6 12 3 10 9 3 10 15 9 9 11 1 6 5 14 4 6 9 9 4 9 1 14 5 14 9 11 11 4 15 2 9 14 14 13 13 14 1 10 3 7 6 5 11 14 14 9 8 8 10 8 3 10 3 1 15 15 11 11 7 11 12 5 9 6 7 13 7 12 10 15 5 5 6 11 6 11 2 7 11 4 2 10 8 1 15 2 10 1 12 1 5 8 1 1 7 13 3 12 1 12 2 14 14 8 5 14 12 13 15 11 1 10 10 11 9 8 2 9 5 7 12 9 1 7 1 6 11 12 13 4 8 8 7 3 6 3 5 15 4 12 13 7 9 2 4 3 15 9 1 9 1 9 7 11 1 12 11 8 14 10 8 4 3 4 7 4 13 4 4 14 5 6 12 1 7 14 15 11 7 7 1 10 2 1 14 6 7 10 5 6 8 9 9 14 9 9 14 7 7 5 10 8 11 10 1 10 6 3 8 10 6 6 14 11 7 1 5 5 6 1 0 11 14 12 1 3 14 9 9 15 12 14 14 3 12 15 12 14 13 12 15 1 5 6 9 4 8 1 15 12 13 12 14 3 0 11 11 11 6 6 8 15 1 6 4 13 6 13 7 4 4 12 11 13 6 10 12 6 8 10 4 3 3 14 15 14 13 10 0 14 1 1 7 10 3 4 1 8 15 6 14 13 9 11 1 12 8 9 3 10 15 15 13 13 12 8 13 12 1 1 6 9 0 0 7 6 13 15 6 11 1 12 14 8 13 13 6 5 5 13 6 5 9 11 1 5 12 6 15 1 0 11 8 3 7 3 0 0 4 11 10 12 7 2 3 5 11 1 5 2 11 4 1 5 6 9 13 15 10 12 3 12 0 0 2 15 3 6 3 9 0 0 0 12 15 10 12 4 9 14 5 4 8 10 1 8 8 13 11 5 3 1 1 0 0 0 1 9 2 1 14 9 15 11 0 0 0 0 0 4 8 12 2 8 14 7 3 7 13 13 14 13 12 0 0 0 0 0 15 9 15 12 1 6 8 13 14 4 0 0 0 0 0 0 0 0 0 0 0 0 0 0 0 0 0 0 0 0 0 0 10 11 14 1 15 14 8 4 8 10 10 7 0 0 0 0 0 0 0 0 0 0 0 0 0 0 0 0 0 0 0 0 9 12 6 14 11 11 2 14 4 13 13 4 10 3 11 0 0 0 0 0 0 0 0 0 0 0 0 0 0 0 0 10 3 11 7 1 14 15 12 6 11 10 7 5 15 2 12 15 13 15 0 0 0 0 0 0 0 0 0 0 0 0 14 7 12 14 3 9 7 8 2 11 5 2 2 6 10 12 8 7 1 13 2 6 8 13 14 0 0 0 0 9 14 8 6 12 15 11 14 13 1 5 8 13 6 5 9 9 7 7 13 13 9 5 3 4 3 9 5 4 1 12 12 11 11 1 9 6 5 13 12 2 4 12 9 3 6 11 6 6 5 11 11 6 12 3 14 7 8 14 4 3 12 14 10 11 8 8 5 8 2 4 8 6 4 9 8 12 8 6 2 5 10 11 14 2 4 5 14 6 15 14 15 5 7 10 9 14 13 8 10 13 2 4 8 15 3 14 15 3 8 3 15 7 15 10 8 8 3 11 9 9 1 3 5 15 11 13 2 7 8 5 15 7 7 5 12 9 1 9 9 11 7 6 14 2 8 11 15 6 15 3 3 3 12 8 5 4 8 8 9 12 3 6 12 8 1 2 5 12 12 10 12 6 7 6 11 13 13 5 10 9 12 5 6 13 3 11 3 1 10 10 8 12 3 11 11 9 1 2 14 4 4 14 4 10 12 2 11 5 11 6 10 2 5 11 13 6 6 7 10 12 9 1 1 11 15 11 3 14 13 12 14 7 6 4 2 3 2 4 1 6 8 6 10 1 3 7 8 4 2 7 12 4 3 8 13 9 13 7 9 5 15 14 15 8 13 5 9 7 4 4 1 15 15 8 11 5 14 6 12 2 2 2 15 12 11 4 5 7 3 6 10 8 5 14 6 10 5 5 7 15 4 5 13 2 13 7 1 4 3 5 2 8 8 1 15 5 15 9 9 7 13 7 1 15 7 8 11 13 11 13 8 12 2 6 6 4 5 5 3 8 1 3 13 11 5 15 3 1 12 1 7 11 3 9 13 13 14 11 10 5 7 12 5 8 4 10 15 13 1 2 15 7 4 10 5 3 4 9 10 1 3 11 8 14 11 5 12 6 8 7 11 12 13 11 6 4 7 3 9 8 13 10 10 13 9 7 12 11 9 1 14 7 2 2 12 7 15 14 9 15 12 3 14 9 10 2 5 5 5 10 8 8 9 4 9 5 15 14 8 4 3 9 8 1 2 9 6 9 4 15 15 12 12 13 5 9 13 2 6 11 12 6 9 9 13 10 3 15 2 11 13 8 4 