P2
33 33
250
1 15 13 1 6 10 15 7 9 3 8 1 11 10 5 13 9 14 15 13 6 5 10 11 13 6 3 1 10 13 4 13 13 10 5 7 3 7 9 13 14 6 8 9 15 4 14 12 12 6 12 8 6 6 3 13 3 10 7 15 2 13 9 1 13 13 12 14 9 15 8 9 13 9 6 14 8 5 8 5 14 4 15 14 11 8 11 4 4 10 7 9 1 14 13 12 4 13 14 11 6 6 6 8 11 1 13 2 5 2 5 9 8 11 6 6 10 13 5 12 4 14 12 13 6 11 15 12 4 15 6 6 8 11 2 13 11 12 12 12 13 13 15 15 3 12 13 7 12 12 4 9 14 13 14 12 4 6 2 10 12 7 7 5 5 13 4 13 6 10 10 13 9 15 13 10 6 14 4 12 11 5 9 8 5 13 7 3 15 8 7 14 11 11 13 9 7 10 5 11 7 9 12 2 1 2 8 14 9 7 6 12 4 3 12 11 2 2 9 15 9 6 13 6 6 11 14 6 12 3 2 0 0 0 14 4 8 1 2 4 9 6 3 11 10 7 12 14 1 10 5 13 0 0 0 0 10 9 9 15 11 7 7 15 0 0 0 8 14 6 2 12 7 14 13 12 10 6 9 1 1 14 3 11 8 0 0 0 0 14 9 11 8 10 5 5 5 0 0 0 1 12 11 6 13 2 3 8 11 10 11 4 13 11 11 5 7 10 0 0 0 0 4 10 9 2 2 13 8 12 0 0 0 0 8 1 13 10 12 3 4 7 8 8 11 15 12 3 8 13 0 0 0 0 11 6 2 10 10 8 9 12 4 0 0 0 0 0 0 0 0 0 0 0 0 0 0 0 0 0 0 0 0 0 0 0 0 3 14 4 8 8 15 9 13 7 14 0 0 0 0 0 0 0 0 0 0 0 0 0 0 0 0 0 0 0 0 0 0 14 6 8 1 12 9 5 4 14 11 10 0 0 0 0 0 0 0 0 0 0 0 0 0 0 0 0 0 0 0 0 0 5 6 12 2 2 9 13 4 15 13 8 6 6 6 8 0 0 0 0 0 0 0 0 0 0 0 0 0 0 0 0 8 12 15 10 3 15 13 9 2 14 8 13 3 10 15 13 7 11 7 5 6 8 12 6 12 8 5 3 12 5 14 6 7 8 6 7 14 13 13 10 2 1 10 7 2 3 6 9 2 4 3 2 9 7 11 3 4 14 4 12 8 7 7 4 1 6 11 1 6 1 5 14 9 15 10 4 9 12 4 14 7 12 11 6 5 13 6 9 13 15 11 10 13 11 7 6 13 7 14 10 14 1 3 12 4 6 14 4 7 1 7 7 8 6 1 1 15 2 13 14 6 9 1 10 6 8 5 14 15 3 2 3 5 3 7 5 8 9 13 9 8 5 9 2 13 15 11 2 10 5 11 12 4 5 3 2 1 13 4 2 2 6 6 7 4 14 9 3 2 14 11 14 6 13 3 4 3 2 11 13 5 2 3 14 8 9 7 3 4 6 9 5 10 4 3 8 14 7 3 8 7 12 12 3 1 2 1 2 12 15 7 12 12 8 14 14 13 14 7 5 9 10 5 6 9 3 13 13 4 14 9 14 15 10 9 6 7 5 15 1 13 1 13 14 8 12 14 6 8 2 1 9 13 1 3 14 12 11 14 3 2 4 6 7 6 11 15 2 10 14 8 4 2 8 15 6 4 5 12 3 3 11 7 13 2 11 14 5 13 14 3 6 11 13 13 14 3 14 7 12 3 5 12 15 6 8 11 1 8 2 14 14 1 15 5 5 6 6 12 8 10 1 6 13 6 10 8 8 11 14 4 5 6 6 12 14 5 15 6 9 2 8 10 8 1 5 15 12 8 9 8 1 14 10 14 10 7 3 12 7 8 1 10 12 1 2 15 13 7 9 12 13 9 8 7 7 2 15 3 7 7 14 13 2 12 1 10 13 1 13 2 7 11 9 5 9 5 1 7 8 5 4 6 15 10 3 11 15 5 2 4 14 2 11 9 14 9 1 11 6 3 5 10 4 7 7 10 11 15 10 12 6 8 5 13 1 11 2 5 1 5 12 13 1 12 8 2 12 1 9 13 7 10 2 7 10 6 9 4 11 11 1 3 14 10 4 9 8 11 9 12 10 1 14 15 9 10 11 1 5 8 2 9 9 13 10 4 14 7 2 2 14 14 10 4 10 15 15 4 6 9 8 3 3 5 6 8 11 6 14 3 6 14 12 2 14 8 15 14 14 15 15 4 11 3 11 15 4 10 4 5 2 10 14 5 13 15 5 15 15 7 10 11 15 9 9 3 6 12 11 15 9 14 10 6 14 3 1 2 1 4 14 6 1 8 12 2 1 5 10 6 8 11 3 9 4 15 6 12 1 13 8 6 1 4 10 6 6 8 7 4 7 13 8 11 13 11 6 4 4 11 15 9 2 5 3 14 