P2
33 33
250
9 2 4 2 4 2 10 10 13 1 7 4 7 14 14 10 5 9 14 9 1 3 4 1 6 6 10 12 8 8 14 13 4 11 4 9 8 8 14 2 12 4 15 1 6 15 2 12 13 14 1 6 11 14 10 13 3 1 10 5 13 14 1 10 11 9 8 10 10 3 3 14 1 7 4 5 8 1 7 12 5 12 5 12 7 6 1 3 9 12 13 14 11 7 8 2 11 3 13 6 8 2 11 12 12 6 10 15 7 4 12 4 2 15 11 2 3 3 2 2 12 15 13 14 1 12 2 13 1 6 11 3 2 8 9 14 7 8 12 14 2 2 10 6 5 3 9 14 8 3 7 8 6 9 14 2 12 13 13 6 7 11 14 6 6 8 6 4 15 13 15 6 7 6 2 5 12 4 9 3 5 9 1 2 9 4 2 3 15 9 13 3 14 5 1 13 15 13 1 8 15 5 10 13 9 2 5 11 12 5 13 15 6 8 9 9 9 1 15 7 8 10 14 7 9 8 11 14 8 2 3 10 11 11 8 4 2 2 12 6 1 4 3 4 9 11 10 13 2 7 13 2 4 15 2 12 1 9 10 13 5 8 1 1 3 3 10 5 1 5 4 11 2 1 10 3 12 2 13 7 7 8 12 11 8 13 5 3 12 15 9 1 10 5 1 14 15 4 3 11 15 7 8 9 7 9 2 2 12 8 13 1 7 5 15 3 2 12 3 13 1 13 11 14 11 2 13 2 6 2 10 9 14 8 1 1 11 8 14 5 7 3 1 11 13 2 6 5 6 15 12 15 6 6 5 7 10 3 2 7 1 9 7 1 1 7 12 6 15 10 3 1 6 13 15 2 5 5 7 5 5 12 7 2 11 2 5 10 9 10 12 13 9 10 4 12 14 13 8 4 14 15 1 11 7 12 5 10 14 11 3 13 15 5 1 7 11 4 12 7 8 14 10 4 7 14 0 0 0 11 2 2 9 9 8 10 12 1 10 6 14 13 5 11 6 4 1 14 13 6 1 5 9 11 15 0 0 0 0 0 0 0 9 7 14 5 5 13 2 0 12 10 8 9 1 6 1 3 4 3 10 4 10 0 0 0 0 0 0 0 0 0 0 0 0 1 13 1 2 1 9 0 0 0 0 0 0 0 0 0 0 0 0 0 0 0 0 0 0 0 0 0 0 0 0 0 0 0 3 10 15 15 11 6 0 0 0 0 0 0 0 0 0 0 0 0 0 0 0 0 0 0 0 0 0 0 0 0 0 0 4 4 1 7 15 1 5 9 0 0 0 0 0 0 0 0 0 0 0 0 0 0 0 0 0 0 0 0 0 0 6 12 5 1 4 3 10 9 15 14 5 8 3 0 0 0 0 0 0 0 0 0 0 0 0 0 0 0 0 1 9 12 14 4 12 11 13 2 6 14 6 4 14 2 5 14 10 15 3 7 0 0 0 0 0 4 14 12 4 15 5 7 3 4 9 12 1 15 5 5 15 14 12 4 2 8 1 4 3 15 12 3 13 14 13 13 15 11 9 6 3 3 13 2 1 13 9 7 1 1 9 11 3 13 12 2 13 7 2 5 10 8 5 12 8 12 11 14 7 10 4 5 8 7 8 15 6 13 1 12 13 2 7 7 13 8 8 5 8 2 15 11 8 5 5 15 11 4 8 15 15 5 13 13 4 11 15 13 12 12 10 9 3 14 1 11 15 2 7 9 4 1 11 14 14 6 1 4 10 10 11 10 5 6 2 12 8 11 3 3 14 1 10 4 15 8 5 6 3 10 1 12 6 12 15 1 1 5 7 15 4 9 4 5 6 5 6 11 15 3 15 4 15 9 4 6 2 11 13 8 3 2 2 8 8 1 2 10 6 6 9 1 15 9 15 6 2 7 6 14 3 9 15 3 15 14 15 7 5 6 9 2 5 14 12 3 5 1 5 14 14 6 14 12 8 6 13 6 14 11 6 2 7 14 11 6 1 15 6 1 8 9 10 13 2 7 14 9 9 12 2 15 11 7 3 12 8 9 4 12 2 6 12 8 9 7 2 15 9 14 11 7 15 6 14 1 2 3 15 5 2 5 8 7 11 9 14 11 9 10 15 1 12 8 14 7 2 11 12 7 1 7 4 4 15 7 3 15 15 10 1 14 9 9 1 11 10 13 4 6 8 4 10 15 11 7 3 4 7 8 14 1 4 9 13 3 8 8 12 10 2 2 3 12 2 8 6 4 2 3 13 5 2 8 11 13 9 6 13 3 11 1 9 5 1 6 4 9 11 2 8 8 13 9 13 7 15 8 6 3 1 11 1 2 14 6 3 10 5 5 3 3 5 6 7 11 4 1 13 7 9 15 1 4 7 11 14 15 9 14 4 10 14 10 10 6 9 2 13 8 10 7 10 14 1 14 6 7 4 11 4 13 8 12 4 10 13 12 12 14 8 4 6 6 13 8 13 1 2 