P2
33 33
250
9 13 3 9 10 7 7 5 8 3 12 3 1 11 8 9 14 1 3 13 1 14 14 6 3 9 15 14 4 12 2 10 13 8 13 11 13 1 15 6 11 4 12 14 12 14 2 9 14 2 5 1 2 6 1 5 9 3 6 10 11 4 10 13 10 15 3 9 5 9 9 3 10 3 10 14 8 7 1 6 11 12 4 3 11 6 3 5 12 12 11 4 1 13 1 6 3 12 12 15 14 2 7 5 6 10 15 11 10 4 4 15 9 2 5 4 2 7 5 6 4 3 3 1 6 4 11 12 12 5 5 15 12 5 2 3 9 9 7 5 2 10 15 2 4 5 12 2 11 13 6 15 10 13 14 15 5 8 4 6 14 7 6 3 3 5 6 2 5 9 12 15 14 8 10 3 5 14 9 1 3 9 13 14 10 3 8 9 5 9 14 3 10 12 3 12 12 8 2 3 11 7 13 14 6 1 10 1 14 7 5 6 0 0 0 0 0 0 11 11 5 8 10 13 9 12 11 12 11 1 2 15 3 5 7 11 15 3 3 10 1 0 0 0 0 0 0 0 0 0 0 0 0 0 0 14 11 8 6 14 6 4 11 9 3 11 11 5 13 1 9 9 0 0 0 0 0 0 0 0 0 0 0 0 0 0 0 0 0 0 3 9 9 13 4 15 2 3 7 7 4 15 14 0 0 0 0 0 0 0 0 0 0 0 0 0 0 0 0 0 0 0 0 0 0 2 14 15 15 8 11 14 13 13 14 0 0 0 0 0 0 0 0 0 0 0 0 0 0 0 0 0 0 0 0 0 0 0 0 5 9 14 2 4 13 1 15 0 0 0 0 0 0 0 0 0 0 0 0 0 0 0 0 0 0 0 0 0 0 0 0 0 0 7 5 5 15 6 11 0 0 0 0 0 0 0 0 0 0 0 0 0 0 0 0 0 0 0 0 0 0 0 0 0 0 0 0 1 15 7 5 0 0 0 0 0 0 0 0 11 15 8 2 5 9 5 14 2 15 2 6 9 1 0 0 0 0 0 0 0 0 14 13 8 0 0 0 0 0 1 6 6 14 2 9 12 9 2 7 15 3 7 10 5 2 9 5 14 13 0 0 0 0 0 13 7 0 0 0 0 5 6 5 11 3 10 2 1 1 10 3 9 6 10 3 14 2 8 2 10 13 7 15 4 0 0 0 0 6 0 0 13 5 10 4 11 7 9 4 15 1 12 7 7 7 3 12 3 1 12 11 14 4 2 5 9 14 13 9 0 0 0 0 3 13 7 9 3 8 13 12 3 5 15 14 7 13 2 11 11 1 5 13 3 15 15 10 1 9 12 13 11 13 0 0 5 12 7 7 5 12 15 12 6 14 11 15 2 2 14 13 13 4 10 9 1 15 14 13 4 2 13 3 7 15 6 12 0 1 14 7 12 1 11 7 7 13 6 10 4 11 2 2 7 8 3 13 2 11 15 10 7 5 15 5 1 3 1 14 5 0 7 6 12 8 5 13 12 10 13 8 5 6 12 9 11 5 15 7 10 7 1 4 15 10 9 10 13 12 8 14 14 9 9 8 13 2 7 1 2 5 10 7 11 14 15 4 5 7 11 11 3 5 13 13 15 10 13 10 14 13 13 12 3 6 3 15 8 4 8 10 13 8 6 3 11 3 6 8 15 4 7 5 3 14 14 15 8 6 6 8 4 5 9 13 3 8 12 5 1 15 3 13 8 14 4 6 10 1 13 6 4 9 2 15 8 1 10 12 6 2 13 2 12 10 8 1 3 2 15 5 5 1 5 1 11 11 8 13 12 9 13 13 9 2 6 5 1 3 11 1 9 9 4 10 7 9 9 10 14 10 5 13 4 10 11 7 14 5 6 10 11 10 15 14 7 13 8 6 2 13 15 3 15 3 13 4 4 10 3 8 7 3 8 4 9 6 13 6 13 10 15 9 3 14 13 3 5 15 13 9 6 1 6 6 6 5 15 7 3 7 3 11 10 10 7 14 9 1 7 8 13 9 11 12 7 5 7 10 12 9 1 3 1 15 9 15 5 9 11 12 2 12 13 9 14 15 15 9 14 12 13 14 11 13 11 10 2 13 2 4 3 5 4 8 11 7 11 6 15 8 15 13 4 4 3 11 9 10 2 10 5 5 11 7 13 5 3 12 2 4 8 5 3 11 14 10 6 15 6 2 1 3 11 14 3 6 4 1 1 2 2 15 8 13 15 13 9 4 14 12 11 13 7 8 8 3 13 6 8 14 2 12 2 5 6 3 10 15 3 7 3 4 2 12 10 8 1 9 11 2 8 6 14 7 14 7 1 8 14 1 3 1 15 9 2 5 1 7 10 12 8 10 2 8 8 6 14 14 6 1 2 14 11 11 6 9 2 14 10 4 9 7 11 4 3 12 3 14 2 11 6 12 4 14 3 9 15 13 11 12 14 6 14 4 3 6 13 3 