P2
33 33
250
7 12 4 14 15 1 4 11 13 7 7 10 14 4 1 4 5 13 1 10 12 9 13 5 6 5 9 4 2 7 9 13 6 1 11 4 6 12 5 14 4 1 2 9 8 13 15 1 9 14 7 15 4 8 11 12 11 11 10 10 12 9 11 7 11 0 5 2 2 15 9 10 3 10 10 2 7 13 1 5 3 15 10 14 10 5 1 12 1 11 14 14 10 14 13 3 7 0 0 12 9 3 5 14 15 12 10 13 14 15 9 1 10 8 13 15 14 4 8 11 11 14 15 13 4 15 5 13 0 0 0 11 5 9 13 6 11 6 1 12 12 15 4 6 7 10 3 6 4 8 7 13 8 14 6 8 15 3 8 12 0 0 0 12 6 12 6 2 6 2 7 4 10 14 12 7 6 3 7 3 2 11 6 15 8 3 2 1 14 4 0 0 0 0 0 0 8 2 9 12 3 1 3 13 5 15 11 7 2 4 2 1 8 11 6 12 1 12 11 11 7 0 0 0 0 0 0 0 8 5 8 13 2 5 10 3 1 10 5 10 10 8 4 3 10 2 9 15 13 6 6 0 0 0 0 0 0 0 0 0 2 4 9 13 9 0 0 0 10 11 14 11 15 10 14 2 5 15 3 6 0 0 0 0 0 0 0 0 0 0 0 0 6 1 15 8 2 13 0 0 0 0 0 0 0 0 0 0 0 0 0 0 0 0 0 0 0 0 0 0 0 0 0 9 9 4 7 4 8 14 2 14 5 0 0 0 0 0 0 0 0 0 0 0 0 0 0 0 0 0 0 0 0 0 0 13 5 2 12 14 7 4 12 1 12 7 14 6 0 0 0 0 0 0 0 0 0 0 0 0 0 0 0 0 0 0 4 4 6 8 5 5 1 4 2 2 10 2 9 6 14 7 6 0 0 0 0 0 0 0 0 0 0 0 0 0 0 11 12 8 4 11 7 13 12 15 5 8 11 3 15 4 4 15 3 14 9 8 3 7 14 0 0 0 0 6 4 3 13 2 15 7 3 3 6 11 13 12 1 7 6 15 13 6 4 10 10 4 3 4 6 13 6 9 9 6 15 11 4 6 13 7 3 9 7 15 5 11 12 1 11 14 9 14 13 12 4 5 3 1 11 12 7 2 5 11 11 14 9 2 12 3 10 5 13 14 13 12 6 7 15 9 5 11 4 1 2 8 4 6 9 5 4 7 10 10 7 1 8 13 1 10 13 11 14 12 10 7 3 7 12 13 4 10 1 4 14 14 7 3 10 8 2 5 2 11 5 6 10 8 1 14 9 15 9 5 12 11 7 9 5 2 11 1 8 3 2 5 12 6 4 4 3 3 7 10 2 14 11 8 3 9 3 13 3 3 14 3 10 9 6 4 5 9 4 10 9 14 9 1 5 3 2 1 14 4 8 14 12 13 14 8 6 10 10 13 15 10 9 14 14 3 8 1 4 14 1 12 2 6 1 3 4 5 12 2 5 13 4 7 5 14 15 8 1 5 15 4 12 13 14 15 9 8 14 13 5 15 13 1 2 10 6 12 12 12 11 10 2 7 11 10 12 11 9 13 14 12 13 3 9 15 14 1 10 8 1 9 2 7 14 15 9 9 2 5 11 5 7 12 14 6 8 13 12 2 8 9 6 5 3 14 12 6 11 4 10 6 4 12 6 8 9 12 14 1 10 3 5 3 10 13 1 7 12 12 5 13 9 6 1 10 2 9 2 15 8 13 3 15 2 6 12 9 3 9 15 13 2 8 1 10 7 11 6 1 9 8 8 6 2 5 14 12 5 14 7 4 2 15 9 3 11 12 3 8 4 8 13 2 1 4 5 4 1 15 8 10 15 14 15 6 7 3 7 8 8 15 13 12 10 2 10 6 1 10 15 9 13 11 12 6 13 2 9 11 6 5 5 7 5 1 12 11 7 12 13 1 3 8 7 15 14 11 13 6 7 9 7 4 4 15 15 14 13 14 15 12 11 15 5 4 11 1 1 1 8 14 14 15 4 8 10 15 7 11 10 14 2 12 10 7 4 13 1 2 5 7 6 12 7 7 15 9 10 9 4 10 11 9 9 10 13 10 5 4 5 5 1 11 15 2 13 9 2 6 13 10 6 8 11 2 12 7 6 13 1 14 2 5 5 12 1 13 11 7 13 14 11 10 2 4 6 7 11 15 10 8 9 1 6 7 4 7 12 10 8 9 7 13 4 5 7 8 1 1 4 2 9 9 9 13 3 2 2 5 2 5 15 5 8 8 12 10 2 11 11 14 9 6 13 9 13 2 9 4 3 12 2 8 15 4 8 6 5 14 6 10 12 14 6 9 3 9 15 10 1 7 10 4 12 4 9 10 12 2 2 1 14 2 9 4 6 6 7 15 9 2 13 13 14 9 12 1 11 14 3 1 13 5 6 9 10 15 1 11 14 7 1 3 11 11 3 4 15 6 5 7 3 