P2
33 33
250
15 15 1 9 2 14 5 4 1 7 9 12 2 8 10 10 6 12 15 1 6 5 7 14 13 3 8 11 13 12 8 3 3 2 7 7 8 7 6 12 7 1 7 15 7 10 13 10 7 10 12 5 5 8 2 15 7 1 8 9 2 14 6 15 13 1 12 9 7 3 6 14 10 14 12 12 1 6 3 7 15 3 15 3 13 7 11 2 9 11 2 11 12 9 9 9 10 13 7 10 1 9 9 11 6 5 4 15 1 1 14 11 11 7 1 5 9 11 8 5 4 10 1 10 8 2 3 4 11 3 4 1 11 7 14 10 8 14 10 1 4 7 3 2 13 13 2 8 4 3 4 1 6 6 1 12 7 3 9 14 11 3 11 6 7 14 11 13 13 15 5 12 2 7 2 8 8 8 9 6 4 4 13 6 10 4 7 4 12 4 13 13 14 8 6 2 7 4 15 9 10 10 14 3 9 5 5 6 10 4 7 13 6 13 13 6 6 5 1 14 12 4 2 2 11 6 3 10 1 11 2 3 11 14 5 1 2 3 10 10 13 10 4 12 2 9 14 11 15 11 7 8 5 3 13 13 6 6 1 13 8 8 2 4 13 6 3 10 15 10 8 7 15 5 1 5 3 6 4 1 2 10 9 12 5 3 15 6 4 6 11 11 9 10 12 0 0 1 11 2 11 9 13 0 14 9 10 8 7 14 1 6 8 6 5 15 8 12 6 5 8 9 8 5 6 11 0 0 0 0 1 10 4 1 15 1 0 0 0 0 15 14 9 7 10 7 4 8 1 13 6 8 4 8 9 6 10 0 0 0 0 0 0 7 6 2 11 4 14 0 0 0 0 0 0 0 0 2 10 7 10 2 5 7 3 0 0 0 0 0 0 0 0 0 0 0 15 7 11 8 3 10 0 0 0 0 0 0 0 0 0 0 0 0 0 0 0 0 0 0 0 0 0 0 0 0 0 0 0 10 7 11 12 5 8 3 0 0 0 0 0 0 0 0 0 0 0 0 0 0 0 0 0 0 0 0 0 0 0 0 3 12 15 3 6 10 3 5 8 2 12 0 0 0 0 0 0 0 0 0 0 0 0 0 0 0 0 0 0 0 0 3 6 3 3 13 8 8 15 6 13 7 10 9 3 4 1 0 0 0 0 0 0 0 0 0 0 0 0 0 0 2 6 10 5 4 1 15 10 9 3 14 10 8 6 6 10 2 2 9 1 12 10 9 15 2 9 1 2 6 7 2 11 10 5 11 9 8 14 13 1 2 1 9 4 7 7 10 1 15 9 14 3 13 9 1 7 13 7 2 9 15 14 5 2 9 11 10 11 15 7 3 1 1 11 13 3 14 13 1 12 8 6 10 7 15 8 1 11 5 11 10 12 8 7 8 7 8 6 11 5 15 1 15 14 4 13 9 10 2 10 7 8 5 4 15 9 13 15 15 14 4 6 3 5 12 12 12 12 3 12 15 13 4 4 13 5 1 12 4 2 7 14 3 6 14 12 1 10 6 1 12 1 12 11 4 4 3 13 9 6 12 12 15 15 6 6 2 11 15 14 7 3 10 13 2 14 15 12 11 2 12 2 11 15 13 3 5 13 13 11 12 11 14 6 2 4 6 11 9 13 8 3 2 12 13 3 8 6 1 8 2 11 9 10 15 7 9 2 4 15 9 4 5 10 7 9 5 14 12 12 1 9 4 8 5 10 10 1 10 12 14 8 2 14 3 2 8 1 6 14 1 6 8 11 8 8 11 6 9 14 10 2 1 15 12 6 7 2 15 15 14 5 5 2 11 12 7 5 14 8 5 10 13 14 6 1 14 12 11 1 5 6 6 7 13 12 10 5 11 13 10 9 6 2 15 9 1 6 15 3 7 6 3 3 8 6 5 14 14 3 3 11 14 10 11 12 12 10 3 14 15 15 13 15 4 1 6 15 5 4 1 8 2 13 11 13 5 7 8 3 9 6 9 15 12 4 5 4 14 7 5 14 11 3 2 11 2 15 3 8 14 4 2 3 13 14 11 14 10 12 15 5 15 1 10 4 2 11 12 10 12 9 3 11 4 2 3 1 10 9 5 11 2 2 6 6 1 7 5 9 2 12 14 7 8 6 12 4 11 2 14 1 5 9 13 14 12 14 7 13 9 6 10 6 15 1 15 8 1 10 14 8 2 3 14 1 10 10 6 12 5 2 11 3 12 7 6 9 5 3 6 6 12 8 3 4 11 15 3 5 2 1 4 5 13 1 11 12 11 3 4 12 4 6 3 4 15 1 7 11 15 4 7 2 12 6 13 8 14 1 15 1 1 8 3 6 5 3 14 5 8 15 15 8 9 6 4 1 3 14 6 9 12 12 9 14 9 15 5 15 8 11 14 1 3 14 7 13 4 4 14 4 4 5 8 11 6 10 5 15 2 13 2 12 14 3 7 5 5 13 6 15 6 11 10 1 15 8 