P2
33 33
250
5 5 1 8 9 11 4 10 8 5 2 3 15 14 3 14 11 5 8 5 13 7 14 11 9 3 1 6 15 3 3 5 8 13 6 1 7 4 8 6 14 10 12 10 14 5 10 13 2 13 6 15 13 7 12 11 7 15 14 14 14 9 8 2 1 1 10 11 11 3 8 6 4 15 5 15 12 13 1 6 8 4 12 2 12 11 6 13 13 4 14 12 12 11 12 7 11 4 10 11 3 4 8 12 10 1 7 14 11 2 13 2 1 7 1 11 14 11 7 4 8 10 12 11 5 15 5 6 4 11 6 15 7 1 9 14 10 4 11 5 8 6 9 14 2 11 11 12 8 8 13 10 5 7 2 7 3 6 12 2 8 6 6 2 7 2 2 9 2 5 3 6 11 1 12 1 14 9 9 15 12 12 3 11 15 8 6 6 14 2 9 3 5 10 4 11 11 5 6 10 9 7 1 10 10 10 6 14 1 2 12 6 11 13 2 6 11 10 7 9 13 14 10 6 7 1 9 5 13 13 14 3 15 11 13 13 9 11 8 9 2 3 6 6 7 3 6 11 8 10 8 8 15 12 11 2 2 13 1 11 13 13 15 0 5 15 12 9 4 8 3 4 14 1 14 12 7 4 7 15 14 8 1 6 12 1 9 9 6 2 14 9 11 14 0 0 0 9 2 10 1 1 7 7 14 4 2 12 9 9 3 11 15 6 3 11 9 9 12 15 11 1 10 13 4 1 0 0 0 0 3 2 12 12 13 12 1 14 12 11 6 8 15 12 13 6 7 12 7 13 11 7 12 13 5 10 0 0 0 0 0 0 0 14 0 0 14 7 3 13 10 12 10 6 5 14 2 4 12 12 12 10 10 1 10 3 10 0 0 0 0 0 0 0 0 14 2 8 0 0 0 0 15 13 9 3 4 9 8 8 2 8 3 10 2 11 0 0 0 0 0 0 0 0 0 0 0 7 13 4 8 9 0 0 0 0 0 0 0 0 0 0 0 0 0 0 0 0 0 0 0 0 0 0 0 0 0 0 15 11 13 13 5 7 10 5 2 0 0 0 0 0 0 0 0 0 0 0 0 0 0 0 0 0 0 0 0 0 0 0 15 11 13 9 12 5 5 7 7 12 14 7 0 0 0 0 0 0 0 0 0 0 0 0 0 0 0 0 0 0 0 1 12 4 12 9 14 13 5 10 13 1 8 7 7 7 7 0 0 0 0 0 0 0 0 0 0 0 0 0 0 6 6 1 3 12 4 6 11 6 13 14 9 4 12 12 5 13 13 15 14 12 11 14 9 0 0 0 0 12 9 14 3 11 2 7 3 7 9 10 1 2 6 8 14 7 11 7 5 9 6 12 9 14 4 14 10 13 14 5 4 5 8 1 8 9 4 13 4 6 3 1 9 5 9 13 14 2 12 15 13 9 14 14 15 7 9 7 13 12 13 2 4 14 5 6 2 8 12 6 9 7 3 7 15 9 11 2 4 7 7 14 5 5 12 4 1 12 2 6 2 9 15 4 13 3 6 15 4 13 7 8 7 8 14 6 3 6 9 7 7 12 3 13 12 8 2 4 13 5 6 2 9 11 14 15 14 11 13 11 2 12 3 7 15 4 2 11 9 1 8 9 8 1 6 10 1 11 8 10 12 9 6 1 4 2 13 9 9 13 13 9 8 15 3 15 8 13 13 4 3 13 2 6 13 12 7 5 12 3 15 11 11 1 5 14 2 11 7 7 5 11 14 11 13 9 15 3 2 14 9 5 7 1 11 4 8 3 9 5 7 4 14 1 6 7 4 1 5 3 2 15 9 12 13 2 3 6 12 2 8 10 11 10 13 7 10 12 4 6 13 15 5 7 9 11 15 14 7 5 5 5 1 15 12 7 3 14 14 7 9 13 15 4 10 9 10 5 6 4 12 14 6 10 7 10 11 1 3 6 15 12 15 10 2 2 6 10 12 13 2 14 13 2 13 6 1 9 14 13 11 10 2 7 7 4 7 10 1 3 7 15 11 13 1 2 11 10 13 9 4 1 6 2 3 7 12 5 8 10 9 3 10 13 11 12 14 3 4 13 11 2 7 7 3 10 10 9 4 4 6 13 3 9 8 14 15 2 11 9 7 8 10 4 15 10 7 10 11 6 15 8 10 14 15 1 1 8 15 13 14 7 1 12 2 4 3 4 12 3 11 8 15 1 1 6 10 15 13 7 7 1 3 14 15 11 10 12 10 2 1 1 12 11 13 5 11 13 14 15 4 9 13 4 7 8 5 9 14 9 14 3 10 11 14 15 6 12 9 4 10 15 9 10 11 14 9 4 1 15 9 1 4 7 14 6 7 3 1 13 11 11 13 7 13 9 12 6 9 11 6 13 10 14 1 5 2 13 10 4 15 8 6 9 13 1 13 14 15 5 15 15 11 10 3 13 14 3 15 4 9 10 9 14 4 15 10 7 8 