P2
33 33
250
14 1 3 12 5 6 2 9 15 12 15 6 5 13 3 15 13 13 5 1 4 3 1 1 11 10 8 7 6 11 11 13 11 7 15 6 15 7 5 2 9 15 15 8 9 12 8 2 10 4 3 1 9 10 9 12 2 12 10 11 6 11 1 15 2 11 7 4 12 10 11 5 9 7 1 9 11 3 4 4 14 3 11 11 14 2 13 14 9 9 2 12 12 7 1 10 10 15 2 1 12 4 8 4 14 6 10 9 3 1 10 3 2 1 9 9 1 10 15 10 8 14 4 6 13 13 5 4 7 14 15 5 9 3 10 12 6 1 7 14 6 9 8 12 5 7 15 10 2 3 2 12 12 5 6 9 13 5 12 9 13 2 8 3 10 14 15 12 1 10 2 12 12 4 3 1 12 11 5 8 12 15 8 8 6 13 4 6 5 3 10 15 3 12 7 15 13 15 15 12 15 10 1 4 11 11 13 4 6 3 2 15 0 0 0 0 0 10 13 6 1 1 1 7 5 10 8 2 12 7 15 6 15 9 1 9 13 3 1 10 11 0 0 0 0 0 0 0 0 0 0 0 0 0 0 14 9 1 4 1 4 1 14 7 4 5 10 3 15 8 5 0 0 0 0 0 0 0 0 0 0 0 0 0 0 0 0 0 0 0 0 5 14 5 14 15 10 10 8 13 14 11 5 0 0 0 0 0 0 0 0 0 0 0 0 0 0 0 0 0 0 0 0 0 0 0 8 7 5 3 8 2 13 15 0 0 0 0 0 0 0 0 0 0 0 0 0 0 0 0 0 0 0 0 0 0 0 0 0 0 5 12 13 5 3 2 0 0 0 0 0 0 0 0 0 0 0 0 0 0 0 0 0 0 0 0 0 0 0 0 0 0 0 0 14 6 11 15 0 0 0 0 0 0 0 0 0 0 0 0 0 0 0 0 0 0 0 0 0 0 0 0 0 0 0 0 0 0 15 13 0 0 0 0 0 0 0 0 0 0 0 0 0 0 0 0 0 0 0 0 0 0 0 0 0 0 0 0 0 0 0 0 7 0 0 0 0 0 0 0 0 0 0 0 0 0 0 0 0 0 0 0 0 0 0 0 0 0 0 0 0 0 0 0 0 0 0 0 0 0 0 0 0 0 0 8 11 9 6 11 8 13 3 11 2 10 6 6 13 0 0 0 0 0 0 0 0 0 0 0 0 0 0 0 0 3 1 12 9 3 15 8 8 11 8 6 10 7 10 5 3 7 5 6 6 10 0 0 0 0 0 0 0 0 0 0 15 5 13 6 3 3 7 14 10 7 3 9 14 11 12 5 14 6 2 10 6 2 10 14 9 0 0 0 0 0 0 1 3 10 1 12 6 1 11 7 1 15 8 5 13 10 14 3 13 7 15 7 7 6 7 14 2 15 7 0 0 0 0 9 8 15 14 11 6 11 8 7 1 9 15 3 8 6 3 1 9 5 10 8 9 4 5 15 14 14 8 2 8 0 0 8 7 14 7 11 9 13 15 1 9 13 11 14 10 5 4 5 9 10 12 4 2 11 9 8 11 12 4 9 2 9 5 10 3 11 7 10 3 7 7 6 4 2 5 7 8 5 7 1 2 4 1 11 3 10 12 12 6 10 7 8 4 9 4 5 15 15 3 12 11 11 12 2 5 8 11 14 1 4 15 13 2 10 14 8 5 9 10 7 15 14 3 7 14 15 3 15 1 12 12 11 1 9 12 1 2 5 10 8 4 6 11 6 12 6 2 12 3 14 7 10 12 14 2 2 5 12 13 2 9 10 11 7 11 12 14 6 9 14 4 11 1 1 9 7 11 3 2 10 10 2 1 6 7 1 8 1 10 9 6 1 3 9 14 3 2 3 4 11 15 5 12 4 5 4 6 3 4 7 14 8 7 14 1 7 11 14 14 15 3 4 4 7 1 5 6 5 9 4 4 1 11 8 2 5 3 13 14 9 5 10 9 15 1 8 6 7 13 8 6 13 5 5 14 4 7 2 5 5 3 13 12 10 5 5 6 13 3 10 8 14 1 7 4 15 1 3 1 12 6 8 15 3 10 15 10 10 9 14 14 15 8 15 9 3 4 5 8 4 3 12 3 5 4 10 2 6 11 2 9 12 8 10 3 7 11 15 9 14 3 11 11 2 15 9 12 9 5 4 5 11 3 7 15 11 11 2 1 10 4 11 9 4 4 5 8 8 2 3 7 9 15 1 1 4 9 12 4 14 9 12 8 12 8 15 8 13 11 3 14 4 5 3 14 12 11 12 1 5 7 8 4 15 2 15 10 2 3 15 14 2 9 7 6 8 3 5 8 7 15 3 2 4 8 4 9 1 4 1 13 11 2 4 14 6 5 6 3 5 4 1 5 1 11 3 4 14 4 11 6 4 7 9 3 12 7 4 3 12 8 8 7 15 15 14 8 10 7 15 12 3 5 7 9 10 5 14 11 