P2
33 33
250
5 9 14 14 2 11 10 15 15 8 1 3 7 5 9 5 12 14 11 12 3 11 10 10 7 15 11 2 15 12 7 12 15 7 6 12 11 5 3 5 14 13 3 14 11 5 5 2 15 1 6 1 13 4 6 3 4 15 9 14 10 14 14 7 12 5 8 9 15 15 10 4 12 11 6 9 15 12 11 1 2 11 6 9 2 15 10 12 7 7 5 3 3 7 8 3 10 9 8 1 11 11 11 5 8 2 8 12 6 12 3 10 11 4 1 13 1 15 8 7 13 2 10 5 7 10 1 15 7 2 12 4 0 0 0 0 0 10 14 5 7 14 10 5 8 11 13 6 12 11 3 13 8 5 1 2 8 14 2 11 13 15 3 14 8 0 0 0 0 0 0 0 0 0 0 13 12 15 8 1 14 12 6 3 15 3 6 4 4 5 1 9 8 9 12 12 3 1 0 0 0 0 0 0 0 0 0 0 0 0 0 0 6 13 14 13 3 12 3 4 15 13 2 11 14 4 9 14 4 5 15 0 0 0 0 0 0 0 0 0 0 0 0 0 0 0 0 14 3 8 7 1 9 12 2 4 2 8 7 3 15 13 5 5 0 0 0 0 0 0 0 0 0 0 0 0 0 0 0 0 0 0 0 3 3 7 8 1 6 1 6 14 5 9 2 14 7 0 0 0 0 0 0 0 0 0 0 0 0 0 0 0 0 0 0 0 0 0 2 1 12 7 7 8 14 3 12 7 13 12 0 0 0 0 0 0 0 0 0 0 0 0 0 0 0 0 0 0 0 0 0 0 2 2 8 12 4 10 15 14 14 11 9 0 0 0 0 0 0 0 0 0 0 0 0 0 0 0 0 0 0 0 0 0 0 0 0 14 8 13 8 2 6 12 6 8 10 1 3 11 1 5 9 12 7 11 13 9 13 6 0 0 0 0 0 0 0 0 0 0 8 12 5 6 4 12 10 4 12 3 6 6 13 13 12 13 12 4 13 9 6 1 10 12 12 2 12 0 0 0 0 0 0 10 5 9 8 7 4 3 14 15 10 4 14 1 13 10 7 8 15 9 5 8 12 11 7 10 2 2 1 14 4 0 0 9 12 13 13 13 11 9 6 1 11 13 15 1 2 11 13 2 3 8 11 14 13 3 2 2 5 9 2 2 5 2 13 4 4 11 9 3 1 11 10 3 11 9 3 4 3 8 8 4 7 6 6 6 3 11 2 15 10 2 6 8 10 6 15 9 4 1 4 15 8 12 15 15 10 11 9 3 7 7 8 13 6 8 14 7 9 14 9 5 4 6 7 14 7 1 9 3 15 3 10 14 8 9 7 5 1 2 15 14 11 7 13 2 10 11 2 10 8 5 9 15 11 6 1 5 11 6 5 9 1 7 6 12 11 1 1 13 10 5 1 8 15 8 8 1 13 8 8 10 3 12 10 11 5 7 14 4 9 8 1 8 14 12 11 4 14 7 5 1 12 9 3 3 2 1 3 3 6 1 7 9 6 11 7 5 6 6 5 11 13 15 3 4 9 3 8 6 4 13 4 9 6 2 12 4 1 1 7 14 3 2 14 8 15 14 3 2 13 10 10 2 14 7 5 8 2 13 5 11 14 4 9 4 6 11 13 4 11 14 11 8 2 12 13 12 2 2 11 12 5 1 6 14 9 8 1 9 14 15 9 5 14 12 8 4 4 4 1 6 5 1 7 15 1 1 1 10 5 4 2 12 14 8 14 9 3 13 9 1 1 1 10 15 9 13 13 15 6 2 8 9 12 6 15 9 8 4 11 2 1 2 10 15 8 9 2 6 14 10 12 7 1 4 8 8 9 11 2 11 9 15 1 14 10 11 7 8 5 14 1 14 14 10 12 6 15 10 2 11 8 9 14 3 8 7 14 10 7 11 2 10 3 10 8 14 3 12 3 5 11 3 13 12 7 15 4 13 12 10 15 15 12 8 9 8 12 1 3 12 10 9 11 2 11 3 15 10 4 6 5 7 10 9 4 11 10 9 1 10 8 7 8 6 3 13 13 7 10 8 15 5 2 11 10 2 3 2 15 15 15 3 14 2 1 12 7 11 10 13 5 5 14 4 12 9 7 7 6 5 1 14 14 9 15 8 14 10 10 10 3 15 5 14 9 3 9 7 3 4 6 2 9 12 10 4 10 5 7 1 11 7 9 15 6 7 4 7 11 14 7 7 8 12 12 4 9 10 5 9 8 14 4 1 5 12 12 7 6 12 13 1 4 11 10 3 4 15 3 10 9 11 15 8 8 3 15 12 13 14 12 15 5 4 1 8 12 10 1 8 15 10 6 14 11 10 12 8 3 14 12 12 2 4 10 8 15 10 11 4 4 3 10 6 2 3 9 6 10 14 9 14 7 13 15 14 4 2 13 11 11 1 8 9 14 1 9 4 5 5 2 12 3 3 15 13 5 11 1 5 5 7 5 6 9 