P2
33 33
250
1 12 11 5 5 8 3 11 3 3 7 7 12 14 14 2 15 9 6 14 13 9 15 9 14 6 7 13 9 8 7 7 11 14 7 9 2 3 15 8 12 9 5 10 2 9 15 11 11 14 8 6 9 12 11 9 13 13 10 9 12 10 12 8 11 12 9 8 5 14 10 11 14 7 4 8 6 15 13 15 1 12 5 4 8 1 10 13 8 8 15 14 1 14 5 10 5 7 5 9 12 10 7 7 8 15 5 2 7 5 8 11 7 4 14 2 12 1 5 11 3 1 11 1 11 12 2 4 7 10 2 9 2 15 14 6 15 6 7 7 14 8 14 2 3 10 10 3 2 9 14 11 12 11 8 6 1 14 12 8 12 5 12 12 12 8 10 4 9 2 14 5 9 12 13 15 10 15 2 7 5 3 2 9 1 15 10 15 15 15 2 14 3 7 4 6 8 9 15 10 8 12 7 9 14 3 7 1 5 9 7 4 7 5 5 13 5 9 13 1 9 14 9 10 2 4 8 8 15 5 3 6 13 14 3 15 3 15 8 3 13 4 4 9 11 7 12 6 3 8 11 8 14 3 10 12 4 9 7 1 13 1 3 8 14 11 14 4 9 5 7 11 6 1 1 10 2 3 2 3 13 11 6 1 2 6 0 0 0 0 0 0 0 5 4 5 4 15 15 9 4 9 15 7 15 4 3 3 3 5 11 4 5 10 0 0 0 0 0 0 0 0 0 0 0 0 0 0 0 0 1 1 6 7 10 4 8 13 9 2 9 7 6 15 0 0 0 0 0 0 0 0 0 0 0 0 0 0 0 0 0 0 0 1 10 2 3 1 9 13 1 10 4 14 6 0 0 0 0 0 0 0 0 0 0 0 0 0 0 0 0 0 0 0 0 0 12 9 10 13 15 9 11 10 7 8 0 0 0 0 0 0 0 0 11 14 15 1 8 14 7 4 12 3 9 10 8 3 5 1 15 8 13 9 15 13 2 4 0 0 0 0 0 0 13 7 15 4 14 8 14 4 3 7 9 9 8 5 15 5 1 12 7 14 10 15 1 6 11 0 0 0 0 0 0 15 5 9 8 6 1 12 3 14 12 8 15 7 14 2 3 7 1 15 1 3 8 2 10 8 15 5 0 0 0 0 12 12 5 4 4 8 5 3 8 4 11 2 3 9 7 9 4 8 1 14 14 3 8 11 3 5 6 6 0 0 0 0 7 4 9 12 4 10 14 12 3 10 9 7 8 1 2 13 5 1 3 6 9 15 3 1 2 7 6 2 0 0 0 0 1 2 11 12 11 4 14 8 4 11 8 14 7 13 1 4 9 14 6 1 5 2 10 2 12 12 4 7 14 11 0 8 10 3 2 11 5 11 6 6 12 8 14 10 5 12 7 10 10 10 14 5 5 11 10 11 4 7 5 2 11 4 4 12 9 1 1 14 14 14 14 12 14 4 12 10 2 1 13 6 11 4 2 8 1 5 3 9 12 10 3 8 6 6 11 1 14 3 1 1 4 11 9 9 3 15 4 14 1 12 12 1 15 7 1 5 9 13 7 6 4 12 1 11 11 5 15 8 5 4 7 6 2 2 11 4 15 5 13 4 6 4 9 8 8 13 8 12 13 4 15 3 13 8 13 2 7 6 14 4 15 7 7 11 7 6 9 6 6 6 8 15 15 1 15 1 6 4 15 9 15 5 11 8 10 12 11 4 13 5 1 10 12 10 7 5 11 7 12 14 3 13 3 11 14 13 3 13 12 2 11 2 13 12 4 14 1 5 12 2 9 13 3 9 1 10 15 15 3 11 3 4 13 6 11 6 5 12 9 14 15 12 5 11 3 9 4 2 13 12 11 6 3 15 2 6 15 5 5 9 4 2 12 2 5 3 13 4 10 4 5 3 8 13 8 3 14 14 12 11 14 4 5 6 10 4 1 10 12 9 2 5 12 9 5 8 4 8 2 13 8 10 11 8 7 10 11 7 10 8 14 10 7 3 3 7 1 5 3 12 12 10 13 2 13 10 9 7 4 6 13 4 14 2 14 7 4 5 10 8 6 6 10 3 9 5 7 1 15 3 10 6 15 10 7 9 13 2 11 8 13 6 7 8 10 15 15 15 2 9 7 14 11 6 4 10 9 10 6 7 9 6 12 6 1 12 13 12 5 12 14 13 7 1 9 8 12 9 8 10 1 11 7 14 7 4 13 5 7 4 14 15 1 9 14 15 8 6 4 1 10 15 4 4 14 1 11 10 10 3 2 7 4 15 14 15 5 1 13 9 10 14 11 2 15 13 5 9 5 8 6 15 6 15 8 3 5 12 6 5 15 3 2 11 9 7 10 15 1 9 6 1 4 9 14 5 8 8 5 12 11 10 11 12 7 1 9 3 7 11 9 3 10 14 3 11 1 5 9 10 8 6 15 9 13 6 10 4 3 5 6 10 11 5 15 7 6 15 1 