P2
33 33
250
3 9 14 11 14 3 13 3 7 7 5 14 9 6 7 12 9 5 3 7 6 6 12 8 4 4 15 4 3 9 1 11 15 11 4 11 12 5 5 14 3 13 12 6 1 3 2 14 13 15 10 13 12 15 9 7 6 8 14 11 7 11 7 10 10 14 11 3 4 9 14 10 2 8 10 8 14 9 13 15 11 3 13 4 13 7 12 5 5 13 10 7 1 9 12 10 12 1 1 8 7 5 11 1 15 10 5 3 1 14 1 7 3 3 15 12 2 2 7 3 13 7 13 1 4 2 1 3 6 6 12 14 10 5 4 7 11 12 11 4 9 11 14 14 13 13 3 13 6 14 1 13 10 13 1 1 3 10 3 6 4 14 11 5 5 13 10 9 11 2 10 10 9 3 13 2 12 5 15 11 1 6 12 11 1 11 3 3 8 5 7 6 15 5 15 6 7 1 14 1 9 1 4 3 8 11 5 7 6 12 1 15 12 15 8 1 6 12 8 8 3 8 14 6 0 8 3 8 6 2 3 3 12 1 9 6 3 6 8 15 12 12 14 2 10 3 15 1 10 12 12 4 9 4 7 0 0 11 14 13 13 7 15 10 10 0 0 0 1 14 3 2 2 10 7 11 15 2 6 6 10 15 14 13 9 5 4 0 0 0 14 8 6 5 11 2 15 9 0 0 0 0 8 7 13 12 14 5 1 7 13 7 10 2 2 15 13 15 0 0 0 0 9 11 5 9 13 1 6 3 0 0 0 0 0 0 0 4 8 2 11 9 11 15 11 10 12 1 0 0 0 0 0 0 12 9 1 9 2 2 13 8 2 0 0 0 0 0 0 0 0 0 0 0 0 0 0 0 0 0 0 0 0 0 0 0 6 13 8 11 4 15 1 9 12 12 10 0 0 0 0 0 0 0 0 0 0 0 0 0 0 0 0 0 0 0 0 0 10 11 7 1 12 14 7 1 14 9 12 6 0 0 0 0 0 0 0 0 0 0 0 0 0 0 0 0 0 0 0 10 2 4 7 5 10 7 7 11 13 4 2 5 8 3 1 0 0 0 0 0 0 0 0 0 0 0 0 0 0 0 0 3 2 4 6 13 6 5 9 4 9 4 8 15 9 11 3 13 7 0 0 0 0 0 0 0 0 0 0 0 0 10 15 3 11 11 7 12 13 6 9 1 7 12 7 4 3 15 4 5 5 5 8 1 8 13 0 0 0 0 14 11 11 4 11 12 11 13 7 3 10 10 6 6 2 2 1 10 9 15 14 10 7 7 15 6 5 7 8 4 3 10 14 7 7 11 12 15 7 14 4 8 12 1 7 7 9 13 5 9 13 12 11 11 1 14 12 14 7 2 1 2 15 13 8 15 13 7 1 12 2 8 5 12 9 10 14 1 8 15 14 14 12 4 15 10 9 3 12 15 12 11 13 14 8 14 11 12 15 8 12 2 14 6 6 12 7 15 2 7 9 1 9 11 5 7 4 11 2 3 15 3 5 8 7 13 11 9 1 9 1 8 7 14 4 11 15 8 6 8 6 4 6 13 2 1 4 10 6 11 3 14 7 10 13 1 13 7 7 1 12 15 13 8 13 4 15 8 4 13 10 14 6 10 7 5 14 11 13 12 8 11 12 14 8 3 10 13 14 15 12 12 5 15 5 1 11 9 4 4 9 1 3 7 15 6 6 14 10 1 1 3 9 7 11 15 3 5 14 2 11 6 4 3 5 9 4 7 10 7 9 1 3 6 5 14 3 6 2 1 2 4 4 7 14 15 14 3 4 8 14 7 3 9 4 1 12 7 15 8 12 10 3 7 15 9 1 12 6 13 8 2 15 11 8 10 3 8 9 12 15 3 5 12 15 10 7 11 1 15 1 4 4 3 11 15 3 5 10 15 13 10 7 15 15 11 10 2 9 14 12 6 8 15 5 6 15 13 1 2 13 11 3 1 8 10 15 1 6 3 12 15 11 15 3 4 11 10 7 2 1 2 14 10 14 3 1 8 15 1 11 9 3 5 4 9 1 4 3 13 10 12 6 5 13 10 7 15 4 9 8 14 12 11 11 10 15 13 9 13 7 11 6 8 4 15 2 14 6 13 1 3 10 13 13 4 14 8 6 11 2 9 11 1 1 15 8 14 15 6 3 14 5 11 3 6 5 5 4 7 5 5 6 5 1 8 12 5 9 14 2 4 10 3 14 7 11 14 12 13 10 3 14 9 13 11 4 3 1 4 6 2 9 5 5 8 3 1 11 13 8 6 1 12 1 6 1 6 3 3 14 12 11 11 14 2 15 14 11 7 11 8 7 7 10 14 7 5 7 9 13 3 3 8 13 10 15 14 6 2 9 5 13 1 4 10 12 3 1 4 9 13 6 1 2 9 8 12 10 8 9 2 6 8 8 10 9 11 12 12 12 13 5 13 5 10 3 3 2 11 6 12 9 14 14 5 1 5 7 