P2
33 33
250
13 8 2 14 10 13 10 7 14 15 1 1 3 4 9 1 9 9 9 14 11 1 10 10 9 14 13 9 1 3 10 2 3 6 7 3 10 14 13 2 4 8 8 15 5 2 6 6 3 4 2 9 15 12 1 4 15 9 13 3 12 1 15 6 8 14 15 13 7 15 2 11 13 2 15 14 2 7 7 2 3 9 13 6 7 7 14 7 14 5 15 7 3 2 11 9 10 4 6 7 13 1 10 12 6 13 5 3 1 13 11 8 5 4 3 15 9 6 8 1 15 4 5 4 15 6 7 10 6 14 13 1 15 1 8 7 14 10 14 13 15 10 7 10 14 6 2 14 9 11 9 15 8 5 9 15 1 4 12 4 2 12 1 15 14 9 15 14 7 8 12 14 5 15 10 5 4 1 5 5 10 13 2 6 11 12 9 8 10 2 8 6 4 10 10 5 15 11 7 10 2 7 10 15 3 4 3 10 11 6 12 10 9 13 11 7 6 4 2 11 14 2 5 8 2 13 11 6 1 15 3 1 3 5 6 14 6 11 4 15 13 10 4 13 11 13 13 3 4 7 0 0 0 0 0 0 6 13 3 8 4 6 2 4 9 13 11 5 4 13 15 14 7 8 14 7 15 6 0 0 0 0 0 0 0 0 0 0 0 0 0 0 0 0 7 3 14 3 5 3 3 5 13 2 6 15 4 5 0 0 0 0 0 0 0 0 0 0 0 0 0 0 0 0 0 0 0 0 0 1 9 13 2 4 5 13 6 9 15 0 0 0 0 0 0 0 0 0 0 0 0 0 0 0 0 0 0 0 0 0 0 0 0 2 13 8 6 6 3 14 0 0 0 0 0 0 0 0 10 5 15 11 2 5 14 3 3 1 4 7 11 0 0 0 0 0 11 1 7 13 6 8 0 0 0 0 0 0 14 7 2 2 2 7 13 2 13 10 13 15 7 14 12 12 7 14 2 15 0 4 10 8 5 0 0 0 0 0 6 3 10 5 11 7 10 2 10 9 2 9 8 15 7 8 9 5 15 14 10 1 10 12 1 15 3 0 0 0 0 0 12 4 1 14 11 15 5 7 11 12 15 6 12 13 9 14 3 14 14 2 2 11 15 6 13 10 6 8 0 0 0 9 4 10 3 15 9 8 4 14 12 11 3 10 3 3 15 11 15 11 1 9 9 15 13 9 8 6 8 13 5 0 0 12 5 13 9 14 13 3 5 7 9 2 2 9 5 2 14 2 2 15 10 12 6 11 2 10 2 13 13 10 3 11 7 10 3 9 13 10 7 3 3 3 11 2 10 12 5 12 5 15 6 11 7 11 14 2 5 7 13 8 3 10 2 3 4 15 9 5 10 14 9 3 2 7 4 13 4 9 8 4 13 9 7 11 8 1 13 10 12 2 6 4 3 2 6 7 7 12 7 2 3 11 2 9 11 11 1 4 4 11 9 6 7 12 15 1 14 13 2 14 8 7 11 14 8 7 2 1 5 4 2 2 10 9 12 8 4 13 12 8 10 6 5 13 11 13 14 14 1 8 15 4 4 2 2 15 7 15 9 3 1 8 8 5 9 10 3 12 6 9 11 12 4 10 13 5 6 12 5 6 2 6 4 4 4 1 6 11 14 1 7 12 8 9 15 15 12 8 9 6 12 14 1 8 5 10 8 12 2 12 6 14 4 10 15 10 10 9 14 2 2 4 3 3 14 9 5 12 1 3 15 9 10 1 12 10 13 12 4 15 9 11 8 5 9 15 9 1 12 10 1 14 2 8 12 9 10 6 9 10 6 14 12 1 10 9 3 14 10 15 3 4 6 9 15 10 1 3 14 3 10 10 13 12 10 15 4 8 15 15 11 9 5 4 2 3 5 1 1 5 5 13 3 3 13 7 12 12 8 2 11 4 2 5 11 14 2 10 5 5 3 4 11 4 1 10 11 10 12 6 5 8 5 12 4 11 14 6 2 15 11 2 10 3 10 1 11 15 6 5 13 9 12 9 14 8 4 8 13 3 1 11 6 10 10 4 4 13 3 6 12 11 2 7 9 2 9 1 8 7 2 15 10 12 13 1 1 6 11 12 4 11 4 12 9 3 4 13 2 10 13 4 2 5 5 7 3 12 10 11 13 5 15 10 9 6 5 8 10 1 4 3 13 10 9 6 8 6 2 6 14 5 3 9 5 7 9 13 2 8 1 10 13 13 1 15 12 1 11 13 12 1 7 6 1 7 6 13 8 3 10 1 2 11 14 8 9 7 2 5 13 8 8 12 3 2 3 7 15 6 2 9 10 8 7 11 12 7 6 6 6 3 2 6 4 9 13 5 15 14 1 4 6 4 9 7 11 9 1 7 8 5 7 4 10 8 15 1 2 15 14 13 3 15 7 13 13 4 10 9 6 9 5 14 9 5 14 2 2 5 13 14 8 11 4 2 9 2 12 9 13 1 5 3 11 8 12 