P2
33 33
250
6 4 3 4 10 4 4 1 12 2 2 8 8 3 8 9 10 14 11 6 9 9 6 11 7 10 15 2 7 5 10 11 2 2 5 14 8 2 5 6 5 9 1 11 7 15 15 11 2 14 13 5 8 3 15 10 8 2 12 5 2 4 15 15 3 5 6 6 1 12 15 11 13 3 1 4 10 15 14 11 5 9 1 4 10 5 2 14 5 7 14 4 7 7 4 6 12 2 1 14 3 3 15 15 9 7 11 13 11 3 5 12 13 9 13 11 13 8 1 6 8 8 15 7 12 7 11 15 5 7 6 2 8 13 5 6 4 5 7 5 7 10 1 9 4 15 7 4 1 9 11 1 3 11 14 7 3 11 7 9 2 3 10 9 2 13 13 4 1 3 12 10 10 6 2 10 8 2 4 0 0 0 0 0 12 14 1 4 8 11 12 11 14 1 14 9 15 8 3 12 8 6 11 11 12 15 0 0 0 0 0 0 0 0 0 0 0 0 0 0 0 0 9 6 3 13 10 12 8 12 15 4 9 6 14 14 0 0 0 0 0 0 0 0 0 0 0 0 0 0 0 0 0 0 0 0 0 0 14 7 11 10 14 6 5 1 7 0 0 0 0 0 0 0 0 0 0 0 0 0 0 0 0 0 0 0 0 0 0 0 0 0 0 0 11 10 14 13 0 0 0 0 0 0 0 0 0 0 0 0 0 0 0 0 0 0 0 0 0 0 0 0 0 0 0 0 0 0 0 14 0 0 0 0 0 0 0 0 6 12 10 15 2 10 13 2 1 8 11 13 14 14 3 10 11 0 0 0 0 0 0 0 0 0 0 0 0 4 13 12 10 11 7 10 12 10 11 6 7 2 6 2 6 8 1 3 3 10 5 3 11 6 0 0 0 0 0 14 6 15 3 2 15 9 4 8 14 4 3 8 7 5 7 3 11 10 9 15 5 6 14 8 3 7 14 15 12 13 0 1 8 4 11 11 2 15 10 8 14 1 5 5 8 15 11 1 9 9 7 12 6 10 8 13 14 8 7 6 11 13 8 4 13 12 3 15 15 11 4 5 2 4 3 3 2 15 6 11 8 10 15 9 7 5 14 5 9 13 2 7 11 15 9 14 4 15 10 12 12 6 8 8 3 14 5 11 5 6 2 8 6 7 7 2 9 9 5 7 4 2 1 11 12 12 10 10 5 1 15 5 5 10 9 11 9 3 4 9 13 10 3 4 5 14 2 10 4 11 11 7 9 13 14 11 2 11 4 10 15 13 15 6 3 2 3 11 14 11 2 3 12 5 2 14 2 15 8 8 8 7 12 6 12 7 12 9 11 13 11 5 15 1 5 14 12 13 1 15 14 12 3 4 8 6 12 9 11 10 10 12 9 11 6 2 8 3 14 6 15 9 14 13 14 2 6 13 14 15 6 4 9 3 14 11 10 5 4 11 9 15 3 11 15 5 15 1 13 9 3 8 11 4 9 10 12 7 13 14 8 15 6 10 10 14 2 8 11 3 12 1 11 11 1 12 15 13 6 13 5 3 8 14 14 10 12 3 7 2 15 1 11 2 13 14 12 2 10 1 5 11 2 7 6 9 14 13 4 9 3 15 7 12 9 5 11 6 9 15 12 4 14 11 3 10 9 1 4 5 2 11 2 3 4 10 5 14 10 11 2 3 1 15 11 5 11 2 1 1 14 5 2 15 3 8 1 15 6 11 7 9 12 14 13 3 7 6 3 8 3 5 4 2 6 7 9 7 4 11 6 13 8 3 12 9 13 11 15 14 9 12 8 3 9 9 3 6 9 9 6 4 15 4 15 8 3 7 6 1 11 1 6 15 5 3 4 15 5 1 7 3 8 8 4 8 4 12 5 1 4 4 14 7 5 12 2 5 1 2 15 5 7 7 7 12 1 4 3 13 7 13 14 8 3 5 12 5 14 9 11 9 2 3 9 15 4 11 7 12 7 5 10 9 9 9 15 12 6 10 6 6 7 8 10 9 7 12 6 7 8 6 14 2 6 11 5 8 14 8 1 11 13 6 1 14 2 8 15 9 7 8 2 3 1 5 5 13 13 15 10 11 9 10 14 10 11 8 13 1 3 4 4 6 4 4 1 7 13 15 9 6 1 5 14 6 3 11 5 4 5 11 5 3 3 9 9 5 4 7 13 10 6 1 1 6 13 3 7 3 10 2 9 3 8 1 6 10 13 5 9 6 4 11 12 9 1 14 14 4 9 13 2 4 2 8 1 15 12 4 3 6 5 14 9 2 14 2 2 7 2 12 13 9 13 13 14 14 4 14 3 2 10 7 10 9 1 3 11 13 14 6 1 14 1 6 11 9 10 6 2 10 1 2 15 4 14 15 10 6 6 6 3 3 12 14 9 2 3 15 9 14 6 12 12 1 7 13 12 5 14 1 2 11 13 6 13 3 3 11 2 7 1 5 11 12 5 6 9 15 5 