P2
33 33
250
6 3 13 4 13 4 1 11 5 15 14 11 8 13 13 2 13 1 6 5 8 14 9 3 11 5 14 7 3 8 6 2 12 7 13 11 9 13 14 10 5 12 14 5 9 7 10 1 5 2 4 11 7 13 4 1 14 8 12 9 10 4 14 11 12 2 6 13 9 7 1 14 15 6 11 11 12 2 10 7 13 15 10 6 1 13 3 14 2 3 7 13 3 13 7 3 5 4 3 6 8 9 9 15 15 15 4 6 8 8 8 9 1 10 12 3 10 6 14 4 15 2 10 6 3 3 1 9 2 9 15 4 15 5 2 8 2 15 8 4 4 7 1 9 2 5 15 6 3 2 9 10 15 14 1 4 6 15 11 13 13 5 2 14 14 8 2 12 12 15 4 5 8 15 14 15 9 9 13 11 2 4 11 13 14 4 7 10 14 15 3 9 3 7 12 3 12 15 0 15 8 1 10 11 5 4 15 12 10 11 11 11 11 4 4 11 14 5 11 4 13 1 10 10 4 4 7 7 15 11 15 1 0 0 3 14 6 3 15 10 4 10 14 13 12 2 14 2 15 3 11 2 15 10 15 1 11 7 11 11 7 4 13 11 10 2 0 0 0 10 15 5 15 3 4 15 8 6 5 1 6 15 1 7 14 15 10 8 12 7 12 7 2 10 10 0 0 3 1 7 0 0 0 0 9 7 10 1 3 11 9 14 1 4 10 11 13 15 13 8 10 3 5 13 6 15 0 0 0 0 3 13 7 9 0 0 0 0 0 0 6 2 14 8 1 12 7 5 14 12 7 2 11 15 5 9 0 0 0 0 0 0 14 14 4 15 15 13 15 0 0 0 0 0 0 0 0 0 0 0 0 0 0 0 0 0 0 0 0 0 0 0 0 14 12 14 14 15 7 2 10 14 11 11 0 0 0 0 0 0 0 0 0 0 0 0 0 0 0 0 0 0 0 0 12 12 9 14 12 13 11 4 10 9 15 11 14 3 11 10 0 0 0 0 0 0 0 0 0 0 0 0 0 0 0 14 7 2 7 1 1 13 9 15 8 7 11 3 15 8 15 5 5 3 6 9 3 4 0 0 0 0 0 7 10 6 2 7 7 8 13 4 11 12 13 4 9 11 15 2 14 15 2 7 9 1 5 7 1 9 14 15 14 8 5 6 12 13 14 1 2 9 15 5 3 1 14 3 5 1 3 2 15 4 11 6 2 11 5 12 8 7 12 14 2 2 7 5 3 8 4 4 1 7 7 15 8 10 5 15 2 11 3 8 5 13 3 11 10 3 6 4 13 14 13 7 7 8 7 13 12 15 13 11 8 13 12 9 5 7 8 15 6 6 2 5 14 15 12 14 7 14 10 5 2 13 9 2 2 6 11 1 9 7 8 12 7 7 4 1 5 12 12 8 8 7 11 11 15 10 14 9 1 4 11 5 14 2 4 3 6 10 6 15 7 5 6 15 8 12 10 6 13 5 9 15 14 10 5 6 5 11 9 4 7 9 6 3 11 13 15 14 4 8 3 15 14 3 1 4 1 8 6 1 2 12 4 8 11 13 1 14 9 13 14 15 4 15 6 14 13 4 12 3 11 11 12 3 12 4 14 7 9 14 2 3 6 12 11 8 6 9 14 13 10 15 10 3 15 9 5 6 10 12 5 15 4 6 5 8 13 10 9 11 6 2 9 12 6 5 15 3 9 8 2 14 8 11 8 9 10 3 11 10 3 9 2 6 10 9 1 12 5 11 8 9 6 12 14 14 3 8 3 8 10 13 1 2 11 11 10 15 11 4 1 8 13 14 5 7 6 11 6 12 1 14 11 7 15 1 11 15 4 10 5 5 12 11 2 12 2 5 4 2 15 15 14 3 3 11 3 1 3 5 6 8 6 3 14 13 10 6 15 7 9 7 6 6 13 13 6 7 14 13 6 2 1 4 2 5 11 4 8 5 4 15 10 11 3 8 11 13 12 14 2 8 7 1 10 4 14 10 5 9 7 12 9 9 5 5 12 15 5 14 14 5 7 7 11 9 14 6 15 2 3 5 11 6 6 10 5 13 3 9 1 14 11 3 6 6 8 5 5 13 10 1 1 1 11 3 1 7 1 5 1 9 5 5 8 12 6 1 1 12 10 10 15 8 12 12 11 9 14 15 10 1 5 3 14 15 10 12 4 9 3 10 7 1 10 14 3 12 8 13 3 4 9 8 3 11 12 12 10 14 15 7 2 7 4 12 4 7 12 4 2 15 13 9 2 14 10 4 4 6 2 10 14 14 9 6 9 9 11 13 15 13 6 10 5 5 8 5 7 4 3 14 8 1 10 3 9 1 10 13 12 7 3 14 14 9 8 2 4 4 8 15 2 5 11 9 12 9 2 5 15 11 8 11 9 10 12 12 2 2 3 2 9 8 4 12 12 2 10 2 4 6 2 15 9 2 7 9 3 8 14 3 14 11 5 