P2
33 33
250
14 6 13 1 8 13 15 6 6 11 2 5 4 3 11 6 2 15 5 1 13 6 11 14 8 11 4 6 11 4 6 12 9 1 1 5 9 4 9 1 12 10 3 5 11 12 6 15 9 8 14 5 4 7 1 15 8 2 6 14 9 1 7 14 4 5 8 6 4 9 4 12 1 11 2 13 9 1 8 14 13 11 9 3 8 4 12 5 12 5 3 13 15 10 10 6 15 2 1 13 13 9 1 7 11 4 4 10 6 10 1 8 5 12 15 1 12 5 8 8 7 9 15 5 11 7 7 13 6 13 13 9 4 7 12 12 8 7 8 2 3 7 14 5 3 7 12 7 10 7 12 3 7 12 14 2 9 3 13 7 1 1 10 11 11 11 4 15 12 1 2 13 14 1 8 9 9 3 6 1 15 4 1 14 5 2 10 11 13 2 11 14 14 12 11 12 10 6 8 4 10 1 9 4 7 9 9 1 14 5 10 2 7 6 3 3 11 15 9 0 0 0 0 0 2 14 5 12 6 4 3 8 3 15 14 11 13 5 11 13 13 12 15 4 13 6 3 0 0 0 0 0 0 0 0 0 0 0 0 0 0 13 14 14 7 8 2 3 1 9 15 11 4 11 2 1 6 0 0 0 0 0 0 0 0 0 0 0 0 0 0 0 0 0 0 0 3 10 5 14 6 15 1 15 6 14 6 3 0 0 0 0 0 0 0 0 0 0 0 0 0 0 0 0 0 0 0 0 0 0 12 15 10 1 7 2 4 7 6 0 0 0 0 0 0 0 0 0 0 0 0 0 0 0 0 0 0 0 0 0 0 0 0 14 5 10 7 3 9 9 10 0 0 0 0 0 0 0 0 0 0 0 0 0 11 14 8 9 3 8 10 7 15 2 2 10 6 4 10 5 2 4 2 0 0 0 0 0 0 0 0 0 8 6 7 5 5 3 12 12 2 5 9 4 6 12 6 13 10 6 2 11 11 10 2 0 0 0 0 0 0 0 2 12 8 6 15 12 5 9 15 11 3 15 11 9 10 2 13 14 6 14 1 9 1 2 3 0 0 0 0 0 2 5 4 12 14 2 6 5 2 3 8 9 1 8 3 12 11 9 1 1 4 9 13 7 8 15 10 0 0 0 0 2 2 4 4 10 9 9 5 8 11 6 15 2 7 3 9 15 5 1 3 8 1 7 8 2 14 4 12 2 0 0 6 4 1 10 3 7 7 10 14 14 12 9 7 10 9 9 8 7 3 5 5 5 13 12 7 6 4 1 8 4 0 0 8 11 13 14 2 5 3 4 8 6 13 13 4 5 11 6 6 2 9 7 13 7 2 14 11 3 3 2 9 10 14 0 11 12 12 4 2 4 4 10 12 12 3 2 15 5 9 1 13 15 10 11 5 10 5 10 8 5 6 1 12 11 15 0 9 6 10 10 7 11 13 3 13 11 10 5 3 4 10 6 4 6 8 6 7 9 5 3 14 3 2 13 13 14 3 15 6 4 15 12 14 7 15 8 6 5 3 10 9 6 10 13 7 9 7 14 2 2 11 8 7 9 15 7 7 11 11 14 15 2 1 4 8 2 7 10 9 2 11 13 11 6 5 11 1 15 7 6 4 12 12 3 12 14 13 8 6 2 3 10 2 6 6 7 8 14 10 4 15 9 5 6 8 5 9 5 1 13 11 1 10 2 5 10 5 2 6 2 14 5 5 9 14 8 14 14 15 2 6 14 13 2 1 9 8 1 12 4 8 8 10 15 12 10 11 12 14 11 1 3 1 15 7 13 2 12 3 12 15 10 5 6 1 3 15 11 13 14 3 14 4 2 3 12 7 9 15 9 12 11 11 4 11 1 7 12 6 13 10 1 2 5 14 13 6 11 12 7 10 5 6 3 12 3 6 10 5 8 6 10 7 2 11 14 8 3 8 9 5 7 13 13 3 13 11 8 3 2 13 13 6 6 3 5 9 8 8 9 3 10 12 10 1 11 4 4 9 2 14 1 7 13 10 9 5 5 2 2 15 14 9 13 6 7 2 5 9 8 13 2 13 4 5 5 12 15 15 12 6 13 15 9 4 4 9 9 4 1 2 7 1 2 13 10 13 4 14 14 11 13 13 15 3 12 12 1 7 8 1 14 8 9 11 9 15 9 3 8 5 5 6 12 3 7 14 1 6 7 4 15 5 12 14 7 5 7 11 15 6 13 15 6 6 2 4 8 5 13 9 2 9 10 4 14 11 3 9 15 4 6 4 6 11 13 14 7 2 5 2 2 15 14 10 10 14 8 9 11 10 15 11 9 10 14 4 12 6 13 4 11 9 3 15 4 12 8 15 14 12 14 1 9 14 11 3 9 9 7 8 14 3 5 10 5 14 9 8 9 13 4 9 2 7 9 1 8 15 8 3 13 3 9 14 15 11 13 13 5 15 13 6 4 4 5 1 9 8 14 3 6 6 4 5 