P2
33 33
250
5 13 1 13 6 15 13 2 14 7 14 4 10 2 5 3 6 15 4 6 6 9 3 8 5 1 6 5 2 10 13 1 10 6 6 14 3 12 4 8 6 14 11 9 7 12 8 10 15 7 14 12 10 7 2 10 1 8 10 4 2 15 3 5 11 2 5 4 11 15 1 1 11 9 9 1 9 9 8 1 10 7 12 14 1 11 2 3 9 8 3 2 6 6 8 7 15 3 10 15 9 14 2 12 6 11 8 12 2 3 12 12 4 7 15 6 13 12 1 13 14 8 8 10 4 15 11 4 7 2 6 5 11 4 8 4 13 7 5 4 3 11 11 6 13 7 10 8 10 1 11 5 4 2 13 6 9 12 2 9 14 9 11 10 3 14 4 10 10 15 3 1 11 5 3 4 6 13 13 15 15 2 12 13 2 11 6 10 3 13 9 6 12 4 15 8 11 3 10 3 2 14 9 12 15 13 5 13 3 15 12 4 7 15 1 6 12 2 6 3 6 1 7 7 6 5 10 8 11 10 1 11 11 4 3 14 4 7 5 6 2 11 3 8 0 0 0 0 0 13 15 13 3 14 1 13 12 12 12 2 12 14 6 9 5 8 13 14 11 6 6 10 0 0 0 0 0 0 0 0 0 0 0 0 0 0 0 0 10 11 2 6 10 11 11 8 1 4 13 9 14 9 12 0 0 0 0 0 0 0 0 0 0 0 0 0 0 0 0 0 0 0 0 10 4 13 5 15 2 8 11 9 4 15 0 0 0 0 0 0 0 0 0 0 0 0 0 0 0 0 0 0 0 0 0 0 0 0 9 2 15 10 14 4 5 0 0 0 0 0 0 0 0 15 2 3 2 11 10 13 1 12 5 4 13 0 0 0 0 0 0 0 0 8 10 12 4 0 0 0 0 0 0 12 11 4 12 9 11 6 13 13 4 6 12 11 15 14 14 8 14 0 0 0 0 0 0 3 13 6 0 0 0 0 7 5 6 6 3 11 6 7 15 3 4 5 7 10 10 4 7 15 5 11 4 5 0 0 0 0 1 9 14 15 0 0 10 7 2 14 15 7 6 8 4 4 7 13 1 12 5 11 14 5 13 10 13 8 3 3 0 0 14 5 7 8 7 5 10 5 9 8 1 9 9 4 7 13 9 8 14 10 12 14 3 15 13 10 11 5 8 10 7 11 12 8 15 7 13 11 8 1 8 1 4 12 8 7 9 14 3 2 1 8 1 9 2 15 11 11 13 6 8 13 6 8 2 6 1 10 3 6 14 9 2 15 4 13 1 5 5 3 5 9 15 15 4 14 10 9 3 11 1 3 3 11 10 12 9 15 8 12 3 8 8 14 3 12 15 2 3 4 9 15 3 8 6 14 9 2 8 11 14 5 12 7 4 11 11 5 12 15 10 14 9 12 15 8 9 4 13 15 9 6 3 8 5 14 14 4 10 2 11 4 1 9 9 9 2 10 8 8 3 14 7 7 13 9 5 1 6 9 14 5 7 7 2 1 7 6 15 7 15 6 10 8 11 14 7 15 13 12 1 4 6 9 2 1 5 14 6 7 15 7 5 12 2 15 7 15 3 3 3 10 9 1 14 6 3 2 3 4 6 6 6 12 15 9 10 9 10 13 14 7 11 5 8 3 11 14 6 10 11 7 1 6 10 6 9 15 4 2 13 12 4 15 11 4 13 14 5 7 13 15 3 9 5 10 4 14 3 2 4 14 7 5 8 5 7 8 15 3 7 2 13 11 10 2 1 15 14 15 3 13 13 4 4 6 4 12 8 10 12 11 8 10 8 5 12 2 5 12 13 11 7 11 10 8 4 12 8 7 3 15 15 7 14 1 15 3 15 6 15 3 5 6 14 3 5 14 8 4 15 15 1 8 8 1 11 4 7 15 6 6 1 2 3 3 1 5 15 11 13 9 13 2 12 15 15 12 12 14 14 11 9 3 3 4 12 3 15 2 8 5 15 4 13 2 11 8 12 3 5 13 9 5 13 14 11 4 4 6 14 1 15 12 6 5 10 14 4 2 6 1 11 12 10 10 7 13 6 15 6 12 4 6 10 13 14 6 1 2 7 12 7 13 5 7 1 12 6 13 4 9 11 1 7 3 6 13 14 2 14 9 11 11 13 11 10 3 4 6 6 4 9 15 4 1 10 10 7 1 9 14 13 3 2 6 10 15 5 3 3 6 14 9 5 10 14 14 15 5 1 15 12 13 8 7 8 14 12 3 3 6 14 14 12 5 1 7 14 9 7 11 5 2 11 13 5 6 4 5 8 2 11 9 13 7 8 2 7 9 4 2 6 2 4 9 10 4 2 15 2 4 8 4 10 14 3 9 1 12 5 11 5 13 13 3 2 7 9 2 7 9 13 11 6 12 4 4 2 11 10 14 10 13 12 6 4 10 6 15 9 7 3 7 2 1 15 8 5 7 15 12 4 4 7 11 7 