P2
33 33
250
5 6 11 8 4 9 8 10 10 1 14 8 2 13 13 14 6 8 2 1 5 14 15 14 1 15 14 12 12 14 12 7 14 10 6 14 15 3 4 4 10 14 3 9 11 10 9 6 7 9 1 14 3 4 5 5 2 12 1 8 8 8 12 6 11 14 15 5 9 2 4 3 2 15 6 2 3 12 3 4 7 1 13 13 7 10 15 7 3 4 9 6 1 5 15 6 12 5 14 6 15 2 3 6 12 13 5 5 12 7 14 8 5 11 12 4 4 15 8 3 11 11 6 5 3 14 5 14 15 9 4 10 3 4 7 3 2 1 7 13 12 12 13 4 1 8 2 7 11 5 3 9 8 4 9 4 15 8 11 12 10 14 14 7 15 9 5 5 1 13 5 3 3 10 1 1 11 5 8 8 10 2 3 4 2 6 15 3 15 12 5 10 4 9 9 3 14 9 14 12 14 6 15 14 4 2 11 7 9 5 12 13 10 3 6 14 13 10 3 2 6 12 10 15 2 9 9 5 3 2 12 13 6 7 5 15 4 6 2 4 4 15 2 10 1 7 11 2 5 11 8 15 14 3 13 6 7 11 1 5 13 6 9 9 5 11 15 1 15 14 5 3 8 13 13 10 14 11 7 6 6 6 3 10 14 14 14 3 13 8 10 12 1 6 1 15 7 11 2 9 6 12 7 1 9 2 14 4 9 4 11 15 2 9 5 4 13 3 6 10 6 7 1 14 8 3 7 2 2 15 5 6 13 8 10 12 4 4 15 2 15 13 12 2 4 15 6 14 5 4 12 11 8 7 12 15 11 11 13 8 15 7 7 1 5 11 11 11 13 3 2 15 15 3 2 4 8 7 14 8 3 6 10 3 9 11 5 8 7 14 11 13 3 10 12 7 1 1 12 10 10 9 3 6 11 4 6 3 7 15 15 11 6 7 6 9 13 13 4 3 5 12 13 13 10 4 4 7 14 4 7 9 7 2 3 3 13 2 6 15 6 12 1 4 5 7 4 10 7 1 8 3 14 12 7 9 2 7 2 12 13 14 4 8 2 8 1 4 4 15 5 4 3 5 1 5 6 14 4 10 1 4 5 8 12 4 4 15 12 1 10 7 10 8 7 11 2 12 15 1 11 6 4 9 3 12 1 4 6 4 2 3 3 5 6 2 10 6 1 9 10 15 3 13 6 9 2 11 9 9 8 6 11 14 4 8 5 8 5 6 2 9 7 8 1 6 15 14 14 2 6 8 8 15 12 2 9 8 6 4 10 14 3 14 9 10 11 7 3 15 7 3 2 6 9 11 6 14 4 9 2 11 9 4 7 12 8 12 2 9 14 4 4 3 1 14 12 9 7 1 10 5 15 1 4 10 6 5 6 3 2 10 15 12 1 13 8 7 7 6 1 4 12 13 6 13 8 15 13 13 4 15 8 15 13 5 14 8 12 14 11 2 9 11 14 14 11 15 2 1 6 12 4 1 0 0 0 0 0 1 12 12 9 7 8 12 6 4 10 13 8 14 5 5 11 4 8 9 1 2 1 9 0 0 0 0 0 0 0 0 0 0 0 10 6 4 9 15 10 4 10 6 3 6 3 1 4 2 12 12 9 15 0 0 0 0 0 0 0 0 0 0 0 0 0 0 5 14 1 4 13 9 11 1 4 7 4 11 11 13 13 10 14 0 0 0 0 0 0 0 0 0 0 0 0 0 0 0 0 11 3 4 12 6 5 12 7 6 6 14 7 1 11 1 8 0 0 0 0 0 0 0 0 0 0 0 0 0 0 0 0 0 14 12 14 1 5 11 8 15 2 5 5 8 8 8 3 0 0 0 0 0 0 0 0 0 0 0 0 0 0 0 0 0 0 12 7 1 6 14 7 8 8 1 2 3 12 8 8 0 0 0 0 0 0 0 0 0 0 0 0 0 0 0 0 0 0 0 14 6 8 13 14 7 1 11 2 2 2 11 13 0 0 0 0 0 0 0 0 0 0 0 0 0 0 0 0 0 0 0 0 6 10 3 8 10 15 7 11 3 7 2 4 0 0 0 0 0 0 0 0 0 0 0 0 0 0 0 0 0 0 0 0 0 4 5 13 3 9 11 3 6 5 11 15 0 0 0 0 0 0 0 0 0 0 0 0 0 0 0 0 0 0 0 0 0 0 15 8 5 15 6 14 5 7 1 10 12 0 0 0 0 0 0 0 0 0 0 0 0 0 0 0 0 0 0 0 0 0 0 5 5 15 2 12 1 8 1 8 10 0 0 0 0 0 0 0 0 0 0 0 0 0 0 0 0 0 0 0 0 0 0 0 2 14 11 12 6 11 9 10 10 2 0 0 0 0 0 0 0 0 0 0 0 0 0 0 8 7 13 8 12 14 15 13 10 13 15 14 1 9 14 4 2 8 6 0 0 0 0 0 0 0 0 7 7 1 15 5 15 11 14 14 11 3 11 4 12 6 