P2
33 33
250
7 15 14 12 11 13 1 8 1 9 9 9 3 10 7 14 12 9 11 1 14 11 5 1 8 14 8 4 5 8 11 14 1 14 10 5 6 11 9 8 6 2 14 7 5 2 2 3 4 8 13 9 5 12 15 9 15 1 11 6 11 13 15 13 6 7 11 13 5 7 4 6 8 5 4 7 1 2 9 9 4 4 12 2 10 13 4 13 12 10 3 14 15 13 9 5 12 9 7 11 1 4 14 15 7 13 6 12 11 7 10 3 6 10 7 13 6 13 7 4 2 7 10 11 10 11 9 15 10 4 9 6 9 11 14 3 3 13 5 2 2 13 14 15 8 6 5 7 12 7 12 15 9 4 11 2 8 13 9 15 1 6 14 3 11 11 13 8 11 15 7 9 5 5 1 7 12 6 5 11 6 5 7 15 10 11 6 4 14 9 10 4 4 12 13 2 2 11 3 12 12 2 1 2 4 14 1 11 7 7 4 15 13 14 6 5 15 13 5 6 10 14 15 6 10 15 2 3 11 12 8 2 3 14 14 2 3 2 10 13 11 2 12 2 14 1 1 6 0 0 0 0 0 0 6 11 4 8 9 14 7 7 1 14 4 12 9 15 14 13 3 13 1 12 4 0 0 0 0 0 0 0 0 0 0 0 0 0 0 0 0 0 0 4 6 12 3 11 13 1 11 4 8 1 6 0 0 0 0 0 0 0 0 0 0 0 0 0 0 0 0 0 0 0 0 0 0 0 0 10 5 8 4 3 10 5 0 0 0 0 0 0 0 0 0 0 0 0 0 0 0 0 0 0 0 0 0 0 0 0 0 0 2 15 8 14 15 0 0 0 0 0 0 0 0 10 11 15 4 7 4 6 15 5 12 5 6 7 3 5 10 0 0 0 0 2 2 3 0 0 0 0 0 0 0 5 4 2 5 10 9 12 12 3 6 11 7 14 6 8 5 13 8 1 12 4 5 6 10 0 0 0 0 0 0 0 1 7 11 14 9 12 15 13 15 4 5 14 1 5 10 9 11 8 8 3 9 3 1 8 3 12 0 0 0 0 0 10 1 15 2 8 14 5 6 3 2 3 8 2 9 14 4 12 10 6 2 10 12 4 15 14 5 3 12 0 0 0 5 6 3 5 12 8 2 13 1 4 1 3 14 11 15 1 8 8 3 15 9 3 6 11 6 9 8 10 14 14 0 0 9 1 12 1 7 11 8 1 12 12 8 5 8 2 8 5 10 10 15 5 11 8 9 12 8 8 8 8 13 4 11 10 1 2 12 2 4 12 15 9 10 1 6 8 4 3 1 7 9 2 5 5 6 13 1 7 15 11 13 4 8 1 5 3 6 14 15 4 7 7 5 14 11 3 1 8 3 5 3 4 14 12 13 12 5 13 5 15 10 15 13 15 5 15 4 10 3 11 8 10 2 10 7 10 11 8 15 2 11 11 7 4 6 11 10 14 12 3 3 14 3 1 15 11 8 10 8 15 7 11 8 6 2 2 6 15 14 7 12 12 15 15 7 6 5 10 6 15 3 15 7 7 11 6 15 8 11 7 4 4 7 15 3 15 1 1 6 1 3 15 2 14 11 9 10 10 6 11 6 3 9 13 12 10 8 12 4 5 12 5 14 4 12 11 10 15 11 2 12 5 14 14 2 8 6 6 14 11 8 6 11 9 8 13 15 10 8 5 1 13 7 11 8 9 6 5 3 6 9 6 1 8 13 13 13 1 7 10 13 11 13 10 9 5 8 2 14 2 15 13 3 4 8 3 12 1 7 6 3 4 9 8 11 10 11 6 2 10 15 13 15 3 2 10 13 3 9 12 13 5 9 10 14 6 1 13 8 6 2 12 15 14 5 10 4 2 11 10 11 7 6 11 3 14 1 12 12 8 7 4 13 8 2 5 4 4 6 9 8 14 3 10 4 12 5 5 15 7 13 15 15 10 15 10 2 14 7 2 15 1 13 3 3 4 14 11 10 13 9 2 10 14 9 15 8 11 10 7 9 10 3 7 13 10 11 12 12 12 7 15 3 4 10 6 3 6 2 12 7 11 2 1 13 1 11 1 9 5 11 4 3 11 11 13 5 3 6 3 10 14 9 8 15 4 3 3 11 5 9 2 14 7 10 6 5 9 6 13 7 11 2 15 1 2 14 6 14 7 11 4 3 13 14 15 11 1 6 15 14 13 13 10 7 2 14 9 5 8 14 13 5 4 6 14 8 13 1 10 12 4 6 3 12 13 2 9 9 13 6 13 1 11 9 4 4 15 15 14 15 6 11 10 1 10 9 4 4 6 7 5 5 15 8 8 1 4 10 11 7 12 15 1 6 4 4 1 8 9 1 8 2 7 4 7 6 11 10 10 1 5 11 11 5 14 9 7 6 7 10 7 15 15 7 6 2 3 3 2 4 2 10 7 9 8 13 1 12 12 4 12 1 2 4 13 13 6 8 4 13 