P2
33 33
250
15 13 12 9 14 11 3 14 10 8 15 14 1 4 2 8 13 4 11 6 1 14 4 2 5 12 13 8 15 12 15 9 2 14 4 15 10 2 6 10 5 14 4 5 6 8 6 14 10 8 9 14 11 11 7 4 14 1 12 11 9 14 4 5 8 1 12 1 2 13 3 8 6 12 11 7 1 12 9 5 8 8 11 1 9 14 9 10 4 7 5 12 5 12 1 14 12 13 12 9 2 8 14 1 12 8 8 6 3 7 12 2 9 9 15 9 3 11 12 5 4 1 10 6 10 1 13 12 1 14 9 6 4 13 6 9 5 10 9 13 3 2 3 9 10 1 8 14 8 6 12 1 3 12 13 9 9 1 5 3 2 4 11 12 10 6 11 15 15 10 11 10 12 12 4 3 6 7 2 8 3 14 2 1 11 7 5 8 14 6 12 14 3 9 2 6 6 6 9 5 4 13 1 5 10 5 4 10 6 7 12 8 9 8 1 3 15 8 5 8 15 8 9 11 1 11 15 11 2 10 12 5 6 10 8 12 2 3 13 2 9 1 7 12 13 7 6 11 7 13 15 14 9 15 9 7 14 6 13 3 1 12 6 1 11 15 0 0 9 10 15 1 9 3 11 11 2 2 5 15 14 8 2 7 4 9 15 3 15 14 5 13 15 9 9 12 10 8 13 0 0 0 0 1 3 1 14 3 10 2 4 12 15 15 4 2 13 5 4 11 15 12 14 13 5 13 14 15 7 11 4 15 0 0 0 0 0 0 9 15 12 4 7 12 4 8 5 9 8 3 5 7 2 3 9 7 8 14 6 2 13 7 3 14 14 0 0 0 0 0 0 0 0 0 11 9 2 11 5 11 11 12 1 2 3 10 12 7 11 13 1 2 10 1 0 0 13 2 8 0 0 0 0 0 0 0 0 0 0 0 2 1 11 3 1 12 9 11 7 10 7 13 15 15 0 0 0 0 0 15 12 1 6 7 0 0 0 0 0 0 0 0 0 0 0 0 0 0 0 0 0 0 0 0 0 0 0 0 0 0 0 0 13 2 6 7 3 8 10 0 0 0 0 0 0 0 0 0 0 0 0 0 0 0 0 0 0 0 0 0 0 0 0 0 0 9 14 4 1 13 13 13 6 6 12 0 0 0 0 0 0 0 0 0 0 0 0 0 0 0 0 0 0 0 0 0 0 11 13 2 10 4 4 7 13 13 10 2 13 2 8 0 0 0 0 0 0 0 0 0 0 0 0 0 0 0 0 8 7 11 12 11 1 13 14 13 14 9 7 1 12 4 7 10 9 1 7 14 13 0 0 0 0 0 0 4 15 7 1 6 5 8 13 15 12 12 8 6 2 15 13 13 4 14 11 10 9 7 13 7 3 15 12 6 2 9 11 12 10 15 4 8 3 5 13 14 13 13 6 3 10 10 7 15 7 15 9 2 15 3 6 6 8 13 14 10 4 8 14 8 5 2 2 11 1 1 9 3 3 12 5 13 1 11 7 1 10 2 12 9 14 11 13 5 7 5 11 14 3 1 5 7 12 6 4 10 8 13 14 8 8 8 3 11 6 7 12 6 3 4 9 2 10 10 13 12 11 14 13 15 14 14 1 10 2 7 4 3 2 5 5 13 5 10 2 12 14 3 4 6 7 8 13 6 7 14 6 4 7 1 12 3 15 6 6 13 12 15 12 1 12 7 7 13 14 2 4 1 14 11 8 15 5 9 3 1 4 10 13 13 4 6 7 7 10 4 3 1 2 5 14 8 11 14 7 4 2 13 5 12 8 10 1 9 3 13 13 12 2 3 14 2 4 13 3 11 8 4 2 9 14 11 4 8 10 15 6 8 9 6 15 7 3 1 14 5 8 9 5 4 8 4 11 4 1 11 4 6 9 11 2 6 1 11 9 2 4 8 9 13 14 10 10 15 7 12 3 12 12 9 2 3 1 14 4 2 6 6 8 9 10 13 2 4 14 9 5 5 5 11 2 9 15 7 5 2 8 15 1 7 7 3 13 12 7 10 12 5 6 1 6 1 11 1 8 8 13 2 5 13 15 13 2 13 12 14 2 10 2 11 1 10 2 5 13 2 11 9 5 9 10 2 1 13 12 9 9 3 13 6 13 7 1 3 13 1 5 3 14 15 11 10 13 1 8 2 10 10 10 10 10 1 11 14 2 11 14 13 14 4 4 14 15 14 7 7 2 14 4 3 7 1 13 4 1 13 14 5 13 8 10 9 5 1 10 14 15 15 14 9 14 2 11 3 15 13 3 7 3 10 15 2 8 7 12 13 14 2 9 14 1 5 11 12 10 15 5 8 15 2 2 2 9 15 9 8 8 2 14 14 5 12 4 1 14 1 9 10 1 11 3 6 10 4 2 11 2 2 14 8 1 6 4 2 7 4 1 10 14 8 8 3 12 12 12 5 5 4 4 6 5 11 4 11 2 9 10 3 13 