P2
33 33
250
12 5 14 9 7 13 7 7 1 9 2 9 5 1 13 10 9 1 11 10 3 11 13 4 8 10 12 5 14 1 4 12 2 2 1 14 12 3 15 3 10 14 1 11 10 7 13 15 7 9 10 1 5 3 1 1 9 13 12 9 1 10 14 5 4 12 1 13 14 12 14 11 6 6 13 10 3 13 7 9 12 13 10 13 2 4 7 13 13 5 8 6 13 5 2 14 1 12 1 4 10 3 6 13 14 6 9 8 15 6 6 12 13 10 4 10 15 8 3 15 8 4 11 1 11 7 8 3 10 4 2 11 1 7 14 12 10 8 12 2 9 11 1 1 12 10 6 12 13 10 15 14 12 4 5 3 9 4 10 14 12 14 15 1 3 14 6 6 6 12 2 3 2 10 9 13 15 11 13 10 15 14 2 7 4 2 6 1 7 12 13 15 1 6 6 3 2 14 13 13 4 10 10 5 12 14 11 13 14 6 3 2 10 8 10 4 15 1 6 11 7 10 10 14 2 14 11 13 14 5 10 7 10 15 11 5 1 11 2 12 8 1 3 14 11 13 5 2 6 3 12 13 12 7 9 11 5 12 5 5 5 5 7 7 12 9 14 12 15 13 1 14 7 1 1 10 2 5 7 8 9 12 11 10 0 0 0 0 0 7 15 11 11 3 8 8 5 15 6 3 1 2 14 10 14 10 3 14 1 12 14 10 7 0 0 0 0 0 0 0 0 0 0 0 0 0 0 9 2 2 9 11 7 1 1 14 4 1 9 8 5 2 7 0 0 0 0 0 0 0 0 0 0 0 0 0 0 0 0 0 0 0 4 12 14 14 6 7 6 3 9 13 5 14 0 0 0 0 0 0 0 0 0 0 0 0 0 0 0 0 0 0 0 0 0 0 6 5 1 14 6 14 3 11 11 2 0 0 0 0 0 0 0 0 0 0 0 0 0 0 0 0 0 0 0 0 0 0 0 1 5 5 2 4 6 4 3 11 0 0 0 0 0 0 0 0 0 7 3 8 3 9 2 7 13 2 5 7 8 8 14 13 3 8 14 1 6 12 10 0 0 0 0 0 0 0 0 12 8 3 6 1 5 5 13 3 3 11 9 6 3 7 8 12 10 6 10 15 9 3 1 0 0 0 0 0 0 15 4 6 1 9 14 2 8 14 4 7 4 7 2 1 7 9 9 10 1 12 13 8 8 1 9 3 0 0 0 0 11 4 15 2 12 4 13 9 2 8 5 3 11 4 11 4 4 15 4 15 7 11 5 1 15 11 12 14 0 0 0 6 9 8 4 13 6 4 6 10 14 3 5 15 6 15 13 11 4 15 10 2 10 4 12 10 5 14 10 13 0 0 0 11 6 7 13 10 12 12 13 13 2 8 5 8 3 8 4 8 1 10 11 8 5 6 6 5 2 5 13 12 0 0 14 6 6 9 3 6 5 9 9 14 7 2 8 12 2 9 3 11 7 9 12 13 11 14 11 4 10 8 9 13 0 0 14 3 4 4 15 8 1 9 7 11 3 14 8 15 6 11 11 3 7 13 15 9 11 10 3 10 11 15 3 12 14 0 6 10 2 5 2 3 9 8 10 4 10 8 9 7 3 8 4 8 1 5 7 13 7 11 1 2 14 1 10 6 14 0 14 10 15 15 9 14 4 6 3 8 7 2 7 14 8 15 10 4 10 12 15 15 3 5 5 8 1 9 2 1 10 12 3 2 4 2 6 14 8 1 4 5 15 10 9 7 3 11 1 11 10 13 13 4 12 3 14 2 4 2 8 4 9 2 11 3 6 1 4 1 6 13 10 15 12 5 5 3 15 9 7 10 15 12 11 6 1 1 11 11 3 7 11 5 15 10 15 7 12 6 11 3 14 12 2 4 5 12 7 3 14 12 1 12 9 7 7 6 5 1 8 12 1 6 15 14 14 4 4 9 6 2 2 4 13 11 3 15 10 14 1 3 4 9 3 4 4 7 8 15 14 10 2 11 4 8 2 12 8 7 1 2 5 11 9 5 2 8 14 5 6 11 5 2 3 9 12 6 8 8 10 1 13 1 4 8 7 1 14 6 8 3 8 12 14 4 15 1 14 3 14 5 13 15 13 9 12 7 14 3 7 12 13 12 5 7 11 1 6 7 15 11 13 15 5 11 8 6 12 14 3 10 5 6 7 15 13 15 3 6 11 9 15 12 4 12 8 8 12 1 11 12 14 2 11 8 2 1 14 8 5 5 13 10 10 13 12 14 3 9 2 14 7 12 10 9 12 15 7 14 2 2 1 13 3 14 2 2 10 9 10 1 15 14 6 4 10 2 5 12 15 5 7 11 11 4 1 11 7 14 6 14 13 5 13 8 1 12 12 12 12 6 8 12 2 11 1 3 12 8 4 5 6 3 6 2 14 6 3 10 8 8 1 2 10 12 7 2 2 1 11 9 15 14 12 13 12 7 8 4 12 