P2
33 33
250
11 13 2 2 12 7 2 7 3 12 10 11 6 12 2 13 4 10 9 5 15 11 5 5 1 10 11 11 3 5 14 5 6 7 5 8 3 2 1 14 8 8 5 2 4 15 3 14 3 2 11 10 6 12 13 10 7 13 8 7 5 5 6 5 9 8 9 9 6 14 9 7 15 3 12 14 2 7 4 7 14 9 13 9 11 12 3 12 12 15 12 13 10 13 14 7 4 15 15 10 6 9 5 7 14 14 9 7 9 15 2 5 13 6 11 10 6 11 2 11 13 10 4 9 4 2 1 2 9 14 15 1 14 5 13 3 15 7 15 11 6 3 2 2 15 1 6 13 10 8 4 15 1 8 7 13 10 12 5 8 1 6 2 4 12 4 7 12 13 1 6 12 5 1 8 7 14 3 6 7 7 11 11 5 4 5 4 11 11 1 8 14 15 5 11 12 13 11 5 9 6 3 15 15 14 4 12 10 2 3 7 5 6 9 5 3 11 8 15 6 12 8 2 8 11 11 4 7 8 4 7 3 10 4 11 4 12 6 11 15 8 2 1 9 12 6 4 14 3 12 4 11 3 6 12 7 12 4 8 10 5 11 8 8 12 3 13 8 11 7 10 11 10 2 5 15 13 10 11 2 9 12 10 7 9 4 3 13 6 10 15 12 5 6 11 12 4 12 6 12 7 5 2 7 12 12 10 2 6 3 14 7 5 15 6 12 7 8 9 4 9 14 12 8 9 1 14 9 8 4 15 11 12 9 5 5 3 2 7 15 3 13 2 2 4 5 3 4 7 9 6 7 11 13 11 11 6 1 13 15 11 6 7 2 6 11 10 15 13 15 6 8 13 3 1 0 0 0 0 0 0 6 8 1 1 4 8 4 5 7 9 2 1 8 4 1 9 4 1 15 13 0 0 0 0 0 0 0 0 0 0 0 0 0 0 0 0 0 0 0 4 12 2 1 14 3 11 6 6 2 5 0 0 0 0 0 0 0 0 0 0 0 0 0 0 0 0 0 0 0 0 0 0 0 0 0 7 10 9 1 12 11 0 0 0 0 0 0 0 0 0 0 0 0 0 0 0 0 0 0 0 0 0 0 0 0 0 0 0 0 0 15 7 3 11 0 0 0 0 0 0 0 5 5 12 6 2 14 2 8 15 14 7 15 7 4 0 0 0 0 0 0 0 0 0 0 14 12 0 0 0 0 6 13 6 10 7 6 13 8 5 7 1 13 15 6 2 4 7 14 3 2 7 0 0 0 0 0 0 0 5 0 5 4 14 1 9 2 1 5 6 6 6 14 2 3 14 14 10 11 11 10 10 4 6 4 5 15 0 0 0 0 0 9 3 10 10 15 12 6 5 3 4 8 6 14 12 6 11 13 12 13 1 6 3 4 10 14 10 7 11 7 4 0 0 0 12 14 11 9 3 15 9 7 11 7 6 4 5 12 1 4 4 9 5 9 7 12 3 2 9 7 9 6 14 4 8 5 12 5 2 7 6 14 10 4 3 9 10 11 12 7 12 2 13 5 7 14 12 9 1 14 13 8 11 11 12 9 1 11 15 2 8 12 6 11 13 2 3 8 8 5 6 3 6 2 12 10 4 15 15 10 14 15 5 11 13 14 11 9 7 15 11 9 7 10 9 5 8 2 9 14 4 7 7 5 10 2 13 9 6 9 13 6 1 2 5 15 6 6 7 12 13 2 8 2 7 5 15 9 2 1 3 12 3 14 12 6 8 8 13 3 3 8 11 4 15 14 1 12 12 15 6 11 6 8 11 7 7 8 10 13 15 5 13 6 2 12 9 15 2 12 13 11 13 4 3 14 3 6 4 4 6 10 5 10 14 15 7 12 5 2 3 9 7 8 7 10 5 13 10 9 15 15 7 12 2 10 15 7 5 15 3 3 5 12 2 4 11 9 4 3 14 2 1 15 1 9 12 14 3 9 10 15 8 3 8 3 1 7 1 11 4 6 13 1 3 15 1 13 13 14 9 5 12 12 14 10 4 13 2 12 14 1 4 8 11 5 3 13 3 3 5 5 2 9 12 6 13 4 12 13 3 8 7 9 4 12 8 2 12 1 8 4 10 3 15 6 15 2 6 8 10 11 10 8 8 13 5 8 5 8 2 4 7 8 11 2 2 3 1 4 4 2 5 6 3 14 15 4 1 4 13 11 15 9 14 1 11 12 13 2 5 10 2 2 13 9 9 3 6 1 1 2 9 13 12 3 4 7 5 14 6 15 11 12 8 13 7 3 5 10 11 6 1 8 15 1 4 11 15 2 15 15 2 7 15 4 10 11 13 5 13 4 5 13 9 12 9 6 11 14 6 1 8 5 14 3 9 4 3 2 7 11 13 6 9 3 4 7 11 7 6 10 13 8 5 4 12 1 9 8 15 12 14 7 9 11 15 2 3 3 14 12 8 12 3 15 13 6 10 14 6 9 8 2 3 7 13 