P2
33 33
250
4 12 10 3 5 5 7 8 6 15 3 14 1 11 11 12 10 6 11 5 3 12 14 8 2 11 5 3 5 1 3 10 3 13 2 6 11 12 2 3 9 10 3 14 14 14 12 15 11 10 12 6 12 12 11 9 15 12 7 11 12 3 1 15 7 15 2 6 1 2 14 12 5 11 7 14 5 15 6 6 2 12 2 3 6 12 5 2 5 2 1 4 6 4 13 15 10 4 14 6 4 1 12 13 7 9 1 15 3 13 3 4 10 9 11 14 13 11 15 13 4 8 4 7 6 10 12 9 12 8 12 14 14 2 2 12 5 5 1 3 9 3 7 3 1 3 11 7 7 12 13 1 12 2 4 2 9 11 14 13 10 7 5 3 4 2 2 10 12 5 12 15 3 13 14 8 12 12 14 10 6 11 7 5 12 1 6 2 10 15 5 15 9 3 5 15 8 10 6 12 3 8 3 3 13 12 5 15 9 9 4 11 10 2 11 15 13 10 11 12 6 2 10 8 10 9 13 15 2 7 15 5 7 10 6 9 7 8 11 6 8 6 11 9 8 2 2 8 5 3 11 3 8 12 5 7 6 12 2 2 1 7 14 4 3 9 1 10 14 2 5 8 5 9 1 13 2 7 5 3 3 10 14 5 6 10 15 14 10 11 11 7 12 2 2 7 1 8 5 10 11 5 1 9 14 5 3 6 12 14 1 13 5 13 8 11 15 13 6 8 8 10 12 11 15 10 7 14 3 15 9 14 12 9 10 7 5 10 10 9 13 9 15 5 10 8 11 13 2 13 9 9 7 3 1 4 13 15 5 14 5 4 13 7 5 13 9 1 4 13 1 12 11 8 15 4 12 11 8 11 3 13 13 1 9 11 15 12 14 9 2 14 10 14 2 8 9 10 7 7 14 2 14 5 3 6 14 11 13 5 2 10 9 7 6 7 14 12 6 8 2 1 10 8 8 10 3 13 8 3 5 7 5 11 9 12 11 14 1 8 13 15 11 11 11 10 11 9 13 15 7 4 6 6 13 5 11 7 5 1 15 6 10 9 6 6 8 0 10 15 11 7 2 7 5 9 14 8 3 11 11 3 1 2 6 5 3 4 2 9 8 5 6 13 5 11 3 9 8 1 0 0 7 15 14 12 6 3 2 4 2 14 7 11 9 8 5 11 6 15 9 3 5 6 7 1 0 0 2 10 4 15 15 0 0 0 0 3 4 14 2 13 1 12 8 11 13 15 2 10 4 10 2 2 10 9 5 0 0 0 0 2 14 14 11 12 0 0 0 0 0 0 0 14 3 14 1 3 8 4 13 4 15 8 3 10 2 0 0 0 0 0 0 0 10 3 3 4 13 0 0 0 0 0 0 0 0 0 0 0 0 0 0 0 0 0 0 0 0 0 0 0 0 0 0 0 0 11 10 11 9 15 0 0 0 0 0 0 0 0 0 0 0 0 0 0 0 0 0 0 0 0 0 0 0 0 0 0 0 0 9 5 11 12 14 8 0 0 0 0 0 0 0 0 0 0 0 0 0 0 0 0 0 0 0 0 0 0 0 0 0 0 8 14 10 6 3 5 13 6 5 0 0 0 0 0 0 0 0 0 0 0 0 0 0 0 0 0 0 0 0 0 0 7 15 15 14 13 14 6 12 8 15 1 13 2 10 0 0 0 0 0 0 0 0 0 0 0 0 0 0 0 0 3 7 9 9 15 8 12 15 1 3 7 6 13 14 14 4 13 2 3 9 14 5 0 0 0 0 0 10 5 14 4 1 7 14 3 4 7 11 2 10 14 15 8 7 7 4 10 14 6 1 1 13 12 8 7 3 15 9 1 4 8 9 15 9 9 14 3 11 9 4 12 14 2 6 10 5 10 9 3 8 3 12 4 13 3 4 5 8 12 11 9 7 1 3 11 13 10 8 10 13 1 10 5 3 6 12 6 14 8 7 2 9 10 8 4 5 3 14 5 12 11 4 10 15 5 8 13 2 7 9 14 13 9 12 2 4 12 7 6 7 6 1 14 4 6 2 8 12 2 8 6 12 15 10 6 14 11 8 6 5 2 1 9 10 6 4 12 15 4 3 13 13 7 13 7 9 7 6 3 8 1 15 6 11 10 8 10 12 1 8 10 9 2 4 12 6 4 11 12 3 8 15 4 14 15 4 12 4 10 12 2 13 5 2 5 3 3 5 3 15 2 7 15 5 13 2 13 2 12 3 13 2 2 9 12 11 15 2 12 11 1 7 6 1 3 1 10 15 9 14 10 12 2 3 3 4 6 12 4 15 6 2 3 11 7 7 8 5 9 12 7 13 1 10 11 15 9 7 1 2 8 8 3 10 10 14 2 13 7 8 10 6 3 14 1 15 7 7 6 11 14 1 13 5 5 14 13 1 2 1 15 2 5 6 11 10 14 12 6 13 11 7 13 12 14 15 5 10 10 5 2 1 6 4 3 13 