P2
33 33
250
13 7 10 10 10 12 10 2 1 2 14 10 14 11 1 11 9 14 3 3 15 10 8 8 11 6 8 7 7 15 11 7 10 7 3 9 6 14 7 15 7 8 8 12 8 2 10 12 4 7 9 10 6 6 2 8 14 1 1 5 5 9 13 11 9 12 8 3 8 4 9 8 10 10 13 6 15 9 3 3 3 9 12 7 11 14 2 15 15 14 15 15 5 3 2 2 14 6 15 1 11 10 2 8 9 14 4 13 3 3 11 14 14 5 4 6 5 3 7 6 3 14 12 1 14 5 5 15 14 9 6 4 14 2 4 3 7 15 1 10 13 14 15 2 15 14 13 7 5 12 7 6 12 11 8 5 8 8 8 8 3 2 1 3 10 13 14 7 3 13 9 1 4 6 10 11 14 6 7 2 13 11 12 5 1 1 1 9 13 4 4 4 5 11 4 9 10 4 9 14 8 9 5 1 11 8 11 9 9 12 9 8 10 6 11 13 8 1 3 14 2 6 8 8 3 15 13 15 2 6 14 12 5 9 14 13 13 8 15 10 4 1 8 6 11 9 5 10 11 2 14 14 4 7 4 1 9 1 8 15 6 13 9 6 9 4 13 4 5 11 12 11 9 7 1 13 7 8 2 5 8 7 8 6 5 5 4 15 5 7 11 9 13 9 3 1 14 3 5 3 14 11 4 3 3 7 12 14 8 14 6 1 14 8 1 13 7 11 9 15 5 14 4 5 1 3 11 9 12 4 2 7 6 4 15 3 7 9 15 7 15 3 2 6 7 11 11 0 0 0 13 1 14 14 4 15 14 2 7 11 14 5 2 13 4 7 11 3 9 2 14 11 3 3 10 10 0 0 0 0 0 0 0 0 0 0 0 15 6 3 2 13 1 14 10 3 12 6 5 5 11 14 14 12 11 11 15 0 0 0 0 0 0 0 0 0 0 0 0 0 0 0 1 12 2 7 13 2 9 7 9 7 9 8 11 11 13 6 0 0 0 0 0 0 0 0 0 0 0 0 0 0 0 0 0 0 0 5 14 13 14 11 1 5 9 9 9 10 6 14 0 0 0 0 0 0 0 0 0 0 0 0 0 0 0 0 0 0 0 0 0 15 6 8 8 11 6 8 11 8 14 5 0 0 0 0 0 0 0 0 0 0 0 0 0 0 0 0 0 0 0 0 0 0 0 1 15 15 12 5 7 7 10 8 0 0 0 0 0 7 6 12 14 8 5 13 9 12 6 11 6 11 1 2 0 0 0 0 0 11 2 13 10 5 13 7 0 0 0 5 3 14 11 3 4 6 14 11 1 4 6 14 2 9 10 3 5 5 10 13 0 0 0 13 3 7 10 3 0 0 10 1 6 8 13 15 13 1 11 5 12 12 4 12 7 3 7 5 9 1 9 2 10 13 7 0 0 6 12 2 1 8 1 2 5 7 5 5 7 7 10 7 12 7 14 15 9 15 14 14 6 1 15 10 2 7 1 7 9 7 5 3 6 14 13 2 15 11 6 6 10 4 3 10 5 3 2 1 6 11 2 13 13 10 10 11 11 8 7 14 14 4 12 3 5 11 9 9 9 12 15 13 1 10 7 13 5 8 10 1 13 11 12 10 15 13 13 14 9 3 2 12 13 13 11 12 10 9 14 1 4 3 13 9 9 4 5 13 14 12 15 6 5 12 10 15 4 11 1 9 8 11 4 7 11 4 15 15 5 4 11 6 13 15 11 8 4 10 1 14 15 15 11 15 1 3 7 7 8 2 3 1 10 13 7 14 11 14 6 11 15 7 10 13 5 5 2 11 4 3 3 2 11 2 5 7 2 10 7 10 14 7 2 2 2 4 13 15 11 6 2 1 15 4 1 8 15 13 15 10 7 12 7 8 12 3 5 2 13 5 14 2 1 7 7 1 12 11 11 14 12 6 15 6 2 14 9 9 8 13 4 2 15 8 14 5 14 13 14 4 3 10 8 1 5 6 4 9 14 1 13 6 13 3 13 15 14 9 8 11 4 8 13 2 7 4 7 10 5 1 5 1 1 12 9 6 8 13 15 8 7 3 14 2 4 5 7 4 12 3 15 1 5 10 4 4 7 14 4 13 12 15 1 3 15 11 13 2 14 8 15 6 9 8 9 1 2 9 7 13 1 5 5 14 7 7 6 13 7 3 6 10 12 7 15 14 11 14 10 9 13 9 11 11 3 1 4 11 5 14 6 14 6 4 8 3 1 8 8 12 15 1 9 13 12 12 14 6 4 4 2 5 3 11 3 8 6 12 4 7 10 10 8 7 9 3 15 5 5 12 13 11 15 13 8 1 1 12 5 13 6 9 4 14 2 13 4 1 12 6 4 12 1 4 15 14 2 7 1 2 7 6 6 9 2 2 5 1 2 11 15 15 1 12 1 15 11 11 13 11 12 4 14 5 3 3 2 2 11 13 7 1 14 5 2 12 15 3 4 