P2
33 33
250
13 3 6 3 9 6 7 5 11 2 9 12 5 8 5 5 7 7 8 15 12 5 14 2 12 5 15 9 7 15 11 11 8 5 11 3 4 9 2 11 9 15 3 9 11 13 4 15 15 10 7 4 3 9 3 3 4 9 13 3 3 14 1 11 7 5 5 4 11 15 8 8 9 4 13 13 15 13 3 2 10 14 6 9 15 9 11 8 8 7 1 15 14 8 7 13 14 4 7 13 11 3 12 5 15 12 4 2 10 2 13 4 14 5 8 14 15 10 4 9 11 15 12 12 8 4 10 3 1 9 10 8 2 9 12 1 3 4 14 5 4 8 15 2 15 15 4 1 13 9 8 12 7 9 14 5 3 13 2 3 4 9 6 13 14 7 11 13 8 13 4 10 12 2 7 4 8 12 12 5 5 8 10 7 1 15 7 1 5 13 3 1 15 8 13 12 13 10 4 11 7 4 3 14 8 13 13 7 12 1 5 10 11 12 3 2 6 11 14 11 11 9 8 14 12 7 14 13 6 12 12 1 2 9 5 6 13 3 9 5 11 7 7 12 7 6 14 15 6 2 9 7 7 6 1 5 14 8 2 13 10 2 6 6 12 13 3 7 10 3 7 7 4 3 7 12 6 4 12 13 9 15 8 7 2 2 1 15 15 15 12 9 15 6 11 10 15 4 8 2 9 15 9 12 10 14 8 11 2 3 1 12 2 1 7 0 0 0 0 0 0 1 15 15 13 9 10 14 3 11 12 8 12 2 14 13 14 11 1 15 8 4 8 0 0 0 0 0 0 0 0 0 0 0 0 0 0 0 0 0 4 6 15 10 7 2 3 3 6 8 14 7 8 0 0 0 0 0 0 0 0 0 0 0 0 0 0 0 0 0 0 0 0 0 6 4 10 12 7 12 11 14 15 6 0 0 0 0 0 0 0 0 0 0 0 0 0 0 0 0 0 0 0 0 0 0 0 0 1 14 8 10 15 9 15 0 0 0 0 0 0 0 0 0 0 6 12 5 6 3 5 15 14 14 1 8 0 0 0 0 0 13 6 12 11 5 0 0 0 0 0 0 0 0 0 2 11 14 6 10 11 15 8 6 12 6 13 4 13 14 2 0 0 6 14 6 12 3 0 0 0 0 0 0 0 13 10 12 15 2 3 2 15 6 15 3 9 8 9 7 6 4 2 10 3 10 15 11 9 11 0 0 0 0 0 0 0 11 4 3 2 6 12 4 13 5 1 15 1 11 5 3 10 15 7 9 9 6 11 13 7 0 0 0 0 0 0 0 2 6 8 6 6 3 2 2 3 8 8 4 12 10 2 14 7 7 1 1 11 15 13 6 4 15 0 0 0 0 0 0 8 9 9 9 14 4 7 6 7 8 10 7 7 14 14 10 13 1 15 4 7 4 15 1 6 13 2 0 0 0 0 10 4 12 8 12 2 7 11 5 8 1 4 6 3 11 14 9 6 10 5 11 12 9 2 6 7 6 12 14 0 0 0 8 5 9 5 9 4 4 7 3 1 2 5 15 8 7 13 4 14 1 4 3 2 4 12 15 4 3 2 3 4 0 0 4 10 5 10 12 9 5 9 13 7 13 6 5 1 1 7 6 12 8 4 6 8 2 8 3 3 7 13 13 1 3 0 2 4 5 3 14 11 6 11 14 1 10 12 10 14 4 4 13 13 15 10 4 5 14 9 6 12 4 1 3 10 4 15 13 6 2 6 14 11 15 6 4 8 15 2 10 3 15 13 11 8 5 10 4 13 11 15 11 2 9 5 9 5 9 2 13 9 10 1 4 14 6 9 4 10 3 12 9 3 14 9 13 6 11 7 11 5 4 7 3 3 9 3 12 3 7 3 1 11 8 10 15 15 10 11 4 1 15 1 11 14 8 11 10 7 11 2 14 3 9 14 13 15 5 2 6 6 2 4 8 1 5 1 1 9 2 3 5 2 12 12 12 6 5 6 4 13 7 10 8 12 14 12 9 2 3 7 11 8 5 7 6 5 1 1 3 11 12 5 2 14 12 15 12 1 5 2 8 4 13 15 14 7 1 2 10 6 6 2 14 9 14 11 14 4 13 13 14 1 1 3 7 9 15 1 4 13 14 10 13 9 6 12 10 15 7 1 13 14 1 6 14 7 8 7 9 14 14 13 9 2 3 1 15 13 6 12 14 13 1 7 9 7 1 7 3 10 9 8 6 5 3 14 13 1 14 10 11 5 2 6 10 13 6 4 5 14 8 9 12 4 4 3 11 6 5 7 12 4 13 15 3 10 9 14 15 6 7 14 11 4 8 9 14 5 15 8 5 11 4 12 13 4 5 13 15 10 8 2 9 7 4 6 9 5 8 12 6 12 5 9 2 5 3 2 6 15 11 4 5 2 8 13 12 5 3 11 12 9 5 5 7 2 15 9 12 4 1 1 4 9 5 10 14 4 12 3 14 14 3 10 12 8 