P2
33 33
250
12 8 7 9 15 11 12 4 8 7 6 7 2 5 15 9 10 11 14 6 10 13 11 8 4 4 14 1 1 8 6 15 5 15 4 4 14 12 11 13 14 11 3 15 5 12 15 6 7 15 13 13 2 11 7 15 8 4 13 15 1 3 14 5 13 4 12 3 10 11 10 1 13 8 14 12 3 5 13 12 9 7 5 2 13 3 12 3 6 14 13 8 7 1 1 5 15 11 1 11 14 4 3 2 3 10 15 6 14 4 3 8 10 4 7 8 5 4 4 7 15 2 7 7 11 3 15 2 9 12 3 13 6 11 15 13 7 13 6 11 12 1 6 12 1 14 2 14 13 1 11 2 1 6 10 7 3 15 10 15 13 4 12 14 12 8 8 11 6 12 12 15 13 2 3 10 13 4 2 15 4 8 10 14 3 8 13 14 15 3 3 2 7 4 10 12 1 5 13 12 9 12 8 8 10 9 10 9 4 11 14 4 13 12 9 1 9 8 5 10 13 15 4 14 11 4 8 15 12 1 15 8 3 0 1 6 7 3 8 10 5 7 13 1 13 15 12 8 13 6 13 3 3 1 8 15 13 6 8 8 14 3 12 1 1 4 0 0 12 3 11 14 14 4 9 5 4 9 15 8 13 6 9 9 3 1 3 15 12 8 7 13 12 4 9 12 2 3 11 7 0 0 8 7 2 4 8 11 1 11 13 3 9 10 15 7 14 7 6 11 1 13 11 5 6 13 2 6 14 2 7 4 8 11 0 0 0 6 5 6 11 12 15 3 11 12 11 10 2 10 5 1 7 6 4 10 6 13 13 6 1 4 0 12 9 11 1 13 0 0 0 0 0 10 12 8 13 8 3 11 6 8 13 15 9 5 11 9 2 10 10 10 0 0 0 0 4 1 8 7 7 1 0 0 0 0 0 0 0 0 0 0 0 0 0 0 0 0 0 0 0 0 0 0 0 0 0 0 0 4 7 4 9 12 9 14 0 0 0 0 0 0 0 0 0 0 0 0 0 0 0 0 0 0 0 0 0 0 0 0 0 9 15 15 5 11 2 12 2 11 0 0 0 0 0 0 0 0 0 0 0 0 0 0 0 0 0 0 0 0 0 0 5 15 4 4 12 13 8 12 2 1 11 15 8 0 0 0 0 0 0 0 0 0 0 0 0 0 0 0 0 0 0 0 8 6 5 14 3 2 8 3 11 4 1 6 9 15 6 5 11 0 0 0 0 0 0 0 0 0 0 0 0 0 12 1 6 14 9 7 15 5 12 15 5 3 6 4 10 15 6 7 6 12 14 8 12 8 0 0 0 0 0 6 8 12 1 2 9 5 15 5 7 2 1 12 11 10 15 5 12 1 14 2 4 13 7 9 3 1 3 8 15 13 4 5 1 6 2 4 6 10 6 1 12 4 13 12 8 12 5 7 3 1 15 10 14 15 14 7 1 14 3 13 15 9 10 1 8 3 14 1 6 5 15 8 2 10 15 13 13 8 5 4 11 7 12 7 1 11 10 2 14 14 7 15 1 11 2 14 5 9 10 12 11 4 6 11 3 9 13 1 4 14 13 1 10 13 14 12 8 12 2 14 9 4 4 2 14 15 3 3 12 4 5 5 3 14 11 14 13 13 11 3 9 10 7 12 9 8 15 13 13 13 6 8 9 15 1 3 2 15 8 7 2 5 13 1 2 4 3 6 5 10 7 12 14 9 4 5 3 11 1 10 14 11 14 7 14 8 6 11 12 2 3 10 1 7 5 2 12 7 2 3 9 11 12 3 6 1 12 9 9 1 6 5 9 12 13 2 11 1 1 13 15 4 15 13 14 14 10 14 8 9 8 4 12 6 1 13 13 5 10 1 1 9 9 12 13 9 5 12 7 9 1 13 10 1 11 4 15 14 5 5 2 12 8 6 15 11 11 8 8 5 11 2 10 2 2 6 12 2 3 4 11 5 12 5 15 3 5 15 10 11 12 5 14 3 1 8 9 12 13 7 4 7 6 15 9 14 10 8 14 6 9 14 13 9 12 11 13 1 14 8 12 7 10 12 15 9 7 15 4 3 1 8 4 3 2 3 12 7 4 13 9 4 8 4 10 10 9 7 3 3 13 5 14 14 2 10 8 1 1 6 11 13 7 6 12 11 9 9 9 7 15 13 11 7 2 9 7 13 1 4 2 5 15 3 2 9 9 1 6 13 7 6 10 13 5 14 6 13 11 14 5 3 8 13 7 15 1 7 2 13 6 3 5 5 13 14 14 5 11 7 3 15 5 13 6 11 11 3 5 14 13 7 13 15 5 5 2 9 5 3 2 11 6 3 11 7 4 14 1 5 15 1 7 13 12 5 11 8 10 9 3 4 11 15 1 10 2 10 3 1 6 3 9 8 5 11 10 3 12 7 2 3 15 12 11 2 11 4 14 3 6 11 8 13 15 3 12 4 10 12 12 14 10 5 5 