P2
33 33
250
7 2 15 15 5 13 11 3 12 1 6 13 1 5 1 7 3 6 13 8 5 3 13 10 4 2 5 14 6 1 2 5 7 12 11 13 4 6 8 11 10 1 12 10 15 12 3 8 10 7 13 3 4 3 3 14 1 3 8 5 11 5 9 14 6 13 14 4 15 10 5 12 8 6 1 4 6 2 2 9 3 8 11 1 10 15 4 5 6 10 11 6 10 13 14 7 2 3 12 2 10 3 9 12 3 2 13 8 14 8 4 8 2 12 3 5 10 12 12 15 10 14 2 6 6 4 10 15 13 1 4 13 15 3 4 2 3 11 1 8 11 4 4 10 4 11 15 3 9 7 12 15 8 13 5 13 10 3 5 14 7 4 13 2 6 10 4 14 5 6 15 2 3 1 7 1 14 9 14 9 6 4 6 14 13 11 12 4 2 6 15 9 1 12 10 2 11 5 13 3 10 3 6 2 4 8 5 2 3 13 9 1 12 5 3 13 1 14 14 11 2 6 2 7 15 2 3 7 2 6 12 6 13 5 3 5 4 15 14 4 13 12 10 15 7 11 8 3 9 5 13 9 14 4 1 12 15 1 12 5 15 4 7 6 10 5 1 7 10 8 12 7 1 2 7 7 14 8 10 6 15 2 2 13 2 2 14 6 5 6 7 13 0 4 1 2 10 8 12 14 9 2 1 6 1 9 11 12 10 12 1 9 5 7 6 9 11 14 3 15 12 3 8 2 3 0 6 13 10 3 12 1 4 14 8 13 4 9 2 5 10 12 7 14 2 12 8 1 7 5 1 13 11 4 4 11 14 0 11 9 14 8 13 5 13 14 6 15 5 7 14 11 9 12 13 3 3 13 11 6 9 12 8 13 14 5 14 14 0 0 0 10 13 3 4 10 0 0 2 4 6 7 6 10 10 3 11 15 7 12 7 6 11 14 1 1 4 12 6 0 0 0 0 11 5 12 2 4 8 0 0 0 0 5 10 5 13 1 11 7 15 2 3 3 2 8 1 15 4 8 0 0 0 0 0 4 6 1 7 1 9 11 0 0 0 0 0 0 0 0 0 0 0 0 0 0 0 0 0 0 0 0 0 0 0 0 0 10 4 11 10 11 11 11 7 9 0 0 0 0 0 0 0 0 0 0 0 0 0 0 0 0 0 0 0 0 0 0 0 4 7 4 8 4 9 14 10 4 6 10 0 0 0 0 0 0 0 0 0 0 0 0 0 0 0 0 0 0 0 0 0 5 4 9 6 7 11 5 4 8 13 5 13 3 7 0 0 0 0 0 0 0 0 0 0 0 0 0 0 0 0 0 11 7 7 3 8 3 2 8 5 15 6 13 13 10 14 14 14 7 0 0 0 0 0 0 0 0 0 0 0 0 0 5 14 4 1 11 4 15 4 14 9 10 8 4 10 4 5 5 9 7 6 15 13 14 6 0 0 0 0 0 11 1 1 2 12 1 14 15 6 7 12 15 12 3 10 15 12 14 11 9 3 12 7 10 10 12 7 5 9 1 14 6 13 3 11 6 3 10 4 7 15 8 5 1 9 3 6 4 12 14 6 2 14 1 1 3 14 3 13 8 4 5 6 5 2 4 11 3 12 8 3 9 12 5 7 13 4 14 10 15 11 5 1 8 3 13 12 12 13 6 1 12 9 11 3 13 15 6 5 2 15 8 12 5 4 4 14 11 15 1 11 14 12 6 10 9 15 10 7 5 7 12 3 1 12 7 12 15 7 1 8 11 10 1 5 3 1 10 15 14 3 14 5 3 13 12 7 15 11 7 14 7 3 7 7 6 8 12 6 12 3 2 10 5 6 2 15 15 1 8 13 6 4 15 10 4 11 15 9 6 5 1 7 10 4 11 12 14 9 15 7 5 5 6 12 2 14 2 14 11 8 7 12 2 3 1 7 5 12 3 2 7 15 15 8 10 5 10 14 10 6 10 15 11 6 10 11 14 7 4 6 9 2 11 2 11 9 11 13 14 10 5 12 15 12 8 12 3 8 4 6 12 10 14 1 1 4 15 12 5 5 5 7 9 8 14 11 8 3 9 14 5 12 11 9 2 4 4 7 15 2 10 11 3 13 4 4 9 13 11 1 7 10 11 4 9 3 11 8 14 10 5 12 7 10 12 11 4 7 7 9 1 6 3 8 6 5 1 13 13 7 9 1 5 9 4 6 9 5 9 9 2 9 10 5 11 8 5 6 14 10 6 6 9 14 6 14 13 14 5 12 9 3 1 10 8 2 4 10 2 11 2 11 6 7 10 7 8 8 8 15 13 15 13 14 15 12 6 6 14 10 15 8 6 10 3 14 7 10 8 2 1 2 3 14 6 6 5 15 14 3 12 7 8 13 6 3 10 11 8 2 1 3 4 5 3 3 13 14 11 7 2 5 10 15 8 15 11 4 5 2 12 13 4 3 8 11 3 5 10 4 14 12 7 11 6 15 