P2
33 33
250
1 13 14 9 10 9 13 9 11 2 6 13 4 9 11 2 7 14 9 8 3 13 6 13 10 13 5 5 2 4 6 13 1 10 5 5 3 11 1 8 3 9 15 13 15 6 6 8 6 3 6 15 7 7 7 10 9 10 3 11 6 10 3 13 15 13 12 12 4 13 11 1 12 7 2 15 15 1 12 14 4 5 11 5 12 12 13 15 12 11 10 6 11 1 1 10 6 2 9 1 15 11 5 3 11 7 5 13 12 12 10 8 2 3 11 1 1 4 3 7 4 9 14 3 5 7 5 15 15 1 5 7 1 1 14 13 9 4 11 9 15 15 5 0 0 0 0 0 15 11 9 5 13 15 2 1 12 3 5 6 9 3 7 4 15 6 5 10 10 0 0 0 0 0 0 0 0 0 0 0 0 0 0 0 0 0 0 5 7 4 14 3 7 2 8 9 13 2 0 0 0 0 0 0 0 0 0 0 0 0 0 0 0 0 0 0 0 0 0 0 0 0 0 0 13 8 2 9 11 1 14 0 0 0 0 0 0 0 0 0 0 0 0 0 0 0 0 0 0 0 0 0 0 0 0 0 0 0 0 8 6 11 7 11 0 0 0 0 0 2 8 4 13 1 4 9 10 1 12 8 12 2 2 13 13 0 0 0 0 0 0 0 0 4 4 8 5 0 13 14 9 11 14 2 4 12 11 9 12 11 4 2 12 6 9 10 6 10 10 3 11 12 0 0 0 0 10 9 9 1 6 10 14 5 4 12 14 13 4 12 7 2 5 15 8 4 6 1 15 8 8 6 5 6 9 10 3 6 4 3 3 13 7 3 15 14 8 8 7 5 5 12 3 1 8 1 7 6 9 3 4 13 5 11 12 9 11 5 12 6 13 11 15 1 7 11 6 14 4 3 4 11 14 5 9 9 14 10 14 15 8 5 10 11 8 1 2 12 2 5 11 5 1 15 3 12 6 1 7 15 8 15 3 12 4 2 6 6 1 2 15 11 15 4 2 3 15 15 2 13 15 15 3 10 6 10 2 3 3 4 5 11 12 12 15 7 12 13 1 9 3 12 6 9 4 12 8 5 9 14 1 3 8 9 6 3 11 8 4 1 7 1 9 5 8 2 11 8 2 12 14 13 11 14 2 11 13 11 4 14 8 4 1 6 12 12 7 6 8 4 9 8 2 11 4 10 12 11 2 4 1 12 1 11 6 7 2 6 13 6 3 2 6 8 4 12 4 3 10 10 10 4 7 3 6 8 2 6 15 14 3 6 5 14 7 12 6 1 14 10 5 4 14 1 11 9 11 9 10 11 9 5 8 10 1 2 1 3 8 10 13 13 1 2 7 10 4 10 7 8 8 3 7 10 1 5 8 9 4 2 4 13 5 14 13 10 3 13 1 7 8 13 13 7 5 15 12 4 10 11 15 4 5 2 3 13 1 8 2 11 9 5 1 12 12 3 14 12 13 2 14 6 11 14 10 2 13 1 4 9 9 1 1 5 4 6 10 8 10 15 11 14 3 10 6 15 4 6 3 10 3 7 12 8 14 14 9 3 9 12 7 13 4 8 10 13 13 8 9 1 9 2 9 15 2 6 9 14 8 10 14 2 11 1 1 4 13 3 13 3 2 8 15 5 12 14 9 11 7 8 5 4 2 11 14 11 2 2 4 7 3 4 11 6 1 15 6 4 4 7 5 6 4 11 9 3 3 11 9 9 9 14 15 13 13 1 9 6 12 12 2 14 13 8 10 11 7 14 9 8 2 12 3 5 15 10 9 12 10 15 1 12 11 13 1 8 6 8 13 3 12 4 14 11 7 7 2 13 3 9 4 15 5 11 5 8 12 8 12 15 7 6 4 4 2 14 6 10 1 14 8 9 7 2 1 1 4 5 11 11 4 3 7 12 9 8 4 15 13 1 8 9 3 13 8 7 15 15 2 2 4 3 5 15 2 6 6 7 7 4 9 8 15 5 11 1 14 5 13 6 2 13 1 9 3 9 5 7 7 5 7 12 4 1 2 8 3 1 13 9 8 4 4 9 4 1 6 9 10 11 8 7 9 12 2 6 9 15 15 15 12 12 12 11 7 9 8 12 14 10 3 6 10 5 9 8 7 7 7 9 13 12 3 7 9 11 10 7 2 9 7 9 7 11 4 15 3 5 14 4 9 8 3 12 5 9 2 14 3 2 8 5 2 2 3 13 13 10 5 13 12 11 5 14 7 8 12 3 1 12 10 8 10 7 6 3 8 9 3 2 13 7 1 10 7 5 10 7 13 8 9 12 7 4 13 9 3 15 7 1 7 2 6 2 4 12 4 2 1 1 10 7 14 8 5 8 2 7 10 11 15 2 14 6 12 4 5 4 9 12 11 8 2 15 12 14 12 10 7 15 12 7 11 12 1 4 11 6 1 10 1 9 12 6 4 11 4 14 7 3 9 6 14 9 1 8 3 1 9 